<svg xmlns="http://www.w3.org/2000/svg" enable-background="new 0 0 1364 960" viewBox="0 0 1364 960"><path fill="#8336c4" d="M354.34,448.24c-0.8,0-1.46-0.63-1.5-1.43c-0.04-0.83,0.6-1.53,1.43-1.57c3.63-0.16,7.31-0.55,10.93-1.15
			c0.81-0.13,1.59,0.42,1.72,1.23c0.14,0.82-0.42,1.59-1.23,1.73c-3.74,0.62-7.54,1.02-11.29,1.19
			C354.38,448.24,354.36,448.24,354.34,448.24z M341.36,447.92c-0.05,0-0.1,0-0.14-0.01c-4.33-0.41-8.71-1.14-13-2.15
			c-0.81-0.19-1.31-1-1.12-1.81s1-1.31,1.8-1.11c4.16,0.98,8.4,1.69,12.6,2.09c0.82,0.08,1.43,0.81,1.35,1.64
			C342.78,447.34,342.12,447.92,341.36,447.92z M316.15,441.99c-0.18,0-0.36-0.03-0.53-0.1c-4.03-1.52-8.07-3.34-12.01-5.39
			c-0.73-0.38-1.02-1.29-0.64-2.02c0.38-0.74,1.29-1.02,2.02-0.64c3.83,2,7.76,3.76,11.68,5.25c0.78,0.29,1.17,1.16,0.87,1.93
			C317.32,441.62,316.75,441.99,316.15,441.99z M293.13,430.04c-0.29,0-0.58-0.08-0.83-0.25c-3.57-2.39-7.12-5.03-10.54-7.84
			c-0.64-0.53-0.73-1.47-0.21-2.11c0.53-0.64,1.47-0.73,2.11-0.21c3.35,2.75,6.82,5.33,10.31,7.66c0.69,0.46,0.87,1.39,0.41,2.08
			C294.09,429.81,293.61,430.04,293.13,430.04z M273.05,413.59c-0.38,0-0.76-0.14-1.05-0.43c-3.07-3.02-6.08-6.25-8.96-9.59
			c-0.54-0.63-0.47-1.58,0.16-2.12c0.63-0.54,1.58-0.47,2.12,0.16c2.82,3.28,5.78,6.44,8.79,9.41c0.59,0.58,0.6,1.53,0.02,2.12
			C273.82,413.44,273.44,413.59,273.05,413.59z M256.09,393.92c-0.46,0-0.92-0.21-1.21-0.61c-2.56-3.48-5.04-7.13-7.37-10.84
			c-0.44-0.7-0.23-1.63,0.47-2.07c0.7-0.44,1.63-0.23,2.07,0.47c2.29,3.65,4.73,7.24,7.25,10.66c0.49,0.67,0.35,1.61-0.32,2.1
			C256.71,393.82,256.39,393.92,256.09,393.92z M242.26,371.92c-0.54,0-1.05-0.29-1.32-0.79c-2.05-3.83-3.99-7.79-5.78-11.77
			c-0.34-0.76,0-1.64,0.75-1.98c0.75-0.34,1.64,0,1.98,0.75c1.76,3.92,3.67,7.81,5.69,11.58c0.39,0.73,0.11,1.64-0.62,2.03
			C242.74,371.86,242.5,371.92,242.26,371.92z M231.6,348.2c-0.61,0-1.18-0.37-1.41-0.98c-1.51-4.08-2.9-8.26-4.13-12.44
			c-0.23-0.79,0.22-1.63,1.02-1.86c0.79-0.23,1.63,0.22,1.86,1.02c1.21,4.11,2.57,8.23,4.06,12.24c0.29,0.78-0.11,1.64-0.89,1.93
			C231.95,348.17,231.78,348.2,231.6,348.2z M224.28,323.27c-0.69,0-1.31-0.48-1.46-1.18c-0.94-4.28-1.73-8.62-2.35-12.89
			c-0.12-0.82,0.45-1.58,1.27-1.7c0.82-0.12,1.58,0.45,1.7,1.27c0.61,4.2,1.39,8.47,2.31,12.68c0.18,0.81-0.33,1.61-1.14,1.79
			C224.49,323.26,224.38,323.27,224.28,323.27z M220.57,297.56c-0.78,0-1.44-0.61-1.49-1.4c-0.26-3.75-0.38-7.51-0.38-11.19
			c0-0.64,0-1.27,0.01-1.91c0.01-0.83,0.73-1.48,1.52-1.48c0.83,0.01,1.49,0.69,1.48,1.52c-0.01,0.62-0.01,1.25-0.01,1.87
			c0,3.61,0.13,7.31,0.38,10.99c0.06,0.83-0.57,1.54-1.39,1.6C220.64,297.56,220.6,297.56,220.57,297.56z M220.91,271.61
			c-0.05,0-0.1,0-0.15-0.01c-0.82-0.08-1.43-0.81-1.35-1.64c0.05-0.46,0.09-0.93,0.14-1.39c0.41-3.85,1-7.75,1.76-11.61
			c0.16-0.81,0.96-1.34,1.76-1.18c0.81,0.16,1.34,0.95,1.19,1.76c-0.74,3.78-1.32,7.6-1.72,11.36c-0.05,0.45-0.09,0.91-0.14,1.37
			C222.32,271.03,221.67,271.61,220.91,271.61z M225.88,246.11c-0.14,0-0.28-0.02-0.43-0.06c-0.79-0.24-1.25-1.07-1.01-1.86
			c1.26-4.26,2.73-8.43,4.36-12.42c0.31-0.77,1.19-1.13,1.96-0.82c0.77,0.31,1.13,1.19,0.82,1.96c-1.59,3.89-3.03,7.97-4.26,12.13
			C227.12,245.69,226.52,246.11,225.88,246.11z M235.77,222.11c-0.25,0-0.49-0.06-0.72-0.19c-0.73-0.4-0.99-1.31-0.59-2.04
			c2.18-3.96,4.57-7.7,7.1-11.11c0.49-0.67,1.43-0.81,2.1-0.31c0.67,0.49,0.8,1.43,0.31,2.1c-2.45,3.31-4.77,6.94-6.88,10.77
			C236.81,221.83,236.3,222.11,235.77,222.11z M295.97,217.86c-1.41,0-2.89-0.1-4.38-0.29c-1.7-0.22-3.38-0.54-4.98-0.94
			c-0.8-0.2-1.29-1.02-1.09-1.82c0.2-0.8,1.02-1.29,1.82-1.09c1.49,0.38,3.04,0.67,4.63,0.87c2.71,0.35,5.31,0.35,7.67,0.01
			c0.83-0.12,1.58,0.45,1.7,1.27s-0.45,1.58-1.27,1.7C298.76,217.77,297.38,217.86,295.97,217.86z M311.3,211.96
			c-0.37,0-0.74-0.14-1.03-0.41c-0.6-0.57-0.63-1.52-0.06-2.12c2.63-2.79,4.08-6.42,4.08-10.24c0-0.17,0-0.35-0.01-0.52
			c-0.03-0.83,0.62-1.52,1.45-1.55c0.8-0.03,1.52,0.62,1.55,1.45c0.01,0.21,0.01,0.42,0.01,0.63c0,4.58-1.74,8.95-4.9,12.3
			C312.09,211.81,311.7,211.96,311.3,211.96z M275.24,211.27c-0.31,0-0.62-0.09-0.88-0.29c-3.77-2.75-6.79-6.17-8.96-10.16
			c-0.4-0.73-0.13-1.64,0.6-2.03c0.73-0.39,1.64-0.13,2.03,0.6c1.96,3.6,4.68,6.69,8.09,9.17c0.67,0.49,0.82,1.43,0.33,2.1
			C276.16,211.05,275.71,211.27,275.24,211.27z M251.29,201.37c-0.39,0-0.78-0.15-1.08-0.46c-0.58-0.59-0.56-1.54,0.03-2.12
			c3.25-3.16,6.74-5.95,10.35-8.29c0.69-0.45,1.62-0.25,2.08,0.44c0.45,0.69,0.25,1.62-0.44,2.07c-3.45,2.24-6.78,4.9-9.89,7.93
			C252.04,201.23,251.67,201.37,251.29,201.37z M262.93,189.23c-0.72,0-1.35-0.51-1.48-1.24c-0.77-4.4-1.18-8.83-1.23-13.17
			c-0.01-0.83,0.66-1.51,1.48-1.52c0.01,0,0.01,0,0.02,0c0.82,0,1.49,0.66,1.5,1.48c0.05,4.18,0.44,8.44,1.18,12.69
			c0.14,0.82-0.4,1.59-1.22,1.73C263.11,189.22,263.02,189.23,262.93,189.23z M310.37,188.7c-0.35,0-0.71-0.12-0.99-0.38
			c-2.77-2.44-6.58-3.96-11.01-4.4c-0.82-0.08-1.43-0.81-1.35-1.64c0.08-0.82,0.81-1.43,1.64-1.35c5.07,0.5,9.46,2.27,12.7,5.14
			c0.62,0.55,0.68,1.5,0.13,2.12C311.2,188.53,310.79,188.7,310.37,188.7z M272.98,187.43c-0.61,0-1.18-0.37-1.41-0.98
			c-0.29-0.78,0.11-1.64,0.88-1.93c4.13-1.53,8.46-2.61,12.9-3.21c0.82-0.11,1.58,0.47,1.69,1.29c0.11,0.82-0.47,1.58-1.29,1.69
			c-4.21,0.56-8.33,1.59-12.25,3.04C273.33,187.4,273.16,187.43,272.98,187.43z M262.7,163.36c-0.08,0-0.16-0.01-0.24-0.02
			c-0.82-0.13-1.37-0.9-1.24-1.72c0.7-4.33,1.79-8.65,3.24-12.83c0.27-0.78,1.13-1.2,1.91-0.93c0.78,0.27,1.2,1.13,0.93,1.91
			c-1.39,4.02-2.44,8.16-3.12,12.33C264.06,162.84,263.42,163.36,262.7,163.36z M271.13,138.92c-0.24,0-0.49-0.06-0.72-0.18
			c-0.73-0.4-1-1.31-0.6-2.03c2.07-3.79,4.49-7.53,7.19-11.09c0.5-0.66,1.44-0.79,2.1-0.29c0.66,0.5,0.79,1.44,0.29,2.1
			c-2.62,3.44-4.95,7.05-6.95,10.71C272.18,138.64,271.67,138.92,271.13,138.92z M286.75,118.25c-0.38,0-0.77-0.15-1.06-0.44
			c-0.59-0.59-0.59-1.54,0-2.12c3.03-3.04,6.35-5.98,9.86-8.73c0.65-0.51,1.59-0.4,2.11,0.25c0.51,0.65,0.4,1.59-0.25,2.11
			c-3.41,2.69-6.64,5.54-9.59,8.5C287.52,118.1,287.14,118.25,286.75,118.25z M307.11,102.17c-0.5,0-0.99-0.25-1.27-0.7
			c-0.44-0.7-0.23-1.63,0.48-2.07c3.64-2.28,7.5-4.44,11.47-6.42c0.74-0.37,1.64-0.07,2.01,0.67c0.37,0.74,0.07,1.64-0.67,2.01
			c-3.88,1.94-7.65,4.05-11.21,6.28C307.66,102.09,307.38,102.17,307.11,102.17z M330.33,90.54c-0.6,0-1.16-0.36-1.4-0.95
			c-0.3-0.77,0.08-1.64,0.85-1.94c4.01-1.58,8.18-3.02,12.4-4.29c0.79-0.24,1.63,0.21,1.87,1c0.24,0.79-0.21,1.63-1,1.87
			c-4.14,1.25-8.23,2.66-12.17,4.21C330.7,90.51,330.51,90.54,330.33,90.54z M570.89,86.91c-2.71,0-5.52-0.03-8.35-0.08
			c-0.83-0.02-1.49-0.7-1.47-1.53c0.02-0.83,0.72-1.51,1.53-1.47c4.44,0.08,8.74,0.1,12.96,0.05c0.79-0.03,1.51,0.65,1.52,1.48
			c0.01,0.83-0.65,1.51-1.48,1.52C574.03,86.9,572.46,86.91,570.89,86.91z M588.56,86.48c-0.79,0-1.46-0.62-1.5-1.42
			c-0.04-0.83,0.59-1.53,1.42-1.57c4.44-0.23,8.77-0.55,12.89-0.97c0.81-0.08,1.56,0.52,1.64,1.34c0.08,0.82-0.52,1.56-1.34,1.64
			c-4.17,0.42-8.55,0.75-13.04,0.98C588.61,86.48,588.58,86.48,588.56,86.48z M549.57,86.42c-0.02,0-0.04,0-0.07,0
			c-4.16-0.18-8.42-0.4-13.01-0.68c-0.83-0.05-1.46-0.76-1.41-1.59c0.05-0.83,0.8-1.45,1.59-1.41c4.58,0.28,8.82,0.5,12.96,0.68
			c0.83,0.04,1.47,0.74,1.43,1.56C551.04,85.79,550.37,86.42,549.57,86.42z M523.63,84.87c-0.04,0-0.07,0-0.11,0
			c-4.3-0.32-8.63-0.66-12.97-1.01c-0.83-0.07-1.44-0.79-1.37-1.62c0.07-0.83,0.79-1.44,1.62-1.37c4.33,0.35,8.65,0.69,12.94,1.01
			c0.83,0.06,1.45,0.78,1.39,1.61C525.06,84.27,524.41,84.87,523.63,84.87z M614.41,83.83c-0.72,0-1.36-0.52-1.48-1.26
			c-0.13-0.82,0.42-1.59,1.24-1.72c4.37-0.71,8.62-1.56,12.63-2.53c0.8-0.19,1.62,0.3,1.81,1.11c0.19,0.81-0.3,1.62-1.11,1.81
			c-4.09,0.98-8.41,1.85-12.85,2.57C614.57,83.83,614.49,83.83,614.41,83.83z M355.19,83.03c-0.69,0-1.31-0.48-1.46-1.18
			c-0.18-0.81,0.33-1.61,1.14-1.79c3.92-0.86,7.96-1.6,11.99-2.2l0.91-0.13c0.83-0.12,1.58,0.45,1.7,1.27
			c0.12,0.82-0.45,1.58-1.27,1.7l-0.89,0.13c-3.97,0.59-7.93,1.32-11.79,2.17C355.4,83.01,355.29,83.03,355.19,83.03z M497.72,82.78
			c-0.04,0-0.09,0-0.13-0.01l-12.95-1.1c-0.83-0.07-1.44-0.79-1.37-1.62c0.07-0.83,0.79-1.44,1.62-1.37l12.96,1.1
			c0.83,0.07,1.44,0.8,1.37,1.62C499.14,82.18,498.49,82.78,497.72,82.78z M471.8,80.61c-0.04,0-0.08,0-0.12,0
			c-4.32-0.34-8.64-0.67-12.96-0.97c-0.83-0.06-1.45-0.77-1.39-1.6c0.06-0.83,0.78-1.45,1.6-1.39c4.32,0.3,8.65,0.63,12.98,0.97
			c0.83,0.06,1.44,0.79,1.38,1.61C473.24,80.02,472.58,80.61,471.8,80.61z M380.89,79.18c-0.77,0-1.42-0.58-1.49-1.36
			c-0.08-0.82,0.53-1.56,1.35-1.63c4.18-0.39,8.57-0.7,13.03-0.92c0.81-0.04,1.53,0.6,1.57,1.42c0.04,0.83-0.6,1.53-1.42,1.57
			c-4.42,0.22-8.76,0.53-12.9,0.92C380.98,79.18,380.93,79.18,380.89,79.18z M445.85,78.82c-0.03,0-0.06,0-0.08,0
			c-4.5-0.25-8.86-0.46-12.97-0.62c-0.83-0.03-1.47-0.73-1.44-1.56c0.03-0.83,0.73-1.46,1.56-1.44c4.12,0.16,8.5,0.36,13.02,0.62
			c0.83,0.05,1.46,0.75,1.41,1.58C447.3,78.2,446.64,78.82,445.85,78.82z M419.85,77.86c-0.01,0-0.01,0-0.02,0
			c-2.27-0.03-4.51-0.03-6.79-0.05c-2.06,0-4.12,0.01-6.17,0.04c-0.01,0-0.01,0-0.02,0c-0.82,0-1.49-0.66-1.5-1.48
			c-0.01-0.83,0.65-1.51,1.48-1.52c2.06-0.03,4.14-0.04,6.21-0.04c0.03,0,0.07,0,0.1,0c2.24,0,4.48,0.02,6.73,0.05
			c0.83,0.01,1.49,0.69,1.48,1.52C421.34,77.2,420.67,77.86,419.85,77.86z M639.65,77.69c-0.62,0-1.21-0.39-1.42-1.02
			c-0.27-0.78,0.15-1.64,0.94-1.9c4.14-1.41,8.15-3.01,11.91-4.76c0.75-0.35,1.64-0.02,1.99,0.73c0.35,0.75,0.02,1.64-0.73,1.99
			c-3.86,1.79-7.96,3.43-12.21,4.88C639.97,77.66,639.81,77.69,639.65,77.69z"/><path fill="#e5d7f7" d="M1023.83,375.19c-15.63,0-28.3,12.66-28.3,28.29c0,15.62,12.67,28.29,28.3,28.29
			c15.62,0,28.29-12.67,28.29-28.29C1052.12,387.85,1039.45,375.19,1023.83,375.19z M1023.83,410.8c-4.05,0-7.32-3.28-7.32-7.32
			c0-4.04,3.27-7.32,7.32-7.32c4.04,0,7.32,3.28,7.32,7.32C1031.15,407.52,1027.87,410.8,1023.83,410.8z"/><path fill="#e5d7f7" d="M1105.22,390.5l-17.47-5.59c0,0,0,0,0,0c-1.37-4.74-3.27-9.28-5.61-13.53l8.3-16.48
			c1.41-2.79,0.86-6.17-1.35-8.38l-8.45-8.45c-2.23-2.23-5.64-2.76-8.43-1.32l-16.33,8.41h-0.01c-4.24-2.34-8.76-4.23-13.5-5.6
			c0,0,0,0,0,0l-5.78-17.53c-0.98-2.97-3.75-4.97-6.87-4.97h-11.96c-3.15,0-5.93,2.03-6.89,5.03l-5.6,17.49c0,0,0,0-0.01,0
			c-4.74,1.36-9.26,3.24-13.5,5.59c0,0-0.01,0-0.01,0.01l-16.48-8.3c-2.79-1.41-6.17-0.86-8.38,1.35l-8.45,8.45
			c-2.23,2.23-2.76,5.63-1.32,8.43l8.4,16.31c-2.34,4.26-4.23,8.78-5.6,13.54l-17.52,5.78c-2.97,0.98-4.97,3.75-4.97,6.87l0,11.96
			c0,3.15,2.03,5.93,5.03,6.89l17.47,5.59c0,0,0,0,0,0.01c1.37,4.74,3.27,9.28,5.61,13.53l-8.3,16.48
			c-1.41,2.79-0.86,6.17,1.35,8.38l8.45,8.45c2.23,2.23,5.64,2.76,8.43,1.32l16.32-8.41c4.24,2.34,8.76,4.23,13.5,5.59h0.01
			l5.79,17.54c0.98,2.97,3.75,4.97,6.87,4.97h11.96c3.15,0,5.93-2.03,6.89-5.03l5.59-17.48c0,0,0.01,0,0.01,0
			c4.74-1.37,9.27-3.26,13.5-5.6c0,0,0.01,0,0.01-0.01l16.48,8.3c2.79,1.41,6.17,0.86,8.38-1.35l8.45-8.45
			c2.23-2.23,2.76-5.64,1.32-8.43l-8.4-16.31c2.34-4.26,4.23-8.78,5.6-13.54l17.52-5.78c2.97-0.98,4.97-3.75,4.97-6.87v-11.96
			C1110.25,394.25,1108.21,391.46,1105.22,390.5z M1023.83,451.07c-26.28,0-47.59-21.31-47.59-47.59s21.31-47.59,47.59-47.59
			s47.57,21.31,47.57,47.59C1071.41,429.76,1050.11,451.07,1023.83,451.07z"/><path fill="#e5d7f7" d="M448.56,189.42c-15.29,2.16-25.93,16.3-23.76,31.58c2.16,15.28,16.3,25.91,31.59,23.75
			c15.28-2.16,25.91-16.3,23.75-31.58C477.98,197.89,463.83,187.26,448.56,189.42z M453.48,224.24c-3.96,0.56-7.61-2.19-8.17-6.14
			c-0.56-3.95,2.18-7.61,6.14-8.17c3.95-0.56,7.61,2.19,8.17,6.14C460.18,220.02,457.43,223.68,453.48,224.24z"/><path fill="#e5d7f7" d="M530.26,193.13l-17.86-3.05c0,0,0,0,0,0c-2-4.45-4.48-8.63-7.36-12.45l5.84-17.27
			c0.99-2.92-0.01-6.15-2.47-8l-9.44-7.1c-2.48-1.87-5.89-1.92-8.43-0.12l-14.8,10.48l-0.01,0c-4.47-1.7-9.15-2.92-13.98-3.61
			c0,0,0,0,0,0l-8.08-16.34c-1.37-2.77-4.36-4.34-7.41-3.91l-11.69,1.65c-3.08,0.44-5.52,2.81-6.05,5.87l-3.05,17.88c0,0,0,0,0,0
			c-4.45,1.98-8.61,4.45-12.43,7.33c0,0-0.01,0-0.01,0.01l-17.27-5.84c-2.92-0.99-6.15,0.01-8,2.47l-7.1,9.44
			c-1.87,2.48-1.92,5.89-0.12,8.43l10.47,14.78c-1.7,4.49-2.92,9.17-3.6,14.01l-16.33,8.08c-2.77,1.37-4.34,4.35-3.91,7.41
			l1.65,11.69c0.44,3.08,2.81,5.52,5.87,6.05l17.86,3.05c0,0,0,0,0,0c2,4.45,4.48,8.63,7.36,12.45l-5.84,17.26
			c-0.99,2.92,0.01,6.15,2.48,8l9.44,7.1c2.48,1.87,5.89,1.92,8.43,0.12l14.8-10.48c4.47,1.7,9.15,2.92,13.98,3.6l0.01,0l8.09,16.35
			c1.37,2.77,4.36,4.34,7.41,3.91l11.69-1.65c3.08-0.44,5.52-2.81,6.05-5.87l3.05-17.86c0,0,0.01,0,0.01,0
			c4.45-2,8.62-4.47,12.43-7.35c0,0,0.01-0.01,0.01-0.01l17.27,5.84c2.92,0.99,6.15-0.01,8-2.47l7.1-9.44
			c1.87-2.48,1.92-5.89,0.12-8.43l-10.47-14.78c1.7-4.49,2.92-9.17,3.6-14.01l16.34-8.08c2.77-1.37,4.34-4.35,3.91-7.41l-1.65-11.69
			C535.7,196.1,533.32,193.66,530.26,193.13z M459.06,263.62c-25.7,3.64-49.48-14.25-53.12-39.95
			c-3.64-25.7,14.25-49.48,39.95-53.12c25.7-3.64,49.47,14.25,53.1,39.95C502.63,236.2,484.76,259.99,459.06,263.62z"/><path fill="#e5d7f7" d="M596.04,158.27c-7.9,5.12-10.15,15.67-5.04,23.56c5.12,7.89,15.67,10.15,23.57,5.03
			c7.89-5.12,10.15-15.67,5.03-23.56C614.49,155.4,603.94,153.16,596.04,158.27z M607.7,176.26c-2.05,1.33-4.77,0.74-6.09-1.3
			c-1.32-2.04-0.74-4.77,1.3-6.09c2.04-1.32,4.77-0.74,6.09,1.3C610.33,172.21,609.74,174.94,607.7,176.26z"/><path fill="#e5d7f7" d="M642.18,139.36l-10.66,2.9c0,0,0,0,0,0c-2.25-1.95-4.69-3.62-7.27-5l-1.2-11.05
			c-0.2-1.87-1.58-3.4-3.42-3.79l-7.04-1.5c-1.85-0.4-3.75,0.45-4.69,2.1l-5.5,9.6l-0.01,0c-2.91,0.21-5.81,0.73-8.66,1.59
			c0,0,0,0,0,0l-8.66-6.96c-1.47-1.18-3.52-1.28-5.1-0.26l-6.04,3.92c-1.59,1.03-2.33,2.97-1.84,4.8l2.9,10.67c0,0,0,0,0,0
			c-1.95,2.24-3.62,4.67-4.99,7.25c0,0,0,0,0,0.01l-11.05,1.2c-1.87,0.2-3.4,1.58-3.79,3.42l-1.5,7.04c-0.4,1.85,0.45,3.75,2.1,4.69
			l9.58,5.49c0.21,2.92,0.74,5.82,1.6,8.67l-6.96,8.66c-1.18,1.47-1.28,3.52-0.26,5.1l3.92,6.04c1.03,1.59,2.97,2.33,4.8,1.84
			l10.66-2.9c0,0,0,0,0,0c2.25,1.95,4.69,3.62,7.27,5l1.2,11.04c0.2,1.87,1.58,3.4,3.42,3.79l7.04,1.5c1.85,0.4,3.75-0.45,4.69-2.1
			l5.49-9.59c2.91-0.21,5.81-0.73,8.65-1.6l0.01,0l8.67,6.97c1.47,1.18,3.52,1.28,5.1,0.26l6.04-3.92c1.59-1.03,2.33-2.97,1.84-4.8
			l-2.9-10.66c0,0,0,0,0,0c1.95-2.25,3.62-4.68,4.99-7.25c0,0,0,0,0-0.01l11.05-1.2c1.87-0.2,3.4-1.58,3.79-3.42l1.5-7.04
			c0.4-1.85-0.45-3.75-2.1-4.69l-9.58-5.49c-0.21-2.92-0.74-5.82-1.6-8.67l6.96-8.66c1.18-1.47,1.28-3.52,0.26-5.1l-3.92-6.04
			C645.95,139.6,644.01,138.86,642.18,139.36z M620.89,196.61c-13.28,8.61-31.02,4.82-39.63-8.46s-4.82-31.02,8.46-39.63
			s31.01-4.81,39.62,8.47C637.95,170.27,634.17,188.01,620.89,196.61z"/><path fill="#c29bf9" d="M995,177.85H479.54c-15.92,0-28.83,13.89-28.83,31.04v350.5c0,17.15,12.9,31.09,28.83,31.09H995
			c15.93,0,28.83-13.95,28.83-31.09v-350.5C1023.83,191.74,1010.92,177.85,995,177.85z M1015.86,556.88
			c0,15.11-12.55,27.32-28.07,27.32h-501.1c-15.46,0-28.02-12.2-28.02-27.32V248.59c0-15.11,12.55-27.38,28.02-27.38h501.1
			c15.52,0,28.07,12.26,28.07,27.38V556.88z"/><path fill="#641ba1" d="M1015.86,248.59v308.29c0,15.11-12.55,27.32-28.07,27.32h-501.1c-15.46,0-28.02-12.2-28.02-27.32V248.59
			c0-15.11,12.55-27.38,28.02-27.38h501.1C1003.31,221.21,1015.86,233.47,1015.86,248.59z"/><path fill="#fff" d="M556.01,200.14c0-2.86-2.15-5.18-4.81-5.18c-2.66,0-4.81,2.32-4.81,5.18c0,2.86,2.15,5.18,4.81,5.18
			C553.86,205.32,556.01,203,556.01,200.14z"/><path fill="#fff" d="M531.65,200.14c0-2.86-2.15-5.18-4.81-5.18c-2.66,0-4.81,2.32-4.81,5.18c0,2.86,2.15,5.18,4.81,5.18
			C529.49,205.32,531.65,203,531.65,200.14z"/><path fill="#fff" d="M507.28,200.14c0-2.86-2.15-5.18-4.81-5.18c-2.66,0-4.81,2.32-4.81,5.18c0,2.86,2.15,5.18,4.81,5.18
			C505.13,205.32,507.28,203,507.28,200.14z"/><path fill="#fff" d="M865.32,205.32h110.53c2.86,0,5.18-2.32,5.18-5.18l0,0c0-2.86-2.32-5.18-5.18-5.18H865.32
			c-2.86,0-5.18,2.32-5.18,5.18l0,0C860.14,203,862.46,205.32,865.32,205.32z"/><path fill="gray" d="M1015.75,559.19c-0.88,10.48-7.84,19.25-17.43,23.02c-3.25,1.29-6.81,1.99-10.53,1.99H486.7
		c-8.14,0-15.47-3.39-20.59-8.8c-4.61-4.86-7.42-11.37-7.42-18.52v-14.84c11.8-7.51,27.05-9.52,40.6-2.25
		c9.6-9.51,25.61-11.76,37.47-5.27c3.19-34.09,46.8-32.96,71.12-21.7c-1.54-10.4,11.97-17.19,19.38-9.75
		c2.56-25.89,35.18-33.71,55.37-21.9c5.79,2.91,21.25-6.12,26.47-9.94c8.02-7.51,9.86-55.48,11.38-57.67h37.19
		c-0.31,4.17-2.34,54.66,27.66,71.5c4.43,2.49,10.56,3.61,11,8.66c1.77-2.11,4.96-2.87,7.49-1.78c15.39-16,44.66-5.93,46.94,16.15
		c5.1-4.19,13.72-2.95,17.42,2.53c17.12-26.88,60.08-12.44,57.47,19.34c6.22-3.99,14.42,2.83,11.63,9.67
		c3.73-0.82,8.8-1.2,11.93,0.99c3.93-7.31,9.87-13.77,17.48-17.12c15.63-8.02,37.69,5.21,31.02,23.39
		c8.3-3.49,18.19,3.33,17.89,12.32C1015.66,559.22,1015.7,559.2,1015.75,559.19z"/><path fill="gray" d="M998.32,582.21c-3.25,1.29-6.81,1.99-10.53,1.99H486.7c-8.14,0-15.47-3.39-20.59-8.8
		c10.39-4.14,22.34-4.26,33.18,1.57c9.6-9.51,25.61-11.77,37.47-5.27c3.19-34.1,46.8-32.97,71.12-21.71
		c-1.54-10.4,11.97-17.18,19.38-9.75c2.56-25.88,35.18-33.71,55.37-21.89c5.79,2.91,21.25-6.12,26.47-9.95
		c8.02-7.5,9.86-55.47,11.38-57.67h37.19c-0.31,4.18-2.34,54.67,27.66,71.51c4.43,2.48,10.56,3.6,11,8.66
		c1.77-2.11,4.96-2.87,7.49-1.78c15.39-16,44.66-5.93,46.94,16.15c5.1-4.2,13.72-2.95,17.42,2.53
		c17.12-26.88,60.08-12.44,57.47,19.33c6.22-3.98,14.42,2.84,11.63,9.68c3.73-0.82,8.8-1.21,11.93,0.99
		c3.93-7.31,9.87-13.77,17.48-17.12C981.8,552.96,1002.87,565.02,998.32,582.21z"/><path fill="#b37aea" d="M312.13,764.18c-1.78-2.38-0.63-6.04,1.76-7.79c2.39-1.75,5.58-2,8.55-1.75c4.8,0.4,9.08,1.78,13.49,3.43
		c-3.17-3.15-6.22-6.41-9.16-9.75c-1.94-2.21-3.84-4.47-5.69-6.77c-5.39,3.96-11.97,6.28-18.65,6.53c-2.53,0.1-5.41-0.27-6.92-2.3
		c-1.76-2.38-0.62-6.03,1.77-7.79c2.38-1.76,5.56-2.01,8.51-1.77c4.96,0.4,9.35,1.87,13.92,3.59c-5.62-7.15-10.73-14.7-15.16-22.63
		c-5.89,2.96-12.65,4.16-19.19,3.36c-2.52-0.31-5.3-1.12-6.47-3.37c-1.37-2.63,0.35-6.06,2.98-7.41c2.63-1.36,5.8-1.1,8.68-0.4
		c4.66,1.14,8.65,3.18,12.73,5.5c-4.53-8.44-8.46-17.6-9.57-27.14c-0.02-0.2-0.04-0.4-0.06-0.6c-6.3,2.16-13.25,2.4-19.68,0.65
		c-2.45-0.66-5.09-1.87-5.92-4.26c-0.98-2.8,1.21-5.94,4.01-6.91c2.8-0.97,5.9-0.26,8.65,0.85c4.84,1.95,8.74,4.84,12.79,8.02
		c-0.99-11.06,0.06-22.34-1.31-33.34c-6.39,2.26-13.46,2.54-20.01,0.77c-2.45-0.66-5.09-1.87-5.92-4.26
		c-0.98-2.8,1.21-5.94,4.01-6.91s5.9-0.26,8.65,0.85c4.97,2.01,8.95,5,13.11,8.27c-0.39-2.74-0.94-5.47-1.73-8.17
		c-1.59-5.46-4.34-10.53-7.87-15.05c-5.66,4-12.58,6.19-19.52,6.17c-2.53-0.01-5.4-0.5-6.82-2.59c-1.66-2.45-0.36-6.06,2.09-7.71
		c2.46-1.66,5.64-1.77,8.57-1.41c5.39,0.67,10.06,2.58,15,4.7c-5.85-7.18-13.68-12.9-21.98-16.5c-5.54,2.97-11.93,4.37-18.2,3.95
		c-2.53-0.17-5.36-0.84-6.64-3.02c-1.5-2.55,0.02-6.07,2.58-7.56c2.56-1.5,5.74-1.41,8.65-0.86c4.64,0.88,8.68,2.66,12.81,4.71
		c0.17-0.01,0.35,0.01,0.55,0.09c7.13,2.9,13.64,7.27,19.19,12.59c1.23,1.17,2.41,2.4,3.56,3.67c-2.07-5.76-2.56-12.08-1.35-18.08
		c0.5-2.48,1.53-5.2,3.87-6.19c2.73-1.16,6.01,0.82,7.16,3.55c1.15,2.73,0.65,5.87-0.28,8.69c-1.73,5.25-4.57,9.51-7.68,14.03
		c2.28,2.76,4.29,5.74,5.86,8.95c2.37,4.87,3.7,9.99,4.47,15.23c0.7-6.27,3.18-12.34,7.12-17.28c1.58-1.98,3.74-3.93,6.26-3.74
		c2.95,0.21,4.97,3.47,4.75,6.42c-0.22,2.95-2.1,5.52-4.21,7.6c-4.04,3.98-8.66,6.51-13.63,9.19c1.01,8.68,0.63,17.63,0.9,26.27
		c0.09,2.72,0.25,5.42,0.55,8.09c0.41-6.84,2.96-13.54,7.23-18.91c1.58-1.98,3.73-3.93,6.26-3.75c2.95,0.21,4.98,3.47,4.76,6.42
		c-0.22,2.95-2.1,5.52-4.2,7.61c-4.13,4.08-8.86,6.64-13.96,9.39c0.36,2.85,0.89,5.67,1.71,8.46c1.5,5.11,3.57,10.04,5.93,14.8
		c0.63,1.27,1.28,2.52,1.95,3.77c-0.22-6.21,1.3-12.48,4.39-17.88c1.26-2.2,3.09-4.46,5.61-4.66c2.95-0.24,5.45,2.66,5.68,5.62
		c0.23,2.95-1.23,5.78-2.99,8.16c-3.26,4.4-7.25,7.54-11.57,10.82c4.32,7.75,9.38,15.11,14.88,22.08
		c-1.81-6.23-1.8-12.98,0.09-19.19c0.74-2.42,2.02-5.03,4.44-5.79c2.82-0.89,5.9,1.39,6.79,4.22c0.88,2.83,0.08,5.91-1.11,8.62
		c-2.26,5.14-5.58,9.17-9.17,13.45c0.74,0.92,1.48,1.83,2.23,2.74c4.11,4.96,8.47,9.76,13.08,14.3c-1.67-6.09-1.61-12.66,0.23-18.71
		c0.74-2.43,2.02-5.03,4.44-5.79c2.82-0.89,5.91,1.39,6.79,4.22c0.88,2.83,0.08,5.91-1.11,8.62c-2.2,5-5.39,8.95-8.87,13.1
		c5.31,5.11,10.96,9.87,16.95,14.14c1.25,0.89-0.22,2.77-1.46,1.88c-6.06-4.31-11.74-9.13-17.1-14.3
		c-5.41,3.97-12.05,6.29-18.78,6.53C316.55,766.59,313.65,766.22,312.13,764.18z"/><path fill="#ff6e98" d="M1091.89,661.13c1.37-2.64-0.36-6.06-3.01-7.4c-2.65-1.34-5.83-1.07-8.72-0.34
		c-4.67,1.17-8.67,3.24-12.75,5.57c2.61-3.62,5.1-7.34,7.45-11.12c1.56-2.5,3.06-5.04,4.51-7.61c5.96,3.03,12.83,4.24,19.47,3.41
		c2.51-0.32,5.3-1.15,6.46-3.4c1.35-2.63-0.37-6.05-3.01-7.4c-2.64-1.35-5.81-1.08-8.68-0.36c-4.82,1.2-8.92,3.37-13.15,5.81
		c4.38-7.97,8.2-16.25,11.27-24.79c6.29,1.96,13.16,2.04,19.48,0.19c2.43-0.71,5.05-1.97,5.84-4.38c0.92-2.81-1.33-5.92-4.15-6.83
		c-2.82-0.91-5.91-0.14-8.63,1.02c-4.41,1.89-8.02,4.55-11.66,7.5c3.1-9.06,5.48-18.74,5.03-28.34c-0.01-0.2-0.03-0.4-0.04-0.6
		c6.57,1.1,13.47,0.21,19.53-2.56c2.31-1.05,4.72-2.67,5.15-5.17c0.51-2.92-2.16-5.67-5.08-6.17c-2.92-0.5-5.87,0.7-8.39,2.24
		c-4.46,2.71-7.84,6.2-11.31,9.99c-0.82-11.07-3.69-22.03-4.13-33.11c6.67,1.19,13.7,0.32,19.86-2.5c2.31-1.05,4.72-2.67,5.15-5.17
		c0.51-2.92-2.16-5.67-5.08-6.17s-5.87,0.7-8.4,2.24c-4.58,2.79-8.02,6.39-11.59,10.3c-0.06-2.77,0.04-5.55,0.38-8.34
		c0.68-5.65,2.57-11.1,5.31-16.13c6.24,3.02,13.42,4.06,20.26,2.91c2.5-0.42,5.25-1.37,6.31-3.67c1.24-2.69-0.63-6.03-3.32-7.27
		c-2.69-1.23-5.85-0.83-8.69,0c-5.21,1.54-9.51,4.18-14.03,7.08c4.6-8.03,11.4-14.96,19-19.86c5.95,2.03,12.48,2.38,18.6,0.93
		c2.47-0.58,5.15-1.7,6.06-4.06c1.07-2.76-1.01-5.98-3.78-7.04c-2.76-1.06-5.89-0.46-8.67,0.56c-4.44,1.62-8.13,4.04-11.87,6.73
		c-0.17,0.01-0.35,0.07-0.53,0.18c-6.57,4.03-12.27,9.39-16.89,15.54c-1.02,1.36-1.99,2.76-2.91,4.2
		c1.11-6.02,0.57-12.34-1.61-18.06c-0.9-2.37-2.36-4.88-4.82-5.48c-2.88-0.7-5.8,1.79-6.49,4.67c-0.69,2.88,0.32,5.9,1.69,8.52
		c2.56,4.89,6.06,8.64,9.86,12.59c-1.8,3.1-3.3,6.36-4.32,9.79c-1.55,5.19-2.03,10.46-1.93,15.76c-1.71-6.08-5.15-11.66-9.83-15.89
		c-1.88-1.7-4.33-3.27-6.79-2.67c-2.88,0.69-4.34,4.24-3.64,7.11c0.7,2.88,2.97,5.1,5.39,6.81c4.63,3.27,9.6,5.02,14.95,6.85
		c0.42,8.73,2.25,17.5,3.39,26.07c0.36,2.7,0.64,5.38,0.77,8.07c-1.52-6.68-5.13-12.88-10.21-17.48c-1.88-1.7-4.32-3.27-6.79-2.68
		c-2.88,0.69-4.35,4.23-3.65,7.11c0.7,2.88,2.97,5.11,5.38,6.82c4.74,3.35,9.82,5.11,15.3,7c0.11,2.87,0.04,5.74-0.31,8.63
		c-0.65,5.28-1.89,10.49-3.45,15.57c-0.41,1.35-0.85,2.7-1.31,4.04c-0.79-6.16-3.32-12.1-7.24-16.93c-1.6-1.97-3.77-3.89-6.3-3.69
		c-2.95,0.24-4.94,3.52-4.69,6.47c0.25,2.95,2.15,5.5,4.28,7.56c3.93,3.81,8.38,6.26,13.18,8.79c-3,8.35-6.8,16.43-11.09,24.2
		c0.78-6.44-0.34-13.1-3.21-18.92c-1.12-2.27-2.81-4.63-5.32-4.99c-2.93-0.42-5.6,2.33-6.01,5.26c-0.41,2.93,0.88,5.84,2.5,8.32
		c3.07,4.71,6.99,8.14,11.23,11.78c-0.58,1.03-1.16,2.05-1.75,3.06c-3.25,5.57-6.77,11.01-10.58,16.24
		c0.66-6.28-0.47-12.75-3.27-18.42c-1.12-2.27-2.81-4.63-5.32-4.99c-2.93-0.42-5.6,2.33-6.01,5.26c-0.41,2.93,0.88,5.84,2.5,8.32
		c2.98,4.58,6.78,7.95,10.88,11.48c-4.41,5.91-9.2,11.52-14.43,16.71c-1.09,1.08,0.66,2.69,1.75,1.61
		c5.27-5.24,10.1-10.92,14.55-16.89c5.99,3.04,12.91,4.25,19.6,3.39C1087.92,664.22,1090.72,663.38,1091.89,661.13z"/><path fill="#402560" d="M1171.77,897.09H192.23c-1.66,0-3-1.34-3-3s1.34-3,3-3h979.54c1.66,0,3,1.34,3,3
				S1173.43,897.09,1171.77,897.09z"/><path fill="#402560" d="M635.42,922.47H463.97c-1.66,0-3-1.34-3-3s1.34-3,3-3h171.46c1.66,0,3,1.34,3,3S637.08,922.47,635.42,922.47
				z"/><path fill="#402560" d="M807.03,922.47H765.3c-1.66,0-3-1.34-3-3s1.34-3,3-3h41.73c1.66,0,3,1.34,3,3S808.68,922.47,807.03,922.47z"/><path fill="#c29bf9" d="M1062.6,569.33c-22.35-9.58-44.14-11.75-66.94-6.82c-12.66,2.74-21.65,14.15-21.69,27.27
				c-0.19,67.45,8.83,121.25-55.21,132.76c7.15,19.17,85.38,5.63,111.14-5.97C1027.02,658.86,1029.34,603.56,1062.6,569.33z"/><path fill="#c29bf9" d="M941.17,722.37l-26.56,165c-0.35,2.19-1.7,3.75-3.27,3.75c-2.04,0-3.61-2.62-3.32-5.55l16.47-163.2H941.17z
				"/><path fill="#c29bf9" d="M1006.22,722.37l26.56,165c0.35,2.19,1.7,3.75,3.27,3.75c2.04,0,3.61-2.62,3.32-5.55l-16.47-163.2H1006.22z
				"/><path fill="#d8c0ff" d="M1065.79,577.8c-0.65,0.75-1.56,1.86-2.32,2.88c-0.79,1.04-1.55,2.14-2.28,3.24
				c-1.46,2.23-2.88,4.5-4.15,6.88c-2.56,4.72-4.76,9.66-6.65,14.71c-3.57,10.18-5.97,20.82-6.88,31.61
				c-0.86,10.19,0.53,21.61,0.72,33.42c0.1,5.93-0.02,12.04-0.83,18.3c-0.82,6.24-2.3,12.71-5.2,18.85
				c-2.86,6.12-7.09,11.88-12.3,16.24c-5.19,4.39-11.03,7.53-16.93,9.96c-11.94,4.35-23.99,5.91-35.77,6.18
				c-11.79,0.33-23.39-0.55-34.78-2.19c-11.43-1.48-22.63-3.88-33.71-6.65c-2.61-0.65-4.2-3.33-3.56-5.97
				c0.57-2.36,2.73-3.9,5.04-3.74l0.15,0.01c5.6,0.37,11.17,0.95,16.73,1.37c5.56,0.36,11.1,0.88,16.63,1.09
				c5.54,0.33,11.03,0.44,16.52,0.55c5.46-0.09,10.93-0.03,16.29-0.45c10.71-0.75,21.3-2.21,30.6-5.77
				c4.55-1.86,8.77-4.12,12.29-7.04c3.53-2.9,6.21-6.54,8.22-10.71c4.04-8.37,5.09-18.96,5.12-29.92
				c0.01-5.51-0.12-11.16-0.19-16.99c-0.04-5.83-0.04-11.84,0.74-18.17c1.65-11.94,4.79-23.69,9.58-34.75
				c2.45-5.51,5.28-10.84,8.59-15.89c1.63-2.53,3.4-4.98,5.31-7.34c0.96-1.18,1.94-2.34,2.98-3.47c1.06-1.17,2.03-2.18,3.4-3.44
				c1.98-1.83,5.04-1.68,6.85,0.32c1.68,1.87,1.67,4.68,0.07,6.54L1065.79,577.8z"/><path fill="#36344c" d="M822.19,889.1c0-0.12,0.03-0.21,0.07-0.3c0.45-7.97,26.22-6.67,29.62-21.72
				c5.53-12.85,13.83,16.3,19.44-1.1c4-0.57,3.24,8.69,3.55,9.05c1.08,1.4,1.89,7.25,0.93,8.3c1.91,18.69-9.41,6.41-30.5,10.76
				C826.72,896.88,822.3,891.89,822.19,889.1z"/><path fill="#641ba1" d="M846.41,872.41c0,0,21.95,6.15,30.95,2.02c-1.69-52.04,14.49-119.64,6.68-155.77c0,0-37.53,3.35-40.71,14.44
				C836.39,757.23,846.41,872.41,846.41,872.41z"/><path fill="#641ba1" d="M843.32,733.1l21.76,23.12c27.42-10.88,81.08-32.53,122.46-53.18c18.46-7.68-16.86-57.66-52.32-41.82
				C900.96,676.15,852.8,708.96,843.32,733.1z"/><path fill="#36344c" d="M934.51,860.93l19.29,2.02c0,0,9.37,23.06,3.64,28.66c-5.73,5.6-28.96,3.15-31-0.5
				C922.96,884.86,934.51,860.93,934.51,860.93z"/><path fill="#6c27af" d="M926.58,871.02c9.49,2.05,20.73,0.1,30.92-1.81c-2.91-50.5-2.98-96.3-13.05-116.08l-32.39-3.55
				C898.75,771.84,927.76,863.07,926.58,871.02z"/><path fill="#6c27af" d="M994.22,654.01l-28.96,8.65c0,0-55.39,75.88-55.39,96.48c0,17.03,30.41,23.55,30.41,23.55
				c7.59-25.01,68.23-47.25,72.73-74.75C1016.78,684.82,1008.32,636.59,994.22,654.01z"/><path fill="#ffd5b3" d="M935.73,552.43c-3.29,7.66-9.98,16.98-21.27,27.25c-1.42,1.26-27.83,22.94-44.02,20.26
				c-11.37-1.87-28.02-25.45-37.77-40.78c-4.8-7.54-7.91-13.09-7.91-13.09s-24.12-20.4-21.86-26.49
				c3.62-9.83,19.26,14.21,21.66,9.91c2.4-4.3,3.05-12.51,5.98-8.88c2.94,3.63,5.23,17.78,5.23,17.78s2.54,2.53,6.29,6.2
				c10.5,10.31,30.57,29.81,31.73,29.37c1.56-0.65,59.85-41.74,61.65-39.96C938.74,537.26,939.39,543.76,935.73,552.43z"/><path fill="#ffbe3b" d="M935.74,552.43c-1.65,3.81-4.11,8.03-7.58,12.58c-3.5,4.58-8.02,9.51-13.69,14.67
				c-1.42,1.25-27.82,22.94-44.02,20.26c-2.96-0.49-6.43-2.68-10.11-5.93c-10.4-9.17-22.49-26.78-29.7-38.1l11.43-11.32
				c10.5,10.31,30.58,29.82,31.74,29.36c1.56-0.65,28.73-39.15,44.46-47.59c4.75-2.55,20.52,0.06,28.21,0
				C946.51,530.48,935.62,544.83,935.74,552.43z"/><path fill="#f0daca" d="M928.16,565.01c-3.5,4.58-8.02,9.51-13.69,14.67c-1.42,1.25-27.82,22.94-44.02,20.26
				c-2.96-0.49-6.43-2.68-10.11-5.93c17.78,10.68,37.89-6.88,41.14-18.21c3.74-13.02,11.27-25.27,11.27-25.27L928.16,565.01z"/><path fill="#ffbe3b" d="M1006.72,583.62c-3.33,26.57-4.07,51.17,2.73,77.29c-13.13,2.41-39.07,15.93-51.03,16.49
				c-3.2,0.15-12.62,0.12-14.52,0c-4.86-0.31-6.52-13.05-11.31-13.7c-6.82-0.92-13.59-2.18-20.38-3.77
				c4.24-14.97,4.41-34.11,3.38-53.33c-0.01-0.19-0.02-0.36-0.03-0.51c-0.02-0.33-0.04-0.67-0.06-1.01
				c-0.01-0.23-0.02-0.36-0.02-0.36c-2.13-36.62-8.22-69.84,1.33-77.69c1.56-1.29,4.21-2.7,7.45-4.09
				c8.32-3.54,20.67-6.89,29.3-7.48c6.65-0.46,13.33,2.27,20,1.93c4.25-0.21,38.64,3.42,40.81,13.96
				c2.26,11.06,0.2,18.98-2.48,28.62C1010.06,566.54,1007.94,573.91,1006.72,583.62z"/><path fill="#fff" d="M953.88,515.31c-3.64,0.33-8.73,1.05-12.63,2.16l10.4,13l8.98-2.95l8.88,3.82l14.76-13.06
				c0,0-7.75-2.1-10.97-1.94c0,0-4.41,9.67-12.19,9.67C953.34,526.02,953.88,515.31,953.88,515.31z"/><path fill="#ffd5b3" d="M973.71,517.12c-2.07,3.67-4.4,6.22-6.76,7.82c-0.03,0-0.03,0-0.03,0c-7.21,4.88-14.45,0.73-13.81-7.82
				l2.07-13.3l0.54-3.41l14-2.68L973.71,517.12z"/><path fill="#edd6c7" d="M973.71,517.12c-2.07,3.67-4.4,6.22-6.76,7.82c-0.03,0-0.03,0-0.03,0c-0.67,0.19-1.05,0.29-1.05,0.29
				s5.27-16.06,2.33-15.44c-5.23,1.1-11.9-1.15-11.9-1.15l-1.11-4.81l0.54-3.41l14-2.68L973.71,517.12z"/><path fill="#ffbe3b" d="M955.18,597.51l-11.27,79.88c-4.86-0.31-9.67-0.81-14.47-1.46c-6.82-0.92-13.59-2.18-20.38-3.77
					c4.24-14.97,7.57-46.36,6.54-65.58c-0.01-0.19-0.02-0.36-0.03-0.51c-0.02-0.33-0.04-0.67-0.06-1.01
					c-0.01-0.23-0.02-0.36-0.02-0.36c-2.13-36.62-9-69.1,0.55-76.95c1.05-0.86,8.28-4.92,15.33-7.49c3.48-1.27,7.1-2.36,10.3-2.89
					l11.6,68.79L955.18,597.51z"/><path fill="#ffbe3b" d="M1011.11,672.69c-2.93,1.06-6.05,1.92-9.25,2.61c-20.05,4.31-43.43,2.09-43.43,2.09l-10.65-78.74l3.45-9.83
				l29.48-71.12c0,0,2.83,0.42,6.84,1.18c7.79,1.51,20.06,4.36,24.71,8.13c7.04,5.72,7.65,11.5-2,43.04
				c-0.49,1.62-0.94,3.35-1.33,5.17C1001.67,608.73,1011.11,672.69,1011.11,672.69z"/><path fill="#f0daca" d="M1011.11,672.69c-2.93,1.06-6.05,1.92-9.25,2.61c-0.54-5.33-1.11-10.17-2.16-12.75
				c-4.96-12.25-34.5-14.36-34.5-14.36l-5.42-15.3c0,0,33.48-23.37,30.61-37.3c-2.87-13.92,4.47-30.84,4.47-30.84l14.06,10.49
				C1001.67,608.73,1011.11,672.69,1011.11,672.69z"/><path fill="#ffd5b3" d="M1030.85,620.86c-7.27,12.72-45.44,22.72-63.69,26.88c-5.92,1.32-9.74,2.06-9.74,2.06
				c-15.4,11.96-31.44,5.97-30.92,1.36c0.52-4.61,13.2-7.08,16.93-9.44c5.68-3.65-4.8-4.23-3.19-7.57
				c1.65-3.33,13.23,1.57,13.23,1.57l6.31-2.84l49.1-22.1l-11.81-49.96c-1.96-34.2,11.96-29.7,22-17.33
				C1029.09,555.91,1039.76,605.27,1030.85,620.86z"/><path fill="#ffbe3b" d="M1031.86,626.57c-7.8,12.4-48.41,17.45-66.66,21.6c-2.41-4.92-3.23-10.97-5.43-15.3l44.7-23.99
				c0,0-7.5-32.31-9.61-44.15c-6.01-33.73,11.12-49.35,26.29-28.52C1030.55,549.13,1039.67,614.17,1031.86,626.57z"/><path fill="#ffd5b3" d="M999.7,467.75c-1.5-2.32-4.43-1.95-6.9-1.05c-2.29,0.83-3.69,2.59-3.45,4.49
							c0.57,4.57-3.14,9.07-4.4,13.68C1001.37,485.53,1002.58,472.22,999.7,467.75z"/><path fill="#edcdb9" d="M996.85,471.11c-1.13-0.52-2.87-0.48-3.59,0.38c-0.32,0.38,0.39,0.81,0.79,0.45
							c0.3-0.28,0.82-0.38,1.29-0.23c0.41,0.13,0.74,0.52,0.91,0.82c0.5,0.91-0.19,1.91-0.74,2.69c-0.55,0.78-1.24,1.5-2.04,2.15
							c-0.84,0.69-1.95,1.16-2.79,1.84c-0.8,0.64,0.42,1.77,1.48,1.39c0.82-0.29,1.46-0.8,2.08-1.28c0.57-0.44,1.1-0.92,1.57-1.42
							c0.98-1.02,1.83-2.18,2.26-3.41C998.45,473.4,998.37,471.81,996.85,471.11z"/><path fill="#ffd5b3" d="M994.18,465.71c-2.13,22.67-16.3,45.04-36.51,43.14c-19.16-1.8-30.27-26.54-28.14-49.22
							c2.13-22.67,18.33-39.69,36.18-38.02C983.57,423.29,996.31,443.03,994.18,465.71z"/><path fill="#33160e" d="M963.81,471.83c0,0,0.04,0.06,0.12,0.15c0.58,0.66,3.11,3.21,7.78,3.67
										c3.71,0.37,7.16-2.49,7.27-4.16c-0.08-2.45-2.17-6.02-7.7-5.24c-4.21,0.59-7.08,4.98-7.44,5.52
										C963.83,471.81,963.81,471.83,963.81,471.83z"/><path fill="#f7f7f7" d="M963.81,471.83c0,0,0.04,0.06,0.12,0.15c0.55,0.72,3.07,3.59,7.78,4.05
										c3.77,0.38,7.23-2.55,7.28-4.24c0-0.11,0-0.2-0.01-0.3c-0.08-2.45-2.17-6.02-7.7-5.24c-4.21,0.59-7.08,4.98-7.44,5.52
										C963.83,471.81,963.81,471.83,963.81,471.83z"/><circle cx="970.07" cy="470.94" r="4.45" fill="#a65b00"/><circle cx="970.07" cy="470.94" r="2.97" fill="#33160e"/><circle cx="967.36" cy="472.98" r=".73" fill="#f7f7f7"/><circle cx="966.67" cy="470.86" r=".37" fill="#f7f7f7"/><path fill="#33160e" d="M963.84,471.77c0.35-0.54,3.23-4.93,7.44-5.52c5.54-0.78,7.63,2.79,7.7,5.24
										c0.02-0.01,0.02-0.05,0.02-0.06c0.07-2.46-1.85-7.02-7.65-6.24C966.72,465.82,964.15,471.11,963.84,471.77z"/><path fill="#bc723f" d="M967.09,464.35c0.61-0.8,1.43-1.56,2.28-2.15c0.85-0.6,1.79-1.04,2.77-1.29
									c0.98-0.26,2.01-0.29,3.03-0.08c1.03,0.16,2.02,0.66,2.99,1.21l0.03,0.02c0.19,0.11,0.42,0.02,0.49-0.21
									c0.07-0.21-0.01-0.47-0.19-0.58c-1.01-0.66-2.07-1.29-3.21-1.56c-1.13-0.32-2.31-0.39-3.44-0.18
									c-1.13,0.19-2.22,0.61-3.22,1.2c-1,0.61-1.9,1.31-2.77,2.28c-0.31,0.35-0.3,0.95,0.01,1.34c0.32,0.39,0.83,0.43,1.14,0.08
									c0.01-0.01,0.02-0.03,0.03-0.04L967.09,464.35z"/><path fill="#33160e" d="M948.6,473.05c0,0-2.59,3.24-7.99,3.65c-3.77,0.28-7.18-2.72-7.19-4.4
										c-0.02-2.46,2.02-6.97,7.79-6.06C946.13,467.03,948.6,473.05,948.6,473.05z"/><path fill="#f7f7f7" d="M948.6,473.05c0,0-2.6,3.62-8,4.02c-3.77,0.28-7.18-2.72-7.19-4.4c-0.02-2.46,2.09-6.31,7.85-5.37
										C945.74,468.04,948.6,473.05,948.6,473.05z"/><circle cx="938.59" cy="471.98" r="4.45" fill="#a65b00"/><circle cx="938.59" cy="471.98" r="3.06" fill="#33160e"/><circle cx="936.16" cy="473.66" r=".73" fill="#f7f7f7"/><circle cx="935.39" cy="471.68" r=".37" fill="#f7f7f7"/><path fill="#bc723f" d="M945.62,465.28c-0.63-0.78-1.47-1.52-2.33-2.09c-0.87-0.58-1.81-1-2.8-1.22
									c-0.98-0.24-2.02-0.24-3.03,0c-1.03,0.18-2.01,0.71-2.96,1.28l-0.03,0.02c-0.19,0.11-0.41,0.03-0.5-0.19
									c-0.08-0.21,0-0.47,0.17-0.59c0.99-0.68,2.03-1.34,3.17-1.64c1.12-0.35,2.3-0.44,3.43-0.26c1.13,0.16,2.23,0.56,3.24,1.12
									c1.02,0.58,1.94,1.26,2.82,2.21c0.32,0.34,0.33,0.94,0.02,1.34c-0.31,0.4-0.82,0.45-1.14,0.1
									c-0.01-0.01-0.02-0.03-0.04-0.04L945.62,465.28z"/><path fill="#edd6c7" d="M954.4,479.8c0.61-1.01,1.24-2,1.65-3.03c0.4-1.03,0.67-2.09,0.78-3.14c0.12-1.18,0.18-2.38-0.03-3.56
							c-0.03-0.14,0.44-0.16,0.5-0.03c0.45,1,0.86,2.02,0.94,3.04c0.08,1,0.04,2.01-0.22,3c-0.27,1.03-0.68,2.05-1.26,3.05
							c-0.53,0.91-1.25,1.83-1.14,2.79c0.04,0.37,0.28,0.78,0.67,1.11c0.43,0.36,0.96,0.55,1.69,0.77c0.89,0.27,0.3,0.94-0.72,0.8
							c-1.73-0.23-2.86-1.14-3.29-1.91C953.43,481.73,953.84,480.73,954.4,479.8z"/><path fill="#bc723f" d="M972.7,449.13c-0.03,0-0.06,0-0.09,0c-0.59,0.03-1.18-0.13-1.75-0.49c-19.01-12.02-31.68,5.67-40.38,4.88
						c-0.72-0.06-1.4-0.25-2.07-0.59c-3.06-1.58-5.07-3.67-6.31-5.94c3.37,1.43,4.78,0.13,4.78,0.13c-4.62-0.75-6.49-6.42-6.54-9.34
						c0.04-0.46,0.1-0.9,0.17-1.32l0-0.01c0.09-0.53,0.2-1.04,0.31-1.5c2.99-11.65,13.08-5.25,15.13-9.68
						c2.06-4.43,15.11-17.92,30.63-13.11c13.9,4.31,18.82,13.64,19.69,15.53c0.1,0.22,0.15,0.34,0.15,0.34s-0.61,1.71-1.61,4.17
						C982.3,438.27,977.29,448.85,972.7,449.13z"/><path fill="#bc723f" d="M982.45,428.37c0,0,7.22-2.35,17.1,3.65c7.65,4.65,13.56,19.72,7.28,28.58c-0.24,0.34-1.1-4.25-3-4.95
						c0,0,2.2,5.32,1.26,9.34c-1.38,5.92-4.19,8.3-4.19,8.3c0.24-3.09-2.94-10.11-6.71-5.29c-2.09,7.05-4.84,8.96-4.84,8.96
						s1.86-28.19-16.74-27.84C969.62,449.19,982.45,428.37,982.45,428.37z"/><g><path fill="#fff" d="M950.17,488.72c0,0-0.06,0.7-0.02,1.78c0.09,1.87,0.48,5.01,2.52,7.15c0,0,0,0.01,0,0.01
							c1.65,1.75,4.49,2.75,8.53,1.59c3.7-1.09,5.84-3.1,6.99-4.83c0-0.01,0.01-0.02,0.01-0.02c1.61-2.49,1.4-4.6,1.12-5.79
							c-0.16-0.64-0.35-1.02-0.35-1.02C962.85,489.66,956.35,490.04,950.17,488.72z"/><path fill="#fff" d="M952.67,497.65c0,0,0,0.01,0,0.01c1.65,1.75,4.49,2.75,8.53,1.59c3.7-1.09,5.84-3.1,6.99-4.83
							c0-0.01,0.01-0.02,0.01-0.02c-2.08-0.48-5.08-0.47-7.45,1.08C959.41,494.39,954.33,495.97,952.67,497.65z"/><path fill="#fff" d="M950.17,488.72c0,0-0.06,0.7-0.02,1.78c6.39,1.08,13.01,0.43,19.17-1.89c-0.16-0.64-0.35-1.02-0.35-1.02
						C962.85,489.66,956.35,490.04,950.17,488.72z"/></g><g><polygon fill="#443075" points="996.14 660.9 952.45 660.9 855.23 660.9 831.49 586.64 928.71 586.64 950.75 655.21 996.14 655.21"/><path fill="#342261" d="M950.75,660.9h-95.52l-23.74-74.26h11.33C861.34,657.76,923.61,647.22,950.75,660.9z"/></g><g><path fill="#2bbac9" d="M766.29,673.32l-15.71,210.81c-0.27,3.68,1.19,6.98,3.09,6.98c1.45,0,2.71-1.96,3.04-4.72l25.31-213.08
					H766.29z"/><path fill="#2bbac9" d="M1078.75,673.32l15.71,210.81c0.27,3.68-1.19,6.98-3.09,6.98c-1.45,0-2.71-1.96-3.04-4.72l-25.31-213.08
					H1078.75z"/><path fill="#2bbac9" d="M1132.7,658.13H714.55c-2.22,0-3.53,3.45-2.28,5.99l6.38,13.02c0.51,1.05,1.37,1.68,2.28,1.68h405.4
				c0.91,0,1.77-0.63,2.28-1.68l6.38-13.02C1136.22,661.58,1134.91,658.13,1132.7,658.13z"/></g><g><path fill="#bc723f" d="M378.05,402.75c0,0-28.38,6.92-38.21-6.73c-9.73-13.5-4.53-69.42,22.11-81.62
				c9.71-4.44,40.99-6.12,40.56,26.26c-0.33,25.02,19.19,41.8,7.71,52.58C398.73,404.02,378.05,402.75,378.05,402.75z"/><path fill="#bc723f" d="M404.93,396.29c1.49-1.2,3.31-1.81,4.88-2.9c1.46-1.01,2.81-2.24,3.79-3.8c2.13-3.39,1.53-7.9,0.59-11.68
				c-2.01-8.03-6.51-14.93-9.5-22.53c-1.61-4.08-2.96-8.69-2.72-13.14c0.01-0.1,0.16-0.09,0.17,0.01c0.17,2.29,0.43,4.57,1.03,6.79
				c0.57,2.09,1.33,4.11,2.18,6.08c1.75,4.06,3.95,7.86,5.9,11.8c1.85,3.73,3.58,7.5,4.5,11.62c0.85,3.82,1.01,7.77-1.03,11.15
				c-1.03,1.7-2.48,3.08-4.05,4.17c-1.69,1.17-3.62,2.38-5.61,2.81C404.86,396.71,404.79,396.4,404.93,396.29z"/><path fill="#bc723f" d="M331.73,370.95c0.47-5.13,1.49-10.2,2.76-15.15c1.18-4.61,2.72-9.11,4.74-13.36
				c2.31-4.84,5.2-9.24,8.77-13.08c0.09-0.09,0.23,0.04,0.15,0.13c-6.01,6.93-10.02,15.66-12.45,24.74
				c-1.21,4.5-1.98,9.13-2.48,13.79c-0.31,2.86-0.5,5.76-0.25,8.65c0.23,2.62,0.9,5.15,1.88,7.56c1.04,2.55,2.42,4.91,3.94,7.17
				c1.56,2.32,3.46,4.43,4.87,6.86c0.31,0.53-0.3,1.2-0.77,0.75c-1.8-1.73-3.29-3.9-4.73-5.97c-1.45-2.09-2.79-4.27-3.9-6.59
				C331.91,381.55,331.22,376.37,331.73,370.95z"/><path fill="#ffd5b3" d="M314.55,544.18c9.93,22.29,27.51,49.94,27.51,49.94l7.67-25.71l-9.8-37.52L314.55,544.18z"/><path fill="#ff6e98" d="M338.19,524.86l4.01,11.27c-0.08,0.09-0.15,0.2-0.23,0.29c-6.53,8.03-16.15,9.78-27.49,11.53
			c-3.84-7.71-5.02-14.75-5.81-19.74c-3.81-24.14,17.39-96.63,24.31-105.26c5.25-0.24,11.73,9.98,17.01,22.42
			c3.59,8.45,6.63,17.91,8.36,25.87L338.19,524.86z"/><path fill="#e0cad2" d="M338.19,524.86l4.01,11.27c-0.08,0.09-0.15,0.2-0.23,0.29l-13.11-12.23c12.09-15.49,21.99-41.59,16.42-78.62
			l4.71-0.2c3.59,8.45,6.63,17.91,8.36,25.87L338.19,524.86z"/><path fill="#ffd5b3" d="M403.68,437.21c1.45,10.13,6.37,23.32,16.38,39.09c1.26,1.94,25.43,36.06,45.26,38.06
			c13.94,1.4,60.67-46.47,62.91-48.67l-4.7-11.29c-1.64,0.95-52.73,28.99-53.96,28.1c-1.63-1.28-57.09-68.57-59.77-67.04
			C404.93,418.28,402.11,425.79,403.68,437.21z"/><path fill="#ff6e98" d="M494.75,502.96c-10.82,7.6-22.77,12.05-29.43,11.39c-15-1.51-32.5-21.41-40.67-31.84
			c-2.63-3.36-4.29-5.74-4.59-6.2c-10.01-15.79-14.93-28.95-16.38-39.11c2.53-8.97-5.32-25.54-3.96-30.42
			c9.59,0.24,24.11,5.62,29.56,10.89c9.16,8.85,20.82,29.08,29.26,44.62c5.99,11.04,10.34,19.7,11.03,20.24
			c0.27,0.18,1.83-0.43,4.26-1.6c0.01-0.01,0.01-0.03,0.03-0.01c2.19-1.05,5.09-2.52,8.4-4.28
			C488.12,486.47,494.77,496.8,494.75,502.96z"/><path fill="#36344c" d="M316.22,875.08c-7.27-4.74-6.7-10.42-6.85-17.26c-0.15-6.84-5.59-11.93-5.59-11.93l-11.1,14.38
									l-4.48-3.25c1.04-1.19,5.99-11.58,9.35-19.23c0.49-1.1,0.93-2.14,1.31-3.08l0.02-0.03c0.67-1.66,1.22-3,1.54-3.92
									c1.79-5.07,13.37-14.76,13.37-14.76c0.01,0.05,0.17,0.07,0.18,0.12c3.96,5.58,10.74,8.86,17.98,9.63
									c0,0-0.02,0.03-0.05,0.15c0,0-0.02,0.03-0.04,0.06c-0.21,0.46-0.69,1.7-1.31,3.48c-1.4,4.19-3.36,11.39-3.26,19
									c0.02,2.05,0.44,4.38,1.09,6.84c2.78,10.25,9.62,22.88,7.79,27.04C333.93,887.48,323.49,879.82,316.22,875.08z"/><path fill="#ffd5b3" d="M330.82,862.64c-19.92,7.45-16.92-46.63-16.92-46.63c0.95,0.86,13.26-24.61,13.26-24.61
				s15.22,6.37,20.55,6.95C338.13,814.85,324.39,832.89,330.82,862.64z"/><path fill="#36344c" d="M396.91,890.26c-8.98-1.06-11.34-6.24-14.95-12.12c-3.61-5.89-11.11-8.01-11.11-8.01l-2.74,17.18
									l-5.7-0.94c0.33-1.47-0.46-12.6-1.3-20.66c-0.12-1.16-0.24-2.25-0.37-3.23l0-0.04c-0.24-1.73-0.42-3.12-0.59-4.06
									c-0.95-5.17,4.6-18.47,4.6-18.47c0.04,0.04,0.19-0.01,0.22,0.02c6.41,3.18,14.2,3.18,21.14,0.8c0,0,0,0.04,0.03,0.15
									c0,0,0,0.04,0,0.07c0.05,0.49,0.24,1.77,0.59,3.58c0.86,4.23,2.74,11.32,6.69,17.89c1.06,1.78,2.62,3.62,4.46,5.49
									c7.71,7.73,20.3,15.84,20.76,20.23C419.22,893.57,405.89,891.32,396.91,890.26z"/><path fill="#ffd5b3" d="M403.81,873.29c-14.24,14.87-38.95-33.41-38.95-33.41c1.29,0.35-0.5-26.98-0.5-26.98s16.99-0.87,22.1-2.62
				C386.18,828.66,382.9,850.14,403.81,873.29z"/><path fill="#19a8af" d="M413.41,512.68c0,0,38.71,143.39,27.11,186.19c-5.17,19.08-96.8,118.15-96.8,118.15
			c-3.81,1.47-28.37-20.24-24.85-23.91c1.67-1.74,79.04-110.63,79.04-110.63l-47.23-166.9L413.41,512.68z"/><path fill="#2bbac9" d="M402.45,819.49c-12.12,3.5-34.34,2.31-46.2-2.04c3.64-32.67,3.92-61.86,2.54-88.26c0,0,0-0.01,0-0.02
			c-4.96-94.35-31.11-153.16-0.26-208.16l40.95,2.38c0,0,0.03,0.72,0.08,2.07l0,0.01c0.68,15.93,5.06,119.35,5.34,155.27
			C405.18,715.85,402.45,819.49,402.45,819.49z"/><path fill="#c1dee5" d="M399.56,527l0,0.01c-2.54,3.67-8.48,10.91-18.52,15.97c-13.94,7.03-12.45,86.81-1.21,129.55
			c3.31,12.59-22.18-1.06-19.81,33.11c2.33,33.37-0.3,49.2-0.46,49.92c-1.73-109.2-31.87-171.84-1.03-233.56l40.95,2.67
			C399.48,524.68,399.51,525.5,399.56,527z"/><path fill="#fff" d="M355.27,486.1c0.56,25.35-6.44,32.81-5.8,37.15c2.86,19.16,66.77,17,65.26,0.64c0,0-7.26-15.32-6.49-35.91
			c-0.07-24.59,17.31-41.76,7.08-65.09c-3.1-7.05-7.25-14.08-13.97-16.51c-0.96-0.37-1.96-0.7-2.91-0.95
			c-10.49-3.18-20.84-2.72-30.8,0.22c-13.35,3.9-13.32,11.3-24.85,21.51C349.59,433.74,354.88,469.52,355.27,486.1z"/><path fill="#ff6e98" d="M466.85,649.88c-2.64,6.35-29.13,9.38-42.25,5.04c4.93-63.21-39.03-133.8-25.66-166.85
			c0.03-0.1,0.03-0.19,0.05-0.29c1.14-8.8,2.66-18.34,4.47-28.53c6.11-33.8-11.73-51.67-13.46-55.89c-0.03-0.04-0.03-0.04-0.03-0.04
			c3.04,0.42,12.22,1.97,13.2,2.35c6.69,2.41,13.59,11.07,16.68,18.14c10.24,23.32-0.08,55.44-1.92,79.97
			c-0.05,0.7-0.06,1.42-0.02,2.18C418.68,525.11,445.45,565.04,466.85,649.88z"/><path fill="#ff6e98" d="M379.55,498.83c-2.5,18.9-32.53,106.3-9.82,167.81c-4.36,1.59-13.29,1.85-22.39,0.71
			c-13.06-1.61-26.5-6.1-27.45-13.58c-2.43-19.08,1.96-43.74,8.39-68.47c10.79-41.55,27.35-83.31,27-99.19
			c-0.42-16.59-32.02-48.54-21.3-64.37c5.51-8.13,26.27-17.42,35.48-17.42C385.07,434.9,384.1,464.47,379.55,498.83z"/><path fill="#e0cad2" d="M347.34,667.35c-13.06-1.61-26.5-6.1-27.45-13.58c-2.43-19.08,1.96-43.74,8.39-68.47
			C327.67,615.05,329.9,658.49,347.34,667.35z"/><path fill="#f4c19f" d="M369.47,404.31c2.24,3.55,4.68,5.97,7.1,7.44c0.03,0,0.03,0,0.03,0c7.41,4.5,14.4,0.03,13.35-8.44
			l-2.71-13.13l-0.7-3.37l-14.05-1.98L369.47,404.31z"/><path fill="#e6c6cf" d="M366.27,450.4c0,0,16.52,25.94,13.28,48.43c4.55-34.37,5.52-63.93-10.09-94.51l-4.01,29.25l9.81,12.22
			L366.27,450.4z"/><path fill="#e6c6cf" d="M403.48,459.25c-1.81,10.19-3.34,19.72-4.48,28.53c3.53-23.04,18.02-41.78,18.02-41.78l-7.74-5.53l7.08-7.99
			c-9-18.27-25.33-28.5-26.35-29.12C391.74,407.58,409.58,425.45,403.48,459.25z"/><path fill="#ffd5b3" d="M546.12,440.44c2.06,4.85-7.08,10.24-6.68,11.3c0.9,2.44,4.91-0.06,9.46-1.46
			c7.81-4.07,13.96-15.7,18.69-16.29c3.36-0.42-4.54,13.53-8.14,17.07c-5.76,5.66-9.1,9.71-12.02,12.17
			c-3.99,3.36-10.85,3.55-20.01,3.29l-4.19-11.93c4.67-6.7,13.93-7.07,18.83-12.92C543.32,440.16,545.46,438.88,546.12,440.44z"/><path fill="#ffd5b3" d="M344.32,355.75c1.5-2.18,4.3-1.74,6.64-0.8c2.17,0.86,3.46,2.59,3.19,4.41
					c-0.67,4.36,2.77,8.78,3.85,13.23C342.24,372.73,341.44,359.95,344.32,355.75z"/><path fill="#edd6c7" d="M346.96,359.05c1.1-0.47,2.76-0.38,3.43,0.47c0.29,0.37-0.4,0.76-0.77,0.41
					c-0.28-0.27-0.78-0.39-1.23-0.26c-0.4,0.12-0.73,0.48-0.89,0.76c-0.5,0.86,0.13,1.83,0.64,2.6c0.5,0.76,1.15,1.47,1.89,2.12
					c0.79,0.69,1.84,1.17,2.62,1.85c0.75,0.64-0.45,1.69-1.46,1.29c-0.78-0.3-1.38-0.81-1.96-1.29c-0.54-0.44-1.02-0.91-1.47-1.4
					c-0.91-1.01-1.69-2.14-2.07-3.33C345.36,361.2,345.48,359.67,346.96,359.05z"/><path fill="#ffd5b3" d="M350.01,352.36c0.84,24.32,13.76,42.67,32.88,42.04c18.2-0.6,31.04-21.05,28.6-46.33
				c-2.34-24.22-13.75-36.21-32.88-35.58C359.48,313.13,349.17,328.05,350.01,352.36z"/><path fill="#edd6c7" d="M389.54,365.91c-0.82-2.15-2.7-2.93-3.37-8.71c-0.76,3.49,1.15,7.84,1.88,9.67
					c1.48,3.71-5.16,3.29-3.19,3.64C387.25,370.93,391.18,370.18,389.54,365.91z"/><path fill="#943f27" d="M394.31,351.05c4.21-3.56,10.74-0.67,11.46,1.25c0.19,0.5-0.37,0.09-2.78-0.89
					c-1.77-0.69-4.84-0.31-6.49,0.58C394.77,352.91,392.33,352.89,394.31,351.05z"/><path fill="#942525" d="M377.48,377.02c-0.05,1.7,0.64,3.26,1.8,4.44c1.25,1.27,3.04,2.09,5.05,2.15
							c2.16,0.06,4.11-0.77,5.43-2.13c1.06-1.08,1.71-2.5,1.76-4.06c0.09-3.53-4.48-1-7.11-1.07
							C382.22,376.28,377.57,373.49,377.48,377.02z"/><path fill="#ff7878" d="M379.28,381.46c1.25,1.27,3.04,2.09,5.05,2.15c2.16,0.06,4.11-0.77,5.43-2.13
							c-1.03-1.08-2.91-1.83-5.07-1.89C382.35,379.51,380.3,380.28,379.28,381.46z"/><path fill="#943f27" d="M391.64,359.25c0.86,3.66,10.98,3.5,12.49,2.32c0.08-0.07,0.16-0.13,0.24-0.2c0.01,0,0.01-0.01,0.01-0.01
						c0.7-1.17,1.28-3.2,1.28-3.2s-1.91-1.86-2.94-2.38c-0.01,0-0.02-0.01-0.04-0.02c-0.26-0.12-1.26-0.6-2.61-0.9
						c-1.85-0.41-4.34-0.5-6.36,1.09c-0.23,0.18-1.61,1.26-2.12,2.74C391.57,358.87,391.6,359.06,391.64,359.25z"/><path fill="#fff" d="M391.41,360.15c0.3,2.63,3.96,4.15,6.56,4.26c0.26,0.01,1,0.03,1.93-0.18c0.87-0.18,1.91-0.55,2.9-1.3
						c0.13-0.09,0.62-0.46,1.15-1.01c0.14-0.14,0.28-0.34,0.42-0.56c0.01,0,0.01-0.01,0.01-0.01c0.7-1.17,1.28-3.2,1.28-3.2
						s-1.91-1.86-2.94-2.38c-0.01,0-0.02-0.01-0.04-0.02c-0.26-0.12-1.26-0.6-2.61-0.9c-1.85-0.41-4.34-0.5-6.36,1.09
						c-0.23,0.18-1.61,1.26-2.12,2.74C391.42,359.14,391.35,359.64,391.41,360.15z"/><ellipse cx="399.7" cy="359.23" fill="#b56953" rx="5.05" ry="5.08" transform="rotate(-85.486 399.682 359.227)"/><ellipse cx="399.8" cy="359.05" fill="#2e130c" rx="3.12" ry="3.14" transform="rotate(-85.486 399.786 359.05)"/><circle cx="400.45" cy="357.35" r=".78" fill="#fff" transform="rotate(-85.486 400.43 357.353)"/><ellipse cx="402.87" cy="359.05" fill="#fff" rx=".43" ry=".44" transform="rotate(-85.486 402.848 359.05)"/><path fill="#70301e" d="M391.58,358.69c0.5-1.48,1.89-2.56,2.12-2.74c2.02-1.59,4.51-1.5,6.36-1.09c1.35,0.3,2.35,0.78,2.61,0.9
						c0.02,0.01,0.03,0.02,0.04,0.02c1.03,0.52,2.94,2.38,2.94,2.38s-0.58,2.03-1.28,3.2c0.52-0.46,0.78-0.87,0.78-0.87
						c0.12-0.19,0.35-0.58,0.56-1.09c0.27-0.63,0.31-0.92,0.51-0.97c0.17-0.05,0.84,1.45,2.74,1.1c0.16-0.03,0.34-0.22,0.34-0.22
						c-0.75,0.19-2.02-0.67-3.46-2.45c-3.91-4.83-11.41-4.58-13.75,0.13C391.89,357.4,391.59,358.02,391.58,358.69z"/><path fill="#943f27" d="M377.94,359.62c-0.61,3.71-10.72,4.21-12.3,3.14c-0.09-0.06-0.17-0.12-0.25-0.18
						c-0.01,0-0.01-0.01-0.01-0.01c-0.78-1.13-1.5-3.11-1.5-3.11s1.78-1.98,2.77-2.57c0.01,0,0.02-0.01,0.04-0.02
						c0.25-0.14,1.22-0.68,2.54-1.07c1.82-0.53,4.29-0.78,6.42,0.67c0.24,0.17,1.7,1.15,2.3,2.6
						C377.98,359.24,377.97,359.43,377.94,359.62z"/><path fill="#fff" d="M378.24,360.51c-0.12,2.65-3.66,4.4-6.25,4.68c-0.26,0.03-0.99,0.1-1.94-0.05
						c-0.88-0.12-1.94-0.42-2.98-1.1c-0.14-0.08-0.65-0.42-1.22-0.93c-0.15-0.13-0.31-0.32-0.45-0.54c-0.01,0-0.01-0.01-0.01-0.01
						c-0.78-1.13-1.5-3.11-1.5-3.11s1.78-1.98,2.77-2.57c0.01,0,0.02-0.01,0.04-0.02c0.25-0.14,1.22-0.68,2.54-1.07
						c1.82-0.53,4.29-0.78,6.42,0.67c0.24,0.17,1.7,1.15,2.3,2.6C378.15,359.5,378.26,359.99,378.24,360.51z"/><ellipse cx="372.6" cy="360.18" fill="#b56953" rx="5.05" ry="5.08" transform="rotate(-85.486 372.579 360.176)"/><ellipse cx="372.48" cy="360.01" fill="#2e130c" rx="3.12" ry="3.14" transform="rotate(-85.486 372.462 360.006)"/><circle cx="374.6" cy="358.14" r=".78" fill="#fff" transform="rotate(-85.486 374.585 358.14)"/><ellipse cx="375.57" cy="360.68" fill="#fff" rx=".43" ry=".44" transform="rotate(-85.486 375.55 360.682)"/><path fill="#70301e" d="M377.96,359.06c-0.6-1.45-2.06-2.43-2.3-2.6c-2.13-1.45-4.61-1.19-6.42-0.67
						c-1.32,0.39-2.29,0.93-2.54,1.07c-0.02,0.01-0.03,0.02-0.04,0.02c-0.99,0.59-2.77,2.57-2.77,2.57s0.72,1.99,1.5,3.11
						c-0.55-0.42-0.84-0.82-0.84-0.82c-0.13-0.18-0.38-0.56-0.63-1.05c-0.31-0.61-0.37-0.89-0.58-0.94
						c-0.18-0.04-0.74,1.5-2.66,1.27c-0.16-0.02-0.35-0.2-0.35-0.2c0.76,0.14,1.97-0.8,3.29-2.68c3.57-5.08,11.07-5.32,13.73-0.78
						C377.57,357.8,377.91,358.39,377.96,359.06z"/><path fill="#943f27" d="M375.36,351.72c-4.24-3.53-10.74-0.6-11.44,1.33c-0.19,0.51,0.37,0.09,2.77-0.91
					c1.77-0.7,4.83-0.35,6.49,0.53C374.92,353.58,377.36,353.55,375.36,351.72z"/><path fill="#bc723f" d="M410.97,345.9c-20.07-9.42-27.74-19.3-44.89-15.62c0.83,26.73-10.99,23.22-11.79,40.55
				c0,0-10.64-19.54-4.57-39.68c5.26-17.44,35.09-30.49,55.09-7.1C411.95,332.4,411.23,343.05,410.97,345.9z"/></g><g><path fill="#ffbe3b" d="M216.56,253.31h88.32c9.06,0,16.41,7.35,16.41,16.41v43.57c0,9.06-7.35,16.41-16.41,16.41v12.93l-15.94-12.93
			h-72.38c-9.06,0-16.41-7.35-16.41-16.41v-43.57C200.16,260.66,207.5,253.31,216.56,253.31z"/><path fill="#fff" d="M309.79,289.58c0-3.66-2.97-6.63-6.63-6.63c-3.66,0-6.63,2.97-6.63,6.63c0,3.66,2.97,6.63,6.63,6.63
			C306.82,296.21,309.79,293.24,309.79,289.58z"/><path fill="#fff" d="M288.58,289.58c0-3.66-2.97-6.63-6.63-6.63c-3.66,0-6.63,2.97-6.63,6.63c0,3.66,2.97,6.63,6.63,6.63
			C285.61,296.21,288.58,293.24,288.58,289.58z"/><path fill="#fff" d="M267.36,289.58c0-3.66-2.97-6.63-6.63-6.63c-3.66,0-6.63,2.97-6.63,6.63c0,3.66,2.97,6.63,6.63,6.63
			C264.39,296.21,267.36,293.24,267.36,289.58z"/><circle cx="239.51" cy="289.32" r="6.63" fill="#fff"/><path fill="#fff" d="M224.92,289.32c0-3.66-2.97-6.63-6.63-6.63c-3.66,0-6.63,2.97-6.63,6.63c0,3.66,2.97,6.63,6.63,6.63
			C221.95,295.95,224.92,292.98,224.92,289.32z"/></g><g><path fill="#ff6e98" d="M705.92,891.52c-34.34-10.98-13.02-66.92-44.13-58.54c-16.95,4.56-24.38,17.04-45.32,17.05
			c-20.95-0.02-28.38-12.5-45.32-17.05c-31.11-8.37-9.79,47.56-44.13,58.54c-22.18,7.09-61.26-42.08-54.08-111.41
			c0.23-2.39,0.54-4.82,0.9-7.26c0.28-1.87,0.6-3.69,0.99-5.5c7.82-37.14,37.26-60.94,62.48-62.38c26.12-1.48,52.18,23.4,79.17,23.4
			c26.99,0,53.05-24.89,79.17-23.4c26.45,1.51,57.53,27.6,63.47,67.88c0.19,1.24,0.36,2.46,0.49,3.68c0.03,0.12,0.03,0.22,0.03,0.26
			c0.45,3.55,0.77,7.07,0.96,10.52C764.46,852.8,727.33,898.36,705.92,891.52z"/><circle cx="693.42" cy="776.82" r="40.56" fill="#e6c6cf"/><circle cx="693.42" cy="776.82" r="38.35" fill="#ff82a6"/><circle cx="693.42" cy="776.82" r="34.32" fill="#641ba1"/><path fill="#e6c6cf" d="M709.08,791.4c-0.85-0.01-1.53-0.71-1.53-1.56l0.09-13.04v-13.02c0-0.85,0.69-1.54,1.54-1.54
						c8.04,0,14.58,6.54,14.58,14.58c0,8.04-6.54,14.58-14.58,14.58C709.18,791.4,709.08,791.4,709.08,791.4z"/><path fill="#fff" d="M709.19,776.82l-0.09,13.04c0.03,0,0.06,0,0.09,0c7.15,0,13.04-5.88,13.04-13.04
						c0-7.15-5.88-13.04-13.04-13.04V776.82z"/><path fill="#e6c6cf" d="M677.66,791.4c-8.04,0-14.58-6.54-14.58-14.58c0-8.04,6.54-14.58,14.58-14.58c0.85,0,1.54,0.69,1.54,1.54
						v13.04l0.09,13.02c0.01,0.85-0.68,1.55-1.53,1.56C677.76,791.4,677.66,791.4,677.66,791.4z"/><path fill="#fff" d="M677.66,776.82l0.09,13.04c-0.03,0-0.06,0-0.09,0c-7.15,0-13.04-5.88-13.04-13.04
						c0-7.15,5.88-13.04,13.04-13.04V776.82z"/><path fill="#e6c6cf" d="M693.41,761.11h-13.02c-0.85,0-1.54-0.69-1.54-1.54c0-8.04,6.54-14.58,14.58-14.58
						c8.04,0,14.58,6.54,14.58,14.58c0,0.41-0.16,0.85-0.46,1.14c-0.29,0.29-0.68,0.5-1.09,0.5
						C706.45,761.21,693.41,761.11,693.41,761.11z"/><path fill="#fff" d="M693.42,759.57l13.04,0.09c0-0.03,0-0.06,0-0.09c0-7.15-5.88-13.04-13.04-13.04
						c-7.15,0-13.04,5.88-13.04,13.04H693.42z"/><path fill="#e6c6cf" d="M693.42,808.66c-8.04,0-14.58-6.54-14.58-14.58c0-0.41,0.16-0.85,0.46-1.14c0.29-0.29,0.68-0.5,1.09-0.5
						c0,0,13.04,0.09,13.04,0.09h13.02c0.85,0,1.54,0.69,1.54,1.54C708,802.11,701.46,808.66,693.42,808.66z"/><path fill="#fff" d="M693.42,794.08l-13.04-0.09c0,0.03,0,0.06,0,0.09c0,7.15,5.88,13.04,13.04,13.04
						c7.15,0,13.04-5.88,13.04-13.04H693.42z"/><path fill="#e6c6cf" d="M693.42,788.31c-6.33,0-11.48-5.15-11.48-11.48c0-6.33,5.15-11.48,11.48-11.48
					c6.33,0,11.48,5.15,11.48,11.48C704.91,783.15,699.76,788.31,693.42,788.31z"/><circle cx="693.42" cy="776.82" r="9.94" fill="#ffbe3b"/><circle cx="540.66" cy="776.82" r="40.56" fill="#e6c6cf"/><circle cx="540.66" cy="776.82" r="38.35" fill="#ff82a6"/><circle cx="540.66" cy="776.82" r="34.32" fill="#641ba1"/><path fill="#e6c6cf" d="M540.67,806.73c-7.09,0-13.98-2.56-19.41-7.21c-0.33-0.28-0.52-0.68-0.54-1.11s0.15-0.85,0.45-1.15
					l8.85-8.85c0.3-0.3,0.69-0.45,1.09-0.45c0.33,0,0.65,0.1,0.93,0.31c2.52,1.9,5.5,2.91,8.62,2.91c3.12,0,6.1-1.01,8.62-2.91
					c0.28-0.21,0.6-0.31,0.93-0.31c0.4,0,0.79,0.15,1.09,0.45l8.85,8.84c0.3,0.3,0.47,0.72,0.45,1.15
					c-0.02,0.43-0.21,0.83-0.54,1.11C554.65,804.17,547.76,806.73,540.67,806.73z"/><path fill="#fff" d="M550.22,789.5c-2.66,2.01-5.97,3.22-9.55,3.22c-3.59,0-6.89-1.21-9.56-3.22l-8.85,8.85
					c4.96,4.25,11.38,6.84,18.4,6.84c7.02,0,13.45-2.59,18.4-6.84L550.22,789.5z"/><path fill="#e6c6cf" d="M562.19,796.76c-0.41,0-0.8-0.16-1.09-0.45l-8.85-8.85c-0.55-0.54-0.6-1.41-0.14-2.02
					c1.9-2.52,2.91-5.5,2.91-8.62c0-3.12-1.01-6.1-2.91-8.62c-0.46-0.62-0.41-1.48,0.14-2.02l8.84-8.85
					c0.29-0.29,0.68-0.45,1.09-0.45c0.02,0,0.04,0,0.06,0c0.43,0.02,0.83,0.21,1.11,0.54c4.65,5.43,7.21,12.32,7.21,19.41
					c0,7.08-2.56,13.97-7.2,19.4c-0.28,0.33-0.68,0.52-1.11,0.54C562.23,796.76,562.21,796.76,562.19,796.76z"/><path fill="#fff" d="M562.19,758.42l-8.84,8.85c2.01,2.66,3.22,5.97,3.22,9.55c0,3.59-1.21,6.89-3.22,9.55l8.85,8.85
					c4.24-4.96,6.83-11.37,6.83-18.39C569.03,769.8,566.44,763.38,562.19,758.42z"/><path fill="#e6c6cf" d="M531.11,765.69c-0.4,0-0.79-0.15-1.09-0.45l-8.84-8.85c-0.3-0.3-0.47-0.72-0.45-1.15
					c0.02-0.43,0.21-0.83,0.54-1.11c5.43-4.65,12.32-7.2,19.4-7.2c7.09,0,13.98,2.56,19.4,7.2c0.33,0.28,0.52,0.68,0.54,1.11
					c0.02,0.43-0.15,0.85-0.45,1.15l-8.85,8.85c-0.3,0.3-0.69,0.45-1.09,0.45c-0.33,0-0.65-0.1-0.93-0.31
					c-2.52-1.9-5.5-2.91-8.62-2.91c-3.12,0-6.1,1.01-8.62,2.91C531.77,765.58,531.44,765.69,531.11,765.69z"/><path fill="#fff" d="M531.11,764.14c2.66-2.01,5.97-3.22,9.55-3.22c3.59,0,6.89,1.21,9.55,3.22l8.85-8.85
					c-4.96-4.24-11.38-6.83-18.4-6.83c-7.02,0-13.44,2.59-18.4,6.83L531.11,764.14z"/><path fill="#e6c6cf" d="M519.08,796.77c-0.43-0.02-0.83-0.21-1.11-0.54c-4.65-5.42-7.21-12.32-7.21-19.4
					c0-7.09,2.56-13.98,7.21-19.41c0.28-0.33,0.68-0.52,1.11-0.54c0.02,0,0.04,0,0.06,0c0.41,0,0.8,0.16,1.09,0.45l8.85,8.85
					c0.55,0.54,0.6,1.41,0.14,2.02c-1.9,2.52-2.91,5.5-2.91,8.63c0,3.12,1.01,6.1,2.91,8.62c0.46,0.62,0.41,1.48-0.14,2.02
					l-8.85,8.85c-0.29,0.29-0.68,0.45-1.09,0.45C519.12,796.77,519.1,796.77,519.08,796.77z"/><path fill="#fff" d="M527.99,786.38c-2.01-2.66-3.22-5.97-3.22-9.55c0-3.59,1.21-6.89,3.22-9.56l-8.85-8.85
					c-4.25,4.96-6.84,11.38-6.84,18.41c0,7.02,2.59,13.44,6.83,18.4L527.99,786.38z"/><path fill="#e6c6cf" d="M540.67,787.84c-6.07,0-11.02-4.94-11.02-11.01s4.94-11.01,11.02-11.01c6.07,0,11.01,4.94,11.01,11.01
				S546.74,787.84,540.67,787.84z"/><circle cx="540.66" cy="776.82" r="9.47" fill="#ffbe3b"/><circle cx="589.61" cy="811.14" r="11.5" fill="#e6c6cf"/><circle cx="589.61" cy="811.14" r="10.17" fill="#fff"/><circle cx="589.61" cy="811.14" r="8.13" fill="#641ba1"/><circle cx="644.41" cy="811.14" r="11.5" fill="#e6c6cf"/><circle cx="644.41" cy="811.14" r="10.17" fill="#fff"/><circle cx="644.41" cy="811.14" r="8.13" fill="#641ba1"/><circle cx="616.46" cy="830.77" r="11.5" fill="#e6c6cf"/><circle cx="616.46" cy="830.77" r="10.17" fill="#fff"/><circle cx="616.46" cy="830.77" r="8.13" fill="#ffbe3b"/><path fill="#e6c6cf" d="M636.3,755.5h-39.68c-1.54,0-2.79,1.25-2.79,2.79v31.18c0,1.54,1.25,2.79,2.79,2.79h39.68
				c1.54,0,2.79-1.25,2.79-2.79v-31.18C639.09,756.75,637.84,755.5,636.3,755.5z"/><path fill="#fff" d="M634.81,756.88h-36.71c-1.43,0-2.58,1.16-2.58,2.58v28.85c0,1.43,1.16,2.58,2.58,2.58h36.71
				c1.43,0,2.58-1.16,2.58-2.58v-28.85C637.4,758.03,636.24,756.88,634.81,756.88z"/><path fill="#54d0e6" d="M633.15,758.42h-33.37c-1.3,0-2.35,1.05-2.35,2.35V787c0,1.3,1.05,2.35,2.35,2.35h33.37
				c1.3,0,2.35-1.05,2.35-2.35v-26.23C635.5,759.47,634.45,758.42,633.15,758.42z"/><path fill="#e6c6cf" d="M608.73,748.13c-2.22,0-4.03-1.81-4.03-4.04s1.81-4.04,4.03-4.04h16.62c2.22,0,4.04,1.81,4.04,4.04
			s-1.81,4.04-4.04,4.04H608.73z"/><path fill="#ffbe3b" d="M625.36,741.65h-16.62c-1.35,0-2.45,1.1-2.45,2.45c0,1.35,1.1,2.45,2.45,2.45h16.62
			c1.35,0,2.45-1.1,2.45-2.45C627.8,742.74,626.71,741.65,625.36,741.65z"/><path fill="#e6c6cf" d="M705.92,891.52c-34.34-10.98-13.02-66.92-44.13-58.54c-16.95,4.56-24.38,17.04-45.32,17.05
			c-20.95-0.02-28.38-12.5-45.32-17.05c-31.11-8.37-9.79,47.56-44.13,58.54c-22.18,7.09-61.26-42.08-54.08-111.41
			c0.37,2.01,17.42,90.88,47.22,85.5c30.14-5.44,21.38-38.68,43.44-36.87c22.06,1.81,32.21,17.53,51.07,17.53
			c18.88,0,45.94-23.57,59.55-18.74c13.59,4.83,13.32,38.39,41.46,38.39c26.29,0,42.6-59.89,44.92-78.61
			C764.46,852.8,727.33,898.36,705.92,891.52z"/><path fill="#a7a9ac" d="M759.63,776.79c-0.62-1.1-21.14-43.88-46.89-58.21c-30.1-16.75-65.42,13.82-95.69,13.82
			c-24.3,0-42.46-12.45-66.31-16.99c-50.37-9.58-75.92,51.95-75.92,51.95c7.82-37.14,37.26-60.94,62.48-62.38
			c26.12-1.48,52.18,23.4,79.17,23.4c26.99,0,53.05-24.89,79.17-23.4c26.45,1.51,57.53,27.6,63.47,67.88
			c0.19,1.24,0.36,2.46,0.49,3.68C759.63,776.65,759.63,776.74,759.63,776.79z"/><ellipse cx="544.09" cy="775.16" fill="#bfc1c4" rx="3.4" ry="5.67" transform="rotate(-21.875 544.03 775.072)"/><ellipse cx="696.15" cy="775.16" fill="#bfc1c4" rx="3.4" ry="5.67" transform="rotate(-21.875 696.075 775.072)"/><ellipse cx="646.69" cy="810.22" fill="#bfc1c4" rx="3.4" ry="5.67" transform="rotate(-21.875 646.616 810.127)"/><ellipse cx="618.18" cy="829.66" fill="#bfc1c4" rx="3.4" ry="5.67" transform="rotate(-21.875 618.11 829.568)"/><ellipse cx="591.28" cy="809.76" fill="#bfc1c4" rx="3.4" ry="5.67" transform="rotate(-21.875 591.214 809.67)"/></g><g><path fill="#2bbac9" d="M1114.74,122.87c-1.3-0.48-2.67-0.73-4.06-0.73H829.48c-6.37,0-11.55,5.08-11.55,11.33v112.43
				c0,6.25,5.18,11.33,11.55,11.33h281.19c6.37,0,11.55-5.08,11.55-11.33V133.48C1122.22,128.77,1119.2,124.5,1114.74,122.87z"/><path fill="#fff" d="M1116.32,133.48v112.43c0,3-2.53,5.43-5.65,5.43H829.48c-3.12,0-5.65-2.43-5.65-5.43V133.48
				c0-3,2.53-5.43,5.65-5.43h281.19c0.71,0,1.38,0.13,2.01,0.36C1114.81,129.18,1116.32,131.16,1116.32,133.48z"/><path fill="#c5e3e8" d="M889.54,149.19h-46.86c-1.01,0-1.84-0.82-1.84-1.84l0,0c0-1.01,0.82-1.84,1.84-1.84h46.86
				c1.01,0,1.84,0.82,1.84,1.84l0,0C891.37,148.37,890.55,149.19,889.54,149.19z"/><path fill="#c5e3e8" d="M972.3,149.19H899.7c-1.01,0-1.84-0.82-1.84-1.84l0,0c0-1.01,0.82-1.84,1.84-1.84h72.59
				c1.01,0,1.84,0.82,1.84,1.84l0,0C974.13,148.37,973.31,149.19,972.3,149.19z"/><path fill="#c5e3e8" d="M999.47,149.19h-15.23c-0.88,0-1.6-0.72-1.6-1.6l0,0c0-0.88,0.72-1.6,1.6-1.6h15.23
				c0.88,0,1.6,0.72,1.6,1.6l0,0C1001.06,148.47,1000.35,149.19,999.47,149.19z"/><path fill="#c5e3e8" d="M1065.5,236.73h-46.86c-1.01,0-1.84-0.82-1.84-1.84l0,0c0-1.01,0.82-1.84,1.84-1.84h46.86
				c1.01,0,1.84,0.82,1.84,1.84l0,0C1067.34,235.91,1066.52,236.73,1065.5,236.73z"/><path fill="#c5e3e8" d="M1094.55,236.73h-15.23c-0.88,0-1.6-0.72-1.6-1.6l0,0c0-0.88,0.72-1.6,1.6-1.6h15.23
				c0.88,0,1.6,0.72,1.6,1.6l0,0C1096.15,236.02,1095.44,236.73,1094.55,236.73z"/><path fill="#c5e3e8" d="M999.23,168.16H842.68c-1.01,0-1.84-0.82-1.84-1.84l0,0c0-1.01,0.82-1.84,1.84-1.84h156.55
				c1.01,0,1.84,0.82,1.84,1.84l0,0C1001.06,167.34,1000.24,168.16,999.23,168.16z"/><path fill="#c5e3e8" d="M889.54,204.07h-46.86c-1.01,0-1.84-0.82-1.84-1.84v0c0-1.01,0.82-1.84,1.84-1.84h46.86
				c1.01,0,1.84,0.82,1.84,1.84l0,0C891.37,203.25,890.55,204.07,889.54,204.07z"/><path fill="#c5e3e8" d="M972.3,204.07H899.7c-1.01,0-1.84-0.82-1.84-1.84l0,0c0-1.01,0.82-1.84,1.84-1.84h72.59
				c1.01,0,1.84,0.82,1.84,1.84l0,0C974.13,203.25,973.31,204.07,972.3,204.07z"/><path fill="#c5e3e8" d="M920.58,185.1h-77.9c-1.01,0-1.84-0.82-1.84-1.84l0,0c0-1.01,0.82-1.84,1.84-1.84h77.9
				c1.01,0,1.84,0.82,1.84,1.84l0,0C922.42,184.27,921.59,185.1,920.58,185.1z"/><path fill="#c5e3e8" d="M999.23,185.1h-59.98c-1.01,0-1.84-0.82-1.84-1.84l0,0c0-1.01,0.82-1.84,1.84-1.84h59.98
				c1.01,0,1.84,0.82,1.84,1.84l0,0C1001.06,184.27,1000.24,185.1,999.23,185.1z"/><path fill="#c5e3e8" d="M999.47,204.07h-15.23c-0.88,0-1.6-0.72-1.6-1.6l0,0c0-0.88,0.72-1.6,1.6-1.6h15.23
				c0.88,0,1.6,0.72,1.6,1.6l0,0C1001.06,203.35,1000.35,204.07,999.47,204.07z"/><path fill="#ff6e98" d="M1056.48,167.28c-7.73,0-13.99,6.26-13.99,13.98c0,7.72,6.26,13.98,13.99,13.98
				c7.72,0,13.98-6.26,13.98-13.98C1070.47,173.54,1064.21,167.28,1056.48,167.28z M1056.48,184.88c-2,0-3.62-1.62-3.62-3.62
				c0-2,1.62-3.62,3.62-3.62c2,0,3.62,1.62,3.62,3.62C1060.1,183.26,1058.48,184.88,1056.48,184.88z"/><path fill="#8336c4" d="M1096.71,174.85l-8.64-2.76c0,0,0,0,0,0c-0.68-2.34-1.62-4.59-2.77-6.69l4.1-8.15
				c0.69-1.38,0.43-3.05-0.67-4.14l-4.18-4.18c-1.1-1.1-2.79-1.36-4.17-0.65l-8.07,4.16h-0.01c-2.1-1.16-4.33-2.09-6.67-2.77
				c0,0,0,0,0,0l-2.86-8.66c-0.48-1.47-1.85-2.46-3.4-2.46h-5.91c-1.56,0-2.93,1.01-3.41,2.49l-2.77,8.65c0,0,0,0,0,0
				c-2.35,0.67-4.58,1.6-6.67,2.76c0,0,0,0,0,0l-8.15-4.1c-1.38-0.69-3.05-0.43-4.14,0.67l-4.18,4.18c-1.1,1.1-1.36,2.79-0.65,4.17
				l4.15,8.06c-1.16,2.1-2.09,4.34-2.77,6.69l-8.66,2.86c-1.47,0.48-2.46,1.85-2.46,3.4v5.91c0,1.56,1.01,2.93,2.49,3.41l8.64,2.76
				c0,0,0,0,0,0c0.68,2.34,1.62,4.59,2.77,6.69l-4.1,8.14c-0.69,1.38-0.43,3.05,0.67,4.14l4.18,4.18c1.1,1.1,2.79,1.36,4.17,0.65
				l8.07-4.16c2.1,1.16,4.33,2.09,6.67,2.76h0.01l2.86,8.67c0.48,1.47,1.85,2.46,3.4,2.46h5.91c1.56,0,2.93-1.01,3.41-2.49
				l2.76-8.64c0,0,0,0,0,0c2.35-0.68,4.58-1.61,6.67-2.77c0,0,0,0,0.01,0l8.15,4.1c1.38,0.69,3.05,0.43,4.14-0.67l4.18-4.18
				c1.1-1.1,1.36-2.79,0.65-4.17l-4.15-8.06c1.16-2.1,2.09-4.34,2.77-6.69l8.66-2.86c1.47-0.48,2.46-1.85,2.46-3.4v-5.91
				C1099.2,176.7,1098.19,175.33,1096.71,174.85z M1056.48,204.79c-12.99,0-23.52-10.53-23.52-23.52
				c0-12.99,10.53-23.52,23.52-23.52s23.51,10.53,23.51,23.52C1080,194.26,1069.47,204.79,1056.48,204.79z"/><rect width="16.35" height="16.35" x="840.85" y="220.38" fill="#ff6e98"/><rect width="16.35" height="16.35" x="873.45" y="220.38" fill="#ffbe3b"/><rect width="16.35" height="16.35" x="906.06" y="220.38" fill="#2bbac9"/><rect width="16.35" height="16.35" x="938.67" y="220.38" fill="#8336c4"/><rect width="16.35" height="16.35" x="971.28" y="220.38" fill="#ffbe3b"/></g><g><path fill="#ffbe3b" d="M617.94,258.85h45.42c0.98,0,1.78-0.8,1.78-1.78l0,0c0-0.98-0.8-1.78-1.78-1.78h-45.42
			c-0.98,0-1.78,0.8-1.78,1.78l0,0C616.16,258.05,616.95,258.85,617.94,258.85z"/><path fill="#ffbe3b" d="M561.89,258.85h46.19c0.98,0,1.78-0.8,1.78-1.78l0,0c0-0.98-0.8-1.78-1.78-1.78h-46.19
			c-0.98,0-1.78,0.8-1.78,1.78l0,0C560.11,258.05,560.91,258.85,561.89,258.85z"/><path fill="#54d0e6" d="M576.09,277.24h80.14c0.98,0,1.78-0.8,1.78-1.78l0,0c0-0.98-0.8-1.78-1.78-1.78h-80.14
			c-0.98,0-1.78,0.8-1.78,1.78l0,0C574.31,276.44,575.1,277.24,576.09,277.24z"/><path fill="#ff6e98" d="M584.9,293.65h62.52c0.98,0,1.78-0.8,1.78-1.78l0,0c0-0.98-0.8-1.78-1.78-1.78H584.9
			c-0.98,0-1.78,0.8-1.78,1.78l0,0C583.12,292.85,583.91,293.65,584.9,293.65z"/></g><g><path fill="#ffbe3b" d="M911.44,329.28h45.97c0.99,0,1.8-0.81,1.8-1.8l0,0c0-0.99-0.81-1.8-1.8-1.8h-45.97c-0.99,0-1.8,0.81-1.8,1.8
			l0,0C909.64,328.47,910.45,329.28,911.44,329.28z"/><path fill="#ffbe3b" d="M854.72,329.28h46.75c0.99,0,1.8-0.81,1.8-1.8l0,0c0-0.99-0.81-1.8-1.8-1.8h-46.75c-0.99,0-1.8,0.81-1.8,1.8
			l0,0C852.92,328.47,853.72,329.28,854.72,329.28z"/><path fill="#54d0e6" d="M869.08,347.89h81.12c0.99,0,1.8-0.81,1.8-1.8l0,0c0-0.99-0.81-1.8-1.8-1.8h-81.12c-0.99,0-1.8,0.81-1.8,1.8
			l0,0C867.28,347.09,868.09,347.89,869.08,347.89z"/><path fill="#ff6e98" d="M878,364.5h63.28c0.99,0,1.8-0.81,1.8-1.8l0,0c0-0.99-0.81-1.8-1.8-1.8H878c-1,0-1.8,0.81-1.8,1.8l0,0
			C876.2,363.7,877.01,364.5,878,364.5z"/></g><g><path fill="#ffbe3b" d="M526.53,374.02h38.45c0.83,0,1.51-0.67,1.51-1.51l0,0c0-0.83-0.67-1.51-1.51-1.51h-38.45
			c-0.83,0-1.51,0.67-1.51,1.51l0,0C525.02,373.34,525.7,374.02,526.53,374.02z"/><path fill="#ffbe3b" d="M479.08,374.02h39.1c0.83,0,1.51-0.67,1.51-1.51l0,0c0-0.83-0.67-1.51-1.51-1.51h-39.1
			c-0.83,0-1.51,0.67-1.51,1.51l0,0C477.58,373.34,478.25,374.02,479.08,374.02z"/><path fill="#54d0e6" d="M491.1,389.59h67.85c0.83,0,1.51-0.67,1.51-1.51l0,0c0-0.83-0.67-1.51-1.51-1.51H491.1
			c-0.83,0-1.51,0.67-1.51,1.51l0,0C489.59,388.91,490.27,389.59,491.1,389.59z"/><path fill="#ff6e98" d="M498.56,403.48h52.93c0.83,0,1.51-0.67,1.51-1.51l0,0c0-0.83-0.67-1.51-1.51-1.51h-52.93
			c-0.83,0-1.51,0.67-1.51,1.51l0,0C497.05,402.81,497.73,403.48,498.56,403.48z"/></g><g><path fill="#ff6e98" d="M673.05,342.37l-21.08,63.23c-1.41,4.25,3.04,8.08,7.01,6.03c8.89-4.58,29.76-14.97,40.45-14.97
			c18.69,0-12.85-62.71-12.85-62.71L673.05,342.37z"/><path fill="#ff6e98" d="M804.88,342.37l21.08,63.23c1.41,4.25-3.04,8.08-7.01,6.03c-8.89-4.58-29.76-14.97-40.45-14.97
			c-18.68,0,12.85-62.71,12.85-62.71L804.88,342.37z"/><path fill="#e03131" d="M738.73,499.93c-27.82-35.61-22.21-51.41-13.3-58.35h26.6C760.94,448.52,766.55,464.32,738.73,499.93z"/><path fill="#ff8a24" d="M738.73,484.41c-18.78-24.03-17.94-36.45-12.87-42.82h25.73C756.67,447.96,757.5,460.37,738.73,484.41z"/><path fill="#ffb200" d="M738.73,463.72c-9.01-11.53-9.89-18.24-8.13-22.13h16.26C748.62,445.48,747.74,452.19,738.73,463.72z"/><path fill="#fff" d="M806.25,293.87c0,3.1-0.12,6.28-0.36,9.57v0.01c-0.38,5.05-1.07,10.32-2.13,15.8
			c-12.15,62.85-33.94,88.09-39.55,114.32h-50.45c-5.61-26.24-27.41-51.47-39.55-114.32c-1.03-5.31-1.71-10.42-2.09-15.34
			c-0.25-3.19-0.38-6.29-0.4-9.31c-0.01-2.3,0.04-4.56,0.15-6.76c0.16-3.13,0.43-6.14,0.8-9.05c4.75-37.26,25.67-57.52,25.67-57.52
			h81.28c0,0,20.66,20,25.58,56.81c0.4,2.99,0.69,6.09,0.86,9.31C806.19,289.5,806.25,291.66,806.25,293.87z"/><path fill="#dde1e6" d="M806.07,287.39c-0.17-3.22-0.47-6.32-0.86-9.31c-4.92-36.81-25.58-56.81-25.58-56.81h-1
			c5.61,9.57,11.64,23.4,14.01,41.15c0.4,2.99,0.7,6.09,0.86,9.31c0.12,2.11,0.18,4.27,0.18,6.48c0,3.1-0.12,6.28-0.36,9.57v0.01
			c-0.38,5.05-1.07,10.32-2.13,15.8c-6.86,35.49-16.79,58.99-25.15,77.44c-10.18,22.48-32.6,36.88-57.27,36.88h0
			c2.16,5.38,3.9,10.5,5,15.66h50.45c5.61-26.24,27.4-51.47,39.55-114.32c1.06-5.48,1.76-10.75,2.13-15.8v-0.01
			c0.24-3.29,0.36-6.47,0.36-9.57C806.25,291.66,806.19,289.5,806.07,287.39z"/><path fill="#ff6e98" d="M806.07,287.39l-1.69,0.41c-3.1,0.72-6.17,1.54-9.31,2.05l-9.38,1.69l-2.34,0.42l-2.36,0.31l-4.73,0.63
			c-12.6,1.74-25.32,2.36-38.02,2.47c-12.71,0.04-25.41-0.79-38.02-2.37c-6.3-0.78-12.58-1.83-18.83-3.02
			c-3.12-0.67-6.23-1.29-9.34-2.08c-0.06-0.01-0.12-0.03-0.18-0.04c0.16-3.13,0.43-6.14,0.8-9.05c0.47,0.11,0.92,0.2,1.39,0.3
			c2.99,0.67,6.03,1.17,9.03,1.73c6.06,1.02,12.15,1.94,18.26,2.58c12.24,1.32,24.55,2.11,36.86,1.95c1.54-0.01,3.08,0.07,4.62-0.01
			l4.62-0.15l4.61-0.15l2.31-0.08l2.3-0.16l9.2-0.69c0.76-0.07,1.54-0.11,2.3-0.19l2.28-0.28l4.59-0.53
			c10.14-1.08,20.18-2.94,30.16-5.03C805.61,281.07,805.9,284.17,806.07,287.39z"/><path fill="#ff6e98" d="M806.25,293.87c0,3.1-0.12,6.28-0.36,9.57v0.01l-1.51,0.36c-3.1,0.72-6.17,1.54-9.31,2.05l-9.38,1.69
			l-2.34,0.42l-2.36,0.32l-4.73,0.62c-12.6,1.74-25.32,2.36-38.02,2.47c-12.71,0.04-25.41-0.79-38.02-2.37
			c-6.3-0.78-12.58-1.83-18.83-3.02c-3.1-0.67-6.18-1.28-9.27-2.06c-0.25-3.19-0.38-6.29-0.4-9.31c0.78,0.17,1.56,0.34,2.34,0.5
			c2.99,0.67,6.03,1.17,9.03,1.73c6.06,1.02,12.15,1.94,18.26,2.58c12.24,1.32,24.55,2.11,36.86,1.95c1.54-0.01,3.08,0.07,4.62-0.01
			l4.62-0.15l4.61-0.15l2.31-0.07l2.3-0.17l9.2-0.69c0.76-0.07,1.54-0.11,2.3-0.19l2.28-0.28l4.59-0.53
			C785.55,298,795.93,296.05,806.25,293.87z"/><path fill="#8336c4" d="M746,351.6c0,3.87-3.14,7.01-7.01,7.01s-7.01-3.14-7.01-7.01c0-3.87,3.14-7.01,7.01-7.01
			S746,347.72,746,351.6z"/><path fill="#8336c4" d="M746,384.94c0,3.87-3.14,7.01-7.01,7.01s-7.01-3.14-7.01-7.01c0-3.87,3.14-7.01,7.01-7.01
			S746,381.07,746,384.94z"/><path fill="#ff6e98" d="M698.35,221.27c0,0,40.62,26.04,81.28,0c0,0-21.74-29.55-40.65-30.01
			C720.06,190.79,698.35,221.27,698.35,221.27z"/><ellipse cx="738.99" cy="297.92" fill="#8336c4" rx="24.3" ry="29.2"/><path fill="#80c8ff" d="M756.59,297.92c0,8.95-3.87,16.72-9.54,20.55c-2.41,1.65-5.15,2.57-8.06,2.57
				c-8.52,0-15.63-7.98-17.25-18.56c-0.01-0.03-0.01-0.05-0.01-0.05c-0.21-1.46-0.33-2.97-0.33-4.51c0-12.78,7.88-23.13,17.59-23.13
				C748.71,274.79,756.59,285.15,756.59,297.92z"/><path fill="#fff" d="M742.44,282.81c0,1.12-1.09,2.04-2.44,2.04c-1.34,0-2.44-0.91-2.44-2.04c0-1.12,1.09-2.04,2.44-2.04
				C741.35,280.77,742.44,281.68,742.44,282.81z"/><ellipse cx="745.73" cy="286.31" fill="#fff" rx="2.44" ry="2.04"/><path fill="#67aeeb" d="M747.04,318.47c-2.41,1.65-5.15,2.57-8.06,2.57c-8.52,0-15.63-7.98-17.25-18.56
				C722.08,303.45,728.07,319.69,747.04,318.47z"/><path fill="#ff6e98" d="M760.8,447.01h-44.15c-1.85,0-3.4-1.16-3.63-2.7l-1.61-11.03c-0.27-1.83,1.43-3.45,3.63-3.45h47.37
			c2.19,0,3.89,1.62,3.63,3.45l-1.61,11.03C764.21,445.85,762.65,447.01,760.8,447.01z"/></g><path fill="#2bbac9" d="M733.63,132.85l-2.76-14.08c-0.05-0.23-0.22-0.41-0.45-0.46l-14.02-3.05c-0.63-0.14-0.62-1.03,0.01-1.16
		l14.08-2.76c0.23-0.05,0.41-0.22,0.46-0.45L734,96.87c0.14-0.63,1.03-0.62,1.16,0.01l2.76,14.08c0.05,0.23,0.22,0.41,0.45,0.46
		l14.02,3.05c0.63,0.14,0.62,1.03-0.01,1.16l-14.08,2.76c-0.23,0.05-0.41,0.22-0.46,0.45l-3.05,14.02
		C734.65,133.49,733.75,133.48,733.63,132.85z"/><path fill="#ff6e98" d="M238.74,488.9l-2.76-14.08c-0.05-0.23-0.22-0.41-0.45-0.46l-14.02-3.05c-0.63-0.14-0.62-1.03,0.01-1.16
		l14.08-2.76c0.23-0.05,0.41-0.22,0.46-0.45l3.05-14.02c0.14-0.63,1.03-0.62,1.16,0.01l2.76,14.08c0.05,0.23,0.22,0.41,0.45,0.46
		l14.02,3.05c0.63,0.14,0.62,1.03-0.01,1.16l-14.08,2.76c-0.23,0.05-0.41,0.22-0.46,0.45l-3.05,14.02
		C239.76,489.54,238.87,489.53,238.74,488.9z"/><path fill="#ffbe3b" d="M617.42,678.88l-2.76-14.08c-0.05-0.23-0.22-0.41-0.45-0.46l-14.02-3.05c-0.63-0.14-0.62-1.03,0.01-1.16
		l14.08-2.76c0.23-0.05,0.41-0.22,0.46-0.45l3.05-14.02c0.14-0.63,1.03-0.62,1.16,0.01L621.7,657c0.05,0.23,0.22,0.41,0.45,0.46
		l14.02,3.05c0.63,0.14,0.62,1.03-0.01,1.16l-14.08,2.76c-0.23,0.05-0.41,0.22-0.46,0.45l-3.05,14.02
		C618.44,679.52,617.54,679.51,617.42,678.88z"/><path fill="#641ba1" d="M1139.92,382.49l-2.76-14.08c-0.05-0.23-0.22-0.41-0.45-0.46l-14.02-3.05c-0.63-0.14-0.62-1.03,0.01-1.16
		l14.08-2.76c0.23-0.05,0.41-0.22,0.46-0.45l3.05-14.02c0.14-0.63,1.03-0.62,1.16,0.01l2.76,14.08c0.05,0.23,0.22,0.41,0.45,0.46
		l14.02,3.05c0.63,0.14,0.62,1.03-0.01,1.16l-14.08,2.76c-0.23,0.05-0.41,0.22-0.46,0.45l-3.05,14.02
		C1140.94,383.13,1140.04,383.12,1139.92,382.49z"/><g><polygon fill="#6c27af" points="659.25 68.15 686.25 62.98 674.82 51.54"/><polygon fill="#944ed8" points="685.26 67.77 717.3 48.75 673.86 57.74"/><polygon fill="#944ed8" points="717.32 48.7 657.66 37.53 668.41 47.94"/><polygon fill="#8336c4" points="717.3 48.75 673.8 57.88 659.25 68.15 668.36 47.75"/></g></svg>