<svg id="Layer_1" data-name="Layer 1" xmlns="http://www.w3.org/2000/svg" viewBox="0 0 128 128"><defs><style>.cls-1{fill:#2d3e50;}.cls-2{fill:#1d75b8;}</style></defs><title>b</title><path class="cls-1" d="M79.44737,48.03469a4.4572,4.4572,0,0,0-1.86239-.3622l-13.78622.70975L53.36191,35.86994a7.96729,7.96729,0,0,0-.75686-.78659c-.04865-.04054-.1027-.07838-.15406-.11623a6.36592,6.36592,0,0,0-2.15432-1.03525c-.04054-.01082-.08379-.02163-.12435-.03245a7.52625,7.52625,0,0,0-1.00552-.20273c-2.71925-.36761-5.44661-.68927-8.16854-1.03254a2.19685,2.19685,0,0,0-2.29488,1.07309C37.47892,35.624,36.222,37.49176,34.97591,39.365c-.719,1.07851-1.44342,2.15162-2.23811,3.33823-.01081-.01351-.01622-.02432-.027-.03783a.32744.32744,0,0,1-.027.03783c-.79469-1.18662-1.5191-2.25973-2.23811-3.33823-1.24609-1.8732-2.503-3.741-3.72747-5.62771a2.19682,2.19682,0,0,0-2.29487-1.07309c-.97849.12433-1.9597.24326-2.9409.3649-1.74346.21624-3.48691.43248-5.22766.66764a7.62849,7.62849,0,0,0-1.72724.4352.228.228,0,0,1-.03244.01081,6.71091,6.71091,0,0,0-3.65179,3.00035,6.45308,6.45308,0,0,0-.37031.73523L3.26129,54.79924l-.25679.60279A4.68992,4.68992,0,0,0,2.918,58.8646l.73792,2.01645L9.49176,76.83974A4.58058,4.58058,0,0,0,15.02757,79.659a4.56315,4.56315,0,0,0,3.13821-5.63582l-1.39746-4.90328L13.61388,58.03748,16.325,53.72885c.01622.30813.02973.60818.03785.90821.027.98661.05675,1.97321.08379,2.95982.027.92173.05136,1.84076.07568,2.76249l3.72207,13.07184a6.72831,6.72831,0,0,1-1.67047,6.55215,6.56136,6.56136,0,0,1-1.46774,1.12986q.34868,12.561.69737,25.11924c.0811,2.93278.2,7.44684.30544,11.24459a9.05846,9.05846,0,0,0,8.99027,8.80917l5.61149.04054,5.61149-.04054a9.05846,9.05846,0,0,0,8.99027-8.80917c.10542-3.79775.22434-8.31181.30544-11.24459q.71764-25.795,1.4407-51.5954c.02433-.85686.0811-2.53.146-3.90317,0,0,7.24411,7.19275,9.24165,8.80917A6.23646,6.23646,0,0,0,59.787,60.381a4.47023,4.47023,0,0,0,.97039.01081l17.352-3.76147a4.489,4.489,0,0,0,1.338-8.59564Z" id="id_104" style="fill: rgb(139, 92, 246);"></path><path class="cls-2" d="M125.34556,105.50658l-1.60672-14.41793-2.55665-22.92928a2.64758,2.64758,0,0,0-1.58882-2.428l-21.07976-6.993a2.69829,2.69829,0,0,0-2.12588,0L75.308,65.7314a2.65941,2.65941,0,0,0-1.58882,2.428L71.16252,91.08865l-1.60783,14.428a5.2761,5.2761,0,0,0,2.30042,4.89623L93.8143,125.2157a6.50443,6.50443,0,0,0,7.27163,0l21.96032-14.814A5.2745,5.2745,0,0,0,125.34556,105.50658Zm-4.95889.95328-21.96032,14.8129a1.73819,1.73819,0,0,1-.97567.29986v-30.484H75.948l2.37986-21.3483,19.12283-6.34406V91.08865h21.5027l1.66154,14.90241A.51929.51929,0,0,1,120.38667,106.45986Z" id="id_105" style="fill: rgb(236, 72, 153);"></path><path class="cls-1" d="M23.28452,20.71644a9.60269,9.60269,0,0,0,18.85289,0l1.46484-7.56211A10.11641,10.11641,0,0,0,33.57653,1.67324H31.84539A10.11641,10.11641,0,0,0,21.81968,13.15433Z" id="id_106" style="fill: rgb(142, 89, 247);"></path></svg>