<svg xmlns="http://www.w3.org/2000/svg" enable-background="new 0 0 2500 2500" viewBox="0 0 2500 2500"><path fill="#edede9" d="M2475,392.5v718.59c0,15.57-12.62,28.18-28.18,28.18H1418.25c-15.56,0-28.18-12.61-28.18-28.18V392.5
							c0-15.56,12.62-28.18,28.18-28.18h1028.57C2462.38,364.32,2475,376.94,2475,392.5z"/><path fill="#2196f3" d="M2475,392.5v51.67H1390.07V392.5c0-15.56,12.62-28.18,28.18-28.18h1028.57
							C2462.38,364.32,2475,376.94,2475,392.5z"/><path fill="#fff" d="M2415.51,404.24c0,9.94-8.06,18-18,18s-18-8.06-18-18s8.06-18,18-18S2415.51,394.3,2415.51,404.24z"/><path fill="#fff" d="M2339.58,404.24c0,9.94-8.06,18-18,18s-18-8.06-18-18s8.06-18,18-18S2339.58,394.3,2339.58,404.24z"/><path fill="#fff" d="M2263.65,404.24c0,9.94-8.06,18-18,18s-18-8.06-18-18s8.06-18,18-18
							C2255.59,386.24,2263.65,394.3,2263.65,404.24z"/><rect width="86.64" height="12.03" x="1557.53" y="493.19" fill="#d6ccc2"/><rect width="118.51" height="12.03" x="1525.66" y="557.83" fill="#d6ccc2"/><rect width="69.81" height="12.03" x="1574.36" y="622.47" fill="#d6ccc2"/><rect width="93.38" height="12.03" x="1550.8" y="687.12" fill="#d6ccc2"/><rect width="69.81" height="12.03" x="1574.36" y="751.76" fill="#d6ccc2"/><rect width="118.51" height="12.03" x="1525.66" y="816.41" fill="#d6ccc2"/><rect width="50.28" height="12.03" x="1593.89" y="881.05" fill="#d6ccc2"/><rect width="89.34" height="12.03" x="1554.84" y="945.69" fill="#d6ccc2"/><rect width="118.51" height="12.03" x="1525.66" y="1010.34" fill="#d6ccc2"/><rect width="69.14" height="12.03" x="1575.04" y="1074.98" fill="#d6ccc2"/><rect width="12.03" height="581.8" x="1706.39" y="499.2" fill="#d6ccc2"/><rect width="138.27" height="12.03" x="1768.97" y="493.19" fill="#d6ccc2"/><rect width="196.63" height="12.03" x="1838.1" y="587.46" fill="#d6ccc2"/><rect width="87.54" height="12.03" x="1848.88" y="792.16" fill="#d6ccc2"/><rect width="87.54" height="12.03" x="1768.97" y="881.05" fill="#d6ccc2"/><rect width="479.44" height="12.03" x="1900.05" y="881.05" fill="#d6ccc2"/><rect width="87.54" height="12.03" x="1974.57" y="792.16" fill="#d6ccc2"/><rect width="263.07" height="12.03" x="2116.43" y="792.16" fill="#d6ccc2"/><g><path fill="#f9f9f9" d="M2210.66,243.05v718.59c0,15.57-12.62,28.18-28.18,28.18H1153.91c-15.56,0-28.18-12.61-28.18-28.18
							V243.05c0-15.56,12.62-28.18,28.18-28.18h1028.57C2198.04,214.87,2210.66,227.5,2210.66,243.05z"/><path fill="#2196f3" d="M2210.66,243.05v51.67H1125.73v-51.67c0-15.56,12.62-28.18,28.18-28.18h1028.57
							C2198.04,214.87,2210.66,227.5,2210.66,243.05z"/><path fill="#fff" d="M2151.17,254.8c0,9.94-8.06,18-18,18s-18-8.06-18-18s8.06-18,18-18
							C2143.11,236.79,2151.17,244.85,2151.17,254.8z"/><path fill="#fff" d="M2075.24,254.8c0,9.94-8.06,18-18,18s-18-8.06-18-18s8.06-18,18-18
							C2067.18,236.79,2075.24,244.85,2075.24,254.8z"/><path fill="#fff" d="M1999.31,254.8c0,9.94-8.06,18-18,18s-18-8.06-18-18s8.06-18,18-18
							C1991.25,236.79,1999.31,244.85,1999.31,254.8z"/><g><rect width="86.64" height="12.03" x="1293.2" y="343.74" fill="#d6ccc2"/><rect width="118.51" height="12.03" x="1261.32" y="408.39" fill="#d6ccc2"/><rect width="69.81" height="12.03" x="1310.03" y="473.03" fill="#d6ccc2"/><rect width="93.38" height="12.03" x="1286.46" y="537.68" fill="#d6ccc2"/><rect width="69.81" height="12.03" x="1310.03" y="602.32" fill="#d6ccc2"/><rect width="118.51" height="12.03" x="1261.32" y="666.96" fill="#d6ccc2"/><rect width="50.28" height="12.03" x="1329.56" y="731.61" fill="#d6ccc2"/><rect width="89.34" height="12.03" x="1290.5" y="796.25" fill="#d6ccc2"/><rect width="118.51" height="12.03" x="1261.32" y="860.9" fill="#d6ccc2"/><rect width="69.14" height="12.03" x="1310.7" y="925.54" fill="#d6ccc2"/><rect width="12.03" height="581.8" x="1442.06" y="349.76" fill="#d6ccc2"/><rect width="138.27" height="12.03" x="1504.64" y="343.74" fill="#d6ccc2"/><rect width="196.63" height="12.03" x="1573.77" y="438.02" fill="#d6ccc2"/><rect width="87.54" height="12.03" x="1584.54" y="642.72" fill="#d6ccc2"/><rect width="87.54" height="12.03" x="1504.64" y="731.61" fill="#d6ccc2"/><rect width="479.44" height="12.03" x="1635.72" y="731.61" fill="#d6ccc2"/><rect width="87.54" height="12.03" x="1710.24" y="642.72" fill="#d6ccc2"/><rect width="263.07" height="12.03" x="1852.1" y="642.72" fill="#d6ccc2"/></g></g><g><path fill="#efa706" d="M1328.91,1298.77h-220.15c-14.24,0-25.79-11.55-25.79-25.79v-220.15c0-14.24,11.55-25.79,25.79-25.79h220.15
				c14.24,0,25.79,11.55,25.79,25.79v220.15C1354.7,1287.22,1343.15,1298.77,1328.91,1298.77z"/><path fill="#ffb703" d="M1323.33,1294.1h-220.15c-14.24,0-25.79-11.55-25.79-25.79v-220.15c0-14.24,11.55-25.79,25.79-25.79h220.15
				c14.24,0,25.79,11.55,25.79,25.79v220.15C1349.12,1282.55,1337.57,1294.1,1323.33,1294.1z"/><path fill="#fff" d="M1131.81,1151.25c4.1-0.34,7.19-1.45,9.28-3.33c2.09-1.88,3.14-4.4,3.14-7.56c0-3.59-0.38-8.75-1.16-15.49
					c-0.86-8.02-1.28-13.87-1.28-17.54c0-6.66,1.99-11.84,5.96-15.56c3.97-3.71,9.24-5.57,15.81-5.57h8.84v15.11h-5.38
					c-5.29,0-7.94,2.52-7.94,7.56c0,2.39,0.35,7.17,1.03,14.34c0.08,0.85,0.3,3.27,0.64,7.24s0.51,7.49,0.51,10.56
					c0,4.53-1.11,8.28-3.33,11.27s-5.59,4.91-10.11,5.76v0.26c4.52,0.94,7.89,2.88,10.11,5.83s3.33,6.72,3.33,11.33
					c0,2.9-0.17,6.34-0.51,10.31c-0.34,3.97-0.56,6.47-0.64,7.49c-0.68,7.17-1.03,11.91-1.03,14.21c0,2.65,0.64,4.57,1.93,5.76
					c1.28,1.19,3.28,1.79,6.02,1.79h5.38v15.24h-8.84c-6.57,0-11.84-1.86-15.81-5.57c-3.97-3.71-5.96-8.9-5.96-15.56
					c0-3.76,0.43-9.65,1.28-17.67c0.77-6.74,1.16-11.86,1.16-15.37c0-3.16-1.05-5.68-3.14-7.55c-2.09-1.88-5.19-2.99-9.28-3.33
					v-13.96H1131.81z"/><path fill="#fff" d="M1285.41,1168.54c-2.09,1.88-3.14,4.4-3.14,7.55c0,3.5,0.39,8.62,1.16,15.37
					c0.85,8.02,1.28,13.91,1.28,17.67c0,6.66-1.99,11.84-5.96,15.56c-3.97,3.71-9.24,5.57-15.82,5.57h-8.83v-15.24h5.38
					c2.73,0,4.73-0.6,6.02-1.79c1.28-1.2,1.92-3.12,1.92-5.76c0-2.3-0.34-7.04-1.02-14.21c-0.09-1.02-0.3-3.52-0.64-7.49
					c-0.35-3.97-0.51-7.4-0.51-10.31c0-4.61,1.1-8.39,3.33-11.33c2.22-2.95,5.59-4.89,10.11-5.83v-0.26
					c-4.52-0.85-7.9-2.77-10.11-5.76c-2.22-2.99-3.33-6.74-3.33-11.27c0-3.07,0.17-6.59,0.51-10.56c0.34-3.97,0.55-6.38,0.64-7.24
					c0.68-7.17,1.02-11.95,1.02-14.34c0-5.04-2.64-7.56-7.94-7.56h-5.38v-15.11h8.83c6.57,0,11.85,1.86,15.82,5.57
					s5.96,8.9,5.96,15.56c0,3.67-0.43,9.52-1.28,17.54c-0.77,6.74-1.16,11.91-1.16,15.49c0,3.16,1.05,5.68,3.14,7.56
					s5.19,2.99,9.28,3.33v13.96C1290.6,1165.55,1287.5,1166.66,1285.41,1168.54z"/></g><g><ellipse cx="331.1" cy="2261.9" fill="#42a5f5" rx="178.22" ry="23.22"/><rect width="71.75" height="441.97" x="295.22" y="1816.69" fill="#64b5f6"/><path fill="#64b5f6" d="M575.96,1496.87c-48.49-46.73-128.4-127.33-152.52-173.09c-7.64-14.5-16.11-28.52-25.83-41.72
				c-13.22-17.97-31.74-41.38-52.14-61.94c-38.88-39.19-99.59-47.01-147.27-19.16c-86.15,50.32-189.56,186.99-167.43,474.67
				c0,0,20.75,237.89,453.65,146.61c0,0,186.55-16.05,163.36-185.65C640.49,1583.27,614.71,1534.21,575.96,1496.87z"/><path fill="#42a5f5" d="M627.79,1744.21c-45,69.57-143.36,78.02-143.36,78.02c-432.91,91.28-453.65-146.62-453.65-146.62
				c-32.28-287.68,77.34-419.03,162.42-471.66c-63.66,73.51-116.61,203.94-100.16,417.83c0,0,20.74,237.89,453.65,146.62
				C546.69,1768.41,586.98,1764.93,627.79,1744.21z"/><path fill="#42a5f5" d="M362.12,1351.98c-42.44-7.22-101.5-18.81-120.81,19.67c-40.12,79.96-61.36,301.58,70.74,317.3l3.33,0.59
				c3.82,0.68,7.69,1.02,11.57,1.02l104.02-0.01c34.19,0.69,64.48-21.9,73.58-54.87l0,0c9.55-34.59,4.63-71.55-13.57-102.47
				c-29.6-50.3-78.59-119.47-124.89-120.88L362.12,1351.98z"/><rect width="74.61" height="133.38" x="859.39" y="1921.64" fill="#f7c19b" transform="rotate(-1.985 895.823 1988.734)"/><path fill="#dbdbdb" d="M1043.34,2108.25l-184.13-8.18c-4.76-0.21-8.45-4.24-8.23-9l0.4-8.97l201.36,8.95l-0.4,8.97
							C1052.12,2104.77,1048.09,2108.46,1043.34,2108.25z"/><path fill="#37424c" d="M1052.47,2097.01c-0.38,0.06-0.78,0.08-1.19,0.06l-198.58-8.83c-0.55-0.02-1.07-0.1-1.59-0.22
							c-3.99-0.93-6.88-4.6-6.7-8.86l2.96-66.65c0.41-9.24,10.11-15.01,18.48-11.02c22.15,10.58,45.45,11.3,70.07,0.72
							c3.15-1.37,6.82-0.68,9.22,1.77l7.7,7.88l0.27,0.28l1.15,1.18c1.37,1.4,2.78,2.73,4.23,4.02c0.14,0.14,0.31,0.28,0.45,0.4
							c7.13,6.24,15.32,11.16,24.19,14.44c0.28,0.11,0.58,0.21,0.85,0.3c1.93,0.71,3.92,1.32,5.91,1.85
							c0.43,0.11,0.86,0.23,1.27,0.36c0.04,0,0.06,0,0.07,0.02c47.59,13.13,62.6,42.34,66.33,54.29
							C1058.77,2092.75,1056.19,2096.48,1052.47,2097.01z"/><path fill="#e1e3e8" d="M959.36,2030.71c0.04,1.55-1.18,2.85-2.75,2.91l-0.3-0.01c-1.43-0.12-2.56-1.28-2.61-2.74l-0.42-13.37
								l-0.16-5.36l1.15,1.18c1.37,1.4,2.78,2.73,4.23,4.02c0.14,0.14,0.31,0.28,0.45,0.4L959.36,2030.71z"/><path fill="#e1e3e8" d="M958.5,2017.34l-5.23,0.16l-13.35,0.42c-0.11,0.01-0.23,0.01-0.32,0c-1.41-0.12-2.54-1.28-2.59-2.74
								c-0.06-1.55,1.16-2.85,2.73-2.91l13.1-0.42l0.27,0.28l1.15,1.18C955.64,2014.72,957.05,2016.05,958.5,2017.34z"/><path fill="#e1e3e8" d="M991.25,2034.71l5.63,12.07c0.65,1.41,0.05,3.09-1.37,3.75c-0.27,0.12-0.54,0.2-0.82,0.25
								c-1.19,0.15-2.39-0.46-2.93-1.62l-5.65-12.11l-2.12-4.56c1.93,0.71,3.92,1.32,5.91,1.85c0.43,0.11,0.86,0.23,1.27,0.36
								L991.25,2034.71z"/><path fill="#e1e3e8" d="M991.18,2034.69l-5.06,2.36l-12.13,5.65c-0.27,0.12-0.54,0.2-0.82,0.25c-1.19,0.15-2.39-0.46-2.93-1.62
								c-0.67-1.41-0.05-3.09,1.35-3.75l11.55-5.39c0.28,0.11,0.58,0.21,0.85,0.3c1.93,0.71,3.92,1.32,5.91,1.85
								C990.34,2034.44,990.77,2034.56,991.18,2034.69z"/><path fill="#37424c" d="M508.11,1656.2l313.78,54.22l22.22,245.16l104.79,5.2c0,0-0.5-178.24-5.13-301.43
				c-1.89-50.3-37.96-92.75-87.31-102.66l-334.59-77.29C340.69,1465.86,475.42,1585.83,508.11,1656.2z"/><path fill="#f7c19b" d="M782.11,1078.85l11.85-23.25c2.3-4.51,2.52-9.8,0.61-14.49l-7.79-19.12c-1.2-2.95-0.24-6.33,2.32-8.22l0,0
			c3.36-2.47,8.12-1.44,10.16,2.2l9.41,16.76c0,0,31.81-61.29,44.07-25.98c0,0,18.1-7.59,11.97,13.43c0,0,19.85-5.13,12.26,13.72
			c0,0,16.42-2.79,8.77,13.23c-1.73,3.61-4.12,6.87-6.92,9.73l-54.67,55.84L782.11,1078.85z"/><rect width="71.76" height="128.29" x="811.14" y="2016.31" fill="#f7c19b" transform="rotate(-11.478 846.826 2080.552)"/><path fill="#dbdbdb" d="M996.49,2193.19H819.22c-4.58,0-8.3-3.71-8.3-8.3v-8.64h193.86v8.64
						C1004.78,2189.47,1001.07,2193.19,996.49,2193.19z"/><path fill="#37424c" d="M1004.79,2182c-0.36,0.07-0.74,0.11-1.14,0.11H812.47c-0.53,0-1.03-0.05-1.54-0.14
						c-3.88-0.72-6.81-4.13-6.81-8.22v-64.17c0-8.89,9.08-14.86,17.28-11.38c21.74,9.22,44.15,8.91,67.35-2.3
						c2.97-1.45,6.52-0.94,8.93,1.3l7.74,7.25l0.27,0.25l1.16,1.09c1.38,1.29,2.79,2.5,4.24,3.68c0.14,0.13,0.31,0.25,0.45,0.36
						c7.12,5.69,15.2,10.07,23.86,12.84c0.27,0.09,0.56,0.18,0.83,0.25c1.88,0.6,3.82,1.11,5.76,1.52c0.42,0.09,0.83,0.18,1.23,0.29
						c0.04,0,0.05,0,0.07,0.02c46.29,10.58,61.96,38.01,66.05,49.33C1010.66,2177.64,1008.34,2181.33,1004.79,2182z"/><path fill="#e1e3e8" d="M912.49,2122.27c0.11,1.49-1.01,2.79-2.52,2.92h-0.29c-1.38-0.05-2.52-1.12-2.63-2.52l-0.98-12.83
							l-0.38-5.15l1.16,1.09c1.38,1.29,2.79,2.5,4.24,3.68c0.14,0.13,0.31,0.25,0.45,0.36L912.49,2122.27z"/><path fill="#e1e3e8" d="M911.09,2109.47l-5.02,0.38l-12.81,0.98c-0.11,0.02-0.22,0.02-0.31,0.02c-1.36-0.05-2.5-1.12-2.61-2.52
							c-0.13-1.49,1-2.79,2.5-2.92l12.57-0.96l0.27,0.25l1.16,1.09C908.23,2107.08,909.64,2108.29,911.09,2109.47z"/><path fill="#e1e3e8" d="M943.3,2124.76l5.92,11.36c0.69,1.32,0.18,2.97-1.16,3.66c-0.25,0.13-0.51,0.22-0.78,0.27
							c-1.14,0.2-2.32-0.34-2.88-1.43l-5.94-11.4l-2.23-4.29c1.88,0.6,3.82,1.1,5.76,1.52c0.42,0.09,0.83,0.18,1.23,0.29
							L943.3,2124.76z"/><path fill="#e1e3e8" d="M943.23,2124.74l-4.76,2.48l-11.41,5.94c-0.25,0.13-0.51,0.22-0.78,0.27c-1.14,0.2-2.32-0.34-2.88-1.43
							c-0.71-1.32-0.18-2.97,1.14-3.66l10.87-5.67c0.27,0.09,0.56,0.18,0.83,0.25c1.88,0.6,3.82,1.11,5.76,1.52
							C942.41,2124.54,942.83,2124.63,943.23,2124.74z"/><path fill="#37424c" d="M656.59,1746.09l135.21,321.79l103.39-13.56l-86.26-375.18c-5.04-13.36-14.51-24.59-25.03-35.75
			l-364.57-170.57l-185.84,29.97c0,0-35.57,140.92,96.57,173.8L656.59,1746.09z"/><g><rect width="82.76" height="127.58" x="342.63" y="963.86" fill="#f7c19b"/><path fill="#f7c19b" d="M385.86,839.87l50.05,10.04c0,0,60.37,90.57,8.38,136.23c-19.84,17.42-48.47,21.17-72.63,10.53
					c-12.98-5.72-26.5-15.65-35.34-32.88l-16.65-80.89L385.86,839.87z"/><path fill="#333" d="M342.62,1002.39l10.36-37.5c0,0-17.62-13.81-10.99-31.51c3-8,11.22-13.38,19.57-11.55
					c7.1,1.56,12.95,12.13,15.59,19.28l9.32-3.42c0,0-23.12-97.19,51.32-84.78c0,0,19.24-12.13,2.46-31.7
					c0,0,10.97-35.62-38.1-22.22c0,0-17.25-14.65-47.2,11.67c0,0-53.5-30.11-68.35,39.57c0,0-51.22,59.27,21.1,114.09
					c3.25,2.47,6.75,4.6,10.3,6.6C322.84,973.65,336.89,985.94,342.62,1002.39z"/><path fill="#ecf0f1" d="M384.16,1059.9v455.32c-89.42,1.4-149.8-12.23-150.66-12.43c-0.17-13.16-10.59-213.34-17.77-263
				l-62.14,54.51l-21.12,28.75l-55.5,23.55l-8.93-9.02c-28.01-28.35-30.59-73.1-6-104.47l101.13-129.01
				c17.4-22.19,42.02-37.58,69.58-43.49l84-18.16l32.74-7.07c9.96,17.11,26.19,30.3,27.71,31.51L384.16,1059.9z"/><path fill="#e1e3e8" d="M377.27,1066.98l-15.55,15.55l-6.7,6.7c-29.06-28.02-38.48-46.63-38.48-46.63l0.17-0.15l25.91-22.34
				c1.34,5.28,4.01,10.43,6.83,15.27c9.96,17.11,26.2,30.3,27.71,31.51C377.24,1066.95,377.27,1066.98,377.27,1066.98z"/><path fill="#ecf0f1" d="M533.65,1222.46c-6.05,41.86,6.02,175.95,7.67,233.4c0.33,11.63-7.97,21.7-19.46,23.55
				c-24.86,3.99-78.38,36.74-137.71,35.81V1059.9l6.99,6.99c1.51-1.21,17.75-14.4,27.71-31.51l32.74,7.07
				c0,0,74.91,28.45,124.55,72.99c32.26,28.94,72.44,78.26,72.44,78.26l134.5-133.45l59.47,51.97l-111.49,136.27
				c-47.1,57.56-134.68,58.87-183.46,2.73L533.65,1222.46z"/><path fill="#e1e3e8" d="M391.04,1066.98l15.55,15.55l6.7,6.7c29.06-28.02,38.48-46.63,38.48-46.63l-0.17-0.15l-26.22-22.34
				c-1.34,5.28-3.71,10.43-6.52,15.27c-9.96,17.11-26.2,30.3-27.71,31.51C391.08,1066.95,391.04,1066.98,391.04,1066.98z"/><polygon fill="#fa5669" points="343.76 1413.98 384.16 1474.02 424.55 1413.98 397.69 1091.44 406.59 1082.53 406.69 1082.43 384.16 1059.9 361.63 1082.43 361.73 1082.53 370.62 1091.44"/><path fill="#f7c19b" d="M246.03,1424.09l23.35,11.65c4.53,2.26,9.82,2.44,14.49,0.49l19.06-7.95c2.94-1.23,6.33-0.3,8.24,2.25l0,0
					c2.5,3.34,1.51,8.11-2.11,10.18l-16.68,9.55c0,0,61.56,31.29,26.35,43.85c0,0,7.74,18.03-13.32,12.08c0,0,5.3,19.8-13.61,12.37
					c0,0,2.93,16.4-13.15,8.88c-3.63-1.7-6.91-4.06-9.79-6.83l-56.3-54.19L246.03,1424.09z"/><path fill="#ecf0f1" d="M269.48,1432.53l-115.9-138.24c0,0-40.33-16.81-76.63,52.3l152.73,140.4L269.48,1432.53z"/><path fill="#e1e3e8" d="M229.69,1486.99c14.08-17.54,27.53-35.57,40.8-53.73l0.58-0.79l-0.63-0.74
						c-4.97-5.86-15.06-17.59-20.12-23.37c-6.77-7.74-13.63-15.4-20.62-22.94c6.27,8.16,12.68,16.2,19.17,24.17
						c4.85,5.96,14.73,17.86,19.68,23.74l-0.05-1.53C255.21,1449.96,242.12,1468.25,229.69,1486.99L229.69,1486.99z"/></g><g><rect width="298.29" height="20.43" x="576.52" y="1531.38" fill="#808ec7" transform="rotate(-3.242 725.596 1541.633)"/><rect width="147.03" height="20.44" x="429.78" y="1543.99" fill="#6d7cb9" transform="rotate(-3.242 503.225 1554.235)"/><polygon fill="#ced5fc" points="873.93 1523.01 576.12 1539.85 650.99 1341.3 948.8 1324.46"/><path fill="#fff" d="M780.82,1448.55c-10.49,11.75-27.21,13.93-37.35,4.88c-10.14-9.05-9.86-25.92,0.63-37.66
				c10.49-11.75,27.21-13.93,37.35-4.88C791.59,1419.94,791.31,1436.8,780.82,1448.55z"/></g></g></svg>