<svg xmlns="http://www.w3.org/2000/svg" enable-background="new 0 0 650 700" viewBox="0 0 650 700"><path fill="#dcebff" d="M177.6,292c-9.9-3.4-15.2-14.1-11.8-24c3.1-9.3,2.5-19.2-1.8-27.9c-4.3-8.8-11.8-15.3-21-18.5         c-9.2-3.1-19.2-2.5-27.9,1.8c-8.8,4.3-15.3,11.8-18.5,21c-3.4,9.9-14.1,15.2-24,11.8l0.6-1.9c8.8,3,18.4-1.7,21.4-10.5         c3.3-9.8,10.2-17.6,19.5-22.2c9.2-4.6,19.7-5.2,29.5-1.9c9.8,3.3,17.6,10.2,22.2,19.5s5.2,19.7,1.9,29.5         c-3,8.8,1.7,18.4,10.5,21.4L177.6,292z"/><rect width="2" height="110.9" x="142.3" y="165.2" fill="#dcebff" transform="rotate(-71.21 143.275 220.674)"/><path fill="#ffc5b2" d="M229.7,210.2l-11.6-18.4l-15.8,22c-3.4,4.8-2.2,11.4,2.6,14.7l9.2,6.3"/><path fill="#ff988b" d="M213.8,212.5c0.2,2.5-1.7,4.8-4.4,5l-8.1,0.7c-2.7,0.2-5-1.6-5.2-4.2c-0.2-2.5,1.7-4.8,4.4-5l8.1-0.7          C211.3,208.1,213.6,209.9,213.8,212.5z"/><path fill="#ff988b" d="M214.9,221.7c0.2,2.5-1.7,4.8-4.4,5l-8.1,0.7c-2.7,0.2-5-1.6-5.2-4.2c-0.2-2.5,1.7-4.8,4.4-5l8.1-0.7          C212.3,217.3,214.7,219.1,214.9,221.7z"/><path fill="#ffc5b2" d="M211.1,212.7c0.2,2.5-1.7,4.8-4.4,5l-8.1,0.7c-2.7,0.2-5-1.6-5.2-4.2c-0.2-2.5,1.7-4.8,4.4-5l8.1-0.7          C208.5,208.3,210.9,210.1,211.1,212.7z"/><path fill="#ffc5b2" d="M212.2,221.9c0.2,2.5-1.7,4.8-4.4,5l-8.1,0.7c-2.7,0.2-5-1.6-5.2-4.2c-0.2-2.5,1.7-4.8,4.4-5l8.1-0.7          C209.6,217.5,211.9,219.3,212.2,221.9z"/><path fill="#ffc5b2" d="M219.6,206.5c-2.2,2.1-5.7,1.9-7.8-0.3l-14.7-14c-2.2-2.3-2.2-5.8-0.1-7.9c2.1-2.1,5.7-2,7.8,0.3          l14.7,14C221.8,200.9,221.8,204.4,219.6,206.5z"/><path fill="#ffc5b2" d="M207.6,209.6c-2.2,2.1-5.7,1.9-7.8-0.3l-14.7-14c-2.2-2.3-2.2-5.8-0.1-7.9c2.1-2.1,5.7-2,7.8,0.3          l14.7,14C209.8,204,209.8,207.5,207.6,209.6z"/><path fill="#ffc5b2" d="M321.1,234.5l-18.9,22.6L236,199.4l-21.8,35.5l72.2,67.6c12.6,11.8,32.6,10.7,43.8-2.5l38.9-45.4"/><path fill="#fb6a69" d="M382.7,208.2l-23.9,56.9l-44.6-28.4l17-20.3c7.1-9.3,18.8-13.8,30.4-11.8L382.7,208.2z"/><polygon points="350.8 223.3 331.1 247.4 340.9 253.6"/><path fill="#640915" d="M481.8,204.2c-1,5.5,3.6,10.2,8,13.7c4.3,3.5,9.2,7.8,8.9,13.3c-0.2,3-2,5.8-4.3,7.7            c-2.3,1.9-5.2,3-8,3.8l-0.1,0c-20.2,5.8-42.6-0.9-59.4-13.5c-8.8-6.6-16.5-14.9-21.3-24.8c-4.8-9.9-6.4-21.6-3.2-32.1            c1.6-5.4,4.6-10.5,8.6-14.5c1.1-1.1,2.3-2.2,3.6-3.2c2.9-2.2,6.2-3.8,9.5-5.1c3.7-1.4,8.7-0.7,12.7-1.1            c5.4-0.6,10.8-1.6,16-3.1c4.3-1.2,8.7-2.7,13.2-2.3c4.5,0.5,9.1,3.6,9.5,8.1c0.3,3.4-1.8,6.4-3.3,9.4            c-1.5,3-2.2,7.1,0.2,9.4c2.3,2.3,6.1,1.7,9.4,2.1c4.3,0.6,8.1,3.4,10,7.3c1.8,3.9,1.6,8.7-0.7,12.3            C488.3,196.1,482.8,199,481.8,204.2z"/><path fill="#2f1a11" d="M486.3,242.7l-0.1,0c-20.2,5.8-42.6-0.9-59.4-13.5c-8.8-6.6-16.5-14.9-21.3-24.8            c-4.8-9.9-6.4-21.6-3.2-32.1c1.6-5.4,4.6-10.5,8.6-14.5c1.3-0.1,2.5,0,3.8,0.2c6.1,0.9,11.5,5.1,14.1,10.6l3.9,2.7            c-4.1,2.2-8.3,4.5-11.2,8c-2.9,3.6-4.4,8.8-2.3,12.9c2.8,5.4,10,6.6,16.1,6c6.1-0.5,12.6-1.9,18,0.8            c4.7,2.3,7.6,7.3,9.3,12.3c1.7,5,2.6,10.3,4.8,15.1C471,234.2,478.1,240.2,486.3,242.7z"/><rect width="130.8" height="17.4" x="334.1" y="413.2" fill="#792d37"/><path fill="#ffc5b2" d="M287.1,568.5L277,585.8l-15.5,2.6l-6-28.2l0.4-11.6l0.2-7c0,0,28.1-6,28.4-5.9                  c0.2,0.1,1.2,12.5,1.9,22.1C286.8,563.7,287.1,568.5,287.1,568.5z"/><path fill="#231826" d="M286.6,557.8l-30.5-9.2l0.2-7c0,0,28.1-6,28.4-5.9C284.9,535.7,285.9,548.2,286.6,557.8z"/><path fill="#453447" d="M253.8,584.9c-7.5-1.7-18.1-6.3-22.6-11.7c-2.6-3.1-4.2-8.4-1.4-11c2.2-2.1,5.3-1.2,7.9,0.3                    c5.5,3.2,9.8,7.9,13.9,12.5l-1.2,1.1c-4-4.5-8.2-9.1-13.5-12.2c-1.9-1.1-4.4-2.1-6-0.6c-2,1.9-0.5,6.3,1.6,8.8                    c4.1,4.9,14.3,9.5,21.7,11.2L253.8,584.9z"/><path fill="#453447" d="M249.1,578c-2.6-1.1-4.9-3-6.4-5.4c-2.7-4.4-1.9-8.8,0.8-11c3.3-2.8,8.5-1.7,9.8,5                    c0.5,2.7,0.6,6.5,2.7,8c0.6,0.4,1.3,0.6,1.9,0.4l0.4,1.6c-1.1,0.3-2.3,0-3.3-0.7c-2.8-2-2.9-6.3-3.4-9                    c-1-5.3-4.7-6.1-7.1-4c-2,1.7-2.7,5.2-0.4,8.9c1.3,2.1,3.3,3.8,5.6,4.8L249.1,578z"/><path fill="#fb6a69" d="M289.1,607.4h-79.3c0,0-3.2-13.8,22.3-18.7c0,0,20-12.1,23.5-28.9c0,0,7.1-1.2,4.8,8.1                    c-0.1,0.2-0.1,0.4-0.1,0.4c0,0,0,0,0,0.1c0,0,27.2,0.2,27,0C286.9,568.3,289.1,607.4,289.1,607.4z"/><path fill="#453447" d="M210.3,602.3c-1,3-0.5,5.2-0.5,5.2h79.3c0,0-0.1-2-0.3-5.2H210.3z"/><path fill="#fee8a0" d="M260.3,568c-0.1,0.2-0.1,0.4-0.1,0.4c0,0,0,0,0,0.1c0,0-6.2,24.8-28.1,20.2                    c0,0,20-12.1,23.5-28.9C255.6,559.8,262.7,558.6,260.3,568z"/><path fill="#453447" d="M261.4,572.5h-12.1c-0.4,0-0.8-0.4-0.8-0.8c0-0.4,0.4-0.8,0.8-0.8h12.1                     c0.4,0,0.8,0.4,0.8,0.8C262.2,572.1,261.8,572.5,261.4,572.5z"/><path fill="#453447" d="M256.7,580.5l-14-0.9c-0.4,0-0.8-0.4-0.7-0.9c0-0.4,0.4-0.8,0.9-0.7l14,0.9                     c0.4,0,0.8,0.4,0.7,0.9C257.5,580.2,257.1,580.5,256.7,580.5z"/><path fill="#453447" d="M250.5,586.7l-11.3-3.6c-0.4-0.1-0.7-0.6-0.5-1c0.1-0.4,0.6-0.7,1-0.5l11.3,3.6                     c0.4,0.1,0.7,0.6,0.5,1C251.4,586.6,250.9,586.8,250.5,586.7z"/><path fill="#453447" d="M243.1,591.2l-8.3-4.9c-0.4-0.2-0.5-0.7-0.3-1.1c0.2-0.4,0.7-0.5,1.1-0.3l8.3,4.9                     c0.4,0.2,0.5,0.7,0.3,1.1C244,591.3,243.5,591.4,243.1,591.2z"/><path fill="#ffc5b2" d="M440.5,568.5l-10.2,17.3l-15.5,2.6l-6-28.2c0.1-1.9-0.2,6.9,0.6-18.6c0,0,28.1-6,28.4-5.9                  c0.2,0.1,1.2,12.5,1.9,22.1C440.1,563.7,440.5,568.5,440.5,568.5z"/><path fill="#231826" d="M439.9,557.8l-30.5-9.2l0.2-7c0,0,28.1-6,28.4-5.9C438.3,535.7,439.2,548.2,439.9,557.8z"/><path fill="#453447" d="M407.2,584.9c-7.5-1.7-18.1-6.3-22.6-11.7c-2.6-3.1-4.2-8.4-1.4-11c2.2-2.1,5.3-1.2,7.9,0.3                    c5.5,3.2,9.8,7.9,13.9,12.5l-1.2,1.1c-4-4.5-8.2-9.1-13.5-12.2c-1.9-1.1-4.4-2.1-6-0.6c-2,1.9-0.5,6.3,1.6,8.8                    c4.1,4.9,14.3,9.5,21.7,11.2L407.2,584.9z"/><path fill="#453447" d="M402.4,578c-2.6-1.1-4.9-3-6.4-5.4c-2.7-4.4-1.9-8.8,0.8-11c3.3-2.8,8.5-1.7,9.8,5                    c0.5,2.5,0.6,6.5,2.7,8c0.6,0.4,1.3,0.6,1.9,0.4l0.4,1.6c-1.1,0.3-2.3,0-3.3-0.7c-2.8-2-2.9-6.3-3.4-9                    c-2-9.9-12.8-3.7-7.6,4.9c1.3,2.1,3.3,3.8,5.6,4.8L402.4,578z"/><path fill="#fb6a69" d="M442.4,607.4h-79.3c0,0-3.2-13.8,22.3-18.7c0,0,20-12.1,23.5-28.9c0,0,7.1-1.2,4.8,8.1                    c-0.1,0.2-0.1,0.4-0.1,0.4c0,0,0,0,0,0.1c0,0,27.2,0.2,27,0C440.3,568.3,442.4,607.4,442.4,607.4z"/><path fill="#453447" d="M363.6,602.3c-1,3-0.5,5.2-0.5,5.2h79.3c0,0-0.1-2-0.3-5.2H363.6z"/><path fill="#fee8a0" d="M413.7,568c-0.1,0.2-0.1,0.4-0.1,0.4c0,0,0,0,0,0.1c0,0-6.2,24.8-28.1,20.2                    c0,0,20-12.1,23.5-28.9C408.9,559.8,416,558.6,413.7,568z"/><path fill="#453447" d="M414.7,572.5h-12.1c-0.4,0-0.8-0.4-0.8-0.8c0-0.4,0.4-0.8,0.8-0.8h12.1                     c0.4,0,0.8,0.4,0.8,0.8C415.5,572.1,415.2,572.5,414.7,572.5z"/><path fill="#453447" d="M410,580.5l-14-0.9c-0.4,0-0.8-0.4-0.7-0.9c0-0.4,0.4-0.8,0.9-0.7l14,0.9                     c0.4,0,0.8,0.4,0.7,0.9C410.8,580.2,410.4,580.5,410,580.5z"/><path fill="#453447" d="M403.8,586.7l-11.3-3.6c-0.4-0.1-0.7-0.6-0.5-1c0.1-0.4,0.6-0.7,1-0.5l11.3,3.6                     c0.4,0.1,0.7,0.6,0.5,1C404.7,586.6,404.2,586.8,403.8,586.7z"/><path fill="#453447" d="M396.5,591.2l-8.3-4.9c-0.4-0.2-0.5-0.7-0.3-1.1c0.2-0.4,0.7-0.5,1.1-0.3l8.3,4.9                     c0.4,0.2,0.5,0.7,0.3,1.1C397.3,591.3,396.8,591.4,396.5,591.2z"/><path fill="#3b93fe" d="M339.6,352.4l-62.6,4.9c-29.4,1.9-51.9,26.8-51,56.3l-7.5,138.6h83.8l-3.6-130.3l67.8-8.7                 l23.4-60.8H339.6z"/><polygon points="349.8 370.8 311.1 419.3 366.5 413.2"/><polygon fill="#2f1a11" points="451.1 430.6 476.7 605.2 472.4 605.2 442.4 430.6"/><polygon fill="#2f1a11" points="348 430.6 322.3 605.2 326.6 605.2 356.6 430.6"/><path fill="#fb6a69" d="M454,242.2l0.1,110.2H339.6v-57.1c-6.6-3.9-10.9-11-10.9-19.2c0-8.2,4.4-15.3,10.9-19.2                   l5.4-18.9c4.5-16.3,11.9-29.2,28.2-29.9l45.8,0C438.2,207.7,454,223.1,454,242.2z"/><polygon points="417.8 230.6 406.4 298.9 357.4 313.6 422.1 304.4 424.2 244.8"/><path fill="#3b93fe" d="M435.1,410.6c-3.6,1.6-7.5,2.5-11.6,2.5h-68.9v-60.8h99.6l1.2,21.2                   C456.3,390.3,447.7,405,435.1,410.6z"/><path d="M435.1,411c-3.6,1.4-7.5,2.2-11.6,2.2h-25.7l5-42.4L435.1,411z"/><path fill="#3b93fe" d="M457.4,550.2l-50.2-168.5c-1.1-5.9-3.9-11.4-8.2-15.6c-5.3-5.3-13.7-10.8-25.3-10.2                   c-6.4,0.3-22.8,2.5-26.8,5.5c-9.7,7.1-13.8,19.7-11.1,31.4l36.7,160.1L457.4,550.2z"/><path fill="#fff" d="M282.8,539.8l-1-0.1c4.3-34.5,3.3-69.4-2.8-103.6c-1.2-6.8-2.6-14.4,0.7-20.7             c2.3-4.2,6.6-7.6,12.3-9.3c5-1.6,10.3-1.8,15.4-2l0,1c-5,0.2-10.2,0.4-15.1,2c-5.4,1.7-9.6,4.8-11.7,8.8             c-3.2,5.9-1.9,13.1-0.7,20C286.1,470.2,287.1,505.1,282.8,539.8z"/><rect width="39.9" height="1" x="224.7" y="538.8" fill="#fff"/><rect width="48.1" height="1" x="378.6" y="540.2" fill="#fff"/><path fill="#fff" d="M428.7,526.4c-9.9-36-18.9-72.8-26.6-109.4l1-0.2c7.7,36.6,16.6,73.3,26.6,109.3L428.7,526.4z"/><path fill="#1abafa" d="M429.5,148.5c0,0,1.6,13.7-7,21.9c0,0,5.5,5.5,11.2,1.2c5.6-4.4,3.1-23.3,3.1-23.3L429.5,148.5z"/><path fill="#ffc5b2" d="M415.7,208.5c-2.3,9.8-32.7,44.6-35.4-0.3l-0.5-4l-1.5-12.4l19.2-12.4l7.2-4.7L415.7,208.5z"/><path fill="#ff988b" d="M397.5,179.4c0.2,1.2,0.1,2.6-0.2,4.4c-2.5,13.4-17.5,20.4-17.5,20.4l-1.5-12.4L397.5,179.4z"/><path fill="#ffc5b2" d="M404.7,174.7c0,0-18.2,26.7-34.7,21.5c-12-3.8-12.4-32-7.9-51c1.6-6.9,3.9-12.7,6.4-15.5             c9.6-10.7,32.4-3.4,32.4-3.4l2.5,29.3c0,0,11.9-1.5,13.3,8.1C418.2,173.4,404.7,174.7,404.7,174.7z"/><path fill="#640915" d="M408.1,181l-3.4-6.3c0,0,13.5-1.3,12.1-10.9c-1.5-9.6-13.3-8.1-13.3-8.1s-11.3,0.7-16.9-24.8             c0,0,0,0,0,0c-0.4-0.1-10.4-3.4-12.9,2.2c-1.5,3.3-3.7,10.2-8.6,11.8l0,0c-0.9,0.3-1.8,0.4-2.9,0.3             c-3.2-0.2-7.4-2.6-12.8-8.3c0,0,7.4,1.5,9.3-3.3c2-4.8-3.4-16.1,9.3-19c12.7-2.9,15.9,6,15.9,6s25.2-17.9,41.4,14.4             C441.5,167.4,408.1,181,408.1,181z"/><path fill="#ffb014" d="M401.9,139.6c0,0.8-0.4,1.6-1.2,2l-10.8,5.6c-1.1,0.6-2.4,0.1-3-0.9c-0.6-1.1-0.2-2.5,0.9-3            l10.8-5.6c1.1-0.6,2.5-0.1,3,0.9C401.8,139,401.9,139.3,401.9,139.6z"/><path fill="#ffb014" d="M398,131.7c0,0.8-0.4,1.6-1.2,2l-10.8,5.6c-1.1,0.6-2.4,0.1-3-0.9c-0.6-1.1-0.2-2.5,0.9-3l10.8-5.6            c1.1-0.6,2.5-0.1,3,0.9C397.9,131,398,131.4,398,131.7z"/><path fill="#2f1a11" d="M386.5,130.8c-0.4-0.1-10.4-3.4-12.9,2.2c-1.5,3.3-3.7,10.2-8.6,11.8c5-3.1,1.6-4.6,4.6-12.5            c3-7.9,13-9.7,14.1-7.1C384.7,127.7,386.4,130.6,386.5,130.8z"/><g><circle cx="385.4" cy="155.9" r="2.3"/><circle cx="385.4" cy="155.9" r="2.3"/><circle cx="367.4" cy="151.6" r="2.3"/><path fill="#ff988b" d="M372,171.3c-0.7-0.5-1.4-1-2-1.7c-1.9-2.3-0.9-4.2,0.8-6.2c0.1-0.1,3.4-3.5,5.1-9             c0.1-0.4,0.5-0.6,0.9-0.5c0.4,0.1,0.6,0.5,0.5,0.9c-1.7,5.6-4.9,8.8-5.4,9.5c-1.3,1.5-2.1,2.6-0.8,4.2             c0.5,0.6,1.1,1,1.7,1.5c0.3,0.2,0.4,0.7,0.2,1C372.8,171.5,372.3,171.6,372,171.3z"/><path fill="#ff988b" d="M368.5,178.2c-0.3-0.3-0.3-0.8,0-1.1c0.3-0.3,0.8-0.3,1.1,0c2.2,2.2,5.7,2.1,7.8-0.1             c0.3-0.3,0.8-0.3,1.1,0c0.3,0.3,0.3,0.8,0,1.1C375.8,180.9,371.3,180.9,368.5,178.2z"/></g><g><path fill="#ffc5b2" d="M460.8,259.7l-0.9,59.1c-0.2,11.7-9.4,21.2-21,21.8l-78.7,0.3l-2.8-27.3l64.7-9.2l2.3-62.9            L460.8,259.7z"/></g><g><path fill="#fb6a69" d="M418.5,208.2H431c18.2,0,33,14.8,33,33l-1.3,23.9l-45.8-0.7L418.5,208.2z"/></g><g><path fill="#394084" d="M275.8,358.5h94.9l0,0c0-6.3-5.2-11.3-11.5-11.1l-83.3,3V358.5z"/><path fill="#394084" d="M250.8,358.5h83.9l-17-69.6c-1.2-4.8-5.5-8.2-10.4-8.2H237c-6.9,0-12,6.5-10.4,13.2l13.8,56.4             C241.6,355.1,245.9,358.5,250.8,358.5z"/><ellipse cx="276.6" cy="320.2" fill="#dcebff" rx="7.1" ry="9.3" transform="rotate(-48.701 276.596 320.155)"/></g><g><path fill="#ffc5b2" d="M360.2,340.9l-28.2,6.7c-0.9,0.4-1.9,0-2.4-0.8c-0.5-0.9-0.1-2,0.7-2.5l8.2-4.6l-15,2.9           c-1.4,0.2-2.6-0.7-2.8-2c-0.2-1.2,0.6-2.4,1.8-2.7l12.1-3.1l-16,2.2c-1.3,0.2-2.5-0.8-2.7-2c-0.2-1.3,0.6-2.5,1.9-2.8           c7.5-1.5,17.1-5,17.7-5.3l-16.7,1.9c-1.3,0.2-2.5-0.8-2.6-2.2c-0.1-1.3,0.9-2,2.1-2.5c4.7-2,12.4-4.7,17.6-6.8l-1.6-0.9           c-1.5-0.8-2.2-2.6-1.6-4.3c0.7-2.2,3.1-3.2,4.9-2.5l19.8,4L360.2,340.9z"/></g><g><path fill="#ffc5b2" d="M169.5,219.4l-10.5-2.6c-1-0.3-1.3-1.6-0.5-2.3l8.3-7L169.5,219.4z"/><path d="M161.8,217.5l-2.8-0.7c-1-0.3-1.3-1.6-0.5-2.3l2.2-1.9L161.8,217.5z"/><polygon fill="#ffc5b2" points="169 207.8 166.7 207.6 169.5 219.4 171.4 218.3"/><path fill="#ffd552" d="M245.9,185.2c7.1-1.7,9.9,10.6,2.9,12.2l-4.1,1c-6.4,1.5-9.2-10.7-2.9-12.2L245.9,185.2z"/><path fill="#dc4343" d="M169.4,215.3l74.3-21l1,4.1l-74.3,21C167.7,220,166.7,216,169.4,215.3z"/><path fill="#fb6a69" d="M168.5,211.3l74.3-21l1,4.1l-74.3,21C166.7,216,165.8,211.9,168.5,211.3z"/><path fill="#ff8281" d="M167.5,207.2l74.3-21l1,4.1l-74.3,21C165.8,211.9,164.9,207.8,167.5,207.2z"/><path fill="#fee8a0" d="M244.7,198.4l-3.8,1c2.2-0.5-0.6-12.7-2.8-12.2l3.7-1C245.1,185.4,248,197.6,244.7,198.4z"/></g><g><path fill="#ffc5b2" d="M240.9,203.7l-15.8-18.8c-1.8-2.4-5.1-3.3-7.9-2l0,0c-3.9,1.8-5,6.7-2.3,10l12.2,22.2"/></g><g><path fill="#a9d1ff" d="M153.7,218.2l-3.7,10.7c-0.6,1.8-2.6,2.7-4.3,2.1l-10.7-3.7c-1.8-0.6-2.7-2.5-2.1-4.3l3.7-10.7           c0.6-1.8,2.6-2.7,4.3-2.1l10.7,3.7C153.4,214.5,154.3,216.4,153.7,218.2z"/><path fill="#a9d1ff" d="M193.1,246.5c-4.4-1.5-6.7-6.2-5.2-10.6c1.5-4.4,6.2-6.7,10.6-5.2c4.4,1.5,6.7,6.2,5.2,10.6          C202.2,245.6,197.5,248,193.1,246.5z M189.7,236.5c-1.1,3.3,0.6,7,4,8.1c3.3,1.1,7-0.7,8.1-4l0,0c1.1-3.3-0.6-7-4-8.1          C194.5,231.4,190.9,233.1,189.7,236.5z"/><path fill="#a9d1ff" d="M88.1,210.7c-4.4-1.5-6.7-6.3-5.2-10.6c1.5-4.4,6.2-6.7,10.6-5.2c4.4,1.5,6.7,6.2,5.2,10.6          C97.2,209.9,92.5,212.2,88.1,210.7z M84.7,200.8c-1.1,3.3,0.7,7,4,8.1c3.4,1.1,7-0.7,8.1-4l0,0c1.1-3.3-0.6-7-4-8.1          C89.5,195.6,85.9,197.4,84.7,200.8z"/></g><g><path fill="#ffd3de" d="M297.9,96.2v10.9c0,2-1.6,3.7-3.7,3.7h-10.9c-2,0-3.7-1.6-3.7-3.7V96.2c0-2,1.6-3.7,3.7-3.7h10.9        C296.3,92.5,297.9,94.2,297.9,96.2z"/></g><g><path fill="#fee8a0" d="M321.8,96.2v10.9c0,2-1.6,3.7-3.7,3.7h-10.9c-2,0-3.7-1.6-3.7-3.7V96.2c0-2,1.6-3.7,3.7-3.7h10.9        C320.2,92.5,321.8,94.2,321.8,96.2z"/></g><g><path fill="#ffd552" d="M297.9,121.2v10.9c0,2-1.6,3.7-3.7,3.7h-10.9c-2,0-3.7-1.6-3.7-3.7v-10.9c0-2,1.6-3.7,3.7-3.7h10.9        C296.3,117.6,297.9,119.2,297.9,121.2z"/></g><g><path fill="#ffaec2" d="M321.8,121.2v10.9c0,2-1.6,3.7-3.7,3.7h-10.9c-2,0-3.7-1.6-3.7-3.7v-10.9c0-2,1.6-3.7,3.7-3.7h10.9        C320.2,117.6,321.8,119.2,321.8,121.2z"/></g><g><path fill="#a9d1ff" d="M297.9,146.2v10.9c0,2-1.6,3.7-3.7,3.7h-10.9c-2,0-3.7-1.6-3.7-3.7v-10.9c0-2,1.6-3.7,3.7-3.7h10.9        C296.3,142.6,297.9,144.2,297.9,146.2z"/></g><g><path fill="#dcebff" d="M321.8,146.2v10.9c0,2-1.6,3.7-3.7,3.7h-10.9c-2,0-3.7-1.6-3.7-3.7v-10.9c0-2,1.6-3.7,3.7-3.7h10.9        C320.2,142.6,321.8,144.2,321.8,146.2z"/></g><g><path fill="#fff" d="M562.3,275.6l14.4,46.6c1.2,3.9-1,8.1-4.9,9.3L518.3,348c-3.9,1.2-8.1-1-9.4-4.9l-14.4-46.6       c-1.2-3.9,1-8.1,4.9-9.3l53.5-16.5C556.9,269.4,561.1,271.6,562.3,275.6z"/><path fill="#394084" d="M508.6,343.2l-14.4-46.6c-1.3-4.1,1-8.5,5.2-9.8l53.5-16.5c4.1-1.3,8.5,1,9.8,5.2l14.4,46.6       c1.3,4.1-1,8.5-5.2,9.8l-53.5,16.5C514.3,349.7,509.9,347.3,508.6,343.2z M553.1,271l-53.5,16.5c-3.7,1.2-5.9,5.1-4.7,8.9       l14.4,46.6c1.2,3.7,5.1,5.8,8.9,4.7l53.5-16.5c3.7-1.2,5.8-5.1,4.7-8.9L562,275.7C560.8,271.9,556.8,269.8,553.1,271z"/></g><g><path fill="#ffaec2" d="M547.6,298.5l-2.3,0.7l-4.3-3.6l-6.5,2l7.4,24l4.8-0.5l0.9,3.4l-14.4,4.4l-0.8-3.3        c1.2-0.9,2.5-1.7,3.8-2.5l-7.3-23.8l-6.5,2l-1.5,5.4l-2.3,0.7c-1.3-3.4-2.2-6.8-2.6-10.2l28-8.6        C545.6,291.6,546.8,294.9,547.6,298.5z"/></g><g><path fill="#dcebff" d="M194,460.4c-13.3-1.6-26.9-5.8-34.2-17.2c-11-2.6-19.4-11.2-26.2-20.1c-22-28.9-32.6-66.1-29.3-102.2l1,0.1      c-3.3,35.9,7.3,72.9,29.1,101.5c6.4,8.5,14.3,16.6,24.6,19.5c-3.4-6-4.9-13.4-2.2-20.1c4-9.8,18-14.6,25.8-7.6      c7.1,6.4,5.4,18.9-1.9,24.9c-5.1,4.2-12.3,5.7-19.6,4.3c7.2,10.5,20.3,14.3,32.9,15.9L194,460.4z M160.4,442.4      c7.3,1.6,14.6,0.3,19.7-3.9c6.8-5.6,8.5-17.4,1.9-23.4c-7.3-6.6-20.5-1.9-24.2,7.2C155.1,429,156.8,436.5,160.4,442.4z"/></g><g><path fill="#dcebff" d="M533.8,213.7l-0.9-0.5c14.1-23.1,5.9-53.5-17.9-66.4c-1-0.6-2-1-3-1.4c0.5,4.1-0.7,9.2-4.5,12      c-3.9,2.8-10.5,1.7-12.4-2.9c-1.8-4.6,2-9.9,6.7-11.2c2.7-0.7,5.6-0.5,8.9,0.6c-1-4.2-3.6-7.9-6-11      c-18.1-23.4-47.7-37.5-77.2-36.9l0-1c29.8-0.6,59.7,13.7,78,37.3c2.6,3.3,5.3,7.4,6.3,12c1.2,0.5,2.4,1,3.7,1.7      C539.8,159.1,548.1,190.1,533.8,213.7z M502.1,144.1c-4.2,1.1-7.7,5.8-6.1,9.8c1.6,4,7.4,4.9,10.9,2.5c3.7-2.6,4.7-7.6,4.1-11.6      C508.1,143.8,505.1,143.3,502.1,144.1z"/></g></svg>