<svg xmlns="http://www.w3.org/2000/svg" data-name="Layer 1" viewBox="0 0 1200 1000"><g data-name="Graphic Designer 4"><ellipse cx="598.86" cy="933.63" fill="#9fc2e4" rx="403.91" ry="32.97"/><circle cx="609.88" cy="366.49" r="356.04" fill="#89add3"/><path fill="#ff878b" d="M277.89,531.94H390.15v-8H278.77a8.89,8.89,0,0,0-8.88,8.88v17.84a8.89,8.89,0,0,0,8.88,8.88H390.15v-8H277.89Z"/><path fill="#0a1a33" d="M390.15,561.54H278.77a10.89,10.89,0,0,1-10.88-10.88V532.82a10.89,10.89,0,0,1,10.88-10.88H390.15a2,2,0,0,1,2,2v8a2,2,0,0,1-2,2H279.89v15.6H390.15a2,2,0,0,1,2,2v8A2,2,0,0,1,390.15,561.54Zm-111.38-35.6a6.89,6.89,0,0,0-6.88,6.88v17.84a6.89,6.89,0,0,0,6.88,6.88H388.15v-4H277.89a2,2,0,0,1-2-2v-19.6a2,2,0,0,1,2-2H388.15v-4Z"/><rect width="103.19" height="19.6" x="277.89" y="531.94" fill="#cbd1d7"/><path fill="#0a1a33" d="M381.08,553.54H277.89a2,2,0,0,1-2-2v-19.6a2,2,0,0,1,2-2H381.08a2,2,0,0,1,2,2v19.6A2,2,0,0,1,381.08,553.54Zm-101.19-4h99.19v-15.6H279.89Z"/><path fill="#ce95cf" d="M275.45,494.43H387.72v-8H276.34a8.89,8.89,0,0,0-8.89,8.88v17.84a8.89,8.89,0,0,0,8.89,8.88H387.72v-8H275.45Z"/><path fill="#0a1a33" d="M387.72,524H276.34a10.9,10.9,0,0,1-10.89-10.88V495.31a10.9,10.9,0,0,1,10.89-10.88H387.72a2,2,0,0,1,2,2v8a2,2,0,0,1-2,2H277.45V512H387.72a2,2,0,0,1,2,2v8A2,2,0,0,1,387.72,524Zm-111.38-35.6a6.89,6.89,0,0,0-6.89,6.88v17.84a6.89,6.89,0,0,0,6.89,6.88H385.72v-4H275.45a2,2,0,0,1-2-2v-19.6a2,2,0,0,1,2-2H385.72v-4Z"/><rect width="103.19" height="19.6" x="275.45" y="494.43" fill="#cbd1d7"/><path fill="#0a1a33" d="M378.64,516H275.45a2,2,0,0,1-2-2v-19.6a2,2,0,0,1,2-2H378.64a2,2,0,0,1,2,2V514A2,2,0,0,1,378.64,516Zm-101.19-4h99.19v-15.6H277.45Z"/><rect width="23.74" height="376.62" x="210.78" y="572.2" fill="#e0b9ac"/><path fill="#0a1a33" d="M234.52,950.82H210.78a2,2,0,0,1-2-2V572.2a2,2,0,0,1,2-2h23.74a2,2,0,0,1,2,2V948.82A2,2,0,0,1,234.52,950.82Zm-21.74-4h19.74V574.2H212.78Z"/><rect width="23.74" height="376.62" x="965.48" y="572.2" fill="#e0b9ac"/><path fill="#0a1a33" d="M989.22,950.82H965.48a2,2,0,0,1-2-2V572.2a2,2,0,0,1,2-2h23.74a2,2,0,0,1,2,2V948.82A2,2,0,0,1,989.22,950.82Zm-21.74-4h19.74V574.2H967.48Z"/><rect width="23.74" height="376.62" x="815.36" y="572.2" fill="#e0b9ac"/><path fill="#0a1a33" d="M839.1,950.82H815.36a2,2,0,0,1-2-2V572.2a2,2,0,0,1,2-2H839.1a2,2,0,0,1,2,2V948.82A2,2,0,0,1,839.1,950.82Zm-21.74-4H837.1V574.2H817.36Z"/><rect width="23.74" height="376.62" x="365" y="572.2" fill="#e0b9ac"/><path fill="#0a1a33" d="M388.74,950.82H365a2,2,0,0,1-2-2V572.2a2,2,0,0,1,2-2h23.74a2,2,0,0,1,2,2V948.82A2,2,0,0,1,388.74,950.82Zm-21.74-4h19.74V574.2H367Z"/><rect width="818.47" height="21.36" x="190.77" y="560.97" fill="#89add3"/><path fill="#0a1a33" d="M1009.23,584.83H190.77a2.5,2.5,0,0,1-2.5-2.5V561a2.5,2.5,0,0,1,2.5-2.5h818.46a2.5,2.5,0,0,1,2.5,2.5v21.36A2.5,2.5,0,0,1,1009.23,584.83Zm-816-5h813.46V563.47H193.27Z"/><rect width="45.89" height="102.86" x="516.16" y="453.37" fill="#8b9aa7"/><path fill="#0a1a33" d="M562.05,558.22H516.16a2,2,0,0,1-2-2V453.37a2,2,0,0,1,2-2h45.89a2,2,0,0,1,2,2V556.22A2,2,0,0,1,562.05,558.22Zm-43.89-4h41.89V455.37H518.16Z"/><rect width="269.01" height="18.99" x="408.56" y="541.98" fill="#8b9aa7"/><path fill="#0a1a33" d="M677.57,563h-269a2,2,0,0,1-2-2V542a2,2,0,0,1,2-2h269a2,2,0,0,1,2,2v19A2,2,0,0,1,677.57,563Zm-267-4h265V544h-265Z"/><rect width="212.43" height="282.68" x="434.71" y="282.71" fill="#8b9aa7" transform="rotate(90 540.925 424.055)"/><path fill="#0a1a33" d="M682.27,532.27H399.59a2,2,0,0,1-2-2V317.84a2,2,0,0,1,2-2H682.27a2,2,0,0,1,2,2V530.27A2,2,0,0,1,682.27,532.27Zm-280.68-4H680.27V319.84H401.59Z"/><path fill="#cfd5da" d="M548.86,517.61a6.33,6.33,0,1,1-6.33-6.33A6.34,6.34,0,0,1,548.86,517.61Z"/><path fill="#0a1a33" d="M542.53,525.94a8.33,8.33,0,1,1,8.33-8.33A8.34,8.34,0,0,1,542.53,525.94Zm0-12.66a4.33,4.33,0,1,0,4.33,4.33A4.33,4.33,0,0,0,542.53,513.28Z"/><rect width="262.68" height="177.23" x="409.59" y="327.84" fill="#a7e8e7"/><path fill="#0a1a33" d="M672.27,507.07H409.59a2,2,0,0,1-2-2V327.84a2,2,0,0,1,2-2H672.27a2,2,0,0,1,2,2V505.07A2,2,0,0,1,672.27,507.07Zm-260.68-4H670.27V329.84H411.59Z"/><rect width="161.41" height="109.19" x="420.82" y="343.94" fill="#fff" rx="4.62"/><path fill="#0a1a33" d="M577.61,454.62H425.43a6.12,6.12,0,0,1-6.11-6.11v-100a6.12,6.12,0,0,1,6.11-6.11H577.61a6.12,6.12,0,0,1,6.12,6.11v100A6.12,6.12,0,0,1,577.61,454.62ZM425.43,345.44a3.12,3.12,0,0,0-3.11,3.11v100a3.11,3.11,0,0,0,3.11,3.11H577.61a3.12,3.12,0,0,0,3.12-3.11v-100a3.12,3.12,0,0,0-3.12-3.11Z"/><path fill="#8b9aa7" d="M425.43,343.94H577.61a4.62,4.62,0,0,1,4.62,4.62V356a0,0,0,0,1,0,0H420.82a0,0,0,0,1,0,0v-7.49A4.62,4.62,0,0,1,425.43,343.94Z"/><path fill="#0a1a33" d="M582.23,357.54H420.82a1.5,1.5,0,0,1-1.5-1.5v-7.49a6.12,6.12,0,0,1,6.11-6.11H577.61a6.12,6.12,0,0,1,6.12,6.11V356A1.5,1.5,0,0,1,582.23,357.54Zm-159.91-3H580.73v-6a3.12,3.12,0,0,0-3.12-3.11H425.43a3.12,3.12,0,0,0-3.11,3.11Z"/><path fill="#ff878b" d="M433.88,350.35a2.64,2.64,0,1,1-2.63-2.64A2.64,2.64,0,0,1,433.88,350.35Z"/><path fill="#0a1a33" d="M431.25,354a3.64,3.64,0,1,1,3.63-3.64A3.64,3.64,0,0,1,431.25,354Zm0-5.28a1.64,1.64,0,1,0,1.63,1.64A1.64,1.64,0,0,0,431.25,348.71Z"/><circle cx="440.22" cy="350.35" r="2.64" fill="#fef0b6"/><path fill="#0a1a33" d="M440.22,354a3.64,3.64,0,1,1,3.64-3.64A3.64,3.64,0,0,1,440.22,354Zm0-5.28a1.64,1.64,0,1,0,1.64,1.64A1.64,1.64,0,0,0,440.22,348.71Z"/><circle cx="449.2" cy="350.35" r="2.64" fill="#c2e199"/><path fill="#0a1a33" d="M449.2,354a3.64,3.64,0,1,1,3.64-3.64A3.64,3.64,0,0,1,449.2,354Zm0-5.28a1.64,1.64,0,1,0,1.64,1.64A1.65,1.65,0,0,0,449.2,348.71Z"/><rect width="141.63" height="44.7" x="429.92" y="362.53" fill="#c4c8ce"/><rect width="43.28" height="30.07" x="430.31" y="411.32" fill="#c4c8ce"/><rect width="42.39" height="30.07" x="529.16" y="411.32" fill="#c4c8ce"/><rect width="45.78" height="30.07" x="478.64" y="411.32" fill="#c4c8ce"/><rect width="101.36" height="109.19" x="559.68" y="384.29" fill="#fff" rx="4.62"/><path fill="#0a1a33" d="M656.42,495H564.29a6.12,6.12,0,0,1-6.11-6.12V388.91a6.12,6.12,0,0,1,6.11-6.12h92.13a6.12,6.12,0,0,1,6.11,6.12v99.95A6.12,6.12,0,0,1,656.42,495ZM564.29,385.79a3.12,3.12,0,0,0-3.11,3.12v99.95a3.12,3.12,0,0,0,3.11,3.12h92.13a3.12,3.12,0,0,0,3.11-3.12V388.91a3.12,3.12,0,0,0-3.11-3.12Z"/><path fill="#8b9aa7" d="M564.29,384.29h92.13a4.62,4.62,0,0,1,4.62,4.62v7.49a0,0,0,0,1,0,0H559.68a0,0,0,0,1,0,0v-7.49A4.62,4.62,0,0,1,564.29,384.29Z"/><path fill="#0a1a33" d="M661,397.9H559.68a1.5,1.5,0,0,1-1.5-1.5v-7.49a6.12,6.12,0,0,1,6.11-6.12h92.13a6.12,6.12,0,0,1,6.11,6.12v7.49A1.5,1.5,0,0,1,661,397.9Zm-99.85-3h98.35v-6a3.12,3.12,0,0,0-3.11-3.12H564.29a3.12,3.12,0,0,0-3.11,3.12Z"/><path fill="#ff878b" d="M572.74,390.7a2.64,2.64,0,1,1-2.64-2.63A2.64,2.64,0,0,1,572.74,390.7Z"/><path fill="#0a1a33" d="M570.1,394.34a3.64,3.64,0,1,1,3.64-3.64A3.64,3.64,0,0,1,570.1,394.34Zm0-5.27a1.64,1.64,0,1,0,1.64,1.63A1.63,1.63,0,0,0,570.1,389.07Z"/><path fill="#fef0b6" d="M581.72,390.7a2.64,2.64,0,1,1-2.64-2.63A2.64,2.64,0,0,1,581.72,390.7Z"/><path fill="#0a1a33" d="M579.08,394.34a3.64,3.64,0,1,1,3.64-3.64A3.65,3.65,0,0,1,579.08,394.34Zm0-5.27a1.64,1.64,0,1,0,1.64,1.63A1.64,1.64,0,0,0,579.08,389.07Z"/><path fill="#c2e199" d="M590.69,390.7a2.64,2.64,0,1,1-2.63-2.63A2.64,2.64,0,0,1,590.69,390.7Z"/><path fill="#0a1a33" d="M588.06,394.34a3.64,3.64,0,1,1,3.63-3.64A3.64,3.64,0,0,1,588.06,394.34Zm0-5.27a1.64,1.64,0,1,0,1.63,1.63A1.63,1.63,0,0,0,588.06,389.07Z"/><rect width="81.58" height="44.7" x="568.77" y="402.88" fill="#c4c8ce"/><rect width="37.68" height="30.07" x="569.17" y="451.67" fill="#c4c8ce"/><rect width="39.56" height="30.07" x="610.79" y="451.67" fill="#c4c8ce"/><path fill="#ff777c" d="M228.51,547.11a3,3,0,0,1-3-2.79l-6.23-89.67a3,3,0,0,1,6-.42l6.23,89.67a3,3,0,0,1-2.79,3.2Z"/><path fill="#7fadda" d="M234.88,545.2h-.2a3,3,0,0,1-2.79-3.19l6-89.68a3,3,0,1,1,6,.39l-6,89.69A3,3,0,0,1,234.88,545.2Z"/><path fill="#badd8c" d="M248.79,546.16h-.2a3,3,0,0,1-2.8-3.19l6-89.69a3,3,0,0,1,6,.4l-6,89.69A3,3,0,0,1,248.79,546.16Z"/><polygon fill="#e0b9ac" points="258.64 558.97 221.41 558.97 219.41 497.53 260.64 497.53 258.64 558.97"/><path fill="#0a1a33" d="M258.64,561H221.41a2,2,0,0,1-2-1.93l-2-61.44a2,2,0,0,1,2-2.07h41.23a2,2,0,0,1,2,2.07l-2,61.44A2,2,0,0,1,258.64,561Zm-35.3-4h33.37l1.87-57.44H221.47Z"/><circle cx="474.53" cy="947.53" r="23.74" fill="#254059" transform="rotate(-45 474.531 947.533)"/><path fill="#0a1a33" d="M474.53,973.27a25.74,25.74,0,1,1,25.73-25.74A25.77,25.77,0,0,1,474.53,973.27Zm0-47.47a21.74,21.74,0,1,0,21.73,21.73A21.76,21.76,0,0,0,474.53,925.8Z"/><rect width="22.55" height="155.47" x="463.45" y="757.25" fill="#d6e2f0" transform="rotate(180 474.725 834.985)"/><path fill="#0a1a33" d="M486,914.72H463.45a2,2,0,0,1-2-2V757.25a2,2,0,0,1,2-2H486a2,2,0,0,1,2,2V912.72A2,2,0,0,1,486,914.72Zm-20.55-4H484V759.25H465.45Z"/><path fill="#8b9aa7" d="M365.71,735.09H645a12,12,0,0,1,12,12v31.47a0,0,0,0,1,0,0H365.71a12,12,0,0,1-12-12V747.14A12,12,0,0,1,365.71,735.09Z" transform="rotate(180 505.365 756.85)"/><path fill="#0a1a33" d="M645,780.61H365.71a14.06,14.06,0,0,1-14-14V735.09a2,2,0,0,1,2-2H645a14.06,14.06,0,0,1,14,14v19.44A14.06,14.06,0,0,1,645,780.61ZM355.67,737.09v29.48a10.05,10.05,0,0,0,10,10H645a10.06,10.06,0,0,0,10-10V747.13a10.06,10.06,0,0,0-10-10Z"/><path fill="#8b9aa7" d="M353.67,497.33H516.86a0,0,0,0,1,0,0v215a22.75,22.75,0,0,1-22.75,22.75H376.42a22.75,22.75,0,0,1-22.75-22.75v-215A0,0,0,0,1,353.67,497.33Z" transform="rotate(180 435.26 616.215)"/><path fill="#0a1a33" d="M516.86,737.09H353.67a2,2,0,0,1-2-2v-215a24.78,24.78,0,0,1,24.75-24.75H494.11a24.79,24.79,0,0,1,24.75,24.75v215A2,2,0,0,1,516.86,737.09Zm-161.19-4H514.86v-213a20.78,20.78,0,0,0-20.75-20.75H376.42a20.78,20.78,0,0,0-20.75,20.75Z"/><rect width="54.59" height="34.42" x="447.43" y="893.73" fill="#465d72" transform="rotate(180 474.725 910.94)"/><path fill="#0a1a33" d="M502,930.15H447.43a2,2,0,0,1-2-2V893.73a2,2,0,0,1,2-2H502a2,2,0,0,1,2,2v34.42A2,2,0,0,1,502,930.15Zm-52.59-4H500V895.73H449.43Z"/><polygon fill="#d6e2f0" points="502.24 927.99 591.25 963.59 591.25 943.41 502.24 905.44 502.24 927.99"/><path fill="#0a1a33" d="M591.25,965.59a2.11,2.11,0,0,1-.74-.14l-89-35.61a2,2,0,0,1-1.26-1.85V905.44A2,2,0,0,1,503,903.6l89,38a2,2,0,0,1,1.21,1.84v20.18a2,2,0,0,1-2,2Zm-87-39,85,34v-15.9l-85-36.28Z"/><circle cx="582.63" cy="963.82" r="23.74" fill="#254059"/><path fill="#0a1a33" d="M582.63,989.56a25.74,25.74,0,1,1,25.74-25.74A25.76,25.76,0,0,1,582.63,989.56Zm0-47.48a21.74,21.74,0,1,0,21.74,21.74A21.76,21.76,0,0,0,582.63,942.08Z"/><polygon fill="#d6e2f0" points="447.24 927.99 358.23 963.59 358.23 943.41 447.24 905.44 447.24 927.99"/><path fill="#0a1a33" d="M358.23,965.59a2,2,0,0,1-2-2V943.41a2,2,0,0,1,1.21-1.84l89-38a2,2,0,0,1,2.79,1.84V928a2,2,0,0,1-1.26,1.85l-89,35.61A2.11,2.11,0,0,1,358.23,965.59Zm2-20.85v15.9l85-34V908.46Zm87-16.75h0Z"/><circle cx="366.85" cy="963.82" r="23.74" fill="#254059"/><path fill="#0a1a33" d="M366.85,989.56a25.74,25.74,0,1,1,25.74-25.74A25.77,25.77,0,0,1,366.85,989.56Zm0-47.48a21.74,21.74,0,1,0,21.74,21.74A21.77,21.77,0,0,0,366.85,942.08Z"/><rect width="184.88" height="101.7" x="520.75" y="136.59" fill="#fff"/><circle cx="570.73" cy="184.12" r="26.96" fill="#4ec48f"/><circle cx="595.83" cy="184.12" r="26.96" fill="#fee276"/><circle cx="625.58" cy="184.12" r="26.96" fill="#ff4950"/><circle cx="657.2" cy="184.12" r="26.96" fill="#254059"/><rect width="78.52" height="101.7" x="342.82" y="136.59" fill="#fff"/><rect width="59.67" height="47.11" x="352.24" y="147.58" fill="#ff4950"/><rect width="78.52" height="101.7" x="254.71" y="136.59" fill="#fff"/><rect width="59.67" height="47.11" x="264.13" y="147.58" fill="#fee276"/><rect width="78.52" height="101.7" x="430.15" y="136.59" fill="#fff"/><rect width="59.67" height="47.11" x="439.58" y="147.58" fill="#254059"/><g data-name="Graphic Designer"><path fill="#c9876d" d="M617.31,776.33l-5.54,19s-94.95,21.37-76,28.49S639.46,843.59,645,841.21c9.48-4.06,1.58-39.56,1.58-39.56l7.91-22.94Z"/><path fill="#0a1a33" d="M642,843.91c-18.58,0-90.69-11.61-107.1-17.76-3.59-1.35-4.22-3.4-4.12-4.88.17-2.49.49-7.14,41.28-18.52,16.34-4.56,32.82-8.42,37.69-9.54l5.13-17.58a2.48,2.48,0,0,1,2.56-1.79l37.18,2.37a2.51,2.51,0,0,1,2.21,3.31l-7.69,22.28c1.65,7.61,7.3,37.22-3.19,41.71A12.14,12.14,0,0,1,642,843.91ZM536.2,821.26l.49.21c19.8,7.42,101.16,19,107.38,17.42,4.61-2.13,3.64-20.66.07-36.69a2.51,2.51,0,0,1,.08-1.36L651.06,781l-31.91-2-5,17.06a2.51,2.51,0,0,1-1.85,1.74C578.76,805.31,541.27,816.17,536.2,821.26Zm75.57-25.94h0Z"/><path fill="#0a1a33" d="M579.86,814.44a2.5,2.5,0,0,1-2.23-1.38l-6.23-12.45a2.5,2.5,0,0,1,4.48-2.23l6.22,12.44a2.51,2.51,0,0,1-2.24,3.62Z"/><path fill="#0a1a33" d="M590.39,810.61a2.51,2.51,0,0,1-2.3-1.52l-5.74-13.4a2.5,2.5,0,1,1,4.59-2l5.75,13.39a2.52,2.52,0,0,1-1.32,3.29A2.6,2.6,0,0,1,590.39,810.61Z"/><path fill="#0a1a33" d="M601.4,807.74a2.51,2.51,0,0,1-2.29-1.48l-6.22-13.88a2.5,2.5,0,0,1,4.57-2l6.22,13.88a2.5,2.5,0,0,1-1.26,3.3A2.47,2.47,0,0,1,601.4,807.74Z"/><path fill="#c9876d" d="M823,803.23s19.78,39.57,19.78,41.94-79.91,66.46-85.45,59.34,37.19-82.29,37.19-82.29l-3.17-17.4Z"/><path fill="#0a1a33" d="M758.83,907.56a4.13,4.13,0,0,1-3.45-1.52c-1.55-2-4.44-5.7,16.26-46.48,8.75-17.24,18.14-34,20.28-37.78l-3-16.52a2.49,2.49,0,0,1,2.34-2.94l31.65-1.58a2.5,2.5,0,0,1,2.36,1.38c13.3,26.6,20,41.08,20,43,0,1.32,0,2-11.09,11.22-6.72,5.6-15.4,12.5-23.82,18.92-13.39,10.22-37.42,27.91-48,31.52A11.17,11.17,0,0,1,758.83,907.56Zm.59-4.43Zm34.92-96L797,821.78a2.53,2.53,0,0,1-.29,1.68c-.1.18-10.34,18.21-20,37.18-15.91,31.21-17.44,39.69-17.37,41.89,2.2-.36,11-3.47,42.17-26.76,19.1-14.3,35.13-27.68,38.55-31.14-1.85-4.92-11.79-25.29-18.54-38.82Z"/><path fill="#0a1a33" d="M783.71,860.86a2.78,2.78,0,0,1-.79-.13L770,856.42a2.5,2.5,0,1,1,1.59-4.74l12.92,4.3a2.5,2.5,0,0,1-.8,4.88Z"/><path fill="#0a1a33" d="M789.46,847a2.45,2.45,0,0,1-.71-.11L775.83,843a2.5,2.5,0,1,1,1.42-4.79l12.92,3.83a2.5,2.5,0,0,1-.71,4.9Z"/><path fill="#0a1a33" d="M798.07,835.49a2.5,2.5,0,0,1-.66-.09l-15.79-4.3a2.5,2.5,0,0,1,1.32-4.83l15.79,4.31a2.5,2.5,0,0,1-.66,4.91Z"/><path fill="#ffa18d" d="M590.28,345.82c7.45,1.92,17.85,7.16,24.94,1.55l34.09,10.23,5.93-19.73L622.73,329c-3.16-12-15.63-25.73-23.46-33-2.73-3.51-7,.1-4.73,3.88l7.4,14-32.18-12.32c-2.46-1.2-5.77,1.24-4.13,3.9.14,1.75,22.92,13,22.92,13l-23.66-6.13s-2.82-1.09-4.16-.42c-3.05,1.17-1.46,4.86,1.21,5.7l24,9.27s-15.31-1.29-22.76-2.85A3.82,3.82,0,0,0,560,324c-2.86,1.3-1.45,5.19,1.28,5.55l21.86,6.52s-13.14.06-19.33-.91c-3.54-.7-5.36,4.24-1.76,5.63Z"/><path fill="#0a1a33" d="M649.31,360.11a2.57,2.57,0,0,1-.72-.11l-32.92-9.88c-6.58,4.26-14.82,1.62-21.51-.53-1.57-.5-3.06-1-4.42-1.33l-28.1-5a1.93,1.93,0,0,1-.47-.13,5.25,5.25,0,0,1-3.33-6.49,5.56,5.56,0,0,1,5-4l-2.06-.61a5.93,5.93,0,0,1-4.74-4.9,5,5,0,0,1,2.91-5.34,6.23,6.23,0,0,1,5-.22c.85.17,1.79.34,2.81.51l-5.61-2.17a6.54,6.54,0,0,1-4.54-5.72,4.73,4.73,0,0,1,3.16-4.62c2-.92,4.7-.13,5.92.33l2.71.7c-3.94-2.4-4.87-3.5-5.12-4.31a5,5,0,0,1,.78-5.64,5.92,5.92,0,0,1,6.72-1.41l25.87,9.91-4.25-8a6,6,0,0,1,1.45-8.12,5.32,5.32,0,0,1,7.3,1.3c4.7,4.4,19.26,18.81,23.63,32.68l31.15,8.46a2.5,2.5,0,0,1,1.74,3.13l-5.93,19.73A2.5,2.5,0,0,1,649.31,360.11Zm-34.09-15.24a2.57,2.57,0,0,1,.72.11l31.69,9.51,4.47-14.88-30-8.15a2.51,2.51,0,0,1-1.76-1.78c-2.76-10.42-13.56-23.27-22.75-31.82a2.44,2.44,0,0,1-.27-.29c-.08-.1-.45-.57-.65-.43s-.44.7,0,1.48a.75.75,0,0,1,.07.12l7.41,14a2.51,2.51,0,0,1-3.11,3.51l-32.17-12.32-.2-.08a.84.84,0,0,0-.61,0,.82.82,0,0,0-.36.25l.06.1.07.12c1.82,1.62,12.57,7.35,21.82,11.91a2.5,2.5,0,0,1-1.73,4.66l-23.66-6.13a1.43,1.43,0,0,1-.27-.09,6.75,6.75,0,0,0-2.24-.46l-.12,0h0a1.88,1.88,0,0,0,1.08,1l.15.05,24,9.28a2.5,2.5,0,0,1-1.11,4.83c-.63-.06-15.55-1.33-23.06-2.9a2.91,2.91,0,0,1-.39-.12,1.52,1.52,0,0,0-1.11-.08l-.15.08-.14.08h0s.06.18.2.38a.86.86,0,0,0,.52.34,1.72,1.72,0,0,1,.38.08l21.86,6.51a2.5,2.5,0,0,1-.7,4.9c-.55,0-13.41.05-19.73-.94-.58-.11-.75.2-.81.39s-.07.24.16.36l27.91,4.93.19,0c1.52.39,3.11.89,4.78,1.43,6.25,2,13.32,4.27,18,.58A2.5,2.5,0,0,1,615.22,344.87ZM561.7,314.16Zm.15-.06h0Z"/><path fill="#fef0b9" d="M792.65,258.88l-58.24,80.31L631.1,326.75l-5.76,26.88s110.34,46.09,122.21,36.59,81.8-70,85.36-76S849.53,290.53,840,268,806.89,251.76,792.65,258.88Z"/><path fill="#0a1a33" d="M742.1,394c-7.68,0-24.05-3.07-60.94-16.19-28.8-10.23-56.51-21.78-56.79-21.9a2.5,2.5,0,0,1-1.48-2.83l5.76-26.89a2.51,2.51,0,0,1,2.75-2l101.85,12.26,57.38-79.11a2.39,2.39,0,0,1,.9-.77c7.86-3.93,22.93-9.83,35.6-5.14,6.82,2.52,11.94,7.74,15.21,15.5,9.28,22.06-1.68,39.58-6.36,47.06-.35.55-.66,1.05-.92,1.48-4,6.7-75.23,68.06-85.95,76.63C748.23,392.88,746.79,394,742.1,394ZM628.22,352.12c6.75,2.78,30.3,12.37,54.63,21,52.71,18.74,61.65,16.32,63.14,15.13,13.3-10.63,81.59-70,84.78-75.29.27-.45.6-1,1-1.57,4.27-6.82,14.27-22.79,6-42.46-2.71-6.44-6.86-10.73-12.34-12.75-10.62-3.93-23.81,1.09-31.08,4.65l-57.88,79.81a2.5,2.5,0,0,1-2.32,1l-101-12.17Z"/><path fill="#2a77c2" d="M806.52,502.7S692.58,526.44,675.18,547s-66.47,234.2-66.47,234.2l49.06,9.49,73.47-201.09L839.75,556.5,759,634l26.9,182,44.31-7.91-17.4-150.33s136.08-79.12,140.83-104.44-3.16-76-3.16-76H812.85Z"/><path fill="#0a1a33" d="M785.94,818.52a2.49,2.49,0,0,1-1.46-.47,2.53,2.53,0,0,1-1-1.66l-26.9-182a2.51,2.51,0,0,1,.74-2.17L830.47,562l-97.31,29.69-73,199.92a2.52,2.52,0,0,1-2.83,1.6l-49-9.5a2.5,2.5,0,0,1-2-3c2-8.75,49.39-214.46,67-235.26,16.84-19.9,116.94-41.78,131.2-44.81l5.95-23.8a2.5,2.5,0,0,1,2.43-1.9H950.52A2.5,2.5,0,0,1,953,477c.32,2.08,7.92,51.35,3.15,76.8-2.13,11.35-26.1,32.06-73.28,63.34-30.32,20.1-60.54,38-67.34,42l17.22,148.71a2.51,2.51,0,0,1-2,2.75l-44.31,7.91A2.12,2.12,0,0,1,785.94,818.52ZM761.71,635,788,813.11l39.46-7.05-17.14-148a2.51,2.51,0,0,1,1.23-2.45c37.58-21.85,135.91-82.9,139.63-102.74,4.07-21.71-1.45-63.19-2.86-73H814.8l-5.86,23.43a2.51,2.51,0,0,1-1.91,1.84c-1.13.23-113.29,23.79-129.95,43.47-4.79,5.67-15.49,31.75-39.24,123.82-12.51,48.48-23.5,95.56-26.11,106.8l44.42,8.6,72.74-199.09a2.49,2.49,0,0,1,1.62-1.53L839,554.11a2.5,2.5,0,0,1,2.46,4.2ZM806.52,502.7h0Z"/><path fill="#fef0b9" d="M800.19,488.46H966.34s2.5-194.18-21.76-224.82c-24.53-31-132.92-28.49-151.12-5C766.07,293.92,800.19,488.46,800.19,488.46Z"/><path fill="#0a1a33" d="M966.34,491H800.19a2.5,2.5,0,0,1-2.47-2.07c-1.4-8-34-196-6.24-231.81,5.72-7.37,18.3-11.7,27.85-14,12.44-3.05,28-4.77,43.88-4.85,31-.16,69.2,6,83.33,23.89,24.53,31,22.4,218.44,22.3,226.4A2.5,2.5,0,0,1,966.34,491Zm-164-5H963.86c.18-22.64.74-193-21.24-220.77-10.61-13.4-41.22-22-78.19-22h-1.2c-32.3.17-60.18,7.13-67.79,16.95C770.52,292.27,798.75,465,802.3,486Z"/><path fill="#ffa18d" d="M829.07,211.4l2.74,32.3a25.66,25.66,0,0,0,25.56,23.48h0a25.66,25.66,0,0,0,25.5-28.49l-4-35.6Z"/><path fill="#0a1a33" d="M857.37,269.68a28,28,0,0,1-28-25.77l-2.75-32.3a2.51,2.51,0,0,1,2.08-2.68l49.85-8.31a2.52,2.52,0,0,1,2.9,2.19l4,35.61a28.15,28.15,0,0,1-28,31.26Zm-25.62-56.2,2.56,30A23.15,23.15,0,1,0,880.38,239l-3.66-33Z"/><path fill="#ffa18d" d="M851.07,234.69h0A45.5,45.5,0,0,1,797.9,198.8l-8.56-44.12a45.5,45.5,0,0,1,35.89-53.17h0A45.5,45.5,0,0,1,878.4,137.4L887,181.52A45.5,45.5,0,0,1,851.07,234.69Z"/><path fill="#0a1a33" d="M842.41,238a47.93,47.93,0,0,1-47-38.75l-8.56-44.13a47.86,47.86,0,0,1,94-18.23l8.56,44.13a47.92,47.92,0,0,1-37.86,56.1h0A48.43,48.43,0,0,1,842.41,238Zm8.66-3.34h0ZM833.88,103.18a43.55,43.55,0,0,0-8.17.78A42.91,42.91,0,0,0,791.8,154.2l8.55,44.12A42.86,42.86,0,0,0,884.51,182L876,137.88a43.05,43.05,0,0,0-42.07-34.7Z"/><path fill="#ff7b80" d="M811.35,192.5a5.55,5.55,0,1,1-6.5-4.39A5.55,5.55,0,0,1,811.35,192.5Z"/><path fill="#ff7b80" d="M865.49,181a6.51,6.51,0,1,1-7.63-5.15A6.52,6.52,0,0,1,865.49,181Z"/><path fill="#ff7b80" d="M820,192l.26-10.63s8.12-1.52,11.18,2.54,4.65,7.95,1.14,10.13-4.53,2-8.84,1S820,192,820,192Z"/><path fill="#ff5e64" d="M882.86,160.28a51.89,51.89,0,0,1-26.62-36.82c-10.47.22-23.14,2.15-37.6,4.7-13.49,2.39-27.71,8.84-27.71,8.84s-3.32,11.89,1.09,27.92c0,0-22.64-26.1,3.1-51,22.83-19.51,65.86-23,79.67-5.37S882.86,160.28,882.86,160.28Z"/><path fill="#0a1a33" d="M792,167.42a2.48,2.48,0,0,1-1.89-.87,45.4,45.4,0,0,1-8.64-17.18c-2.39-9.43-2.27-23.56,11.89-37.26l.11-.1c14.3-12.21,37.24-19.08,57.1-17.09,11.87,1.19,20.92,5.37,26.17,12.08,6.06,7.75,9.34,19.18,9.74,34a111.6,111.6,0,0,1-1.18,19.73,2.49,2.49,0,0,1-3.64,1.79A54.32,54.32,0,0,1,854.2,126c-10.4.43-23,2.45-35.12,4.59-10.89,1.93-22.41,6.63-26,8.16a57.18,57.18,0,0,0,1.34,25.47,2.51,2.51,0,0,1-2.41,3.17ZM856.24,121a2.5,2.5,0,0,1,2.47,2.07,49.32,49.32,0,0,0,22.15,33.18c1-9.06,2.36-32.84-8-46.13-4.32-5.53-12.4-9.15-22.73-10.18-18.55-1.87-40,4.51-53.29,15.86-13.56,13.17-12.77,26.57-9.49,35.77a50.83,50.83,0,0,1,1.21-15.2,2.52,2.52,0,0,1,1.38-1.61c.59-.27,14.66-6.61,28.31-9,13.16-2.33,26.87-4.51,38-4.74Z"/><path fill="#0a1a33" d="M827.72,197.69h-.45c-5.11-.23-8.7-4.53-8.85-4.72a1.45,1.45,0,0,1-.34-1l.55-25.54a1.5,1.5,0,0,1,1.5-1.47h0a1.5,1.5,0,0,1,1.47,1.53l-.54,24.94c.88.91,3.33,3.12,6.34,3.25,2.1.08,4.14-.86,6.09-2.83a1.5,1.5,0,0,1,2.13,2.11A11.1,11.1,0,0,1,827.72,197.69Z"/><path fill="#0a1a33" d="M809.69,175a3.75,3.75,0,1,1-4.39-3A3.74,3.74,0,0,1,809.69,175Z"/><path fill="#0a1a33" d="M842.36,168.18a3.75,3.75,0,1,1-4.39-3A3.75,3.75,0,0,1,842.36,168.18Z"/><path fill="#ffa18d" d="M874.79,158.57s2.12-10.42,14.94-11.77,20.4,31.87-6.56,36.54"/><path fill="#0a1a33" d="M903.63,159.63c-1.32-9.44-7.39-16-14.16-15.32-11.59,1.22-16.27,9.54-17.13,13.76a2.5,2.5,0,0,0,4.9,1c.07-.35,2-8.67,12.75-9.8,4-.42,7.77,4.44,8.69,11,1.78,12.83-7.48,19.09-15.94,20.55a2.5,2.5,0,0,0,.42,5,3.13,3.13,0,0,0,.43,0C899.56,183,905.16,170.67,903.63,159.63Z"/><path fill="#0a1a33" d="M895,159.13a1.5,1.5,0,1,0-1.65-2.5c-.37.24-9,6-12.24,13.75a1.5,1.5,0,1,0,2.76,1.16,21.21,21.21,0,0,1,2.88-4.75l4.87,4a1.5,1.5,0,0,0,.95.34,1.5,1.5,0,0,0,.94-2.67l-4.8-3.89A42.16,42.16,0,0,1,895,159.13Z"/><path fill="#ffb4b7" d="M825.72,188.42a2,2,0,1,1-2.29-1.55A2,2,0,0,1,825.72,188.42Z"/><path fill="#ff5e64" d="M857.39,122.21s-31.55,13.7-51.06,13.7-63.1-19.51-63.1-19.51,31.13-4.15,50.23-17.43,58.95-16.19,68.91-12,8.68,17.87,8.68,17.87"/><path fill="#0a1a33" d="M806.33,138.41c-19.82,0-62.33-18.92-64.13-19.73a2.5,2.5,0,0,1,.69-4.76c.31,0,30.77-4.23,49.14-17,19.9-13.84,60.55-16.77,71.3-12.29,11.53,4.8,10.27,19.77,10.21,20.41a2.5,2.5,0,0,1-5-.47c0-.11,1-11.94-7.15-15.33-8.68-3.61-47.89-1.17-66.52,11.79-13.39,9.31-32.18,14.2-42.93,16.39,13.3,5.51,40.47,16,54.37,16,18.77,0,49.75-13.35,50.07-13.49a2.5,2.5,0,0,1,2,4.59C857.08,125.07,826.13,138.41,806.33,138.41Z"/><path fill="#0a1a33" d="M797.61,164.57a2.5,2.5,0,0,1-.39-5L813,157.11a2.5,2.5,0,0,1,.77,4.94L798,164.54A2.56,2.56,0,0,1,797.61,164.57Z"/><path fill="#0a1a33" d="M829.16,157.51a2.5,2.5,0,0,1-.45-5L847,149.23a2.5,2.5,0,1,1,.89,4.92l-18.26,3.32A2.28,2.28,0,0,1,829.16,157.51Z"/><path fill="#ff656a" d="M822.64,206.87A31.93,31.93,0,0,0,845,192.71s9.12,15,2.06,19.59S822.64,206.87,822.64,206.87Z"/><path fill="#0a1a33" d="M846.23,191.93a1.51,1.51,0,0,0-1.25-.73,1.54,1.54,0,0,0-1.28.68,30.69,30.69,0,0,1-21.18,13.49,1.51,1.51,0,0,0-.63,2.8,71.86,71.86,0,0,0,9.77,4.53A31.26,31.26,0,0,0,842.18,215a10.21,10.21,0,0,0,5.65-1.43C856,208.26,846.63,192.59,846.23,191.93ZM827.1,207.51a33.55,33.55,0,0,0,17.7-12c.36.71.74,1.51,1.11,2.34-8.5,3.53-9.82,10.13-10,13.12A59.33,59.33,0,0,1,827.1,207.51ZM846.2,211c-1.74,1.13-4.38,1.16-7.28.63-.06-1.69.29-7.77,8.09-11C848.44,204.77,849,209.22,846.2,211Z"/><path fill="#fef0b9" d="M918.76,266.8c-10.29,16.35-21.84,81.57-29.57,119.9a23.94,23.94,0,0,0,17.77,28h0a23.93,23.93,0,0,0,28.86-17.14c5.43-20.58,12.94-48.88,15.38-57.15,3.95-13.45,8.7-45.1.79-65.67S923.24,259.68,918.76,266.8Z"/><path fill="#0a1a33" d="M912.6,417.86a26.43,26.43,0,0,1-25.86-31.66c1.14-5.65,2.36-11.88,3.65-18.46,7.68-39.18,17.24-87.94,26.25-102.28,3.16-5,11.21-8.25,18.74-7.51,5,.49,14.07,3.19,18.94,15.86,7.87,20.46,3.73,52.12-.72,67.27-2.4,8.16-9.68,35.55-15.36,57.09A26.62,26.62,0,0,1,912.6,417.86Zm8.27-149.73C912.35,281.67,902.5,332,895.3,368.7c-1.29,6.59-2.51,12.83-3.65,18.49a21.44,21.44,0,0,0,41.75,9.71c5.69-21.58,13-49,15.4-57.23,8.05-27.36,4.8-53.82.85-64.07-3.71-9.64-10.07-12.21-14.76-12.67-6-.59-12.14,2.21-14,5.2Zm-2.11-1.33h0Z"/><path fill="#ce95cf" d="M769.15,306a3.32,3.32,0,0,0,1.19-.21l22.84-8.32a3.51,3.51,0,0,0,2.3-3.29v-16a3.5,3.5,0,0,0-3.5-3.5H769.15a3.5,3.5,0,0,0,0,7h19.33v10.08L768,299.24a3.5,3.5,0,0,0,1.2,6.78Z"/><path fill="#0a1a33" d="M769.15,308a5.5,5.5,0,0,1-1.89-10.67l19.22-7v-6.68H769.15a5.5,5.5,0,0,1,0-11H792a5.51,5.51,0,0,1,5.5,5.5v16a5.52,5.52,0,0,1-3.62,5.17L771,307.69A5.53,5.53,0,0,1,769.15,308Zm0-31.36a1.5,1.5,0,0,0,0,3h19.33a2,2,0,0,1,2,2v10.08a2,2,0,0,1-1.32,1.88l-20.53,7.49a1.49,1.49,0,0,0-.89,1.92,1.51,1.51,0,0,0,1.92.89l22.83-8.32a1.51,1.51,0,0,0,1-1.41v-16a1.5,1.5,0,0,0-1.5-1.5Z"/><path fill="#ce95cf" d="M749.32,272.18H758a17.69,17.69,0,0,1,17.69,17.69v26.35a0,0,0,0,1,0,0h-44a0,0,0,0,1,0,0V289.87A17.69,17.69,0,0,1,749.32,272.18Z" transform="rotate(-180 753.655 294.2)"/><path fill="#0a1a33" d="M758,318.22h-8.66a19.71,19.71,0,0,1-19.69-19.69V272.18a2,2,0,0,1,2-2h44a2,2,0,0,1,2,2v26.35A19.71,19.71,0,0,1,758,318.22Zm-24.35-44v24.35a15.71,15.71,0,0,0,15.69,15.69H758a15.7,15.7,0,0,0,15.69-15.69V274.18Z"/><path fill="#ffa18d" d="M853.69,317.9l-22.93-17.8c-1.68-10-9.12-14.72-11.42-16.55-5.56-4.42-13.15-5.21-16.47.71L793,283.17a5.24,5.24,0,0,0-1-.05l-12.17-.58a4.21,4.21,0,0,0-4.42,4.2v.73a4.22,4.22,0,0,0,3.9,4.23l9.94.76-3.8-.13a4.23,4.23,0,0,0-.55,8.43l4.17.38a4.55,4.55,0,0,0,1.78.77,4.85,4.85,0,0,0,.73,8.29c-2.79,2.45-.37,7.43,3,9,2.15,1,12.94,1.32,17.29,1.25a16.64,16.64,0,0,0,5.14-1l21.8,19.7Z"/><path fill="#0a1a33" d="M838.83,341.13a2,2,0,0,1-1.34-.52l-20.94-18.93a17.28,17.28,0,0,1-4.62.74c-2.26,0-15.19-.07-18.16-1.43a9.68,9.68,0,0,1-5.3-7,6.08,6.08,0,0,1,.37-3.31,7.07,7.07,0,0,1-1.39-7.69l-2.7-.25a6.23,6.23,0,0,1-5.65-6.09,6.39,6.39,0,0,1,.67-2.92l-.58,0a6.26,6.26,0,0,1-5.75-6.24v-.73a6.24,6.24,0,0,1,6.53-6.19l12.09.58a7.14,7.14,0,0,1,1.22.07l8.58.95a9.77,9.77,0,0,1,6.14-3.9c4-.78,8.66.62,12.59,3.75l.71.55c2.85,2.15,9.41,7.12,11.29,16.45l22.33,17.33a2,2,0,0,1,.41,2.73l-14.86,21.22a2,2,0,0,1-1.41.84ZM817,317.43a2,2,0,0,1,1.34.51l20.12,18.18L851,318.31l-21.43-16.63a2,2,0,0,1-.74-1.25c-1.39-8.27-7.14-12.61-9.9-14.7-.3-.23-.57-.43-.79-.61-3-2.37-6.55-3.5-9.33-3a6,6,0,0,0-4.16,3.08,2,2,0,0,1-2,1l-9.87-1.09a3,3,0,0,0-.65,0H792l-12.17-.58a2.17,2.17,0,0,0-1.64.6,2.23,2.23,0,0,0-.7,1.61v.73a2.24,2.24,0,0,0,2,2.23l9.94.76a2,2,0,0,1-.22,4l-3.81-.13a2.22,2.22,0,0,0-.28,4.43l4.16.39a2,2,0,0,1,1,.35,2.64,2.64,0,0,0,1,.45,2,2,0,0,1,.7,3.64,2.61,2.61,0,0,0-1.08,2.48,2.72,2.72,0,0,0,1.51,2.29,2,2,0,0,1,.54,3.34,1.71,1.71,0,0,0-.51,1.71,5.72,5.72,0,0,0,3,3.94c1.43.66,10.61,1.17,16.43,1.07a14.43,14.43,0,0,0,4.51-.88A1.91,1.91,0,0,1,817,317.43Z"/><polyline fill="#fef0b9" points="895.52 407.99 818.67 326.93 838.45 303.19 914.8 359.37"/><path fill="#0a1a33" d="M895.52,410.49a2.48,2.48,0,0,1-1.81-.78l-76.86-81.06a2.5,2.5,0,0,1-.1-3.32l19.78-23.74a2.49,2.49,0,0,1,3.4-.41l76.35,56.17a2.5,2.5,0,1,1-3,4L838.86,306.6,822,326.82l75.33,79.45a2.5,2.5,0,0,1-.1,3.54A2.47,2.47,0,0,1,895.52,410.49Z"/></g></g></svg>