<svg width="1500" height="1500" viewBox="0 0 1500 1500" fill="none" xmlns="http://www.w3.org/2000/svg">
<g clip-path="url(#clip0_7_3955)">
<path d="M610.707 618.082H461.115C455.983 618.082 451.807 613.909 451.807 608.779C451.807 603.65 455.983 599.477 461.115 599.477H610.707C615.839 599.477 620.014 603.65 620.014 608.779C620.014 613.909 615.839 618.082 610.707 618.082Z" fill="#E6E7E8"/>
<path d="M727.449 649.567H461.115C455.983 649.567 451.807 645.394 451.807 640.265C451.807 635.136 455.983 630.962 461.115 630.962H727.449C732.581 630.962 736.757 635.136 736.757 640.265C736.757 645.394 732.581 649.567 727.449 649.567Z" fill="#E6E7E8"/>
<path d="M727.449 680.77H461.115C455.983 680.77 451.807 676.597 451.807 671.467C451.807 666.338 455.983 662.165 461.115 662.165H727.449C732.581 662.165 736.757 666.338 736.757 671.467C736.757 676.597 732.581 680.77 727.449 680.77Z" fill="#E6E7E8"/>
<path d="M755.661 842.693V838.235C704.183 838.235 659.23 796.206 647.278 737.662L666.674 742.649C657.293 733.765 647.815 718.894 641.936 706.74C638.464 719.788 631.978 736.185 624.451 746.684L642.803 737.995C655.006 798.903 701.891 842.693 755.661 842.693Z" fill="#3F3D56"/>
<path d="M736.189 672.108C736.189 677.024 732.187 681.023 727.269 681.023H611.315C606.397 681.023 602.395 677.024 602.395 672.108C602.395 667.192 606.397 663.193 611.315 663.193H727.269C732.187 663.193 736.189 667.192 736.189 672.108Z" fill="#CA63FF"/>
<path d="M214.062 1168.71C212.297 1162.57 209.274 1157.33 205.675 1153.59L192.6 1094.02L164.099 1100.99L180.431 1160.67C179.357 1165.72 179.572 1171.75 181.337 1177.9C185.37 1191.93 195.965 1201.25 205.001 1198.71C214.038 1196.18 218.094 1182.75 214.062 1168.71H214.062Z" fill="#FFB6B6"/>
<path d="M210.119 777.921C210.119 777.921 179.335 776.859 161.496 796.917C141.058 821.871 127.088 919.648 137.575 926.232L165.99 1127.9L206.509 1122.34L196.11 880.364L210.119 777.921V777.921Z" fill="#CA63FF"/>
<path d="M417.934 1117.86L410.559 1363.99H304.639L300.358 1269.12L281.537 1363.99H168.013L182.173 1200.89L196.801 1166.59L206.702 1143.35L417.934 1117.86Z" fill="#4FCCA3"/>
<path d="M333.806 737.716L260.219 733.259L235.69 764.461C214.506 768.995 195.371 774.847 182.173 784.52C185.331 877.962 178.394 999.463 206.702 1023L181.565 1200.32C181.565 1200.32 191.702 1191.64 208.635 1194.7C214.485 1195.76 221.547 1208.93 228.736 1209.73C283.969 1215.87 373.539 1209.56 417.934 1117.86L400.703 985.107L405.163 791.206C391.22 780.191 373.887 773.032 353.875 768.918L333.806 737.716V737.716H333.806Z" fill="#CA63FF"/>
<path d="M475.472 683.471C476.27 691.198 475.256 698.465 472.922 704.291L485.18 777.42L450.193 782.232L441.525 707.532C438.049 702.305 435.57 695.399 434.772 687.672C432.948 670.02 440.58 654.77 451.819 653.61C463.058 652.45 473.648 665.819 475.472 683.471V683.471H475.472H475.472Z" fill="#FFB6B6"/>
<path d="M359.154 796.793C355.491 802.195 356.511 808.267 355.636 815.563C351.924 846.534 411.304 938.054 452.392 948.592C457.784 949.975 460.855 955.787 466.297 956.956H466.297C482.419 960.42 497.428 947.63 496.558 931.173L485.397 720.093L438.509 736.077L441.51 845.666C441.211 822.963 420.354 799.846 404.555 790.231C404.555 790.231 372.554 777.032 359.154 796.793L359.154 796.793Z" fill="#CA63FF"/>
<path d="M304.649 727.491C340.447 727.491 369.467 698.486 369.467 662.706C369.467 626.927 340.447 597.922 304.649 597.922C268.851 597.922 239.831 626.927 239.831 662.706C239.831 698.486 268.851 727.491 304.649 727.491Z" fill="#FFB6B6"/>
<path d="M365.025 615.135C364.467 615.269 373.557 606.414 373.944 606.22C382.864 601.763 373.699 645.335 367.254 644.109C351.4 641.1 344.554 635.127 338.4 650.037C336.683 654.183 335.612 658.863 332.267 661.827C327.674 665.861 320.048 665.527 316.301 670.341C313.291 674.219 314.161 679.925 316.391 684.293C318.62 688.684 322.01 692.406 324.039 696.885C326.314 701.922 316.613 717.947 312.912 726.951V726.973L312.89 727.026C311.906 729.388 309.569 722.584 307.101 721.905C304.148 721.093 299.798 728.062 295.095 726.795C295.073 726.795 295.05 726.773 295.028 726.773C290.546 725.525 285.551 724.188 280.601 722.85H280.578C266.642 719.061 263.118 724.5 262.449 724.344L253.797 715.295C250.828 713.134 251.164 706.158 249.07 704.285C247.358 702.753 243.089 706.293 241.831 704.82C235.662 697.599 234.243 690.375 230.606 676.114C227.284 663.075 220.394 624.05 234.553 622.289C247.91 620.618 238.143 602.03 251.59 602.721C250.787 599.333 252.281 595.701 254.712 593.204C257.12 590.686 260.331 589.126 263.564 587.789C279.508 581.281 276.855 575.687 293.668 579.475C295.34 577.135 316.786 571.034 319.819 571.815C320.042 571.859 315.142 581.37 327.116 579.475C326.67 582.217 333.198 576.272 333.806 586.162C346.578 578.501 353.451 596.837 353.875 599.534C354.433 602.899 349.348 601.183 352.738 601.696C354.745 602.008 358.179 606.087 357.844 608.115C359.294 606.153 360.743 604.214 362.215 602.253C362.482 602.275 362.728 602.32 362.995 602.364C369.774 603.657 362.003 625.806 362.282 618.902C362.795 606.22 371.781 613.642 365.025 615.135H365.025Z" fill="#2F2E41"/>
<path d="M1191.8 601.853C1189.4 621.527 1186.78 641.174 1183.95 660.789C1182.79 668.755 1181.57 676.823 1178.37 684.207C1176.18 689.247 1173.11 693.85 1170.06 698.422C1166.46 703.825 1162.8 709.296 1157.9 713.567C1153.01 717.837 1146.65 720.836 1140.18 720.334C1157.36 708.772 1168.91 689.217 1170.74 668.593C1171.59 658.899 1170.42 649.154 1170.19 639.424C1169.97 629.694 1170.78 619.626 1175.27 610.991C1179.76 602.356 1188.64 595.443 1198.37 595.689L1191.79 601.853H1191.8Z" fill="#2F2E41"/>
<path d="M1017.64 1021.46C1003.65 1032.8 986.468 1034.78 979.251 1025.89C972.034 1016.99 977.519 1000.59 991.501 989.259C997.622 984.297 1004.36 981.129 1010.6 979.88L1070.45 932.594L1092.05 961.138L1030.76 1004.72C1028.25 1010.57 1023.76 1016.5 1017.64 1021.46H1017.64L1017.64 1021.46L1017.64 1021.46Z" fill="#FFB6B6"/>
<path d="M1028.94 957.271L1118.12 872.695L1127.04 866.008C1127.04 866.008 1178.23 816.159 1191.49 815.018C1197.1 814.535 1202.72 815.934 1207.45 819.005C1215.09 823.958 1219.05 832.11 1219.05 840.327C1219.05 847.192 1216.28 854.09 1210.62 859.171L1128.97 932.429L1094.24 963.59L1051.04 1002.36L1046.65 993.417L1031.8 963.124L1028.94 957.271V957.271L1028.94 957.271H1028.94Z" fill="#CA63FF"/>
<path d="M1219.63 900.033L1130.34 927.368C1145.29 931.577 1151.55 1022.62 1137.63 1025.45C1137.63 1025.45 1285.62 1035.97 1277.55 1025.45C1267.7 1012.63 1280.9 927.405 1287.2 927.368L1219.63 900.033Z" fill="#FFB6B6"/>
<path d="M1338.45 1364L1330.64 1269.86C1330.64 1236.18 1328.46 1205.76 1324.96 1178.64C1310.93 1069.76 1275.77 1013.95 1275.77 1013.95H1144.2C1144.02 1014.15 1143.84 1014.31 1143.67 1014.51L1143.64 1014.53C1112.6 1047.14 1096.46 1129.14 1089.28 1178.64C1085.87 1202.19 1084.48 1218.4 1084.48 1218.4L1071.62 1332.69L1080.92 1364H1157.47L1156.26 1357.29L1205.52 1178.64L1206.13 1176.45L1206.66 1178.64L1252.33 1364H1338.45V1364Z" fill="#4FCCA3"/>
<path d="M1146.9 845.726L1174.7 789.635L1198.12 748.884L1217.07 729.589H1268.91L1273.73 748.884L1302.69 764.963L1312.93 845.359L1276.44 1019.79C1233.01 984.417 1143.48 974.62 1143.48 974.62L1128.97 932.429L1119.39 881.602L1118.23 875.524L1146.9 845.726V845.726V845.726Z" fill="#CA63FF"/>
<path d="M1143.56 947.192C1125.57 946.681 1111.24 936.989 1111.57 925.542C1111.89 914.096 1126.74 905.231 1144.74 905.741C1152.62 905.965 1159.79 907.948 1165.34 911.067L1241.57 914.186L1239.34 949.908L1164.43 943.042C1158.71 945.842 1151.44 947.415 1143.56 947.191L1143.56 947.192V947.192Z" fill="#FFB6B6"/>
<path d="M1241.05 825.263L1312.95 896.614L1187.7 909.434L1158.6 950.354L1333.17 956.139C1348.92 961.745 1365.7 950.866 1367 934.205V934.205C1367.43 928.579 1331.57 785.833 1309.86 772.58C1284.41 757.048 1241.05 825.263 1241.05 825.263L1255.25 801.631L1241.05 825.263Z" fill="#CA63FF"/>
<path d="M1290.99 659.577C1291.52 627.168 1265.65 600.472 1233.23 599.949C1200.8 599.427 1174.09 625.276 1173.57 657.685C1173.05 690.094 1198.91 716.79 1231.34 717.313C1263.76 717.835 1290.47 691.986 1290.99 659.577Z" fill="#FFB6B6"/>
<path d="M1361.18 841.492C1359.71 847.064 1348.25 849.939 1345.57 857.094C1337.05 861.952 1341.67 822.258 1338.23 819.651C1335.58 817.667 1334.87 822.459 1334.26 818.336C1331.99 802.868 1317.12 806.323 1306.1 803.827C1304.85 801.397 1303.89 799.035 1303.27 796.739C1302.15 792.594 1297.07 791.145 1294.06 794.198C1292.7 792.995 1291.72 788.738 1290.76 784.481C1290.07 781.383 1289.38 778.285 1288.57 776.324L1280.9 759.029L1283.38 771.911C1278.36 770.106 1273.3 771.978 1270.38 765.782C1266.63 757.825 1265.14 748.509 1267.86 740.151C1270.33 732.574 1274.5 717.396 1279.21 704.826C1273.88 708.682 1267.48 711.49 1260.05 712.894C1262.69 707.902 1265.36 702.82 1266.48 697.27C1267.57 691.721 1266.9 685.547 1263.38 681.134C1260.48 677.502 1256.2 678.415 1252.58 675.496C1249.77 673.222 1247.34 667.405 1245.65 664.218C1252.87 688.222 1258.34 713.719 1249.15 736.63C1242.79 752.499 1229.42 765.403 1213.36 771.265C1221.9 765.158 1230.24 758.65 1236.64 750.359C1243.49 741.466 1247.95 730.234 1246.59 719.09C1244.44 701.594 1211.98 646.255 1207.99 635.378C1210.17 646.009 1209.32 654.3 1203.57 658.869C1202.08 643.446 1185.26 644.85 1176.1 638.677C1176.1 638.677 1169.01 598.626 1185.64 598.381C1193.67 598.27 1202.08 579.415 1209.37 576.049C1221.01 570.678 1228.14 574.333 1241.06 574.734C1253.94 575.113 1266.32 580.663 1274.19 590.848C1278.32 596.175 1279.83 591.94 1286.03 595.261C1291.92 598.403 1295.89 595.484 1302.56 595.684C1315.91 596.041 1328.87 603.173 1336.36 614.205C1343.85 625.26 1348.47 624.235 1345.5 641.329C1345.46 641.53 1345.46 641.931 1345.5 642.533C1347.13 669.456 1342.96 696.446 1332.28 721.229C1328.98 728.852 1345.12 736.719 1345.1 746.236C1345.08 757.29 1327.26 767.364 1328.91 772.089C1333.64 794.845 1360.2 789.786 1353.93 827.875C1353.42 830.973 1362.16 837.77 1361.18 841.492Z" fill="#2F2E41"/>
<path d="M1198.5 771.801C1198.99 771.645 1199.48 771.467 1199.98 771.266C1199.35 771.712 1198.75 772.136 1198.12 772.581L1198.5 771.801H1198.5Z" fill="#2F2E41"/>
<path d="M1281.21 584.029C1274.83 584.978 1268.34 574.385 1271.97 559.696C1279.87 571.775 1283.91 585.373 1284.54 600.309L1280.28 601.628L1281.21 584.029Z" fill="#CA63FF"/>
<path d="M1313.85 570.318C1309.49 585.756 1287.36 596.087 1283.44 590.715L1283 599.921L1280.26 596.402C1288.2 584.602 1299.02 575.55 1313.85 570.318H1313.85Z" fill="#CA63FF"/>
<path d="M827.767 986.614C827.767 981.485 831.942 977.312 837.074 977.312H986.667C991.799 977.312 995.974 981.485 995.974 986.614C995.974 991.744 991.799 995.917 986.667 995.917H837.074C831.942 995.917 827.767 991.744 827.767 986.614Z" fill="#E6E7E8"/>
<path d="M827.767 1049.02C827.767 1043.89 831.942 1039.72 837.074 1039.72H986.667C991.799 1039.72 995.974 1043.89 995.974 1049.02C995.974 1054.15 991.799 1058.32 986.667 1058.32H837.074C831.942 1058.32 827.767 1054.15 827.767 1049.02Z" fill="#E6E7E8"/>
<path d="M720.332 1027.4C715.2 1027.4 711.024 1023.23 711.024 1018.1C711.024 1012.97 715.2 1008.8 720.332 1008.8H986.667C991.799 1008.8 995.974 1012.97 995.974 1018.1C995.974 1023.23 991.799 1027.4 986.667 1027.4H720.332Z" fill="#E6E7E8"/>
<path d="M700.531 938.369L682.179 929.68C689.707 940.18 696.193 956.577 699.665 969.625C705.544 957.471 715.022 942.599 724.403 933.716L705.007 938.703C716.959 880.158 761.912 838.129 813.39 838.129V833.672C759.62 833.672 712.734 877.461 700.531 938.369Z" fill="#3F3D56"/>
<path d="M784.998 1027.57H669.043C664.125 1027.57 660.124 1023.57 660.124 1018.66C660.124 1013.74 664.125 1009.74 669.043 1009.74H784.998C789.916 1009.74 793.918 1013.74 793.918 1018.66C793.918 1023.57 789.916 1027.57 784.998 1027.57Z" fill="#CA63FF"/>
<path d="M818.864 845.249C821.953 826.225 809.027 808.301 789.993 805.213C770.96 802.126 753.026 815.046 749.937 834.069C746.849 853.093 759.775 871.018 778.808 874.105C797.842 877.192 815.776 864.273 818.864 845.249Z" fill="#3F3D56"/>
<path d="M594.86 587.048C606.753 587.048 616.395 577.411 616.395 565.524C616.395 553.637 606.753 544 594.86 544C582.966 544 573.325 553.637 573.325 565.524C573.325 577.411 582.966 587.048 594.86 587.048Z" fill="#E6E7E8"/>
<path d="M846.838 959.248C858.731 959.248 868.373 949.611 868.373 937.724C868.373 925.836 858.731 916.2 846.838 916.2C834.945 916.2 825.303 925.836 825.303 937.724C825.303 949.611 834.945 959.248 846.838 959.248Z" fill="#E6E7E8"/>
<ellipse cx="356.547" cy="672.055" rx="5.61987" ry="5.61644" fill="#2F2E41"/>
<ellipse cx="1191.1" cy="672.616" rx="6.18186" ry="6.17808" fill="#2F2E41"/>
</g>
<path d="M805.634 272.446C797.057 258.241 786.894 243.075 770.978 238.437C752.546 233.065 733.612 243.736 717.551 254.265C669.52 285.756 623.266 319.883 579 356.49L579.048 357.041C613.511 354.661 647.974 352.281 682.437 349.901C707.337 348.182 733.092 346.225 755.096 334.43C763.446 329.954 771.585 323.975 781.047 323.558C792.802 323.041 803.052 331.262 811.107 339.852C858.755 390.661 872.544 468.36 926 513C892.292 429.755 852.044 349.318 805.634 272.446Z" fill="#F2F2F2"/>
<path d="M592.423 306.849C590.816 305.052 589.219 303.256 587.601 301.459C574.847 287.311 561.161 273.328 543.645 265.217C535.294 261.228 526.177 259.108 516.927 259.006C507.367 259.037 498.021 261.552 489.187 265.074C485.01 266.747 480.925 268.646 476.902 270.669C472.306 272.989 467.791 275.464 463.298 277.958C454.863 282.64 446.537 287.527 438.321 292.619C421.972 302.753 406.136 313.659 390.812 325.34C382.868 331.397 375.088 337.653 367.472 344.107C360.389 350.103 353.448 356.26 346.651 362.577C345.198 363.922 343.027 361.746 344.481 360.401C346.272 358.727 348.084 357.064 349.896 355.421C355.014 350.781 360.215 346.229 365.497 341.766C375.129 333.615 385.011 325.778 395.142 318.256C410.897 306.551 427.193 295.641 444.032 285.525C452.447 280.474 460.977 275.635 469.624 271.008C472.234 269.611 474.876 268.246 477.547 266.952C483.609 263.885 489.908 261.314 496.383 259.263C505.554 256.287 515.257 255.331 524.83 256.46C534.074 257.808 542.979 260.898 551.077 265.566C568.275 275.207 581.613 290.114 594.593 304.662C595.904 306.141 593.743 308.328 592.423 306.849Z" fill="#E4E4E4"/>
<path d="M538.172 283.86C517.178 273.107 490.292 275.213 471 288.647C507.798 294.974 544.193 303.439 580 314C565.131 305.316 553.5 291.711 538.172 283.86Z" fill="#F2F2F2"/>
<path d="M470.805 288L467 292C468.287 290.6 469.625 289.287 471 288.045C470.935 288.031 470.87 288.014 470.805 288Z" fill="#F2F2F2"/>
<path d="M1044 287C1080.45 287 1110 257.451 1110 221C1110 184.549 1080.45 155 1044 155C1007.55 155 978 184.549 978 221C978 257.451 1007.55 287 1044 287Z" fill="#FF6584"/>
<path d="M1163.24 170.656C1131.19 166.336 1094.59 183.61 1086.29 214.778C1084.19 209.236 1080.39 204.502 1075.42 201.258C1070.45 198.015 1064.58 196.43 1058.64 196.734C1052.71 197.037 1047.03 199.213 1042.42 202.947C1037.81 206.68 1034.51 211.778 1033 217.504L1036.67 220.125C1105.35 234.935 1176.45 234.615 1245 219.186C1222.71 195.823 1195.29 174.976 1163.24 170.656Z" fill="#F0F0F0"/>
<path d="M1026.24 258.656C994.186 254.336 957.594 271.61 949.287 302.778C947.194 297.236 943.388 292.502 938.419 289.258C933.45 286.015 927.576 284.43 921.645 284.734C915.714 285.037 910.033 287.213 905.423 290.947C900.814 294.68 897.514 299.778 896 305.504L899.669 308.125C968.354 322.935 1039.45 322.615 1108 307.186C1085.71 283.823 1058.29 262.976 1026.24 258.656Z" fill="#F0F0F0"/>
<defs>
<clipPath id="clip0_7_3955">
<rect width="1233" height="820" fill="white" transform="translate(134 544)"/>
</clipPath>
</defs>
</svg>
