<svg xmlns="http://www.w3.org/2000/svg" enable-background="new 0 0 1364 960" viewBox="0 0 1364 960"><path fill="#e4e0ff" d="M825.64,197.22c-10.36,0-18.76,8.39-18.76,18.76c0,10.36,8.4,18.76,18.76,18.76
			c10.36,0,18.76-8.4,18.76-18.76C844.4,205.61,836,197.22,825.64,197.22z M825.64,220.83c-2.68,0-4.85-2.17-4.85-4.85
			s2.17-4.85,4.85-4.85c2.68,0,4.85,2.17,4.85,4.85S828.32,220.83,825.64,220.83z"/><path fill="#e4e0ff" d="M878.89,207.48l-11.43-3.66c0,0,0,0,0,0c-0.9-3.1-2.14-6.07-3.67-8.85l5.43-10.78
			c0.92-1.83,0.56-4.03-0.88-5.48l-5.53-5.53c-1.46-1.46-3.69-1.8-5.52-0.86l-10.68,5.5h-0.01c-2.78-1.53-5.73-2.77-8.84-3.67
			c0,0,0,0,0,0l-3.78-11.47c-0.64-1.94-2.45-3.25-4.5-3.25h-7.82c-2.06,0-3.88,1.33-4.51,3.29l-3.66,11.45c0,0,0,0,0,0
			c-3.1,0.89-6.06,2.12-8.84,3.66c0,0,0,0-0.01,0l-10.79-5.43c-1.83-0.92-4.03-0.56-5.48,0.88l-5.53,5.53
			c-1.46,1.46-1.8,3.69-0.86,5.52l5.5,10.67c-1.53,2.78-2.77,5.75-3.66,8.86l-11.46,3.78c-1.94,0.64-3.25,2.45-3.25,4.5v7.82
			c0,2.06,1.33,3.88,3.29,4.51l11.43,3.66c0,0,0,0,0,0c0.9,3.1,2.14,6.07,3.67,8.85l-5.43,10.78c-0.92,1.83-0.56,4.03,0.88,5.48
			l5.53,5.53c1.46,1.46,3.69,1.8,5.52,0.86l10.68-5.5c2.78,1.53,5.73,2.77,8.84,3.66h0.01l3.79,11.48c0.64,1.94,2.45,3.25,4.5,3.25
			h7.82c2.06,0,3.88-1.33,4.51-3.29l3.66-11.44c0,0,0,0,0.01,0c3.1-0.9,6.07-2.13,8.84-3.67c0,0,0,0,0.01,0l10.79,5.43
			c1.83,0.92,4.03,0.56,5.48-0.88l5.53-5.53c1.46-1.46,1.8-3.69,0.86-5.52l-5.5-10.67c1.53-2.78,2.77-5.75,3.66-8.86l11.47-3.78
			c1.94-0.64,3.25-2.45,3.25-4.5v-7.82C882.18,209.93,880.85,208.11,878.89,207.48z M825.64,247.11c-17.2,0-31.14-13.94-31.14-31.14
			s13.94-31.14,31.14-31.14c17.2,0,31.13,13.94,31.13,31.14S842.84,247.11,825.64,247.11z"/><path fill="#e4e0ff" d="M887.51,621.69c-10.36,0-18.76,8.39-18.76,18.76c0,10.36,8.4,18.76,18.76,18.76
			c10.36,0,18.76-8.4,18.76-18.76C906.27,630.08,897.87,621.69,887.51,621.69z M887.51,645.3c-2.68,0-4.85-2.17-4.85-4.85
			c0-2.68,2.17-4.85,4.85-4.85c2.68,0,4.85,2.17,4.85,4.85C892.36,643.12,890.19,645.3,887.51,645.3z"/><path fill="#e4e0ff" d="M940.76,631.95l-11.43-3.66c0,0,0,0,0,0c-0.9-3.1-2.14-6.07-3.67-8.85l5.43-10.78
			c0.92-1.83,0.56-4.03-0.88-5.48l-5.53-5.53c-1.46-1.46-3.69-1.8-5.52-0.86l-10.68,5.5h-0.01c-2.78-1.53-5.73-2.77-8.84-3.67
			c0,0,0,0,0,0l-3.78-11.47c-0.64-1.94-2.45-3.25-4.5-3.25h-7.82c-2.06,0-3.88,1.33-4.51,3.29l-3.66,11.45c0,0,0,0,0,0
			c-3.1,0.89-6.06,2.12-8.84,3.66c0,0,0,0-0.01,0l-10.79-5.43c-1.83-0.92-4.03-0.56-5.48,0.88l-5.53,5.53
			c-1.46,1.46-1.8,3.69-0.86,5.52l5.5,10.67c-1.53,2.78-2.77,5.75-3.66,8.86l-11.46,3.78c-1.94,0.64-3.25,2.45-3.25,4.5v7.82
			c0,2.06,1.33,3.88,3.29,4.51l11.43,3.66c0,0,0,0,0,0c0.9,3.1,2.14,6.08,3.67,8.85l-5.43,10.78c-0.92,1.83-0.56,4.03,0.88,5.48
			l5.53,5.53c1.46,1.46,3.69,1.8,5.52,0.86l10.68-5.5c2.78,1.53,5.73,2.77,8.84,3.66h0.01l3.79,11.48c0.64,1.94,2.45,3.25,4.5,3.25
			h7.82c2.06,0,3.88-1.33,4.51-3.29l3.66-11.44c0,0,0,0,0.01,0c3.1-0.9,6.07-2.13,8.84-3.67c0,0,0,0,0.01,0l10.79,5.43
			c1.83,0.92,4.03,0.56,5.48-0.88l5.53-5.53c1.46-1.46,1.8-3.69,0.86-5.52l-5.5-10.67c1.53-2.78,2.77-5.75,3.66-8.86l11.47-3.78
			c1.94-0.64,3.25-2.45,3.25-4.5v-7.82C944.05,634.4,942.72,632.58,940.76,631.95z M887.51,671.58c-17.2,0-31.14-13.94-31.14-31.14
			s13.94-31.14,31.14-31.14c17.2,0,31.13,13.94,31.13,31.14S904.71,671.58,887.51,671.58z"/><path fill="#e4e0ff" d="M1123.32,330.78c-6.36,0-11.52,5.15-11.52,11.52c0,6.36,5.16,11.52,11.52,11.52
			c6.36,0,11.52-5.16,11.52-11.52C1134.84,335.94,1129.68,330.78,1123.32,330.78z M1123.32,345.28c-1.65,0-2.98-1.33-2.98-2.98
			c0-1.64,1.33-2.98,2.98-2.98c1.64,0,2.98,1.33,2.98,2.98C1126.3,343.95,1124.96,345.28,1123.32,345.28z"/><path fill="#e4e0ff" d="M1156.02,337.09l-7.02-2.25c0,0,0,0,0,0c-0.55-1.91-1.31-3.73-2.26-5.43l3.34-6.62
			c0.56-1.12,0.35-2.48-0.54-3.36l-3.4-3.4c-0.89-0.89-2.26-1.11-3.39-0.53l-6.56,3.38h0c-1.71-0.94-3.52-1.7-5.43-2.25c0,0,0,0,0,0
			l-2.32-7.04c-0.39-1.19-1.51-2-2.76-2h-4.8c-1.26,0-2.38,0.82-2.77,2.02l-2.25,7.03c0,0,0,0,0,0c-1.91,0.55-3.72,1.3-5.43,2.24
			c0,0,0,0,0,0l-6.62-3.34c-1.12-0.56-2.48-0.35-3.36,0.54l-3.4,3.4c-0.89,0.89-1.11,2.26-0.53,3.39l3.38,6.55
			c-0.94,1.71-1.7,3.53-2.25,5.44l-7.04,2.32c-1.19,0.39-2,1.51-2,2.76v4.8c0,1.26,0.82,2.38,2.02,2.77l7.02,2.25c0,0,0,0,0,0
			c0.55,1.91,1.31,3.73,2.26,5.43l-3.34,6.62c-0.56,1.12-0.35,2.48,0.54,3.36l3.4,3.4c0.89,0.89,2.26,1.11,3.39,0.53l6.56-3.38
			c1.71,0.94,3.52,1.7,5.43,2.24h0.01l2.33,7.05c0.39,1.19,1.51,2,2.76,2h4.8c1.26,0,2.38-0.82,2.77-2.02l2.25-7.02c0,0,0,0,0,0
			c1.91-0.55,3.73-1.31,5.43-2.25c0,0,0,0,0,0l6.62,3.34c1.12,0.56,2.48,0.35,3.36-0.54l3.4-3.4c0.89-0.89,1.11-2.26,0.53-3.39
			l-3.38-6.55c0.94-1.71,1.7-3.53,2.25-5.44l7.04-2.32c1.19-0.39,2-1.51,2-2.76v-4.8C1158.04,338.59,1157.22,337.47,1156.02,337.09z
			 M1123.32,361.42c-10.56,0-19.12-8.56-19.12-19.12s8.56-19.12,19.12-19.12c10.56,0,19.11,8.56,19.11,19.12
			S1133.88,361.42,1123.32,361.42z"/><path fill="#e4e0ff" d="M265.1,495.42c-6.36,0-11.52,5.15-11.52,11.52c0,6.36,5.16,11.52,11.52,11.52c6.36,0,11.52-5.16,11.52-11.52
			C276.62,500.58,271.46,495.42,265.1,495.42z M265.1,509.92c-1.65,0-2.98-1.33-2.98-2.98s1.33-2.98,2.98-2.98
			c1.64,0,2.98,1.33,2.98,2.98S266.74,509.92,265.1,509.92z"/><path fill="#e4e0ff" d="M297.8,501.73l-7.02-2.25c0,0,0,0,0,0c-0.55-1.91-1.31-3.73-2.25-5.43l3.34-6.62
			c0.56-1.12,0.35-2.48-0.54-3.36l-3.4-3.4c-0.89-0.89-2.26-1.11-3.39-0.53l-6.56,3.38h0c-1.71-0.94-3.52-1.7-5.43-2.25c0,0,0,0,0,0
			l-2.32-7.04c-0.39-1.19-1.51-2-2.76-2h-4.8c-1.26,0-2.38,0.82-2.77,2.02l-2.25,7.03c0,0,0,0,0,0c-1.91,0.55-3.72,1.3-5.43,2.24
			c0,0,0,0,0,0l-6.62-3.34c-1.12-0.56-2.48-0.35-3.37,0.54l-3.4,3.4c-0.89,0.89-1.11,2.26-0.53,3.39l3.37,6.55
			c-0.94,1.71-1.7,3.53-2.25,5.44l-7.04,2.32c-1.19,0.39-2,1.51-2,2.76v4.8c0,1.26,0.82,2.38,2.02,2.77l7.02,2.25c0,0,0,0,0,0
			c0.55,1.91,1.31,3.73,2.26,5.43l-3.34,6.62c-0.56,1.12-0.35,2.48,0.54,3.36l3.4,3.4c0.89,0.89,2.26,1.11,3.39,0.53l6.56-3.38
			c1.71,0.94,3.52,1.7,5.43,2.24h0.01l2.33,7.05c0.39,1.19,1.51,2,2.76,2h4.8c1.26,0,2.38-0.82,2.77-2.02l2.25-7.02c0,0,0,0,0,0
			c1.91-0.55,3.73-1.31,5.43-2.25c0,0,0,0,0,0l6.62,3.34c1.12,0.56,2.48,0.35,3.36-0.54l3.4-3.4c0.89-0.89,1.11-2.26,0.53-3.39
			l-3.38-6.55c0.94-1.71,1.7-3.53,2.25-5.44l7.04-2.32c1.19-0.39,2-1.51,2-2.76v-4.8C299.82,503.23,299,502.11,297.8,501.73z
			 M265.1,526.06c-10.56,0-19.12-8.56-19.12-19.12s8.56-19.12,19.12-19.12s19.11,8.56,19.11,19.12S275.66,526.06,265.1,526.06z"/><path fill="#ffd0bd" d="M544.54,656.39l-9.27,18.07c5.38,11.24,18.78,21.62,30.61,25.89l7.83-12.01
			C568.92,680.87,553.22,664.89,544.54,656.39z"/><path fill="#ff5c5c" d="M546.07,691.14c4.91-2.92,15-16.42,15.11-18.99l-20.81-22.7c0,0-5.74,3.4-10.41,7.69
			C512.99,672.73,546.07,691.14,546.07,691.14z"/><path fill="#ffd0bd" d="M572.06,687.78l35.98,12.02l-4.58,9.6c0,0-36.28-4.73-44.92-12.62L572.06,687.78z"/><path fill="#ffc340" d="M696.48,294.76c5.93,1.66,11.48,2.58,15.61,2.58c15.01,0,17.79-12.17,17.79-27.18
			c0-15.02-2.78-27.19-17.79-27.19c-4.14,0-9.71,0.93-15.61,2.54c0-1.49,0.02-58.37,0.03-58.4
			c103.52-3.13,183.05,76.44,202.34,168.29c0,0,0,0,0,0h-74.62c0,0,0,0,0,0c1.65,5.94,2.57,11.48,2.57,15.6
			c0,15.02-12.17,17.79-27.19,17.79c-15.01,0-27.18-2.77-27.18-17.79c0-4.11,0.91-9.61,2.55-15.6c0,0,0,0,0,0h-78.5c0,0,0,0,0,0
			L696.48,294.76C696.48,294.76,696.48,294.76,696.48,294.76z"/><path fill="#ffc340" d="M712.09,619.55c-4.13,0-9.68,0.92-15.61,2.53v-63.95h43.63c-1.62-5.88-2.55-11.47-2.55-15.61
			c0-15.02,12.17-17.79,27.18-17.79c15.02,0,27.19,2.77,27.19,17.79c0,4.15-0.94,9.76-2.56,15.61h45.96c0,0,0,0,0,0
			c-27,43.91-53.54,99.79-55.55,160.85h-83.3c0,0,0,0,0,0v-47.59c5.93,1.61,11.48,2.53,15.61,2.53c15.01,0,17.79-12.18,17.79-27.19
			C729.88,631.72,727.1,619.55,712.09,619.55z"/><path fill="#fa0" d="M557.62,558.14c27,43.91,53.55,99.79,55.56,160.85h83.29v-47.63c5.91,1.65,11.48,2.57,15.61,2.57
			c15.01,0,17.79-12.18,17.79-27.19c0-15.02-2.78-27.19-17.79-27.19c-4.13,0-9.7,0.93-15.61,2.57v-63.99h-52.56
			c1.65,5.9,2.57,11.47,2.57,15.6c0,15.02-12.17,17.79-27.18,17.79c-15.02,0-27.19-2.77-27.19-17.79c0-4.13,0.93-9.7,2.57-15.6
			H557.62z"/><path fill="#ffc340" d="M494.12,355.41C494.12,355.41,494.12,355.41,494.12,355.41l77.69,0c-1.62-5.88-2.55-11.47-2.55-15.61
			c0-15.01,12.17-17.79,27.18-17.79c15.02,0,27.19,2.78,27.19,17.79c0,4.14-0.93,9.73-2.55,15.61h75.39v73c0,0,0,0,0,0
			c-5.86-1.67-11.46-2.6-15.6-2.6c-15.02,0-17.79,12.17-17.79,27.19s2.77,27.19,17.79,27.19c4.14,0,9.74-0.93,15.6-2.6c0,0,0,0,0,0
			v80.54c0,0,0,0,0,0h-52.54c0,0,0,0,0,0c1.64,5.99,2.55,11.5,2.55,15.6c0,15.02-12.17,17.79-27.18,17.79
			c-15.02,0-27.19-2.77-27.19-17.79c0-4.11,0.91-9.61,2.55-15.6c0,0,0,0,0,0h-37.05c-11.99-19.5-24.07-36.64-34.13-50.83h0.06
			C491.18,460.88,483.41,406.26,494.12,355.41z"/><path fill="#4e2e7d" d="M778.73,715.24v41.8c0,1.25-0.05,2.5-0.11,3.7c-0.11,1.85-0.27,3.7-0.49,5.49
				c-0.49,3.59-1.25,7.12-2.28,10.49c-0.6,1.9-1.2,3.7-1.96,5.49c-1.41,3.7-3.21,7.18-5.27,10.49c-1.14,1.9-2.39,3.75-3.75,5.49
				c-2.88,3.86-6.2,7.34-9.84,10.44c-2.28,2.01-4.78,3.86-7.34,5.49c-10.65,6.96-23.38,10.98-37.02,10.98h-30.39
				c-13.64,0-26.36-4.02-37.02-10.98c-2.61-1.63-5.06-3.48-7.34-5.49c-3.64-3.1-6.96-6.58-9.84-10.44
				c-1.36-1.74-2.61-3.59-3.75-5.49c-2.07-3.32-3.86-6.8-5.27-10.49c-0.76-1.79-1.36-3.59-1.96-5.49c-1.03-3.37-1.79-6.9-2.28-10.49
				c-0.22-1.79-0.38-3.64-0.49-5.49c-0.05-1.2-0.11-2.45-0.11-3.7v-41.8H778.73z"/><path fill="#60428c" d="M783.73,731.78h-174.5c-9.13,0-16.54-7.41-16.54-16.54l0,0c0-9.14,7.41-16.54,16.54-16.54h174.5
				c9.14,0,16.54,7.41,16.54,16.54l0,0C800.27,724.37,792.87,731.78,783.73,731.78z"/><path fill="#bbabeb" d="M268.7,827.93h69.15l6.04-34.61l0.67-3.85l6.3-36.18l0.67-3.85l6.31-36.19l0.67-3.85l6.31-36.19l0.67-3.85
		l6.31-36.18l0.67-3.85l5.91-33.89l0.67-3.85l6.71-38.49l0.67-3.85l7.38-42.32h37.91l7.38,42.32l0.67,3.85l6.71,38.49l0.67,3.85
		l5.91,33.89l0.67,3.85l6.31,36.18l0.67,3.85l6.31,36.19l0.67,3.85l6.31,36.19l0.67,3.85l6.3,36.18l0.67,3.85l6.04,34.61h69.15
		l-6.13-34.61l-0.68-3.85l-6.4-36.18l-0.68-3.85l-6.41-36.19l-0.68-3.85l-6.4-36.19l-0.68-3.85l-6.41-36.18l-0.67-3.85l-6-33.89
		l-0.68-3.85l-6.82-38.49l-0.67-3.85l-7.5-42.32h2.17v-6.01H323.79v6.01h1.76l-7.5,42.32l-0.67,3.85l-6.82,38.49l-0.68,3.85
		l-6,33.89l-0.67,3.85l-6.41,36.18l-0.68,3.85l-6.4,36.19l-0.68,3.85l-6.41,36.19l-0.68,3.85l-6.4,36.18l-0.68,3.85L268.7,827.93z
		 M485.42,793.32h61.65l5.45,30.76h-61.73L485.42,793.32z M478.44,753.29h61.54l6.41,36.18h-61.64L478.44,753.29z M471.45,713.25
		h61.44l6.41,36.19h-61.54L471.45,713.25z M464.46,673.21h61.33l6.41,36.19h-61.42L464.46,673.21z M457.48,633.18h61.23l6.4,36.18
		H463.8L457.48,633.18z M450.9,595.45h61.13l6,33.89h-61.22L450.9,595.45z M443.51,553.11h61.02l6.81,38.49h-61.12L443.51,553.11z
		 M435.46,506.94h60.89l7.5,42.32h-61.01L435.46,506.94z M382.77,549.26h-61.01l7.5-42.32h60.89L382.77,549.26z M375.38,591.6
		h-61.12l6.81-38.49h61.02L375.38,591.6z M368.79,629.34h-61.22l6-33.89h61.13L368.79,629.34z M361.81,669.36h-61.32l6.4-36.18
		h61.22L361.81,669.36z M354.82,709.4H293.4l6.41-36.19h61.33L354.82,709.4z M347.84,749.44H286.3l6.41-36.19h61.44L347.84,749.44z
		 M340.86,789.47h-61.64l6.41-36.18h61.54L340.86,789.47z M334.82,824.08h-61.74l5.45-30.76h61.65L334.82,824.08z"/><path fill="#ffd4c2" d="M402.43,503.29c-3.38,2.26-12.87,1.59-14.64-1.1c-1.77-2.69-4.63-8.29-6.92-9.3
					c-2.29-1.01-7.16-3.1-7.14-5.9c0.02-2.57,2.82-6.05,4.68-8.9l0.01,0c1.51-2.29,2.48-12.98,2.48-12.98l12,5.57
					c0,0-3.66,9.81-3.49,13.66c0.11,2.39,1.78,5.66,3.78,7.79c0.79,0.84,4.16,4.86,6.29,5.98l0,0.01
					C402.8,499.85,404.49,501.92,402.43,503.29z"/><path fill="#3f1182" d="M403.97,503.12c-3.38,2.26-14.4,1.76-16.18-0.93c-1.77-2.69-4.63-8.29-6.92-9.3
					c-2.29-1.01-7.16-3.1-7.14-5.9c0.02-2.57,2.82-6.05,4.68-8.9l0.01,0c0,0-0.14,3.19,0.54,5.92c0.68,2.74,11.64,15.6,16.41,10.52
					C398.68,496.26,406.03,501.75,403.97,503.12z"/><path fill="#ff6ea5" d="M378.17,473.04c5.19,2.75,10.64,5.84,15.14,4.5c2.44-9.34,23.5-44.56,25.88-76.18l-24.91,9.42
				C382.43,422.09,380.02,459.81,378.17,473.04z"/><path fill="#ffd4c2" d="M468.61,502.58c-0.76,1.39-18.23,0.29-20.61-0.12c-2.39-0.4-9.32,1.4-12.69,0
				c-3.37-1.4-0.68-5.78-0.12-9.66c0.01-0.02,0.01-0.04,0.01-0.07v-0.03c0.04-0.29,0.05-0.62,0.05-0.98c0-0.01,0-0.01,0-0.01
				c-0.01-1.65-2.74-10.83-2.74-10.83l12.81-1.86c0.08,1.32-1.14,7.82,1.24,11.33c2.2,3.25,7.9,3.56,10.53,4.23
				c0,0,0.29,0.07,0.79,0.2c0.17,0.04,0.33,0.08,0.49,0.12c0.24,0.06,0.52,0.13,0.8,0.2c0.15,0.03,0.3,0.07,0.46,0.11
				c1.13,0.27,2.21,0.54,3.18,0.8c0.77,0.21,1.46,0.42,2.07,0.62C470.42,498.5,469.37,501.19,468.61,502.58z"/><path fill="#572416" d="M396.43,193.01c4.12-4.49,18.47-8.77,29.31,2.1c10.61,10.65,4.97,25.06,6.68,30.24
				c1.72,5.18,9.09,13.02,2.43,23.38c-6.66,10.36-53.28,11.34-57.83-2.87c-4.55-14.21,6.4-18.15,6.69-27.08
				C384.01,209.85,383.29,194.99,396.43,193.01z"/><path fill="#e64c86" d="M447.27,482.05c-5.69,1.63-8.65,2.04-15.22,1.24c-1.16-13.88-9.78-37.4-11.67-57.38
				c-0.09-0.97-0.16-1.93-0.19-2.87c-0.14-3.56,0.13-6.92,0.95-9.99c0.25-0.94,0.55-1.85,0.91-2.73l3-1.03l2.26-0.77l16.73-14.12
				C445.62,412.78,446.07,473.05,447.27,482.05z"/><path fill="#ffdbcc" d="M421.65,253.63c0.34,18.88-13.81,12.87-20.75,0.43c1.12-1.04,1.68-2.36,1.99-3.93
				c0.39-1.99,0.38-4.37,0.59-7.14c0.03-0.47,0.07-0.95,0.12-1.44l1.17-0.11l2.78-0.27l8.87-0.85c-0.05,0.87-0.12,1.8-0.2,2.75
				c-0.24,3.19-0.49,6.62,0.08,8.92C416.57,253.08,420.93,253.19,421.65,253.63z"/><path fill="#f2e0d5" d="M416.07,250.59c-0.85,1.12-11.6-1.23-12.85-3.24l0.25-4.35l1.3-1.55l0.39-0.47
				c0.8,0.04,1.59,0.11,2.39,0.21c2.92,0.33,5.8,0.95,8.59,1.87c0.03,0.01,0.06,0.02,0.08,0.03
				C415.98,246.27,416.07,250.59,416.07,250.59z"/><path fill="#ffdbcc" d="M435.54,259l-3.63,18.54c11.28,5.65,32.34,17.14,43.82,14.84c0.94-0.19-1.64-13.39-1.64-13.39
				C464.38,275.58,435.54,259,435.54,259z"/><path fill="#a87ceb" d="M459.93,267.84c-0.05,7.17-1.23,15.97-4.82,23l-21.23-5.71c0,0-5.02-9.16-1.78-15.76
				c2.24-4.55-7.87-12.82-7.87-12.82C433.35,255.96,446.61,261.86,459.93,267.84z"/><path fill="#e64c86" d="M440.24,413.6c-0.03,0.58-18.96-0.3-18.85-1.4c1.04-10.68-22.12-65.33-12.12-87.82
				c0.17-0.38,23.46-8.78,26.12,4.73C435.39,329.11,451.05,400.25,440.24,413.6z"/><path fill="#ffdbcc" d="M428.65,197.75c0,0,9.73,19.74,4.13,36.15c-2.85,8.37-10.39,14.72-21.06,14.12
					c-13.35-0.75-19.39-11.03-20.25-17.97c-1.36-11.05,0.96-22.58,3.4-29L428.65,197.75z"/><path fill="#ff6ea5" d="M391.08,414.86l22.11,4.59c13.4-10.93,6.97-85.75,6.97-85.75s-2.38,2.53-16.1-7.21
				C368.53,347.59,393.48,401.84,391.08,414.86z"/><path fill="#ffdbcc" d="M386.26,221.44c1.62-2.74,5.2,1.37,5.2,1.37l0.83,10.71C384.45,232.95,384.64,224.19,386.26,221.44z"/><path fill="#ffdbcc" d="M472.77,279.25l42.01-7.94l0.01,7.54c-7.52,3.77-31.83,15.03-42.66,13.93L472.77,279.25z"/><ellipse cx="407.64" cy="222.36" fill="#3d1a10" rx="2.06" ry="2.94" transform="rotate(-.81 407.741 222.283)"/><ellipse cx="427.49" cy="221.82" fill="#3d1a10" rx="2.62" ry="1.83" transform="rotate(-87.289 427.505 221.81)"/><path fill="#f2e0d5" d="M420.5,224.29c-0.95-1.66-2.7-3.02-2.77-5.12c-0.03-0.34-0.54-0.38-0.6-0.03
					c-1.16,2.62,2.1,4.21,2.19,6.19c0.12,2.47-3.11,3.1-1.88,3.19C418.92,228.62,421.68,227.26,420.5,224.29z"/><path fill="#572416" d="M410.54,217.48c-0.11-0.12-0.23-0.23-0.36-0.34c-0.28-0.24-0.58-0.41-0.91-0.57
					c-0.62-0.28-1.31-0.37-1.98-0.3c-1.31,0.14-2.31,1.07-2.85,2.22c-0.19,0.41,0.5,0.75,0.72,0.35c0.24-0.43,0.54-0.74,0.98-0.96
					c0.39-0.2,0.85-0.36,1.26-0.36c0.23,0,0.43,0.02,0.61,0.07c0.13,0.03,0.26,0.08,0.38,0.12c0.13,0.05,0.13,0.05,0.23,0.11
					c0.22,0.13,0.39,0.25,0.53,0.38c0.25,0.24,0.41,0.54,0.76,0.65c0.41,0.14,0.96-0.17,0.94-0.65
					C410.84,217.91,410.74,217.7,410.54,217.48z"/><path fill="#572416" d="M425.4,216.81c0.11-0.1,0.23-0.18,0.35-0.27c0.27-0.18,0.55-0.31,0.86-0.41c0.57-0.19,1.19-0.2,1.78-0.07
					c1.14,0.25,1.94,1.17,2.31,2.24c0.13,0.38-0.52,0.61-0.67,0.24c-0.17-0.41-0.41-0.71-0.77-0.95c-0.33-0.21-0.71-0.4-1.08-0.44
					c-0.2-0.02-0.38-0.03-0.55,0c-0.12,0.02-0.23,0.04-0.35,0.07c-0.12,0.03-0.12,0.03-0.22,0.08c-0.21,0.09-0.37,0.18-0.5,0.28
					c-0.25,0.19-0.41,0.44-0.73,0.51c-0.38,0.08-0.83-0.25-0.77-0.66C425.1,217.17,425.2,216.99,425.4,216.81z"/><path fill="#942525" d="M421.09,232.93c0.02,1.1-0.42,2.12-1.18,2.87c-0.81,0.82-1.97,1.34-3.27,1.37
							c-1.39,0.03-2.65-0.52-3.5-1.41c-0.68-0.71-1.1-1.63-1.12-2.64c-0.05-2.29,2.9-0.63,4.59-0.66
							C418.03,232.43,421.04,230.64,421.09,232.93z"/><path fill="#ff7878" d="M419.91,235.81c-0.81,0.82-1.97,1.34-3.27,1.37c-1.39,0.03-2.65-0.52-3.5-1.41
							c0.67-0.7,1.88-1.18,3.27-1.21C417.94,234.53,419.26,235.04,419.91,235.81z"/><ellipse cx="407.08" cy="228.14" fill="#ffb394" rx="2.06" ry="5.01" transform="rotate(-87.289 407.098 228.125)"/><ellipse cx="427.97" cy="227.77" fill="#ffb394" rx="1.63" ry="3.97" transform="rotate(-87.289 427.98 227.759)"/><circle cx="408.19" cy="221.53" r=".57" fill="#fff"/><circle cx="427.94" cy="220.9" r=".51" fill="#fff"/><path fill="#f2e0d5" d="M388.02,223.34c0.61-0.17,1.39,0.11,1.57,0.76c0.08,0.29-0.32,0.46-0.44,0.17
				c-0.09-0.22-0.31-0.36-0.55-0.33c-0.21,0.03-0.43,0.22-0.55,0.39c-0.38,0.5-0.24,1.24-0.12,1.81c0.12,0.57,0.31,1.13,0.56,1.65
				c0.27,0.56,0.69,1.02,0.96,1.56c0.26,0.52-0.49,1.06-0.91,0.67c-0.32-0.3-0.53-0.72-0.73-1.11c-0.19-0.36-0.34-0.74-0.48-1.12
				c-0.27-0.79-0.46-1.64-0.45-2.48C386.9,224.56,387.21,223.56,388.02,223.34z"/><path fill="#8f60d6" d="M439.56,337.86c-3.17,4.39-41.01,8.48-49.43-2.41c-2.55-3.3,1.56-20.37,1.91-22.8
				c1.41-11.98-4.22-23.2-8.5-30.89c-3.99-11.13-2.56-16.48,4.26-21.04c3.08-2.06,9.44-5.95,13.09-6.66
				c5.46,7.71,18.77,11.74,16.51-1.31c20.23,2.44,25.94,15.75,20.17,32.06c-3.91,11.08-8.91,14.09-8.33,22.24
				C429.52,310.73,439.51,329.31,439.56,337.86z"/><path fill="#fff" d="M414.71,264.43c-8.52,3.32-15.53-5.61-17.6-9.12c0.75-0.1,3.06-1.13,3.79-1.25
				c5.46,7.71,18.77,11.74,16.51-1.31c0.88-0.22,2.44,0,3.63,0.5C421.9,257.21,421.51,261.79,414.71,264.43z"/><path fill="#572416" d="M433.74,214.02c-2.87-3.03-9.8-14.1-21.69-14.26c-0.3,18.89-20.68,15.05-21.84,27.26
				c0,0-5.13-11.28-0.08-25.31c4.37-12.15,28.28-20.53,40.45-2.83C435.29,205.72,435.02,213.71,433.74,214.02z"/><path fill="#3f1182" d="M468.61,502.58c-2.62,2.04-18.23,0.29-20.61-0.12c-2.39-0.4-9.32,1.4-12.69,0
				c-3.37-1.4-0.68-5.78-0.12-9.66c0.01-0.02,0.01-0.04,0.01-0.07c0,1.79,1.64,4.74,4.76,5.26c4.2,0.7,16.07,1.77,17.95-0.19
				c1.82-1.9-0.82-3.23-0.82-3.23s0.29,0.07,0.79,0.2c0.15,0.04,0.32,0.08,0.49,0.12c0.24,0.06,0.52,0.13,0.8,0.2
				c0.15,0.04,0.3,0.08,0.46,0.11c0.93,0.24,2.05,0.52,3.18,0.8c0.77,0.21,1.46,0.42,2.07,0.62
				C470.42,498.5,469.86,501.61,468.61,502.58z"/><path fill="#ffdbcc" d="M531.61,268.69c-2.44-1.65-10.13,2.79-12.3,1.74c-1.84-0.89,1.42-3.6-0.51-3.69
				c-1.93-0.09-4.02,4.56-4.02,4.56l0.01,7.54C525.02,280.03,534.05,270.35,531.61,268.69z"/><path fill="#fa0" d="M474.1,356.74c-26.78-89.96,5.24-197.8,97.75-244.36c0.01,0.01,12.43,22.92,20.68,38.13
					c3.48,6.42,11.65,8.5,17.83,4.61c0.63-0.4,1.25-0.76,1.84-1.08c13.2-7.15,21.44,2.23,28.59,15.43
					c7.15,13.2,10.5,25.22-2.69,32.37c-3.63,1.97-8.96,3.8-14.96,5.16c0,0,0,0,0,0l28.89,53.33c0,0,0,0,0,0l-66.29,35.91
					c-1.38-5.94-3.22-11.3-5.19-14.94c-7.15-13.2-19.17-9.84-32.38-2.69c-13.2,7.15-22.58,15.39-15.43,28.59
					c1.97,3.64,5.45,8.11,9.68,12.51L474.1,356.74C474.1,356.74,474.1,356.74,474.1,356.74z"/><path fill="#ffdbcc" d="M509.87,301.16c1.54-6.23-14.16-1.46-18.04-7.51c2.18-1.33,4.7-2.6,3.23-4.47
					c-0.73-1.28-8.75,2.94-10.85,4.47l1.36,8.35C489.71,302.89,506.55,314.61,509.87,301.16z"/><path fill="#ffdbcc" d="M439.88,294.94l44.33-1.29l1.36,8.35c0,0-35.12,12.91-49.22,8.53L439.88,294.94z"/><path fill="#ffdbcc" d="M442.7,295.32c0,0,1.21,15.94,0.27,16.02c-12.87,1.08-47.45-20.95-50.43-24.49
					c-8.73-10.34,4.85-20.06,10.95-16.51C414.46,276.73,434.18,290.48,442.7,295.32z"/><path fill="#a87ceb" d="M428.56,285.02c-3.33,8.85-7.72,15.92-13.44,20.78c0,0-37.96-19.34-28.06-35.44
					C395.29,256.99,428.56,285.02,428.56,285.02z"/><path fill="#fff4e3" d="M838.91,786.66v31.95h92.87c8.81,0,15.98-7.16,15.98-15.97c0-8.81-7.17-15.98-15.98-15.98H838.91z"/><path fill="#92a838" d="M1108.36,785.32v34.64c0,2.75-2.22,4.97-4.97,4.97H838.91v-6.31h100.47c4.73-4.1,7.24-8.53,8.06-12.75
					c0.05-0.25,0.1-0.51,0.14-0.77c0.02-0.14,0.04-0.27,0.05-0.41h0c0-0.03,0-0.05,0.01-0.08c0.01-0.11,0.02-0.21,0.03-0.32
					c0-0.06,0.01-0.11,0.02-0.17c0.02-0.16,0.03-0.32,0.04-0.49c0-0.05,0-0.1,0-0.15c0-0.01,0-0.02,0-0.03
					c0.01-0.15,0.01-0.31,0.02-0.46c0-0.11,0.01-0.21,0.01-0.32c0-1.03-0.1-2.04-0.29-3.02c0,0,0,0,0-0.01
					c-0.04-0.22-0.09-0.44-0.14-0.66c-0.01-0.03-0.01-0.07-0.02-0.1c-0.05-0.2-0.1-0.39-0.16-0.58c-0.02-0.05-0.03-0.11-0.05-0.16
					c-0.05-0.18-0.11-0.35-0.17-0.52c-0.02-0.07-0.05-0.14-0.07-0.21c-0.06-0.16-0.11-0.32-0.17-0.47
					c-0.06-0.16-0.12-0.32-0.19-0.48c-0.15-0.36-0.31-0.71-0.49-1.05c-0.12-0.23-0.24-0.46-0.37-0.68c-0.13-0.22-0.26-0.44-0.4-0.66
					c-0.21-0.32-0.42-0.64-0.66-0.95c-0.15-0.21-0.31-0.41-0.47-0.6c-0.16-0.2-0.33-0.39-0.5-0.58c-0.17-0.19-0.35-0.37-0.53-0.56h0
					c-0.05-0.05-0.09-0.09-0.13-0.13c-0.09-0.09-0.19-0.18-0.29-0.27c-0.04-0.05-0.09-0.09-0.13-0.13
					c-0.45-0.41-0.92-0.79-1.41-1.14c-0.03-0.02-0.05-0.04-0.08-0.06c0,0,0,0,0,0c-0.17-0.12-0.34-0.23-0.51-0.35
					c-0.47-0.31-0.97-0.59-1.47-0.85c-0.11-0.06-0.23-0.11-0.34-0.17c0,0,0,0,0,0c-0.11-0.05-0.23-0.11-0.35-0.16c0,0,0,0,0,0
					c-0.47-0.21-0.95-0.4-1.45-0.57c-0.22-0.07-0.44-0.14-0.67-0.21c-0.15-0.05-0.31-0.09-0.46-0.13c0,0,0,0-0.01,0
					c-0.13-0.03-0.25-0.06-0.38-0.09c-0.13-0.03-0.26-0.06-0.38-0.09c-0.01,0-0.02,0-0.03,0c-0.23-0.05-0.46-0.09-0.69-0.12
					c-0.01,0-0.02,0-0.03-0.01c-0.08-0.01-0.17-0.02-0.26-0.04c-0.06,0-0.12-0.01-0.18-0.02c-0.26-0.03-0.53-0.06-0.8-0.08
					c-0.08-0.01-0.17-0.01-0.25-0.01c-0.24-0.02-0.49-0.02-0.74-0.03c-0.08,0-0.16,0-0.24,0h-92.87v-6.31h264.49
					c0.48,0,0.94,0.07,1.38,0.2C1106.85,781.15,1108.36,783.06,1108.36,785.32z"/><rect width="5.98" height="44.57" x="967.69" y="780.35" fill="#a6c236" transform="rotate(-180 970.682 802.639)"/><rect width="5.98" height="44.57" x="982.64" y="780.35" fill="#a6c236" transform="rotate(-180 985.633 802.639)"/><path fill="#ffb32e" d="M936.11,787.26c-2.93-3.48-7.32-5.69-12.21-5.69h-84.99v5.09h92.87
					C933.28,786.66,934.73,786.87,936.11,787.26z"/><path fill="#a6c236" d="M954.07,802.65c0,12.28-10,22.28-22.3,22.28h-92.87v-6.31h92.87c4.4,0,8.4-1.79,11.29-4.68
						c2.17-2.16,3.73-4.95,4.37-8.08c0.05-0.25,0.1-0.51,0.14-0.77c0.02-0.14,0.04-0.27,0.06-0.41c0-0.03,0-0.05,0.01-0.08
						c0.02-0.16,0.04-0.33,0.05-0.49c0.02-0.16,0.03-0.32,0.04-0.49c0.02-0.32,0.03-0.64,0.03-0.97c0-2.2-0.45-4.3-1.26-6.21
						c-0.15-0.36-0.31-0.71-0.49-1.05c-0.12-0.23-0.24-0.46-0.37-0.68c-0.13-0.22-0.26-0.44-0.4-0.66
						c-0.21-0.32-0.42-0.64-0.66-0.95c-0.15-0.21-0.31-0.41-0.47-0.6c-0.16-0.2-0.33-0.39-0.5-0.58c-0.17-0.19-0.35-0.37-0.53-0.56
						h0c-0.05-0.05-0.09-0.09-0.13-0.13c-0.05-0.05-0.1-0.09-0.14-0.14c-0.09-0.09-0.18-0.17-0.28-0.26
						c-0.45-0.41-0.92-0.79-1.41-1.14c-0.03-0.02-0.05-0.04-0.08-0.06c0,0,0,0,0,0c-0.17-0.12-0.34-0.23-0.51-0.35
						c-0.47-0.31-0.97-0.59-1.47-0.85c-0.11-0.06-0.23-0.11-0.34-0.17c0,0,0,0,0,0c-0.11-0.05-0.23-0.11-0.35-0.16c0,0,0,0,0,0
						c-0.47-0.21-0.95-0.4-1.45-0.57c-0.12-0.04-0.25-0.08-0.37-0.12c-0.1-0.03-0.19-0.05-0.29-0.08c-0.15-0.05-0.31-0.09-0.46-0.13
						c0,0,0,0-0.01,0c-0.13-0.03-0.25-0.06-0.38-0.09c-0.13-0.03-0.26-0.06-0.38-0.09c-0.01,0-0.02,0-0.03,0
						c-0.23-0.05-0.46-0.09-0.69-0.12c-0.01,0-0.02,0-0.03-0.01c-0.08-0.01-0.17-0.02-0.26-0.04c-0.06,0-0.12-0.01-0.18-0.02
						c-0.26-0.03-0.53-0.06-0.8-0.08c-0.08-0.01-0.17-0.01-0.25-0.01c-0.24-0.02-0.49-0.02-0.74-0.03c-0.08,0-0.16,0-0.24,0h-92.87
						v-6.31h92.87c1,0,2,0.07,2.97,0.2C945.64,782.01,954.07,791.36,954.07,802.65z"/><path fill="#f5dac2" d="M897.82,792.78h-54.7c-0.66,0-1.2-0.54-1.2-1.2l0,0c0-0.66,0.54-1.2,1.2-1.2h54.7c0.66,0,1.2,0.54,1.2,1.2
					l0,0C899.02,792.24,898.48,792.78,897.82,792.78z"/><path fill="#f5dac2" d="M936.93,815.56h-62.04c-0.66,0-1.2-0.54-1.2-1.2l0,0c0-0.66,0.54-1.2,1.2-1.2h62.04
					c0.66,0,1.2,0.54,1.2,1.2l0,0C938.13,815.02,937.59,815.56,936.93,815.56z"/><path fill="#f5dac2" d="M897.82,804.41h-34.16c-0.66,0-1.2-0.54-1.2-1.2l0,0c0-0.66,0.54-1.2,1.2-1.2h34.16
					c0.66,0,1.2,0.54,1.2,1.2l0,0C899.02,803.88,898.48,804.41,897.82,804.41z"/><path fill="#f5dac2" d="M857.27,804.41H842.5c-0.66,0-1.2-0.54-1.2-1.2l0,0c0-0.66,0.54-1.2,1.2-1.2h14.76
					c0.66,0,1.2,0.54,1.2,1.2l0,0C858.46,803.88,857.93,804.41,857.27,804.41z"/><path fill="#f5dac2" d="M931.05,804.41h-14.76c-0.66,0-1.2-0.54-1.2-1.2l0,0c0-0.66,0.54-1.2,1.2-1.2h14.76
					c0.66,0,1.2,0.54,1.2,1.2l0,0C932.25,803.88,931.71,804.41,931.05,804.41z"/><path fill="#f5dac2" d="M922.47,792.78h-4.87c-0.66,0-1.2-0.54-1.2-1.2l0,0c0-0.66,0.54-1.2,1.2-1.2h4.87c0.66,0,1.2,0.54,1.2,1.2
					l0,0C923.67,792.24,923.13,792.78,922.47,792.78z"/><path fill="#f5dac2" d="M868.11,815.56h-4.87c-0.66,0-1.2-0.54-1.2-1.2l0,0c0-0.66,0.54-1.2,1.2-1.2h4.87c0.66,0,1.2,0.54,1.2,1.2
					l0,0C869.31,815.02,868.77,815.56,868.11,815.56z"/><path fill="#f5dac2" d="M944.19,804.41h-4.87c-0.66,0-1.2-0.54-1.2-1.2l0,0c0-0.66,0.54-1.2,1.2-1.2h4.87c0.66,0,1.2,0.54,1.2,1.2
					l0,0C945.39,803.88,944.85,804.41,944.19,804.41z"/><path fill="#fff4e3" d="M1085.97,780.63c-1.25-0.45-208.75,0.85-209.65-0.44c-5.04-2.35-9.31-6.32-12.04-11.16h-0.03v-26.52h0.02
						c2.9-5.15,7.53-9.3,12.98-11.59h208.35C1080.68,747.02,1082.59,764.4,1085.97,780.63z"/><path fill="#ff6988" d="M1089.16,775.16c0.73,0.72,1.18,1.73,1.18,2.84c0,2.22-1.79,4.02-4.02,4.02H883.97
					c-1.05,0-2.08-0.06-3.1-0.18c-2.58-0.29-5.05-0.95-7.35-1.92c-0.33-0.14-0.67-0.29-0.99-0.44c-0.33-0.16-0.66-0.32-0.99-0.49
					c-0.27-0.14-0.54-0.28-0.81-0.43c-0.28-0.16-0.56-0.32-0.84-0.5c-0.24-0.14-0.47-0.29-0.69-0.43c-0.24-0.16-0.48-0.32-0.72-0.49
					c-0.21-0.15-0.41-0.29-0.62-0.44c-0.21-0.16-0.42-0.32-0.63-0.49c-0.19-0.15-0.37-0.29-0.55-0.44
					c-0.19-0.16-0.38-0.32-0.57-0.49c-0.16-0.14-0.32-0.29-0.48-0.44c-0.18-0.16-0.35-0.33-0.53-0.5c-0.07-0.07-0.14-0.14-0.22-0.22
					c-0.07-0.07-0.14-0.14-0.21-0.21c-0.16-0.16-0.32-0.32-0.46-0.49c-0.14-0.14-0.28-0.29-0.41-0.44
					c-0.14-0.16-0.29-0.32-0.42-0.49c-0.13-0.14-0.25-0.29-0.36-0.43c-0.13-0.16-0.27-0.33-0.39-0.5c-0.12-0.14-0.22-0.29-0.33-0.44
					c-0.12-0.16-0.24-0.32-0.36-0.49c-0.11-0.15-0.21-0.29-0.31-0.44c-0.12-0.16-0.22-0.33-0.33-0.49
					c-0.09-0.15-0.19-0.29-0.27-0.44c-0.1-0.16-0.2-0.33-0.3-0.5c-0.09-0.14-0.17-0.29-0.26-0.44c-0.01-0.02-0.02-0.04-0.03-0.06
					c-2.2-3.91-3.45-8.41-3.45-13.21c0-4.8,1.25-9.3,3.45-13.21c0.01-0.01,0.01-0.02,0.02-0.04c0.08-0.14,0.17-0.29,0.26-0.43
					c0.09-0.17,0.19-0.33,0.3-0.5c0.09-0.15,0.18-0.29,0.27-0.43c0.1-0.16,0.21-0.33,0.32-0.49c0.1-0.14,0.2-0.29,0.31-0.44
					c0.12-0.17,0.24-0.33,0.36-0.49c0.11-0.15,0.21-0.29,0.33-0.43c0.13-0.17,0.26-0.33,0.39-0.5c0.12-0.15,0.24-0.3,0.36-0.44
					c0.14-0.17,0.28-0.33,0.43-0.49c0.13-0.15,0.26-0.3,0.4-0.44c0.15-0.17,0.3-0.33,0.46-0.49c0.14-0.15,0.29-0.3,0.44-0.44
					c0.16-0.15,0.32-0.31,0.48-0.46c0.01-0.01,0.02-0.02,0.03-0.03c0.16-0.14,0.32-0.29,0.48-0.43c0.19-0.17,0.38-0.33,0.58-0.5
					c0.17-0.15,0.35-0.29,0.53-0.43c0.19-0.15,0.37-0.3,0.57-0.45c0.02-0.01,0.04-0.03,0.06-0.05c0.2-0.15,0.4-0.29,0.61-0.44
					c0.23-0.17,0.48-0.33,0.72-0.49c0.23-0.15,0.45-0.29,0.69-0.44c0.27-0.17,0.55-0.33,0.84-0.5c0.26-0.15,0.53-0.3,0.81-0.44
					c0.32-0.17,0.64-0.33,0.97-0.48c0.14-0.07,0.29-0.14,0.44-0.21c0.18-0.08,0.36-0.16,0.54-0.24c3.23-1.37,6.78-2.12,10.51-2.12
					h202.35c1.11,0,2.12,0.45,2.84,1.18c0.73,0.72,1.18,1.73,1.18,2.84c0,2.23-1.79,4.02-4.02,4.02H884.67c-0.67,0-1.34,0.03-2,0.1
					c-0.98,0.09-1.93,0.26-2.86,0.49c-0.51,0.13-1.02,0.27-1.51,0.44c-0.45,0.15-0.89,0.31-1.33,0.49
					c-0.32,0.14-0.65,0.28-0.96,0.44c-0.33,0.15-0.65,0.31-0.98,0.5c-0.25,0.13-0.5,0.27-0.75,0.43c-0.26,0.15-0.52,0.31-0.78,0.49
					c-0.2,0.13-0.4,0.26-0.59,0.41c-0.02,0.01-0.03,0.02-0.05,0.04c-0.22,0.16-0.43,0.32-0.64,0.49c-0.18,0.14-0.36,0.29-0.53,0.43
					c-0.19,0.16-0.38,0.32-0.55,0.5c-0.16,0.14-0.31,0.29-0.46,0.43c-0.17,0.16-0.33,0.32-0.48,0.49c-0.14,0.14-0.27,0.29-0.4,0.44
					c-0.15,0.16-0.29,0.32-0.42,0.49c-0.13,0.14-0.25,0.29-0.36,0.43c-0.13,0.16-0.25,0.33-0.37,0.5c-0.12,0.15-0.22,0.3-0.32,0.44
					c-0.11,0.16-0.22,0.32-0.31,0.48c-0.1,0.15-0.19,0.29-0.28,0.44c-0.11,0.16-0.2,0.33-0.29,0.5c-0.09,0.15-0.17,0.29-0.24,0.44
					c-0.1,0.16-0.17,0.32-0.26,0.49c-0.07,0.15-0.14,0.29-0.21,0.44c-0.08,0.16-0.15,0.32-0.22,0.49c-0.07,0.15-0.12,0.29-0.18,0.44
					c-0.07,0.17-0.13,0.33-0.19,0.5c-0.06,0.14-0.11,0.29-0.15,0.43c-0.06,0.16-0.12,0.32-0.15,0.49c-0.05,0.15-0.09,0.3-0.14,0.44
					c-0.05,0.16-0.09,0.33-0.13,0.49c-0.04,0.14-0.07,0.29-0.1,0.43c-0.04,0.16-0.07,0.33-0.1,0.5c-0.03,0.14-0.06,0.29-0.08,0.43
					c-0.03,0.16-0.05,0.32-0.07,0.49c-0.02,0.14-0.05,0.29-0.06,0.44c-0.02,0.16-0.03,0.32-0.05,0.49
					c-0.02,0.15-0.02,0.29-0.03,0.44c-0.01,0.16-0.02,0.32-0.02,0.49c-0.01,0.14-0.02,0.29-0.01,0.44c0,0.08,0,0.15,0,0.23
					c0,0.09,0,0.18,0,0.26c0,0.14,0,0.29,0.01,0.43c0,0.17,0.01,0.33,0.02,0.49c0.01,0.15,0.02,0.3,0.04,0.44
					c0.01,0.17,0.02,0.33,0.05,0.49c0.02,0.14,0.04,0.29,0.06,0.43c0.01,0.17,0.04,0.33,0.07,0.5c0.02,0.15,0.05,0.29,0.08,0.44
					c0.03,0.16,0.06,0.32,0.1,0.48c0.02,0.14,0.06,0.29,0.1,0.44c0.04,0.17,0.08,0.33,0.13,0.5c0.04,0.14,0.09,0.29,0.13,0.43
					c0.05,0.17,0.1,0.33,0.16,0.49c0.04,0.15,0.09,0.3,0.15,0.44c0.05,0.17,0.12,0.33,0.19,0.5c0.05,0.14,0.12,0.29,0.18,0.43
					c0.07,0.17,0.14,0.33,0.22,0.49c0.06,0.14,0.14,0.29,0.21,0.44c0.08,0.17,0.16,0.33,0.25,0.49c0.07,0.15,0.16,0.29,0.24,0.43
					c0.1,0.17,0.19,0.33,0.29,0.5c0.09,0.15,0.18,0.3,0.28,0.44c0.1,0.17,0.21,0.33,0.32,0.49c0.1,0.15,0.21,0.29,0.32,0.44
					c0.12,0.17,0.24,0.33,0.37,0.49c0.11,0.15,0.23,0.3,0.36,0.44c0.13,0.17,0.27,0.33,0.43,0.5c0.13,0.15,0.26,0.29,0.41,0.44
					c0.15,0.16,0.31,0.33,0.48,0.48c0.15,0.16,0.31,0.3,0.47,0.44c0.18,0.17,0.37,0.33,0.56,0.5c0.17,0.15,0.35,0.3,0.53,0.44
					c0.21,0.17,0.43,0.33,0.65,0.49c0.21,0.15,0.42,0.3,0.64,0.44c0.25,0.17,0.51,0.33,0.78,0.49c0.25,0.16,0.5,0.3,0.76,0.44
					c0.32,0.18,0.64,0.34,0.98,0.5c0.31,0.15,0.64,0.3,0.97,0.43c0.44,0.18,0.89,0.34,1.34,0.49c0.51,0.18,1.03,0.32,1.56,0.44
					c1,0.25,2.04,0.41,3.1,0.49c0.55,0.05,1.09,0.07,1.64,0.07h201.65C1087.43,773.98,1088.43,774.43,1089.16,775.16z"/><path fill="#f5dac2" d="M986.02,746.32H882.13c-0.6,0-1.09-0.49-1.09-1.09l0,0c0-0.6,0.49-1.09,1.09-1.09h103.88
				c0.6,0,1.09,0.49,1.09,1.09l0,0C987.1,745.84,986.62,746.32,986.02,746.32z"/><path fill="#f5dac2" d="M1058.66,766.95H941.15c-0.6,0-1.09-0.49-1.09-1.09l0,0c0-0.6,0.49-1.09,1.09-1.09h117.51
				c0.6,0,1.09,0.49,1.09,1.09l0,0C1059.74,766.47,1059.26,766.95,1058.66,766.95z"/><path fill="#f5dac2" d="M986.02,756.86h-65.74c-0.6,0-1.09-0.49-1.09-1.09l0,0c0-0.6,0.49-1.09,1.09-1.09h65.74
				c0.6,0,1.09,0.49,1.09,1.09l0,0C987.1,756.37,986.62,756.86,986.02,756.86z"/><path fill="#f5dac2" d="M910.7,756.86h-29.7c-0.6,0-1.09-0.49-1.09-1.09l0,0c0-0.6,0.49-1.09,1.09-1.09h29.7
				c0.6,0,1.09,0.49,1.09,1.09l0,0C911.78,756.37,911.3,756.86,910.7,756.86z"/><path fill="#f5dac2" d="M1047.74,756.86h-29.7c-0.6,0-1.09-0.49-1.09-1.09l0,0c0-0.6,0.49-1.09,1.09-1.09h29.7
				c0.6,0,1.09,0.49,1.09,1.09l0,0C1048.83,756.37,1048.34,756.86,1047.74,756.86z"/><path fill="#f5dac2" d="M1029.36,747.41h-11.32c-0.6,0-1.09-0.49-1.09-1.09l0,0c0-0.6,0.49-1.09,1.09-1.09h11.32
				c0.6,0,1.09,0.49,1.09,1.09l0,0C1030.45,746.92,1029.96,747.41,1029.36,747.41z"/><path fill="#f5dac2" d="M930.84,766.95h-11.32c-0.6,0-1.09-0.49-1.09-1.09l0,0c0-0.6,0.49-1.09,1.09-1.09h11.32
				c0.6,0,1.09,0.49,1.09,1.09l0,0C931.92,766.47,931.44,766.95,930.84,766.95z"/><path fill="#f5dac2" d="M1072.15,756.86h-11.32c-0.6,0-1.09-0.49-1.09-1.09l0,0c0-0.6,0.49-1.09,1.09-1.09h11.32
				c0.6,0,1.09,0.49,1.09,1.09l0,0C1073.24,756.37,1072.75,756.86,1072.15,756.86z"/><polygon fill="#cf3a3a" points="1006.65 760.59 999.87 756.73 993.09 760.59 993.09 744.15 1006.65 744.15"/><g><path fill="#ffd0bd" d="M954.15,475.54l-12.15,11.74c6.89,8.94,49.85,17.31,53.26,12.03c7.03-10.9,0.8-26.37,0.8-26.37
				L954.15,475.54z"/><path fill="#8f60d6" d="M970.29,500.96c1.57,0.28,0.15-18.94,2.36-28.96c15.11,0.88,19.32,0.28,37.33,0c0,0-2.29,22.8-7.12,28.96
				C1000.17,504.4,970.29,500.96,970.29,500.96z"/><path fill="#ffd0bd" d="M907.02,444.54c2.76-3.56,6.87,6.07,11.8,5.65c0.71-0.84-0.15-4.87,1.27-4.57
				c2.87,0.6,2.55,7.48,3.56,10.16l-5.99,5.89C913.33,460,901.94,451.1,907.02,444.54z"/><path fill="#ffd0bd" d="M957.86,476.77c-8.54-1.93-22.53-12.76-36.12-22.93l-5.47,5.98c0,0,19.48,27.78,33.09,31.67L957.86,476.77
				z"/><path fill="#fa0" d="M776.48,453.74c3.75-0.99,9.03-1.48,14.73-1.38c0,0,0,0,0,0l-17.43-66.02l71-18.75c0,0,0,0,0,0
			c-0.05,5.81,0.44,11.01,1.42,14.72c3.59,13.58,15.26,13.18,28.83,9.6c13.58-3.59,23.93-9,20.34-22.58
			c-0.98-3.73-3.14-8.52-6.05-13.5c0,0,0,0,0,0L956.8,338c21.82,43.44,27.84,94.68,9.65,144.4l0.05-0.01
			c-5.71,15.23-12.55,33.62-18.73,54.12l-41.57,10.98c0.08-5.68-0.42-10.98-1.41-14.73c-3.59-13.58-15.26-13.18-28.84-9.6
			c-13.58,3.58-23.92,9-20.33,22.58c0.99,3.74,3.17,8.58,6.03,13.51l-39.46,10.42c0,0,0,0,0,0l-19.24-72.84c0,0,0,0,0,0
			c-4.91,2.91-9.74,5.09-13.49,6.08c-13.58,3.59-19-6.76-22.58-20.34S762.9,457.32,776.48,453.74z"/><path fill="#3f1182" d="M967.77,727.54c0-0.07,0.02-0.13,0.05-0.19c0.27-4.96,13.7-3.89,16.12-13.27
			c4.04-8.04,10.54,9.97,14.6-0.89c3-0.4,2.51,5.36,2.75,5.58c0.83,0.86,1.49,4.48,0.77,5.14c1.6,11.58-7.01,4.08-22.82,7.01
			C965.31,732.86,967.88,729.27,967.77,727.54z"/><path fill="#3f1182" d="M1031.24,713.24l14.98,1.26c0,0,7.25,13.34,2.8,16.82c-4.45,3.48-19,1.41-20.58-0.85
			C1025.73,726.58,1031.24,713.24,1031.24,713.24z"/><path fill="#ffb53d" d="M980.87,717.1c7.06,1.28,14.16,1.19,21.3,0l11.46-86.45l-28.57-10.05
			C982.78,654.18,980.87,717.1,980.87,717.1z"/><path fill="#ffb53d" d="M984.27,639.05l27.7,3.06l15.17-93.32c0,0-37.83-7.36-39.5,7.21L984.27,639.05z"/><path fill="#ffb53d" d="M1026.05,717.1c7.37,1.27,17.21,1.19,25.12,0l-0.72-91.42l-31.07-6.67
			C1021.47,654.28,1026.05,717.1,1026.05,717.1z"/><path fill="#ffb53d" d="M1011.64,555.16l9.51,84.29l29.24-0.72l0.08-29.5v-0.06l0.1-39.16l0.02-8.59
			C1050.58,561.41,1011.44,539.77,1011.64,555.16z"/><path fill="#d4c8bc" d="M1024.29,576.54c0,0,12.14,4.73,19.18,6.52c5.27,1.33,6.63,17.87,6.99,26.11l0.1-39.16L1024.29,576.54z"/><path fill="#ffd0bd" d="M1030.82,472.13c-8.77,11.26-18.87,8.29-17.85,0.56c1.07-1,1.53-2.21,1.68-3.64
			c0.2-1.81-0.07-3.97-0.16-6.47c-0.02-0.42-0.03-0.86-0.03-1.31l1.23-0.16l2.91-0.38l9.3-1.21c0.04,0.79,0.07,1.63,0.09,2.49
			c0.09,2.89,0.2,6,1.06,8.05C1029.45,471.04,1030.02,471.77,1030.82,472.13z"/><path fill="#8f60d6" d="M1054.31,569.17c-4.66,8.14-33.22,8.76-52.44,5.6h-0.04c-4.06-0.67-7.7-1.51-10.61-2.48
			c-4.94-1.66-7.77-3.7-6.95-5.95c3.93-10.74,4.88-24.59,5.12-38.2c0.44-23.61-1.28-46.51,6.68-51.2c3.22-1.9,7.97-3.81,16.22-5.42
			c0.46-0.09,0.92-0.21,1.39-0.31c0,0,1.15,3.74,3.56,4.25c3.06,0.67,9.87-2.15,11.57-5.2c0.91,0.26,1.74,0.77,2.63,0.89
			c11.04,1.55,19.22,7,22.23,15.8c4.38,12.75,0.42,23.94-3.33,36.81C1046.97,535.31,1045.3,549.13,1054.31,569.17z"/><path fill="#c8bcd4" d="M1046.5,513.37c-9.07,16.95-19.9,20.42-36.52,27.27c-10.08,4.15-16.38,23.07-18.76,31.65
			c-4.94-1.66-7.77-3.7-6.95-5.95c3.93-10.74,4.88-24.59,5.12-38.2L1046.5,513.37z"/><path fill="#fff" d="M1031.44,471.15c-2.88,2.9-8.18,7.26-13.52,6.75c-4.96-0.47-5.74-3.89-5.62-6.38
			c0.45-0.12,0.92-0.22,1.39-0.32c0,0,1.14,3.75,3.55,4.26c3.07,0.66,9.87-2.15,11.58-5.21
			C1029.72,470.52,1030.6,470.82,1031.44,471.15z"/><path fill="#873c29" d="M1045.11,421.2c-2.59-5.32-8.31-4.76-19.51-4.53c-11.2,0.23-20.09,9.5-19.86,20.7
				c0.23,11.2,8.17,18.65,19.3,19.94C1039.81,459.02,1053,437.38,1045.11,421.2z"/><path fill="#ffdbcc" d="M1003.56,419.93c0,0-9.4,16.74-5.3,31.3c2.09,7.43,8.84,15.19,18.15,14.73
					c14.77-0.74,18.66-10.8,19.73-16.8c1.7-9.57,1.79-19.47-0.03-25.18L1003.56,419.93z"/><ellipse cx="1023.52" cy="442.52" fill="#222731" rx="2.93" ry="2.05" transform="rotate(-88.545 1023.522 442.502)"/><ellipse cx="1003.71" cy="441.77" fill="#222731" rx="1.83" ry="2.61" transform="rotate(-2.08 1002.995 441.465)"/><path fill="#f2e0d5" d="M1010.66,444.3c0.97-1.65,2.73-2.99,2.82-5.08c0.03-0.34,0.55-0.37,0.6-0.03
					c1.13,2.62-2.14,4.18-2.26,6.15c-0.15,2.46,3.07,3.13,1.84,3.2C1012.19,448.64,1009.46,447.25,1010.66,444.3z"/><path fill="#873c29" d="M1020.67,437.62c0.11-0.12,0.24-0.23,0.36-0.34c0.28-0.23,0.58-0.41,0.92-0.55
					c0.62-0.27,1.31-0.36,1.98-0.27c1.3,0.16,2.29,1.09,2.82,2.25c0.19,0.41-0.51,0.74-0.72,0.34c-0.23-0.43-0.53-0.74-0.97-0.97
					c-0.39-0.2-0.84-0.36-1.25-0.37c-0.23,0-0.43,0.01-0.61,0.06c-0.13,0.03-0.26,0.07-0.38,0.12c-0.13,0.05-0.13,0.05-0.23,0.11
					c-0.22,0.12-0.39,0.24-0.53,0.37c-0.25,0.24-0.41,0.53-0.76,0.64c-0.41,0.13-0.96-0.19-0.94-0.66
					C1020.37,438.05,1020.47,437.83,1020.67,437.62z"/><path fill="#873c29" d="M1005.86,436.79c-0.11-0.1-0.23-0.18-0.35-0.27c-0.27-0.19-0.55-0.32-0.86-0.42
					c-0.57-0.2-1.19-0.21-1.78-0.09c-1.14,0.24-1.95,1.14-2.33,2.21c-0.14,0.38,0.51,0.62,0.67,0.24c0.17-0.4,0.41-0.7,0.78-0.93
					c0.33-0.21,0.72-0.39,1.08-0.43c0.2-0.02,0.38-0.02,0.55,0.01c0.12,0.02,0.23,0.04,0.35,0.08c0.12,0.03,0.12,0.03,0.21,0.08
					c0.21,0.09,0.37,0.19,0.5,0.29c0.24,0.19,0.41,0.44,0.73,0.51c0.38,0.09,0.83-0.24,0.78-0.65
					C1006.15,437.15,1006.05,436.97,1005.86,436.79z"/><path fill="#942525" d="M1009.98,452.92c-0.04,1.1,0.4,2.12,1.14,2.88c0.8,0.83,1.95,1.36,3.24,1.4
							c1.39,0.04,2.65-0.49,3.5-1.37c0.68-0.7,1.11-1.61,1.14-2.63c0.07-2.29-2.88-0.66-4.57-0.71
							C1013.04,452.45,1010.06,450.63,1009.98,452.92z"/><path fill="#ff7878" d="M1011.13,455.8c0.8,0.83,1.95,1.36,3.24,1.4c1.39,0.04,2.65-0.49,3.5-1.37c-0.66-0.7-1.86-1.2-3.25-1.24
							C1013.11,454.55,1011.78,455.04,1011.13,455.8z"/><ellipse cx="1024.01" cy="448.29" fill="#ffb394" rx="4.66" ry="1.91" transform="rotate(-2.08 1023.274 447.984)"/><ellipse cx="1003.18" cy="446.93" fill="#ffb394" rx="3.96" ry="1.63"/><circle cx="1022.97" cy="441.69" r=".57" fill="#fff"/><circle cx="1003.27" cy="440.84" r=".51" fill="#fff"/><path fill="#613b2a" d="M999.41,415.46c-1.82,2.63-1.62,8.97,2.52,10.38c8.31,2.82,21.59,0.18,24.7,0.06
				c11.15-0.41,1.45,10.43,9.77,15.66c0.08-1.96,0.69-3.49,2.69-3.71c2.36-0.13,3.24,1.56,3.61,2.65c0,0,9.94-17.57-2.34-23.71
				c0,0-2.08-5.15-6.29-6.93C1026.92,406.82,1007.32,404.05,999.41,415.46z"/><path fill="#ffdbcc" d="M1041.5,438.13c-1.42-2.73-4.16,0.16-4.66,1.25c-1.06,2.33-1.78,10.08-1.78,10.08
				C1042.65,449.31,1042.92,440.85,1041.5,438.13z"/><path fill="#f2e0d5" d="M1040.26,440.34c-0.53-0.29-1.33-0.21-1.65,0.37c-0.14,0.25,0.2,0.5,0.37,0.26
				c0.13-0.19,0.37-0.27,0.59-0.19c0.19,0.07,0.35,0.3,0.43,0.49c0.25,0.56-0.05,1.21-0.28,1.72c-0.24,0.51-0.54,0.99-0.89,1.43
				c-0.37,0.47-0.87,0.8-1.25,1.26c-0.36,0.43,0.23,1.11,0.71,0.83c0.37-0.21,0.66-0.56,0.93-0.88c0.25-0.3,0.49-0.62,0.69-0.95
				c0.43-0.68,0.8-1.44,0.97-2.23C1041.05,441.74,1040.98,440.73,1040.26,440.34z"/><path fill="#ffdbcc" d="M994.78,519.19l-42.84-1.03l-2.09,8.59c8.16,2.54,44.16,15.76,49.99,8.39L994.78,519.19z"/><path fill="#ffdbcc" d="M991.77,537.34l3-18.15l41.97-26.78c0,0,14.53,10.24,8.44,19.03
			C1038.67,520.83,1000.38,539.06,991.77,537.34z"/><path fill="#8f60d6" d="M1021.47,530.32c-6.9-2.84-14.5-17.11-15.49-21c0,0,34.98-30.23,45.23-19.57
			C1068.33,507.56,1021.47,530.32,1021.47,530.32z"/><path fill="#ffdbcc" d="M936.01,514.94c1.24-2.16,6.56,2.15,7.75,1.91c3.17-0.62-2.47-6.42,1.94-5.34
			c1.54,0.38,5.23,6.27,7.29,6.67l-1.72,8.69C938,528.35,930.41,524.65,936.01,514.94z"/></g><g><path fill="#ffd4c2" d="M508.77,803.39c0,0-0.01,0-0.03,0.01c-15.94,2.46-28.88,3.74-28.88,3.74l-4.17-8.4
			c4.85-2.03,15.09-6.72,26.7-11.54l0.23,0.01C502.55,792.6,504.61,797.99,508.77,803.39z"/><path fill="#4e2e7d" d="M485.11,827.56c0.22-0.1,0.08-0.11,0.14-0.15c0.25-0.16,0.42-0.14,0.62-0.34
				c2.37-2.38,1.44-4.79-0.51-7.18c-0.16-0.2-0.43-0.5-0.63-0.72c-0.19-0.22-0.38-0.44-0.58-0.68c-0.2-0.24-0.4-0.53-0.6-0.8
				c-0.2-0.27-0.5-0.68-0.64-0.96c-0.14-0.28-0.24-0.48-0.35-0.71c-0.11-0.23-0.15-0.34-0.22-0.56c-0.07-0.23-0.15-0.52-0.17-0.75
				c-0.03-0.23-0.05-0.5-0.05-0.7c0.01-0.2,0.04-0.38,0.06-0.54c0.02-0.16,0.05-0.26,0.09-0.38c0.08-0.27,0.2-0.57,0.31-0.79
				c0.11-0.22,0.19-0.35,0.33-0.51c0.14-0.15,0.26-0.32,0.38-0.45c0.11-0.13,0.2-0.2,0.3-0.31c0.26-0.3,0.56-0.52,0.85-0.78
				c0.29-0.26,0.54-0.56,0.85-0.8c0.03-0.02,0.06-0.04,0.08-0.06c2.31-2.83-0.08-4.73-2.63-6.27c-2.55-1.54-2.86-3.69-0.85-5.44
				c0.7-0.61,0.47-0.16,0.87-0.62c0.09-0.11-0.04-0.1-0.05-0.15c-0.61-2.2-4.12-1.11-5.08-1.02c-0.75,0.07-0.19,0.03-0.19,0.03
				c-1.22-0.66-3.86-0.23-4.52,0.31c-0.41,0.34-0.11,0.08-0.12,0.08c-1.02-0.07-4.27,0.58-4.57,1.41
				c-1.53,4.23,2.82,15.16,4.08,19.27C473.6,821.2,479.93,829.94,485.11,827.56z"/><path fill="#ffd4c2" d="M556.05,791.32c0,0,0,0.01-0.01,0.03c-6.9,15.48-13.13,27.62-13.13,27.62l-9.79-1.1
			c0.97-5.44,2.4-9.59,4.75-22.59C537.88,795.28,548.91,791.92,556.05,791.32z"/><path fill="#4e2e7d" d="M567.04,824.5c0.01-0.07-0.01-0.12-0.05-0.18c0.06-0.22,0.1-0.46,0.12-0.72c-0.02-3.05-2.89-3.9-6.41-4.57
			c-0.29-0.06-0.6-0.12-0.9-0.17c-0.28-0.05-0.56-0.1-0.84-0.15c-0.33-0.06-0.66-0.13-0.99-0.19c-0.4-0.08-0.8-0.16-1.21-0.25
			c-0.29-0.07-0.58-0.13-0.88-0.21c-0.23-0.06-0.45-0.12-0.68-0.18c-0.32-0.09-0.64-0.19-0.95-0.3c-0.3-0.1-0.6-0.21-0.89-0.33
			c-0.24-0.1-0.47-0.2-0.7-0.31c-0.16-0.08-0.31-0.16-0.46-0.24c-0.34-0.18-0.66-0.38-0.96-0.6c-0.22-0.15-0.42-0.31-0.62-0.48
			c-0.19-0.16-0.37-0.33-0.54-0.5c-0.12-0.12-0.23-0.25-0.34-0.38c-0.28-0.33-0.52-0.69-0.74-1.07c-0.2-0.36-0.38-0.75-0.53-1.16
			c-0.01-0.03-0.03-0.07-0.04-0.11c-1.69-4.88-6.97,0.7-6.97,0.7c-3.66,3.26-5.49,0.72-6.19-0.81c-0.24-0.53-0.35-0.94-0.35-0.94
			c-0.06-0.01-0.11-0.01-0.17-0.02c-2.65-0.13-2.22,4.96-2.46,5.15c0,0,0,0,0,0c-0.78,0.78-1.44,4.12-0.79,4.75c0,0,0,0,0,0
			c-0.3,0.42-0.34,4.58,0.19,5.06c2.69,2.46,8.29-0.17,20.84,1.77C565.41,830.07,566.92,826.1,567.04,824.5z"/><path fill="#819431" d="M539.1,767.35c-15.81,4.36-48.5,22.58-55.4,25.19c1.51,6.3,3.76,12.13,7.06,17.28
			c4.11-1.58,58.74-18.14,65.14-24.58C556,785.16,542.7,766.36,539.1,767.35z"/><path fill="#819431" d="M486.33,723.58c0.09,21.62,27.98,52.35,40.87,67.41c1.77,2.07,20.26,3.47,21.73,0.91
			c7.01-12.21-24.67-65-35.89-75.14L486.33,723.58z"/><path fill="#92a838" d="M551.17,751.25c-8.9,14.74-16.86,52.25-16.86,52.25s14.16,4.87,18.23,4.49
			c4.14-9.84,23.55-40.13,19.58-56.87C569.55,740.27,553.19,747.88,551.17,751.25z"/><path fill="#92a838" d="M480.87,764.66c18.98,14.48,52.41,0.98,71.67,0.34c2.86-0.1,19.98-12.17,19.18-15.16
			c-5.84-21.88-96.02-33.08-96.02-33.08S464.77,752.38,480.87,764.66z"/><path fill="#ffd0bd" d="M521.15,639.72c3.84,12.26,12.16,12.06,13.29,4.86c-0.56-1.16-0.61-2.36-0.37-3.68
			c0.29-1.68,1.03-3.54,1.7-5.77c0.12-0.38,0.23-0.77,0.34-1.17l-0.89-0.44l-2.1-1.05l-6.7-3.35c-0.23,0.7-0.45,1.45-0.68,2.22
			c-0.78,2.58-1.62,5.34-2.77,6.97C522.44,639.07,521.84,639.58,521.15,639.72z"/><path fill="#e03131" d="M470.84,734.01c3.16,13.38,62.59,3.13,61.98-6.66c-2.27-36.29,29.15-66.68,2.77-82.12
			c-0.37-0.22-0.76-0.44-1.16-0.65c0,0-2.02,3.05-4.31,2.87c-2.92-0.22-8.27-4.55-8.98-7.73c-0.89,0-1.75,0.03-2.59,0.1
			C485.81,642.63,471.85,711.39,470.84,734.01z"/><path fill="#ff5c5c" d="M518.55,639.82c1.81,3.36,5.39,8.67,10.32,9.63c4.56,0.9,6.17-1.96,6.73-4.22
			c-0.37-0.22-0.76-0.44-1.16-0.65c0,0-2.02,3.05-4.31,2.87c-2.92-0.22-8.27-4.55-8.98-7.73
			C520.26,639.71,519.4,639.75,518.55,639.82z"/><path fill="#f7e9d9" d="M512.34,704.73c-0.01-0.02-0.02-0.04-0.03-0.06C512.3,704.68,512.31,704.7,512.34,704.73z"/><path fill="#ffdbcc" d="M545.13,701.54l43.48,7.71l-0.86,8.57c-8.33,0.79-36.97,6.68-50.82-2.41L545.13,701.54z"/><path fill="#ffdbcc" d="M540.39,717.21l5.62-15.3l-26.22-43.56c0,0-19.48,3.46-17.78,13.8C503.81,683.2,532.05,715.1,540.39,717.21
			z"/><path fill="#ff5c5c" d="M512.76,694.03L533.28,678c0,0-12.06-34.38-28.21-27.68C482.72,659.6,512.76,694.03,512.76,694.03z"/><path fill="#ffdbcc" d="M610.59,718.1c-0.53-2.38-9.79-3.68-12.03-5.63c-2.39-2.07,2.75-3.78,0.45-5.99
			c-1.65-1.58-10.39,2.76-10.39,2.76l-0.86,8.57C599.46,724.25,612.1,724.97,610.59,718.1z"/><path fill="#ffd4c2" d="M558.52,598.11c0,0,5.81,18.7-1.39,32.34c-3.67,6.96-12.05,13.26-21.23,10.82
				c-14.57-3.88-16.31-14.74-16.09-20.96c0.34-9.9,2.36-19.8,5.4-25.1L558.52,598.11z"/><ellipse cx="533.63" cy="617.31" fill="#222731" rx="2.82" ry="1.98" transform="rotate(-79.386 533.653 617.302)"/><ellipse cx="552.43" cy="620.58" fill="#222731" rx="2.51" ry="1.76" transform="rotate(-75.854 552.434 620.563)"/><path fill="#f2e0d5" d="M545.38,621.57c-0.58-1.75-1.97-3.36-1.63-5.35c0.04-0.32-0.44-0.46-0.56-0.15
				c-1.59,2.24,1.17,4.36,0.89,6.25c-0.35,2.35-3.52,2.33-2.38,2.64C543.07,625.34,545.92,624.59,545.38,621.57z"/><path fill="#572416" d="M537.3,613.26c-0.08-0.14-0.18-0.26-0.27-0.39c-0.22-0.28-0.47-0.5-0.75-0.71
				c-0.53-0.38-1.16-0.6-1.81-0.66c-1.26-0.11-2.38,0.56-3.11,1.55c-0.26,0.35,0.33,0.8,0.61,0.46c0.31-0.36,0.65-0.59,1.11-0.72
				c0.41-0.11,0.86-0.17,1.25-0.1c0.22,0.04,0.4,0.1,0.57,0.18c0.11,0.06,0.23,0.12,0.33,0.19c0.11,0.07,0.11,0.07,0.2,0.15
				c0.18,0.16,0.32,0.31,0.42,0.46c0.19,0.27,0.28,0.58,0.59,0.76c0.36,0.21,0.94,0.02,1.01-0.43
				C537.49,613.73,537.45,613.5,537.3,613.26z"/><path fill="#572416" d="M551.42,615.46c0.12-0.07,0.25-0.13,0.38-0.18c0.29-0.12,0.58-0.19,0.89-0.22
				c0.58-0.07,1.16,0.04,1.69,0.27c1.03,0.46,1.6,1.47,1.75,2.55c0.05,0.39-0.6,0.48-0.68,0.1c-0.08-0.41-0.25-0.74-0.55-1.04
				c-0.27-0.26-0.6-0.51-0.93-0.62c-0.19-0.06-0.35-0.1-0.52-0.11c-0.11-0.01-0.23,0-0.34,0c-0.12,0.01-0.12,0.01-0.22,0.03
				c-0.21,0.04-0.38,0.1-0.53,0.17c-0.27,0.13-0.47,0.33-0.79,0.34c-0.37,0.01-0.74-0.39-0.6-0.77
				C551.06,615.74,551.2,615.59,551.42,615.46z"/><path fill="#fff" d="M544.28,629.82c-0.19,1.04-0.8,1.91-1.66,2.48c-0.92,0.62-2.11,0.89-3.34,0.67c-1.32-0.24-2.4-1-3.02-1.99
						c-0.5-0.79-0.72-1.74-0.55-2.7c0.39-2.17,2.85-0.04,4.45,0.25C541.5,628.76,544.68,627.65,544.28,629.82z"/><path fill="#fff" d="M542.63,632.3c-0.92,0.62-2.11,0.89-3.34,0.67c-1.32-0.24-2.4-1-3.02-1.99c0.76-0.53,2-0.75,3.31-0.51
						C541.01,630.72,542.16,631.45,542.63,632.3z"/><ellipse cx="532.01" cy="622.64" fill="#ffba9e" rx="1.98" ry="4.81" transform="rotate(-75.854 532.015 622.62)"/><ellipse cx="551.75" cy="626.27" fill="#ffba9e" rx="1.57" ry="3.81" transform="rotate(-75.854 551.747 626.253)"/><circle cx="534.31" cy="616.63" r=".55" fill="#fff"/><circle cx="553.03" cy="619.8" r=".49" fill="#fff"/><path fill="#572416" d="M566.15,600.85c0.91,3.29-0.34,12.62-9.53,12.1c-9.17-0.52-14.77-7.21-17.81-8.38
			c-10.89-4.19-5.89,13.92-17.63,13.62c0.49-3.29,0.17-5.02-0.4-8.3c-2.29-0.93-4.55,1.35-5.28,2.33c0,0-4.56-21.79,9.67-23.88
			c0,0,3.8-4.54,8.57-4.93C541.85,582.74,562.19,586.55,566.15,600.85z"/><path fill="#ffd4c2" d="M516.81,608.16c1.04-1.26,2.31-0.63,3.28,0.26c0.91,0.82,1.26,2.11,0.86,3.27
			c-0.97,2.78,0.01,6.09-0.14,9.14C513.28,619.06,514.81,610.58,516.81,608.16z"/><path fill="#f2e0d5" d="M517.57,610.64c0.59-0.18,1.37,0.08,1.56,0.71c0.08,0.28-0.3,0.45-0.43,0.18
			c-0.09-0.21-0.31-0.35-0.55-0.31c-0.21,0.03-0.42,0.23-0.54,0.39c-0.37,0.5-0.21,1.22-0.08,1.78c0.13,0.56,0.33,1.1,0.59,1.62
			c0.27,0.54,0.7,0.99,0.97,1.52c0.26,0.51-0.47,1.05-0.89,0.68c-0.32-0.29-0.54-0.7-0.74-1.08c-0.19-0.35-0.35-0.72-0.49-1.1
			c-0.28-0.77-0.49-1.61-0.49-2.43C516.49,611.86,516.78,610.87,517.57,610.64z"/></g><g><path fill="#a487d9" d="M325.61,461.33c-0.47,0-0.93-0.22-1.22-0.63c-2.39-3.37-4.65-6.74-6.72-10.04c-0.44-0.7-0.23-1.63,0.47-2.07
			c0.7-0.44,1.63-0.23,2.07,0.47c2.04,3.25,4.27,6.58,6.62,9.9c0.48,0.68,0.32,1.61-0.35,2.09
			C326.21,461.24,325.91,461.33,325.61,461.33z M312.9,440.99c-0.54,0-1.05-0.29-1.32-0.79c-1.97-3.67-3.75-7.33-5.29-10.9
			c-0.33-0.76,0.02-1.64,0.78-1.97c0.76-0.33,1.64,0.02,1.97,0.78c1.51,3.49,3.26,7.08,5.19,10.68c0.39,0.73,0.12,1.64-0.61,2.03
			C313.38,440.93,313.14,440.99,312.9,440.99z M303.43,418.98c-0.64,0-1.23-0.41-1.43-1.05c-1.27-4.01-2.27-7.99-2.96-11.82
			c-0.15-0.82,0.4-1.6,1.21-1.74c0.82-0.15,1.6,0.4,1.74,1.21c0.67,3.7,1.63,7.55,2.86,11.44c0.25,0.79-0.19,1.63-0.98,1.88
			C303.73,418.96,303.58,418.98,303.43,418.98z M299.34,395.42c-0.82,0-1.49-0.66-1.5-1.48c0-0.28-0.01-0.57,0-0.85
			c0-3.94,0.37-7.78,1.09-11.39c0.16-0.81,0.95-1.34,1.76-1.18c0.81,0.16,1.34,0.95,1.18,1.76c-0.68,3.42-1.03,7.06-1.03,10.81
			c0,0.27,0,0.53,0,0.8c0.01,0.83-0.65,1.51-1.48,1.52C299.35,395.42,299.35,395.42,299.34,395.42z M344.14,390.83
			c-0.11,0-0.22-0.01-0.32-0.04c-3.97-0.88-7.69-2.95-11.04-6.16c-0.6-0.57-0.62-1.52-0.05-2.12c0.57-0.6,1.52-0.62,2.12-0.05
			c2.96,2.82,6.19,4.64,9.62,5.4c0.81,0.18,1.32,0.98,1.14,1.79C345.45,390.36,344.83,390.83,344.14,390.83z M355.97,390.11
			c-0.63,0-1.22-0.4-1.43-1.04c-0.26-0.79,0.17-1.63,0.96-1.89c3.69-1.2,6.85-3.32,9.14-6.11c0.53-0.64,1.47-0.73,2.11-0.21
			c0.64,0.53,0.73,1.47,0.21,2.11c-2.66,3.24-6.3,5.68-10.53,7.06C356.28,390.09,356.12,390.11,355.97,390.11z M326.61,375.51
			c-0.52,0-1.03-0.27-1.3-0.76c-1.81-3.17-3.52-6.78-5.22-11.04c-0.31-0.77,0.07-1.64,0.84-1.95c0.77-0.3,1.64,0.07,1.95,0.84
			c1.64,4.12,3.29,7.61,5.03,10.66c0.41,0.72,0.16,1.64-0.56,2.05C327.12,375.44,326.87,375.51,326.61,375.51z M369.66,372.45
			c-0.79,0-1.46-0.62-1.5-1.42c-0.18-3.47-1.74-6.81-4.52-9.67c-0.58-0.59-0.56-1.54,0.03-2.12c0.6-0.58,1.54-0.56,2.12,0.03
			c3.3,3.39,5.15,7.41,5.36,11.61c0.04,0.83-0.59,1.53-1.42,1.57C369.71,372.45,369.68,372.45,369.66,372.45z M304.19,372.16
			c-0.22,0-0.45-0.05-0.66-0.15c-0.74-0.37-1.05-1.26-0.68-2.01c1.87-3.79,4.24-7.22,7.05-10.2c0.57-0.6,1.52-0.63,2.12-0.06
			c0.6,0.57,0.63,1.52,0.06,2.12c-2.6,2.75-4.8,5.94-6.54,9.46C305.28,371.85,304.75,372.16,304.19,372.16z M320.47,355.06
			c-0.53,0-1.05-0.29-1.32-0.79c-0.39-0.73-0.12-1.64,0.61-2.03c3.68-1.98,7.63-3.34,11.75-4.05c0.81-0.14,1.59,0.41,1.73,1.22
			c0.14,0.82-0.41,1.59-1.22,1.73c-3.8,0.65-7.44,1.91-10.84,3.73C320.95,355,320.71,355.06,320.47,355.06z M355.07,354.76
			c-0.23,0-0.47-0.05-0.68-0.17c-3.44-1.77-7.11-2.96-10.9-3.55c-0.82-0.13-1.38-0.89-1.25-1.71c0.13-0.82,0.9-1.38,1.71-1.25
			c4.11,0.63,8.09,1.93,11.82,3.84c0.74,0.38,1.03,1.28,0.65,2.02C356.14,354.46,355.61,354.76,355.07,354.76z M317.46,353.34
			c-0.63,0-1.22-0.41-1.43-1.04c-1.23-3.84-2.34-7.75-3.3-11.64c-0.2-0.8,0.29-1.62,1.1-1.81c0.8-0.2,1.62,0.29,1.81,1.1
			c0.94,3.82,2.03,7.67,3.24,11.44c0.25,0.79-0.18,1.63-0.97,1.89C317.77,353.32,317.61,353.34,317.46,353.34z M311.72,330.06
			c-0.72,0-1.35-0.51-1.48-1.24c-0.69-3.96-1.24-7.99-1.65-11.99c-0.08-0.82,0.52-1.56,1.34-1.64c0.83-0.09,1.56,0.52,1.64,1.34
			c0.4,3.93,0.95,7.89,1.62,11.78c0.14,0.82-0.41,1.59-1.22,1.73C311.89,330.05,311.81,330.06,311.72,330.06z M309.29,306.2
			c-0.81,0-1.47-0.64-1.5-1.45c-0.06-1.81-0.09-3.66-0.09-5.49c0-2.18,0.04-4.41,0.12-6.62c0.03-0.83,0.7-1.45,1.56-1.44
			c0.83,0.03,1.47,0.73,1.44,1.56c-0.08,2.17-0.12,4.36-0.12,6.51c0,1.8,0.03,3.61,0.08,5.39c0.03,0.83-0.62,1.52-1.45,1.55
			C309.32,306.2,309.31,306.2,309.29,306.2z M310.2,282.23c-0.05,0-0.11,0-0.16-0.01c-0.82-0.09-1.42-0.83-1.33-1.65
			c0.43-3.99,1-8.02,1.7-11.98c0.14-0.82,0.92-1.36,1.74-1.22c0.82,0.14,1.36,0.92,1.22,1.74c-0.69,3.89-1.25,7.86-1.67,11.78
			C311.61,281.66,310.96,282.23,310.2,282.23z M314.35,258.61c-0.12,0-0.24-0.01-0.36-0.04c-0.8-0.2-1.3-1.01-1.1-1.81
			c0.95-3.88,2.05-7.8,3.27-11.64c0.25-0.79,1.09-1.23,1.88-0.98c0.79,0.25,1.23,1.09,0.98,1.88c-1.2,3.78-2.28,7.64-3.21,11.46
			C315.64,258.15,315.03,258.61,314.35,258.61z M321.57,235.74c-0.18,0-0.36-0.03-0.54-0.1c-0.77-0.3-1.16-1.17-0.86-1.94
			c1.45-3.73,3.04-7.48,4.72-11.13c0.35-0.75,1.24-1.08,1.99-0.73c0.75,0.35,1.08,1.24,0.73,1.99c-1.66,3.59-3.22,7.28-4.65,10.96
			C322.74,235.38,322.17,235.74,321.57,235.74z M331.62,213.97c-0.24,0-0.48-0.06-0.71-0.18c-0.73-0.39-1-1.3-0.61-2.03
			c1.9-3.52,3.94-7.04,6.05-10.46c0.44-0.71,1.36-0.92,2.06-0.48c0.7,0.44,0.92,1.36,0.48,2.07c-2.09,3.37-4.09,6.83-5.96,10.3
			C332.67,213.69,332.16,213.97,331.62,213.97z M344.25,193.59c-0.3,0-0.6-0.09-0.86-0.27c-0.68-0.48-0.84-1.41-0.36-2.09
			c2.31-3.27,4.75-6.53,7.25-9.66c0.52-0.65,1.46-0.75,2.11-0.24c0.65,0.52,0.75,1.46,0.24,2.11c-2.47,3.09-4.87,6.3-7.15,9.52
			C345.19,193.37,344.72,193.59,344.25,193.59z M359.2,174.84c-0.36,0-0.72-0.13-1-0.38c-0.62-0.55-0.67-1.5-0.11-2.12
			c2.68-2.98,5.48-5.93,8.33-8.75c0.59-0.58,1.54-0.58,2.12,0.01c0.58,0.59,0.58,1.54-0.01,2.12c-2.81,2.79-5.57,5.69-8.21,8.63
			C360.02,174.67,359.61,174.84,359.2,174.84z M376.22,157.94c-0.42,0-0.83-0.17-1.12-0.51c-0.55-0.62-0.49-1.57,0.13-2.12
			c3-2.66,6.12-5.26,9.27-7.74c0.65-0.51,1.59-0.4,2.11,0.25c0.51,0.65,0.4,1.59-0.25,2.11c-3.11,2.45-6.18,5.01-9.14,7.63
			C376.93,157.82,376.58,157.94,376.22,157.94z M395.06,143.11c-0.47,0-0.94-0.22-1.23-0.64c-0.47-0.68-0.31-1.61,0.37-2.09
			c3.29-2.3,6.68-4.53,10.09-6.63c0.71-0.43,1.63-0.22,2.06,0.49c0.44,0.7,0.22,1.63-0.49,2.06c-3.36,2.08-6.71,4.28-9.95,6.54
			C395.66,143.02,395.36,143.11,395.06,143.11z M415.46,130.51c-0.53,0-1.05-0.29-1.32-0.79c-0.39-0.73-0.12-1.64,0.61-2.03
			c0.45-0.25,0.91-0.49,1.37-0.73c3.09-1.65,6.26-3.24,9.4-4.73c0.75-0.36,1.64-0.04,2,0.71c0.36,0.75,0.04,1.64-0.71,2
			c-3.1,1.48-6.22,3.05-9.28,4.67c-0.45,0.24-0.9,0.48-1.35,0.72C415.95,130.46,415.7,130.51,415.46,130.51z M757.22,126.56
			c-0.01,0-0.01,0-0.02,0c-3.93-0.05-7.98-0.16-12.03-0.32c-0.83-0.03-1.47-0.73-1.44-1.56c0.03-0.83,0.68-1.46,1.56-1.44
			c4.02,0.16,8.05,0.27,11.96,0.32c0.83,0.01,1.49,0.69,1.48,1.52C758.71,125.9,758.04,126.56,757.22,126.56z M769.22,126.56
			c-0.82,0-1.49-0.66-1.5-1.48c-0.01-0.83,0.65-1.51,1.48-1.52c4.01-0.06,8.03-0.17,11.95-0.35c0.82-0.03,1.53,0.6,1.56,1.43
			c0.04,0.83-0.6,1.53-1.43,1.56c-3.95,0.18-8,0.29-12.04,0.35C769.23,126.56,769.22,126.56,769.22,126.56z M733.26,125.62
			c-0.03,0-0.06,0-0.1,0c-3.89-0.25-7.93-0.55-11.99-0.89c-0.83-0.07-1.44-0.8-1.37-1.62s0.8-1.44,1.62-1.37
			c4.04,0.34,8.05,0.64,11.92,0.88c0.83,0.05,1.45,0.77,1.4,1.59C734.7,125.01,734.04,125.62,733.26,125.62z M793.19,125.49
			c-0.78,0-1.43-0.6-1.49-1.39c-0.06-0.83,0.56-1.55,1.38-1.61c3.98-0.3,7.98-0.67,11.9-1.1c0.81-0.09,1.56,0.5,1.65,1.33
			c0.09,0.82-0.51,1.56-1.33,1.65c-3.95,0.43-7.99,0.8-12,1.1C793.26,125.49,793.22,125.49,793.19,125.49z M709.37,123.61
			c-0.05,0-0.1,0-0.16-0.01c-3.85-0.4-7.86-0.85-11.94-1.34c-0.82-0.1-1.41-0.85-1.31-1.67c0.1-0.82,0.85-1.41,1.67-1.31
			c4.06,0.49,8.06,0.94,11.89,1.33c0.82,0.09,1.42,0.82,1.34,1.65C710.78,123.04,710.13,123.61,709.37,123.61z M817.04,122.89
			c-0.73,0-1.38-0.54-1.48-1.29c-0.12-0.82,0.45-1.58,1.27-1.7c3.8-0.54,7.65-1.16,11.43-1.83c0.82-0.14,1.59,0.4,1.74,1.22
			c0.14,0.82-0.4,1.59-1.21,1.74c-3.81,0.68-7.69,1.3-11.53,1.85C817.18,122.89,817.11,122.89,817.04,122.89z M685.56,120.76
			c-0.07,0-0.13,0-0.2-0.01c-3.98-0.53-7.94-1.08-11.89-1.65c-0.82-0.12-1.39-0.88-1.27-1.7c0.12-0.82,0.88-1.39,1.7-1.27
			c3.94,0.57,7.89,1.12,11.86,1.65c0.82,0.11,1.4,0.86,1.29,1.69C686.94,120.21,686.3,120.76,685.56,120.76z M437.12,120.21
			c-0.59,0-1.15-0.35-1.39-0.93c-0.32-0.77,0.05-1.64,0.81-1.96c3.72-1.53,7.51-2.98,11.28-4.31c0.78-0.27,1.64,0.14,1.91,0.92
			c0.27,0.78-0.14,1.64-0.92,1.91c-3.72,1.31-7.47,2.74-11.13,4.25C437.5,120.18,437.31,120.21,437.12,120.21z M661.82,117.35
			c-0.08,0-0.15-0.01-0.23-0.02c-3.97-0.6-7.92-1.21-11.86-1.83c-0.82-0.13-1.38-0.89-1.25-1.71c0.13-0.82,0.9-1.38,1.71-1.25
			c3.94,0.61,7.88,1.22,11.84,1.83c0.82,0.12,1.38,0.89,1.26,1.71C663.18,116.82,662.54,117.35,661.82,117.35z M638.12,113.67
			c-0.08,0-0.16-0.01-0.23-0.02c-3.96-0.62-7.91-1.24-11.85-1.85c-0.82-0.13-1.38-0.89-1.25-1.71c0.13-0.82,0.88-1.38,1.71-1.25
			c3.94,0.61,7.89,1.23,11.85,1.85c0.82,0.13,1.38,0.9,1.25,1.71C639.48,113.14,638.84,113.67,638.12,113.67z M459.76,112.26
			c-0.65,0-1.25-0.43-1.44-1.08c-0.23-0.79,0.22-1.63,1.02-1.86c3.83-1.12,7.76-2.15,11.69-3.08c0.81-0.19,1.62,0.31,1.8,1.12
			c0.19,0.81-0.31,1.61-1.12,1.8c-3.87,0.91-7.75,1.93-11.53,3.04C460.04,112.24,459.9,112.26,459.76,112.26z M614.41,110.02
			c-0.07,0-0.15-0.01-0.22-0.02c-3.96-0.59-7.92-1.16-11.86-1.71c-0.82-0.11-1.39-0.87-1.28-1.69c0.11-0.82,0.88-1.39,1.69-1.28
			c3.95,0.55,7.91,1.12,11.88,1.71c0.82,0.12,1.38,0.88,1.26,1.7C615.78,109.48,615.14,110.02,614.41,110.02z M483.11,106.76
			c-0.71,0-1.34-0.51-1.47-1.23c-0.15-0.81,0.39-1.6,1.21-1.74c3.9-0.71,7.92-1.33,11.93-1.86c0.81-0.11,1.57,0.47,1.68,1.29
			c0.11,0.82-0.47,1.57-1.29,1.68c-3.96,0.52-7.93,1.14-11.78,1.84C483.29,106.75,483.2,106.76,483.11,106.76z M590.65,106.74
			c-0.06,0-0.12,0-0.19-0.01c-4.11-0.51-8.11-0.98-11.89-1.39c-0.82-0.09-1.42-0.83-1.33-1.65s0.83-1.42,1.65-1.33
			c3.8,0.41,7.81,0.88,11.94,1.39c0.82,0.1,1.4,0.85,1.3,1.67C592.04,106.18,591.4,106.74,590.65,106.74z M566.81,104.19
			c-0.04,0-0.09,0-0.13-0.01c-4.07-0.35-8.08-0.65-11.92-0.88c-0.83-0.05-1.46-0.76-1.41-1.59s0.74-1.45,1.59-1.41
			c3.86,0.23,7.9,0.53,12,0.88c0.83,0.07,1.44,0.8,1.37,1.62C568.23,103.6,567.58,104.19,566.81,104.19z M506.9,103.62
			c-0.77,0-1.43-0.59-1.49-1.37c-0.07-0.83,0.54-1.55,1.37-1.62c3.93-0.33,7.98-0.59,12.04-0.76c0.82-0.04,1.53,0.61,1.56,1.44
			c0.03,0.83-0.61,1.53-1.44,1.56c-4.02,0.17-8.02,0.42-11.91,0.75C506.99,103.62,506.94,103.62,506.9,103.62z M542.86,102.76
			c-0.02,0-0.03,0-0.05,0c-3.6-0.11-7.19-0.17-10.67-0.17l-1.27,0c0,0,0,0,0,0c-0.83,0-1.5-0.67-1.5-1.49c0-0.83,0.67-1.5,1.5-1.51
			l1.28,0c3.51,0,7.13,0.06,10.76,0.17c0.83,0.03,1.48,0.72,1.45,1.55C544.34,102.12,543.67,102.76,542.86,102.76z"/></g><g><polygon fill="#44248f" points="761.26 128.31 798.78 128.69 786.49 109.58"/><polygon fill="#6f4ebd" points="796.19 135.06 844.11 117.6 783.58 117.94"/><polygon fill="#6f4ebd" points="844.16 117.54 767.2 85.32 778.85 102.79"/><polygon fill="#5939a3" points="844.11 117.6 783.46 118.11 761.26 128.31 778.84 102.51"/></g><g><path fill="#a487d9" d="M1080.96,623.56c-0.43,0-0.87-0.19-1.16-0.55c-0.53-0.64-0.43-1.59,0.21-2.11c3.04-2.49,6.01-5.15,8.84-7.92
			c0.59-0.58,1.54-0.57,2.12,0.02c0.58,0.59,0.57,1.54-0.02,2.12c-2.89,2.83-5.93,5.55-9.03,8.09
			C1081.64,623.45,1081.3,623.56,1080.96,623.56z M1098.1,606.8c-0.35,0-0.69-0.12-0.98-0.36c-0.63-0.54-0.7-1.49-0.16-2.12
			c2.57-2.99,5.04-6.13,7.34-9.33c0.48-0.67,1.42-0.82,2.09-0.34c0.67,0.48,0.83,1.42,0.34,2.09c-2.35,3.27-4.87,6.47-7.5,9.53
			C1098.94,606.62,1098.52,606.8,1098.1,606.8z M1112.1,587.35c-0.26,0-0.53-0.07-0.77-0.21c-0.71-0.42-0.94-1.34-0.52-2.06
			c2.02-3.4,3.92-6.91,5.63-10.45c0.36-0.75,1.26-1.06,2-0.7c0.75,0.36,1.06,1.26,0.7,2c-1.75,3.61-3.68,7.21-5.75,10.68
			C1113.11,587.08,1112.62,587.35,1112.1,587.35z M1122.54,565.77c-0.18,0-0.36-0.03-0.53-0.1c-0.77-0.29-1.17-1.16-0.87-1.93
			c1.4-3.7,2.64-7.49,3.69-11.27c0.22-0.8,1.04-1.27,1.85-1.04c0.8,0.22,1.27,1.05,1.04,1.85c-1.07,3.86-2.34,7.74-3.78,11.53
			C1123.71,565.4,1123.14,565.77,1122.54,565.77z M1128.94,542.67c-0.09,0-0.18-0.01-0.27-0.02c-0.82-0.15-1.36-0.92-1.21-1.74
			c0.7-3.89,1.21-7.85,1.52-11.75c0.07-0.83,0.8-1.45,1.61-1.38c0.83,0.07,1.44,0.79,1.38,1.61c-0.32,4-0.84,8.05-1.55,12.04
			C1130.29,542.16,1129.65,542.67,1128.94,542.67z M1130.73,518.79c-0.8,0-1.46-0.63-1.5-1.43c-0.19-4.17-0.74-8.06-1.62-11.57
			c-0.2-0.8,0.29-1.62,1.09-1.82c0.81-0.2,1.62,0.29,1.82,1.09c0.93,3.7,1.5,7.79,1.71,12.16c0.04,0.83-0.6,1.53-1.43,1.57
			C1130.78,518.79,1130.76,518.79,1130.73,518.79z M1094.44,516.12c-0.13,0-0.26-0.02-0.39-0.05c-4.22-1.15-8.07-3.49-10.84-6.6
			c-0.55-0.62-0.5-1.57,0.12-2.12c0.62-0.55,1.57-0.5,2.12,0.12c2.39,2.68,5.72,4.71,9.39,5.7c0.8,0.22,1.27,1.04,1.05,1.84
			C1095.71,515.68,1095.1,516.12,1094.44,516.12z M1106.27,515.8c-0.64,0-1.23-0.41-1.43-1.05c-0.25-0.79,0.19-1.63,0.98-1.88
			c3.42-1.08,6.75-3.08,9.64-5.78c0.61-0.56,1.56-0.53,2.12,0.07c0.57,0.61,0.53,1.56-0.07,2.12c-3.22,3-6.94,5.23-10.78,6.44
			C1106.57,515.78,1106.42,515.8,1106.27,515.8z M1123.57,500.09c-0.22,0-0.45-0.05-0.66-0.15c-0.74-0.37-1.05-1.26-0.69-2.01
			l0.18-0.38c0.36-0.76,0.7-1.54,1.01-2.34c-0.03-0.04-0.06-0.08-0.08-0.13c-1.95-3.29-4.52-6.28-7.45-8.64
			c-0.64-0.52-0.74-1.47-0.22-2.11c0.52-0.64,1.46-0.74,2.11-0.22c2.6,2.1,4.95,4.65,6.88,7.46c0.43-1.49,0.79-3.04,1.07-4.65
			c0.14-0.82,0.92-1.36,1.74-1.21c0.82,0.15,1.36,0.92,1.21,1.74c-0.74,4.12-1.93,7.95-3.56,11.38l-0.2,0.41
			C1124.66,499.78,1124.12,500.09,1123.57,500.09z M1080.16,499.03c-0.01,0-0.03,0-0.04,0c-0.83-0.02-1.48-0.71-1.46-1.54
			c0.11-4.13,1.8-8.33,4.78-11.84c0.54-0.63,1.48-0.71,2.11-0.17s0.71,1.48,0.17,2.11c-2.54,2.98-3.98,6.53-4.07,9.97
			C1081.63,498.38,1080.97,499.03,1080.16,499.03z M1094.41,481.51c-0.63,0-1.22-0.4-1.43-1.04c-0.26-0.79,0.18-1.63,0.96-1.89
			c1.86-0.6,3.75-0.94,5.63-1.01c2.35-0.08,4.71,0.18,7.04,0.79c0.8,0.21,1.28,1.03,1.08,1.83c-0.21,0.8-1.03,1.28-1.83,1.08
			c-2.05-0.53-4.12-0.77-6.19-0.69c-1.6,0.06-3.21,0.35-4.81,0.86C1094.72,481.49,1094.57,481.51,1094.41,481.51z M1128.11,476.75
			c-0.82,0-1.49-0.66-1.5-1.48c-0.02-1.68-0.09-3.44-0.21-5.25c-0.15-2.17-0.37-4.37-0.66-6.53c-0.11-0.82,0.47-1.58,1.29-1.68
			c0.82-0.11,1.58,0.47,1.68,1.29c0.29,2.23,0.52,4.49,0.68,6.72c0.13,1.86,0.2,3.69,0.22,5.42c0.01,0.83-0.66,1.51-1.48,1.52
			C1128.12,476.75,1128.11,476.75,1128.11,476.75z M1124.99,453c-0.67,0-1.29-0.46-1.46-1.14c-0.94-3.81-2.09-7.61-3.44-11.32
			c-0.28-0.78,0.12-1.64,0.9-1.92c0.78-0.28,1.64,0.12,1.92,0.9c1.38,3.81,2.57,7.72,3.53,11.63c0.2,0.8-0.29,1.62-1.1,1.81
			C1125.23,452.99,1125.11,453,1124.99,453z M1116.82,430.48c-0.55,0-1.09-0.31-1.35-0.84c-1.73-3.54-3.66-7.02-5.75-10.35
			c-0.44-0.7-0.23-1.63,0.47-2.07c0.7-0.44,1.63-0.23,2.07,0.47c2.14,3.41,4.13,6.99,5.9,10.62c0.36,0.74,0.05,1.64-0.69,2.01
			C1117.27,430.43,1117.04,430.48,1116.82,430.48z M1104.09,410.19c-0.44,0-0.88-0.2-1.18-0.57c-2.45-3.1-5.08-6.09-7.82-8.88
			c-0.58-0.59-0.57-1.54,0.02-2.12c0.59-0.58,1.54-0.57,2.12,0.02c2.82,2.87,5.52,5.94,8.04,9.12c0.51,0.65,0.4,1.59-0.25,2.11
			C1104.74,410.09,1104.42,410.19,1104.09,410.19z M1087.29,393.13c-0.33,0-0.67-0.11-0.94-0.33c-3.04-2.46-6.26-4.8-9.59-6.93
			c-0.7-0.45-0.9-1.38-0.45-2.07c0.45-0.7,1.38-0.9,2.07-0.45c3.41,2.19,6.73,4.59,9.85,7.12c0.64,0.52,0.74,1.47,0.22,2.11
			C1088.16,392.94,1087.72,393.13,1087.29,393.13z M1067.14,380.17c-0.23,0-0.45-0.05-0.67-0.16c-3.51-1.76-7.17-3.35-10.85-4.73
			c-0.78-0.29-1.17-1.15-0.88-1.93s1.16-1.17,1.93-0.88c3.79,1.42,7.53,3.05,11.14,4.85c0.74,0.37,1.04,1.27,0.67,2.01
			C1068.22,379.86,1067.69,380.17,1067.14,380.17z M1044.71,371.78c-0.12,0-0.25-0.02-0.38-0.05c-3.82-0.98-7.72-1.77-11.6-2.34
			c-0.82-0.12-1.39-0.88-1.27-1.7c0.12-0.82,0.88-1.39,1.7-1.27c3.99,0.58,8,1.39,11.92,2.4c0.8,0.21,1.29,1.02,1.08,1.83
			C1045.98,371.33,1045.38,371.78,1044.71,371.78z M1012.81,368.34c-0.8,0-1.46-0.63-1.5-1.44c-0.03-0.83,0.61-1.53,1.44-1.56
			c1.46-0.06,2.94-0.09,4.41-0.09c1.33-0.02,2.6,0.02,3.89,0.07c0.83,0.03,1.47,0.73,1.45,1.55c-0.03,0.83-0.75,1.46-1.55,1.45
			c-1.25-0.04-2.51-0.07-3.75-0.07c-0.01,0-0.03,0-0.04,0c-1.43,0-2.87,0.03-4.29,0.09
			C1012.85,368.34,1012.83,368.34,1012.81,368.34z"/></g><g><path fill="#567812" d="M266.93,765.77c5.78-12.31,3.99-41.22,1.48-67.86c-2.44-25.97,11.23-47.09,11.37-47.3l-0.51-0.33
					c-0.14,0.21-13.93,21.51-11.47,47.69c2.5,26.57,4.29,55.37-1.43,67.55L266.93,765.77z"/><path fill="#567812" d="M263.01,764.37c3.99-11.96,3.65-41.55-2.76-63.24c-4.62-15.61-18.78-25.91-18.92-26.02l-0.35,0.49
					c0.14,0.1,14.13,10.29,18.69,25.69c6.38,21.59,6.73,51,2.77,62.88L263.01,764.37z"/><path fill="#567812" d="M263.85,763.87c3.99-11.96,4.35-59.42-2.07-81.11c-4.62-15.61-18.78-25.91-18.92-26.02l-0.35,0.49
					c0.14,0.1,14.13,10.29,18.69,25.69c6.38,21.59,6.03,68.87,2.07,80.74L263.85,763.87z"/><path fill="#567812" d="M265.69,769.03l0.16-0.87c0.02-0.09,0.44-2.45,0.96-6.45c1.72-9.2,5.25-28.14,4.93-48.06
					c-0.33-20.49,5.08-32.95,5.13-33.07l-0.56-0.25c-0.06,0.12-5.51,12.7-5.18,33.33c0.24,14.83-1.66,29.13-3.36,39.24
					c1.22-13.55,1.89-34.16-2.15-53.63c-4.49-21.67-5.32-40.83-2.46-56.95l-0.6-0.11c-2.88,16.19-2.05,35.43,2.46,57.18
					c5.04,24.31,2.71,50.41,1.18,62.21c0,0,0,0,0,0c-0.88,4.71-1.15,6.21-0.93,6.64L265.69,769.03z"/><path fill="#567812" d="M265.41,767.51l0.61-0.03c-0.99-22.81,1.08-40.74,6.13-53.29c5.03-12.48,11.39-15.21,13.22-15.75
					l-0.17-0.58c-2.43,0.72-8.62,3.72-13.62,16.11C266.5,726.6,264.42,744.61,265.41,767.51z"/><path fill="#567812" d="M266.72,766.74c0.04-0.13,0.95-3.32,2.47-17.91c1.88-17.98,5.66-27.35,11.58-28.62l-0.13-0.59
					c-6.29,1.36-10.12,10.62-12.05,29.15c-1.51,14.49-2.44,17.77-2.45,17.8L266.72,766.74z"/><path fill="#567812" d="M267.94,766.22c0-0.2,0.38-19.85,7.68-28.28c5.61-6.48,14-6.29,17.16-6.21c0.98,0.02,1.24,0.03,1.4-0.14
					l-0.45-0.41c0.04-0.05,0.09-0.06,0.09-0.06c-0.1,0.03-0.57,0.02-1.02,0.01c-3.24-0.08-11.84-0.28-17.64,6.42
					c-7.44,8.6-7.81,27.85-7.83,28.67L267.94,766.22z"/><path fill="#567812" d="M261.07,767.12c0.02-0.22,2.28-22.44-0.53-32.89c-5.45-20.3-17.67-25.37-17.79-25.42l-0.23,0.57
					c0.12,0.05,12.06,5.03,17.43,25.02c2.78,10.34,0.54,32.45,0.51,32.67L261.07,767.12z"/><path fill="#567812" d="M264.53,766.24c1.11-11.4-0.43-19.4-4.69-24.46c-3.57-4.23-8.87-6.39-17.2-7l-0.04,0.61
					c8.15,0.59,13.33,2.69,16.78,6.78c4.15,4.92,5.64,12.77,4.55,24.01L264.53,766.24z"/><path fill="#567812" d="M262.62,765.68c0.02-0.13,1.64-13.12,1.14-28.43c-0.46-14.16-2.89-33.28-11.83-43.92l-0.47,0.39
					c16.92,20.13,10.62,71.37,10.55,71.89L262.62,765.68z"/><path fill="#9cba2f" d="M223.2,672.9c6.54,1.55,7.97,8.52,13.91,8.78c2.59,0.11,5.7-2.61,4.05-6.31c0,0,0,0,0.02,0.01
					c1.61,0.66,4.27,1.08,5.62-1.27c0.6-1.66-0.08-3.59-1.33-4.83c-1.26-1.24-2.99-1.88-4.71-2.24
					C234.41,665.7,227.45,668.04,223.2,672.9z"/><path fill="#9cba2f" d="M270.34,676.97c0.35,3.13,2.14,5.47,4.57,6.93c3.91,2.37,9.47,2.44,13.32-0.14
					c7.82-5.34,7.98-15.98,7.1-24.56c-0.01-0.08-0.02-0.16-0.02-0.24C288.4,667.45,269.33,660.97,270.34,676.97z"/><path fill="#567812" d="M278.3,650.28c0.02,0,0.04,0,0.07-0.01c3.08-0.24,3.81,4.72,8.27,2.79c7.22-4.4-0.56-16.41,9.12-19.98
					C269.51,628.92,263.61,652.05,278.3,650.28z"/><path fill="#9cba2f" d="M287.64,732.21l0.29-0.1c-0.04,0.04-0.08,0.08-0.11,0.12c-5.98,6.4,10.76,17.69,22.83-9.56
						c-7.19,4.12-11.57,0.97-18.53,0.41C287.89,722.97,281.95,729.99,287.64,732.21z"/><path fill="#85a11f" d="M310.64,722.68c0,0-5.19,8-16.92,8.42c-2.44,0.09-4.38,0.35-5.91,1.14
						C281.83,738.63,298.57,749.92,310.64,722.68z"/><path fill="#47630f" d="M246.02,660.07l-0.31-0.23c0.07,0.01,0.14,0.03,0.21,0.03c10.99,1.74,10.98-23.92-26.31-17.25
						c9.45,4.65,9.25,11.5,13.61,19.23C236.11,666.38,247.72,667.65,246.02,660.07z"/><path fill="#567812" d="M219.61,642.62c0,0,12.12-0.23,20.91,11.83c1.82,2.5,3.49,4.36,5.4,5.42
						C256.91,661.62,256.9,635.96,219.61,642.62z"/><path fill="#567812" d="M278.15,720.63c1.78,6.04,18.07,5.49,18.7-12.72c0,0,0,0,0,0.01c-4.46,5.21-11.59,1.98-15.76,5.98
						C278.36,716.52,277.63,718.86,278.15,720.63z"/><path fill="#47630f" d="M278.15,720.63c1.78,6.04,18.07,5.49,18.7-12.72c0,0,0,0,0,0.01c-0.16,0.25-3.81,8.08-8.66,9
						C282.74,717.95,280.51,718.77,278.15,720.63z"/><path fill="#9cba2f" d="M281.67,697.25c0.65,0.84,1.49,0.69,2.04,1.42c0.33,0.43,0.55,1.15,0.58,2.55
						c0.22,11.93,21.51,8.03,24.77-12.84c0-0.02,0.01-0.04,0.01-0.07c-5.72,0.92-11.94-1.89-17.81-1.01
						C285.75,688.15,277.94,692.43,281.67,697.25z"/><path fill="#85a11f" d="M283.71,698.67c0.33,0.43,0.55,1.15,0.58,2.55c0.22,11.93,21.51,8.03,24.77-12.84
						c-1.15,1.85-3.61,5.17-8.42,5.93C294.37,695.3,286.54,693.16,283.71,698.67z"/><path fill="#85a11f" d="M274.9,683.9c3.91,2.37,9.47,2.44,13.32-0.14c7.82-5.34,7.98-15.98,7.1-24.56
					c-0.35,0.66-1.87,3.66-3.28,8.43c-1.6,5.42-6.5,10.47-12.07,10.69C277.47,678.43,275.89,681.05,274.9,683.9z"/><path fill="#47630f" d="M278.3,650.28c0.02,0,0.04,0,0.07-0.01c3.08-0.24,3.81,4.72,8.27,2.79c7.22-4.4-0.56-16.41,9.12-19.98
					c0,0-8.42-0.94-9.03,6.58C286.24,645.62,280.22,647.9,278.3,650.28z"/><path fill="#9cba2f" d="M262.87,642.27c0.21,0,0.42,0,0.63-0.01c6.98-4.82,9.82-14.51,6.55-22.34
						c-3.32-8.21-13.19-14.74-11.54-24.47c0,0,0,0-0.01,0.02c-7.23,8.1-10.5,17.24-11.59,26.37
						C245.94,629.92,251.18,642.23,262.87,642.27z"/><path fill="#85a11f" d="M262.87,642.27c-2.08-1.83-4.16-4.85-3.77-10.42c0.52-7.39-1.93-14.53-4.09-21.56
						c-2.1-6.85,3.21-14.43,3.49-14.82c-7.23,8.1-10.5,17.24-11.59,26.37C245.94,629.92,251.18,642.23,262.87,642.27z"/><path fill="#85a11f" d="M223.2,672.9c6.54,1.55,7.97,8.52,13.91,8.78c2.59,0.11,5.7-2.61,4.05-6.31c0,0-2.94-0.22-6.88-2.46
					C230.34,670.66,223.2,672.9,223.2,672.9z"/><path fill="#9cba2f" d="M230.88,690.73c2.85-1.09,6.18-0.84,8.82,0.67c3.7,2.98,10.06,7.4,12.6,0.89
						C253.6,681.41,233.16,682.37,230.88,690.73z"/><path fill="#85a11f" d="M230.88,690.73c2.85-1.09,6.18-0.84,8.82,0.67c3.7,2.98,10.06,7.4,12.6,0.89
						c-0.52-0.48-1.35-1.31-2.73-1.15c-5.35,0.62-3.81-1.2-9.38-3.19C234.61,685.95,230.88,690.73,230.88,690.73z"/><path fill="#567812" d="M218,701.26c0.08,0.02,0.17,0.04,0.25,0.06c10.05,2.38,11.46,9.04,17.44,15.5
						c3.83,3.71,15.25,2.32,12.13-4.5c-0.02-0.06-0.05-0.12-0.08-0.18l-0.36-0.15C258.76,711.43,252.96,686.05,218,701.26z"/><path fill="#47630f" d="M218.25,701.32c10.05,2.38,11.46,9.04,17.44,15.5c3.83,3.71,15.25,2.32,12.13-4.5
						c-0.72-0.56-1.68-1.11-2.89-1.41c-3.07-0.76-4.54-3.57-10.93-8.26C227.61,697.95,218.25,701.32,218.25,701.32z"/><g><path fill="#9cba2f" d="M226.08,723.25c1.7,6.01,5.13,10.41,9.23,13.75c3.69,3.01,11.48,4.25,15.01-1.77
						c0-0.06,0-0.12-0.01-0.17c-0.27-4.8-4.06-9.06-8.81-9.88C236.5,724.27,230.29,727.05,226.08,723.25z"/><path fill="#85a11f" d="M226.08,723.25c1.7,6.01,5.13,10.41,9.23,13.75c3.69,3.01,11.48,4.25,15.01-1.77
						c0-0.06,0-0.12-0.01-0.17c-1.02-0.34-2.64-0.65-5.06-0.62c-4.99,0.07-4.33-5.22-10.26-5.1
						C229.6,729.46,228.78,725.62,226.08,723.25z"/></g><g><path fill="#ffb129" d="M255.27,823.56h19.6c1.35,0,2.52-0.93,2.83-2.25c3.99-17.49,6.32-38.82,4.47-65.16h-34.19
					c-1.63,26.04,0.36,47.42,4.48,65.17C252.75,822.63,253.92,823.56,255.27,823.56z"/><path fill="#ebd4cc" d="M247.96,756.15h34.19c0.26,3.66,0.43,7.21,0.53,10.68h-7.21c-12.14,0-21.98,9.94-21.77,22.08
					c0.22,12.8,1.39,24.3,3.27,34.65h-1.71c-1.35,0-2.52-0.93-2.82-2.25C248.33,803.56,246.33,782.19,247.96,756.15z"/><path fill="#ffb129" d="M248.13,753.13h33.5c1.79,0,3.24,1.41,3.24,3.15c0,1.74-1.45,3.15-3.24,3.15h-33.5
					c-1.79,0-3.24-1.41-3.24-3.15C244.89,754.54,246.34,753.13,248.13,753.13z"/></g></g><g><path fill="#4e2e7d" d="M424.76,825.04l15.26-12.71c0.49-0.41,0.73-1.05,0.62-1.68l-1.47-8.48l-14.43,2.5
						c-11.38,1.97-22.2-5.65-24.17-17.02c-1.97-11.38,5.65-22.2,17.02-24.17l14.43-2.5l-1.47-8.48c-0.11-0.63-0.55-1.16-1.15-1.38
						l-18.57-6.84c-0.6-0.22-1.27-0.11-1.77,0.3l-30.3,25.23c-0.49,0.41-0.73,1.05-0.62,1.68l1.53,8.85L239.31,804.7
						c-5.87,1.02-9.78,6.6-8.77,12.45c1.02,5.87,6.58,9.79,12.45,8.77l140.34-24.36l1.51,8.78c0.11,0.63,0.55,1.16,1.15,1.38
						l37,13.63C423.59,825.56,424.27,825.45,424.76,825.04z M237.45,815.95c-0.46-2.67,1.32-5.23,4.01-5.7
						c2.67-0.46,5.24,1.34,5.7,4.01c0.47,2.69-1.34,5.24-4.01,5.7C240.46,820.43,237.92,818.64,237.45,815.95z"/><path fill="#4e2e7d" d="M417.6,763.46l14.42-2.5l-1.47-8.5c-0.11-0.62-0.56-1.15-1.15-1.37l-18.57-6.83
						c-0.6-0.23-1.27-0.12-1.77,0.3l-18.33,15.26l-11.98,9.97c-0.48,0.41-0.73,1.05-0.61,1.68l1.52,8.86L239.3,804.7
						c-4.54,0.79-7.91,4.3-8.73,8.55c-0.24,1.24-0.27,2.56-0.04,3.89c1.03,5.87,6.59,9.78,12.46,8.77l140.33-24.36l1.52,8.78
						c0.1,0.63,0.54,1.15,1.14,1.38l37.01,13.63c0.6,0.23,1.27,0.1,1.76-0.31l15.27-12.71c0.49-0.41,0.73-1.05,0.62-1.68l-0.68-3.89
						l-0.8-4.6l-14.42,2.51c-11.38,1.97-22.2-5.65-24.18-17.02C398.59,776.26,406.21,765.44,417.6,763.46z M243.15,819.96
						c-2.69,0.48-5.24-1.33-5.7-4.01c-0.46-2.66,1.33-5.23,4.02-5.69c2.67-0.47,5.23,1.34,5.7,4.01
						C247.63,816.95,245.83,819.5,243.15,819.96z"/><path fill="#c3d0db" d="M439.96,806.75l0.68,3.89c0.1,0.64-0.13,1.27-0.62,1.68l-15.27,12.71c-0.49,0.41-1.17,0.53-1.76,0.31
			l-37.01-13.63c-0.6-0.23-1.04-0.75-1.14-1.38l-1.52-8.78L243,825.91c-5.87,1.02-11.43-2.9-12.46-8.77
			c-0.23-1.33-0.21-2.65,0.04-3.89c2.15,2.16,7.47,7.46,9.26,8.85c2.25,1.77,139.51-24.69,140.82-25.25
			c1.31-0.56,0.54-13.34,0.54-13.34s8.21,20.31,8.63,22.65c0.43,2.35,34.45,13.27,34.45,13.27L439.96,806.75z"/><path fill="#a1a4a6" d="M367.4,786.02l-104.8,19.03c-2.18,0.4-3.62,2.48-3.22,4.65c0.4,2.18,2.48,3.62,4.65,3.22l104.8-19.03
			c2.18-0.4,3.62-2.48,3.22-4.65S369.57,785.62,367.4,786.02z"/><path fill="#a1a4a6" d="M430.55,752.47l1.47,8.5l-20.6-12.28l-20.45,11.43l-0.24-0.29l18.33-15.26c0.49-0.41,1.17-0.52,1.77-0.3
			l18.57,6.83C430,751.32,430.44,751.85,430.55,752.47z"/></g><g><path fill="#6021a6" d="M1176.41,829.81H187.59c-1.66,0-3-1.34-3-3s1.34-3,3-3h988.83c1.66,0,3,1.34,3,3
			S1178.07,829.81,1176.41,829.81z"/></g><g><path fill="#6021a6" d="M1021.38,874.68H791.16c-1.66,0-3-1.34-3-3s1.34-3,3-3h230.22c1.66,0,3,1.34,3,3
			S1023.04,874.68,1021.38,874.68z"/></g><g><path fill="#6021a6" d="M439.89,874.68h-71.12c-1.66,0-3-1.34-3-3s1.34-3,3-3h71.12c1.66,0,3,1.34,3,3S441.55,874.68,439.89,874.68z
			"/></g><g><path fill="#e64732" d="M358.84,118.55c16.57,0,30.01,13.43,30.01,30.01c0,5.76-1.63,11.14-4.44,15.71l6.67,15.85l-18.94-4.66
			c-4.01,1.99-8.52,3.11-13.3,3.11c-16.57,0-30.01-13.43-30.01-30.01C328.84,131.99,342.27,118.55,358.84,118.55z"/><path fill="#fff" d="M366.86,135.92c-4.1,5.73-8.21,11.46-12.31,17.19c-2.86-2.68-5.71-5.36-8.57-8.04
			c-1.72,2.19-3.44,4.38-5.16,6.57c4.84,3.2,9.69,6.41,14.53,9.61c6.18-6.64,12.37-13.29,18.55-19.93
			C371.55,139.52,369.2,137.72,366.86,135.92z"/></g><path fill="#e64732" d="M688.96,164.46c-1.74-0.52-3.1-1.88-3.62-3.62l-2.26-7.51l-2.26,7.51c-0.52,1.74-1.88,3.1-3.62,3.62
		l-7.51,2.26l7.51,2.26c1.74,0.52,3.1,1.88,3.62,3.62l2.26,7.51l2.26-7.51c0.52-1.74,1.88-3.1,3.62-3.62l7.51-2.26L688.96,164.46z"/><path fill="#e64732" d="M1102.88,690.48c-1.74-0.52-3.1-1.88-3.62-3.62l-2.26-7.51l-2.26,7.51c-0.52,1.74-1.89,3.1-3.62,3.62
		l-7.51,2.26l7.51,2.26c1.74,0.52,3.1,1.88,3.62,3.62l2.26,7.51l2.26-7.51c0.52-1.74,1.88-3.1,3.62-3.62l7.51-2.26L1102.88,690.48z"/><path fill="#8e53c2" d="M261.19,399.1c-1.74-0.52-3.1-1.88-3.62-3.62l-2.26-7.51l-2.26,7.51c-0.52,1.74-1.88,3.1-3.62,3.62
		l-7.51,2.26l7.51,2.26c1.74,0.52,3.1,1.88,3.62,3.62l2.26,7.51l2.26-7.51c0.52-1.74,1.88-3.1,3.62-3.62l7.51-2.26L261.19,399.1z"/><path fill="#8e53c2" d="M406.78,659.76c-1.74-0.52-3.1-1.88-3.62-3.62l-2.26-7.51l-2.26,7.51c-0.52,1.74-1.88,3.1-3.62,3.62
		l-7.51,2.26l7.51,2.26c1.74,0.52,3.1,1.88,3.62,3.62l2.26,7.51l2.26-7.51c0.52-1.74,1.88-3.1,3.62-3.62l7.51-2.26L406.78,659.76z"/><path fill="#ffc340" d="M279.69,327.77c-3.43-1.03-6.12-3.72-7.15-7.15l-4.46-14.82l-4.46,14.82c-1.03,3.43-3.72,6.12-7.15,7.15
		l-14.82,4.46l14.82,4.46c3.43,1.03,6.12,3.72,7.15,7.15l4.46,14.82l4.46-14.82c1.03-3.43,3.72-6.12,7.15-7.15l14.82-4.46
		L279.69,327.77z"/><path fill="#ffc340" d="M1154.04,631.14c-3.43-1.03-6.12-3.72-7.15-7.15l-4.46-14.82l-4.46,14.82c-1.03,3.43-3.72,6.12-7.15,7.15
		l-14.82,4.46l14.82,4.46c3.43,1.03,6.12,3.72,7.15,7.15l4.46,14.82l4.46-14.82c1.03-3.43,3.72-6.12,7.15-7.15l14.82-4.46
		L1154.04,631.14z"/></svg>