<svg xmlns="http://www.w3.org/2000/svg" viewBox="0 0 1080 1080"><g data-name="Product Launch"><ellipse cx="236.99" cy="1017.28" fill="#e5e4ff" rx="151.48" ry="32.2"/><circle cx="775.78" cy="697.4" r="44.74" fill="#ebeff7"/><circle cx="660.15" cy="700.52" r="41.61" fill="#ebeff7"/><circle cx="618.54" cy="730.58" r="37.1" fill="#ebeff7"/><circle cx="820.51" cy="730.58" r="37.1" fill="#ebeff7"/><path fill="#d5dfee" d="M657.65 520.4H784v346.76H657.65z"/><path fill="#ff0d00" d="M719.53 725.36S666 603.42 666 573.89a53.49 53.49 0 1 1 107 0c0 29.53-53.47 151.47-53.47 151.47Z"/><path fill="#fdac3c" d="M719.53 631s-24.92-56.8-24.92-70.56a24.92 24.92 0 1 1 49.83 0c0 13.72-24.91 70.56-24.91 70.56Z"/><path fill="#ff0d00" d="M895.72 501.54v-64.5l-103.07-79.25v143.75h103.07zM543.34 501.54v-64.5l103.06-79.25v143.75H543.34z"/><path fill="#303030" d="m656.47 541.57-20.35-59.84h169.3l-20.34 59.84H656.47z"/><path fill="#ebeff7" d="M784.29 129.57c-22-40.8-50.63-66.91-64.76-66.91s-42.76 26.1-64.77 66.9c-15.48 28.71-29 64.71-30.56 104v268h190.66v-268c-1.59-39.29-15.08-75.28-30.57-103.99Z"/><circle cx="719.53" cy="281.08" r="56.69" fill="#bbc8df"/><circle cx="719.53" cy="281.08" r="43.87" fill="#9bcffa"/><path fill="#ff0d00" d="M655.69 426.56h127.68v22.28H655.69z" transform="rotate(90 719.53 437.7)"/><path fill="#ff0d00" d="M719.53 135.59a336.6 336.6 0 0 1-64.77-6c22-40.8 50.64-66.9 64.77-66.9s42.75 26.11 64.76 66.91a337.32 337.32 0 0 1-64.76 5.99Z"/><circle cx="577.19" cy="767.68" r="50.17" fill="#ebeff7"/><circle cx="671.93" cy="781.65" r="63.28" fill="#ebeff7"/><circle cx="522.19" cy="770.37" r="30.86" fill="#ebeff7"/><circle cx="857.61" cy="770.37" r="50.17" fill="#ebeff7"/><circle cx="767.13" cy="781.65" r="63.28" fill="#ebeff7"/><circle cx="907.78" cy="767.68" r="30.86" fill="#ebeff7"/><path fill="#e29434" d="M516.86 811.6h403.75v205.74H516.86z"/><path fill="#fdac3c" d="M687.21 811.6h233.4v205.74h-233.4z"/><path fill="#e29434" d="M920.61 811.67h-233.4l80.8-50h233.4l-80.8 50z"/><path fill="#fdac3c" d="M518.45 811.67h168.76l-80.81-50H437.64l80.81 50z"/><path fill="#fff0d3" d="M718.73 969.42h98.55v22.79h-98.55z"/><path fill="#f2a2a2" d="M271.13 945.06h29.66v59.41h-29.66z" transform="rotate(.84 284.732 969.93)"/><path fill="#303030" d="M315.1 985.63c-3.67-2.15.59-11.7-3.15-13.87s-16.15-2.49-19-.31c-1.47 1.12-1.36 4.59-.91 7.72-.82 4.49-3.21 6.07-11.17 5.58-6.85-.41-8-4.34-10.94-4.52-2.68-.17-3.17 3-3.17 3s-5.39 24.19-1.74 28.64 82.35 7.12 83.45 4.11c4.86-13.31-17.16-16.16-33.37-30.35Z"/><path fill="#fff" d="M301 990.18a.59.59 0 0 1-.57-.43.6.6 0 0 1 .41-.74l14.07-4a.6.6 0 1 1 .32 1.15l-14.06 3.95ZM309.21 995.48a.6.6 0 0 1-.16-1.17l13.4-3.61a.6.6 0 0 1 .31 1.15l-13.4 3.61a.39.39 0 0 1-.15.02ZM318 1000.82a.59.59 0 0 1-.58-.44.6.6 0 0 1 .41-.74l13.38-3.75a.6.6 0 0 1 .74.41.6.6 0 0 1-.41.74l-13.38 3.76Z"/><path fill="#e08080" d="m271.41 955.6 29.65.92-29.83 11.49.18-12.41z"/><path fill="#303030" d="M308 950.69c3.35-72.14 19.39-223.06 20-245.41.78-26.42-9.8-51-43.57-49.56s-53.19 19.27-53.3 74.33c-.05 20.81 28.49 202 28.68 224.45 22.9 4.74 45.76 5.67 48.19-3.81Z"/><path fill="#303030" d="M322.7 748.11c-7.8 26.42-52.34 40.08-70.06 13.66-16-23.8-40.31-125.09-36.95-169.16.65-8.91 4.21-25.24 8.84-36.81 3.38-8.45 8.41-17.48 15.79-22.87 42.4-31.06 100.8-12 96.27 101.61-.36 8.89-8.67 95.93-13.89 113.57Z"/><path fill="#050505" d="M241.19 604.71c22.56 3.8 51.58 3.34 94.54-6.33 0-2.4-3.53-28.46-6.22-37.59Z"/><path fill="#050505" d="m244.46 834.53-50-238 63.63-3.8s19.35 99.06 18 137.4c-1.56 45.87-31.63 104.4-31.63 104.4Z"/><path fill="#f2a2a2" d="M130.39 947.74h29.66v59.41h-29.66z" transform="rotate(-165.87 145.245 977.443)"/><path fill="#303030" d="M163.58 989c0-3 .15-12.3-3.45-13-2.38-.46-13.71-2.53-17.56 0-3.11 2-.37 22.9-14.42 9.95-.66.11-3.71.29-3.71 3 0 13-3.06 20.43-2.15 25.2 1.83 9.61 7.54 9 21.72 8.73 14.34.25 30.23-.88 33.33-1l.15-.15c5.14-.92 8.71-2.43 8.71-4.77 0-14.9-22.62-14.96-22.62-27.96Z"/><path fill="#fff" d="M163.59 990h-15.91a.59.59 0 0 1-.6-.59.6.6 0 0 1 .6-.6h15.91a.6.6 0 0 1 .6.6.59.59 0 0 1-.6.59ZM166.09 996.34H152.4a.59.59 0 0 1-.6-.59.6.6 0 0 1 .6-.6h13.69a.59.59 0 0 1 .59.6.58.58 0 0 1-.59.59ZM174.57 1002.66h-19.82a.58.58 0 0 1-.59-.59.59.59 0 0 1 .59-.6h19.82a.6.6 0 0 1 .6.6.59.59 0 0 1-.6.59Z"/><path fill="#e08080" d="m164.22 962.69-28.88-6.77 25.85 18.8 3.03-12.03z"/><path fill="#303030" d="M130.1 948.49c15.39-70.56 38.86-220.5 44-242.27 6.07-25.73 22.64-46.77 54.88-36.63s45.51 35.29 31.4 88.52C255 778.23 181.59 943 175.62 964.59c-23.26-1.31-45.62-6.31-45.52-16.1Z"/><path fill="#303030" d="M266.73 726.25c.12 27.55-45.72 47.7-70.29 27.49-23.33-19.18-71.45-99.38-76.28-139.17a168.51 168.51 0 0 1-1.35-24.2c.23-9.52 1.58-19.07 5-26.81a34 34 0 0 1 3.85-6.59c27.89-36.91 81.43-41.58 112.61 41.34a2.77 2.77 0 0 1 .1.26 275.74 275.74 0 0 1 8.73 28c2.29 8.58 17.55 81.28 17.63 99.68Z"/><path fill="#050505" d="m241.18 598.57-.74-.05-121.63-8.15c.23-9.52 1.58-19.07 5-26.81l3.85-6.59 112.61 41.34Z"/><path fill="#f2a2a2" d="M430.5 318.22c-3.7 7.34-10.26 23.68-18.23 43.29-2.13 5.24-4.37 10.72-6.68 16.32-12.43 30.22-27 64-39.45 84.1-7.78 12.57-30.51 17.27-43.39 9-12.16-7.78-21.94-31.29-8.43-50.66 0 0 77.54-102.51 92.77-123.83s31.39 6 23.41 21.78Z"/><path fill="#e08080" d="M412.27 361.51c-2.13 5.24-8.81 21.55-11.12 27.15l-76.55 55.18-6.5-20.17Z"/><path fill="#f2a2a2" d="M444.7 294.94s11.91 2.11 9 8.79c-1.85 4.32-12.58 1.5-12.58 1.5s-2.12-9.38 3.58-10.29Z"/><path fill="#f2a2a2" d="M448.38 287.05s11.91 2.12 9.05 8.79c-1.86 4.33-12.59 1.51-12.59 1.51s-2.19-9.35 3.54-10.3Z"/><path fill="#f2a2a2" d="M451.08 278.72s11.91 2.12 9 8.79c-1.85 4.33-12.58 1.51-12.58 1.51s-2.15-9.39 3.58-10.3Z"/><path fill="#f2a2a2" d="M420.46 329.24c9.66-4.85 19.44-13 25.59-23.61 2.46-4.23 5.85-4.41 2.86-6.65 4-1.52 4.13-9.48.54-10.2 4.66-3.41 3.57-11.22 1.16-9.71 6.13-3.81 10-5.46 7.23-10.41-3.58-6.34-29 7.17-36.55 12.29s-9.65 9.8-16.36 25.31c-8.93 20.59 2.34 29.59 15.53 22.98Z"/><rect width="57.44" height="101.47" x="432" y="216.32" fill="#303030" rx="7" transform="rotate(.45 460.692 266.847)"/><path fill="#9bcffa" d="m484.78 223.5-.69 87.5a2 2 0 0 1-2 2l-43.44-.34a2 2 0 0 1-2-2l.69-87.47a2 2 0 0 1 2-2l8.35.06.34 1.14a3 3 0 0 0 2.85 2.14l20.31.16a3 3 0 0 0 2.88-2.1l.36-1.13 8.35.07a2 2 0 0 1 2 1.97Z"/><circle cx="460.71" cy="252.29" r="16.52" fill="#7cb75b"/><path fill="#fff" d="m457.76 260.64-7.51-7.51 2.2-2.19 5.31 5.31 11.22-11.22 2.2 2.19-13.42 13.42z"/><rect width="24.78" height="8.03" x="448.45" y="285.54" fill="#7cb75b" rx="4.02"/><path fill="#f2a2a2" d="M427.54 313.16c-7.56 4.1-8-18.64-2.18-24.83 0 0 20-13.15 21.72-5.23 1.16 5.46-11.49 13-11.49 13s3.91 9.94-8 17.06"/><path fill="#8179e2" d="M324.18 501.11c2.48 21.72 8.81 44.37 17.47 76.71-11 17-36.78 21.61-71.93 21.61-86 0-140.08-22.66-154.06-36.61 14.5-54.47 30-66.35 33.25-112.59 4.06-58.23-22-57.48-22-125.39 0-60 44.18-54.15 138.38-50.41 28 1.12 43.7 18.85 64 47.62 14 19.79 29.73 42.3 29.73 67.46 0 16.72-11.38 35-31.65 51.36-4.59 23.21-5.37 41.37-3.19 60.24Z"/><path fill="#6e68cb" d="M132 514.88c0-.26 3.48-8.18 7.81-20.08a159.52 159.52 0 0 0 9.14-44.57c2-28.84-3.35-43.2-9.28-58.58l54-43.56-28.77 93.32Z"/><path fill="#050505" d="M259.19 154.66s35-9.32 35.67 24.16c.93 45.17-57 52.88-57 52.88Z"/><path fill="#f2a2a2" d="m232 219.11 1.49 54-18.13-.56c11.38 21.07 36.64 34.22 50.43 34.22 6.18 0 11-17.48 8-30.8 0 0-12.21-1.74-14.43-1.78l-2.15-28.35Z"/><path fill="#e08080" d="M241.75 238.36s1.13 17.5 16.49 20.6l-1.51-15.62Z"/><path fill="#2b2b2b" d="M215.68 154s-20.22-15.25-40.41-2.27-13.58 42-21.39 66.05c0 0 11.66 10.07 31.26-3.23s12-51.45 25.11-47.11 5.43-13.44 5.43-13.44Z"/><path fill="#8179e2" d="M221.13 155.7c-1-2.23-10.62-7.11-16.58 4.54-5.38 10.53 6.32 18.92 12.62 12.92 5.7-5.42 4.99-15.23 3.96-17.46Z"/><path fill="#f2a2a2" d="M273.85 181.71c-10.5-12.09-47-6.88-47.13 15s16.6 58.26 42.88 57c8.72-.42 15.68-24.85 13.44-29.64-4.1-11.65-.64-20-.75-24.68s-4.66-13.32-8.44-17.68Z"/><path fill="#2b2b2b" d="M232.68 244.51s-27.3-15.88-29.11-53c-.93-19.16 6.86-26.3 13.68-33.24 10.18-10.38 66.48-22.52 67.68 19.28.75 26.3-51.7 12.58-51.7 32.68-.08 9.77-.55 34.28-.55 34.28Z"/><ellipse cx="230.21" cy="214.78" fill="#f2a2a2" rx="4.94" ry="7.82" transform="rotate(-22.6 230.252 214.811)"/><ellipse cx="259.59" cy="210.22" rx="2.23" ry="3.84" transform="rotate(-1.74 260.269 210.776)"/><ellipse cx="276.44" cy="209.7" rx="2.23" ry="3.84" transform="rotate(-1.74 277.07 210.372)"/><path fill="#2b2b2b" d="M253.57 200.62c0-.56 1.12-1.71 4.34-2.16 2.21-.31 5.48.58 5.59 1.61.26 2.52-3.27.89-5.9.7s-4.07.42-4.03-.15ZM282.51 199.74c-.07-.56-1.22-1.64-4.46-1.89-2.22-.18-5.43.91-5.48 1.94-.1 2.53 3.32.69 5.93.35s4.09.16 4.01-.4Z"/><path fill="#ee7a7e" d="M269.48 228a.43.43 0 0 1-.43-.43.44.44 0 0 1 .42-.44s3.18-.06 4.36-1.3a1.4 1.4 0 0 0 .41-1.05c-.08-2.59-4.38-11.3-4.43-11.39a.43.43 0 0 1 .2-.58.41.41 0 0 1 .57.2c.18.36 4.44 9 4.52 11.75a2.27 2.27 0 0 1-.65 1.67c-1.43 1.5-4.82 1.56-5 1.57Z"/><path fill="#fff" d="M260.23 236.15c8.86 10.27 14.72 5 14.44 2.49Z"/><path fill="#f2a2a2" d="M249 348.31c21.6 27.89 41.07 54.45 42.8 57.57 21.08 37.8 7.58 50.37-8.91 53.84-8.87 1.86-35.25-12.13-68.4-42.49-.18-.12-4.62-3.94-11.38-9.9-3.14-2.76-6.76-6-10.69-9.49-22.09-19.74 32.78-80.52 56.58-49.53Z"/><path fill="#e08080" d="M247.4 346.43c-.05.1-44.23 60.83-44.33 60.91-3.14-2.76-6.76-6-10.69-9.49-4.26-3.82-5.64-9.17-4.93-15.1 61.36-37.18 59.85-36.24 59.95-36.32Z"/><path fill="#8179e2" d="M250.07 344.17 188.43 396s-92.67-69.4-47.76-108.38c14.13-12.26 28.81-13.73 43.59-7.45 34.46 14.64 65.81 64 65.81 64Z"/><path fill="#f2a2a2" d="M269.68 395.2c-21.26 10.28-24.23 35.58-17.44 48.31 7.2 13.49 29.32 20.51 42.26 13.35 38.81-21.48 107.93-81.41 126.44-93.85 14.67-9.87 13.94-41.58-9.78-30.43S269.68 395.2 269.68 395.2Z"/><path fill="#db7678" d="M371.13 351.08a.49.49 0 0 1-.45-.3.49.49 0 0 1 .25-.66c18.1-8 22.61-10.1 28.79-14.73a.5.5 0 1 1 .6.8c-6.26 4.7-10.8 6.78-29 14.85a.45.45 0 0 1-.19.04Z"/><path fill="#f2a2a2" d="M422.35 312.23c-4.92 3.71-31.47 23-23.58 39.17 6.6 13.54 20.54 24.79 54 1.36 11.52-8.06 2.57-13.81-1.3-12.74 5.68-6.54 2.42-13.39-4.26-13.12 6.11-6.94-.27-14.88-5.32-12.88 6.57-6.06 23.93-19.46 15.76-24.56-4.22-2.63-30.39 19.05-35.3 22.77Z"/><path fill="#f2a2a2" d="M400 335.79s3.21-20.52 11-28.59c3.52-3 14.84-14 17.71-12.72 5.63 2.44-2.25 13.65-5.69 17.73-3.2 5.37-23.02 23.58-23.02 23.58Z"/><path fill="#db7678" d="M400 336.29h-.08a.49.49 0 0 1-.41-.57c.13-.84 3.32-20.76 11.15-28.86.66-.57 1.55-1.36 2.58-2.29C420.13 298.4 426.51 293 429 294a3.54 3.54 0 0 1 2.15 2.53c1.25 5.35-7.29 15.55-7.66 16a.49.49 0 0 1-.7.06.51.51 0 0 1-.06-.71c3.46-4.09 8.29-11.49 7.44-15.1a2.51 2.51 0 0 0-1.57-1.84c-2.06-.9-10.54 6.71-14.62 10.37-1.05.94-1.93 1.73-2.57 2.27-7.57 7.83-10.81 28.08-10.84 28.28a.51.51 0 0 1-.57.43Z"/><path fill="#db7678" d="M423.06 312.71a.5.5 0 0 1-.3-.9l13.71-10.39a.5.5 0 1 1 .61.79l-13.72 10.4a.54.54 0 0 1-.3.1Z"/></g></svg>