<svg xmlns="http://www.w3.org/2000/svg" enable-background="new 0 0 1364 960" viewBox="0 0 1364 960"><path fill="#e4e0ff" d="M338.75,370.16c-8.28,17.17-1.09,37.79,16.07,46.08c17.16,8.28,37.79,1.08,46.07-16.09
			c8.28-17.16,1.08-37.79-16.08-46.06C367.64,345.79,347.02,353,338.75,370.16z M377.85,389.03c-2.14,4.44-7.48,6.3-11.91,4.16
			c-4.43-2.14-6.3-7.47-4.16-11.91c2.14-4.43,7.48-6.3,11.91-4.16C378.13,379.25,379.99,384.59,377.85,389.03z"/><path fill="#e4e0ff" d="M398.31,290.15l-15.2,16.01c0,0,0,0,0,0c-5.86-0.99-11.77-1.31-17.6-0.99l-13.52-17.62
			c-2.29-2.98-6.23-4.16-9.78-2.92l-13.58,4.74c-3.58,1.25-5.94,4.67-5.84,8.45l0.58,22.1l-0.01,0.01
			c-4.76,3.38-9.17,7.28-13.13,11.71c0,0,0,0,0,0l-22.02-2.9c-3.73-0.49-7.35,1.47-8.98,4.85l-6.25,12.96
			c-1.65,3.41-0.9,7.5,1.85,10.1l16.03,15.22c0,0,0,0,0,0.01c-1.01,5.85-1.33,11.73-1.01,17.56c0,0,0,0.01,0,0.01l-17.62,13.52
			c-2.98,2.29-4.16,6.23-2.92,9.78l4.74,13.58c1.25,3.58,4.67,5.94,8.45,5.84l22.07-0.58c3.39,4.76,7.31,9.18,11.75,13.15
			l-2.9,22.01c-0.49,3.73,1.47,7.35,4.85,8.98l12.96,6.25c3.41,1.65,7.5,0.9,10.1-1.85l15.2-16.01c0,0,0,0,0.01,0
			c5.86,0.99,11.77,1.31,17.6,0.99l13.52,17.61c2.29,2.98,6.23,4.16,9.78,2.92l13.58-4.74c3.58-1.25,5.94-4.67,5.84-8.45
			l-0.58-22.09c4.76-3.37,9.17-7.28,13.12-11.71l0.01-0.01l22.04,2.9c3.73,0.49,7.35-1.47,8.98-4.85l6.25-12.96
			c1.65-3.41,0.9-7.5-1.85-10.1l-16.02-15.2c0,0,0-0.01,0-0.01c0.99-5.86,1.32-11.76,0.99-17.57c0-0.01,0-0.01,0-0.02l17.62-13.52
			c2.98-2.29,4.16-6.23,2.92-9.78l-4.74-13.58c-1.25-3.58-4.67-5.94-8.45-5.84l-22.07,0.58c-3.39-4.76-7.31-9.17-11.75-13.15
			l2.9-22.02c0.49-3.73-1.47-7.35-4.85-8.98l-12.96-6.25C405,286.65,400.92,287.4,398.31,290.15z M421.4,410.03
			c-13.74,28.48-47.98,40.43-76.47,26.69c-28.48-13.74-40.44-47.98-26.69-76.47c13.74-28.48,47.98-40.42,76.46-26.68
			C423.18,347.33,435.14,381.55,421.4,410.03z"/><path fill="#e4e0ff" d="M661.53,161.03c-1.83,10.71,5.36,20.87,16.07,22.7c10.7,1.83,20.86-5.37,22.69-16.08
			c1.83-10.7-5.37-20.86-16.07-22.69C673.51,143.13,663.36,150.33,661.53,161.03z M685.92,165.2c-0.47,2.77-3.1,4.63-5.87,4.16
			c-2.77-0.47-4.63-3.09-4.16-5.87c0.47-2.77,3.1-4.63,5.87-4.16C684.53,159.8,686.39,162.43,685.92,165.2z"/><path fill="#e4e0ff" d="M681.53,107.82l-5.8,11.17c0,0,0,0,0,0c-3.36,0.38-6.65,1.14-9.79,2.23l-10.18-7.51
			c-1.72-1.27-4.07-1.29-5.82-0.06l-6.69,4.74c-1.76,1.25-2.51,3.49-1.86,5.55l3.8,12.01l0,0.01c-2.07,2.6-3.87,5.43-5.35,8.48
			c0,0,0,0,0,0l-12.52,1.89c-2.12,0.32-3.79,1.96-4.15,4.07l-1.38,8.08c-0.36,2.13,0.69,4.25,2.61,5.24l11.18,5.8c0,0,0,0,0,0
			c0.37,3.36,1.12,6.63,2.22,9.77c0,0,0,0,0,0.01l-7.52,10.19c-1.27,1.72-1.29,4.07-0.06,5.82l4.74,6.69
			c1.25,1.76,3.49,2.51,5.55,1.86l11.99-3.8c2.61,2.07,5.45,3.87,8.51,5.35l1.89,12.51c0.32,2.12,1.96,3.79,4.07,4.15l8.08,1.38
			c2.13,0.36,4.25-0.69,5.24-2.61l5.8-11.17c0,0,0,0,0,0c3.36-0.38,6.65-1.14,9.79-2.23l10.18,7.51c1.72,1.27,4.07,1.29,5.82,0.06
			l6.69-4.74c1.76-1.25,2.51-3.49,1.86-5.55l-3.8-12.01c2.07-2.6,3.87-5.43,5.34-8.48l0-0.01l12.53-1.89
			c2.12-0.32,3.79-1.96,4.15-4.07l1.38-8.08c0.36-2.13-0.69-4.25-2.61-5.24l-11.17-5.8c0,0,0,0,0-0.01
			c-0.38-3.37-1.13-6.65-2.23-9.78c0,0,0-0.01,0-0.01l7.52-10.19c1.27-1.72,1.29-4.07,0.06-5.82l-4.74-6.69
			c-1.25-1.76-3.49-2.52-5.55-1.86l-11.99,3.8c-2.61-2.07-5.45-3.87-8.51-5.35l-1.89-12.51c-0.32-2.12-1.96-3.79-4.07-4.15
			l-8.08-1.38C684.64,104.85,682.52,105.91,681.53,107.82z M713.08,169.83c-3.03,17.77-19.9,29.71-37.66,26.68
			c-17.77-3.03-29.71-19.9-26.68-37.66c3.03-17.77,19.89-29.7,37.66-26.67S716.11,152.06,713.08,169.83z"/><path fill="#e4e0ff" d="M794.93,232.83c-3.42,14.09,5.22,28.29,19.31,31.71c14.09,3.42,28.28-5.23,31.71-19.32
			c3.42-14.09-5.23-28.28-19.31-31.7C812.54,210.09,798.35,218.74,794.93,232.83z M827.04,240.63c-0.89,3.65-4.56,5.88-8.2,4.99
			c-3.64-0.88-5.88-4.55-4.99-8.2c0.88-3.64,4.56-5.88,8.2-4.99C825.68,233.31,827.92,236.99,827.04,240.63z"/><path fill="#e4e0ff" d="M826.48,163.8l-8.75,14.34c0,0,0,0,0,0c-4.52,0.2-8.97,0.9-13.25,2.07l-12.87-10.95
			c-2.18-1.85-5.3-2.1-7.74-0.61l-9.35,5.7c-2.46,1.5-3.67,4.42-2.99,7.22l3.96,16.35l0,0.01c-3,3.27-5.66,6.88-7.9,10.81
			c0,0,0,0,0,0l-16.85,1.36c-2.85,0.23-5.23,2.26-5.91,5.04l-2.58,10.64c-0.68,2.8,0.53,5.72,2.99,7.22l14.36,8.76c0,0,0,0,0,0
			c0.18,4.52,0.89,8.94,2.05,13.22c0,0,0,0.01,0,0.01l-10.95,12.87c-1.85,2.18-2.1,5.3-0.61,7.74l5.7,9.35
			c1.5,2.46,4.42,3.67,7.22,2.99L779.3,284c3.28,3,6.9,5.66,10.84,7.91l1.36,16.84c0.23,2.85,2.26,5.23,5.04,5.91l10.64,2.58
			c2.8,0.68,5.72-0.53,7.22-2.99l8.75-14.34c0,0,0,0,0,0c4.52-0.2,8.97-0.9,13.25-2.07l12.87,10.95c2.18,1.85,5.3,2.1,7.74,0.61
			l9.35-5.7c2.46-1.5,3.67-4.42,2.99-7.22l-3.96-16.34c3-3.27,5.66-6.88,7.89-10.81l0-0.01l16.86-1.36
			c2.85-0.23,5.23-2.26,5.91-5.04l2.58-10.64c0.68-2.8-0.53-5.72-2.99-7.22l-14.34-8.75c0,0,0-0.01,0-0.01
			c-0.2-4.52-0.9-8.96-2.07-13.23c0,0,0-0.01,0-0.01l10.95-12.87c1.85-2.18,2.1-5.3,0.61-7.74l-5.7-9.35
			c-1.5-2.46-4.42-3.67-7.22-2.99l-16.33,3.95c-3.28-3-6.9-5.66-10.84-7.91l-1.36-16.84c-0.23-2.85-2.26-5.23-5.04-5.91l-10.64-2.58
			C830.9,160.13,827.98,161.34,826.48,163.8z M862.79,249.31c-5.68,23.39-29.24,37.74-52.63,32.06
			c-23.39-5.68-37.74-29.24-32.06-52.63c5.68-23.39,29.24-37.73,52.63-32.05S868.47,225.92,862.79,249.31z"/><path fill="#92a838" d="M1016.68,605.83c4.69-1.21,10.39,5.18,12.72,14.25c1.95,7.58,0.93,14.62-2.18,17.45
		c0.15,0.27,0.3,0.55,0.46,0.82c3.99,6.9,8.63,13.86,14.82,18.98c0.01,0.01,0.01,0.01,0.02,0.02c0.54-0.85,1.07-1.7,1.63-2.54
		c3.93-5.92,8.31-11.47,12.91-16.84c-3.06-2.53-4.54-6.42-6-10.01c-1.67-4.11-3.09-8.33-4.25-12.61c-0.9-3.3-1.64-6.65-2.23-10.01
		c-0.13,0-0.27,0-0.41-0.01c-4.83-0.3-8.28-8.13-7.69-17.49c0.59-9.36,4.98-16.69,9.81-16.39c4.83,0.3,8.28,8.13,7.69,17.49
		c-0.46,7.33-3.26,13.43-6.78,15.57c0.54,3.13,1.21,6.24,2.02,9.31c1.03,3.88,2.27,7.71,3.71,11.46c1.41,3.67,2.8,8.02,5.91,10.61
		c5.75-6.6,11.78-12.97,17.65-19.48c-0.07-0.08-0.14-0.18-0.2-0.29c-3.51-6.91-5.16-14.38-5.07-22.12c0.02-1.3,0.08-2.59,0.17-3.88
		c-3.47-2.32-5.69-8.96-5.21-16.61c0.59-9.36,4.98-16.69,9.81-16.39c4.83,0.3,8.28,8.13,7.69,17.49c-0.57,9.15-4.79,16.36-9.49,16.4
		c-0.42,7.92,0.5,15.76,4.22,23.25c3.15-3.53,6.24-7.12,9.19-10.82c4.69-5.87,9.04-12.04,12.69-18.58
		c-2.92-3.15-2.68-10.62,0.86-18.02c4.04-8.46,10.86-13.62,15.23-11.53c4.37,2.09,4.63,10.64,0.59,19.1
		c-3.79,7.93-10.02,12.96-14.38,11.84c-5.79,10.33-13.23,19.7-21.11,28.66c3.75,0.17,7.48-0.59,11.17-1.2
		c4.25-0.71,8.5-1.44,12.7-2.38c2.76-0.62,5.51-1.33,8.22-2.15c1.18-3.93,6.22-8.22,13.07-10.63c8.84-3.12,17.31-1.95,18.92,2.62
		c1.61,4.57-4.25,10.8-13.08,13.92c-8.84,3.12-17.31,1.95-18.92-2.62c-0.05-0.13-0.07-0.27-0.1-0.4c-2.58,0.76-5.2,1.43-7.83,2.01
		c-4.22,0.92-8.48,1.67-12.74,2.38c-4.41,0.73-8.81,1.56-13.3,1.06c-0.12-0.01-0.23-0.04-0.34-0.08c-1.82,2.04-3.66,4.06-5.51,6.07
		c-4.18,4.55-8.37,9.09-12.44,13.74c10.86,2.74,22.07,3.67,33.16,2.75c1.31-3.99,7.25-7.83,14.89-9.25
		c9.22-1.71,17.41,0.76,18.29,5.52c0.88,4.76-5.87,10.01-15.09,11.72c-9.02,1.68-17.04-0.66-18.21-5.23
		c-11.4,0.91-22.93-0.05-34.08-2.94c-0.35-0.09-0.6-0.28-0.77-0.51c-2.62,3.05-5.17,6.15-7.61,9.35c-2.68,3.51-5.17,7.13-7.48,10.87
		c0.11,0.02,0.23,0.05,0.35,0.1c7.39,3.25,15.18,5.44,23.2,6.46c2.1,0.27,4.27,0.48,6.46,0.62c2.25-3.44,8.38-6.08,15.69-6.38
		c9.37-0.38,17.12,3.24,17.31,8.08c0.19,4.84-7.24,9.07-16.61,9.45c-9.37,0.38-17.12-3.24-17.31-8.08c-0.01-0.13,0-0.27,0-0.4
		c-1.76-0.12-3.51-0.28-5.22-0.48c-8.53-1-16.86-3.33-24.71-6.78c-0.21-0.09-0.37-0.22-0.5-0.36c-3.27,5.5-6.19,11.21-8.75,17.12
		c-0.49,1.12-0.95,2.25-1.41,3.38c0.11,0.02,0.22,0.05,0.34,0.1c4.23,1.82,8.62,3.26,13.1,4.31c2.62-3.04,8.35-5.3,15.08-5.58
		c9.37-0.38,17.12,3.24,17.31,8.08c0.19,4.84-7.24,9.07-16.61,9.45c-9.37,0.38-17.12-3.24-17.31-8.08c-0.02-0.47,0.04-0.94,0.16-1.4
		c-4.41-1.07-8.72-2.5-12.92-4.3c-0.06-0.02-0.1-0.06-0.15-0.09c-4.1,10.39-7.35,21.11-10.32,31.88c-0.47,1.69-3.18,1.22-2.71-0.48
		c3.1-11.25,6.53-22.5,10.87-33.36c-3.14-2.37-6.23-4.95-8.99-7.81c-0.17,0.1-0.35,0.2-0.53,0.28c-4.5,1.8-10.97-3.79-14.45-12.49
		c-3.49-8.7-2.67-17.22,1.82-19.02c4.49-1.8,10.97,3.79,14.45,12.49c2.69,6.72,2.81,13.31,0.66,16.8c2.49,2.58,5.27,4.93,8.11,7.11
		c2.94-7.06,6.32-13.92,10.27-20.49c-0.14-0.05-0.28-0.12-0.41-0.23c-6.63-5.49-11.69-13.04-15.85-20.5
		c-0.02-0.04-0.05-0.08-0.07-0.12c-4.62,0.81-10.09-5.48-12.36-14.33C1010.08,615.38,1011.99,607.04,1016.68,605.83z"/><path fill="#e4e0ff" d="M1161.84,887.15H202.16c-1.66,0-3-1.34-3-3s1.34-3,3-3h959.69c1.66,0,3,1.34,3,3
				S1163.5,887.15,1161.84,887.15z"/><path fill="#e4e0ff" d="M539.52,915.15H364.18c-1.66,0-3-1.34-3-3s1.34-3,3-3h175.34c1.66,0,3,1.34,3,3S541.18,915.15,539.52,915.15
				z"/><path fill="#e4e0ff" d="M976.48,915.15H747.27c-1.66,0-3-1.34-3-3s1.34-3,3-3h229.21c1.66,0,3,1.34,3,3S978.14,915.15,976.48,915.15
				z"/><path fill="#e4e0ff" d="M1032.32,915.15h-36.01c-1.66,0-3-1.34-3-3s1.34-3,3-3h36.01c1.66,0,3,1.34,3,3
				S1033.98,915.15,1032.32,915.15z"/><path fill="#fff" d="M766.19,239.03H440.74c-18.41,0-33.33,14.92-33.33,33.33v565.93c0,18.41,14.92,33.33,33.33,33.33h325.45
			c18.41,0,33.33-14.92,33.33-33.33V272.36C799.52,253.95,784.6,239.03,766.19,239.03z"/><path fill="#6c39a8" d="M765.52,193.86H441.39c-22.01,0-39.84,17.83-39.84,39.84v607.93c0,12.01,5.33,22.79,13.75,30.1
			c0.28,0.24,0.56,0.48,0.85,0.72c6.87,5.66,15.68,9.02,25.25,9.02h324.13c9.57,0,18.38-3.37,25.25-9.02
			c8.92-7.31,14.61-18.4,14.61-30.82V233.7C805.38,211.7,787.53,193.86,765.52,193.86z M796.94,826.1
			c0,23.11-19.81,41.83-44.24,41.83H454.23c-24.43,0-44.24-18.73-44.24-41.83V273.14c0-14.37,12.32-26.02,27.52-26.02h331.92
			c15.2,0,27.51,11.65,27.51,26.02V826.1z"/><path fill="#fff" d="M749,221.77c0,7.07,5.74,12.82,12.82,12.82s12.82-5.74,12.82-12.82c0-7.08-5.74-12.82-12.82-12.82
					S749,214.69,749,221.77z"/><path fill="#6c39a8" d="M753.15,221.77c0,4.79,3.88,8.67,8.67,8.67c4.79,0,8.67-3.89,8.67-8.67c0-4.79-3.89-8.67-8.67-8.67
					C757.03,213.1,753.15,216.98,753.15,221.77z"/><path fill="#fff" d="M722.76,221.77c0,4.79,3.89,8.67,8.67,8.67s8.67-3.89,8.67-8.67c0-4.79-3.89-8.67-8.67-8.67
					S722.76,216.98,722.76,221.77z"/><path fill="#e4e0ff" d="M749.48,580.58H457.65c-9.66,0-17.5-7.84-17.5-17.5V296.31c0-9.66,7.83-17.5,17.5-17.5h291.83
		c9.66,0,17.5,7.83,17.5,17.5v266.77C766.98,572.75,759.14,580.58,749.48,580.58z"/><path fill="#30334d" d="M1075.59,263.88c0.2,0,0.2,0.32,0,0.32C1075.39,264.2,1075.39,263.88,1075.59,263.88z"/><path fill="#6c39a8" d="M1004.91,195.73c15.35-11.68,35.37-16.45,54.59-14.84c12.42,1.04,24.82,4.73,34.94,12.01
				c10.12,7.27,17.79,18.35,19.54,30.7c1.75,12.34-2.97,25.75-12.99,33.17c-10.59,7.85-24.96,8.17-37.99,6.24
				c-16.5-2.44-32.44-7.92-48.97-10.17c-6.84-0.93-14.06-1.26-20.37,1.52c-6.31,2.78-11.33,6.05-13.38,15.25
				C970.07,230.23,989.56,207.41,1004.91,195.73z"/><path fill="#fff" d="M1096.64,223.07c0-3.27-2.65-5.93-5.93-5.93c-3.27,0-5.93,2.65-5.93,5.93c0,3.27,2.65,5.93,5.93,5.93
				C1093.99,229,1096.64,226.34,1096.64,223.07z"/><path fill="#fff" d="M1072.71,223.07c0-3.27-2.65-5.93-5.93-5.93c-3.27,0-5.93,2.65-5.93,5.93c0,3.27,2.65,5.93,5.93,5.93
				C1070.05,229,1072.71,226.34,1072.71,223.07z"/><path fill="#fff" d="M1048.77,223.07c0-3.27-2.65-5.93-5.93-5.93c-3.27,0-5.93,2.65-5.93,5.93c0,3.27,2.65,5.93,5.93,5.93
				C1046.12,229,1048.77,226.34,1048.77,223.07z"/><path fill="#fff" d="M1024.84,223.07c0-3.27-2.65-5.93-5.93-5.93c-3.27,0-5.93,2.65-5.93,5.93c0,3.27,2.65,5.93,5.93,5.93
				C1022.19,229,1024.84,226.34,1024.84,223.07z"/><path fill="#6c39a8" d="M1032.58,264.14c1.59,0.36,3.06,1.12,4.58,1.69c1.53,0.57,3.09,1.09,4.64,1.6c3.12,1.04,6.23,2.07,9.41,2.89
			c6.33,1.64,12.84,2.62,19.39,2.72c11.51,0.19,23.08-2.4,32.99-8.38c5.37-3.24,10.3-7.55,14.12-12.53
			c0.18-0.24,0.59-0.03,0.42,0.24c-3.07,4.78-6.88,8.75-11.45,12.12c-4.63,3.41-9.8,6.02-15.22,7.9
			c-12.27,4.23-25.41,4.17-37.99,1.33c-3.72-0.84-7.44-1.88-11.02-3.2c-1.77-0.65-3.51-1.41-5.22-2.19
			c-1.76-0.81-3.71-1.5-5.27-2.67C1031.21,265.11,1031.61,263.93,1032.58,264.14z"/><path fill="#6c39a8" d="M972.55,223.6c1.53-6.37,4.42-12.35,8.42-17.53c2.01-2.6,4.31-4.99,6.83-7.1c1.18-0.99,2.4-1.92,3.68-2.78
			c1.28-0.87,2.8-1.86,4.28-2.3c0.35-0.11,0.65,0.38,0.37,0.63c-1.1,1-2.47,1.79-3.66,2.68c-1.31,0.98-2.59,2.01-3.79,3.12
			c-2.28,2.1-4.34,4.42-6.17,6.93c-3.69,5.07-6.32,10.86-7.67,16.98C974.51,225.72,972.19,225.09,972.55,223.6z"/><path fill="#6c39a8" d="M1017.73,260.1c0.68-0.35,1.62-0.23,2.36-0.16c0.75,0.07,1.49,0.19,2.22,0.37c0.7,0.18,1.39,0.42,2.05,0.72
			c0.7,0.32,1.49,0.68,1.94,1.33c0.37,0.55-0.11,1.49-0.81,1.41c-0.27-0.03-0.49-0.06-0.74-0.17c-0.15-0.07-0.3-0.16-0.45-0.23
			c-0.26-0.13-0.43-0.2-0.67-0.3c-0.61-0.24-1.22-0.45-1.85-0.61c-0.31-0.08-0.61-0.14-0.92-0.2c-0.34-0.06-0.41-0.07-0.77-0.1
			c-0.31-0.03-0.63-0.04-0.94-0.04c-0.38,0-0.8,0.07-1.17-0.07c-0.4-0.16-0.71-0.44-0.77-0.89
			C1017.17,260.76,1017.35,260.3,1017.73,260.1z"/><path fill="#311f5c" d="M998.7,876.98c0.68,2.12,1.38,3.69,1.51,3.79c0.77,0.58,28.02,0.62,32.5-0.88
			c4.46-1.5,12.25-13.58,13.08-15.21c0.38-0.75,2.63-6.3,3.73-6.91c0.61-0.34,4.41,2.03,5.14,1.71c2.94-1.27,4.9-4.86,7-6.17
			c0.7-0.43,0.76-1.93,0.43-4.06c-1.43-8.81-8.45-31.89-8.45-31.89l-32.31,13.32c0.66,3.82,1.07,9.86-0.76,16.36
			c-1.43,5.09-14.91,14.08-16.92,16.88C1000.62,868.14,997.56,873.39,998.7,876.98z"/><path fill="#1d1245" d="M999.14,876.17c0.77,0.58,28.02,0.62,32.5-0.88c4.46-1.5,12.25-13.58,13.08-15.21
			c0.38-0.75,2.63-6.3,3.73-6.91c0.61-0.34,4.41,2.03,5.14,1.71c2.94-1.27,4.9-4.86,7-6.17c0.7-0.43,0.76-1.93,0.43-4.06
			c-0.13-0.83-0.32-1.79-0.54-2.85c0.72,2.91,1.3,5.52,1.61,7.45c0.34,2.13,0.27,3.63-0.43,4.06c-2.1,1.32-4.06,4.91-7,6.17
			c-0.73,0.32-4.54-2.05-5.14-1.71c-1.11,0.61-3.35,6.15-3.73,6.91c-0.83,1.63-8.62,13.71-13.08,15.21
			c-4.47,1.5-31.73,1.46-32.5,0.88c-0.13-0.1-0.82-1.67-1.51-3.79c-0.22-0.69-0.28-1.44-0.22-2.24
			C998.81,875.58,999.07,876.12,999.14,876.17z"/><path fill="#311f5c" d="M868.87,877.21c-0.04,2.15,0.1,3.81,0.18,3.95c0.51,0.79,28.37-0.17,32.89-0.01
				c4.51,0.15,14.69-1.29,15.95-2.49c0.58-0.55,2.41-3.43,3.6-3.61c0.66-0.1,4.23,3.07,4.99,3.03c3.06-0.15,6.71,0.07,9.02-0.41
				c0.77-0.15,0.56-7.52,0.92-9.56c1.46-8.47-0.08-29.14-0.08-29.14l-26.87,0.35c-0.59,3.69-3.37,9.8-5.71,12.56
				c-7.95,9.39-27.69,10.5-30.38,12.35C869.34,867.02,868.96,873.56,868.87,877.21z"/><path fill="#1d1245" d="M868.87,877.21c-0.04,2.15,0.1,3.81,0.18,3.95c0.51,0.79,28.37-0.17,32.89-0.01
				c4.51,0.15,14.69-1.29,15.95-2.49c0.58-0.55,2.41-3.43,3.6-3.61c0.66-0.1,4.23,3.07,4.99,3.03c3.06-0.15,6.71,0.07,9.02-0.41
				c0.77-0.15,0.56-7.52,0.92-9.56c-3.06,1.02-4.3,7.06-7.36,6.04c-1.82-0.6-6.59-3.6-8.48-3.26c-3.14,0.57-8.03,5.47-18.44,5.93
				C891.06,877.29,879.87,878.65,868.87,877.21z"/><path fill="#ffb300" d="M1057.45,819.83c-6.79,6.3-14.35,10.78-22.58,13.38c-0.4,0.13-0.8,0.25-1.21,0.36
				c-0.44,0.13-0.88,0.25-1.31,0.36c-0.44,0.12-0.88,0.23-1.32,0.33c-0.26,0.07-0.53,0.13-0.79,0.19c-0.58,0.13-1.16,0.25-1.75,0.36
				c-1.21,0.23-2.42,0.42-3.66,0.57c-1.38,0.18-2.78,0.31-4.19,0.38h-0.05c-0.38,0.02-0.76,0.04-1.14,0.05
				c-0.93,0.04-1.87,0.06-2.82,0.05c1.72-3.24-26.78-104.84-47.5-157.89c-1.64-4.19-6.41-30.99-11.35-61.39
				c-1.29-7.94-2.59-16.13-3.85-24.22c-5.26-33.75-9.8-65.86-9.8-71.69c-0.07-2.68,0.01-4.18,0.29-4.22l53.39-12.6
				c27.33,85.32,18.22,123.21,23.67,159.74C1043.57,704.22,1046.14,776.45,1057.45,819.83z"/><path fill="#ffb300" d="M963.47,596.02c-0.49,1.55-0.97,3.1-1.46,4.64c-1.32,4.28-2.77,9.75-4.25,15.92
				c-6.13,25.46-12.95,62.85-14.97,77.97c-0.04,0.29-0.08,0.58-0.12,0.87c-0.69,78.17,1.66,105.76-1.86,149.97
				c-7.28,2.69-14.92,3.79-22.29,3.62c-7.91-0.19-15.5-1.84-22-4.63c-3.28-17.59-0.42-98.54-1.27-159.35
				c-1.57-111.86,20.47-163.37,22.23-166.8l26.62,2.44l38.35,3.51C985.3,549.26,975.67,556.85,963.47,596.02z"/><path fill="#e0cfc6" d="M1034.87,833.2c-0.4,0.13-0.8,0.25-1.21,0.36c-0.44,0.13-0.88,0.25-1.31,0.36
				c-0.44,0.12-0.88,0.23-1.32,0.33c-0.26,0.07-0.53,0.13-0.79,0.19c-0.58,0.13-1.16,0.25-1.75,0.36c-1.21,0.23-2.42,0.42-3.66,0.57
				c-1.38,0.18-2.78,0.3-4.19,0.38h-0.05c-0.38,0.02-0.76,0.04-1.14,0.05c-0.93,0.04-1.87,0.06-2.82,0.05
				c1.72-3.24-26.78-104.84-47.5-157.89c-1.64-4.19-6.41-30.99-11.35-61.39c-6.13,25.46-12.95,62.85-14.97,77.97
				c-0.04,0.29-0.08,0.58-0.12,0.87c-0.69,78.17,1.66,105.76-1.86,149.97c-7.28,2.69-14.92,3.79-22.29,3.62
				c18.1-5.27,18.17-139.57,14.87-144.59c-3.4-5.15-12.75-7.77-12.75-7.77s6.4-1.31,14.32-2.84c7.91-1.53,17.08-85.43,13.23-92.85
				c-3.17-6.15-8.52-16.87-7.61-16.24c4.66,3.24,9.15,5.73,13.32,7.65c2.5,1.15,4.89,2.1,7.13,2.87c0.84,0.29,1.64,0.55,2.43,0.79
				c9.22,2.84,15.27,2.71,15.27,2.71c-6.45,3.54-17,5.03-14.42,18.4c0.3,1.6,3.31,54.05,13.41,65.7c5.04,5.8,18.21,2.73,18.21,2.73
				s-5.8,7.44-8.55,8.92C977.26,699.86,1018.26,821.01,1034.87,833.2z"/><path fill="#ffd5b3" d="M768.81,460.76c-3.9,5.52,8.1,11.67,7.07,12.62c-8.14,7.43-35.67-10.77-41.32-9.07
			c-8.39,2.52,18.71,19.72,28.39,25.52c5.54,3.32,18.3,0.32,29.56-1.06l3.7-13.77c-6.54-7.72-15.05-5.21-21.76-11.86
			C772.7,461.43,770.01,459.05,768.81,460.76z"/><path fill="#ff639f" d="M929.48,382.35l-1.14,4.48l-18.07,71.7c0.07,2.32-2.33,8.79-6.05,16.6c-1.66,3.51-3.6,7.27-5.68,11.05
			c-0.48,0.86-0.96,1.72-1.45,2.58c-5.53,9.71-11.96,19.17-17.56,24.11c-0.89,0.8-1.76,1.47-2.61,2.02
			c-0.01,0.01-0.01,0.01-0.01,0.01c-24.04,15.88-34.04-20.51-23.6-31.25c0,0,12.78-34.89,21.06-63.8
			c7.97-27.85,27.07-31.59,43.83-34.92c3.13-0.62,6.16-1.22,9.03-1.97C928,382.78,928.75,382.56,929.48,382.35z"/><path fill="#d8cbd0" d="M898.55,486.18c-0.48,0.86-0.96,1.72-1.45,2.58c-5.53,9.71-11.96,19.17-17.56,24.11
			c-0.89,0.8-1.76,1.47-2.61,2.02c0.32-0.53,10.54-17.54,13.45-26.11c2.96-8.69,3.66-42.51,3.66-42.51S898.47,469.72,898.55,486.18z
			"/><path fill="#ff639f" d="M861.91,518.91c-1.05-0.03-2.23-0.13-3.52-0.28c-17.64-2.18-56.68-16.02-74.37-24.29
			c-0.54-3.85-0.45-7.31,0.15-10.44c1.3-6.83,5.04-12.1,10.1-16.54c15.1,4.79,79.43,15.11,79.43,15.11S891.16,520.71,861.91,518.91z
			"/><path fill="#ff639f" d="M1040.97,516.81c-2.47-1.09-4.52-2.38-5.77-3.63c-0.23-0.23-0.47-0.49-0.72-0.76
			c-4.2-4.48-11.16-13.81-17.98-26.41c-1.93-3.56-3.85-7.39-5.69-11.45c-6.44-14.17-11.91-31.09-13.56-49.2l4.16-38.94
			c6.87,1.41,12.86,2.5,18.05,3.96c9.03,2.56,15.66,6.28,20.4,14.84c12.57,22.7,22.52,73.58,27.12,92.95
			c0.05,0.21,0.11,0.43,0.15,0.64c0.06,0.27,0.13,0.54,0.18,0.79c0.07,0.33,0.13,0.66,0.2,0.98c0.01,0.02,0.01,0.04,0.01,0.05
			C1071.6,522.66,1051.99,521.67,1040.97,516.81z"/><path fill="#fff" d="M1002.84,510.41c-4.67,15.17-61.6,20.82-95.13,5.08c0.18-5.37,4.82-5.61-6.61-52.9
				c-4.44-18.35-1.94-63.94,0-67.33c5.05-8.81,34.91-13.3,39.67-19.21l29.01-0.39c3.93,7.91,37.9,11.52,45.3,21.39
				C1022.02,406.34,987.26,443.13,1002.84,510.41z"/><path fill="#311f5c" d="M998.42,516.81c-31.31,4.34-63.03,4.34-94.34,0c-1.15,0-2.18,0.93-2.29,2.09l-0.68,6.76
			c-0.12,1.2,0.74,2.17,1.91,2.17c33.21,4.75,65.78,5.14,96.46,0c1.18,0,2.03-0.97,1.91-2.17l-0.68-6.76
			C1000.6,517.75,999.57,516.81,998.42,516.81z"/><path fill="#6c39a8" d="M964.28,525.56L964.28,525.56c-0.02-0.15-0.02-0.3-0.05-0.45c-0.22-1.97-1.06-3.75-2.31-5.15
			c-0.02-0.02-0.04-0.05-0.06-0.07c-1.71-1.89-4.19-3.08-6.94-3.08c-2.82,0-5.35,1.25-7.07,3.23c-0.02,0.02-0.04,0.05-0.06,0.07
			c-0.41,0.47-0.77,0.99-1.07,1.54c-0.46,0.82-0.8,1.73-0.99,2.69c-0.11,0.6-0.18,1.21-0.18,1.83c0,1.97,0.61,3.8,1.66,5.31
			c1.68,2.45,4.51,4.06,7.7,4.06c3.24,0,6.1-1.65,7.78-4.16c1-1.49,1.59-3.28,1.59-5.21C964.3,525.97,964.29,525.76,964.28,525.56z
			 M954.93,533.42c-1.87,0-3.59-0.72-4.87-1.89c-1.12-1.02-1.93-2.4-2.23-3.94h7.91c0.6,0,1.09-0.49,1.09-1.09
			c0-0.6-0.49-1.09-1.09-1.09h-7.98c0.04-0.37,0.11-0.75,0.21-1.11c0.26-0.97,0.72-1.87,1.33-2.63c0.47-0.59,1.04-1.11,1.66-1.52
			c0.03-0.02,0.07-0.05,0.1-0.07c1.12-0.72,2.45-1.13,3.86-1.13c1.37,0,2.66,0.38,3.75,1.05c0.03,0.02,0.07,0.04,0.1,0.06
			c1.77,1.12,3.03,2.97,3.33,5.13c0.01,0.04,0.02,0.08,0.02,0.12c0.04,0.29,0.06,0.58,0.06,0.88c0,2.09-0.89,3.97-2.31,5.29
			C958.57,532.68,956.84,533.42,954.93,533.42z"/><path fill="#ffd5b3" d="M978.68,380.87c0,0-13.72,16.19-28.62,15.81c-14.9-0.38-16.73-16.54-16.73-16.54s1.21-0.47,2.65-1.13
			c1.71-0.76,3.72-1.77,4.44-2.52c1.33-1.38,2.21-6.96,2.75-11.72c0.45-3.95,0.65-7.33,0.65-7.33l24.98-2.24
			c0,0,0.04,1.31,0.14,3.17v0.01c0.13,2.38,0.34,5.63,0.65,8.1c0.55,4.35,1.43,9.11,2.75,10.75
			C974.15,379.49,978.68,380.87,978.68,380.87z"/><path fill="#edd6c7" d="M968.94,358.37L968.94,358.37c-2.65,5.96-11.11,22.53-27.8,21.79c-1.98-0.09-3.69-0.49-5.16-1.15
			c1.71-0.76,3.72-1.77,4.44-2.52c1.33-1.38,2.21-6.96,2.75-11.72c0.45-3.95,0.65-7.33,0.65-7.33l24.98-2.24
			C968.8,355.2,968.84,356.52,968.94,358.37z"/><path fill="#ff639f" d="M927.38,608.08c-1.96,2.57-8.26,4.99-15.31,6.35h-0.01c-10.45,2.02-22.55,1.7-24.67-3.89
			c-4.13-10.88,10.62-44.08,9.68-93.96c-0.01-0.52,0.01-12,0.04-27.81c0.03-10.9,0.04-23.85,0.07-36.69
			c0.06-30.49,0.13-60.32,0.13-60.32s8.84-3.78,20.92-6.82c2.85-0.71,10.61-3.17,10.88-3.21c9.35,19.43,9.44,102.51,9.37,170.4
			C938.45,571.9,932.28,601.68,927.38,608.08z"/><path fill="#ff639f" d="M1029.88,609.47c-1.8,3.89-16.48,4.89-29.02,3.69c-8.39-0.8-15.82-2.6-17.79-5.16
			c-4.9-6.39-1.3-31.06-2.99-57.75c-1.25-19.72-1.39-169.37-1.39-169.37c16.8,2.98,40.77,9.29,40.77,9.29s0,0.08-0.01,0.23
			c-0.12,3.14-1.34,37.59-2.29,70.82c-0.25,8.53-0.47,16.98-0.66,24.81c-0.28,11.63-0.46,21.86-0.48,28.89
			C1014.81,562.93,1035.81,596.64,1029.88,609.47z"/><path fill="#ffd5b3" d="M981.6,320.38c0.69,27.27-13.71,48.86-35.01,49.4c-20.26,0.51-34.62-21.75-33.59-50.19
			c0.99-27.26,11.06-32.47,32.35-33.01S980.91,293.11,981.6,320.38z"/><path fill="#33160e" d="M949.44,331.3c0,0,0.05,0.06,0.12,0.15c0.6,0.63,3.2,3.07,7.86,3.36c3.7,0.24,7.01-2.73,7.06-4.4
							c-0.17-2.43-2.37-5.9-7.84-4.92c-4.15,0.74-6.85,5.2-7.18,5.75C949.46,331.28,949.44,331.3,949.44,331.3z"/><path fill="#f7f7f7" d="M949.44,331.3c0,0,0.05,0.06,0.12,0.15c0.57,0.69,3.18,3.45,7.87,3.73c3.76,0.23,7.09-2.79,7.08-4.47
							c0-0.11,0-0.19-0.02-0.3c-0.17-2.43-2.37-5.9-7.84-4.92c-4.15,0.74-6.85,5.2-7.18,5.75
							C949.46,331.28,949.44,331.3,949.44,331.3z"/><circle cx="955.62" cy="330.19" r="4.42" fill="#ad5039"/><circle cx="955.62" cy="330.19" r="3.46" fill="#33160e"/><circle cx="954.89" cy="333.06" r=".73" fill="#f7f7f7"/><circle cx="952.76" cy="331.45" r=".36" fill="#f7f7f7"/><path fill="#33160e" d="M949.47,331.24c0.33-0.55,3.02-5.01,7.18-5.75c5.47-0.98,7.67,2.49,7.84,4.92
							c0.01-0.02,0.01-0.05,0.01-0.06c-0.02-2.45-2.1-6.9-7.82-5.91C952.11,325.23,949.75,330.57,949.47,331.24z"/><path fill="#33160e" d="M951.93,322.77c0.73-0.68,1.66-1.3,2.57-1.74c0.93-0.45,1.92-0.74,2.92-0.82c1-0.1,2.02,0.04,2.98,0.41
						c0.99,0.32,1.88,0.97,2.74,1.66l0.03,0.02c0.17,0.14,0.4,0.08,0.52-0.12c0.11-0.2,0.07-0.46-0.09-0.6
						c-0.88-0.81-1.82-1.6-2.9-2.04c-1.06-0.5-2.2-0.75-3.34-0.72c-1.14,0.01-2.27,0.25-3.34,0.67c-1.08,0.44-2.08,0.98-3.07,1.79
						c-0.36,0.29-0.45,0.88-0.2,1.32c0.25,0.44,0.74,0.55,1.1,0.26c0.01-0.01,0.03-0.02,0.04-0.04L951.93,322.77z"/><path fill="#33160e" d="M933,331.71c0,0-2.46,3.31-7.8,3.91c-3.73,0.42-7.22-2.43-7.29-4.1c-0.11-2.44,1.75-6.99,7.51-6.29
							C930.33,325.82,933,331.71,933,331.71z"/><path fill="#f7f7f7" d="M933,331.71c0,0-2.45,3.69-7.79,4.29c-3.73,0.42-7.22-2.43-7.29-4.1c-0.11-2.44,1.84-6.34,7.59-5.62
							C929.98,326.84,933,331.71,933,331.71z"/><circle cx="923.02" cy="331.01" r="4.42" fill="#ad5039"/><circle cx="923.02" cy="331.01" r="3.46" fill="#33160e"/><circle cx="920.74" cy="333.12" r=".73" fill="#f7f7f7"/><circle cx="920.91" cy="330.55" r=".36" fill="#f7f7f7"/><path fill="#33160e" d="M930.07,323.32c-0.76-0.64-1.72-1.22-2.66-1.61c-0.95-0.4-1.95-0.64-2.96-0.67
						c-1-0.05-2.01,0.14-2.96,0.56c-0.97,0.37-1.83,1.07-2.66,1.8l-0.03,0.03c-0.17,0.15-0.4,0.1-0.52-0.1
						c-0.12-0.19-0.09-0.46,0.06-0.61c0.84-0.85,1.74-1.69,2.79-2.18c1.03-0.55,2.16-0.86,3.3-0.89c1.14-0.05,2.28,0.13,3.37,0.5
						c1.1,0.38,2.12,0.87,3.16,1.63c0.37,0.27,0.49,0.86,0.27,1.31c-0.23,0.45-0.72,0.59-1.09,0.31c-0.01-0.01-0.03-0.02-0.04-0.03
						L930.07,323.32z"/><path fill="#edd6c7" d="M939,338.19c0.56-1.02,1.16-2.03,1.52-3.07c0.36-1.04,0.59-2.09,0.66-3.14c0.08-1.18,0.09-2.37-0.16-3.53
				c-0.03-0.13,0.43-0.17,0.49-0.04c0.49,0.98,0.92,1.97,1.04,2.98c0.12,0.99,0.11,1.99-0.11,2.99c-0.23,1.03-0.6,2.06-1.14,3.07
				c-0.49,0.92-1.18,1.86-1.03,2.81c0.06,0.36,0.3,0.76,0.71,1.08c0.44,0.34,0.97,0.51,1.71,0.7c0.89,0.24,0.34,0.92-0.69,0.82
				c-1.72-0.17-2.88-1.02-3.33-1.78C938.1,340.14,938.47,339.14,939,338.19z"/><path fill="#942525" d="M935.93,350.47c0,2.11,0.89,4.04,2.36,5.46c1.58,1.54,3.82,2.5,6.31,2.51c2.67,0,5.06-1.1,6.65-2.84
					c1.27-1.38,2.04-3.17,2.04-5.11c0.01-4.4-5.57-1.09-8.82-1.1C941.78,349.39,935.94,346.07,935.93,350.47z"/><path fill="#ff7878" d="M938.3,355.93c1.58,1.54,3.82,2.5,6.31,2.51c2.67,0,5.06-1.1,6.65-2.84c-1.3-1.31-3.65-2.19-6.32-2.19
					C942.04,353.41,939.52,354.44,938.3,355.93z"/><path fill="#ffa1c7" d="M929.31,415.59l-13.8,6.83c0,0,12.63,42.82,22.83,65.39c-0.53-48.97-2.43-93.25-9.03-106.94
			c-0.11,0.01-5.67,1.64-12.19,3.55l-2.5,20.43L929.31,415.59z"/><path fill="#ffa1c7" d="M981.38,415.43l14.4,5.47c0,0-8.47,43.83-16.45,67.28c-4.18-48.79-6.57-93.05-1.32-107.31
			c0.11,0,5.94-0.03,12.62,1.25l4.35,21.2L981.38,415.43z"/><g><path fill="#ffd5b3" d="M988.15,323.8c-1.81-2.34-4.89-1.66-7.43-0.47c-2.36,1.11-3.68,3.13-3.25,5.14
				c1.03,4.84-2.49,10.01-3.39,15.06C991.6,342.67,991.63,328.31,988.15,323.8z"/><path fill="#edd6c7" d="M985.44,327.66c-1.25-0.45-3.1-0.24-3.78,0.75c-0.3,0.44,0.49,0.83,0.88,0.41c0.3-0.32,0.84-0.48,1.35-0.37
				c0.45,0.1,0.84,0.48,1.04,0.79c0.61,0.93-0.02,2.06-0.53,2.95c-0.51,0.88-1.18,1.72-1.96,2.49c-0.83,0.82-1.96,1.43-2.79,2.24
				c-0.79,0.77,0.61,1.86,1.71,1.35c0.84-0.39,1.48-1,2.09-1.57c0.57-0.53,1.08-1.09,1.54-1.67c0.94-1.19,1.74-2.51,2.08-3.86
				C987.36,329.96,987.12,328.26,985.44,327.66z"/></g><g><rect width="68.31" height="88.86" x="896.57" y="421.31" fill="#6c39a8" transform="rotate(-156.56 930.69 465.732)"/><rect width="31.63" height="8.53" x="930.83" y="422.82" fill="#311f5c" transform="rotate(-156.56 946.614 427.076)"/></g><path fill="#ffd5b3" d="M963.88,474.78c-8.58,4.17-23.52-12.92-28.34-11.22c-8.31,2.93,5.93,20.96,14.31,25.39
			c4.94,2.61,14.37,1.07,24.06,2.68l6.44-10.52c-2.37-5.36-9.99-10.47-13.81-12.64c-0.04-0.02-2.78,6.09-2.75,6.14
			C963.86,474.71,963.9,474.77,963.88,474.78z"/><path fill="#d8cbd0" d="M1000.85,613.15c12.53,1.22,27.22,0.21,29.02-3.69c5.87-12.68-14.6-45.78-13.89-92.94
			c0-0.55,0.01-1.08,0.03-1.63c0.01-7.03,0.2-17.26,0.48-28.88c6.82,12.6,13.79,21.93,17.98,26.41c-0.29,2.08-0.37,5.31-0.31,9.32
			c2.26,0.55,4.39,1.03,6.38,1.44c0.07-2.37,0.2-4.51,0.42-6.36c0.44-3.76,3.31-9.63,9.84-11.5c0,0-0.98-0.38-2.56-1.11
			c-5.71-2.71-19.47-10.26-24.29-22.62c-0.08-0.2-0.16-0.41-0.24-0.61c-0.88-2.44-3.63-11.3-6.56-19.77
			c-2.97-8.61-6.1-16.81-7.59-17.38c0,0,1.55,14.09,1.24,30.75c-0.03,1.5-0.07,3.03-0.14,4.57c-0.13,3.62-0.38,7.33-0.75,10.98
			c-0.57,5.68-0.29,14.53,0.31,24.54c0.99,16.13,2.82,35.3,3.24,49.24C1014.04,582.61,1004.25,605.74,1000.85,613.15z"/><path fill="#ff639f" d="M971.8,499.81c9.1,4.26,23.85,9.98,38.42,14.85c1.92,0.64,3.85,1.27,5.76,1.87
			c6.42,2.05,12.65,3.86,18.18,5.21c2.26,0.55,4.39,1.03,6.38,1.44c2.05,0.41,3.95,0.72,5.63,0.93c1.29,0.16,2.48,0.25,3.53,0.27
			c29.26,1.8,11.77-36.43,11.77-36.43s-18.22-2.91-37.53-6.36c-4.44-0.8-8.94-1.62-13.29-2.44c-12.3-2.33-23.39-4.64-28.61-6.3
			c-5.06,4.44-8.79,9.71-10.1,16.54C971.35,492.51,971.27,495.97,971.8,499.81z"/><path fill="#7f4218" d="M958.12,306.24c-0.04,0-0.06,0-0.1,0c-0.66,0.04-1.31-0.13-1.94-0.51c-21.18-12.95-34.87,6.79-44.48,6.06
			c-0.79-0.05-1.55-0.25-2.29-0.62c-3.41-1.69-5.65-3.97-7.07-6.44c3.74,1.52,5.27,0.06,5.27,0.06c-5.11-0.75-7.27-6.98-7.37-10.19
			c0.04-0.5,0.09-0.99,0.16-1.46l0-0.01c0.09-0.59,0.2-1.15,0.32-1.66c3.11-12.91,14.35-6.01,16.54-10.93
			c2.19-4.93,16.37-20.03,33.58-14.97c15.41,4.53,20.99,14.74,21.99,16.81c0.11,0.24,0.17,0.37,0.17,0.37s-0.64,1.9-1.71,4.62
			C968.54,294.09,963.18,305.85,958.12,306.24z"/><path fill="#7f4218" d="M968.54,283.17c0,0,7.93-2.71,18.93,3.74c8.52,5,15.29,21.54,8.51,31.42c-0.26,0.38-1.29-4.67-3.39-5.41
			c0,0,2.52,5.83,1.55,10.29c-1.43,6.56-4.48,9.23-4.48,9.23c0.21-3.41-3.42-11.11-7.5-5.72c-2.19,7.82-5.19,9.96-5.19,9.96
			s1.58-31.13-18.93-30.44C954.72,306.35,968.54,283.17,968.54,283.17z"/><g><path fill="#e4e0ff" d="M444.38,624.03h318.37c2.34,0,4.23-1.9,4.23-4.23c0-2.34-1.9-4.23-4.23-4.23H444.38
			c-2.34,0-4.23,1.9-4.23,4.23C440.15,622.13,442.04,624.03,444.38,624.03z"/><path fill="#e4e0ff" d="M762.75,651.13H444.38c-2.34,0-4.23,1.9-4.23,4.23c0,2.34,1.9,4.23,4.23,4.23h318.37
			c2.34,0,4.23-1.9,4.23-4.23C766.98,653.02,765.08,651.13,762.75,651.13z"/><path fill="#e4e0ff" d="M762.75,686.7H444.38c-2.34,0-4.23,1.9-4.23,4.23c0,2.34,1.9,4.23,4.23,4.23h318.37
			c2.34,0,4.23-1.9,4.23-4.23C766.98,688.59,765.08,686.7,762.75,686.7z"/><path fill="#e4e0ff" d="M762.75,722.26H444.38c-2.34,0-4.23,1.9-4.23,4.23c0,2.34,1.9,4.23,4.23,4.23h318.37
			c2.34,0,4.23-1.9,4.23-4.23C766.98,724.16,765.08,722.26,762.75,722.26z"/><path fill="#e4e0ff" d="M762.75,757.83H444.38c-2.34,0-4.23,1.9-4.23,4.23c0,2.34,1.9,4.23,4.23,4.23h318.37
			c2.34,0,4.23-1.9,4.23-4.23C766.98,759.72,765.08,757.83,762.75,757.83z"/><path fill="#e4e0ff" d="M762.75,793.39H444.38c-2.34,0-4.23,1.9-4.23,4.23l0,0c0,2.34,1.9,4.23,4.23,4.23h318.37
			c2.34,0,4.23-1.9,4.23-4.23l0,0C766.98,795.29,765.08,793.39,762.75,793.39z"/><path fill="#e4e0ff" d="M762.75,828.96H444.38c-2.34,0-4.23,1.9-4.23,4.23s1.9,4.23,4.23,4.23h318.37c2.34,0,4.23-1.9,4.23-4.23
			S765.08,828.96,762.75,828.96z"/></g><g><path fill="#2b4532" d="M347.74,859.75c-5.4-23.24-8.99-90.01,3.44-134.77c10.76-38.75,0.19-61.48,0.08-61.71l2.3-1.11
					c0.46,0.95,11.12,23.74,0.08,63.5c-12.32,44.35-8.77,110.49-3.41,133.51L347.74,859.75z"/><path fill="#2b4532" d="M360.55,861.65c-1.74-0.61-10.23-6.88-6.81-70.79c3.44-64.44-30.06-74.87-30.4-74.96l0.71-2.45
					c1.46,0.42,35.79,11.11,32.24,77.55c-3.34,62.46,5.15,68.25,5.23,68.3L360.55,861.65z"/><path fill="#2b4532" d="M356.08,858.01c-1.89-8.12,1.59-25.85,5.28-44.63c2.48-12.64,5.05-25.71,5.56-34.57
					c0.53-9.04-0.88-19.82-2.25-30.24c-1.91-14.61-3.72-28.42-0.69-38.17c1.91-6.15,6.38-10.73,12.26-12.57
					c6.33-1.96,13.45-0.54,19.06,3.85l-1.57,2.01c-4.96-3.87-11.21-5.16-16.73-3.42c-5.14,1.61-8.9,5.48-10.59,10.9
					c-2.86,9.22-1.09,22.75,0.78,37.08c1.38,10.54,2.81,21.44,2.27,30.72c-0.53,9.04-3.11,22.19-5.61,34.92
					c-3.47,17.69-7.07,35.97-5.3,43.56L356.08,858.01z"/><path fill="#708f20" d="M282.59,744.91c7.38-3.04,15.96-17.47,24.02-17.13c1.84,9.18-11.76,9.57-16.87,15.02
						c-4.22,5.62,15.83,8.7,24.49,2.95c7.26-4.41,4.17-14.84,11.96-30.44c6.47-13.43,11.32-13.87,11.85-21.91
						c0.95-14.7-14.31-28.02-15.93-27.06c-0.65,0.39,1.21,2.9,2.02,9.51c0.58,0.54,0.59,26.56-6.17,18.03
						c-4.73-10.79,7.54-18.83-0.72-31.07c-6.2-9.17-22.08-8.83-22.42-7.69c8.07,1.85,13.26,22.51,9.81,30.84
						c-2.48,4.83-4.49,0.78-5.22-4.08c-4.5-15.68-5.79-24.26-17.37-30.5c-14.2-7.65-25.26,5.89-43.15,9.04c0,0-4.07,21.9,4.8,33.93
						c8.54,11.58,20.29,0.52,29.66,3.23c4.17,0.77,5.26,6.11,2.69,8.71c-3.59,5.3-12.01,5.85-18.1,6.17
						c-10.08,0.54-13.68-1.58-14.81,0.3c-3.15,4.88,12.67,18.13,21.17,14.99c10.78,0.74,22.6-17.57,33.49-12.98
						c0.35,8.56-20.97,18.3-30.16,19c-4.88-0.18-8.21-2.34-8.66-1.58C261.33,736.91,275.78,747.19,282.59,744.91z"/><path fill="#2b4532" d="M300.69,743.1c2.47-0.33,4.83-1.27,6.86-2.71c1.97-1.39,3.53-3.24,4.72-5.32c1.3-2.29,2.2-4.78,3.16-7.22
						c1.05-2.65,2.23-5.25,3.59-7.75c0.61-1.13,1.22-2.29,1.96-3.34c0.61-0.88,1.41-1.72,2.54-1.84c0.01,0,0.02-0.01,0.03-0.01
						c0.17,0.1,0.35,0.19,0.52,0.29c0.57,0.34,1.14,0.7,1.7,1.08c0.03-0.09,0.07-0.17,0.12-0.26c-1.01-0.68-2.05-1.3-3.13-1.86
						c0-0.01-0.01-0.01-0.01-0.02c-0.38-0.35-0.7-0.8-0.96-1.25c-0.25-0.42-0.51-0.93-0.5-1.43c0.01-0.75,0.31-1.51,0.59-2.2
						c0.28-0.69,0.58-1.38,0.89-2.06c2.2-4.78,5.06-9.29,6.64-14.33c1.3-4.15,1.74-8.72,0.14-12.85c-0.06-0.17-0.32-0.05-0.25,0.12
						c0.93,2.41,1.16,5.01,0.91,7.58c-0.5,5.01-2.74,9.58-5.01,14c-1.26,2.45-2.55,4.89-3.58,7.45c-0.38,0.94-0.82,2.04-0.45,3.05
						c0.2,0.56,0.53,1.12,0.92,1.6c-3.07-1.49-6.35-2.49-9.61-3.49c-0.15-0.05-0.31-0.09-0.46-0.14c0,0,0,0,0-0.01
						c-1.71-1.82-2.78-4.13-3.33-6.55c-1.14-4.93-0.01-9.88,1.27-14.66c0.35-1.31,0.71-2.62,1.04-3.94
						c0.31-1.23,0.62-2.49,0.76-3.76c0.22-2.17-0.14-4.54-1.76-6.13c-0.13-0.12-0.35,0.05-0.21,0.18c2.03,2,1.95,5.04,1.42,7.64
						c-1.06,5.16-3.08,10.16-3.28,15.48c-0.15,4.09,0.85,8.47,3.59,11.6c-3.05-0.94-6.1-1.94-8.95-3.42c-1.55-0.81-3-1.77-4.38-2.84
						c-0.01-0.01-0.01-0.02-0.02-0.03c-0.02-0.01-0.03-0.02-0.05-0.02c-1.25-0.97-2.44-2.01-3.59-3.09
						c-1.91-1.8-3.74-3.69-5.64-5.51c-1.13-2.53-1.59-5.3-1.87-8.04c-0.5-4.91-0.13-10-1.74-14.74c-1.44-4.21-4.96-8.27-9.69-8.43
						c-0.18-0.01-0.21,0.27-0.02,0.28c2.63,0.09,4.99,1.49,6.72,3.43c3.34,3.76,3.87,8.96,4.11,13.77c0.22,4.43,0.32,9.08,2,13.24
						c-0.24-0.23-0.49-0.47-0.73-0.7c-2.48-2.29-5.16-4.29-8.07-5.99c-5.97-3.47-12.55-5.7-19.06-7.89c-0.17-0.06-0.26,0.2-0.1,0.26
						c0.8,0.27,1.6,0.53,2.39,0.8c6.26,2.14,12.56,4.46,18.18,8.01c-1.76-0.36-3.62,0.08-5.34,0.46c-2.15,0.48-4.68,0.94-6.6-0.46
						c-0.15-0.11-0.31,0.12-0.16,0.23c1.8,1.32,4.18,1.08,6.23,0.64c2.14-0.46,4.48-1.15,6.62-0.36c0.01,0,0.01-0.01,0.03,0
						c0,0,0,0,0.01,0c2.78,1.85,5.26,4.04,7.64,6.37c2.28,2.23,4.49,4.54,6.92,6.62c0.23,0.2,0.47,0.39,0.71,0.58
						c-2.41-0.88-5.18-0.44-7.52,0.53c-2.71,1.13-4.95,3.11-7.14,5.02c-2.17,1.89-4.42,3.65-6.92,5.07
						c-4.83,2.74-10.26,4.36-15.8,4.7c-0.18,0.01-0.13,0.29,0.05,0.27c3.02-0.18,6.01-0.75,8.89-1.67c2.58-0.82,5.08-1.93,7.42-3.3
						c2.41-1.42,4.57-3.15,6.68-4.98c2.2-1.91,4.46-3.88,7.21-4.97c2.54-1,5.61-1.35,8.07,0.05c2.02,1.55,4.19,2.86,6.54,3.89
						c3.23,1.4,6.63,2.35,9.98,3.4c0.29,0.09,0.57,0.18,0.85,0.28c-1.91,0.3-3.72,1.17-5.29,2.29c-1.68,1.2-3.08,2.77-4.45,4.31
						c-1.42,1.6-2.85,3.18-4.43,4.63c-3.06,2.81-6.48,5.21-10.16,7.13c-0.16,0.08-0.04,0.34,0.11,0.26
						c2.02-1.05,3.97-2.25,5.81-3.57c1.66-1.19,3.24-2.49,4.72-3.88c1.52-1.43,2.91-2.98,4.29-4.54c1.39-1.56,2.82-3.12,4.55-4.3
						c1.61-1.1,3.46-1.92,5.42-2.11c0.01,0,0-0.01,0.01-0.01c2.5,0.82,4.95,1.76,7.26,3c-0.97,0.22-1.73,0.94-2.3,1.74
						c-0.85,1.16-1.52,2.48-2.21,3.75c-1.31,2.46-2.47,4.99-3.49,7.58c-0.98,2.5-1.89,5.05-3.25,7.37c-1.24,2.11-2.85,3.94-4.89,5.3
						c-1.91,1.27-4.1,2.1-6.38,2.41C300.46,742.85,300.51,743.12,300.69,743.1z"/><path fill="#708f20" d="M443.44,684.93c-7.89,1.19-19.66,13.16-27.41,10.91c0.4-9.35,13.7-6.49,19.96-10.57
						c5.44-4.45-13.3-12.22-23.08-8.7c-8.11,2.55-7.58,13.41-18.88,26.71c-9.49,11.5-14.31,10.77-16.73,18.45
						c-4.43,14.05,7.21,30.63,9.02,30.08c0.73-0.22-0.48-3.11,0.3-9.72c-0.44-0.66,5.76-25.93,10.29-16.04
						c2.02,11.61-11.81,16.49-6.71,30.34c3.83,10.39,19.34,13.84,19.94,12.81c-7.39-3.72-7.51-25.02-2.17-32.29
						c3.56-4.1,4.55,0.31,4.09,5.21c0.63,16.3-0.17,24.94,9.59,33.76c11.96,10.82,25.94,0.31,44.06,1.51c0,0,9.18-20.29,3.43-34.09
						c-5.53-13.28-19.58-5.35-28.03-10.21c-3.87-1.75-3.65-7.18-0.53-9.1c4.75-4.29,13.06-2.81,19.05-1.68
						c9.91,1.88,12.91,4.8,14.45,3.24c4.22-3.99-7.98-20.63-16.98-19.61c-10.29-3.29-26.14,11.67-35.62,4.62
						c1.7-8.39,24.73-12.77,33.82-11.26c4.7,1.34,7.41,4.23,8.04,3.6C462.18,697.76,450.6,684.33,443.44,684.93z"/><path fill="#2b4532" d="M425.43,682.36c-2.48-0.27-4.99,0.08-7.31,0.99c-2.25,0.88-4.2,2.3-5.85,4.05
						c-1.81,1.92-3.27,4.11-4.79,6.26c-1.65,2.32-3.42,4.56-5.33,6.67c-0.87,0.95-1.73,1.93-2.7,2.78c-0.8,0.71-1.78,1.33-2.9,1.18
						c-0.01,0-0.02,0.01-0.03,0.01c-0.14-0.14-0.29-0.27-0.44-0.41c-0.48-0.47-0.94-0.95-1.39-1.45c-0.05,0.08-0.11,0.15-0.17,0.22
						c0.82,0.9,1.68,1.75,2.6,2.55c0,0.01,0,0.02,0.01,0.02c0.29,0.44,0.49,0.94,0.64,1.44c0.14,0.47,0.27,1.02,0.15,1.51
						c-0.19,0.73-0.66,1.39-1.09,2c-0.44,0.6-0.89,1.2-1.36,1.79c-3.28,4.12-7.13,7.81-9.86,12.34c-2.25,3.72-3.77,8.05-3.2,12.45
						c0.02,0.18,0.3,0.13,0.27-0.06c-0.33-2.56,0.07-5.15,0.92-7.57c1.68-4.75,4.94-8.65,8.2-12.4c1.81-2.08,3.64-4.14,5.26-6.38
						c0.59-0.82,1.29-1.79,1.17-2.85c-0.06-0.59-0.25-1.21-0.51-1.77c2.63,2.18,5.57,3.93,8.5,5.68c0.13,0.08,0.27,0.16,0.41,0.25
						c0,0,0,0,0,0.01c1.23,2.17,1.71,4.67,1.68,7.16c-0.07,5.06-2.34,9.6-4.73,13.94c-0.65,1.19-1.31,2.38-1.95,3.58
						c-0.6,1.12-1.19,2.27-1.63,3.47c-0.73,2.05-0.95,4.44,0.24,6.37c0.09,0.15,0.35,0.03,0.25-0.12c-1.5-2.43-0.69-5.36,0.44-7.75
						c2.26-4.76,5.42-9.13,6.87-14.25c1.12-3.93,1.2-8.43-0.72-12.12c2.74,1.64,5.46,3.34,7.87,5.45c1.32,1.16,2.49,2.44,3.58,3.8
						c0.01,0.01,0,0.02,0.02,0.04c0.01,0.01,0.02,0.02,0.04,0.04c0.98,1.24,1.89,2.53,2.75,3.85c1.43,2.21,2.76,4.47,4.16,6.7
						c0.49,2.72,0.28,5.53-0.1,8.25c-0.69,4.89-2.26,9.74-1.82,14.73c0.39,4.43,2.84,9.21,7.4,10.5c0.18,0.05,0.26-0.21,0.09-0.26
						c-2.54-0.71-4.49-2.64-5.7-4.94c-2.35-4.44-1.62-9.63-0.71-14.36c0.84-4.35,1.85-8.89,1.22-13.34
						c0.18,0.28,0.36,0.57,0.55,0.86c1.86,2.81,3.99,5.4,6.41,7.74c4.97,4.79,10.82,8.53,16.63,12.21c0.15,0.1,0.3-0.13,0.16-0.23
						c-0.71-0.45-1.42-0.9-2.13-1.35c-5.57-3.57-11.14-7.32-15.74-12.12c1.63,0.77,3.54,0.79,5.3,0.83c2.21,0.05,4.77,0.2,6.3,2.02
						c0.12,0.14,0.33-0.04,0.21-0.18c-1.43-1.71-3.8-2.04-5.9-2.11c-2.19-0.07-4.63,0.05-6.52-1.23c-0.01-0.01-0.02,0-0.03,0
						c0,0,0,0,0,0c-2.26-2.46-4.14-5.18-5.9-8.01c-1.68-2.71-3.28-5.48-5.14-8.08c-0.18-0.25-0.36-0.49-0.55-0.74
						c2.13,1.43,4.93,1.67,7.43,1.28c2.9-0.45,5.55-1.84,8.13-3.17c2.56-1.32,5.16-2.49,7.93-3.27c5.34-1.51,11.01-1.79,16.47-0.8
						c0.18,0.04,0.19-0.25,0.02-0.28c-2.97-0.54-6.01-0.71-9.03-0.5c-2.71,0.18-5.39,0.67-7.99,1.44c-2.68,0.81-5.19,1.97-7.68,3.24
						c-2.59,1.33-5.26,2.7-8.18,3.11c-2.7,0.37-5.77-0.03-7.82-1.97c-1.6-1.99-3.39-3.78-5.43-5.34c-2.8-2.13-5.88-3.86-8.88-5.68
						c-0.26-0.16-0.51-0.32-0.76-0.47c1.93,0.16,3.89-0.25,5.68-0.96c1.92-0.77,3.65-1.95,5.35-3.12c1.76-1.22,3.53-2.41,5.4-3.44
						c3.64-2,7.53-3.51,11.56-4.5c0.18-0.04,0.12-0.32-0.05-0.28c-2.21,0.54-4.39,1.24-6.49,2.09c-1.89,0.76-3.74,1.64-5.51,2.64
						c-1.82,1.03-3.54,2.2-5.25,3.38c-1.72,1.18-3.48,2.36-5.45,3.09c-1.82,0.68-3.82,1.04-5.76,0.75c-0.01,0-0.01,0.01-0.01,0.01
						c-2.23-1.39-4.39-2.89-6.34-4.65c1,0.02,1.9-0.5,2.65-1.14c1.1-0.93,2.07-2.05,3.03-3.11c1.86-2.07,3.59-4.25,5.2-6.53
						c1.55-2.19,3.04-4.45,4.92-6.39c1.7-1.76,3.71-3.15,6.01-3.98c2.16-0.78,4.49-1.06,6.77-0.81
						C425.59,682.66,425.61,682.38,425.43,682.36z"/><path fill="#a2b835" d="M303.22,650.17c7.04,3.76,23.63,1.22,28.49,7.67c-5.92,7.25-14.86-3-22.32-3.48
						c-7.02,0.31,3.34,17.75,13.29,20.79c8.02,2.81,14.1-6.21,31.11-10.1c14.49-3.54,17.91-0.07,24.44-4.77
						c11.96-8.6,12.55-28.86,10.78-29.5c-0.71-0.26-1.47,2.78-6.06,7.6c-0.05,0.79-20.14,17.32-17.84,6.69
						c5.33-10.51,19.33-6.14,23.53-20.3c3.15-10.61-7.21-22.66-8.31-22.2c3.7,7.4-8.96,24.54-17.58,27.17
						c-5.3,1.15-3.46-2.97-0.16-6.62c9.25-13.44,15.06-19.88,12.52-32.79c-3.11-15.82-20.6-15.77-34.39-27.57
						c0,0-19.5,10.77-23.15,25.26c-3.52,13.95,12.49,16,16.35,24.95c2.05,3.71-1.37,7.94-5.02,7.61
						c-6.37,0.6-12.15-5.56-16.26-10.05c-6.82-7.44-7.47-11.57-9.64-11.25c-5.76,0.67-5.95,21.3,1.87,25.87
						c6.28,8.79,27.92,6.29,31.3,17.62c-6.38,5.71-27.45-4.57-33.84-11.22c-2.96-3.88-3.41-7.82-4.28-7.69
						C295.89,628.68,297.13,646.37,303.22,650.17z"/><path fill="#2b4532" d="M316.12,663c1.82,1.7,4.05,2.92,6.45,3.58c2.33,0.64,4.74,0.67,7.11,0.26c2.6-0.45,5.08-1.34,7.58-2.15
						c2.71-0.87,5.47-1.61,8.26-2.16c1.26-0.24,2.54-0.51,3.82-0.61c1.07-0.09,2.23,0,3.03,0.79c0.01,0.01,0.02,0,0.03,0.01
						c0.03,0.2,0.08,0.39,0.11,0.59c0.1,0.66,0.19,1.32,0.25,1.99c0.09-0.03,0.18-0.05,0.27-0.07c-0.12-1.21-0.3-2.41-0.55-3.6
						c0-0.01,0.01-0.01,0-0.02c0.03-0.52,0.17-1.05,0.35-1.54c0.17-0.46,0.39-0.98,0.78-1.3c0.59-0.47,1.36-0.72,2.07-0.95
						c0.71-0.22,1.44-0.43,2.16-0.62c5.09-1.34,10.38-2,15.29-3.98c4.03-1.64,7.84-4.19,10.02-8.06c0.09-0.16-0.16-0.28-0.26-0.12
						c-1.27,2.25-3.13,4.08-5.27,5.52c-4.19,2.8-9.13,3.97-14,5.03c-2.69,0.58-5.4,1.14-8.03,1.97c-0.97,0.31-2.1,0.66-2.64,1.59
						c-0.31,0.51-0.53,1.12-0.65,1.73c-0.8-3.32-2.11-6.49-3.41-9.64c-0.06-0.15-0.12-0.3-0.18-0.44c0,0,0,0,0-0.01
						c0.31-2.48,1.42-4.77,2.94-6.74c3.09-4.01,7.62-6.28,12.13-8.33c1.23-0.56,2.48-1.12,3.7-1.7c1.15-0.54,2.32-1.1,3.39-1.81
						c1.81-1.2,3.42-2.99,3.62-5.25c0.01-0.18-0.26-0.23-0.27-0.05c-0.25,2.84-2.65,4.7-5,5.95c-4.66,2.46-9.81,4.07-14.04,7.31
						c-3.25,2.48-6,6.04-6.68,10.14c-1.21-2.95-2.38-5.95-3.04-9.08c-0.36-1.72-0.54-3.45-0.59-5.19c0-0.01,0.01-0.02,0.01-0.04
						c-0.01-0.02-0.01-0.03-0.01-0.05c-0.04-1.58,0-3.16,0.11-4.73c0.17-2.62,0.47-5.23,0.67-7.86c1.24-2.47,3.08-4.6,5.02-6.55
						c3.48-3.5,7.64-6.46,10.27-10.71c2.34-3.79,3.24-9.08,0.35-12.84c-0.11-0.15-0.34,0.01-0.23,0.16c1.6,2.09,2.02,4.8,1.61,7.37
						c-0.78,4.96-4.46,8.68-8.03,11.92c-3.28,2.98-6.81,6.02-8.96,9.96c0.02-0.34,0.05-0.67,0.08-1.01
						c0.19-3.37,0.04-6.71-0.51-10.04c-1.12-6.81-3.57-13.31-6.01-19.73c-0.06-0.17-0.32-0.08-0.26,0.09c0.3,0.78,0.6,1.57,0.9,2.36
						c2.33,6.2,4.54,12.53,5.36,19.13c-0.84-1.59-2.36-2.75-3.75-3.83c-1.74-1.36-3.7-3.01-3.83-5.39
						c-0.01-0.18-0.29-0.16-0.28,0.02c0.12,2.23,1.82,3.91,3.46,5.22c1.71,1.36,3.74,2.73,4.49,4.88c0,0.01,0.01,0.01,0.02,0.02
						c0,0,0,0,0,0.01c0.34,3.32,0.22,6.63-0.06,9.95c-0.27,3.18-0.65,6.35-0.72,9.55c-0.01,0.3,0,0.61,0,0.92
						c-0.85-2.42-2.95-4.28-5.19-5.47c-2.59-1.37-5.55-1.85-8.41-2.33c-2.84-0.48-5.62-1.09-8.31-2.12
						c-5.18-1.99-9.89-5.16-13.67-9.22c-0.12-0.14-0.3,0.08-0.18,0.21c2.06,2.21,4.39,4.17,6.93,5.81c2.28,1.47,4.72,2.69,7.26,3.63
						c2.63,0.96,5.34,1.53,8.09,2c2.87,0.48,5.83,0.98,8.41,2.41c2.39,1.32,4.61,3.47,5.09,6.26c0.09,2.55,0.45,5.06,1.15,7.53
						c0.97,3.38,2.4,6.61,3.72,9.86c0.11,0.28,0.22,0.56,0.33,0.83c-1.45-1.28-3.27-2.13-5.13-2.63c-2-0.54-4.09-0.62-6.15-0.7
						c-2.14-0.08-4.27-0.18-6.38-0.48c-4.11-0.58-8.14-1.69-11.95-3.32c-0.17-0.07-0.29,0.19-0.13,0.25
						c2.1,0.89,4.26,1.64,6.45,2.22c1.97,0.52,3.98,0.92,6,1.18c2.07,0.27,4.15,0.35,6.23,0.43c2.09,0.08,4.2,0.19,6.22,0.78
						c1.87,0.55,3.68,1.46,5.07,2.85c0.01,0,0.01,0,0.01,0c0.95,2.45,1.79,4.94,2.3,7.51c-0.79-0.61-1.82-0.74-2.81-0.67
						c-1.44,0.08-2.88,0.4-4.29,0.68c-2.73,0.55-5.42,1.26-8.07,2.12c-2.55,0.83-5.1,1.75-7.76,2.17c-2.42,0.39-4.86,0.3-7.2-0.41
						c-2.2-0.67-4.23-1.83-5.91-3.4C316.17,662.67,315.99,662.88,316.12,663z"/><g><path fill="#ff639f" d="M384.16,837.43c-0.32,4.13-5.77,37.6-6.27,44.03h-48.02c-0.59-6.76-6.55-39.62-6.92-44.03H384.16z"/><path fill="#ddc5cd" d="M322.95,837.43c0.05,0.64,0.23,2.62,0.48,5.56h18.49c16.81,0,28.8,14.27,28.73,31.07
				c-0.01,3.69-1.49,5.92-3.4,7.4h10.64c0.5-6.43,5.95-39.9,6.27-44.03H322.95z"/><path fill="#ff639f" d="M382.96,837.44h-58.81c-3.95,0-7.15-2.59-7.15-5.8l0,0c0-3.2,3.2-5.79,7.15-5.79h58.81
				c3.95,0,7.15,2.59,7.15,5.79l0,0C390.11,834.84,386.91,837.44,382.96,837.44z"/></g></g><g><path fill="#ffd5b3" d="M708.74,410.44c6.98-4.53,2.6,13.35,6.05,13.39c10.86,0.13,25.32-28.79,28.37-19.28
			c8.32,25.92-24.86,42.34-32.6,43.53l-9.32-10.68C701.24,437.4,703.27,413.99,708.74,410.44z"/><path fill="#e04531" d="M585.52,456.65c10.7,29.29,51.06,64.03,63.93,70.05c18.43,8.62,18.05-23.58,18.05-23.58
				c-6.7-12.89-34.45-63.87-48.15-74.12C603.39,417.07,580.11,441.84,585.52,456.65z"/><path fill="#e04531" d="M658.71,527.35l-11.03-33.99l51.04-61.03l19.34,15.03C697.39,473.55,677.22,516.3,658.71,527.35z"/><path fill="#fff" d="M513.46,580.58h119.22c2.87-2.47,3.99-4.17,3.99-4.17s-5.79-6.73-12.42-16.35
			c-5.21-7.54-10.93-16.85-14.79-26.08c-2.79-6.66-4.61-13.28-4.57-19.17c-0.33-8.32,1.27-16,3.37-23.36
			c5.27-18.47,13.77-34.91,3.29-54.32c-2.42-4.48-5.26-8.93-8.82-12.45c-2.96-2.94-6.41-5.24-10.53-6.38
			c-0.03-0.01-0.07-0.02-0.11-0.03c-1.27-0.37-2.57-0.69-3.83-0.93c-1.65-0.38-3.42-0.82-5.19-1.23c-1.22-0.28-2.44-0.54-3.64-0.75
			c-0.08-0.02-0.17-0.03-0.24-0.04c-1.13-0.19-2.23-0.33-3.29-0.4c-0.8-0.05-1.58-0.08-2.36-0.08c-2.26-0.02-4.45,0.13-6.61,0.39
			c-5.5,0.64-10.8,1.92-16.56,2.58c-0.92,0.11-1.82,0.28-2.7,0.51c-0.41,0.11-0.82,0.23-1.22,0.36c-0.58,0.19-1.15,0.41-1.71,0.66
			c-7.12,3.1-12.93,10.15-20.4,17.91c-2.84,2.95-5.92,6-9.4,8.98c4.43,3.51,8.68,14.79,12.06,27.79
			c3.68,14.11,6.33,30.25,7.07,40.66c0.01,0.02,0.01,0.03,0.01,0.04l0.02,0.32c0.01,0.16,0.02,0.32,0.03,0.48
			c0.02,0.23,0.03,0.46,0.04,0.69c0.01,0.1,0.01,0.2,0.01,0.31c0.01,0.08,0.01,0.16,0.01,0.24c0.37,9.89-2.01,19.97-5.29,29.21
			C523.31,561.67,515.13,574.93,513.46,580.58z"/><path fill="#ffd5b3" d="M544.63,420.02c11.17,14.97,51.75,26.1,34.57-4.69c-2.67-2.9-4-9.88-4.51-18.32l-24.88-7.49
			C551.42,400.9,549.74,418.44,544.63,420.02z"/><path fill="#e04531" d="M579.2,415.33c0.03,0.07,0.07,0.14,0.11,0.21c1.3,2.29,6.2,7.49,10.74,15.98
			c5.56,10.4,10.55,25.77,7.64,46.86c-0.12,0.86-0.25,1.72-0.39,2.6c-1.04,6.33-1.85,12.49-2.43,18.46
			c-1.16,11.72-1.93,22.82-2.32,33.13c-0.41,10.75-0.39,20.64,0.07,29.48c0.36,6.84,0.98,13.05,1.89,18.54h49.66
			c-5.1-6.21-11.9-15.03-17.72-24.43c-4.44-7.16-8.3-14.67-10.43-21.63c-1.11-3.64-1.74-7.13-1.72-10.34
			c-0.31-7.88,0.86-15.82,2.44-23.73c4.28-21.4,11.59-42.68,0.9-62.49c-2.33-4.29,6.67-5.27,1.72-8.96
			c-4.5-3.34-32.83-12.37-36.65-13.14c-1.18-0.23-2.32-0.43-3.28-0.51C579.35,415.34,579.27,415.33,579.2,415.33z"/><path fill="#ffd5b3" d="M610.23,546.95c1.85,1.31,1.3,4.47,1.3,4.47l-9.07-0.49c-2.24,11.3,34.68,17.43,31.62,21.16
			c-7.33,8.95-33.84,2.88-36.86,0.92c-3.02-1.96-14.68-13.98-14.68-13.98l3.7-15.98C586.24,543.04,605.39,543.52,610.23,546.95z"/><path fill="#f26b61" d="M597.3,480.98c-1.04,6.33-1.85,12.5-2.43,18.46c7.28-20.74,19.59-35.88,19.59-35.88l-11.23-6.6l9.77-10.48
			c-8.77-14.75-21.83-25.02-30.3-30.62c-1.27-0.25-2.49-0.46-3.5-0.53C581.66,420.21,604.01,440.41,597.3,480.98z"/><path fill="#3a8ae6" d="M503.32,580.58h12.75c1.5-4.16,3.75-7.54,6.78-9.38c11.9-7.22,29.54-2.5,29.54-2.5l0.03-0.2l0.11-0.61
			l1.06-6.28l2.1-12.46c-1.16-0.66-2.24-1.38-3.26-2.15c-6.21-4.72-9.91-11.37-12-18.77c-3.51-12.45-2.45-26.99-1.12-37.83
			c2.25-18.32-3.42-28.68-3.42-28.68l-8.9,12.26l-4.94,6.81c2.89,5.68,5.54,11.53,7.61,17.06c0.39,1.04,0.76,2.07,1.11,3.08
			c0.12,0.34,0.23,0.67,0.34,1.01c0.11,0.34,0.22,0.67,0.33,1c0.1,0.3,0.19,0.6,0.28,0.9c0.21,0.69,0.41,1.37,0.6,2.03
			c0.01,0.03,0.02,0.06,0.02,0.09c0.48,1.74,0.88,3.42,1.18,5.01c0.09,0.47,0.16,0.93,0.23,1.38c0.06,0.42,0.12,0.83,0.17,1.23
			c0.02,0.19,0.05,0.38,0.07,0.56c0.03,0.29,0.06,0.58,0.08,0.86c0.02,0.16,0.03,0.32,0.04,0.47c0.01,0.23,0.03,0.46,0.03,0.7
			c0.01,0.1,0.01,0.2,0.01,0.31c0.01,0.32,0.02,0.63,0.02,0.95c0,2.57-0.29,5.21-0.82,7.91c-0.38,1.96-0.89,3.95-1.51,5.95
			c-0.08,0.25-0.16,0.51-0.24,0.76c-1.18,3.67-2.7,7.39-4.47,11.08C520.45,557.18,510.38,570.93,503.32,580.58z"/><path fill="#e04531" d="M534.17,516.74c0.01,0.23,0.01,0.47,0.01,0.7c0,2.57-0.29,5.21-0.82,7.91c-0.38,1.96-0.89,3.95-1.51,5.95
				c-0.08,0.25-0.16,0.51-0.24,0.76c-1.18,3.67-2.71,7.38-4.47,11.07c-6.69,14.05-16.77,27.8-23.83,37.45h47.3
				c0.34-2.34,0.69-4.65,1.04-6.96c0.23-1.64,0.5-3.29,0.75-4.92l0.03-0.2c0.03-0.2,0.07-0.4,0.1-0.61c0.33-2.11,0.67-4.2,1.02-6.28
				c0.7-4.21,1.42-8.35,2.13-12.46c0.03-0.17,0.06-0.35,0.09-0.52c1.09-6.41,2.19-12.69,3.19-18.86c1.09-6.71,2.09-13.27,2.89-19.73
				c0.17-1.33,0.32-2.65,0.47-3.96c0.07-0.66,0.15-1.32,0.22-1.97c0.29-2.62,0.54-5.21,0.75-7.79c1.22-14.7,1.15-28.71-1.52-42.38
				c-0.19-0.96-0.39-1.91-0.6-2.86c-0.14-0.64-0.29-1.28-0.44-1.91c-0.15-0.63-0.32-1.25-0.48-1.89c0.01-0.01,0-0.01,0-0.01
				c-0.33-1.26-0.69-2.52-1.07-3.77c-0.28-0.95-0.58-1.89-0.9-2.83c-0.53-1.57-1.09-3.13-1.7-4.7c0.01-0.01,0.01-0.01,0-0.01
				c-0.24-0.62-0.49-1.24-0.75-1.87c-0.93-2.26-1.96-4.52-3.08-6.77c-1.51-3.02-3.2-6.03-5.08-9.04c-0.01-0.01-0.01-0.02-0.02-0.03
				c-0.38,0.09-0.76,0.2-1.14,0.3c-0.1,0.02-0.2,0.05-0.31,0.08c-0.48,0.13-0.96,0.27-1.43,0.41c-16.65,4.89-33.86,5.48-40.5,13.63
				c-0.56,0.69-1.04,1.43-1.45,2.23c5.09,4.04,11.69,31.09,19.22,45.88c0.54,1.04,1.06,2.1,1.55,3.15
				c2.29,4.67,4.37,9.39,6.07,13.91c0.39,1.04,0.76,2.07,1.11,3.08c0.12,0.34,0.23,0.67,0.34,1.01c0.11,0.34,0.22,0.67,0.33,1
				c0.1,0.3,0.19,0.6,0.28,0.9c0.22,0.69,0.41,1.37,0.6,2.03c0.01,0.03,0.02,0.06,0.02,0.09c0.49,1.75,0.89,3.42,1.18,5.01
				c0.25,1.28,0.43,2.51,0.53,3.67c0.01,0.02,0.01,0.03,0.01,0.04c0.02,0.27,0.04,0.53,0.06,0.78
				C534.15,515.9,534.16,516.32,534.17,516.74z"/><path fill="#f26b61" d="M554.91,464.46l-12.58,6.39c0,0,14.06,18.06,19.51,39.2c4.13-33.2,4.03-62.68-14.19-91.8
				c-0.96,0.24-1.94,0.52-2.88,0.79l-4.42,30.54L554.91,464.46z"/><path fill="#f0d0be" d="M576.84,405.1c0,0,0.68,10.03-6.32,10.93c-7,0.9-16.7-15.85-16.7-15.85L576.84,405.1z"/><path fill="#e04531" d="M500.61,436.98c-14.18,27.78-10.8,94.8-6.46,108.33c6.22,19.37,28.26-7.79,28.26-7.79
			s22.17-77.44,15.69-93.28C528.44,420.58,507.78,422.93,500.61,436.98z"/><path fill="#e04531" d="M498.32,551.33l9.97-28.75l79.05,18.51l-4.79,24.02C551.48,562.44,514.13,560.57,498.32,551.33z"/><path fill="#7f4218" d="M607.48,347.55c-4.06-3.65-3.09-5.82-2.59-8.43c0.5-2.61-2.4-8.37-6.84-10.63
				c-7.64-3.88-1.81-13.01-19.2-12.52c8.51-5.5-1.78-10.01-0.77-13.35c1.1-1.57,0.99-5.8-1.56-9.94c-2.54-4.14-6.8-1.57-10.85-1.04
				c-4.05,0.53-4.46-5.45-9.26-5.07c-13.4,1.07-12.83,9.63-16.72,10.88c-3.89,1.25-8.52,1.47-9.64,5.98
				c-1.17,4.72,1.42,8.3,3.08,9.25c1.9,2.22-5.89,8.86,5.28,12.94c-15.32,5.88-4.64,11.21-11.51,16.86
				c-4.25,3.15-5.46,12.13-1.46,15.66c6.4,5.64-10.54,20.98,10.78,28.34c2.74,0.95-1.47,13.42,20.26,10.14l44.56-23.7
				C601.05,372.91,611.98,351.59,607.48,347.55z"/><path fill="#7f4218" d="M543.64,325.19c-4.81,0.73-10.54,1.47-13.36,5.89c-1.12,1.75-0.89,3.75-1.28,5.79
				c-0.48,3.33-4.11,5.09-5.85,7.39c-0.6,0.77-1.04,1.65-1.42,2.56c-1.86,4.83-0.07,10.22,2.9,14.25
				c-3.56-3.81-5.69-9.48-3.91-14.61c0.37-1.02,0.85-2,1.5-2.89c1.83-2.64,4.9-3.8,5.51-6.95c0.36-1.98,0.26-4.39,1.55-6.16
				C532.41,325.76,538.53,325.21,543.64,325.19z"/><path fill="#7f4218" d="M566.41,292.5c3.3-2.99,8.95-2.84,12.23,0.24c3.51,3.08,3.54,8.96-0.13,11.83
				C584.54,296.15,574.6,288.28,566.41,292.5z"/><path fill="#ffd5b3" d="M540.89,372.7c-0.38-2.86-0.25-10.03-3.74-11.36c-3.48-1.33-7.24,0.91-8.72,5.66s1.29,10.8,8.59,14.43
				S541.15,374.63,540.89,372.7z"/><path fill="#e6c9b3" d="M538.6,375.24c0.27-0.98-0.94-2.44-1.07-3.42c-0.38-2.89,1.17-6.26-1.22-6.86
				c-1.42-0.36-3.43,0.59-3.91,2.41c0.48-0.64,3.56-2.12,4.03-0.25c0.55,2.16,0.3,4.24-0.1,5.78c-0.11,0.4-1.45,1.67-1.62,1.94
				C533.78,376.32,537.81,378.17,538.6,375.24z"/><path fill="#ffd5b3" d="M603.78,364.45c1.25,22.29-17.36,44.78-27.32,45.35c-18.64,1.07-37.22-19.39-38.47-41.68
			s12.47-41.18,30.64-42.2C586.8,324.91,602.53,342.16,603.78,364.45z"/><path fill="#7f4218" d="M595.64,328.68c-4.93-7.18-18.66-11.84-28.4-8.23c-14.15-3.14-21.93,3.59-26.6,9.84
			c-8.51,11.39-8.35,32.11-0.54,46.78c-4.01-23.58,9.29-49.31,28.02-40.67c20.37-10.53,36.23,15.76,34.24,36.51
			C605.76,362.39,604.87,342.11,595.64,328.68z"/><path fill="#e6c9b3" d="M567.1,365.88c-0.91-1.62-2.22-2.98-3.71-4.07c-0.75-0.54-1.57-0.99-2.41-1.36
					c-0.86-0.35-1.77-0.55-2.68-0.68c-1.84-0.17-3.79,0.15-5.61,0.68c-1.82,0.57-3.59,1.39-5.15,2.58c1.08-1.58,2.81-2.8,4.73-3.58
					c1.94-0.75,4.06-1.12,6.23-0.88c2.15,0.27,4.1,1.26,5.57,2.58C565.51,362.47,566.63,364.1,567.1,365.88z"/><path fill="#fff" d="M567.01,366.3c0.11,2.03-4.4,4.58-9.32,4.85c-5.17,0.29-8.19-3.32-9.06-4.9c0,0,3.62-4.12,8.54-4.4
						C562.09,361.59,566.87,363.74,567.01,366.3z"/><circle cx="560.17" cy="365.8" r="5.02" fill="#b56236"/><circle cx="560.11" cy="366.34" r="3.31" fill="#210f06"/><path fill="#4a2121" d="M566.8,365.13c-2.82-3.64-6.67-4.92-9.59-4.59c-2.37,0.27-4.22,1.05-5.63,1.95
						c-0.71,0.06-2.12,0.01-3.6-1.08c0,0,0.8,1.51,2.26,2.06c-0.48,0.42-0.86,0.83-1.17,1.21c-0.57,0.01-1.5-0.1-2.46-0.81
						c0,0,0.68,1.28,1.91,1.6c-0.03,0.05-0.07,0.11-0.1,0.16c-0.47,0.9-0.47,1.24-0.47,1.24c3.61-3.16,6.76-4.47,9.4-4.75
						c6.32-0.66,9.76,4.61,9.76,4.61S567.43,365.95,566.8,365.13z"/><circle cx="558.17" cy="364.05" r=".75" fill="#fff"/><path fill="#e6c9b3" d="M580.75,364.63c0.72-1.71,1.88-3.2,3.23-4.46c0.68-0.62,1.45-1.16,2.25-1.62
					c0.81-0.45,1.69-0.75,2.59-0.98c1.81-0.37,3.78-0.27,5.65,0.05c1.87,0.36,3.73,0.98,5.41,1.99c-1.25-1.45-3.1-2.47-5.1-3.03
					c-2.01-0.53-4.16-0.66-6.29-0.18c-2.11,0.51-3.93,1.71-5.25,3.18C581.95,361.07,581.03,362.81,580.75,364.63z"/><path fill="#fff" d="M580.89,365.04c0.11,2.03,4.88,4.06,9.8,3.78c5.17-0.29,7.77-4.21,8.46-5.87c0,0-4.05-3.69-8.98-3.42
						C585.26,359.81,580.75,362.48,580.89,365.04z"/><circle cx="591.99" cy="363.56" r="5.02" fill="#b56236"/><circle cx="592.31" cy="363.9" r="3.31" fill="#210f06"/><path fill="#4a2121" d="M580.97,363.85c2.4-3.93,6.08-5.63,9.02-5.63c2.38,0,4.31,0.57,5.81,1.31c0.72-0.02,2.11-0.23,3.45-1.47
						c0,0-0.63,1.59-2.01,2.3c0.53,0.36,0.95,0.73,1.3,1.08c0.57-0.05,1.48-0.27,2.36-1.08c0,0-0.53,1.35-1.72,1.8
						c0.03,0.05,0.09,0.1,0.12,0.15c0.57,0.84,0.6,1.18,0.6,1.18c-3.94-2.74-7.22-3.69-9.87-3.67c-6.36,0.05-9.18,5.67-9.18,5.67
						S580.44,364.73,580.97,363.85z"/><circle cx="589.25" cy="361.95" r=".75" fill="#fff"/><path fill="#7f4218" d="M565.19,358.05c0,0-4.25-3.12-10.48-1.89c-2.61,0.51-7.39,2.91-10.7,6.39c0,0,0.4-1.74,2.17-3.55
					c6.33-6.49,15.26-6.82,18.39-3.45C565.28,356.29,565.19,358.05,565.19,358.05z"/><path fill="#7f4218" d="M578.02,357.31c0,0,3.53-3.91,9.89-3.96c2.66-0.02,7.82,1.36,11.76,4.11c0,0-0.74-1.62-2.84-3.04
					c-7.51-5.09-16.31-3.61-18.71,0.32C577.59,355.61,578.02,357.31,578.02,357.31z"/><g><path fill="#e6c9b3" d="M573.27,363.56c1.39,4.3,4.39,7.77,6.82,11.48c2.5,4.95-4.55,8.29-8.68,6.91c3.42,0.24,8.95-2.01,6.86-6.18
				C575.62,372.24,573.27,368.12,573.27,363.56z"/></g><path fill="#7f4218" d="M564.18,334.75c-5.75-2.3-14.08,1.89-14.63,8.13c-0.12,1.5,0.23,3.29-0.37,5.24c-1,3.43-4.29,5.42-5.46,8.4
			c-1.26,3.86,2.34,7.55,2.39,11.58c0.19,4.48-2.95,7.99-3.3,12.28c-0.84,6.49,2.35,13.08,7.86,16.73
			c-6.37-2.81-10.46-9.92-9.91-16.91c0.05-3.39,1.9-6.7,2.63-9.8c0.81-3.24-1.04-5.86-2.03-9c-1.5-3.97,0.34-7.57,3.07-10.25
			c1.12-1.23,2.14-2.41,2.58-3.72c0.47-1.27,0.33-2.92,0.54-4.74c0.21-1.88,1.1-3.66,2.33-4.98
			C553.39,333.93,559.55,332.1,564.18,334.75z"/><path fill="#7f4218" d="M577.18,334.47c4.27-3.21,10.61-2.15,14.56,1.15c1.38,1.16,2.49,2.82,2.93,4.65c0.44,1.78,0.5,3.44,1.12,4.64
			c0.59,1.24,1.76,2.29,3.02,3.37c3.04,2.32,5.31,5.66,4.31,9.79c-0.6,3.24-2.1,6.07-0.9,9.19c1.11,3,3.36,6.04,3.83,9.4
			c1.4,6.87-1.76,14.44-7.74,18.01c5.01-4.3,7.36-11.24,5.73-17.57c-0.88-4.21-4.43-7.31-4.8-11.78c-0.44-4.01,2.67-8.12,0.94-11.79
			c-1.53-2.81-5.04-4.37-6.46-7.65c-0.84-1.86-0.71-3.68-1.02-5.15C591.38,334.59,582.6,331.48,577.18,334.47z"/><g><path fill="#ff6c5c" d="M562.46,389.15c0,0,3.35-2.91,6.52-3.35c1.55-0.21,3.22,1.13,4.44,1.12c1.32-0.01,3.39-1.83,4.85-1.76
				c2.45,0.11,5.7,1.73,6.98,2.13c0,0-1.08,12.12-10.14,12.83C566.18,400.82,563.11,391.41,562.46,389.15z"/><path fill="#7a0b0b" d="M562.81,389.13c0,0,3.91,9.08,12.11,8.39c5.58-0.48,8.48-5.09,10-9.86c0,0-2.89-0.87-6.47-0.03
				c-1.4,0.33-3.38,0.65-4.96,0.74c-1.61,0.09-2.79,0.06-4.35-0.21C565.89,387.58,563.18,388.91,562.81,389.13z"/><path fill="#ff7a7a" d="M566.89,394.67c0.65-0.73,4.48-2.09,7.09-1.15c2.39-1.17,5.64-0.45,7.71,0.39c0,0-2.31,3.53-7.49,3.65
				C569.67,397.66,566.89,394.67,566.89,394.67z"/><path fill="#fff" d="M574.21,397.55c0,0,3.65,0,6.22-2.35c-0.35,0.32-7.81,1.55-11.95,0.67
				C568.47,395.87,570.73,397.58,574.21,397.55z"/><path fill="#fff" d="M564.35,388.5c0,0,1.86-0.7,3.68-0.47c2.25,0.28,3.94,0.47,5.46,0.33s3.73-0.51,4.96-0.74
				c1.23-0.23,2.62-0.83,5.07-0.26c0,0,0.03,1.12-0.48,1.35c-2.95,1.31-14.4,1.96-17.86,1.07
				C564.85,389.7,564.35,388.5,564.35,388.5z"/></g><g><path fill="#ffb300" d="M555.91,399.85c0.46,0,0.93-0.01,1.4-0.02l-0.04-1.84c-10.16,0.24-17.39-2.02-21.47-6.69
					c-4.38-5-3.48-11.1-3.47-11.16l-1.82-0.29c-0.04,0.28-1.03,7.01,3.9,12.65C538.67,397.39,545.9,399.85,555.91,399.85z"/><path fill="#ffb300" d="M530.92,360.42L530.92,360.42c-2.26,0.13-4.19-1.41-4.31-3.44c-0.52-2.58,0.2-5.94,3.75-6.11
							c2.27-0.16,4.23,1.49,4.31,3.44C535.19,356.98,534.45,360.23,530.92,360.42z"/><path fill="#ffb300" d="M526.97,360.26l1.19,20.17C513.98,381.25,512.81,361.1,526.97,360.26z"/><path fill="#e04531" d="M529.51,356.48c4.2-0.25,7.78,2.61,8,6.39l0.89,15.07c0.22,3.78-3,7.04-7.2,7.28s-7.78-2.61-8-6.39
						l-0.89-15.07C522.09,359.99,525.31,356.73,529.51,356.48z"/><path fill="#e04531" d="M554.8,396.8h4.98c0.77,0,1.39,0.62,1.39,1.39v1.46c0,0.77-0.62,1.39-1.39,1.39h-4.98
				c-0.77,0-1.39-0.62-1.39-1.39v-1.46C553.4,397.42,554.03,396.8,554.8,396.8z"/></g><g><path fill="#ffb300" d="M596.02,327.09c-7.28-2.79-16.81-4.59-28.75-3.29c-31.53,3.41-34.25,30.45-34.27,30.72l-4.74-0.42
				c0.04-0.31,3.14-31.19,38.49-35.03c10.03-1.09,18.51-0.14,25.52,1.78C593.47,322.92,594.06,325.26,596.02,327.09z"/></g></g><path fill="#ffb300" d="M492.76,329.16l-11.14-23.4c-2.86-6.01-1.84-13.11,2.52-18.14c18.21-21.02,29.24-48.42,29.31-78.4
		c0.14-65.69-52.84-119.58-118.52-120.49c-67.19-0.93-121.95,53.25-121.95,120.22c0,66.4,53.83,120.23,120.23,120.23
		C394.07,329.18,492.76,329.16,492.76,329.16z"/><g><path fill="#a487d9" d="M1024.6,170.96c-0.76,0-1.42-0.58-1.49-1.36c-0.2-2.07-0.53-4.17-0.99-6.23c-0.18-0.81,0.33-1.61,1.14-1.79
				c0.81-0.18,1.61,0.33,1.79,1.14c0.49,2.18,0.84,4.4,1.05,6.6c0.08,0.83-0.53,1.56-1.35,1.64
				C1024.7,170.96,1024.65,170.96,1024.6,170.96z"/><path fill="#a487d9" d="M1019.36,152.36c-0.56,0-1.1-0.32-1.36-0.86c-1.72-3.67-3.88-7.32-6.42-10.87
				c-0.48-0.67-0.33-1.61,0.35-2.09c0.67-0.48,1.61-0.32,2.09,0.35c2.64,3.7,4.89,7.51,6.69,11.34c0.35,0.75,0.03,1.64-0.72,2
				C1019.8,152.32,1019.58,152.36,1019.36,152.36z M846.31,142.97c-0.05,0-0.11,0-0.16-0.01c-4.96-0.53-9.23-3.17-11.72-7.25
				c-0.43-0.71-0.21-1.63,0.5-2.06c0.71-0.43,1.63-0.21,2.06,0.5c2,3.28,5.46,5.4,9.48,5.83c0.82,0.09,1.42,0.83,1.33,1.65
				C847.72,142.4,847.07,142.97,846.31,142.97z M858.54,139.69c-0.48,0-0.96-0.23-1.25-0.66c-0.46-0.69-0.28-1.62,0.41-2.08
				c3.17-2.13,5.85-5.18,7.97-9.07c0.4-0.73,1.31-1,2.04-0.6c0.73,0.4,1,1.31,0.6,2.04c-2.35,4.32-5.36,7.73-8.93,10.13
				C859.11,139.61,858.82,139.69,858.54,139.69z M1004.54,131.35c-0.39,0-0.79-0.15-1.08-0.46c-2.85-2.96-6-5.86-9.38-8.62
				c-0.64-0.52-0.74-1.47-0.21-2.11c0.52-0.64,1.47-0.74,2.11-0.21c3.47,2.83,6.71,5.81,9.64,8.86c0.57,0.6,0.56,1.55-0.04,2.12
				C1005.29,131.21,1004.91,131.35,1004.54,131.35z M833.81,123.94c-0.09,0-0.17-0.01-0.26-0.02c-0.82-0.14-1.36-0.92-1.22-1.74
				c0.09-0.51,0.19-1.02,0.31-1.54c0.77-3.37,2.86-6.86,6.19-10.38c0.57-0.6,1.52-0.63,2.12-0.06c0.6,0.57,0.63,1.52,0.06,2.12
				c-2.96,3.12-4.79,6.14-5.44,8.98c-0.11,0.47-0.2,0.93-0.28,1.38C835.16,123.43,834.53,123.94,833.81,123.94z M871.8,118.14
				c-0.13,0-0.26-0.02-0.4-0.05c-0.8-0.22-1.27-1.04-1.05-1.84c1.11-4.08,1.7-8.25,1.76-12.38c0.01-0.82,0.68-1.48,1.5-1.48
				c0.01,0,0.01,0,0.02,0c0.83,0.01,1.49,0.69,1.48,1.52c-0.06,4.39-0.69,8.81-1.86,13.13C873.07,117.7,872.46,118.14,871.8,118.14z
				 M984.61,114.98c-0.28,0-0.57-0.08-0.82-0.25c-3.49-2.29-7.19-4.49-10.99-6.52c-0.73-0.39-1.01-1.3-0.62-2.03
				c0.39-0.73,1.3-1.01,2.03-0.62c3.89,2.07,7.66,4.32,11.23,6.66c0.69,0.46,0.88,1.38,0.43,2.08
				C985.58,114.74,985.1,114.98,984.61,114.98z M526.23,110.86h-0.36c-0.83,0-1.5-0.67-1.5-1.5s0.67-1.5,1.5-1.5h0.36
				c4.12,0,8.32-0.1,12.48-0.3c0.86-0.04,1.53,0.6,1.57,1.43c0.04,0.83-0.6,1.53-1.43,1.57
				C534.64,110.76,530.39,110.86,526.23,110.86z M512.96,110.51c-0.03,0-0.05,0-0.08,0c-4.32-0.23-8.68-0.57-12.96-1.03
				c-0.82-0.09-1.42-0.83-1.33-1.65c0.09-0.82,0.82-1.42,1.65-1.33c4.23,0.45,8.53,0.79,12.8,1.01c0.83,0.04,1.46,0.75,1.42,1.58
				C514.42,109.89,513.76,110.51,512.96,110.51z M551.66,109.64c-0.76,0-1.42-0.58-1.49-1.36c-0.08-0.83,0.53-1.56,1.35-1.63
				c4.18-0.4,8.47-0.9,12.76-1.49c0.82-0.11,1.58,0.46,1.69,1.28c0.11,0.82-0.46,1.58-1.28,1.69c-4.33,0.6-8.67,1.11-12.89,1.51
				C551.76,109.63,551.71,109.64,551.66,109.64z M577.24,106.11c-0.71,0-1.34-0.51-1.47-1.24c-0.15-0.82,0.4-1.59,1.21-1.74
				c4.11-0.74,8.35-1.58,12.6-2.5c0.8-0.18,1.61,0.34,1.78,1.15c0.18,0.81-0.34,1.61-1.15,1.78c-4.28,0.93-8.56,1.78-12.7,2.52
				C577.42,106.1,577.33,106.11,577.24,106.11z M849.94,104.67c-0.49,0-0.97-0.24-1.26-0.68c-0.45-0.69-0.26-1.62,0.44-2.08
				c1.77-1.15,3.59-2.24,5.43-3.23c1.99-1.08,4.06-2.09,6.15-3.01c0.76-0.33,1.64,0.01,1.98,0.77s-0.01,1.64-0.77,1.98
				c-2.02,0.89-4.02,1.87-5.93,2.9c-1.76,0.95-3.52,2-5.21,3.11C850.5,104.59,850.22,104.67,849.94,104.67z M961.86,102.81
				c-0.2,0-0.4-0.04-0.59-0.12c-3.89-1.67-7.91-3.2-11.95-4.55c-0.79-0.26-1.21-1.11-0.95-1.9c0.26-0.79,1.12-1.21,1.9-0.95
				c4.12,1.38,8.22,2.94,12.18,4.64c0.76,0.33,1.11,1.21,0.79,1.97C963,102.47,962.44,102.81,961.86,102.81z M602.45,100.66
				c-0.67,0-1.28-0.45-1.45-1.14c-0.2-0.8,0.29-1.62,1.09-1.82c4.04-1.01,8.22-2.12,12.43-3.3c0.8-0.23,1.63,0.24,1.85,1.04
				c0.22,0.8-0.24,1.63-1.04,1.85c-4.24,1.18-8.45,2.3-12.51,3.32C602.7,100.65,602.57,100.66,602.45,100.66z M937.39,94.61
				c-0.12,0-0.24-0.01-0.36-0.04c-4.16-1.02-8.38-1.87-12.54-2.53c-0.82-0.13-1.38-0.9-1.25-1.71s0.9-1.38,1.71-1.25
				c4.25,0.67,8.55,1.54,12.79,2.58c0.8,0.2,1.3,1.01,1.1,1.81C938.67,94.16,938.06,94.61,937.39,94.61z M873.46,94.22
				c-0.66,0-1.26-0.43-1.44-1.1c-0.05-0.18-0.07-0.36-0.05-0.54c-0.61-0.07-1.13-0.5-1.29-1.13c-1-4.02-2.53-7.95-4.54-11.66
				c-0.39-0.73-0.12-1.64,0.61-2.03c0.73-0.39,1.64-0.12,2.03,0.61c2.12,3.93,3.74,8.09,4.81,12.36c0.03,0.13,0.05,0.26,0.04,0.39
				c3.93-1.07,8.05-1.92,12.25-2.54c0.83-0.12,1.58,0.45,1.7,1.27c0.12,0.82-0.45,1.58-1.27,1.7c-4.28,0.63-8.47,1.51-12.45,2.62
				C873.73,94.2,873.59,94.22,873.46,94.22z M627.31,93.73c-0.64,0-1.24-0.42-1.43-1.06c-0.24-0.79,0.21-1.63,1-1.87
				c3.93-1.2,8.07-2.5,12.3-3.88c0.79-0.25,1.63,0.17,1.89,0.96s-0.17,1.63-0.96,1.89c-4.25,1.38-8.4,2.69-12.35,3.89
				C627.6,93.71,627.45,93.73,627.31,93.73z M911.87,90.63c-0.03,0-0.07,0-0.1,0c-2.86-0.19-5.71-0.28-8.49-0.28
				c-0.01,0-0.03,0-0.04,0c-1.4,0-2.82,0.02-4.23,0.07c-0.83,0.05-1.52-0.62-1.55-1.45c-0.03-0.83,0.62-1.52,1.45-1.55
				c1.44-0.05,2.9-0.07,4.33-0.07c0.01,0,0.03,0,0.04,0c2.84,0,5.77,0.1,8.69,0.29c0.83,0.05,1.45,0.77,1.4,1.59
				C913.31,90.02,912.65,90.63,911.87,90.63z M651.89,85.76c-0.62,0-1.21-0.39-1.42-1.02c-0.27-0.78,0.15-1.64,0.94-1.9
				c4.09-1.39,8.16-2.81,12.2-4.22c0.79-0.27,1.64,0.14,1.91,0.92c0.27,0.78-0.14,1.64-0.92,1.91c-4.05,1.42-8.12,2.83-12.22,4.23
				C652.21,85.74,652.05,85.76,651.89,85.76z M676.28,77.23c-0.62,0-1.2-0.38-1.41-1c-0.28-0.78,0.13-1.64,0.91-1.92l3.71-1.32
				c2.83-1.01,5.66-2.01,8.47-3.01c0.78-0.28,1.64,0.13,1.92,0.91c0.28,0.78-0.13,1.64-0.91,1.92c-2.81,0.99-5.63,2-8.46,3.01
				l-3.71,1.32C676.62,77.2,676.45,77.23,676.28,77.23z M860.02,70.06c-0.41,0-0.82-0.17-1.12-0.5c-2.77-3.08-5.93-5.89-9.39-8.33
				c-0.68-0.48-0.84-1.41-0.36-2.09c0.48-0.68,1.42-0.84,2.09-0.36c3.64,2.57,6.97,5.53,9.89,8.78c0.55,0.62,0.5,1.56-0.11,2.12
				C860.74,69.93,860.38,70.06,860.02,70.06z M700.65,68.63c-0.62,0-1.2-0.39-1.42-1.01c-0.27-0.78,0.14-1.64,0.93-1.91
				c4.46-1.54,8.47-2.9,12.26-4.15c0.79-0.26,1.63,0.17,1.89,0.95c0.26,0.79-0.17,1.63-0.95,1.89c-3.77,1.25-7.77,2.6-12.22,4.14
				C700.98,68.6,700.81,68.63,700.65,68.63z M725.19,60.55c-0.64,0-1.24-0.41-1.43-1.06c-0.24-0.79,0.2-1.63,0.99-1.88
				c4.3-1.32,8.48-2.55,12.44-3.64c0.8-0.22,1.62,0.25,1.85,1.05c0.22,0.8-0.25,1.62-1.05,1.85c-3.93,1.08-8.09,2.3-12.36,3.62
				C725.49,60.52,725.34,60.55,725.19,60.55z M839.12,55.23c-0.2,0-0.4-0.04-0.59-0.12c-2.47-1.06-5.06-1.97-7.68-2.71
				c-1.45-0.41-2.92-0.79-4.37-1.14c-0.81-0.19-1.3-1-1.11-1.81c0.19-0.81,1-1.3,1.81-1.11c1.49,0.36,2.99,0.75,4.48,1.17
				c2.75,0.77,5.45,1.73,8.05,2.84c0.76,0.33,1.12,1.21,0.79,1.97C840.25,54.89,839.7,55.23,839.12,55.23z M750.1,53.71
				c-0.68,0-1.3-0.47-1.46-1.16c-0.19-0.81,0.31-1.61,1.12-1.8c4.36-1.03,8.63-1.93,12.71-2.68c0.81-0.15,1.6,0.39,1.75,1.2
				c0.15,0.82-0.39,1.6-1.2,1.75c-4.03,0.74-8.26,1.63-12.57,2.65C750.33,53.69,750.22,53.71,750.1,53.71z M775.5,49.07
				c-0.75,0-1.39-0.56-1.49-1.32c-0.1-0.82,0.48-1.57,1.31-1.67c4.42-0.54,8.78-0.92,12.97-1.13c0.86-0.03,1.53,0.6,1.57,1.42
				c0.04,0.83-0.6,1.53-1.42,1.57c-4.11,0.2-8.4,0.58-12.75,1.11C775.62,49.07,775.56,49.07,775.5,49.07z M814.14,48.93
				c-0.07,0-0.13,0-0.2-0.01c-4.13-0.55-8.41-0.91-12.72-1.06c-0.83-0.03-1.48-0.73-1.45-1.55c0.03-0.83,0.71-1.5,1.55-1.45
				c4.41,0.16,8.79,0.53,13.01,1.09c0.82,0.11,1.4,0.86,1.29,1.69C815.52,48.38,814.88,48.93,814.14,48.93z"/><path fill="#a487d9" d="M487.1,107.76c-0.08,0-0.16-0.01-0.24-0.02c-2.14-0.34-4.31-0.72-6.44-1.12c-0.81-0.15-1.35-0.94-1.2-1.75
				c0.15-0.82,0.94-1.36,1.75-1.2c2.11,0.4,4.25,0.77,6.36,1.11c0.82,0.13,1.37,0.9,1.24,1.72
				C488.46,107.24,487.83,107.76,487.1,107.76z"/></g><g><path fill="#a487d9" d="M284.86,444.48c-0.67,0-1.28-0.45-1.45-1.13c-0.2-0.8,0.29-1.62,1.09-1.82c2.09-0.52,4.25-1,6.44-1.4
				c0.81-0.16,1.6,0.38,1.75,1.2c0.15,0.81-0.39,1.6-1.2,1.75c-2.13,0.4-4.24,0.86-6.26,1.37
				C285.1,444.47,284.98,444.48,284.86,444.48z"/><path fill="#a487d9" d="M271.72,622.22c-0.15,0-0.3-0.02-0.45-0.07c-4.15-1.31-8.14-3.09-11.86-5.3c-0.71-0.42-0.95-1.34-0.53-2.06
				c0.42-0.71,1.34-0.95,2.06-0.53c3.52,2.08,7.3,3.77,11.24,5.02c0.79,0.25,1.23,1.09,0.98,1.88
				C272.95,621.81,272.36,622.22,271.72,622.22z M250.09,609.42c-0.37,0-0.74-0.14-1.03-0.41c-3.09-2.94-5.92-6.26-8.39-9.88
				c-0.47-0.68-0.29-1.62,0.39-2.08c0.68-0.47,1.62-0.29,2.08,0.39c2.36,3.44,5.05,6.61,7.99,9.4c0.6,0.57,0.62,1.52,0.05,2.12
				C250.88,609.27,250.49,609.42,250.09,609.42z M235.8,588.69c-0.58,0-1.13-0.34-1.38-0.91c-1.7-3.94-3.05-8.08-4.01-12.3
				c-0.18-0.81,0.32-1.61,1.13-1.8c0.81-0.18,1.61,0.32,1.8,1.13c0.92,4.04,2.21,8,3.84,11.78c0.33,0.76-0.02,1.64-0.78,1.97
				C236.2,588.65,236,588.69,235.8,588.69z M230.21,564.1c-0.8,0-1.47-0.63-1.5-1.44c-0.03-0.83-0.05-1.66-0.05-2.48
				c0-3.56,0.29-7.07,0.86-10.46c0.14-0.82,0.92-1.37,1.73-1.23c0.82,0.14,1.37,0.91,1.23,1.73c-0.54,3.22-0.82,6.57-0.82,9.96
				c0,0.79,0.02,1.58,0.04,2.37c0.03,0.83-0.62,1.52-1.44,1.55C230.25,564.1,230.23,564.1,230.21,564.1z M234.56,539.33
				c-0.2,0-0.4-0.04-0.6-0.12c-0.76-0.33-1.11-1.21-0.78-1.97c1.79-4.13,4.1-7.87,6.85-11.13c0.54-0.63,1.48-0.71,2.11-0.18
				c0.63,0.54,0.71,1.48,0.18,2.11c-2.56,3.03-4.71,6.52-6.39,10.38C235.69,538.99,235.14,539.33,234.56,539.33z M266.7,538.97
				c-0.76,0-1.41-0.57-1.49-1.34c-0.09-0.82,0.51-1.56,1.33-1.65c2.64-0.29,5.38-0.96,8.14-1.99c1.2-0.45,2.29-0.98,3.23-1.57
				c0.7-0.44,1.63-0.23,2.07,0.47c0.44,0.7,0.23,1.63-0.47,2.07c-1.12,0.7-2.39,1.32-3.78,1.84c-2.99,1.12-5.98,1.85-8.86,2.16
				C266.81,538.97,266.76,538.97,266.7,538.97z M254.24,537.47c-0.18,0-0.36-0.03-0.53-0.1c-4.09-1.55-7.77-4.07-10.93-7.48
				c-0.56-0.61-0.53-1.56,0.08-2.12c0.61-0.56,1.56-0.53,2.12,0.08c2.85,3.07,6.14,5.33,9.79,6.71c0.78,0.29,1.17,1.16,0.87,1.93
				C255.42,537.1,254.85,537.47,254.24,537.47z M283.64,524.5c-0.66,0-1.27-0.44-1.45-1.12c-0.88-3.3-3.77-6.12-7.74-7.55
				c-0.78-0.28-1.18-1.14-0.9-1.92c0.28-0.78,1.14-1.18,1.92-0.9c4.9,1.76,8.49,5.35,9.62,9.6c0.21,0.8-0.26,1.62-1.07,1.83
				C283.9,524.48,283.77,524.5,283.64,524.5z M250.78,520.38c-0.51,0-1-0.26-1.29-0.73c-0.43-0.71-0.2-1.63,0.51-2.06
				c3.66-2.21,7.74-3.86,12.12-4.92c0.8-0.19,1.62,0.3,1.81,1.11c0.19,0.8-0.3,1.62-1.11,1.81c-4.08,0.99-7.88,2.52-11.27,4.57
				C251.31,520.31,251.04,520.38,250.78,520.38z M237.15,519.7c-0.59,0-1.15-0.35-1.39-0.92c-1.63-3.92-2.72-8.18-3.24-12.65
				c-0.09-0.82,0.5-1.57,1.32-1.66c0.82-0.09,1.57,0.5,1.66,1.32c0.48,4.19,1.5,8.18,3.02,11.84c0.32,0.77-0.04,1.64-0.81,1.96
				C237.54,519.66,237.35,519.7,237.15,519.7z M234.15,494.81c-0.07,0-0.13,0-0.2-0.01c-0.82-0.11-1.4-0.86-1.29-1.69
				c0.57-4.29,1.66-8.53,3.23-12.6c0.3-0.77,1.17-1.16,1.94-0.86c0.77,0.3,1.16,1.17,0.86,1.94c-1.49,3.85-2.51,7.85-3.05,11.91
				C235.54,494.26,234.89,494.81,234.15,494.81z M243.19,471.36c-0.29,0-0.59-0.08-0.85-0.26c-0.68-0.47-0.86-1.4-0.39-2.08
				c2.41-3.53,5.26-6.84,8.47-9.84c0.6-0.57,1.55-0.54,2.12,0.07c0.57,0.61,0.53,1.55-0.07,2.12c-3.05,2.85-5.75,5.99-8.04,9.34
				C244.14,471.13,243.67,471.36,243.19,471.36z M261.51,454.1c-0.5,0-0.99-0.25-1.28-0.71c-0.44-0.7-0.22-1.63,0.49-2.07
				c3.55-2.2,7.43-4.16,11.52-5.83c0.77-0.31,1.64,0.06,1.96,0.82c0.31,0.77-0.06,1.64-0.82,1.96c-3.94,1.6-7.67,3.48-11.08,5.6
				C262.05,454.03,261.78,454.1,261.51,454.1z"/><path fill="#a487d9" d="M290.27,624.98c-2.06,0-4.1-0.09-6.08-0.27c-0.83-0.08-1.43-0.8-1.36-1.63c0.07-0.83,0.82-1.43,1.63-1.36
				c2.06,0.19,4.19,0.26,6.35,0.26c0,0,0.01,0,0.01,0c0.82,0,1.49,0.66,1.5,1.49c0.01,0.83-0.66,1.5-1.49,1.51
				C290.64,624.98,290.46,624.98,290.27,624.98z"/></g><path fill="#ff639f" d="M565.75,61.64c-1.67-0.5-2.98-1.81-3.48-3.48l-2.17-7.21l-2.17,7.21c-0.5,1.67-1.81,2.98-3.48,3.48
		l-7.21,2.17l7.21,2.17c1.67,0.5,2.98,1.81,3.48,3.48l2.17,7.21l2.17-7.21c0.5-1.67,1.81-2.98,3.48-3.48l7.21-2.17L565.75,61.64z"/><path fill="#e04531" d="M280.96,826.79c-1.67-0.5-2.98-1.81-3.48-3.48l-2.17-7.21l-2.17,7.21c-0.5,1.67-1.81,2.98-3.48,3.48
		l-7.21,2.17l7.21,2.17c1.67,0.5,2.98,1.81,3.48,3.48l2.17,7.21l2.17-7.21c0.5-1.67,1.81-2.98,3.48-3.48l7.21-2.17L280.96,826.79z"/><path fill="#ffb300" d="M1096.36,394.99c-1.67-0.5-2.98-1.81-3.48-3.48l-2.17-7.21l-2.17,7.21c-0.5,1.67-1.81,2.98-3.48,3.48
		l-7.21,2.17l7.21,2.17c1.67,0.5,2.98,1.81,3.48,3.48l2.17,7.21l2.17-7.21c0.5-1.67,1.81-2.98,3.48-3.48l7.21-2.17L1096.36,394.99z"/><path fill="#92a838" d="M944.77,148.34c-2.6-0.78-4.63-2.82-5.41-5.41l-3.38-11.22l-3.38,11.22c-0.78,2.6-2.82,4.63-5.41,5.41
		l-11.22,3.38l11.22,3.38c2.6,0.78,4.63,2.82,5.41,5.41l3.38,11.22l3.38-11.22c0.78-2.6,2.82-4.63,5.41-5.41l11.22-3.38
		L944.77,148.34z"/><path fill="#e04531" d="M860.25,710.06c-2.6-0.78-4.63-2.82-5.41-5.41l-3.38-11.22l-3.38,11.22c-0.78,2.6-2.82,4.63-5.41,5.41
		l-11.22,3.38l11.22,3.38c2.6,0.78,4.63,2.82,5.41,5.41l3.38,11.22l3.38-11.22c0.78-2.6,2.82-4.63,5.41-5.41l11.22-3.38
		L860.25,710.06z"/><path fill="#6c39a8" d="M246.76,294.08c-2.6-0.78-4.63-2.82-5.41-5.41l-3.38-11.22l-3.38,11.22c-0.78,2.6-2.82,4.63-5.41,5.41
		l-11.22,3.38l11.22,3.38c2.6,0.78,4.63,2.82,5.41,5.41l3.38,11.22l3.38-11.22c0.78-2.6,2.82-4.63,5.41-5.41l11.22-3.38
		L246.76,294.08z"/><g><path fill="#e04531" d="M774.82,799.1c-12.42,0-21.17,15.99-6.77,28.45h89.48v5.62H623.6c-3.34,0-6.05-2.71-6.05-6.05v-27.59
						c0-3.34,2.71-6.05,6.05-6.05h233.93v5.62H774.82z"/><path fill="#ddc7d1" d="M773.88,799.14c0.31-0.02,0.62-0.03,0.94-0.03h82.71v-5.62h-77.34
						C777.56,794.69,775.36,796.67,773.88,799.14z"/><path fill="#ddc7d1" d="M766.66,826.27H653.63c-13.7,0-24.81-11.11-24.81-24.81v-7.98h-5.22c-3.34,0-6.05,2.71-6.05,6.05v27.59
						c0,3.34,2.71,6.05,6.05,6.05h233.93v-5.62h-89.48C767.56,827.14,767.1,826.71,766.66,826.27z"/><path fill="#fff" d="M857.53,799.1v28.45H727.51c-7.85,0-14.23-6.37-14.23-14.22c0-7.85,6.39-14.23,14.23-14.23H857.53z"/><path fill="#ed6b64" d="M713.28,813.34c0,7.85,6.39,14.22,14.23,14.22h130.02v5.62H727.51c-10.95,0-19.85-8.9-19.85-19.84
							c0-10.95,8.9-19.85,19.85-19.85h130.02v5.62H727.51C719.66,799.1,713.28,805.49,713.28,813.34z"/><rect width="5.33" height="39.7" x="659.81" y="793.48" fill="#ed6b64"/><rect width="5.33" height="39.7" x="646.49" y="793.48" fill="#ed6b64"/><circle cx="688.21" cy="815.46" r="11.54" fill="#ed6b64"/><path fill="#e6e8f0" d="M797.77,804.85h-66.29c-0.9,0-1.63-0.48-1.63-1.07l0,0c0-0.59,0.73-1.07,1.63-1.07h66.29
						c0.9,0,1.63,0.48,1.63,1.07l0,0C799.4,804.37,798.67,804.85,797.77,804.85z"/><path fill="#e6e8f0" d="M845.4,825.13h-75.22c-0.9,0-1.63-0.48-1.63-1.07l0,0c0-0.59,0.73-1.07,1.63-1.07h75.22
						c0.9,0,1.63,0.48,1.63,1.07l0,0C847.03,824.65,846.3,825.13,845.4,825.13z"/><path fill="#e6e8f0" d="M797.77,815.21h-41.27c-0.9,0-1.63-0.48-1.63-1.07l0,0c0-0.59,0.73-1.07,1.63-1.07h41.27
						c0.9,0,1.63,0.48,1.63,1.07l0,0C799.4,814.73,798.67,815.21,797.77,815.21z"/><path fill="#e6e8f0" d="M748.38,815.21h-17.65c-0.9,0-1.63-0.48-1.63-1.07l0,0c0-0.59,0.73-1.07,1.63-1.07h17.65
						c0.9,0,1.63,0.48,1.63,1.07l0,0C750.01,814.73,749.28,815.21,748.38,815.21z"/><path fill="#e6e8f0" d="M838.25,815.21H820.6c-0.9,0-1.63-0.48-1.63-1.07l0,0c0-0.59,0.73-1.07,1.63-1.07h17.65
						c0.9,0,1.63,0.48,1.63,1.07l0,0C839.87,814.73,839.14,815.21,838.25,815.21z"/><path fill="#e6e8f0" d="M826.19,805.91h-5.59c-0.9,0-1.63-0.48-1.63-1.07l0,0c0-0.59,0.73-1.07,1.63-1.07h5.59
						c0.9,0,1.63,0.48,1.63,1.07l0,0C827.82,805.43,827.09,805.91,826.19,805.91z"/><path fill="#e6e8f0" d="M761.59,825.13h-5.59c-0.9,0-1.63-0.48-1.63-1.07l0,0c0-0.59,0.73-1.07,1.63-1.07h5.59
						c0.9,0,1.63,0.48,1.63,1.07l0,0C763.21,824.65,762.49,825.13,761.59,825.13z"/><path fill="#e6e8f0" d="M854.25,815.21h-5.59c-0.9,0-1.63-0.48-1.63-1.07l0,0c0-0.59,0.73-1.07,1.63-1.07h5.59
						c0.9,0,1.63,0.48,1.63,1.07l0,0C855.88,814.73,855.15,815.21,854.25,815.21z"/><polygon fill="#e04531" points="820.9 809.29 820.9 821.64 827.19 817.27 833.47 821.64 833.47 809.29"/><path fill="#ffb300" d="M820.45,832.68H596.67c-2.98,0-5.39,2.68-5.39,5.99v36.89c0,3.31,2.41,5.99,5.39,5.99h223.79
					c2.98,0,5.39-2.68,5.39-5.99v-36.89C825.84,835.36,823.43,832.68,820.45,832.68z"/><path fill="#ead8bb" d="M820.45,832.68h-2.81v12.15c0,16.22-11.84,29.36-26.44,29.36H591.28v1.36c0,3.31,2.41,5.99,5.39,5.99
					h223.79c2.98,0,5.39-2.68,5.39-5.99v-36.89C825.84,835.36,823.43,832.68,820.45,832.68z"/><rect width="10.87" height="48.86" x="759.52" y="832.68" fill="#fff"/><rect width="10.87" height="48.86" x="780.94" y="832.68" fill="#fff"/><g><path fill="#6c39a8" d="M736.34,749.48H579.93c-2.08,0-3.77,2.41-3.77,5.39v33.22c0,2.98,1.69,5.39,3.77,5.39h156.41
					c2.08,0,3.77-2.41,3.77-5.39v-33.22C740.11,751.89,738.42,749.48,736.34,749.48z"/><path fill="#d2cae5" d="M736.34,749.48h-1.96v10.94c0,14.6-8.27,26.44-18.48,26.44H576.16v1.23c0,2.98,1.69,5.39,3.77,5.39h156.41
					c2.08,0,3.77-2.41,3.77-5.39v-33.22C740.11,751.89,738.42,749.48,736.34,749.48z"/><rect width="10.06" height="44" x="598.93" y="749.48" fill="#9062d3"/><rect width="10.06" height="44" x="614.76" y="749.48" fill="#9062d3"/><path fill="#9062d3" d="M636.11,771.48c0-6.32,5.41-11.44,12.08-11.44c6.67,0,12.08,5.12,12.08,11.44
						c0,6.32-5.41,11.44-12.08,11.44C641.52,782.93,636.11,777.8,636.11,771.48z"/></g></g><g><path fill="#fff" d="M447.25,138.14c-0.57-0.46-1.39-0.45-1.95,0.04l-8.4,7.3l-59.86,74.32l-3.39-2.73
			c-0.73-0.59-1.88-0.38-2.55,0.46l-1.93,2.4l-0.12-0.1c-1.22-0.99-3.14-0.64-4.27,0.77l0,0c-1.06,1.31-1.05,3.07-0.06,4.11
			c-2.1,8.8-11.81,14.26-11.8,14.26c-11.2,7.82-20.05,18.39-25.77,30.74c-0.81,1.75-0.51,3.88,0.78,5.46
			c3.17,3.88,7.09,6.83,11.51,9.16c1.85,0.98,4.05,0.85,5.62-0.34c10.81-8.21,21-22.21,24.46-31.66
			c2.41-6.59,5.13-11.81,11.48-14.62c1.18,0.47,2.68,0.05,3.63-1.13h0c1.12-1.39,1.06-3.29-0.11-4.28l1.94-2.4
			c0.68-0.84,0.64-2-0.1-2.59l-3.92-3.16l59.86-74.32l5.34-9.76C447.98,139.41,447.82,138.61,447.25,138.14z"/><path fill="#fff" d="M369.54,137.51l-14.89-4.53c-0.48-0.15-1-0.02-1.37,0.32l-4.92,4.61l7.84,8.37
						c6.18,6.6,5.85,16.97-0.75,23.15c-6.6,6.18-16.97,5.85-23.15-0.76l-7.84-8.37l-4.92,4.61c-0.37,0.34-0.52,0.85-0.41,1.34
						l3.51,15.1c0.11,0.49,0.48,0.88,0.96,1.03l29.55,9c0.48,0.15,1,0.03,1.37-0.32l5.14-4.81l93.12,96.04
						c3.19,3.4,8.53,3.57,11.92,0.39c3.4-3.19,3.58-8.52,0.39-11.92l-93.11-96.03l5.1-4.77c0.37-0.34,0.52-0.86,0.41-1.34
						l-6.98-30.09C370.38,138.05,370.02,137.66,369.54,137.51z M460.94,278.69c-1.55,1.45-4,1.38-5.46-0.18
						c-1.45-1.55-1.37-4.01,0.18-5.46c1.56-1.46,4.01-1.37,5.46,0.18C462.58,274.79,462.5,277.22,460.94,278.69z"/></g></svg>