<svg xmlns="http://www.w3.org/2000/svg" enable-background="new 0 0 4000 5000" viewBox="0 0 4000 5000"><path fill="#404678" d="M2459.918,4429.676H724.752c-92.893,0-168.198-75.305-168.198-168.198V650.175
				c0-92.893,75.305-168.198,168.198-168.198h1735.167c92.893,0,168.198,75.305,168.198,168.198v3611.303
				C2628.116,4354.371,2552.812,4429.676,2459.918,4429.676z"/><path fill="#e0f1f6" d="M2400.741,4326.235H783.93c-77.108,0-139.617-62.509-139.617-139.617V725.035
					c0-77.108,62.509-139.617,139.617-139.617h1616.811c77.109,0,139.617,62.509,139.617,139.617v3461.583
					C2540.358,4263.727,2477.849,4326.235,2400.741,4326.235z"/><path fill="#ccecf6" d="M2400.743,585.418H783.927c-77.105,0-139.614,62.509-139.614,139.619v148.433h1896.044V725.037
						C2540.357,647.927,2477.848,585.418,2400.743,585.418z"/><path fill="#fff" d="M885.265,842.924c-4.607,0-9.25-1.459-13.192-4.475l-111.713-85.477
						c-5.375-4.113-8.528-10.495-8.528-17.263s3.152-13.15,8.528-17.263l111.713-85.477c9.535-7.295,23.177-5.479,30.471,4.054
						c7.295,9.534,5.48,23.176-4.054,30.471l-89.152,68.214l89.152,68.214c9.534,7.295,11.35,20.938,4.054,30.471
						C898.265,839.987,891.802,842.924,885.265,842.924z"/><path fill="#fff" d="M2300.946,842.924c-6.537,0-12.999-2.937-17.278-8.529c-7.295-9.534-5.48-23.176,4.054-30.471
						l89.151-68.214l-89.151-68.214c-9.534-7.295-11.349-20.938-4.054-30.471c7.293-9.535,20.936-11.349,30.472-4.054
						l111.713,85.477c5.375,4.113,8.527,10.495,8.527,17.263s-3.152,13.15-8.527,17.263l-111.713,85.477
						C2310.198,841.464,2305.554,842.924,2300.946,842.924z"/><path fill="#fff" d="M2400.741,4332.004H783.93c-80.166,0-145.386-65.22-145.386-145.386V725.035
					c0-80.166,65.22-145.386,145.386-145.386h1616.812c80.166,0,145.386,65.22,145.386,145.386v3461.583
					C2546.127,4266.784,2480.907,4332.004,2400.741,4332.004z M783.93,591.187c-73.804,0-133.849,60.044-133.849,133.849v3461.583
					c0,73.805,60.044,133.849,133.849,133.849h1616.812c73.805,0,133.849-60.044,133.849-133.849V725.035
					c0-73.805-60.044-133.849-133.849-133.849H783.93z"/><path fill="#404678" d="M1955.736,658.696h-726.802c-47.377,0-85.784-38.407-85.784-85.784v-23.21h898.37v23.21
					C2041.52,620.289,2003.113,658.696,1955.736,658.696z"/><path fill="#6c9c65" d="M1907.737,1620.331h-525.839c-36.589,0-66.25-29.661-66.25-66.25v-525.839
					c0-36.589,29.661-66.25,66.25-66.25h525.839c36.589,0,66.25,29.661,66.25,66.25v525.839
					C1973.987,1590.67,1944.326,1620.331,1907.737,1620.331z"/><path fill="#82b37b" d="M1824.243,1620.331h-525.839c-36.589,0-66.25-29.661-66.25-66.25v-525.839
					c0-36.589,29.661-66.25,66.25-66.25h525.839c36.589,0,66.25,29.661,66.25,66.25v525.839
					C1890.493,1590.67,1860.832,1620.331,1824.243,1620.331z"/><path fill="#fff" d="M1692.861,1311.789c-8.757-13.747-19.824-24.463-33.219-32.148
				c-5.963-3.417-12.02-6.348-18.16-8.846c14.06-6.814,24.849-16.002,32.359-27.588c8.213-12.675,12.323-27.41,12.323-44.204
				c0-31.428-8.397-55.187-25.183-71.261c-16.793-16.074-42.328-24.111-76.619-24.111h-135.021c-9.293,0-17.062,3.131-23.307,9.376
				c-6.254,6.254-9.376,14.023-9.376,23.307v309.69c0,9.293,3.123,17.062,9.376,23.307c6.245,6.254,14.014,9.376,23.307,9.376
				h133.413c13.211,0,26.966-1.515,41.256-4.554c14.283-3.031,27.677-8.656,40.185-16.878c12.499-8.213,22.587-19.824,30.273-34.827
				c7.677-15.002,11.519-34.291,11.519-57.866C1705.988,1343.133,1701.61,1325.544,1692.861,1311.789z M1604.99,1177.304
				c7.677,6.965,11.52,18.134,11.52,33.488c0,12.859-4.111,22.687-12.323,29.469c-8.221,6.79-17.505,10.18-27.861,10.18h-90.014
				v-83.584h88.406C1587.217,1166.856,1597.305,1170.339,1604.99,1177.304z M1621.868,1403.947
				c-9.645,8.757-22.688,13.127-39.113,13.127h-96.443v-103.409h92.693c7.501,0,15.714,0.896,24.646,2.679
				c8.925,1.792,16.61,6.254,23.039,13.395c6.43,7.149,9.645,18.753,9.645,34.827
				C1636.335,1382.071,1631.512,1395.198,1621.868,1403.947z"/><path fill="#9775ef" d="M1735.24,2278.67h-525.839c-36.589,0-66.25-29.661-66.25-66.25v-525.839
					c0-36.589,29.661-66.25,66.25-66.25h525.839c36.589,0,66.25,29.661,66.25,66.25v525.839
					C1801.49,2249.009,1771.828,2278.67,1735.24,2278.67z"/><path fill="#ad94ef" d="M1818.734,2278.67h-525.839c-36.589,0-66.25-29.661-66.25-66.25v-525.839
					c0-36.589,29.661-66.25,66.25-66.25h525.839c36.589,0,66.25,29.661,66.25,66.25v525.839
					C1884.984,2249.009,1855.323,2278.67,1818.734,2278.67z"/><path fill="#fff" d="M1709.899,2104.28c-1.967-8.749-6.881-15.446-14.734-20.093c-4.646-2.495-7.769-6.07-9.376-10.716
				c-1.607-4.638-2.679-10.356-3.215-17.146c-0.536-6.781-1.523-14.642-2.947-23.575c-0.72-9.645-2.947-18.661-6.697-27.058
				c-3.751-8.389-8.933-16.25-15.538-23.575c-4.213-4.661-9.118-8.923-14.704-12.792c7.585-4.919,14.638-10.906,21.133-18.016
				c9.46-10.356,16.961-21.968,22.504-34.827c5.534-12.859,8.305-26.07,8.305-39.649c0-22.504-5.006-42.412-15.002-59.741
				c-10.004-17.321-23.131-30.892-39.381-40.72c-16.258-9.82-33.671-14.734-52.24-14.734h-154.309
				c-9.293,0-17.062,3.131-23.307,9.376c-6.254,6.254-9.376,14.023-9.376,23.307v309.69c0,9.293,3.927,17.062,11.788,23.307
				c7.852,6.254,16.786,9.376,26.79,9.376c8.924,0,15.89-3.123,20.896-9.376c4.998-6.245,7.502-14.014,7.502-23.307v-103.944
				h100.194c8.213,0,15.354,0.988,21.432,2.947c6.07,1.968,11.068,4.822,15.002,8.573c3.927,3.75,6.966,8.221,9.109,13.395
				c2.143,5.182,3.214,10.808,3.214,16.878c0,18.577,1.875,33.755,5.626,45.542c3.751,11.787,8.656,21.164,14.734,28.13
				c6.069,6.965,12.139,12.239,18.217,15.806c3.927,2.143,8.925,3.843,15.002,5.09c6.07,1.248,12.139,1.248,18.217,0
				c6.069-1.247,11.068-4.194,15.003-8.841C1709.807,2120.806,1711.858,2113.037,1709.899,2104.28z M1619.081,1911.929
				c-3.935,10.18-8.933,18.218-15.002,24.111c-6.078,5.894-12.323,8.841-18.753,8.841h-117.339v-121.626h117.339
				c9.645,0,18.661,5.274,27.058,15.806c8.389,10.54,12.591,23.667,12.591,39.381
				C1624.975,1890.589,1623.008,1901.749,1619.081,1911.929z"/><g><path fill="#f5a23b" d="M1928.014,2937.01h-525.839c-36.589,0-66.25-29.661-66.25-66.25v-525.839
					c0-36.589,29.661-66.25,66.25-66.25h525.839c36.589,0,66.25,29.661,66.25,66.25v525.839
					C1994.264,2907.349,1964.603,2937.01,1928.014,2937.01z"/><path fill="#ffb860" d="M1844.52,2937.01h-525.839c-36.589,0-66.25-29.661-66.25-66.25v-525.839
					c0-36.589,29.661-66.25,66.25-66.25h525.839c36.589,0,66.25,29.661,66.25,66.25v525.839
					C1910.77,2907.349,1881.109,2937.01,1844.52,2937.01z"/><path fill="#fff" d="M1744.75,2753.39l-131.806-313.977c-2.503-6.781-6.521-12.056-12.055-15.806
				c-5.542-3.751-11.52-5.625-17.949-5.625c-6.79-0.712-13.127,0.896-19.021,4.822c-5.894,3.934-10.272,9.469-13.127,16.61
				l-133.413,320.407c-1.071,3.575-1.607,6.965-1.607,10.18c0,7.861,2.319,14.467,6.965,19.825
				c4.638,5.357,11.787,8.037,21.432,8.037c6.07,0,11.695-1.876,16.877-5.627c5.174-3.75,9.016-9.016,11.52-15.805l27.794-65.368
				h159.774l27.822,64.831c2.855,6.789,6.873,12.148,12.056,16.074c5.174,3.927,10.984,5.894,17.413,5.894
				c7.502,0,14.374-2.855,20.628-8.573c6.246-5.71,9.377-13.395,9.377-23.04C1747.429,2762.324,1746.533,2758.037,1744.75,2753.39z
				 M1526.559,2649.446l53.319-125.398l53.814,125.398H1526.559z"/></g><g><path fill="#ba52b1" d="M1942.622,3595.349h-525.839c-36.589,0-66.25-29.661-66.25-66.25V3003.26
					c0-36.589,29.661-66.25,66.25-66.25h525.839c36.589,0,66.25,29.661,66.25,66.25v525.839
					C2008.873,3565.688,1979.211,3595.349,1942.622,3595.349z"/><path fill="#cc65c3" d="M2026.117,3595.349h-525.839c-36.589,0-66.25-29.661-66.25-66.25V3003.26
					c0-36.589,29.661-66.25,66.25-66.25h525.839c36.589,0,66.25,29.661,66.25,66.25v525.839
					C2092.367,3565.688,2062.706,3595.349,2026.117,3595.349z"/><path fill="#fff" d="M1911.881,3087.224c-5.359-5.709-12.324-8.573-20.897-8.573c-8.932,0-16.073,2.864-21.432,8.573
				c-5.357,5.718-8.037,12.859-8.037,21.432v230.562l-195.03-248.779c-2.503-3.925-6.429-6.873-11.787-8.84
				c-5.358-1.959-10.54-2.948-15.538-2.948c-9.293,0-17.062,3.131-23.307,9.377c-6.254,6.253-9.376,14.022-9.376,23.307v312.369
				c0,8.573,2.679,15.723,8.037,21.432c5.358,5.718,12.324,8.573,20.896,8.573c8.925,0,16.157-2.855,21.7-8.573
				c5.534-5.709,8.305-12.859,8.305-21.432v-228.778l196.637,249.675c2.495,2.863,6.161,5.089,10.984,6.697
				c4.822,1.608,9.552,2.411,14.199,2.411c9.285,0,17.054-3.123,23.308-9.376c6.245-6.245,9.376-14.015,9.376-23.307v-312.37
				C1919.918,3100.083,1917.239,3092.942,1911.881,3087.224z"/></g><g><path fill="#62a2fc" d="M1886.267,4253.689h-525.839c-36.589,0-66.25-29.661-66.25-66.25V3661.6
					c0-36.589,29.661-66.25,66.25-66.25h525.839c36.589,0,66.25,29.661,66.25,66.25v525.839
					C1952.517,4224.028,1922.856,4253.689,1886.267,4253.689z"/><path fill="#83b5fc" d="M1802.773,4253.689h-525.839c-36.589,0-66.25-29.661-66.25-66.25V3661.6
					c0-36.589,29.661-66.25,66.25-66.25h525.839c36.589,0,66.25,29.661,66.25,66.25v525.839
					C1869.023,4224.028,1839.362,4253.689,1802.773,4253.689z"/><path fill="#fff" d="M1690.144,3851.919c-6.966-22.679-17.33-42.679-31.077-60.009
				c-13.755-17.322-30.633-30.808-50.633-40.453c-20.009-9.645-42.864-14.467-68.582-14.467h-128.055
				c-9.293,0-17.062,3.131-23.307,9.377c-6.254,6.253-9.376,14.022-9.376,23.307v309.69c0,9.292,3.123,17.062,9.376,23.307
				c6.245,6.253,14.014,9.376,23.307,9.376h128.055c34.643,0,63.844-8.388,87.603-25.183c23.751-16.785,41.875-39.38,54.383-67.778
				c12.499-28.397,18.753-59.918,18.753-94.568C1700.592,3898.801,1697.11,3874.607,1690.144,3851.919z M1621.026,3986.94
				c-6.614,19.113-17.062,34.475-31.344,46.078c-14.291,11.612-32.684,17.413-55.187,17.413h-88.406v-251.825h88.406
				c16.786,0,31.252,3.399,43.4,10.181c12.139,6.789,22.143,15.99,30.004,27.593c7.853,11.612,13.663,25.007,17.413,40.185
				c3.751,15.187,5.626,31.169,5.626,47.954C1630.939,3947.023,1627.632,3967.836,1621.026,3986.94z"/></g><g><path fill="#f6af9a" d="M3040.918,2473.487c0,0-165.37-10.646-182.151,196.687
					c-16.781,207.332,11.309,879.147,36.312,954.987c25.003,75.841,195.259,120.68,230.159-32.657
					c35.025-153.883,112.755-657.774,120.26-852.003C3253.482,2533.893,3168.743,2478.642,3040.918,2473.487z"/><path fill="#9e5959" d="M3029.836,2447.805c0,0-182.542-0.852-192.013,201.393
					c-9.471,202.245,15.036,816.351,23.112,946.033s125.776,130.496,155.806,125.208c30.03-5.288,118.186-26.822,144.029-172.589
					c25.843-145.768,97.723-740.253,103.235-826.565C3269.516,2634.974,3268.866,2432.298,3029.836,2447.805z"/><path fill="#f6af9a" d="M2887.821,3587.749c0,0,112.437,804.198,129.141,853.353
					c16.705,49.155,92.993,69.345,110.05-18.548c17.057-87.892,32.158-380.574,40.677-480.654
					c17.805-209.161-11.282-339.703-32.343-409.734C3105.236,3432.046,2880.206,3382.43,2887.821,3587.749z"/><path fill="#9e5959" d="M2969.393,3432.885c0,0-123.042,12.85-106.604,172.957
						c16.438,160.106,116.346,706.863,116.346,706.863s90.063,30.443,194.082,0c0,0,24.036-447.762,14.993-589.266
						s-22.812-201.834-22.812-201.834S3119.014,3401.603,2969.393,3432.885z"/><path fill="#8f4c4c" d="M3078.875,4277.682c-41.746,0-75.459-6.448-75.964-6.547c-1.562-0.306-2.582-1.82-2.277-3.384
						c0.307-1.564,1.824-2.578,3.384-2.278c0.748,0.146,75.506,14.429,139.661,0.017c1.544-0.347,3.097,0.627,3.446,2.183
						c0.349,1.554-0.628,3.097-2.183,3.446C3123.031,4276.041,3099.931,4277.682,3078.875,4277.682z"/><path fill="#f6af9a" d="M3007.404,4395.444c0,0,6.679,64.177-48.934,76.598c-55.613,12.42-196.224,46.739-215.731,74.671
					c-19.508,27.933,30.752,53.208,79.365,60.501c48.612,7.293,156.604-4.325,230.396-4.513
					c73.792-0.188,95.563-13.087,102.436-32.483c12.032-33.956-30.787-99.725-26.693-155.398
					C3134.955,4323.542,3009.708,4296.019,3007.404,4395.444z"/><path fill="#e8e8e8" d="M2721.318,4540.393c0,0,31.052-17.941,52.444-24.842c21.391-6.9,191.143-62.061,203.564-66.568
						c12.421-4.507,11.28-27.807,20.011-30.039s13.735-1.38,23.083,2.76c9.349,4.14,15.559,32.432,15.559,42.093
						c0,9.661-0.69,13.289,3.45,15.271c4.14,1.981,70.088-13.89,78.172-20.791c8.084-6.9,13.417-15.417,13.417-15.417
						s7.777-2.525,9.157,2.996s3.45,22.24,3.45,22.24s24.842,68.556,26.912,119.419c0,10.841-111.098,19.134-142.15,20.508
						c-31.052,1.374-103.442,4.134-134.182,6.894c-30.74,2.76-112.855-2.76-134.937-13.111
						C2737.189,4591.457,2699.926,4565.235,2721.318,4540.393z"/><path fill="#d6d6d6" d="M2827.298,4532.711c-2.592,0-3.976-0.124-4.173-0.143c-1.585-0.154-2.746-1.564-2.592-3.15
						c0.155-1.585,1.569-2.735,3.15-2.592c0.169,0.015,18.012,1.539,53.498-7.834c36.173-9.556,151.386-38.278,152.546-38.567
						c1.543-0.389,3.111,0.556,3.496,2.102c0.385,1.545-0.556,3.11-2.102,3.496c-1.159,0.289-116.333,29.002-152.468,38.548
						C2851.584,4531.721,2834.62,4532.711,2827.298,4532.711z"/><path fill="#d6d6d6" d="M3038.007,4493.082c-1.55,0-2.83-1.231-2.881-2.791c-0.052-1.593,1.197-2.925,2.789-2.977
						c0.683-0.022,68.495-2.434,96.442-21.73c1.312-0.907,3.107-0.576,4.012,0.734c0.905,1.311,0.577,3.107-0.734,4.012
						c-29.343,20.261-96.681,22.658-99.533,22.75C3038.07,4493.081,3038.038,4493.082,3038.007,4493.082z"/><path fill="#9e5959" d="M2721.318,4540.393c0,0-26.452,23.921,13.111,57.274c14.922,12.58,44.853,24.152,84.876,27.602
						c40.023,3.45,143.53-6.901,169.752-4.831c26.222,2.07,181.278-2.748,191.731-12.415c4.933-3.457,0.792-14.788-10.248-20.508
						c0,0-81.426,11.531-136.629,12.221c-55.204,0.69-144.676,6.833-177.688,5.175c-75.56-3.795-104.842-16.737-122.138-34.158
						C2723.813,4560.41,2729.496,4534.881,2721.318,4540.393z"/><path fill="#f6af9a" d="M2864.254,2330.031c0,0,5.449,112.457,7.235,179.806s-15.542,230.773,161.494,333.841
				c159.626,92.931,318.74,9.802,350.353-33.564c48.401-66.396,55.541-162.704,36.98-261.334
				c-18.561-98.63-61.932-196.654-47.612-358.88C3387.024,2027.673,2845.07,2032.576,2864.254,2330.031z"/><path fill="#9e5959" d="M2863.756,2374.344c0,0-27.417,193.959-23.691,249.219
					c3.726,55.26,107.675,205.76,212.039,251.763s276.428,33.122,338.526-47.843s63.683-178.452,63.683-178.452
					s-13.863-113.691-36.845-193.204c-22.983-79.512-42.025-110.458-42.025-110.458S3062.36,2392.278,2863.756,2374.344z"/><path fill="#8f4c4c" d="M3034.192,2758.659c-0.653,0-1.311-0.222-1.852-0.675l-85.661-71.822
					c-1.221-1.023-1.38-2.843-0.356-4.063c1.023-1.219,2.84-1.381,4.063-0.356l85.661,71.822c1.221,1.023,1.38,2.843,0.356,4.063
					C3035.834,2758.308,3035.017,2758.659,3034.192,2758.659z"/><path fill="#f6af9a" d="M3219.511,2502.43c0,0-165.712,0.189-168.902,208.175
					c-3.19,207.986,68.763,876.526,98.671,950.57c29.908,74.043,202.731,107.656,227.532-47.635
					c24.889-155.844,69.509-663.739,64.299-858.043C3435.569,2548.81,3347.399,2499.218,3219.511,2502.43z"/><path fill="#9e5959" d="M3207.991,2473.394c0,0-182.161,11.824-177.566,214.239
						c4.594,202.414,71.679,813.337,88.74,942.146c17.061,128.809,134.533,121.448,164.123,114.088s116.038-34.962,131.698-182.173
						c15.66-147.21,46.091-745.252,45.596-831.738S3445.368,2441.329,3207.991,2473.394z"/><path fill="#8f4c4c" d="M3119.161,3632.663c-1.425,0-2.663-1.056-2.855-2.506
							c-15.187-114.66-73.812-673.975-88.271-925.784c-0.091-1.59,1.124-2.953,2.715-3.045c1.574-0.085,2.953,1.124,3.045,2.715
							c14.451,251.691,73.051,810.749,88.23,925.356c0.209,1.579-0.901,3.029-2.48,3.238
							C3119.415,3632.654,3119.287,3632.663,3119.161,3632.663z"/><path fill="#8f4c4c" d="M3381.336,2773.323c-0.188,0-0.379-0.019-0.57-0.057c-28.705-5.759-56.078-18.98-81.359-39.3
							c-20.15-16.195-39.02-36.91-56.086-61.569c-29.007-41.914-42.975-81.346-43.112-81.739c-0.526-1.504,0.267-3.148,1.77-3.675
							c1.502-0.528,3.147,0.264,3.676,1.769c0.135,0.387,13.896,39.197,42.494,80.483c26.256,37.905,70.773,85.741,133.753,98.375
							c1.562,0.313,2.574,1.834,2.261,3.396C3383.886,2772.376,3382.682,2773.323,3381.336,2773.323z"/><path fill="#8f4c4c" d="M3363.999,3415.701c-0.02,0-0.04-0.001-0.06-0.001c-1.593-0.032-2.857-1.351-2.825-2.943
							c0.06-2.891,6.056-291.656,17.338-511.149c5.881-114.413-4.313-207.525-13.901-265.489
							c-10.376-62.733-22.266-98.821-22.384-99.178c-0.504-1.512,0.314-3.145,1.825-3.647c1.514-0.505,3.145,0.314,3.647,1.825
							c0.121,0.361,12.153,36.882,22.603,100.059c9.635,58.245,19.879,151.799,13.972,266.728
							c-11.278,219.402-17.272,508.081-17.332,510.972C3366.85,3414.448,3365.564,3415.701,3363.999,3415.701z"/><path fill="#f6af9a" d="M3139.098,3607.986c0,0,123.805,802.527,141.204,851.441
					c17.399,48.914,93.965,68.021,109.776-20.103c15.811-88.125,26.769-380.992,33.871-481.182
					c14.843-209.392-16.088-339.51-38.138-409.235C3354.288,3449.222,3128.579,3402.794,3139.098,3607.986z"/><path fill="#9e5959" d="M3222.712,3432.885c0,0-123.042,12.85-106.604,172.957
						c16.438,160.106,117.645,719.944,117.645,719.944s90.063,30.443,194.082,0c0,0,22.737-460.843,13.695-602.347
						s-22.812-201.834-22.812-201.834S3372.334,3401.603,3222.712,3432.885z"/><path fill="#8f4c4c" d="M3395.61,4285.909c-0.02,0-0.04-0.001-0.061-0.001c-1.593-0.033-2.856-1.351-2.824-2.943
							c9.018-439.089-31.179-744.535-31.586-747.569c-0.212-1.579,0.896-3.03,2.475-3.242c1.576-0.206,3.03,0.896,3.242,2.475
							c0.408,3.039,40.663,308.927,31.637,748.456C3398.461,4284.656,3397.176,4285.909,3395.61,4285.909z"/><path fill="#8f4c4c" d="M3322.953,4288.466c-39.005,0-75.295-8.096-77.575-8.614c-1.553-0.353-2.525-1.898-2.173-3.451
							s1.896-2.526,3.451-2.174c0.833,0.189,83.702,18.67,132.794,0.114c1.493-0.566,3.154,0.189,3.718,1.679
							c0.563,1.49-0.188,3.154-1.679,3.718C3364.161,4286.286,3343.191,4288.466,3322.953,4288.466z"/><path fill="#8f4c4c" d="M3187.162,4064.115c-1.378,0-2.597-0.991-2.839-2.396
							c-27.462-159.461-62.087-367.942-71.084-455.583c-0.163-1.585,0.99-3.002,2.574-3.164c1.587-0.17,3.002,0.989,3.164,2.574
							c8.981,87.479,43.584,295.821,71.031,455.194c0.271,1.569-0.783,3.062-2.354,3.332
							C3187.49,4064.102,3187.325,4064.115,3187.162,4064.115z"/><g><path fill="#f6af9a" d="M3270.099,4413.907c0,0,7.586,64.076-47.845,77.282
					c-55.432,13.206-195.543,49.511-214.653,77.717c-19.11,28.206,31.502,52.768,80.213,59.372
					c48.71,6.604,156.527-6.541,230.309-7.773c73.782-1.233,95.368-14.438,101.966-33.93
					c11.551-34.123-32.195-99.279-28.889-155.005C3396.62,4340.208,3270.995,4314.46,3270.099,4413.907z"/><path fill="#e8e8e8" d="M2984.185,4562.494c0,0,31.052-17.941,52.444-24.842
						c21.391-6.901,191.143-62.061,203.564-66.568c12.421-4.507,11.28-27.807,20.011-30.039s13.735-1.38,23.084,2.76
						s15.559,32.432,15.559,42.093s-0.69,13.289,3.45,15.27c4.14,1.981,70.088-13.89,78.172-20.79
						c8.084-6.901,13.418-15.417,13.418-15.417s7.777-2.525,9.157,2.996c1.38,5.52,3.45,22.24,3.45,22.24
						s24.842,68.556,26.912,119.42c0,10.841-111.098,19.134-142.15,20.508c-31.052,1.374-103.442,4.134-134.182,6.894
						c-30.74,2.76-112.855-2.76-134.937-13.111S2962.794,4587.335,2984.185,4562.494z"/><path fill="#9e5959" d="M2984.185,4562.494c0,0-26.452,23.921,13.111,57.274c14.922,12.58,44.853,24.151,84.876,27.602
						c40.023,3.451,143.53-6.9,169.752-4.83s181.278-2.748,191.731-12.415c4.933-3.457,0.792-14.788-10.248-20.508
						c0,0-81.426,11.531-136.63,12.221c-55.204,0.69-144.676,6.833-177.687,5.175c-75.56-3.795-104.842-16.736-122.139-34.157
						C2986.681,4582.511,2992.364,4556.982,2984.185,4562.494z"/><path fill="#8f4c4c" d="M2997.293,4622.652c-0.557,0-1.12-0.161-1.615-0.497c-12.182-8.258-17.159-19.188-17.365-19.649
						c-0.649-1.454,0.003-3.16,1.458-3.81c1.454-0.651,3.157,0.003,3.808,1.454c0.08,0.175,4.617,9.963,15.336,17.229
						c1.318,0.894,1.663,2.688,0.77,4.006C2999.126,4622.209,2998.218,4622.652,2997.293,4622.652z"/><path fill="#d6d6d6" d="M2989.179,4562.702c-1.021,0-2.009-0.542-2.533-1.5c-0.765-1.397-0.252-3.15,1.146-3.915
						c1.253-0.686,30.876-16.848,47.949-22.379c16.816-5.447,116.076-37.748,117.077-38.074c1.514-0.491,3.143,0.334,3.636,1.851
						c0.492,1.515-0.336,3.143-1.851,3.636c-1.001,0.325-100.265,32.628-117.085,38.076c-16.562,5.365-46.655,21.786-46.957,21.951
						C2990.121,4562.588,2989.646,4562.702,2989.179,4562.702z"/><path fill="#d6d6d6" d="M3082.859,4554.338c-1.469,0-2.724-1.116-2.868-2.607c-0.153-1.585,1.008-2.995,2.594-3.148
						c0.64-0.062,64.266-6.264,89.941-12.598c25.864-6.38,119.138-30.553,120.077-30.796c1.539-0.398,3.115,0.525,3.516,2.068
						c0.399,1.542-0.526,3.116-2.068,3.516c-0.939,0.243-94.246,24.425-120.144,30.813c-26.083,6.434-88.139,12.483-90.768,12.738
						C3083.046,4554.333,3082.952,4554.338,3082.859,4554.338z"/><path fill="#d6d6d6" d="M3309.885,4516.386c-1.483,0-2.743-1.137-2.871-2.641c-0.135-1.588,1.043-2.983,2.63-3.118
						c55.259-4.686,85.761-18.911,86.062-19.054c1.441-0.684,3.16-0.07,3.842,1.369c0.684,1.438,0.07,3.159-1.369,3.842
						c-1.27,0.604-31.756,14.817-88.047,19.591C3310.049,4516.382,3309.966,4516.386,3309.885,4516.386z"/><path fill="#d6d6d6" d="M3210.62,4618.51c-1.155,0-2.246-0.699-2.689-1.841c-16.654-42.883-39.065-62.848-39.29-63.045
						c-1.197-1.049-1.319-2.87-0.271-4.068c1.048-1.197,2.866-1.323,4.066-0.275c0.958,0.836,23.661,20.982,40.872,65.301
						c0.577,1.484-0.159,3.156-1.645,3.732C3211.32,4618.447,3210.967,4618.51,3210.62,4618.51z"/><path fill="#d6d6d6" d="M3242.95,4612.502c-1.316,0-2.505-0.906-2.81-2.244c-7.99-35.099-39.544-64.675-39.861-64.97
						c-1.168-1.083-1.237-2.908-0.154-4.076c1.083-1.167,2.908-1.237,4.076-0.154c1.352,1.253,33.183,31.101,41.564,67.919
						c0.354,1.554-0.619,3.1-2.172,3.453C3243.378,4612.479,3243.162,4612.502,3242.95,4612.502z"/></g><g><path fill="#f6af9a" d="M2841.42,1679.92c39.088-47.638,109.394-54.568,157.032-15.48
					c39.532,32.438,33.582,86.287,19.687,145.477l-144.586,506.785c-2.876,10.308-7.865,20.209-15.091,29.016
					c-27.74,33.807-74.834,38.168-108.641,10.427c-28.484-23.372-29.824-54.206-24.473-93.865
					c-0.002,0,61.72-380.358,99.049-539.419C2827.267,1712.906,2834.568,1688.27,2841.42,1679.92z"/><path fill="#83b5fc" d="M2948.327,1640.915c0,0-101.192-18.592-133.076,63.747
				c-29.994,77.457-49.06,181.606-57.828,244.129s-33.398,187.904-48.449,263.077c-15.051,75.173-18.219,171.523,67.303,190.583
				s134.308-84.315,149.885-141.595c15.576-57.28,56.297-242.2,83.267-307.102
				C3036.399,1888.852,3096.651,1663.556,2948.327,1640.915z"/></g><g><path fill="#f6af9a" d="M3037.852,1531.611c0,0,3.059,88.374-16.532,128.873c-19.591,40.499,47.479,65.685,91.059,65.3
					c43.58-0.385,120.508-23.669,112.87-76.208c-7.339-50.482-14.491-34.502-12.786-176.46
					C3213.805,1361.383,3025.657,1421.625,3037.852,1531.611z"/><path fill="#ea9a88" d="M3184.189,1470.194c4.597-8.007,10.342-22.686,15.577-38.456
				c-41.842-49.45-172.126,7.766-161.913,99.872c0,0,1.785,51.612-6.116,94.027
				C3120.47,1611.493,3180.096,1477.322,3184.189,1470.194z"/></g><g><path fill="#f6af9a" d="M2850.552,1676.488c-20.782,102.127-13.054,282.332-5.521,378.136
				c6.428,81.751,12.716,248.229,19.807,291.721c7.09,43.492,106.157,84.995,260.212,81.605
				c91.581-2.015,241.772-28.162,253.559-111.108c13.903-97.843,23.164-223.281,35.882-311.902
				c20.976-146.162,35.193-336.043-62.104-367.785c-17.304-5.645-112.044-15.37-218.915-15.37
				C3080.172,1621.785,2860.445,1627.876,2850.552,1676.488z"/><path fill="#fff" d="M2960.034,2564.804c0,0,57.5,78.666,115.006,97.987c57.506,19.322,87.868,41.417,87.868,41.417
					s73.145-74.54,96.607-89.72c23.462-15.181,118.688-51.064,143.53-82.806L2960.034,2564.804z"/><path fill="#fff" d="M2879.954,2552.449c0,0-4.181,71.113,20.735,124.143c0,0,91.704-63.418,129.331-100.681
					L2879.954,2552.449z"/><path fill="#83b5fc" d="M3214.365,1585.001c0,0,32.969,5.958,39.979,26.638c0,0,143.18,7.799,184.583,63.923
					c41.403,56.124,16.561,230.936,11.961,297.181s-10.436,252.78-9.358,278.661c1.078,25.881,46.322,213.988,12.783,236.07
					c0,0-0.484,40.5-12.377,60.036c-1.14,1.873-3.071,3.106-5.198,3.64c-23.295,5.849-166.092,40.775-303.292,53.402
					c-139.818,12.868-274.344-15.419-291.889-19.301c-1.228-0.271-2.173-1.138-2.55-2.338c-2.399-7.633-10.686-36.802-5.719-61.402
					c0,0-20.925-28.287-14.485-140.534s2.316-388.836,2.76-437.675c0.92-101.207,12.871-256.51,16.598-273.992
					c0,0,19.399-21.579,70.463-32.62c51.064-11.041,97.297-16.561,97.297-16.561s13.929-20.004,29.801-23.8
					c0,0-0.494,8.2-1.168,13.307s-2.829,16.004-2.829,16.004s-7.172,27.266,3.179,49.003c10.351,21.736,21.277,51.146,21.277,51.146
					s55.769-29.06,73.091-36.425c62.751-26.682,82.626-65.901,82.626-65.901L3214.365,1585.001z"/><path fill="#62a2fc" d="M3050.594,1770.422c-1.035,0-2.036-0.559-2.553-1.537c-0.744-1.408-0.206-3.153,1.202-3.897
					c0.179-0.095,18.335-9.636,53.689-23.417c6.604-2.574,13.424-5.113,20.02-7.567c29.17-10.858,59.333-22.086,83.735-40.941
					c29.296-22.638,39.255-54.468,39.353-54.787c0.464-1.523,2.073-2.381,3.6-1.918c1.523,0.464,2.383,2.076,1.918,3.6
					c-0.418,1.374-10.606,33.918-41.343,57.669c-25.096,19.392-55.677,30.775-85.251,41.783c-6.574,2.447-13.373,4.978-19.936,7.536
					c-35.005,13.644-52.913,23.048-53.09,23.142C3051.509,1770.314,3051.048,1770.422,3050.594,1770.422z"/><path fill="#62a2fc" d="M3037.316,1759.643c-1.329,0-2.524-0.923-2.816-2.275c-3.929-18.169-13.344-38.449-21.651-56.342
					c-3.247-6.993-6.313-13.598-8.909-19.74c-9.639-22.808-2.784-44.633-2.488-45.551c0.489-1.516,2.114-2.348,3.632-1.858
					c1.515,0.489,2.347,2.113,1.858,3.628c-0.083,0.262-6.455,20.791,2.312,41.535c2.556,6.05,5.603,12.611,8.827,19.557
					c8.434,18.166,17.993,38.755,22.058,57.552c0.337,1.557-0.652,3.092-2.21,3.429
					C3037.724,1759.622,3037.519,1759.643,3037.316,1759.643z"/><path fill="#62a2fc" d="M2821.671,2200.79c-0.004,0-0.009,0-0.013,0c-1.594-0.007-2.879-1.304-2.872-2.897
					c0.006-1.203,0.537-121.231,0.03-204.89c-0.507-83.758,5.658-202.296,5.72-203.484c0.084-1.591,1.446-2.828,3.032-2.729
					c1.591,0.083,2.812,1.441,2.729,3.032c-0.062,1.186-6.219,119.559-5.713,203.146c0.508,83.69-0.024,203.749-0.029,204.952
					C2824.548,2199.507,2823.258,2200.79,2821.671,2200.79z"/><path fill="#62a2fc" d="M3429.74,2476.279c-0.139,0-0.279-0.01-0.421-0.031c-1.576-0.23-2.667-1.694-2.438-3.271
					c6.924-47.408-8.103-134.999-20.177-205.379l-1.903-11.111c-11.937-69.853-12.077-203.089-12.077-204.427
					c0-1.593,1.292-2.884,2.885-2.884s2.885,1.291,2.885,2.884c0,1.333,0.14,134.085,11.993,203.456l1.903,11.108
					c12.144,70.782,27.256,158.874,20.2,207.188C3432.381,2475.246,3431.148,2476.279,3429.74,2476.279z"/><path fill="#62a2fc" d="M3076.322,2545.888c-127.177,0-231.946-18.959-233.199-19.189
					c-1.566-0.288-2.603-1.792-2.314-3.359c0.288-1.565,1.795-2.599,3.358-2.314c1.497,0.275,151.487,27.409,310.263,16.521
					c158.803-10.89,284.997-49.178,286.253-49.563c1.525-0.468,3.138,0.388,3.604,1.911s-0.389,3.136-1.911,3.604
					c-1.263,0.388-128.054,38.867-287.552,49.804C3128.194,2545.126,3101.806,2545.888,3076.322,2545.888z"/><path fill="#62a2fc" d="M2824.546,1828.417c-1.072,0-2.102-0.6-2.6-1.63c-5.763-11.934-16.724-18.935-16.834-19.004
					c-1.347-0.848-1.753-2.627-0.907-3.975c0.848-1.348,2.624-1.756,3.972-0.912c0.506,0.317,12.457,7.908,18.965,21.382
					c0.692,1.435,0.091,3.159-1.344,3.852C2825.395,1828.325,2824.967,1828.417,2824.546,1828.417z"/></g><g><path fill="#f6af9a" d="M3039.793,1091.078c0,0-140.711,16.72-156.046,143.676
				c-15.336,126.957,13.084,353.52,106.713,367.491c94.284,14.069,176.352-60.346,220.331-141.028
				c46.284-84.91,58.237-190.35,23.423-267.462C3203.732,1126.241,3150.448,1078.494,3039.793,1091.078z"/><path fill="#ea9a88" d="M2998.603,1424.15c0,0,6.237-16.009,44.316-17.175c30.955-0.948,54.458,2.528,55.177,21.808
					C3101.441,1453.688,2984.29,1463.518,2998.603,1424.15z"/><path fill="#ea9a88" d="M2887.608,1411.655c2.18,14.845,4.833,29.479,7.979,43.643
					c19.226-2.852,40.849-7.874,42.056-18.921C2938.67,1416.739,2912.179,1412.355,2887.608,1411.655z"/><ellipse cx="3029.568" cy="1371.018" fill="#121d3f" rx="14.048" ry="17.271" transform="rotate(-3.411 3027.581 1370.192)"/><path fill="#121d3f" d="M2939.24,1372.529c0.567,9.521-5.251,17.614-12.996,18.075
					c-7.745,0.461-14.483-6.883-15.05-16.405c-0.567-9.521,5.252-17.614,12.996-18.075
					C2931.935,1355.663,2938.673,1363.008,2939.24,1372.529z"/><path fill="#e57e73" d="M2974.187,1457.595c-8.934,0.563-21.517,0.005-26.529-6.691
					c-1.893-2.53-3.519-6.904-0.506-13.374c11.843-25.441,16.373-65.09,16.418-65.487c0.305-2.743,2.777-4.72,5.521-4.414
					c2.743,0.306,4.72,2.777,4.414,5.52c-0.187,1.689-4.748,41.659-17.291,68.6c-0.261,0.564-1.078,2.46-0.552,3.163
					c2.256,3.019,14.96,3.454,24.962,1.954c2.732-0.4,5.276,1.47,5.686,4.2c0.411,2.729-1.468,5.275-4.196,5.687
					C2980.383,1457.014,2977.542,1457.384,2974.187,1457.595z"/><path fill="#e57e73" d="M2941.867,1500.614c-2.046-0.31-4.038-0.661-5.973-1.061c-2.043-0.422-3.358-2.419-2.937-4.462
					c0.422-2.043,2.428-3.354,4.462-2.936c30.75,6.341,80.165,0.125,80.661,0.062c2.07-0.265,3.961,1.197,4.227,3.266
					c0.265,2.069-1.196,3.961-3.265,4.227C3017.094,1499.959,2973.646,1505.427,2941.867,1500.614z"/><path fill="#ea9a88" d="M2956.833,1518.429c-1.1-0.167-2.107-0.839-2.658-1.903c-0.914-1.764-0.224-3.934,1.54-4.848
					c0.594-0.308,14.74-7.455,30.48,0.198c1.786,0.869,2.53,3.021,1.662,4.807c-0.869,1.786-3.021,2.53-4.807,1.662
					c-12.529-6.092-23.914-0.339-24.027-0.28C2958.323,1518.429,2957.558,1518.539,2956.833,1518.429z"/><path fill="#8c4949" d="M2992.424,1326.437c0,0-3.869,7.144,3.811,10.942c7.68,3.798,44.567,0.77,61.852,0.845
					c17.285,0.076,15.021-9.808-5.332-12.401C3035.07,1323.57,2993.184,1320.591,2992.424,1326.437z"/><path fill="#8c4949" d="M2946.189,1329.345c0,0,4.065,7.035-3.509,11.043c-7.573,4.008-44.529,1.997-61.805,2.548
					c-17.277,0.552-15.285-9.391,4.989-12.543C2903.48,1327.653,2945.268,1323.522,2946.189,1329.345z"/><path fill="#8c4949" d="M3124.795,1285.629c0,0-12.231,71.845-8.183,98.522c4.048,26.677,5.533,62.852,3.298,89.476
					c-2.235,26.624-20.285,65.682-39.161,83.494c-18.546,17.501-86.209,24.029-102.028-28.873c-0.561-1.876-2.107-3.289-4.02-3.71
					c-2.724-0.6-6.719-1.242-10.167-0.861c-2.08,0.23-3.841,1.636-4.521,3.615c-1.181,3.439-3.204,9.726-4.605,16.235
					c-2.529,11.75-18.659,16.91-27.739,5.648c0,0,14.482,46.269,59.371,58.461c44.888,12.192,82.036-7.047,91.014-10.48
					c14.31-5.472,31.232-18.087,35.516-23.83c13.251-17.765,20.153-35.145,24.584-91.095c3.033-38.295-19.011-94.673-0.364-138.192
					c0.763-1.782,0.542-3.708,1.45-5.444L3124.795,1285.629z"/><path fill="#8c4949" d="M3265.71,1376.846c-2.29-14.606-3.958-28.367,4.022-41.417
						c7.98-13.05,1.777-36.503,3.711-54.221c1.933-17.718,10.736-41.15,6.245-56.089c-4.491-14.939-14.984-15.028-14.874-40.527
						c0.11-25.499-28.235-36.546-27.479-51.441c0.755-14.895-28.968-36.658-46.175-37.013c-17.207-0.355-32.057-6.357-32.057-6.357
						s-9.071-19.385-26.055-21.207c-16.985-1.822-30.412-2.355-49.442-10.491c-19.03-8.136-50.843-6.201-65.981,9.517
						c-6.024,5.091-34.592-4.489-53.287,9.939c-18.696,14.429-19.673,30.791-26.32,35.037c-3.722,2.378-8.844,3.133-14.201,5.865
						c-4.584,0.844-9.851,1.518-15.732,1.795c-22.631,1.066-30.112,8.92-29.206,20.741s-8.12,23.935-25.132,29.447
						s-18.743,16.933-15.068,28.275c3.675,11.342-6.495,25.08-18.902,35.783c-12.406,10.703-3.913,31.763,10.704,42.065
						c14.617,10.303,41.111,8.874,55.499-3.751c0,0,26.966,0.333,41.193-19.276c0,0,17.173,32.422,70.666,17.82
						c10.235-2.794,24.981-14.248,30.75-22.53c10.241-14.701,20.027-16.514,20.027-16.514s3.352,16.667,21.826,28.471
						c18.474,11.804,53.075,4.483,54.61,9.218c1.534,4.735-4.378,33.858,3.781,49.353c8.159,15.495,17.564,57.444,22.189,81.409
						c4.625,23.965,26.745,26.565,24.923,43.55c-1.822,16.984-2.244,29.678,8.827,35.858c11.072,6.18,15.14,9.048,17.474,18.407
						c2.335,9.359,7.064,31.072,9.888,32.25c2.823,1.178,22.836-30.295,27.126-53.66c4.29-23.365,7.557-49.886,16.56-59.78
						C3264.822,1407.48,3268.001,1391.452,3265.71,1376.846z"/><path fill="#854242" d="M3048.368,1232.333c-3.458-16.834,1.339-42.569,21.927-44.606l0.18,0.466
							c-14.587,10.407-22.612,26.171-21.613,44.067L3048.368,1232.333z"/><path fill="#854242" d="M2926.929,1253.581c-4.311-16.664,2.305-36.217,17.398-45.23
							c4.08-2.55,8.644-3.363,13.133-4.419c4.533-1.747,7.546-6.46,9.014-11.008l0.5,0.013c0.665,5.865-2.27,12.336-7.637,15.178
							c-2.653,1.276-5.707,1.777-8.405,2.858c-17.372,5.307-25.958,25.399-23.517,42.488L2926.929,1253.581z"/><path fill="#854242" d="M2938.152,1112.367c4.262,1.939,9.49,2.734,13.785,0.591
							c9.177-5.348,20.478-10.058,27.797,0.834l-0.305,0.396c-20.644-7.569-26.25,9.345-41.549-1.401L2938.152,1112.367z"/><path fill="#854242" d="M2855.987,1169.644c5.504-2.363,11.928-2.838,17.656-0.894
							c9.213,3.458,20.238,9.13,29.543,3.183l0.373,0.333c-7.006,13.535-21.621,4.667-31.108-0.636
							c-4.995-2.433-10.897-2.732-16.289-1.518L2855.987,1169.644z"/><path fill="#854242" d="M2824.25,1230.485c14.342-11.501,44.314-15.734,55.311,2.09l-0.402,0.297
							c-8.205-4.706-17.663-6.71-26.885-8.244c-9.579-0.694-19.308,1.709-27.735,6.265L2824.25,1230.485z"/><path fill="#854242" d="M3159.243,1089.987c-8.328,6.362-17.451,12.13-27.567,15.208
							c-9.314,3.572-18.334,8.734-26.841,13.973l-0.375-0.33c5.879-11.057,18.14-16.17,29.864-18.393
							c8.652-2.484,16.761-6.493,24.637-10.87L3159.243,1089.987z"/><path fill="#854242" d="M3015.6,1068.864c9.801-0.71,16.571,2.462,24.56,7.537c4.545,1.868,9.838,2.426,13.968,5.49
							l-0.136,0.481c-21.862,3.649-16.664-10.006-38.416-13.009L3015.6,1068.864z"/><path fill="#854242" d="M3209.583,1178.48c-0.207,19.86,15.057,14.185,23.687,27.136
							c14.998,22.8-9.971,38.837-0.177,54.436l-0.384,0.32c-7.49-5.518-5.708-15.583-3.296-23.277
							c1.943-7.136,5.498-14.388,3.88-21.927c-3.718-20.728-26.658-13.404-24.206-36.747L3209.583,1178.48z"/><path fill="#854242" d="M3196.967,1276.447c-6.707,13.231-2.137,19.571,6.78,29.376
							c8.894,11.755,11.478,20.187,2.843,33.087c-3.616,6.329-4.832,13.626-1.529,20.269l-0.41,0.286
							c-8.028-7.522-5.05-19.589,0.029-27.915c2.923-4.242,3.526-9.137,1.519-14.214c-6.229-15.719-21.841-22.305-9.647-41.166
							L3196.967,1276.447z"/><path fill="#854242" d="M3249.096,1359.091c10.247,11.675,8.42,28.369-2.174,39.09
							c-2.97,5.611-0.753,12.07-1.239,18.272c-0.187,6.755-0.896,15.588-7.312,19.558l-0.332-0.374
							c6.598-10.602-0.064-23.468,3.305-35.013c0.728-3.669,3.943-6.708,6.312-9.13c7.626-8.894,7.878-22.615,1.058-32.079
							L3249.096,1359.091z"/><path fill="#854242" d="M3206.039,1388.418c-17.945,21.12,21.954,36.815,4.392,56.454
							c-3.931,5.816-7.603,13.786-3.03,20.23l-0.342,0.365c-9.078-6.28-4.408-19.639,1.369-26.695
							c2.74-3.327,2.559-7.552,0.793-11.415c-5.925-12.838-16.569-26.738-3.522-39.306L3206.039,1388.418z"/><path fill="#854242" d="M3230.703,1288.234c-1.783,10.727,8.435,10.137,15.395,13.045
							c10.353,4.083,18.207,17.312,10.843,27.336l-0.47-0.17c0.565-9.427-3.952-19-12.056-23.913
							c-7.569-3.565-17.713-5.35-14.185-16.455L3230.703,1288.234z"/><path fill="#854242" d="M3129.281,1132.419c5.955,3.728,13.362,0.854,19.446-1.123
							c10.463-2.733,23.356,0.177,30.189,9.12c7.482,9.149-3.945,24.77,5.306,29.038l-0.147,0.478
							c-12.752-2.113-4.171-18.912-9.313-26.825c-4.993-8.101-16.42-10.925-25.469-9.376c-6.553,1.485-14.589,3.703-20.369-0.961
							L3129.281,1132.419z"/><path fill="#854242" d="M2990.819,1148.19c-4.246-5.962-12.577-7.105-19.357-6.027
							c-9.461,1.427-13.113,13.802-23.174,13.643c-8.226,0.582-12.924-8.086-21.033-7.266l-0.11-0.488
							c7.261-3.812,10.848,0.54,17.371,2.14c9.087,2.88,14.129-6.77,21.802-9.772c8.476-2.93,20.302-0.725,24.952,7.552
							L2990.819,1148.19z"/><path fill="#854242" d="M3172.695,1229.269c-0.058-0.964-1.444-1.039-1.62-0.09
							c-4.706,26.741-27.227,41.32-46.024,40.808c0.429,1.323,0.276,4.552,0.011,8.854
							C3169.887,1274.656,3173.59,1244.08,3172.695,1229.269z"/><path fill="#854242" d="M3010.345,1100.427c21.327-1.175,26.169,13.007,35.747,28.168
							c2.431,3.59,6.102,4.814,10.303,6.215l-0.032,0.499c-13.162,3.309-18.493-9.183-22.493-19.145
							c-4.013-9.13-13.735-14.65-23.499-15.238L3010.345,1100.427z"/><path fill="#854242" d="M3107.397,1162.764c12.163-1.786,21.468,4.867,28.351,14.262
							c4.176,4.595,5.799,11.023,11.975,13.411l-0.017,0.5c-11.211,1.849-15.339-12.004-21.229-18.836
							c-4.616-5.56-11.886-8.489-19.038-8.839L3107.397,1162.764z"/><path fill="#854242" d="M3035.461,1157.308c-23.331-0.133-13.784,25.094-25.455,26.665l-0.195-0.46
							c3.532-3.932,0.811-9.775,3.452-14.392c3.589-8.57,12.871-15.328,22.315-12.299L3035.461,1157.308z"/><g><path fill="#3e4d8c" d="M3032.458,1348.402c-25.684-3.891-49.746,13.84-53.636,39.524
						c-3.891,25.684,13.84,49.745,39.525,53.636c25.684,3.891,49.745-13.84,53.636-39.524
						C3075.872,1376.354,3058.142,1352.293,3032.458,1348.402z M3067.606,1401.375c-3.525,23.272-25.326,39.337-48.597,35.812
						c-23.272-3.525-39.337-25.326-35.812-48.598c3.525-23.272,25.326-39.337,48.598-35.812S3071.131,1378.103,3067.606,1401.375z"/><path fill="#3e4d8c" d="M2915.881,1347.545c-25.684-3.891-49.745,13.84-53.636,39.524
						c-3.891,25.684,13.84,49.745,39.525,53.636c25.684,3.891,49.745-13.84,53.635-39.524
						C2959.296,1375.497,2941.566,1351.436,2915.881,1347.545z M2951.03,1400.518c-3.525,23.272-25.326,39.337-48.597,35.812
						c-23.272-3.525-39.337-25.326-35.812-48.598c3.525-23.272,25.326-39.337,48.597-35.812
						C2938.49,1355.446,2954.555,1377.247,2951.03,1400.518z"/><path fill="#3e4d8c" d="M2956.161,1387.413l-3.773-0.571c-1.208-0.183-2.04-1.311-1.856-2.519
							c0.183-1.208,1.311-2.039,2.519-1.856l2.293,0.347c1.834-2.683,5.585-5.966,10.923-5.157c5.612,0.85,8.262,4.426,9.322,6.407
							l5.254,0.796c1.208,0.183,2.039,1.311,1.856,2.519c-0.183,1.208-1.311,2.039-2.519,1.856l-6.437-0.975
							c-0.829-0.125-1.515-0.708-1.774-1.506c-0.049-0.142-1.434-3.975-6.365-4.722c-4.692-0.711-7.02,3.952-7.117,4.151
							C2958.064,1387.052,2957.119,1387.558,2956.161,1387.413z"/><path fill="#3e4d8c" d="M3067.54,1379.114l69.54-24.887l-0.941,6.215l-65.793,28.633
					C3070.345,1389.075,3069.666,1383.068,3067.54,1379.114z"/></g><g><path fill="#f6af9a" d="M3129.279,1390.701c0,0-1.336-65.492,31.677-60.492s24.212,53.198,15.143,83.343
					S3130.882,1449.48,3129.279,1390.701z"/><path fill="#e57e73" d="M3167.947,1368.862c-2.077-0.689-5.233-0.909-8.544,0.289c2.83-4.721,5.79-7.142,6.061-7.357
					c1.49-1.171,1.754-3.327,0.588-4.822c-1.168-1.5-3.331-1.768-4.831-0.599c-0.688,0.536-16.82,13.44-13.57,39.554
					c0.195,1.565,1.411,2.754,2.898,2.979c0.305,0.046,0.622,0.052,0.943,0.012c1.886-0.235,3.225-1.954,2.99-3.841
					c-0.455-3.656-0.467-6.995-0.18-10.034c0.04-0.088,0.087-0.17,0.12-0.263c3.95-11.219,10.657-9.589,11.409-9.367
					c-0.026-0.008,3.676,0.346,4.234-2.892C3170.548,1369.716,3167.947,1368.862,3167.947,1368.862z"/></g></g><g><path fill="#f6af9a" d="M3267.163,2220.259c0,0,38.192-19.891,53.88-32.598c6.255-4.353,27.646-6.185,50.793-12.734
					s24.074-5.531,23.725,0.483c-0.35,6.014-8.907,17.564-25.997,22.56s-25.511,10.88-31.221,20.041
					C3323.623,2241.622,3293.347,2231.288,3267.163,2220.259z"/><path fill="#f6af9a" d="M3455.535,2247.78c0,0,5.448-6.858,5.025-14.602s-8.721-17.654-8.721-17.654
					c4.532-1.25,7.701-21.192,0.775-27.228c-1.556-1.357-5.313-2.779-10.204-4.167l-0.205,4.255c0,0-6.677,9.48-43.492,19.154
					c-14.105,3.707-35.587,4.197-58.573,7.61c-27.074,4.021-55.371,11.269-55.371,11.269c-13.569,3.316-56.822,20.951-55.516,52.75
					c1.306,31.799,14.13,40.915,44.392,39.785c30.261-1.13,64.27,5.612,85.301,5.54c21.031-0.073,49.847,8.145,68.884-0.776
					c8.469-3.969,27.177-23.602,27.487-29.788c0.374-7.449-1.719-15.002-1.719-15.002s7.569-9.194,6.687-16.885
					C3459.404,2254.35,3455.535,2247.78,3455.535,2247.78z"/><path fill="#e57e73" d="M3451.543,2215.765c-10.922,8.899-25.009,28.214-39.973,20.832
					c7.131-3.471,13.372-5.651,20.27-9.228c6.366-3.187,14.303-10.471,19.999-11.846L3451.543,2215.765z"/><path fill="#e57e73" d="M3455.32,2248.037c-5.933,5.181-12.049,10.287-18.517,14.801
					c-6.32,5.293-14.902,9.428-23.244,6.639c5.542-4.334,14.176-6.837,20.845-10.583c6.741-2.883,15.226-9.807,21.13-11.115
					L3455.32,2248.037z"/><path fill="#e57e73" d="M3453.784,2279.147c-6.462,6.878-13.94,13.727-20.949,20.081
					c-4.529,4.098-11.356,6.042-17.386,4.603c4.958-4.681,12.876-7.831,18.876-12.208c5.634-3.846,13.477-9.208,19.088-12.918
					C3453.68,2278.52,3454.025,2278.906,3453.784,2279.147L3453.784,2279.147z"/></g><g><path fill="#f6af9a" d="M3088.553,2212.303c-127.506-6.313-300.011,7.589-306.464,9.275
					c-29.812,7.8-53.565,32.683-58.351,65.061c-6.394,43.262,23.369,84.43,66.756,89.909c31.084,3.926,163.453-2.911,288.85-21.497
					c136.572-20.243,265.649-52.573,266.483-52.739c17.802-3.565,32.23-17.885,35.026-36.804
					c3.56-24.089-13.082-46.503-37.171-50.063C3339.354,2214.805,3198.429,2217.744,3088.553,2212.303z"/><path fill="#83b5fc" d="M3274.432,2330.189c0,0-5.323,19.896-25.418,25.308c0,0-14.391,5.391-25.871-2.251
					c0,0-25.036,17.519-50.728,12.626c0,0-299.368,39.795-373.939,33.581c-74.572-6.214-97.874-72.579-88.053-107.885
					c9.821-35.306,42.878-75.535,116.112-89.134s303.552,0.681,303.552,0.681s29.835-7.607,49.992,1.441
					c0,0,31.516-24.867,49.715-6.78c0,0,17.99,12.894,31.446,63.062C3278.416,2324.877,3274.432,2330.189,3274.432,2330.189z"/><path fill="#62a2fc" d="M2818.013,2402.996c-1.603,0-2.96-1.263-2.96-2.885c0.001-1.593,1.292-2.884,2.885-2.884
						c0.016,0.007,0.052,0,0.076,0c95.522,0,351.446-33.873,354.021-34.215c0.305-0.041,0.615-0.031,0.92,0.026
						c24.141,4.598,48.295-11.99,48.537-12.158c0.971-0.679,2.262-0.694,3.25-0.036c10.071,6.707,23.134,1.998,23.266,1.95
						c0.082-0.03,0.171-0.059,0.256-0.082c18.277-4.922,23.334-23.085,23.383-23.269c0.042-0.156,0.097-0.309,0.163-0.455
						c0.22-0.983,1.711-11.228-13.356-67.404c-12.932-48.219-30.181-61.348-30.354-61.475c-0.115-0.084-0.237-0.188-0.339-0.288
						c-16.163-16.064-45.602,6.768-45.897,7c-0.843,0.664-1.987,0.804-2.967,0.366c-19.018-8.537-47.809-1.351-48.097-1.277
						c-0.291,0.075-0.592,0.103-0.892,0.084c-2.3-0.144-230.802-14.105-302.848-0.724c-0.202,0.037-0.401,0.054-0.614,0.047
						c-0.415-0.012-41.203-1.112-61.628,10.747c-1.38,0.8-3.144,0.331-3.942-1.046c-0.8-1.377-0.332-3.143,1.046-3.942
						c21.108-12.256,60.18-11.635,64.388-11.533c71.54-13.129,292.11-0.024,303.514,0.667c3.903-0.94,30.275-6.808,49.852,1.042
						c6.563-4.771,34.272-23.041,52.008-5.665c2.194,1.69,19.388,16.202,32.343,64.503c10.646,39.689,15.271,64.62,13.186,70.875
						c-0.34,1.245-6.179,21.517-27.326,27.284c-1.609,0.575-14.969,5.009-26.685-1.588c-6.032,3.821-27.911,16.278-50.861,12.13
						C3160.018,2370.419,2912.006,2402.996,2818.013,2402.996z M3272.108,2328.482c-0.001,0-0.001,0.001-0.002,0.002
						C3272.107,2328.483,3272.107,2328.482,3272.108,2328.482z M3272.114,2328.474c-0.002,0.001-0.003,0.003-0.004,0.004
						C3272.111,2328.477,3272.112,2328.476,3272.114,2328.474z M3272.119,2328.466c-0.001,0.002-0.003,0.004-0.004,0.006
						C3272.117,2328.47,3272.118,2328.468,3272.119,2328.466z M3272.125,2328.459c-0.002,0.002-0.003,0.004-0.005,0.006
						C3272.122,2328.463,3272.123,2328.461,3272.125,2328.459z"/><path fill="#62a2fc" d="M2821.669,2205.288c-0.441,0-0.89-0.102-1.31-0.315c-13.351-6.813-40.187-7.147-40.456-7.15
						c-1.593-0.015-2.872-1.319-2.856-2.912c0.015-1.583,1.303-2.857,2.883-2.857c0.01,0,0.019,0,0.027,0
						c1.155,0.011,28.461,0.348,43.025,7.78c1.419,0.724,1.981,2.461,1.258,3.88
						C2823.73,2204.713,2822.718,2205.288,2821.669,2205.288z"/><path fill="#62a2fc" d="M3202.931,2286.15c-1.166,0-2.264-0.712-2.699-1.869c-19.91-52.865-22.902-78.348-23.021-79.407
						c-0.176-1.583,0.965-3.007,2.547-3.184c1.567-0.17,3.009,0.962,3.187,2.545c0.028,0.253,3.078,25.953,22.686,78.012
						c0.562,1.491-0.191,3.154-1.683,3.716C3203.612,2286.09,3203.269,2286.15,3202.931,2286.15z"/><path fill="#62a2fc" d="M3142.119,2255.098c-1.261,0-2.419-0.833-2.775-2.107
						c-5.562-19.858-12.009-48.961-12.073-49.252c-0.344-1.556,0.639-3.095,2.194-3.439c1.553-0.345,3.094,0.639,3.438,2.194
						c0.064,0.29,6.477,29.239,11.995,48.942c0.43,1.534-0.466,3.125-1.999,3.555
						C3142.639,2255.062,3142.377,2255.098,3142.119,2255.098z"/><path fill="#62a2fc" d="M3172.416,2368.757c-1.132,0-2.205-0.67-2.665-1.781c-0.562-1.356-13.813-33.471-17.962-56.284
						c-0.285-1.567,0.755-3.069,2.322-3.354c1.564-0.287,3.068,0.755,3.354,2.322c4.037,22.201,17.479,54.781,17.614,55.107
						c0.61,1.472-0.088,3.159-1.56,3.769C3173.158,2368.686,3172.784,2368.757,3172.416,2368.757z"/><path fill="#62a2fc" d="M3223.146,2356.13c-1.068,0-2.096-0.596-2.595-1.621c-0.297-0.609-7.294-15.045-9.412-26.092
						c-0.3-1.564,0.726-3.076,2.29-3.375c1.571-0.301,3.076,0.726,3.376,2.29c1.973,10.288,8.862,24.508,8.932,24.651
						c0.697,1.432,0.103,3.159-1.33,3.856C3224,2356.037,3223.569,2356.13,3223.146,2356.13z"/></g><g><path fill="#f6af9a" d="M3419.436,1666.493c-45.82-41.205-116.367-37.464-157.572,8.355
				c-7.223,8.032-15.631,32.312-18.95,42.126c-44.491,157.208-123.367,534.382-123.365,534.383
				c-7.142,39.375-7.198,70.239,20.198,94.876c32.517,29.242,79.76,27.018,109.002-5.499c7.617-8.47,13.05-18.135,16.388-28.303
				l167.379-499.72C3449.078,1754.212,3457.459,1700.687,3419.436,1666.493z"/><path fill="#83b5fc" d="M3373.648,1634.417c0,0-100.333-22.778-135.608,58.166
					c-33.185,76.145-56.559,179.412-67.916,241.517c-11.357,62.104-41.172,186.355-59.331,260.838s-25.325,170.618,59.331,193.213
					c84.657,22.595,137.694-78.666,155.635-135.249c17.941-56.584,66.305-239.653,95.947-303.38
					C3451.348,1885.797,3520.904,1663.197,3373.648,1634.417z"/><path fill="#62a2fc" d="M3194.011,2394.26c-8.11,0-16.331-1.106-24.631-3.321
						c-39.035-10.418-62.692-37.141-70.315-79.424c-5.547-30.764-2.543-70.215,8.926-117.259
						c30.866-126.595,50.816-214.298,59.297-260.674c4.537-24.811,14.393-74.562,29.415-129.007
						c0.424-1.536,2.012-2.435,3.548-2.013c1.535,0.423,2.437,2.012,2.013,3.547c-14.963,54.231-24.781,103.794-29.302,128.511
						c-8.5,46.486-28.474,134.3-59.366,261.002c-26.498,108.688-7.229,172.527,57.273,189.744
						c36.111,9.637,69.733-2.829,99.93-37.054c31.408-35.599,47.904-82.694,52.212-96.28c4.954-15.627,12.311-41.186,20.828-70.78
						c22.672-78.773,53.722-186.656,75.253-232.944c5.784-12.436,12.062-28.663,17.678-45.692c0.499-1.512,2.127-2.337,3.643-1.836
						c1.513,0.499,2.335,2.13,1.836,3.643c-5.684,17.236-12.05,33.686-17.926,46.318c-21.342,45.883-52.32,153.516-74.939,232.107
						c-8.529,29.634-15.896,55.228-20.874,70.928c-4.394,13.858-21.229,61.908-53.385,98.354
						c-14.484,16.417-30.087,28.207-46.373,35.041C3217.49,2391.893,3205.87,2394.259,3194.011,2394.26z"/><path fill="#62a2fc" d="M3187.752,1850.5c-1.079,0-2.113-0.608-2.607-1.647c-5.756-12.116-10.334-32.583-10.525-33.448
						c-0.346-1.555,0.636-3.096,2.19-3.441c1.551-0.341,3.096,0.636,3.44,2.191c0.046,0.206,4.63,20.698,10.105,32.222
						c0.684,1.439,0.071,3.16-1.368,3.843C3188.588,1850.409,3188.167,1850.5,3187.752,1850.5z"/><path fill="#62a2fc" d="M3219.03,1788.854c-0.424,0-0.853-0.093-1.259-0.291c-1.433-0.696-2.029-2.421-1.334-3.854
						c0.628-1.292,15.735-31.974,47.037-59.329c18.433-16.109,38.646-27.632,60.076-34.25c26.805-8.277,55.549-8.852,85.439-1.706
						c1.549,0.37,2.505,1.926,2.135,3.476c-0.371,1.549-1.92,2.507-3.477,2.135c-52.385-12.522-99.569-0.898-140.228,34.558
						c-30.479,26.579-45.645,57.33-45.795,57.638C3221.127,1788.257,3220.1,1788.854,3219.03,1788.854z"/></g><g><path fill="#9e5959" d="M2961.562,1886.306c0,0,30.278-25.351,137.664-23.971c0,0,3.482,38.643,0,53.364
				c-3.482,14.721-106.069,35.422-106.069,35.422S2952.509,1917.638,2961.562,1886.306z"/><path fill="#f6af9a" d="M3145.247,1989.88c58.327,113.558,116.792,276.449,117.917,283.022
					c5.187,30.376-7.688,62.276-35.212,79.986c-36.777,23.663-86.554,13.524-109.436-23.743
					c-17.047-27.765-64.634-162.416-100.521-288.868c-36.21-127.59-60.646-246.869-60.832-247.667
					c-4.092-17.688,3.004-36.737,19.087-47.086c20.478-13.176,47.76-7.257,60.936,13.221
					C3039.553,1762.424,3094.985,1892.023,3145.247,1989.88z"/><path fill="#83b5fc" d="M2961.562,1886.306c0,0-14.943,14.174-10.108,34.415c0,0,2.131,15.219,14.326,21.659
					c0,0-3.446,30.362,13.115,50.604c0,0,93.63,289.82,134.681,352.385c41.051,62.564,110.491,51.368,136.829,25.887
					s45.912-73.73,22.91-144.575c-23.002-70.845-131.195-274.179-131.195-274.179s-7.555-29.848-25.126-43.243
					c0,0,6.81-39.563-17.77-46.923c0,0-6.052,23.002-70.553,35.882C2968.774,1910.178,2961.562,1886.306,2961.562,1886.306z"/><path fill="#62a2fc" d="M3191.018,2393.552c-3.582,0-7.197-0.199-10.832-0.622
						c-27.949-3.252-51.822-19.16-69.037-46.004c-39.68-61.872-129.082-334.918-134.831-352.542
						c-14.55-18.184-14.045-43.307-13.566-50.423c-11.388-7.146-13.869-21.002-14.132-22.692
						c-5.075-21.544,10.299-36.431,10.957-37.056c1.157-1.095,2.981-1.048,4.078,0.108c1.096,1.155,1.048,2.979-0.105,4.075
						c-0.59,0.565-13.659,13.363-9.29,31.655c0.021,0.089,0.038,0.179,0.051,0.27c0.02,0.132,2.115,13.857,12.816,19.509
						c1.051,0.554,1.653,1.696,1.52,2.875c-0.033,0.29-3.089,29.42,12.481,48.452c0.227,0.276,0.399,0.593,0.51,0.933
						c0.942,2.891,94.632,289.761,134.367,351.721c16.251,25.339,38.675,40.342,64.849,43.388
						c30.754,3.574,60.24-9.755,74.612-23.659c1.145-1.107,2.97-1.079,4.079,0.067c1.107,1.145,1.077,2.971-0.067,4.079
						C3245.865,2380.855,3219.594,2393.551,3191.018,2393.552z"/><path fill="#62a2fc" d="M3262.465,2200.791c-1.133,0-2.208-0.672-2.667-1.785
						c-34.874-84.528-119.374-243.553-120.223-245.149c-0.109-0.204-0.193-0.422-0.25-0.646
						c-0.073-0.289-7.529-29.042-24.079-41.658c-0.854-0.651-1.274-1.724-1.094-2.781c0.063-0.371,6.079-37.134-15.754-43.673
						c-1.526-0.457-2.393-2.064-1.936-3.591c0.457-1.525,2.065-2.393,3.59-1.936c23.943,7.17,21.101,40.398,20.038,48.464
						c16.391,13.58,23.808,39.91,24.736,43.412c4.182,7.876,86.049,162.332,120.303,245.358c0.607,1.473-0.094,3.159-1.566,3.767
						C3263.204,2200.72,3262.831,2200.791,3262.465,2200.791z"/><path fill="#62a2fc" d="M3267.165,2177.122c-1.052,0-2.065-0.577-2.574-1.58c-13.188-25.991-35.843-46.232-36.07-46.434
						c-1.192-1.057-1.302-2.879-0.246-4.072c1.058-1.192,2.881-1.301,4.072-0.246c0.962,0.852,23.709,21.18,37.389,48.141
						c0.721,1.42,0.153,3.157-1.268,3.877C3268.05,2177.021,3267.604,2177.122,3267.165,2177.122z"/><path fill="#62a2fc" d="M3040.729,1942.917c-1.343,0-2.545-0.942-2.823-2.309c-0.317-1.561,0.689-3.083,2.25-3.402
						c0.389-0.08,39.277-8.182,75.325-30.403c1.358-0.834,3.135-0.414,3.969,0.942c0.836,1.356,0.414,3.133-0.941,3.969
						c-36.951,22.777-76.803,31.063-77.201,31.144C3041.113,1942.897,3040.92,1942.917,3040.729,1942.917z"/><path fill="#62a2fc" d="M2974.933,1945.48c-5.315,0-8.956-0.199-9.317-0.219c-1.59-0.091-2.806-1.453-2.716-3.043
						c0.091-1.59,1.47-2.797,3.043-2.716c0.215,0.011,21.59,1.173,37.646-2.289c1.562-0.337,3.093,0.654,3.428,2.211
						c0.336,1.557-0.654,3.092-2.211,3.427C2994.697,1945.031,2982.923,1945.48,2974.933,1945.48z"/><path fill="#62a2fc" d="M2978.891,1995.869c-1.443,0-2.689-1.081-2.861-2.55c-0.185-1.582,0.948-3.015,2.53-3.2
						c0.606-0.071,61.096-7.251,98.041-20.775c1.495-0.549,3.151,0.221,3.7,1.717c0.547,1.496-0.222,3.153-1.718,3.7
						c-37.587,13.759-98.74,21.016-99.354,21.088C2979.116,1995.862,2979.003,1995.869,2978.891,1995.869z"/></g><g><path fill="#f6af9a" d="M3040.6,1612.676c0,0-45.544-63.256-51.382-69.619s-15.705-4.576-19.75,0.09
						c-4.045,4.666-5.756,11.644,0.093,20.331s27.493,45.082,27.493,45.082s19.113,29.63,31.546,27.995
						c15.086-1.984,20.742-7.077,18.244-14.618L3040.6,1612.676z"/><path fill="#f6af9a" d="M2982.315,1537.707c0,0-69.611-6.358-73.799-6.313c-4.189,0.045-6.733,11.183,4.004,20.734
						c10.738,9.551,41.298,8.094,63.264,12.765C2984.945,1566.841,3001.582,1546.36,2982.315,1537.707z"/><path fill="#f6af9a" d="M3074.594,1835.833l-29.994-85.343c0,0,3.014-115.618,3.429-124.495
					c0.415-8.876-15.374-19.994-21.291-20.27c-5.917-0.277-27.567,4.185-27.567,4.185s-43.413-22.788-50.741-24.613
					c-7.328-1.825-18.03,5.087-18.532,13.389c0,0-10.912,1.656-16.707,6.061s-2.815,16.291-2.815,16.291s-7.692,3.518-12.963,11.369
					c-5.271,7.851,5.334,43.943,6.344,46.728s16.361,6.086,11.026-21.322c0,0,7.601,3.359,9.011,4.908s3.083,24.442,3.045,47.42
					s3.347,53.017,14.301,74.856c10.953,21.839,22.386,52.349,29.886,73.021c16.164,44.551,43.846,41.106,73.587,31.891
					C3074.355,1880.693,3086.855,1866.287,3074.594,1835.833z"/><path fill="#e57e73" d="M3045.941,1702.668c-0.028,0-0.056,0-0.084-0.001c-1.592-0.045-2.847-1.373-2.801-2.965
				c0.779-27.523,1.734-72.406,1.019-76.92c-1.459-3.004-16.025-22.488-27.76-38.184c-11.999-16.049-23.332-31.208-25.465-34.966
				c-3.268-5.754-7.98-8.433-9.3-9.097l-64.97-5.707c-1.587-0.139-2.761-1.539-2.621-3.125c0.14-1.586,1.529-2.768,3.125-2.621
				l65.481,5.751c0.294,0.025,0.581,0.096,0.853,0.208c0.31,0.128,7.616,3.233,12.447,11.742c1.955,3.442,13.706,19.16,25.069,34.36
				c21.272,28.453,28.003,37.681,28.677,39.984c1.219,4.171-0.296,61.321-0.79,78.738
				C3048.778,1701.43,3047.496,1702.668,3045.941,1702.668z"/><path fill="#e57e73" d="M2929.898,1598.686c6.976-0.436,12.923,3.631,19.068,6.28
						c12.307,6.4,26.01,12.457,37.881,19.523c5.842,2.491,10.937,8.038,10.491,14.577c-0.012,0.294-0.436,0.392-0.561,0.115
						c-4.303-9.896-15.967-9.696-23.595-15.742C2959.455,1615.363,2943.606,1603.59,2929.898,1598.686z"/><path fill="#e57e73" d="M2910.376,1621.038c13.601-4.496,25.218,5.003,36.527,11.061
						c9.595,5.902,31.797,14.62,23.648,28.026c-0.379-7.033-4.278-10.571-10.096-13.157c-5.632-3.199-10.685-7.306-16.014-10.966
						C2931.562,1627.465,2925.467,1620.659,2910.376,1621.038z"/><path fill="#ea9a88" d="M2923.942,1662.473c3.084,0.494,6.069,1.743,9.088,2.445c1.969,0.548,3.886,3.517,3.049,5.487
						c-2.093,0.79-4.402,0.999-5.98-0.585C2929.003,1667.959,2923.176,1664.112,2923.942,1662.473z"/><path fill="#e57e73" d="M2914.501,1657.871c-1.598-2.041-2.587-4.503-3.996-6.645c-1.199-3.888,2.63-6.972,5.324-2.595
						C2916.338,1649.36,2915.628,1658.67,2914.501,1657.871L2914.501,1657.871z"/><path fill="#e57e73" d="M2997.186,1608.304c5.407,1.7,11.337,3.382,15.707,7.08c6.785,10.354-3.86,5.74-7.606,0.761
						c0,0-8.366-7.328-8.366-7.328C2996.687,1608.627,2996.894,1608.22,2997.186,1608.304z"/><path fill="#ea9a88" d="M3011.532,1770.962c13.316-2.334,21.645-14.974,33.082-20.228
				C3042.433,1764.466,3022.078,1772.67,3011.532,1770.962z"/></g></g></svg>