<svg xmlns="http://www.w3.org/2000/svg" data-name="Layer 1" viewBox="0 0 300 300"><defs><clipPath id="a"><path fill="none" d="M93 254.32c-35.48-20-66.14-67.4-52.9-108.07C48 121.93 72.08 98.67 95 99.12c19.21.38 24.42 17.12 42.17 14.75 21.73-2.91 23.67-29.3 45-32.56 22.65-3.45 42.93 22.81 47 28a87.91 87.91 0 0 1 17.34 43.53c4 38-18.64 73.88-44.4 93.12C171.35 269 128.18 274.17 93 254.32Z"/></clipPath><clipPath id="b"><path fill="#7a84f1" d="M196.18 58.56s3.07-4.24 3.22-5.09c.25-1.39-.12-3.14.83-3.69a1.15 1.15 0 0 1 1-.1c1.51.59.82 5.45.75 5.89l2.7.08c2 .07 2.73.12 3.08.63a1.39 1.39 0 0 1 .16 1.17 1.51 1.51 0 0 1-.84.86 1.5 1.5 0 0 1 .9 1.58 1.57 1.57 0 0 1-.82 1.06 1.49 1.49 0 0 1-.88 2.28s.83 2.16-1.42 2.11-6 .17-7.38-.38-1.48-1.43-1.48-1.43Z"/></clipPath><clipPath id="c"><path fill="none" d="M88.19 197.28c-.33 28.61-4.06 64-4.12 64.71a26.75 26.75 0 0 1-7.27 1.39 27.17 27.17 0 0 1-10-1.39c-.88-8.46-1.23-17.6-1.6-27.34-.53-14.32-.53-29.91 1.6-35.06l-12.61-42.32a25.39 25.39 0 0 0-4.5-8.58 29 29 0 0 1-5.21-9.88 26.22 26.22 0 0 1-1.07-6.67 31.23 31.23 0 0 1 4.87-17c.46-.75.86-1.32 1.11-1.67a52.83 52.83 0 0 1 13.82-1.28A52.15 52.15 0 0 1 82 116.51l1.14 11.13c.32 3.22.65 6.45 1 9.67.2 1.32.38 2.63.56 3.92a379.34 379.34 0 0 1 3.49 56.05Z"/></clipPath></defs><g data-name="background 1"><ellipse cx="150" cy="279.26" fill="#e5ded6" rx="129.42" ry="7.47"/><path fill="#898cfb" d="M242.79 190.62A16.63 16.63 0 0 1 249 177c7.06-6 1.74 15.29-6.21 13.62ZM239.16 205a16.61 16.61 0 0 1 13.55-6.42c9.29-.02-8.55 12.82-13.55 6.42ZM234.15 219.25a16.6 16.6 0 0 1-7.43-13c-.72-9.25 13.45 7.53 7.43 13ZM232.69 231.72a16.63 16.63 0 0 1 13.25-7c9.27-.43-7.94 13.19-13.25 7ZM221.53 226.28a16.61 16.61 0 0 1-11.74-9.34c-4.09-8.32 15.3 2.06 11.74 9.34ZM231 195.16A16.61 16.61 0 0 0 221 184c-8.52-3.63 2.91 15.13 10 11.16ZM217.44 187.31a16.58 16.58 0 0 0-14.09-5.11c-9.23.87 9.72 11.97 14.09 5.11ZM215.9 180.69a16.62 16.62 0 0 0 8.83-12.12c1.72-9.1-14.2 6.02-8.83 12.12ZM220 204.55a16.59 16.59 0 0 0-12.24-8.67c-9.17-1.6 6.17 14.12 12.24 8.67ZM213.25 171.45a16.58 16.58 0 0 1-9-12c-1.84-9.08 14.29 5.83 9 12ZM235.65 176.24a16.6 16.6 0 0 0 8.92-12c1.8-9.14-14.25 5.86-8.92 12Z"/><path fill="#4436a2" d="M223.4 256.62c0-4.05-.11-8.11-.27-12.16s-.29-8.1-.53-12.14-.48-8.08-.84-12.11-.76-8.06-1.26-12.07-1-8-1.71-12-1.53-7.93-2.43-11.87a108.61 108.61 0 0 0-3.42-11.6 63 63 0 0 0-5-11.06h.08a62.37 62.37 0 0 1 5.32 10.93A106.9 106.9 0 0 1 217 184.1a192.1 192.1 0 0 1 4.4 23.9c1 8.06 1.57 16.16 1.9 24.26s.44 16.23.19 24.34ZM226 270.88c-.5-4.39-.79-8.81-1-13.23-.07-2.21-.11-4.42-.14-6.63s0-4.43 0-6.64a263.77 263.77 0 0 1 1.78-26.49c.48-4.41 1.24-8.77 1.91-13.15l1.24-6.53c.21-1.08.4-2.17.64-3.25l.78-3.23c.53-2.15 1-4.31 1.58-6.45l1.82-6.39c.33-1 .62-2.12 1-3.17l1.09-3.13 2.19-6.26h.08l-2 6.31-1 3.16c-.31 1.06-.58 2.13-.87 3.19l-1.71 6.4c-.52 2.14-1 4.31-1.47 6.46l-.72 3.23c-.22 1.08-.41 2.17-.61 3.25l-1.2 6.52c-.63 4.37-1.37 8.72-1.83 13.11-1.05 8.77-1.73 17.58-2 26.41a248.63 248.63 0 0 0 .53 26.47ZM231.52 260.48c-1.24-6-.83-12.21-.32-18.28.1-1.53.32-3 .51-4.55s.43-3 .66-4.54c.44-3 1-6 1.57-9 1.28-6 2.64-11.91 4.26-17.79.84-2.93 1.64-5.87 2.53-8.79l2.83-8.69h.09l-2.46 8.79c-.81 2.93-1.54 5.89-2.31 8.83s-1.42 5.92-2.14 8.87-1.3 5.95-1.91 8.93c-1.19 6-2.22 12-2.93 18-.33 3-.63 6.05-.72 9.09a43.78 43.78 0 0 0 .42 9.09Z"/><path fill="#da4557" d="m240.94 250.85-.44 3.1v.34l-.28 2-.61 4.3-1.33 9.34-.59 4.15-.67 4.72a1.68 1.68 0 0 1-.16.54 2 2 0 0 1-1.79 1.1l-7.25.16-7.26-.16a2 2 0 0 1-2-1.64l-4-27.91a1.93 1.93 0 0 1 2-2.13h22.33a1.93 1.93 0 0 1 2.05 2.09Z"/><path fill="#b53749" d="m240.94 250.85-.44 3.1v.34c-5.13.6-9.35.9-12.45 1.05-4.22.21-6.43.19-8 1.77-2.09 2.06-1.51 5.46-.94 8.83.68 4 1.31 7.77 4.72 10.6 5.08 4.22 12.08 2.95 13.06 2.76a2 2 0 0 1-1.79 1.1l-7.25.16-7.26-.16a2 2 0 0 1-2-1.64l-4-27.91a1.93 1.93 0 0 1 2-2.13h22.33a1.93 1.93 0 0 1 2.02 2.13Z"/><path fill="#4436a2" d="M222.87 225.94c-1.63-1.39-3-2.91-4.36-4.34q-1-1.09-2.1-2.1a18 18 0 0 0-2.38-1.87v-.09a8.67 8.67 0 0 1 2.77 1.38 16.93 16.93 0 0 1 2.34 2.05 33.39 33.39 0 0 1 3.79 4.92ZM233.36 231.48a7.64 7.64 0 0 1 2-1.5 13 13 0 0 1 2.28-1 11 11 0 0 1 4.94-.48v.09a45 45 0 0 0-4.69 1.25 37.87 37.87 0 0 0-4.53 1.69ZM239.14 205a8.6 8.6 0 0 1 2.51-2.26 13 13 0 0 1 3.08-1.41 13.35 13.35 0 0 1 3.32-.57 10.5 10.5 0 0 1 3.35.34v.09a23.47 23.47 0 0 0-3.24.27 20.26 20.26 0 0 0-3.17.74 19.1 19.1 0 0 0-3 1.18 15.34 15.34 0 0 0-2.78 1.68ZM230 195.48c-.73-.84-1.44-1.64-2.16-2.42s-1.43-1.54-2.2-2.25-1.51-1.45-2.31-2.15-1.62-1.39-2.43-2.18v-.08a23.31 23.31 0 0 1 2.8 1.68 20.28 20.28 0 0 1 2.53 2.08 18.67 18.67 0 0 1 2.14 2.48 15.36 15.36 0 0 1 1.68 2.81ZM216.44 186.49c-1.1-.26-2.14-.48-3.17-.7s-2.07-.41-3.11-.54-2.07-.29-3.13-.39-2.12-.18-3.25-.35v-.09a23.76 23.76 0 0 1 3.26-.27 21.12 21.12 0 0 1 3.27.2 20.44 20.44 0 0 1 3.18.76 15.37 15.37 0 0 1 3 1.3ZM217.06 179.09a8.69 8.69 0 0 1 .15-3.37 13.14 13.14 0 0 1 1.15-3.18 13.41 13.41 0 0 1 1.93-2.78 10.31 10.31 0 0 1 2.59-2.15l.06.06a23.67 23.67 0 0 0-2.08 2.51 22.68 22.68 0 0 0-3 5.76 15.61 15.61 0 0 0-.74 3.16ZM243.28 191.1a8.68 8.68 0 0 1 .24-3.37 13.16 13.16 0 0 1 1.24-3.15 13.34 13.34 0 0 1 2-2.72 10.24 10.24 0 0 1 2.64-2.08l.07.06a25 25 0 0 0-2.15 2.45 20.56 20.56 0 0 0-1.77 2.73 19.66 19.66 0 0 0-1.35 2.98 15.64 15.64 0 0 0-.83 3.14ZM219.5 204.43a20.94 20.94 0 0 1-2.63-1.17c-.84-.43-1.64-.9-2.45-1.36s-1.59-1-2.38-1.44-1.57-1-2.41-1.52v-.08a21.28 21.28 0 0 1 5.23 2.26 44.28 44.28 0 0 1 4.68 3.24ZM234.87 219.79a45.91 45.91 0 0 1-3-5.95c-.42-1-.86-2-1.26-3s-.84-2-1.24-3.1l.07-.06a30.52 30.52 0 0 1 3.26 5.82 56 56 0 0 1 2.24 6.29Z"/><rect width="29.54" height="2.74" x="175.07" y="82.75" fill="#fcd941" rx="1.09"/><rect width="29.54" height="2.74" x="175.07" y="87.95" fill="#fcd941" rx="1.09"/><rect width="29.54" height="2.74" x="175.07" y="93.15" fill="#2a1e4d" rx="1.09"/><path fill="#da4557" d="M237.65 83.1a14.91 14.91 0 1 0 .93 5.19 15 15 0 0 0-.93-5.19Zm-14 13.68a8.49 8.49 0 0 1 0-17 8.67 8.67 0 0 1 1.78.19 8.49 8.49 0 0 1-1.78 16.79Z"/><path fill="#fcd941" d="m226.09 81.43 3.9-8.57a13.46 13.46 0 0 1 5.18 2.89 13.68 13.68 0 0 1 4 6.36l-8.74 4a6.63 6.63 0 0 0-1.28-2.54 6.75 6.75 0 0 0-3.06-2.14Z"/><circle cx="188.28" cy="24.24" r="8.53" fill="#ccccd0"/><path fill="#fff" d="M190.36 21.45a2.08 2.08 0 1 1-2.08-2.08 2.09 2.09 0 0 1 2.08 2.08ZM191.79 27.32v1.8h-7v-1.8c0-1.84 1.18-3.34 2.63-3.34h1.76c1.43.02 2.61 1.5 2.61 3.34Z"/><path fill="#7a84f1" d="M196.18 58.56s3.07-4.24 3.22-5.09c.25-1.39-.12-3.14.83-3.69a1.15 1.15 0 0 1 1-.1c1.51.59.82 5.45.75 5.89l2.7.08c2 .07 2.73.12 3.08.63a1.39 1.39 0 0 1 .16 1.17 1.51 1.51 0 0 1-.84.86 1.5 1.5 0 0 1 .9 1.58 1.57 1.57 0 0 1-.82 1.06 1.49 1.49 0 0 1-.88 2.28s.83 2.16-1.42 2.11-6 .17-7.38-.38-1.48-1.43-1.48-1.43Z"/><path fill="#6f6ac7" d="M193.94 65.65a2.75 2.75 0 0 1-2.75-2.75v-3.53a2.75 2.75 0 0 1 2.75-2.75 2.75 2.75 0 0 1 2.75 2.75v3.53a2.75 2.75 0 0 1-2.75 2.75Z"/><path fill="#da4557" d="M236.25 39.27a6.09 6.09 0 0 1-1.93 3.73l-6.58 6.59-.13-.13-6.45-6.46a4.2 4.2 0 0 1-.41-.44c-1.83-2.1-1.88-4.34-.95-5.93 1.35-2.32 4.77-3.25 7.81-.33l.13.12c4.05-4.03 8.87-1.12 8.51 2.85ZM250.31 64.28a2.6 2.6 0 0 1-.81 1.58l-2.76 2.75h-.05l-2.7-2.7-.17-.19a2.08 2.08 0 0 1-.4-2.48c.56-1 2-1.36 3.27-.14l.05.05c1.7-1.75 3.72-.53 3.57 1.13Z"/></g><g data-name="woman 1"><path fill="#da4557" d="M183.61 144.23v31.4a15.94 15.94 0 0 1-15.93 15.94h-28.52a16 16 0 0 1-15.94-15.94v-31.4a15.94 15.94 0 0 1 12.38-15.53 15.54 15.54 0 0 1 3.56-.4h28.52a16 16 0 0 1 15.93 15.93Z"/><path fill="#f3f2f6" d="M183.61 144.23v18.62a34.53 34.53 0 0 1-9.17.69c-1.2-.06-27.09-1.79-36.08-22.64a34.65 34.65 0 0 1-2.76-12.2 15.54 15.54 0 0 1 3.56-.4h28.52a16 16 0 0 1 15.93 15.93Z" opacity=".22"/><path fill="#b53749" d="M180.21 185.47a15.92 15.92 0 0 1-12.53 6.1h-28.52a16 16 0 0 1-15.94-15.94V152.1c4.07 12.53 15.17 28.35 45.05 30.87 5.3.45 9.2 1.31 11.94 2.5Z"/><path fill="#ccccd0" d="M157.58 196v81.9c0 .38-.22.69-.5.69h-4.4c-.27 0-.49-.31-.49-.69V196c0-.38.22-.69.49-.69h4.4c.28.01.5.32.5.69Z"/><path fill="#b53749" d="M186.18 187.18h-.1a208 208 0 0 1-32.39 2.6h-.27a206.48 206.48 0 0 1-32.66-2.6h-.1a7.5 7.5 0 0 0-.07 15 162.57 162.57 0 0 0 32.55 3.35h.27a163.07 163.07 0 0 0 32.83-3.35 7.5 7.5 0 0 0-.06-15Z"/><path fill="#ada2b5" d="M152.19 261.57h5.39v12.83h-5.39z"/><path fill="#ccccd0" d="M158.71 272.09h-7.65a7.27 7.27 0 0 0-7.27 7.26.69.69 0 0 0 .7.69h20.79a.69.69 0 0 0 .69-.69 7.26 7.26 0 0 0-7.26-7.26Z"/><path fill="#261b66" d="M134.08 195.34c-1.6-.6-9.18-3.64-10.55-10-.78-3.65.82-6.84 3.89-13a65.43 65.43 0 0 1 6.49-10.34l38.89-2.59c8.72 12 10.79 25.36 5.19 32.41-5.12 6.43-15.74 6.46-24.64 6.48a63.62 63.62 0 0 1-19.27-2.96Z"/><path fill="#fcd941" d="M179.28 164.59c-19.44 5.18-50.83.12-50.83.12.33-1 .68-2 1-3l.06-.19a122.62 122.62 0 0 0 3.23-12 125.36 125.36 0 0 0 2.44-16c.14-1.58.25-3.15.31-4.68.07-1.18.11-2.32.13-3.45a127 127 0 0 0-1.23-21 3.32 3.32 0 0 1 2.81-3.77c2.84-.43 5.48-.74 7.92-1a70.66 70.66 0 0 1 15.79 0c7.59 1 11.3 3.74 13.16 6.67 2.82 4.43 1.32 9.24.45 18-.21 2-.37 4.18-.45 6.63-.05 1.78-.05 3.53 0 5.23 0 1.85.16 3.64.31 5.38.07.86.16 1.71.25 2.53a95.39 95.39 0 0 0 2.74 14.29c.14.56.29 1.1.44 1.63.49 1.65.99 3.19 1.47 4.61Z"/><path fill="#f8b321" d="M177.38 158.33c-1.44.54-3 1-4.48 1.5-6.35 1.9-27.15 2-43.37 1.67a122.62 122.62 0 0 0 3.23-12 125.36 125.36 0 0 0 2.44-16c.14-1.58.25-3.15.31-4.68l.09-.1c2.94 5.68 6.38 8.17 9 9.38 5.91 2.72 10.46.26 19.57 2.18a40.44 40.44 0 0 1 10.47 3.72c.27 2.41.65 5 2.74 14.33Z"/><path fill="#f8b321" d="M177.83 160c-5.73.51-12.47 1.11-13.61 1.25 1.3-.53 6.45-7.36 7.42-15.6 1-8.57-2-22.19-2-22.19l4.92.84c-.2 2-.37 4.18-.44 6.62-.06 1.79-.06 3.54 0 5.24 0 1.85.16 3.65.31 5.39a94.92 94.92 0 0 0 3.4 18.45Z"/><path fill="#f8b321" d="M179.28 164.6c-19.44 5.17-50.83.11-50.83.11.15-.48.32-1 .51-1.48a29.44 29.44 0 0 1 1.53-3.4c3.14.06 7.64.1 13 0 20.67-.37 24-2.2 26.08-4.13 1.68-1.59 4.83-5.43 4.77-14.19a97.34 97.34 0 0 0 4.94 23.09Z"/><path fill="#fcd941" d="M141.73 112.05c-.57 1.13-1.43 2.85-2.44 4.94-1.57 3.25-5.3 11.14-9.57 19.53-.82 1.6-1.64 3.22-2.49 4.83a11.3 11.3 0 0 1-3.23 4.35 9.06 9.06 0 0 1-2.84 1.4 16.37 16.37 0 0 1-6-2.83 6.35 6.35 0 0 1-1.86-2.67c.5-1.85 1.08-3.79 1.76-5.78a93.58 93.58 0 0 1 13.79-26.36 91.61 91.61 0 0 1 6.19-7.4 1.48 1.48 0 0 1 2.45.41Z"/><path fill="#fccca8" d="M138.85 275.14c-.68 3.4-4.87 8.07-5.82 7.52s-4-7.58-3.28-11.46.91-7.31 2-9.69c0-.06 0-.11.07-.17a15.54 15.54 0 0 0 .76-4s0-.09 0-.25c.1-1.07.49-5.46.95-9.74.53-1.52.92-1.77 1.07-1.85 1.13-.65 3.09.15 4.43 1.21.1 2.59.18 5.41.18 7 0 .37-.05.76-.05 1.14v.15c-.09 2.63 0 5.45-.09 6.92v1.6c.02 3.37.36 8.75-.22 11.62Z"/><path fill="#dc4759" d="M138.85 275.14c-.68 3.4-4.87 8.07-5.82 7.52s-4-7.58-3.28-11.46.91-7.31 2-9.69c0-.06 0-.11.07-.17a28.21 28.21 0 0 0 .25 3.13c.36 2.47-.49 8.79 1.93 9.42 1.8.47 4-6.17 5.06-10.37.03 3.37.37 8.75-.21 11.62Z"/><path fill="#fccca8" d="M176.57 274.86c.2 3.46-2.68 9-3.73 8.75s-5.77-6.33-6.07-10.27-1-7.29-.49-9.89a.88.88 0 0 0 0-.17 15.14 15.14 0 0 0-.28-4.07s0-.09 0-.25c-.17-1.06-.9-5.41-1.54-9.66.13-1.61.45-2 .56-2.07.93-.91 3-.63 4.6.06.75 2.48 1.54 5.18 1.94 6.73.07.37.15.75.24 1.12v.11c.58 2.57 1.38 5.27 1.67 6.71.08.44.22 1 .37 1.56.88 3.29 2.56 8.42 2.73 11.34Z"/><path fill="#dc4759" d="M176.57 274.86c.2 3.46-2.68 9-3.73 8.75s-5.77-6.33-6.07-10.27-1-7.29-.49-9.89a.88.88 0 0 0 0-.17 26.49 26.49 0 0 0 1 3c1 2.3 1.74 8.64 4.24 8.63 1.86 0 2.32-7 2.27-11.31.93 3.21 2.61 8.34 2.78 11.26ZM207.64 116.2v.09a.07.07 0 0 1 0-.05Z"/><path fill="#4a31a1" d="M148.59 198.91c-.11.38-.22.76-.35 1.15s0 .85 0 1.35v5.18c-.06 1.61-.32 5.22-1.46 13.08-.34 2.34-.75 4.8-1.28 7.58-1.25 6.56-2.91 16.05-4.57 28.27a8 8 0 0 1-5.48 2.18 7.69 7.69 0 0 1-3.65-1.09c.69-21.8.44-33 0-39.15a79.31 79.31 0 0 1 1.83-23.92 34.82 34.82 0 0 1 1.82-7.61c1.36-3.71 2.29-6.24 4.57-7.61a6.56 6.56 0 0 1 8.22 1.08c1.57 1.83 1.7 4.27 1.83 7.62a37.9 37.9 0 0 1-1.48 11.89Z"/><path fill="#f8b321" d="M162 99.59c-1 3.66-4.16 8.42-10 7.69-6-.74-6.14-5.38-5.83-7.72a70 70 0 0 1 15.83.03Z"/><path fill="#fcd941" d="M156.91 148.76a7.25 7.25 0 0 1-.79 1.79 8.15 8.15 0 0 1-1.23 1.52c-1.12-.08-4.74-.35-9.38-.82-7.51-.78-17.69-2.12-24.38-4.15a16.37 16.37 0 0 1-6-2.83 6.35 6.35 0 0 1-1.86-2.67 5.65 5.65 0 0 1-.17-.76 6.55 6.55 0 0 1 1.93-5 16.8 16.8 0 0 1 2.89-2.61l11.79 3.31 18.34 5.15 8.69 2.44c.05.16.13.39.21.68a7.75 7.75 0 0 1 .21 1.2 7 7 0 0 1-.25 2.75Z"/><path fill="#fccca8" d="M153.86 147.33a29.87 29.87 0 0 1 3.83-3c1.68-1 7.65-1.67 9.25-2s10.95 2.53 11.21 3.26-.89 1.62-1.73 1.35-5.87-1.58-5.87-1.58 7 2.23 6.92 2.92a1.17 1.17 0 0 1-1.33 1.05c-.69-.08-7.73-2-7.73-2s6.36 1.8 6.81 2.38-.36 1.51-.89 1.62-6.44-1.12-6.44-1.12 5 1.3 5 2-1.23 1.58-3.92.91-9.13-1.79-9.13-1.79l-4.65-1a2 2 0 0 1-1.28-3Z"/><path fill="#fff" d="m158.81 141.6-3.92 10.46-9.98 1.44 3.46-13.02 10.44 1.12z"/><path fill="#fcd941" d="M163.65 112.05c.57 1.09 1.45 2.81 2.46 4.94 3.15 6.66 4.63 11 7.88 18.92 4.5 11 5.46 11.88 6.52 12 3.26.24 6.36-7.43 7.61-10.87a260.76 260.76 0 0 0-9.79-26.1c-1.32-3-3.44-7.42-7.2-8a6.38 6.38 0 0 0-3.67.61Z"/><path fill="#fcd941" d="m179.52 139.25 37.24-15.45a7.48 7.48 0 0 1 3 3.55 7.39 7.39 0 0 1 .45 3.85c-3 2.06-28.26 19.08-36.05 18.47a5.9 5.9 0 0 1-3.72-1.45c-2.65-2.58-1.27-7.75-.92-8.97Z"/><path fill="#f8b321" d="M164.22 161.21h-.15q-.07.03.15 0Z"/><path fill="#261b66" d="M137.28 189.81s.42-.64 1-.62a1.21 1.21 0 0 1 .84.62c.56.8 2.21 3.17 3.65 3.49 1.83.4 4.09-2.37 4.56-2.09.24.14-1.83 3.48-1.83 3.48s-1.82 3.49-4.55 1.4c-.38-.29-4-7.25-3.65-6.28Z" opacity=".34"/><path fill="#4a31a1" d="M157 198.91c.11.38.22.76.34 1.15s0 .85 0 1.35v5.18c.07 1.61.32 5.22 1.46 13.08.34 2.34.75 4.8 1.28 7.58 1.25 6.56 2.92 16.05 4.57 28.27a8.09 8.09 0 0 0 5.48 2.18 7.69 7.69 0 0 0 3.65-1.09c-.68-21.8-.43-33 0-39.15a79.73 79.73 0 0 0-1.78-23.92 35 35 0 0 0-1.83-7.61c-1.35-3.71-2.28-6.24-4.57-7.61a6.56 6.56 0 0 0-8.22 1.08c-1.57 1.83-1.7 4.27-1.82 7.62a37.6 37.6 0 0 0 1.44 11.89Z"/><path fill="#261b66" d="M168.31 189.81s-.42-.64-1-.62-.73.45-.85.62c-.56.8-2.21 3.17-3.65 3.49-1.83.4-4.08-2.37-4.55-2.09-.25.14 1.82 3.48 1.82 3.48s1.82 3.49 4.56 1.4c.37-.29 4-7.25 3.64-6.28Z" opacity=".34"/><path fill="#ada2b5" d="M165.28 276.78h-20.79a.59.59 0 0 1-.2 0 7.09 7.09 0 0 0-.5 2.61.69.69 0 0 0 .7.69h20.79a.69.69 0 0 0 .69-.69 7.29 7.29 0 0 0-.49-2.61.65.65 0 0 1-.2 0ZM246.61 153.86h3.97v127.32h-3.97zM101.14 153.86h3.97v127.32h-3.97z"/><path fill="#fab598" d="m158 87 1.85 16.87a6.31 6.31 0 0 1-6.94 3.63 6.24 6.24 0 0 1-4.72-4.9q.53-6 1-12Z"/><path fill="#8d3025" d="M164.71 67.87a24.82 24.82 0 0 1 1.63 3.13 32.21 32.21 0 0 1 1.16 3.39 20.28 20.28 0 0 1 .68 7.22 10.38 10.38 0 0 1-3.24 6.62 10.92 10.92 0 0 1-6.71 2.53v-.09a11.94 11.94 0 0 0 6.24-3 10 10 0 0 0 2.84-6.22 21.46 21.46 0 0 0-.48-7 34 34 0 0 0-2.19-6.66Z"/><path fill="#8d3025" d="M139.85 79.47a19 19 0 0 1 1.66-11.53 13.84 13.84 0 0 1 5.69-6.18c5.22-2.69 10.47.29 12.66 1.53a10.84 10.84 0 0 1 3.63 2.71c4.43 5.52 3.31 17.71-2.5 22.17a10.49 10.49 0 0 1-6.34 1.94 14.79 14.79 0 0 1-11-4.48 17.78 17.78 0 0 1-3.8-6.16Z"/><path fill="#8d3025" d="M159.06 62.33s1.59-12.53 6.28-9.39 8.78 13.53-.82 16.45-5.46-7.06-5.46-7.06Z"/><path fill="#8d3025" d="M157.26 63.38a16.39 16.39 0 0 1-.62-5.68 11 11 0 0 1 1.81-5.64 5 5 0 0 1 1.18-1.16 3 3 0 0 1 1.74-.57 4.43 4.43 0 0 1 2.93 1.4 12.36 12.36 0 0 1 1.81 2.27 14.82 14.82 0 0 1 1.18 2.6h-.08a15.28 15.28 0 0 0-3.36-4.41 4 4 0 0 0-2.46-1.09 3 3 0 0 0-2.22 1.42 11.58 11.58 0 0 0-1.82 5.2 22.57 22.57 0 0 0 0 5.57Z"/><path fill="#fccca8" d="M159.85 76a49.71 49.71 0 0 1-1.52 12.63c-.56 2.09-1.22 3.78-2.74 5a19 19 0 0 1-3.41 1.73c-3 1.34-3.8 1.53-4.47 1.6a5.46 5.46 0 0 1-3.16-.39c-.39-.2-1.14-.66-2.77-3.54a21.48 21.48 0 0 1-1.73-3.41c-1.19-3.22-.61-6.39.34-11.71a16 16 0 0 1 1.69-5.13 11.72 11.72 0 0 1 1.51-2.21c2.1-2.02 8.82.34 16.26 5.43Z"/><path fill="#fccca8" d="M158.16 79.36s2-2.32 3.54-1.49c1.35.73 1.29 3.12 1 4.4-.72 2.83-3.59 4-4.08 4.25a1.36 1.36 0 0 1-1.05-.13c-1.11-.69-.79-3.49.59-7.03Z"/><path fill="#8d3025" d="M161.29 73 159 82.3a14.86 14.86 0 0 1-8.74-2.12l1.38-7.31-2.86 6.06-3.16-.38-1.89-.23.77-6.31-1.87 6.18s-1.24.92-3.2-1.46c0 0 .89-7.37 5.7-10S161.29 73 161.29 73Z"/><path fill="#fccca8" d="M217 123.85a25.25 25.25 0 0 1 6.49-5.72l2.68-1.51c1.39-.79 2.82-1.5 4.18-2.33 0 0 3.61-2.19 4.19-1.86a.59.59 0 0 1 .24.23.65.65 0 0 1 0 .46 1.22 1.22 0 0 1-.47.59c-.43.3-1.29 1-2.44 1.86l-3.14 2.91c1.32-.64 7.65-3.69 8.61-3.49.48.1.58.35.58.35a.7.7 0 0 1-.12.58c-.47.79-6.6 3.93-7.79 4.54a29.1 29.1 0 0 1 3.6-1.63c.82-.31 3.29-1.23 3.61-.7a.65.65 0 0 1 0 .46 1.25 1.25 0 0 1-.58.7c-.53.34-2.7 1.65-5.7 3.38a11.37 11.37 0 0 0 3.37-.93c.82-.38 1.81-1 2.33-.59a.61.61 0 0 1 .23.35c.08.45-.54.9-.93 1.17-1.62 1.13-2.43 1.7-3.49 2.32-.37.22-1.15.68-2.1 1.28-.21.14-2.6 1.67-3.7 2.24a7.49 7.49 0 0 1-1 .44 6 6 0 0 1-.6.2 8.5 8.5 0 0 1-3.09.33l-2.64-.2Z"/><path fill="#fccca8" d="M218.57 122.42s3.75-6 5.48-8.51 2-.4 1.43 1.46c-.39 1.25-.27 2.19-.66 3.44a7.53 7.53 0 0 1-1.09 2.15c-1.24 1.74-3.54 3.36-4.59 2.66a1.55 1.55 0 0 1-.57-1.2Z"/><path fill="#fab598" d="M224.9 118.24a6.46 6.46 0 0 1 .09 2 7.34 7.34 0 0 1-.49 2 4.14 4.14 0 0 1-1.28 1.69 2 2 0 0 1-.47.26 1.55 1.55 0 0 1-.51.18 2.55 2.55 0 0 1-1 0 2.87 2.87 0 0 0 1.79-.67 4.11 4.11 0 0 0 1.09-1.6 10.61 10.61 0 0 0 .76-3.82Z"/><path fill="#fff" d="m216.83 120.55 3.39 10.65-6.95 7.3-5.34-12.38 8.9-5.57zM153.33 107.64 146.8 112s-5.4-5.43-4.88-12l6.24-.9s-2.45 4.19 5.17 8.54Z"/><path fill="#fff" d="m152.28 107.82 3.57 5.33a11.78 11.78 0 0 0 7.55-5.69 13.94 13.94 0 0 0 1.73-6.58l-6.37-1.94a6.25 6.25 0 0 1-.32 4.33c-.51 1.03-1.22 1.63-6.16 4.55Z"/><path fill="#261b66" d="m238.8 116.82-13.06 30a.39.39 0 0 1-.32.24h-47a.43.43 0 0 1-.36-.51.41.41 0 0 1 .05-.18l13.73-28.24.88-1.8a.34.34 0 0 1 .3-.22h45.48c.25.04.43.41.3.71ZM155.45 147.09l1.13-3.16h4.67l.65 3.33-6.45-.17z"/><path fill="#261b66" d="m161.16 147.12 1.14-3.16h4.67l.65 3.33-6.46-.17z"/><path fill="#261b66" d="m167.14 147.12 1.13-3.16h4.67l.65 3.33-6.45-.17z"/><path fill="#261b66" d="m172.94 147.12 1.14-3.16h4.67l.65 3.33-6.46-.17z"/><path fill="#261b66" d="M153.21 146.41h72.48v4.56h-72.48z"/><path fill="#c1afaa" d="M89.56 151.18h173.1v5.39H89.56z"/></g><g data-name="man 1"><path fill="#8d3025" d="m106.93 29.87-3.02 8.73-1.24.06-.26-9.86 4.72-3.75-.2 4.82z"/><path fill="#8d3025" d="M105.9 32.86a47.757 47.757 0 0 0-1.64 6.84l-1.53.2c0-.37-.07-1-.17-1.83-.33-2.83-.75-3.85-.62-5.77.35-5.3 3.96.56 3.96.56Z"/><path fill="#f8f1e8" d="M50.5 255.93c-.78 2.63-1.55 5.26-2.33 7.88l-2.91 9.85c-1 3.48-5.84 6.23-7.95 5.15-2.29-1.19-1.43-6.87-1.39-7.15q2.17-9.06 4.34-18.13Z"/><path fill="#2a1e4d" d="M30.83 282.42c1.3.12 3.23.25 5.57.26 4.1 0 5.41-.39 8.85-.52 5.32-.21 5.83.59 10.93.52a49.76 49.76 0 0 0 9.37-1s.89-.1 1.13-.68a1.57 1.57 0 0 0-1.2-1.88q-3.94-1.15-8.33-2.83l-.5-.19a42.16 42.16 0 0 1-8.79-4.83l-2-1.68A4 4 0 0 0 43 272.6a6.88 6.88 0 0 0-.19 1.6c-.89.55-2.41 1.46-3.66 1.18a1.63 1.63 0 0 1-.44-.15c-.94-.47-.8-1.41-2.06-3.08a10.31 10.31 0 0 0-1.9-1.94.2.2 0 0 0-.27 0c-.3.63-.61 1.26-.91 1.9a.31.31 0 0 0-.05.1 14.51 14.51 0 0 0-.73 1.43 21.07 21.07 0 0 0-1.27 3.6 20.44 20.44 0 0 0-.69 5.18Z"/><path fill="#2a1e4d" d="M54.76 283.63a39.66 39.66 0 0 1-5-.3 39.28 39.28 0 0 0-9.52-.06 41.5 41.5 0 0 1-9.9-.08.9.9 0 0 1-.79-1 .91.91 0 0 1 1-.78 39.28 39.28 0 0 0 9.52.06 41.06 41.06 0 0 1 9.91.08 44.84 44.84 0 0 0 16.15-1.19.91.91 0 0 1 .51 1.74 46.33 46.33 0 0 1-11.88 1.53Z"/><path fill="#561b14" d="M77.46 142.62s-8.74 60.18-9.57 64-16.77 57.89-16.77 57.89a21.73 21.73 0 0 1-16.06-3.43c1-8.42 2.35-17.48 4.3-27a313.8 313.8 0 0 1 8.94-34l-3.18-49.44s-8.21-17.59 3.19-29.1S78.16 125 78.16 125Z"/><path fill="#f8f1e8" d="M81.52 252.6v18.48c0 3.64-3.83 7.63-6.16 7.19-2.54-.48-3.33-6.18-3.36-6.45l-1-18.62Z"/><path fill="#261b66" d="M68.19 282.38c1.3.12 3.23.25 5.57.26 4.1 0 5.41-.39 8.85-.52 5.32-.21 5.83.59 10.93.52a49.76 49.76 0 0 0 9.37-1s.88-.1 1.13-.68a1.57 1.57 0 0 0-1.21-1.88 112.3 112.3 0 0 1-8.32-2.82L94 276a42.14 42.14 0 0 1-8.78-4.83l-2-1.68a3.94 3.94 0 0 0-2.92 3.05 6.38 6.38 0 0 0-.19 1.6c-.89.55-2.41 1.46-3.67 1.18a1.91 1.91 0 0 1-.44-.15c-.93-.47-.8-1.41-2.05-3.08a10.62 10.62 0 0 0-1.9-1.94.22.22 0 0 0-.28 0c-.29.63-.6 1.26-.9 1.9a.31.31 0 0 0 0 .1 14.51 14.51 0 0 0-.73 1.43 20.94 20.94 0 0 0-1.91 8.74Z"/><path fill="#2a1e4d" d="M92.12 283.59a39.66 39.66 0 0 1-5-.3 39.28 39.28 0 0 0-9.52-.06 41.5 41.5 0 0 1-9.9-.08.9.9 0 1 1 .22-1.79 39.28 39.28 0 0 0 9.52.06 41.58 41.58 0 0 1 9.91.08 44.84 44.84 0 0 0 16.15-1.19.9.9 0 0 1 1.12.61.91.91 0 0 1-.61 1.13 46.33 46.33 0 0 1-11.89 1.54Z"/><path fill="#fccca8" d="M64.37 112.19c-1 2.67 3.88 13.06 4.06 13.32s2.49 3.06 4.63 5.62c1.71 2 3.28 3.87 3.44 3.92a1.32 1.32 0 0 0 .75-.18 1 1 0 0 0 .52-1.41l-2.18-3.83-2-3.43 3.11 3.57 5.5 6.3a1 1 0 0 0 .68.33 1.16 1.16 0 0 0 1.25-1.15v-1.5l1.24.7a.78.78 0 0 0 .84-.06l.15-.11a.75.75 0 0 0 .2-1.06l-4.71-6-2.71-3.46 3.2 3 4.42 4.13a.81.81 0 0 0 1 0l.24-.17a.78.78 0 0 0 .17-1.15l-3.88-4.3-3.66-4.06-7.16-9.21-2.61-4.37s-5.54 1.89-6.49 4.56Z"/><path fill="#fccca8" d="M70.85 108.27a15.85 15.85 0 0 1 5.06 4.52c2.75 3.46 8.63 5.12 7.63 7.11s-2.79.28-5.1-.36-5.13-1.19-8-3.75-1.44-7.08.41-7.52Z"/><path fill="#fab598" d="M77.67 118.88a4 4 0 0 1-3 1.38 5.45 5.45 0 0 1-2.91-.75 5.58 5.58 0 0 1-2-2.07 5 5 0 0 1-.58-3.13l.21-.18c.58.58 1.17 1.14 1.79 1.66a13.52 13.52 0 0 0 2 1.37 10.51 10.51 0 0 0 2.18 1 8.7 8.7 0 0 0 2.35.44ZM87.76 130.9l.24-.17a.78.78 0 0 0 .17-1.15l-3.88-4.3a8.28 8.28 0 0 0-1.69 1.21l-.26.24 4.42 4.13a.81.81 0 0 0 1 .04ZM76.74 129.77l5.5 6.3a1 1 0 0 0 .68.33 1.16 1.16 0 0 0 1.25-1.15v-1.5l1.24.7a.78.78 0 0 0 .84-.06l.15-.11a.75.75 0 0 0 .2-1.06l-4.71-6a13.65 13.65 0 0 1-3.31 2.6 3.16 3.16 0 0 1-1.84-.05ZM73.07 131.13c1.71 2 3.28 3.87 3.44 3.92a1.32 1.32 0 0 0 .75-.18 1 1 0 0 0 .52-1.41l-2.18-3.83a2.75 2.75 0 0 0-2.53 1.5Z"/><path fill="#6f6ac7" d="M87 52.4s-11-2-19.39 1.87C61.53 57.08 48.9 71 42.36 78.5a8.69 8.69 0 0 0-.89 10.2l13.79 22.92a7.15 7.15 0 0 0 3.94 3.12l.7.22a7.11 7.11 0 0 0 6-.78l3.45-2.18a7.2 7.2 0 0 0 3.26-5.25l.18-1.62a7.16 7.16 0 0 0-1.08-4.64l-10-15.7c5.82-5.37 10.56-10 14.15-13.66a42.09 42.09 0 0 0 6.64-8A37 37 0 0 0 87 52.4Z"/><path fill="#fab598" d="M131.08 132.91a14.71 14.71 0 0 1 1.55.55c3.72 1.56 3.59 3.19 6.94 4.86.92.45 2.35 1 2.4 2a.66.66 0 0 1-.1.45c-.44.68-2.24.23-3.05 0-2.45-.63-5.9-1.53-7.24-4.68a6.77 6.77 0 0 1-.5-3.18Z"/><path fill="#fab598" d="M125.3 130.53a21.38 21.38 0 0 1 6.52 2.77c2.71 1.75 2.45 2.5 6 5.73 1.68 1.52 7.69 6.73 8.11 8.75a.68.68 0 0 1-.06.51c-.34.46-1.56.23-3.09-1.22-1.94-1.85-5.59-4.55-5.59-4.55s3 3.5 3.24 4.5-1 2.15-1.75 1.5-3.79-4.16-3.79-4.16 3 3.51 3.14 5-1.3 1.59-2.45.39a21 21 0 0 1-2.19-2.85s2 1.4 1.19 3.1a.65.65 0 0 1-.34.35c-1 .4-3.14-2.41-4.1-3.7-2.95-3.94-3.38-6-6.35-9.43-.57-.67-1.07-1.19-1.4-1.53Z"/><path fill="#61251b" d="M84.63 141.23a54.35 54.35 0 0 1-41.22-9.09 31.23 31.23 0 0 1 4.87-17c10.91 3.3 25.06 7.94 34.81 12.46.32 3.22.65 6.45 1 9.67.18 1.36.36 2.67.54 3.96Z"/><path fill="#fccca8" d="M99.23 46q-1.92 8.24-3.83 16.47A20.92 20.92 0 0 1 80.06 58l11.65-27.19Z"/><path fill="#fccca8" d="M113.62 29.17a136.86 136.86 0 0 1-4.15 15.26c-1.21 3.58-2.33 6.37-4.91 7.42a7.06 7.06 0 0 1-4.74 0c-4.16-1.13-12.64-5.4-14.6-14.34-1.75-8 1.81-19.3 10.47-21.06 6.94-1.45 15.31 3.71 17.93 12.72Z"/><path fill="#8d3025" d="M111.74 17.36A9.17 9.17 0 0 1 122 25.07c.35 2.31 0 6-2.42 7.72s-6 .92-9.14.26c-2.65-.56-3.6-1.24-4.88-.71-1.94.8-2.68 3.52-3 5.81a2.86 2.86 0 0 0-.92-2.28 2.29 2.29 0 0 0-1.53-.53 2.25 2.25 0 0 0-1.25.54 4.32 4.32 0 0 0-1.36 4.18c.17.69.45 1 2.08 3.17a10.55 10.55 0 0 1-4.55 1.84A10.89 10.89 0 0 1 88 43.61a21 21 0 0 1-4.33-10.79c-.11-1.18-.83-10.78 6.1-16.22a16.28 16.28 0 0 1 6.39-2.92c7.9-1.77 14.32 2.75 15.58 3.68Z"/><path fill="#8d3025" d="M104.55 35.34s-.43 5.48.92 7.92a3 3 0 0 0 1.12 1.29c1.19.55 2.3-.54 2.88-.12.81.59-.39 3.51-.93 4.81-1.74 4.16-2.61 6.24-4.54 6.76s-4.22-.8-4.74-1.14a5.4 5.4 0 0 1-1.66-1.56c-2.21-3.66 5.08-9.73 5.3-17.09.03-.64.04-2.56 1.65-.87Z"/><path fill="#7a84f1" d="M96.07 100.83c-.52 1.7-.43 1.26-1.84 5.63s-3 9.39-4.58 14.88c-1.43 4.87-2.93 10.16-4.46 15.87a49.28 49.28 0 0 1-29.56-2.44c-.77-.32-1.52-.66-2.25-1a48 48 0 0 1-13-9.23c6.88-18.13 12.77-33.54 18.86-49.7C62.18 67 68 51.59 77.05 50.63a14.73 14.73 0 0 1 3.09 0 25.05 25.05 0 0 1 3 .53c6 1.45 12.34 7.57 12.34 7.57a33 33 0 0 1 2.56 5.12 37 37 0 0 1 2.33 11.87s.51 9.46-4.3 25.11Z"/><path fill="#6f6ac7" d="M96.07 100.83c-1.91 5.72-4.08 12.55-6.42 20.51-7.09-10.41-9.23-30.56-9.23-30.56ZM99.82 63.73a30.09 30.09 0 0 1-8-1.7 18.43 18.43 0 0 1-7.23-4.11 17.11 17.11 0 0 1-4.43-7.24 25.05 25.05 0 0 1 3 .53c6 1.45 9.83 5.11 12.34 7.57a37.65 37.65 0 0 1 4.32 4.95Z"/><path fill="#6f6ac7" d="M94.23 106.46c-1.43 4.43-3 9.39-4.58 14.88-1.43 4.87-2.93 10.16-4.46 15.87a49.28 49.28 0 0 1-29.56-2.44c-.77-.32-1.52-.66-2.25-1a46 46 0 0 0 16.68-.77c14.32-3.6 14.55-27.46 14.55-27.46Z"/><path fill="#2a1e4d" d="m97.64 60.42-2.15.1c-.85 0-1.48 1.1-1.42 2.35l.08 1.59a3 3 0 0 0 .32 1.25c.64 1.27 1.29 2.53 1.94 3.79a1.48 1.48 0 0 0 1.32 1h.82a1.49 1.49 0 0 0 1.22-1.07l1.56-4a3.11 3.11 0 0 0 .19-1.27l-.08-1.59c-.06-1.26-.8-2.24-1.64-2.2Z"/><path fill="#2a1e4d" d="m104.23 116.42-.65 3.14-2.93 14.12-2.28-6.95-.78-2.4-1.78-5.41-.19-.6-.21-.65.14-7.1.07-3.6.16-8.07.02-.89.16-8.08.07-3.59.16-8.07.02-.89.19-9.37 3.44-.17.37 4.03.07.77.63 6.98.28 3.11.63 6.98.07.78.63 6.97.28 3.11.63 6.98.07.78.63 6.97.1 1.12z"/><path fill="#ada2b5" d="m100.28 72.64-4.09 5.63.02-.89 4-5.51.07.77zM101.19 82.73l-5.23 7.2.07-3.59 4.88-6.72.28 3.11zM101.89 90.49l-6.11 8.41.02-.89 6.02-8.3.07.78zM102.8 100.57l-7.25 10 .07-3.6 6.9-9.51.28 3.11zM103.5 108.33l-7.69 10.59-.19-.6 7.81-10.77.07.78zM104.23 116.42l-.65 3.14-5.21 7.17-.78-2.4 6.54-9.03.1 1.12z"/><path fill="#7a84f1" d="m79.94 49.87 5.11-4.49 13.76 9v7.57s-19.93-5.27-18.87-12.08Z"/><path fill="#6f6ac7" d="m69.09 138.8-.68-.6c2-2.23 10.51-28.7 14.75-42.38l.87.27c-.5 1.62-12.37 39.77-14.94 42.71ZM127.55 128.72l2.91 2.91s-4.77 7-7.21 6.75l-2.45-2.91Z"/><path fill="#7a84f1" d="M76.13 82.48q6.83 15 13.64 30.07l24.81 24.81a5.19 5.19 0 0 0 7.58-.27l5.25-6a5.2 5.2 0 0 0 0-6.82l-18.33-20.94a160.56 160.56 0 0 0-7.63-21.71c-4.14-9.48-6.31-11.89-9.23-13.1-5.54-2.28-12.17.42-12.61.74l-.23.17a10.77 10.77 0 0 0-3.23 13.09Z"/></g></svg>