<svg xmlns="http://www.w3.org/2000/svg" enable-background="new 0 0 800 800" viewBox="58.876 118.136 662.737 563.581"><path fill="#f8f9fe" d="M581.9 419.8c-13 7.5-34 7.5-47.1 0-13-7.5-13.1-19.7-.2-27.3 13-7.5 34.1-7.5 47.1 0 13.1 7.5 13.2 19.7.2 27.3zM234 567.4c-13 7.5-34 7.5-47.1 0-13-7.5-13.1-19.7-.2-27.3 13-7.5 34.1-7.5 47.1 0 13.1 7.5 13.1 19.8.2 27.3zM681.5 644.3c-13.4 7.8-35.1 7.8-48.6 0s-13.6-20.4-.2-28.2c13.4-7.8 35.2-7.8 48.6 0 13.5 7.8 13.6 20.4.2 28.2z"/><linearGradient id="a" x1="566.659" x2="540.713" y1="452.532" y2="439.134" gradientUnits="userSpaceOnUse"><stop offset="0" stop-color="#f1eff6"/><stop offset="1" stop-color="#b6bce1" stop-opacity="0"/></linearGradient><path fill="url(#a)" d="M551.2 451c-1.3.8-2.3 1.8-2.7 2.9-.6 1.9.5 3.7 2.6 5 1.3.8 3.1 1.3 5.1 1.6l32 3.6c2.4.3 4.7-.2 6.3-1.1 1-.6 1.7-1.3 2-2.1.5-1.4-.3-2.7-1.9-3.7-1-.6-2.2-1-3.7-1.1l-33.8-3.8c-.3 0-.5 0-.7.1-.1.1-.2.1-.2.2-.1.2.2.5.6.5l33.8 3.8c1.1.1 2.1.4 2.9.9 1.2.7 1.9 1.8 1.5 2.9-.2.7-.8 1.2-1.5 1.7-1.3.7-3.1 1.1-4.9.9l-32-3.6c-1.7-.2-3.1-.7-4.2-1.3-1.8-1.1-2.7-2.6-2.2-4.2.3-1 1.1-1.8 2.3-2.5 1.8-1.1 4.5-1.6 7.3-1.3l33.2 3.7c2.3.3 4.3.9 5.9 1.8 2.5 1.5 3.8 3.6 3.1 5.8-.4 1.3-1.6 2.5-3.1 3.4-2.6 1.5-6.3 2.2-10.1 1.8l-15.9-1.8c-.3 0-.5 0-.7.1-.1.1-.2.1-.2.2-.1.2.2.5.6.5l15.9 1.8c4.3.5 8.6-.4 11.5-2 1.8-1 3.1-2.4 3.6-3.9.8-2.5-.6-5-3.5-6.7-1.8-1-4.1-1.8-6.7-2.1l-33.2-3.7c-3.6-.2-6.8.4-9 1.7z"/><linearGradient id="b" x1="596.997" x2="568.373" y1="610.229" y2="588.349" gradientUnits="userSpaceOnUse"><stop offset="0" stop-color="#f1eff6"/><stop offset="1" stop-color="#aabce1" stop-opacity=".5"/></linearGradient><path fill="url(#b)" d="M610 588.3c1.7 1 2.8 2.2 3.3 3.6.8 2.3-.6 4.6-3.3 6.2-1.6 1-3.8 1.6-6.2 1.9l-39.4 4.3c-2.9.3-5.8-.3-7.8-1.4-1.2-.7-2.1-1.6-2.4-2.6-.6-1.7.4-3.4 2.4-4.5 1.2-.7 2.8-1.2 4.5-1.4l41.6-4.5c.3 0 .6 0 .9.2l.3.3c.1.3-.2.6-.8.7l-41.6 4.5c-1.4.2-2.6.5-3.5 1.1-1.5.9-2.3 2.2-1.9 3.5.3.8.9 1.5 1.9 2.1 1.5.9 3.8 1.3 6.1 1.1l39.4-4.3c2.1-.2 3.8-.8 5.2-1.6 2.2-1.3 3.4-3.2 2.7-5.2-.4-1.2-1.4-2.2-2.8-3-2.3-1.3-5.6-2-8.9-1.6l-40.9 4.4c-2.9.3-5.3 1.1-7.3 2.2-3.1 1.8-4.7 4.5-3.8 7.2.5 1.7 1.9 3.1 3.8 4.2 3.1 1.8 7.7 2.7 12.4 2.2l19.5-2.1c.3 0 .6 0 .9.2l.3.3c.1.3-.3.6-.8.7l-19.5 2.1c-5.3.6-10.5-.5-14.1-2.5-2.2-1.3-3.8-2.9-4.4-4.8-1-3.1.8-6.1 4.3-8.2 2.2-1.3 5-2.2 8.3-2.5l40.9-4.4c4.1-.7 8 .1 10.7 1.6z"/><linearGradient id="c" x1="1164.39" x2="1198.489" y1="788.577" y2="787.032" gradientTransform="matrix(1.0274 .04182 -.3756 .9424 -271.058 -154.864)" gradientUnits="userSpaceOnUse"><stop offset="0" stop-color="#f1eff6"/><stop offset="1" stop-color="#000082" stop-opacity="0"/></linearGradient><path fill="url(#c)" d="M655.3 632.9h-4.4l-3.5 7.2c1.5.2 6.5.8 8.3.9 8.7.3 16 .4 16-3.9-.2-2.3-7.7-3.9-16.4-4.2z" opacity=".7"/><linearGradient id="d" x1="579.705" x2="615.73" y1="608.925" y2="607.293" gradientTransform="matrix(.7651 .0027 -.06539 1.0697 246.145 -25.253)" gradientUnits="userSpaceOnUse"><stop offset="0" stop-color="#f1eff6"/><stop offset=".707" stop-color="#4746a4" stop-opacity=".293"/><stop offset="1" stop-color="#000082" stop-opacity="0"/></linearGradient><path fill="url(#d)" d="M668.4 622.2c-1.1 0-2.2.1-3.3.2l-.7 8.4c1.2.1 2 .2 3.3.2 6.5-.1 14.8-2.3 14.9-4.7.3-2.5-7.8-4.1-14.2-4.1z" opacity=".7"/><linearGradient id="e" x1="529.237" x2="561.997" y1="245.51" y2="244.025" gradientTransform="matrix(1.0059 -.00505 -.0236 1.1684 14.904 129.174)" gradientUnits="userSpaceOnUse"><stop offset="0" stop-color="#f1eff6"/><stop offset=".707" stop-color="#4746a4" stop-opacity=".293"/><stop offset="1" stop-color="#000082" stop-opacity="0"/></linearGradient><path fill="url(#e)" d="M566.8 406.7c-1.5 0-3 .1-4.3.3l-1.9 10.1c1.5.1 3.2.2 4.9.2 8.6-.1 16.7-3.3 16.7-6 .1-3.7-6.8-4.8-15.4-4.6z" opacity=".7"/><linearGradient id="f" x1="254.806" x2="285.791" y1="281.221" y2="279.817" gradientTransform="matrix(.9191 -.1491 .1476 1.0202 264.025 151.982)" gradientUnits="userSpaceOnUse"><stop offset="0" stop-color="#f1eff6"/><stop offset=".707" stop-color="#4746a4" stop-opacity=".293"/><stop offset="1" stop-color="#000082" stop-opacity="0"/></linearGradient><path fill="url(#f)" d="M555.5 393.2c-1.4.2-2.7.5-3.9.9l.6 8.1c1.4-.1 2.9-.3 4.5-.5 7.8-1.3 13.8-4.3 13.5-6.6-.4-2.5-7-3.2-14.7-1.9z" opacity=".7"/><linearGradient id="g" x1="-31.53" x2="28.139" y1="442.39" y2="439.686" gradientTransform="matrix(.766 -.00477 -.07623 1.1596 237.504 46.384)" gradientUnits="userSpaceOnUse"><stop offset="0" stop-color="#f1eff6"/><stop offset=".707" stop-color="#4746a4" stop-opacity=".293"/><stop offset="1" stop-color="#000082" stop-opacity="0"/></linearGradient><path fill="url(#g)" d="M216.6 550.3c-1.6 0-3.1.2-4.5.4l-11.8 11.2c1.6.2 13.6 1.5 15.3 1.5 8.9-.2 14.7-3.4 14.9-7 .4-3.7-5-6.3-13.9-6.1z" opacity=".7"/><linearGradient id="h" x1="1770.018" x2="1797.967" y1="-2231.471" y2="-2231.705" gradientTransform="rotate(180 1217.537 -897.301)" gradientUnits="userSpaceOnUse"><stop offset="0" stop-color="#f1eff6"/><stop offset="1" stop-color="#b6bce1" stop-opacity="0"/></linearGradient><path fill="url(#h)" d="M656.9 429c-1.4-.9-3-1.6-4.8-2.1-1.4-.4-2.8-.7-4.2-.9-.8-.1-1.6-.2-2.4-.2h-.7c-1.9-.1-3.8 0-5.7.3-1 .1-1.9.3-2.8.6l-1.2.3c-1.7.5-3.3 1.2-4.7 2.1-1.5 1-2.8 2-3.7 3.1-3.3 4.2-2.2 9.4 3.6 12.9 1.5.8 3 1.6 4.8 2.1 2.3.7 4.9 1.1 7.4 1.2h3c.8 0 1.6-.1 2.4-.3 1.4-.2 2.9-.5 4.2-.9 1-.3 2-.7 3-1.2.6-.3 1.2-.6 1.7-.9.1-.1.3-.2.5-.3 1.4-.8 2.4-1.8 3.2-2.8 3.3-4.3 2.1-9.5-3.6-13z"/><g opacity=".5"><linearGradient id="i" x1="531.423" x2="528.599" y1="640.912" y2="640.912" gradientUnits="userSpaceOnUse"><stop offset="0" stop-color="#f1eff6"/><stop offset="1" stop-color="#b6bce1"/></linearGradient><path fill="url(#i)" d="M536.1 641.4h6.2V637h-6.2c-.6-2-2-4-4.1-5.7l4.4-2.6-5.4-3.1-4.4 2.5c-1.5-.6-3-1.1-4.7-1.5 1.6 1.7 2.9 3.7 4.3 5.6 1.7 2.5 2.7 5 1.5 7.9-2.3 5.8-8.3 7.4-14 7.8-1.5.5-3.2 1.1-4.8 1.5v3.1h.3v3.6h7.7v-3.6c3.5-.3 6.9-1.1 9.9-2.4l4.4 2.6 5.4-3.1-4.4-2.5c2-1.7 3.4-3.7 3.9-5.7z"/></g><linearGradient id="j" x1="439.92" x2="548.615" y1="543.409" y2="416.429" gradientTransform="matrix(1 0 -.02357 .9963 -16.539 -2.58)" gradientUnits="userSpaceOnUse"><stop offset="0" stop-color="#f1eff6"/><stop offset="1" stop-color="#b6bce1" stop-opacity="0"/></linearGradient><path fill="url(#j)" d="m616.1 521.5-166.5 95L253 501.9l166.4-95.1z"/><path fill="#9ea9c9" d="M538.8 640.2V632.9h-6.2c-.4-1.3-1.1-2.6-2.2-3.8l2.4-1.4v-2.9l-5.4-3.1-4.4 2.5c-3-1.2-6.3-2-9.8-2.3v-3.6h-7.6v3.5c-3.5.3-6.8 1.1-9.8 2.3l-4.4-2.5-5.4 3.1v2.9l2.5 1.4c-1 1.2-1.8 2.5-2.1 3.8h-6.2V640.1h6.2c.4 1.3 1.1 2.6 2.2 3.9l-2.4 1.4v2.9l5.4 3.1 4.3-2.5c3 1.2 6.3 2 9.8 2.3v3.6h7.6v-3.5c3.5-.3 6.8-1.1 9.8-2.3l4.4 2.5 5.4-3.1v-2.9l-2.5-1.4c1-1.2 1.8-2.5 2.1-3.8h6.3zm-17 1.9c-6.7 3.9-17.6 3.9-24.3 0-2.8-1.6-4.4-3.6-4.9-5.6.5-2 2.1-4 4.8-5.5 6.7-3.9 17.6-3.9 24.4 0 2.7 1.6 4.4 3.6 4.9 5.6-.6 2-2.2 4-4.9 5.5z"/><path fill="#9ea9c9" d="M519.9 635.1v2.9c0 1.5-1 3-3 4.2-4 2.3-10.6 2.3-14.6 0-2-1.2-3-2.7-3-4.3V635c0-1.5 1-3.1 3-4.2 4-2.3 10.6-2.3 14.6 0 2.2 1.3 3.2 2.9 3 4.6v-.3z"/><path fill="#cacece" d="M505.7 621.8v2.9-6.5z"/><path fill="#b0b8cf" d="M532.9 624.7v2.9l-4.4 2.6v-3zM490.6 627.2v3l-4.4-2.6v-2.9z"/><path fill="#c9cee2" d="M526.8 635.1v2.9c0-2.6-1.7-5.1-5.1-7.1-6.7-3.9-17.6-3.9-24.4 0-3.3 1.9-5 4.5-5 7V635c0-2.5 1.7-5.1 5-7 6.7-3.9 17.6-3.9 24.4 0 3.4 2 5.1 4.6 5.1 7.1z"/><path fill="#b0b8cf" d="M538.8 637.3v2.9h-6.2v-2.9z"/><path fill="#cacece" d="M480.4 637.3v2.9V632.9z"/><path fill="#b0b8cf" d="M486.6 637.3v2.9h-6.2v-2.9z"/><path fill="#c9cee2" d="M519.9 635.1v2.9c0 1.5-1 3-3 4.2-4 2.3-10.6 2.3-14.6 0-2-1.2-3.1-2.7-3-4.3V635c0 1.5 1 3.1 3 4.3 4 2.3 10.6 2.3 14.6 0 2-1.1 3-2.6 3-4.2zM532.6 637.3v2.9c-.6 2-1.9 3.9-4 5.7V643c2.1-1.8 3.5-3.7 4-5.7zM490.7 643v2.9c-2.1-1.7-3.5-3.7-4.1-5.7v-2.9c.6 2 1.9 4 4.1 5.7zM523.2 646.1v2.9c-3 1.2-6.3 2-9.8 2.3v-2.9c3.5-.3 6.9-1.1 9.8-2.3z"/><path fill="#e3e7f0" d="m527.6 648.6-4.4-2.5c-3 1.2-6.3 2-9.8 2.3v3.6h-7.6v-3.6c-3.5-.3-6.8-1.1-9.8-2.3l-4.3 2.5-5.4-3.1 4.3-2.5c-2.1-1.7-3.5-3.7-4.1-5.7h-6.2v-4.4h6.2c.6-2 1.9-4 4-5.7l-4.4-2.5 5.4-3.1 4.4 2.5c3-1.2 6.3-2 9.8-2.3v-3.6h7.6v3.6c3.5.3 6.8 1.1 9.8 2.3l4.3-2.5 5.4 3.1-4.3 2.5c2.1 1.7 3.5 3.7 4.1 5.7h6.2v4.4h-6.2c-.6 2-1.9 3.9-4 5.7l4.4 2.5-5.4 3.1zm-30.1-6.4c6.7 3.9 17.6 3.9 24.3 0 6.7-3.9 6.7-10.2-.1-14.1-6.7-3.9-17.6-3.9-24.4 0-6.6 3.8-6.6 10.2.2 14.1z"/><path fill="#e3e7f0" d="M516.9 630.9c4 2.3 4.1 6.1 0 8.5-4 2.3-10.6 2.3-14.6 0s-4.1-6.1 0-8.5c4-2.4 10.5-2.4 14.6 0z"/><path fill="#c9cee2" d="M505.9 648.4v2.9c-3.5-.3-6.8-1.1-9.8-2.3v-2.9c2.9 1.2 6.3 2 9.8 2.3z"/><path fill="#9ea9c9" d="M533 645.5v2.9l-5.4 3.1v-2.9z"/><path fill="#b0b8cf" d="M527.6 648.6v2.9l-4.4-2.5v-2.9zM496.1 646.1l-.1 2.9-4.3 2.5v-2.9z"/><path fill="#9ea9c9" d="M491.7 648.6v2.9l-5.4-3.1v-2.9zM513.5 652v2.9h-7.6V652z"/><path fill="#cacece" d="M505.9 652v2.9-6.5z"/><linearGradient id="k" x1="291.128" x2="266.889" y1="575.448" y2="551.921" gradientUnits="userSpaceOnUse"><stop offset="0" stop-color="#f1eff6"/><stop offset="1" stop-color="#b6bce1" stop-opacity="0"/></linearGradient><path fill="url(#k)" d="m299.9 571.1 6.6-.5v-8.8l-4.3-.3v-5.8l-5.9-3.4-5.7 2.6c-1.3-.5-2.6-.8-4-1.1l-.8-4h-8.4l-.8 3.8c-1.6.2-3.2.6-4.6 1l-5.1-2.3-5.9 3.4v5.8l-4.4.3v8.9l6.6.4-2.3 1.7v4l5.9 3.4 6.1-2.8c1.1.3 2.3.6 3.5.7l.9 4.6h8.4l1-4.8c1-.2 2-.4 2.9-.7l6.6 3 6.3-3.7-2.6-5.4zm-10.6-2.4c-4.3 2.5-11.2 2.5-15.4 0-1-.6-1.7-1.2-2.3-1.9.5-.7 1.3-1.4 2.3-2 4.2-2.5 11.1-2.4 15.4 0 1 .6 1.8 1.2 2.3 1.9-.6.7-1.3 1.4-2.3 2z"/><path fill="#ffd475" d="M304.5 566.5v-5.8l-4.3-.3v-5.8l-5.9-3.4-5.7 2.6c-1.3-.5-2.6-.8-4-1.1l-.8-4h-8.4l-.8 3.8c-1.6.2-3.2.6-4.6 1.1l-5.1-2.3-5.9 3.4v5.8l-4.4.3v8.9l6.6.4-2.3 1.7v4l5.9 3.4 6.1-2.8c1.2.3 2.3.6 3.5.7l.9 4.6h8.4l1-4.8c1-.2 2-.4 2.9-.7l6.6 3 5.9-3.4v-4l-2.3-1.7 6.6-.5.1-3.1zm-17.3 1.1c-4.3 2.5-11.1 2.5-15.4 0-1-.6-1.7-1.2-2.3-2 .5-.7 1.3-1.4 2.3-2 4.3-2.4 11.1-2.4 15.4 0 1 .6 1.8 1.3 2.3 2-.6.8-1.3 1.4-2.3 2z"/><path fill="#ffb961" d="M258.9 554.7v5.7l4 3v-5.8zM295.4 558.2v5.8l4.8-3.6v-5.7z"/><path fill="#ffd475" d="M268.6 563.2v5c0-1.6 1.1-3.2 3.2-4.5 4.3-2.5 11.1-2.4 15.4 0 2.1 1.2 3.2 2.8 3.2 4.4v-5c0-1.6-1.1-3.2-3.2-4.4-4.2-2.5-11.1-2.5-15.4 0-2.1 1.3-3.2 2.9-3.2 4.5z"/><path fill="#d4d6d6" d="m304.4 565.6.1 4v-8.8z"/><path fill="#ffb961" d="M254.5 565.6v4l6.9.5v-4zM296.2 566.2v4l8.3-.6-.1-4z"/><path fill="#ffd475" d="M294.9 567.9v5.8c.5-.5 1-1.1 1.3-1.7v-5.8c-.3.6-.8 1.2-1.3 1.7zM261.4 566.1v5.8c.4.8 1.1 1.6 1.8 2.3v-5.8c-.7-.7-1.4-1.5-1.8-2.3zM284.6 572.9v4c1-.2 2-.4 2.9-.7v-4c-.9.2-1.9.5-2.9.7zM270.8 572.4v4c1.1.3 2.3.6 3.5.7v-4c-1.2-.1-2.4-.4-3.5-.7zM258.8 571.7v4l5.9 3.4v-4z"/><path fill="#ffb961" d="M264.7 575.1v4l6.1-2.7v-4z"/><path fill="#ffd475" d="m294.1 575.1.1 4 5.9-3.4v-4z"/><path fill="#ffb961" d="m287.5 572.1.1 4 6.6 3-.1-4zM274.3 573.1v4l.9 4.5v-3.9zM283.6 577.6v4l1-4.8v-3.9z"/><path fill="#ffde9b" d="m258.8 571.7 4.4-3.3c-.8-.7-1.4-1.5-1.8-2.3l-6.9-.5v-4.9l6.6-.5c.3-.9 1-1.8 1.8-2.7l-4-3 5.9-3.4 5.1 2.3c1.4-.5 3-.9 4.6-1l.8-3.8h8.4l.8 4c1.4.2 2.8.6 4 1.1l5.7-2.6 5.9 3.4-4.8 3.5c.6.7 1 1.3 1.3 2l7.9.5v4.8l-8.3.6c-.3.6-.8 1.2-1.3 1.7l5.2 3.8-5.9 3.4-6.6-3c-.9.3-1.9.6-2.9.7l-1 4.8h-8.4l-.9-4.6c-1.2-.1-2.3-.4-3.5-.7l-6.1 2.8-6-3.1zm28.4-4.1c4.3-2.5 4.3-6.4 0-8.9-4.2-2.5-11.1-2.5-15.4 0-4.3 2.5-4.3 6.5-.1 8.9s11.2 2.5 15.5 0z"/><path fill="#ffd475" d="M275.2 577.7v3.9h8.4v-4z"/><path fill="#ffb961" d="M619.8 433.4v4c0 1.5.6 2.9 1.8 4.3.5.6 1.1 1.1 1.7 1.5.3.3.8.5 1.2.8.8.4 1.6.9 2.5 1.2.6.2 1.1.4 1.7.6 1.2.3 2.4.6 3.7.8.6.1 1.1.1 1.7.2 1.2.1 2.4.1 3.6 0 .6-.1 1.2-.1 1.7-.2 1.2-.2 2.5-.4 3.6-.8.6-.1 1.1-.3 1.7-.5.9-.3 1.8-.8 2.6-1.2.3-.2.7-.4 1-.7.7-.4 1.2-.9 1.7-1.4 1.4-1.4 2-3 2-4.5v-4.1c0 1.5-.7 3-2 4.4-.5.5-1.1 1-1.7 1.4-.3.3-.7.5-1.1.7-.8.4-1.6.9-2.5 1.2-.5.2-1.1.4-1.7.6-1.2.3-2.4.6-3.6.7-.6.1-1.1.1-1.7.2-1.2.1-2.4 0-3.6 0-.6-.1-1.1-.1-1.7-.2-1.3-.2-2.5-.4-3.7-.8-.6-.2-1.2-.4-1.7-.6-.9-.3-1.7-.7-2.5-1.2-.4-.3-.8-.5-1.2-.7-.7-.5-1.2-.9-1.7-1.4-1.2-1.5-1.8-2.9-1.8-4.3z"/><path fill="#f3a250" d="M648.3 439v4.3c.7-.4 1.2-.9 1.7-1.4v-4.3c-.5.5-1.1 1-1.7 1.4zM642.9 441.5v4.3c.6-.1 1.1-.3 1.7-.5V441c-.5.1-1.1.3-1.7.5zM637.6 442.4v4.3c.6-.1 1.2-.1 1.7-.2v-4.3c-.6.1-1.1.1-1.7.2zM632.3 442.1v4.3c.6.1 1.1.1 1.7.2v-4.3c-.6 0-1.2-.1-1.7-.2zM626.9 440.8v4.3c.6.2 1.1.4 1.7.6v-4.3c-.6-.2-1.2-.4-1.7-.6zM621.6 437.4v4.2c.5.6 1.1 1.1 1.7 1.5v-4.3c-.7-.4-1.2-.8-1.7-1.4z"/><path fill="#ffde9b" d="M624.5 439.9c1.2.7 2.6 1.3 4.1 1.7 1.2.3 2.4.6 3.6.8.7.1 1.4.2 2 .2h.6c1.6.1 3.3 0 4.9-.3.8-.1 1.6-.3 2.4-.5.3-.1.7-.2 1-.3 1.4-.4 2.8-1 4-1.7 1.3-.8 2.4-1.6 3.1-2.6 2.9-3.5 1.9-7.7-3.1-10.6-1.3-.7-2.6-1.3-4.1-1.7-2-.6-4.2-.9-6.4-1H634c-.7 0-1.4.1-2 .2-1.2.2-2.5.4-3.6.8-.9.3-1.7.6-2.6 1-.5.2-1 .5-1.5.7-.1.1-.3.2-.4.3-1.2.7-2.1 1.5-2.8 2.3-2.6 3.6-1.6 7.9 3.4 10.7z"/><path fill="#ffb961" d="M635.8 440.9c3.9 0 7.5-.9 10.3-2.4 2.5-1.4 3.9-3.3 3.9-5.2 0-1.9-1.4-3.7-3.8-5.1-2.7-1.6-6.3-2.4-10.2-2.4-3.9 0-7.5.9-10.2 2.4-2.5 1.4-3.9 3.3-3.9 5.2 0 1.9 1.4 3.7 3.8 5.1 2.6 1.6 6.2 2.4 10.1 2.4z"/><path fill="#ffde9b" d="m642.1 435.7-.7-.4-.7.4.7.4-1 .6-.7-.4-.2.1-1 .6-1 .6-1.6-.9 1-.6-5.8-3.4-1 .6-1.6-.9 1-.6 1-.6.2-.1-.7-.4 1-.6.7.4.7-.4-.7-.4.9-.5.8.4c1.4-.6 2.9-.7 4.2.1 1.1.6 1.3 1.4.6 2 .8-.3 2-.7 3.9.3 1 .6 1.8 1.5.1 2.7l.8.4-.9.6zm-3-.9.6-.4c.8-.5.6-1 0-1.3-.9-.5-1.7-.5-2.3-.1l-.7.4 2.4 1.4zm-3.8-2.2.6-.3c.7-.4.6-.8 0-1.2-.4-.3-1.2-.4-2 0l-.6.3 2 1.2z"/><path fill="#fff" d="m626 426 16.2 15.9c.3-.1.7-.2 1-.3 1.4-.4 2.8-1 4-1.7 1.3-.8 2.4-1.6 3.1-2.6L636.8 424h-2.6c-.7 0-1.4.1-2 .2-1.2.2-2.5.4-3.6.8-.9.3-1.8.6-2.6 1zM621.3 429.4l13.5 13.3c1.6.1 3.3 0 4.9-.3L624.1 427c-1.2.7-2.1 1.5-2.8 2.4z" opacity=".2"/><path fill="#ffb961" d="M619.8 427.7v4c0 1.5.6 2.9 1.8 4.3.5.6 1.1 1.1 1.7 1.5.3.3.8.5 1.2.8.8.4 1.6.9 2.5 1.2.6.2 1.1.4 1.7.6 1.2.3 2.4.6 3.7.8.6.1 1.1.1 1.7.2 1.2.1 2.4.1 3.6 0 .6-.1 1.2-.1 1.7-.2 1.2-.2 2.5-.4 3.6-.8.6-.1 1.1-.3 1.7-.5.9-.3 1.8-.8 2.6-1.2.3-.2.7-.4 1-.7.7-.4 1.2-.9 1.7-1.4 1.4-1.4 2-3 2-4.5v-4.1c0 1.5-.7 3-2 4.4-.5.5-1.1 1-1.7 1.4-.3.3-.7.5-1.1.7-.8.4-1.6.9-2.5 1.2-.5.2-1.1.4-1.7.6-1.2.3-2.4.6-3.6.7-.6.1-1.1.1-1.7.2-1.2.1-2.4 0-3.6 0-.6-.1-1.1-.1-1.7-.2-1.3-.2-2.5-.4-3.7-.8-.6-.2-1.2-.4-1.7-.6-.9-.3-1.7-.7-2.5-1.2-.4-.3-.8-.5-1.2-.7-.7-.5-1.2-.9-1.7-1.4-1.2-1.4-1.8-2.8-1.8-4.3z"/><path fill="#f3a250" d="M648.3 433.4v4.3c.7-.4 1.2-.9 1.7-1.4V432c-.5.4-1.1.9-1.7 1.4zM642.9 435.8v4.3c.6-.1 1.1-.3 1.7-.5v-4.3c-.5.2-1.1.4-1.7.5zM637.6 436.7v4.3c.6-.1 1.2-.1 1.7-.2v-4.3c-.6.1-1.1.2-1.7.2zM632.3 436.5v4.3c.6.1 1.1.1 1.7.2v-4.3c-.6-.1-1.2-.1-1.7-.2zM626.9 435.1v4.3c.6.2 1.1.4 1.7.6v-4.3c-.6-.2-1.2-.3-1.7-.6zM621.6 431.8v4.2c.5.6 1.1 1.1 1.7 1.5v-4.3c-.7-.4-1.2-.9-1.7-1.4z"/><path fill="#ffde9b" d="M624.5 434.3c1.2.7 2.6 1.3 4.1 1.7 1.2.3 2.4.6 3.6.8.7.1 1.4.2 2 .2h.6c1.6.1 3.3 0 4.9-.3.8-.1 1.6-.3 2.4-.5.3-.1.7-.2 1-.3 1.4-.4 2.8-1 4-1.7 1.3-.8 2.4-1.6 3.1-2.6 2.9-3.5 1.9-7.7-3.1-10.6-1.3-.7-2.6-1.3-4.1-1.7-2-.6-4.2-.9-6.4-1H634c-.7 0-1.4.1-2 .2-1.2.2-2.5.4-3.6.8-.9.3-1.7.6-2.6 1-.5.2-1 .5-1.5.7-.1.1-.3.2-.4.3-1.2.7-2.1 1.5-2.8 2.3-2.6 3.6-1.6 7.8 3.4 10.7z"/><path fill="#ffb961" d="M635.8 435.3c3.9 0 7.5-.9 10.3-2.4 2.5-1.4 3.9-3.3 3.9-5.2 0-1.9-1.4-3.7-3.8-5.1-2.7-1.6-6.3-2.4-10.2-2.4-3.9 0-7.5.9-10.2 2.4-2.5 1.4-3.9 3.3-3.9 5.2 0 1.9 1.4 3.7 3.8 5.1 2.6 1.5 6.2 2.4 10.1 2.4z"/><path fill="#ffde9b" d="m642.1 430.1-.7-.4-.7.4.7.4-1 .6-.7-.4-.2.1-1 .6-1 .6-1.5-1 1-.6-5.8-3.4-1 .6-1.6-.9 1-.6 1-.6.2-.1-.7-.4 1-.6.7.4.7-.4-.7-.4.9-.5.8.4c1.4-.6 2.9-.7 4.2.1 1.1.6 1.3 1.4.6 2 .8-.3 2-.7 3.9.3 1 .6 1.8 1.5.1 2.7l.8.4-1 .7zm-3-.9.6-.4c.8-.5.6-1 0-1.3-.9-.5-1.7-.5-2.3-.1l-.7.4 2.4 1.4zm-3.8-2.2.6-.3c.7-.4.6-.8 0-1.2-.4-.3-1.2-.4-2 0l-.6.3 2 1.2z"/><path fill="#fff" d="m626 420.4 16.2 15.9c.3-.1.7-.2 1-.3 1.4-.4 2.8-1 4-1.7 1.3-.8 2.4-1.6 3.1-2.6l-13.6-13.3h-2.6c-.7 0-1.4.1-2 .2-1.2.2-2.5.4-3.6.8-.8.3-1.7.6-2.5 1zM621.3 423.7l13.5 13.3c1.6.1 3.3 0 4.9-.3l-15.6-15.4c-1.2.8-2.1 1.6-2.8 2.4z" opacity=".2"/><path fill="#ffb961" d="M619.8 422.1v4c0 1.5.6 2.9 1.8 4.3.5.6 1.1 1.1 1.7 1.5.3.3.8.5 1.2.8.8.4 1.6.9 2.5 1.2.6.2 1.1.4 1.7.6 1.2.3 2.4.6 3.7.8.6.1 1.1.1 1.7.2 1.2.1 2.4.1 3.6 0 .6-.1 1.2-.1 1.7-.2 1.2-.2 2.5-.4 3.6-.8.6-.1 1.1-.3 1.7-.5.9-.3 1.8-.8 2.6-1.2.3-.2.7-.4 1-.7.7-.4 1.2-.9 1.7-1.4 1.4-1.4 2-3 2-4.5v-4.1c0 1.5-.7 3-2 4.4-.5.5-1.1 1-1.7 1.4-.3.3-.7.5-1.1.7-.8.4-1.6.9-2.5 1.2-.5.2-1.1.4-1.7.6-1.2.3-2.4.6-3.6.7-.6.1-1.1.1-1.7.2-1.2.1-2.4 0-3.6 0-.6-.1-1.1-.1-1.7-.2-1.3-.2-2.5-.4-3.7-.8-.6-.2-1.2-.4-1.7-.6-.9-.3-1.7-.7-2.5-1.2-.4-.3-.8-.5-1.2-.7-.7-.5-1.2-.9-1.7-1.4-1.2-1.5-1.8-2.9-1.8-4.3z"/><path fill="#f3a250" d="M648.3 427.7v4.3c.7-.4 1.2-.9 1.7-1.4v-4.3c-.5.5-1.1 1-1.7 1.4zM642.9 430.2v4.3c.6-.1 1.1-.3 1.7-.5v-4.3c-.5.1-1.1.3-1.7.5zM637.6 431.1v4.3c.6-.1 1.2-.1 1.7-.2v-4.3c-.6.1-1.1.1-1.7.2zM632.3 430.8v4.3c.6.1 1.1.1 1.7.2V431c-.6 0-1.2-.1-1.7-.2zM626.9 429.5v4.3c.6.2 1.1.4 1.7.6v-4.3c-.6-.2-1.2-.4-1.7-.6zM621.6 426.2v4.2c.5.6 1.1 1.1 1.7 1.5v-4.3c-.7-.5-1.2-.9-1.7-1.4z"/><path fill="#ffde9b" d="M624.5 428.6c1.2.7 2.6 1.3 4.1 1.7 1.2.3 2.4.6 3.6.8.7.1 1.4.2 2 .2h.6c1.6.1 3.3 0 4.9-.3.8-.1 1.6-.3 2.4-.5.3-.1.7-.2 1-.3 1.4-.4 2.8-1 4-1.7 1.3-.8 2.4-1.6 3.1-2.6 2.9-3.5 1.9-7.7-3.1-10.6-1.3-.7-2.6-1.3-4.1-1.7-2-.6-4.2-.9-6.4-1H634c-.7 0-1.4.1-2 .2-1.2.2-2.5.4-3.6.8-.9.3-1.7.6-2.6 1-.5.2-1 .5-1.5.7-.1.1-.3.2-.4.3-1.2.7-2.1 1.5-2.8 2.3-2.6 3.6-1.6 7.9 3.4 10.7z"/><path fill="#ffb961" d="M635.8 429.7c3.9 0 7.5-.9 10.3-2.4 2.5-1.4 3.9-3.3 3.9-5.2 0-1.9-1.4-3.7-3.8-5.1-2.7-1.6-6.3-2.4-10.2-2.4-3.9 0-7.5.9-10.2 2.4-2.5 1.4-3.9 3.3-3.9 5.2 0 1.9 1.4 3.7 3.8 5.1 2.6 1.5 6.2 2.4 10.1 2.4z"/><path fill="#ffde9b" d="M642 423.3c.2-.4.3-.8.2-1.1-.1-.4-.4-.7-.9-.9-.6-.3-1.2-.5-1.8-.6-.6 0-1.2 0-1.8.2-.6.1-1.2.3-2 .6l-3-1.7c.7-.4 1.4-.6 2.1-.8.1 0 .2-.1.3-.1.2-.1.2-.2.2-.3 0-.1-.1-.2-.3-.3-.3-.2-.6-.2-.9-.1-.9.2-1.8.6-2.6 1l-.8-.5c-.1-.1-.3-.1-.4-.1-.2 0-.3 0-.4.1-.1.1-.2.2-.2.3 0 .1.1.2.2.3l.9.5c-.5.4-.9.8-1.1 1.2-.2.4-.2.8 0 1.1.2.3.5.7.9.9.5.3 1.1.5 1.7.5.6 0 1.2 0 1.8-.1.6-.1 1.2-.3 1.9-.5l2.9 1.7c-.8.4-1.6.7-2.6.9-.1 0-.2.1-.3.1-.2.1-.2.2-.2.3 0 .1.1.2.2.3.1.1.3.1.5.1h.5c1.1-.3 2.2-.6 3.2-1.1l.9.5c.1.1.3.1.4.1.2 0 .3 0 .4-.1.1-.1.2-.2.2-.3 0-.1-.1-.2-.2-.3l-.9-.5c.4-.5.8-.9 1-1.3zm-2.3.4-2.6-1.5c.7-.2 1.3-.4 1.8-.5.5-.1.8 0 1.2.2.7.5.6 1.1-.4 1.8zm-8-1.7c-.4-.2-.5-.5-.5-.8.1-.3.3-.6.7-.9l2.7 1.6c-.7.2-1.2.4-1.7.4-.4 0-.8-.1-1.2-.3z"/><path fill="#fff" d="m626 414.7 16.2 15.9c.3-.1.7-.2 1-.3 1.4-.4 2.8-1 4-1.7 1.3-.8 2.4-1.6 3.1-2.6l-13.6-13.3h-2.6c-.7 0-1.4.1-2 .2-1.2.2-2.5.4-3.6.8-.8.3-1.7.6-2.5 1zM621.3 418.1l13.5 13.3c1.6.1 3.3 0 4.9-.3l-15.6-15.4c-1.2.7-2.1 1.5-2.8 2.4z" opacity=".2"/><path fill="#678aee" d="M607.1 514v2.6l-165.7 96.2-197.7-114.1v-2.6l165.6-96.3z"/><path fill="#678aee" d="M607.1 514v2.6l-165.7 96.3v-2.7z"/><path fill="#748bfd" d="M441.4 610.2v2.7L243.7 498.7v-2.6z"/><path fill="#8fabfe" d="m607.1 514-165.7 96.3-197.7-114.2 165.6-96.3z"/><path fill="#fff" d="M441.4 598.3c-.1 0-.2 0-.3-.1L264.9 496.5c-.2-.1-.3-.3-.3-.4 0-.2.1-.3.2-.4L409 411.9c.2-.1.3-.1.5 0l176.2 101.8c.2.1.2.3.3.4 0 .2-.1.3-.2.4l-144.2 83.8h-.2zM266.1 496.1l175.2 101.2L584.6 514 409.4 412.8l-143.3 83.3z"/><path fill="#fff" d="M441.4 598.3c-.1 0-.2 0-.3-.1l-74.2-42.8c-.2-.1-.2-.3-.3-.4 0-.2.1-.3.2-.4l45.6-26.5c.2-.1.3-.1.5 0l74.2 42.8c.2.1.2.3.3.4 0 .2-.1.3-.2.4l-45.6 26.5c-.1.1-.1.1-.2.1zM368.2 555l73.2 42.3 44.6-25.9-73.2-42.4-44.6 26z"/><path fill="#fff" d="M382.6 564.5c-.2 0-.3-.1-.4-.2-.1-.2-.1-.5.2-.7l39.2-22.8c.2-.1.5-.1.7.2s.1.5-.2.7l-39.2 22.8h-.3zM397.9 573.4c-.2 0-.3-.1-.4-.2-.1-.2-.1-.5.2-.7l39.2-22.8c.2-.1.5-.1.7.2s.1.5-.2.7l-39.2 22.8c-.2-.1-.3 0-.3 0z"/><path fill="#fff" d="M480.7 575.7c-.1 0-.2 0-.2-.1l-74.2-42.8c-.2-.1-.3-.4-.2-.7.1-.2.4-.3.7-.2l74.2 42.8c.2.1.3.4.2.7-.2.2-.4.3-.5.3zM425.3 557.6c-.1 0-.2 0-.2-.1l-31-17.9c-.2-.1-.3-.4-.2-.7.1-.2.4-.3.7-.2l31 17.9c.2.1.3.4.2.7-.1.2-.3.3-.5.3zM418.2 561.4c-.1 0-.2 0-.2-.1l-30.7-17.7c-.2-.1-.3-.4-.2-.7.1-.2.4-.3.7-.2l30.7 17.7c.2.1.3.4.2.7-.1.2-.3.3-.5.3zM411.8 565.5c-.1 0-.2 0-.2-.1l-31.1-18c-.2-.1-.3-.4-.2-.7.1-.2.4-.3.7-.2l31.1 18c.2.1.3.4.2.7-.1.2-.3.3-.5.3zM388.2 500.5c-.1 0-.2 0-.2-.1l-20.7-11.9c-.2-.1-.2-.3-.3-.4 0-.2.1-.3.2-.4l86.5-50.3c.2-.1.5-.1.7.2.1.2.1.5-.2.7l-85.7 49.8 19.9 11.5c.2.1.3.4.2.7-.1.1-.3.2-.4.2zM405.1 569.5c-.1 0-.2 0-.2-.1l-31.2-18c-.2-.1-.3-.4-.2-.7s.4-.3.7-.2l31.2 18c.2.1.3.4.2.7-.1.2-.3.3-.5.3zM517.9 526.9c-.1 0-.2 0-.2-.1l-27.8-16.1c-.2-.1-.3-.4-.2-.7s.4-.3.7-.2l27.8 16.1c.2.1.3.4.2.7-.2.2-.3.3-.5.3zM512.1 530.6c-.1 0-.2 0-.2-.1l-28.2-16.3c-.2-.1-.3-.4-.2-.7.1-.2.4-.3.7-.2l28.2 16.3c.2.1.3.4.2.7-.2.2-.3.3-.5.3zM506 534.2c-.1 0-.2 0-.2-.1l-28.3-16.3c-.2-.1-.3-.4-.2-.7.1-.2.4-.3.7-.2l28.3 16.3c.2.1.3.4.2.7-.1.2-.3.3-.5.3zM312.3 508.9c-.2 0-.3-.1-.4-.3-.1-.2-.1-.5.2-.7l27.8-16.1c.2-.1.5-.1.7.2.1.2.1.5-.2.7l-27.8 16.1c-.1.1-.2.1-.3.1zM318.1 512.6c-.2 0-.3-.1-.4-.3-.1-.2-.1-.5.2-.7l28.2-16.3c.2-.1.5-.1.7.2.1.2.1.5-.2.7l-28.2 16.3c-.1.1-.2.1-.3.1zM324.2 516.2c-.2 0-.3-.1-.4-.3-.1-.2-.1-.5.2-.7l28.3-16.3c.2-.1.5-.1.7.2.1.2.1.5-.2.7l-28.3 16.3c-.2.1-.2.1-.3.1zM265.1 496.6c-.1 0-.2 0-.3-.1l-6-3.5c-.2-.1-.2-.3-.2-.4 0-.2.1-.3.3-.4l7.2-4.1c.2-.1.3-.1.5 0l6 3.5c.2.1.2.3.2.4 0 .2-.1.3-.3.4l-7.2 4.1s-.1.1-.2.1zm-5-4 5 2.9 6.2-3.6-5-2.9-6.2 3.6z"/><path fill="#fff" d="M272.3 492.4c-.1 0-.2 0-.3-.1l-6-3.5c-.2-.1-.2-.3-.2-.4 0-.2.1-.3.3-.4l7.2-4.1c.2-.1.3-.1.5 0l6 3.5c.2.1.2.3.2.4 0 .2-.1.3-.3.4l-7.2 4.1c0 .1-.1.1-.2.1zm-5-4 5 2.9 6.2-3.6-5-2.9-6.2 3.6z"/><path fill="#fff" d="M279.5 488.3c-.1 0-.2 0-.3-.1l-6-3.5c-.2-.1-.2-.3-.2-.4 0-.2.1-.3.3-.4l7.2-4.1c.2-.1.3-.1.5 0l6 3.5c.2.1.2.3.2.4 0 .2-.1.3-.3.4l-7.2 4.1s-.1.1-.2.1zm-5-4 5 2.9 6.2-3.6-5-2.9-6.2 3.6z"/><path fill="#fff" d="M286.7 484.1c-.1 0-.2 0-.3-.1l-6-3.5c-.2-.1-.2-.3-.2-.4 0-.2.1-.3.3-.4l7.2-4.1c.2-.1.3-.1.5 0l6 3.5c.2.1.2.3.2.4 0 .2-.1.3-.3.4l-7.2 4.1c-.1.1-.2.1-.2.1zm-5.1-4 5 2.9 6.2-3.6-5-2.9-6.2 3.6zM556.9 531.1c-.1 0-.2 0-.3-.1l-6-3.5c-.2-.1-.2-.3-.2-.4 0-.2.1-.3.3-.4l7.2-4.1c.2-.1.3-.1.5 0l6 3.5c.2.1.2.3.2.4 0 .2-.1.3-.3.4l-7.2 4.1c0 .1-.1.1-.2.1zm-5-4 5 2.9 6.2-3.6-5-2.9-6.2 3.6z"/><path fill="#fff" d="M564.1 527c-.1 0-.2 0-.3-.1l-6-3.5c-.2-.1-.2-.3-.2-.4 0-.2.1-.3.3-.4l7.2-4.1c.2-.1.3-.1.5 0l6 3.5c.2.1.2.3.2.4 0 .2-.1.3-.3.4l-7.2 4.1c-.1.1-.1.1-.2.1zm-5.1-4 5 2.9 6.2-3.6-5-2.9-6.2 3.6z"/><path fill="#fff" d="M571.2 522.8c-.1 0-.2 0-.3-.1l-6-3.5c-.2-.1-.2-.3-.2-.4 0-.2.1-.3.3-.4l7.2-4.1c.2-.1.3-.1.5 0l6 3.5c.2.1.2.3.2.4 0 .2-.1.3-.3.4l-7.2 4.1c0 .1-.1.1-.2.1zm-5-4 5 2.9 6.2-3.6-5-2.9-6.2 3.6z"/><path fill="#fff" d="M578.4 518.7c-.1 0-.2 0-.3-.1l-6-3.5c-.2-.1-.2-.3-.2-.4 0-.2.1-.3.3-.4l7.2-4.1c.2-.1.3-.1.5 0l6 3.5c.2.1.2.3.2.4 0 .2-.1.3-.3.4l-7.2 4.1c0 .1-.1.1-.2.1zm-5-4 5 2.9 6.2-3.6-5-2.9-6.2 3.6zM540.3 495.3c-.1 0-.2 0-.3-.1l-7.2-4.1c-.2-.1-.2-.3-.3-.4 0-.2.1-.3.2-.4l6-3.5c.2-.1.3-.1.5 0l7.2 4.1c.2.1.2.3.3.4 0 .2-.1.3-.2.4l-6 3.5c0 .1-.1.1-.2.1zm-6.2-4.6 6.2 3.6 5-2.9-6.2-3.6-5 2.9z"/><path fill="#fff" d="M533.1 491.2c-.1 0-.2 0-.3-.1l-7.2-4.1c-.2-.1-.2-.3-.3-.4 0-.2.1-.3.2-.4l6-3.5c.2-.1.3-.1.5 0l7.2 4.1c.2.1.2.3.3.4 0 .2-.1.3-.2.4l-6 3.5s-.1.1-.2.1zm-6.1-4.7 6.2 3.6 5-2.9-6.2-3.6-5 2.9z"/><path fill="#fff" d="M526 487c-.1 0-.2 0-.3-.1l-7.2-4.1c-.2-.1-.2-.3-.3-.4 0-.2.1-.3.2-.4l6-3.5c.2-.1.3-.1.5 0l7.2 4.1c.2.1.2.3.3.4 0 .2-.1.3-.2.4l-6 3.5c-.1.1-.2.1-.2.1zm-6.2-4.6 6.2 3.6 5-2.9-6.2-3.6-5 2.9z"/><path fill="#fff" d="M518.8 482.9c-.1 0-.2 0-.3-.1l-7.2-4.1c-.2-.1-.2-.3-.3-.4 0-.2.1-.3.2-.4l6-3.5c.2-.1.3-.1.5 0l7.2 4.1c.2.1.2.3.3.4 0 .2-.1.3-.2.4l-6 3.5s-.1.1-.2.1zm-6.2-4.7 6.2 3.6 5-2.9-6.2-3.6-5 2.9z"/><path fill="#678aee" d="M456.3 520.6c-.1 4.2-2.9 8.5-8.4 11.7-11.3 6.6-29.7 6.6-41.1 0-5.3-3.1-8.2-7-8.5-11.1-.1-1.2 0-2.3.3-3.5.9-3.4 3.6-6.6 8.1-9.3 11.3-6.6 29.7-6.6 41.1 0 5 2.9 7.8 6.5 8.4 10.2.1.8.1 1.4.1 2z" opacity=".5"/><path fill="#bc3e56" d="m391.8 425 8.5-4.9-.2 54.1-8.4 4.9z"/><path fill="#7b2939" d="m359.9 460.7 8.4-4.9 32-35.7-8.5 4.9z"/><path fill="#f45170" d="m391.8 425-.1 54.1-35.6-20.6z"/><path fill="#bc3e56" d="m461.7 425-8.4-4.9.1 54.1 8.5 4.9z"/><path fill="#7b2939" d="M498.5 457.9 490 453l-36.7-32.9 8.4 4.9z"/><path fill="#f45170" d="m461.7 425 .2 54.1 36.6-21.2z"/><path fill="#4c5c75" d="M455.1 492.9v14.6c0 4.1-2.7 8.2-8.1 11.4-10.9 6.3-28.6 6.3-39.5 0-4.8-2.8-7.6-6.4-8.1-10-.1-.5-.1-1-.1-1.5v-14.7.9c.4 3.9 3.1 7.7 8.2 10.6 10.9 6.3 28.6 6.3 39.5 0 5.4-3.2 8.1-7.3 8.1-11.3z"/><path fill="#57b3fe" d="M457.1 489.2c-.1 4.4-3 8.7-8.7 12.1-11.7 6.8-30.6 6.8-42.3 0-5.5-3.2-8.4-7.2-8.8-11.4-.1-1.2 0-2.4.3-3.6.9-3.5 3.7-6.8 8.3-9.5 11.7-6.8 30.6-6.8 42.3 0 5.1 2.9 8 6.7 8.7 10.5.2.7.3 1.3.2 1.9z"/><path fill="#c9cee2" d="M473 351.6c-.1 6.8-4.6 13.5-13.5 18.7-18.1 10.5-47.5 10.5-65.7 0-8.5-4.9-13.1-11.2-13.7-17.7-.2-1.9 0-3.7.5-5.6 1.4-5.4 5.7-10.6 12.9-14.8 18.1-10.5 47.5-10.5 65.7 0 7.9 4.6 12.4 10.4 13.5 16.4.2 1 .3 2 .3 3z"/><path fill="#f1f6fa" d="M473.7 435.6c0 9.3-1.5 18.5-4.6 27.2l-12.2 35.5v.1c-.9 3.5-3.7 6.8-8.3 9.5-11.7 6.8-30.6 6.8-42.3 0-4.9-2.8-7.7-6.3-8.6-10l-12.2-35.1c-3-8.8-4.6-18-4.6-27.2l-.7-72.5c-.1-.9-.1-1.9-.2-2.8v-.4c-.1-1.8-.1-3.6 0-5.4 0-.6.1-1.2.1-1.9.6 6.4 5.2 12.8 13.7 17.7 18.2 10.5 47.6 10.5 65.7 0 8.8-5.1 13.4-11.9 13.5-18.6.2 3.9.7 83.9.7 83.9z"/><path fill="#e3e7f0" d="M443.4 410.2v26.6c0 8.9-7.2 16.1-16.1 16.1-8.9 0-16.1-7.2-16.1-16.1v-26.6c0-8.9 7.2-16.1 16.1-16.1 8.9 0 16.1 7.2 16.1 16.1z"/><path fill="#57b3fe" d="M437.3 414.8v20.4c0 5.7-4.6 10.6-10.3 10.5-2.6-.1-5-1.2-6.8-2.9-1.8-1.8-2.9-4.3-2.9-7.1v-20.9c0-.6.2-1.1.5-1.6l8.7-11.5c.4-.5 1.1-.5 1.5 0l8.7 11.5c.4.5.6 1.1.6 1.6z"/><path fill="#cc104a" d="m504 527.4-5.4 3.2-45.4-26.2.1-52.2 5.5-3.1z"/><path fill="#e93565" d="m453.3 452.2 5.5-3.1 45.2 78.3-5.4 3.2z"/><path fill="#cc104a" d="m453.3 452.2 45.3 78.4-45.4-26.2z"/><path fill="#cc104a" d="M401 503.8 355.6 530l-5-2.9 45.2-78.4 5 2.9z"/><path fill="#e93565" d="m400.8 451.6-5-2.9-45.2 78.4 5 2.9z"/><path fill="#cc104a" d="M400.8 451.6 355.6 530l45.4-26.2z"/><path fill="#b0b8cf" d="M442.4 348.1v4.7c0 2.6-1.7 5.1-5.1 7.1-6.8 4-17.9 3.9-24.8 0-3.5-2-5.2-4.6-5.2-7.2V348c0 2.6 1.7 5.2 5.2 7.2 6.9 4 18 4 24.8 0 3.5-2 5.1-4.5 5.1-7.1z"/><path fill="#f1f6fa" d="M437.2 340.8c6.9 4 7 10.4.2 14.4s-17.9 3.9-24.8 0c-6.9-4-6.9-10.3-.1-14.3 6.8-4 17.8-4 24.7-.1z"/><path fill="#1c2841" d="M433.4 336.4v7.6c0 4.7-3.8 8.4-8.4 8.4-4.7 0-8.4-3.8-8.4-8.4v-7.6h16.8z"/><path fill="#e5bd13" d="M433.6 335.3c4.8 2.8 4.9 7.3.1 10.1-4.8 2.8-12.6 2.8-17.4 0-4.8-2.8-4.9-7.3-.1-10.1 4.8-2.8 12.5-2.8 17.4 0z"/><path fill="#497bfe" d="M437.6 339.9v2.6c0 1.9-1.2 3.7-3.7 5.1-5 2.9-13 2.9-18 0-2.5-1.5-3.8-3.3-3.8-5.2v-2.6c0 1.9 1.2 3.8 3.8 5.2 5 2.9 13 2.9 18 0 2.5-1.4 3.7-3.2 3.7-5.1z"/><path fill="#57b3fe" d="M433.9 334.6c5 2.9 5.1 7.5.1 10.4-5 2.9-13 2.9-18 0s-5-7.5-.1-10.4c5-2.9 13-2.9 18 0z"/><path fill="#1c2841" d="M437.2 336.2v3c0 1.8-1.2 3.6-3.6 5-4.8 2.8-12.6 2.8-17.4 0-2.4-1.4-3.7-3.2-3.6-5.1v-3c0 1.8 1.2 3.7 3.6 5.1 4.8 2.8 12.6 2.8 17.4 0 2.5-1.4 3.6-3.2 3.6-5z"/><path fill="#e5bd13" d="M433.6 331.1c4.8 2.8 4.9 7.3.1 10.1-4.8 2.8-12.6 2.8-17.4 0-4.8-2.8-4.9-7.3-.1-10.1 4.8-2.8 12.5-2.8 17.4 0z"/><path fill="#497bfe" d="M437.6 335.7v2.6c0 1.9-1.2 3.7-3.7 5.1-5 2.9-13 2.9-18 0-2.5-1.5-3.8-3.3-3.8-5.2v-2.6c0 1.9 1.2 3.8 3.8 5.2 5 2.9 13 2.9 18 0 2.5-1.4 3.7-3.2 3.7-5.1z"/><path fill="#57b3fe" d="M433.9 330.4c5 2.9 5.1 7.5.1 10.4-5 2.9-13 2.9-18 0s-5-7.5-.1-10.4c5-2.9 13-2.9 18 0z"/><path fill="#1c2841" d="M437.2 332v3c0 1.8-1.2 3.6-3.6 5-4.8 2.8-12.6 2.8-17.4 0-2.4-1.4-3.7-3.2-3.6-5.1v-3c0 1.8 1.2 3.7 3.6 5.1 4.8 2.8 12.6 2.8 17.4 0 2.5-1.4 3.6-3.2 3.6-5z"/><path fill="#e5bd13" d="M433.6 326.9c4.8 2.8 4.9 7.3.1 10.1-4.8 2.8-12.6 2.8-17.4 0-4.8-2.8-4.9-7.3-.1-10.1 4.8-2.8 12.5-2.8 17.4 0z"/><path fill="#497bfe" d="M437.6 331.5v2.6c0 1.9-1.2 3.7-3.7 5.1-5 2.9-13 2.9-18 0-2.5-1.5-3.8-3.3-3.8-5.2v-2.6c0 1.9 1.2 3.8 3.8 5.2 5 2.9 13 2.9 18 0 2.5-1.4 3.7-3.3 3.7-5.1z"/><path fill="#57b3fe" d="M433.9 326.2c5 2.9 5.1 7.5.1 10.4-5 2.9-13 2.9-18 0s-5-7.5-.1-10.4c5-2.9 13-2.9 18 0z"/><path fill="#f2a150" d="M432.3 327c4.1 2.4 4.2 6.2.1 8.6-4.1 2.4-10.7 2.3-14.8 0-4.1-2.4-4.1-6.2 0-8.6 4-2.4 10.6-2.4 14.7 0z"/><path fill="#57b3fe" d="M418.2 331.9v1.3l2.9 1.7v-1.3z"/><path fill="#497bfe" d="M421.1 333.6v1.3l10-5.8v-1.3z"/><path fill="#fff" d="m418.2 331.9 2.9 1.7 10-5.8-2.9-1.7z"/><path fill="#a8b6cc" d="M419.1 315.2c-.3 0-.6-.1-1-.3-1.2-.7-2.1-2.3-2.1-3.6 0-.7.2-1.2.7-1.5.4-.3 1-.2 1.6.1 1.2.7 2.1 2.3 2.1 3.7 0 .7-.2 1.2-.7 1.4-.1.1-.3.2-.6.2zm-1.8-5.2c-.2 0-.3 0-.4.1-.3.2-.5.6-.5 1.2 0 1.2.9 2.7 1.9 3.3.5.3.9.3 1.3.1.3-.2.5-.6.5-1.1 0-1.2-.9-2.7-1.9-3.4-.3-.2-.6-.2-.9-.2z"/><path fill="#a8b6cc" d="M421.2 314c-.3 0-.6-.1-1-.3-1.2-.7-2.1-2.3-2.1-3.6 0-.7.2-1.2.7-1.5.4-.3 1-.2 1.6.1 1.2.7 2.1 2.3 2.1 3.7 0 .7-.2 1.2-.7 1.4-.2.2-.4.2-.6.2zm-1.8-5.2c-.2 0-.3 0-.4.1-.3.2-.5.6-.5 1.2 0 1.2.9 2.7 1.9 3.3.5.3.9.3 1.3.1.3-.2.5-.6.5-1.1 0-1.2-.9-2.7-1.9-3.4-.4-.1-.7-.2-.9-.2z"/><path fill="#a8b6cc" d="M423.2 312.8c-.3 0-.6-.1-1-.3-1.2-.7-2.1-2.3-2.1-3.6 0-.7.2-1.2.7-1.5.4-.3 1-.2 1.6.1 1.2.7 2.1 2.3 2.1 3.7 0 .7-.2 1.2-.7 1.4-.2.2-.4.2-.6.2zm-1.8-5.2c-.2 0-.3 0-.4.1-.3.2-.5.6-.5 1.2 0 1.2.9 2.7 1.9 3.3.5.3.9.3 1.3.1.3-.2.5-.6.5-1.1 0-1.2-.9-2.7-1.9-3.4-.4-.1-.7-.2-.9-.2z"/><path fill="#a8b6cc" d="M425.2 311.7c-.3 0-.6-.1-1-.3-1.2-.7-2.1-2.3-2.1-3.6 0-.7.2-1.2.7-1.5.4-.3 1-.2 1.6.1 1.2.7 2.1 2.3 2.1 3.7 0 .7-.2 1.2-.7 1.4-.2.1-.4.2-.6.2zm-1.8-5.2c-.2 0-.3 0-.4.1-.3.2-.5.6-.5 1.2 0 1.2.9 2.7 1.9 3.3.5.3.9.3 1.3.1.3-.2.5-.6.5-1.1 0-1.2-.9-2.7-1.9-3.4-.4-.1-.6-.2-.9-.2z"/><path fill="#a8b6cc" d="M427.2 310.5c-.3 0-.6-.1-1-.3-1.2-.7-2.1-2.3-2.1-3.6 0-.7.2-1.2.7-1.5.4-.3 1-.2 1.6.1 1.2.7 2.1 2.3 2.1 3.7 0 .7-.2 1.2-.7 1.4-.1.2-.4.2-.6.2zm-1.8-5.2c-.2 0-.3 0-.4.1-.3.2-.5.6-.5 1.2 0 1.2.9 2.7 1.9 3.3.5.3.9.3 1.3.1.3-.2.5-.6.5-1.1 0-1.2-.9-2.7-1.9-3.4-.3-.1-.6-.2-.9-.2z"/><path fill="#a8b6cc" d="M429.2 309.4c-.3 0-.6-.1-1-.3-1.2-.7-2.1-2.3-2.1-3.6 0-.7.2-1.2.7-1.5.4-.3 1-.2 1.6.1 1.2.7 2.1 2.3 2.1 3.7 0 .7-.2 1.2-.7 1.4-.1.1-.3.2-.6.2zm-1.7-5.3c-.2 0-.3 0-.4.1-.3.2-.5.6-.5 1.2 0 1.2.9 2.7 1.9 3.3.5.3.9.3 1.3.1.3-.2.5-.6.5-1.1 0-1.2-.9-2.7-1.9-3.4-.4-.1-.7-.2-.9-.2zM421.5 318.4c.6 2.3 1.3 6.5 1.1 12.9 0 .2-.2.4-.4.4-.1 0-.2 0-.3-.1-.1-.1-.1-.2-.1-.3.2-6.1-.4-10.1-1-12.4-.6-2.5-1.3-3.5-1.4-3.6-.1-.1-.2-.4 0-.5.1-.2.4-.2.6 0 .1-.1.9 1.1 1.5 3.6z"/><path fill="#a8b6cc" d="M430.1 309.2c0 .1-.9 2.2-1.7 5.8-.7 3.2-1.5 8.1-1.1 13.7 0 .1 0 .2-.1.3-.1.1-.2.1-.3.1-.2 0-.4-.2-.4-.4-.8-11.1 2.8-19.8 2.8-19.9.1-.2.3-.3.5-.2.3.2.4.4.3.6z"/><path fill="#eec982" d="M446 298.3c2.1 8.1-.2 15.7-5.2 20.9-2.9 3.1-4.6 7.3-4.6 11.6 0 1.7-1 3.4-3.3 4.6-4.4 2.5-11.6 2.5-16 0-2.2-1.2-3.2-2.8-3.3-4.4 0-.1 0-.3-.1-.4v-.1c0-4.1-1.4-8.1-4.3-11-3.8-3.9-6.2-9.3-6.2-15.2 0-14.1 13.4-25.1 28.1-21 7.4 2 13 7.7 14.9 15z"/><path fill="#6bb4f9" d="M473 351.6c0 1.7-.3 3.4-.9 5.1-1.7 5-5.9 9.7-12.6 13.6-7.4 4.3-16.7 6.8-26.3 7.6-1.6.1-3.2.2-4.8.2-3.4.1-6.9-.1-10.2-.4l-2.4-.3c-2.2-.3-4.3-.7-6.4-1.2-.4-.1-.7-.2-1.1-.3-5.3-1.3-10.2-3.2-14.5-5.7-4.9-2.8-8.5-6.2-10.8-9.7-.8-1.2-1.4-2.5-1.9-3.8-.5-1.4-.8-2.8-1-4.2 0-.9.1-1.8.2-2.7.1-.9.2-1.9.3-2.8 4-35.2 27-73.6 38.9-91.4 3.4-5.1 10.8-5.1 14.2 0 1.6 2.4 3.4 5.2 5.4 8.4.7 1.1 1.4 2.2 2.1 3.4 5.1 8.4 10.9 18.8 16.1 30 .2.4.4.8.5 1.2 1 2.2 2 4.4 3 6.7.3.8.7 1.7 1 2.5 1.4 3.4 2.7 7 3.9 10.5.6 1.6 1.1 3.3 1.6 4.9 2.6 8.4 4.6 17 5.4 25.3.1 1.1.2 2.1.3 3.1z" opacity=".32"/><path fill="#ffd06c" d="M472.9 374.2v2.2c11 6.8 17 15.3 17 24.3 0 9.3-6.3 18.1-17.9 24.8-24.6 14.3-63.3 14.2-88.2-.2-11.7-6.8-18.2-15.7-18.2-25.1 0-8.2 5.1-16.1 14.4-22.5v-2.3c-10.5 6.9-16.2 15.6-16.2 24.8 0 10.1 6.8 19.6 19.2 26.7 12.8 7.4 29.1 11.1 45.4 11.1 16.1 0 32.2-3.6 44.7-10.9 12.2-7.1 18.9-16.5 18.8-26.4-.1-9.9-6.8-19.3-19-26.5z"/><path fill="#bf7d5a" d="M399.1 436.6c-2.2 0-4-1.8-4-4s1.8-4 4-4 4 1.8 4 4-1.8 4-4 4z"/><path fill="#e93565" d="M491.8 409.7c0 1.8-1.5 3.3-3.3 3.3-1.8 0-3.3-1.5-3.3-3.3 0-1.8 1.5-3.3 3.3-3.3 1.9 0 3.3 1.5 3.3 3.3z"/><path fill="#72d561" d="M369.3 393.6c0 2.1-1.7 3.8-3.8 3.8-2.1 0-3.8-1.7-3.8-3.8 0-2.1 1.7-3.8 3.8-3.8 2.1.1 3.8 1.7 3.8 3.8z"/><path fill="#939fbc" d="M559.3 406.3s-3.9 6.8-2.4 9.1c1.4 2.3 6.7 2.6 7.8-1.9 1.1-4.5 1.1-5.6 1.6-6.7.5-1.1-1.8-3-1.9-3l-5.1 2.5zM545 397.2s-8.6 3.8-8.1 6.8c.4 3 6.1 1.5 8 0 1.9-1.5 3.1-2 4.9-1.7 1.9.3 4.5-.6 4.5-2.1s-.8-3.1-.8-3.1l-4.2-2.5-4.3 2.6z"/><path fill="#f4d6d4" d="M514.3 304.6c-.5 2.3-4.1 3.1-8.8 1.5-3-1 0-5.2 0-5.2s-4.2-.8-3.8-1.9c.6-1.7 5.3-.3 7 .3.1 0 .2-.1.1-.1-1.3-1.1-.8-1.8 0-2 .9-.2 1.7 1.4 3.1 2.7 1.5 1.2 3 2.4 2.4 4.7z"/><path fill="#8a4852" d="M547.1 274.1s1 1.4 2.8 2.7c2.2 1.7 5.5 3.5 9.5 2.6 2.2 1.7 0 6.2 0 6.2h1.1s1.8-4 3.3-2.5c1.5 1.5-1.7 5.4-1.7 5.4l1 3.6s7.5-13.1 3.6-16.7c0 0-1.2-6.2-7.4-6.1-6.3.3-8.5 4.7-12.2 4.8z"/><path fill="#aa6256" d="M560 281.3c-.1-.4-.3-.8-.6-1.2.3.3.5.7.6 1.2z"/><path fill="#f5c9c6" d="M553.1 293.2c-.1 1.4.3 3 1 4.1 0 0 6.6 2.1 9.5-2.9l-.8-3.3-.6-2.5s-.6.5-1.5 1.2c-1.7 1.2-4.4 3-7.2 3.3-.2.1-.4.1-.4.1z"/><path fill="#111d33" d="M553.6 397.1c-4.2 1.9-6 2.1-9.5.5 0 0-1-19.5-3.4-35.4-2.3-15.9 1.6-25.4 1.6-25.4l9.2 1 3.7 27.6-1.6 31.7z"/><path fill="#fff" d="M562.8 295s-3.3 4.4-3.3 4.5c0 .1-1.8 7.2-2 7.3s-5.1 7.8-5.1 7.8L548 318s-1.3-2-1.3-2.2c0-.1-.2-8.7-.1-8.8.1-.1 3.3-12.5 3.3-12.5 2.8 5.4 7.5 4.9 12.9.5z"/><path fill="#f45170" d="m554 297.3-2.7 2.1.7 1.7-4.9 11.4.8 3.6 1.9-2.6 3.5-12.1 1.5-1.1z"/><path fill="#1d2943" d="M569.2 348.4s-3.8 16.2-2.6 27.4c1.2 11.2 2 21.9-.4 30.9-2.7 1.7-4.6.8-7.1-.2 0 0-10.4-55.5-10.1-59.2.3-3.6 20.2 1.1 20.2 1.1zM552.9 290.4c-5.2 11.6-8.9 21.2-17.9 25.7-.9.5-2 .8-3 .7-.5 0-.9-.1-1.4-.2-5.4-1.6-13.7-5.7-18.9-9.2-.5-.1 1-7.3 1.5-7.1l16.6 5.9c.6.2 1.2 0 1.5-.5 2.1-3 9.8-13.2 14.7-14.5l6.9-.8z"/><path fill="#4c5c75" d="M546.3 308.4c-.2.2.8 5.6 1.6 7.9.1.2-.8 6.5-.8 6.5l2.4 2.6-1.8 21.6c-.1.2-.1.3-.2.4-.9 1.4-2.9 1.1-5.7.5-3-.6-2.8-4.8-2.8-4.8s.6-10.3 1.7-15.6c.5-2.3.7-8.5 1-15-.4-5.8-.2-11.2.7-16.2.4-2.3 2-4.3 4.2-5.1 2.9-1.1 6.5-1.6 6.5-1.6l-3.3 4s-1.3 7.5-1.5 7.5c-.3-.1-1.9 7.1-2 7.3z"/><path fill="#1d2943" d="m549.5 325.3-1.8 21.6c-.1.2-.1.3-.2.4l-.1-.1-.5-24.2.9-6.7 1.7 9z"/><path fill="#4c5c75" d="M568.8 349.6c-3.7 1.4-16.1 4.5-21.1-2.7l.2-30.3c.4.2 9.9-17.2 16.5-25.8l2.2 3.5s7.5 6 7.7 7.7c.2 1.7-5.8 13.7-6.5 18.7-.6 4.8.1 21.1 1.7 27.4.2.7-.1 1.3-.7 1.5z"/><path fill="#dedffb" d="M565.1 291.7c-.1-.5-.5-.9-.9-1.2l-.7-.5s-4.1 6.8-9.4 7.3l.9 3.4s6.2-1.9 8.8-5c1.5-1.8 1.5-3.1 1.3-4zM554 297.3s-1.5-3.2-.8-7.8l-3.4 5.5c.2 1.6.6 3.1 1.4 4.4l2.8-2.1z"/><path fill="#1d2943" d="M562.9 301.5h-3.2l1.8 2.6-13.7 12.6c-.4-1 8.6-16.9 16.7-24 .5-.5.6-1.2.1-1.8l-.6-.5.4-.9s.7.4.8.6c1.5 1.8 1.7 4.2.6 6.1l-2.9 5.3z"/><path fill="#1d2943" d="M548 316.5c-1.4-8.9 3.9-26.7 3.9-26.7-5.4-1.4-6.8 6.9-6.8 6.9l2.3 1.7-2.5.7c-.6 6 2 14.1 3.1 17.6v-.2z"/><path fill="#f4d6d4" d="M562.1 288.7s-.6.5-1.5 1.2c-1.7 1.2-4.4 3-7.2 3.3h-.1c-.8.1-1.6.1-2.4-.1-3.6-1.2-2.5-14.5-1-16.3 2.2 1.7 5.5 3.5 9.5 2.6.1.1.2.1.2.2.3.3.5.7.6 1.2.5 2-.9 4.8-.9 4.8h1.1s1.8-4 3.3-2.5c1.6 1.7-1.6 5.6-1.6 5.6z"/><path fill="#51383c" d="M559.3 279.5s3.6-.3 7.3-3.9c-2.3 1.4-4.7 2.7-7.3 3.9z"/><path fill="#8a4852" d="M563.8 286c-.6 1.4-1.7 2.7-1.7 2.7l1 3.6s1.7-2.9 3-6.3h-2.3z"/><path fill="#dba660" d="m553.6 336.7-12.6-4.4-5.9-21.9 12.9 5.5z"/><path fill="#f1f6fa" d="m544.4 315.1-4.6-1.7-.3-1.8 4.5 1.9z"/><path fill="#f4d6d4" d="M554.8 328.1s-1.8.3-2.3.4c-7.7 1.3-9.5-4.4-7.5-6.1 1-.8 2.3 2.1 3.2 2.5.9.6 2.2.2 2.3-.5.1-.7-.7-.5-.6-1.6.1-.8 2.4-.2 3.1.3.7.5 1 1.7 1 1.7l.8 3.3z"/><path fill="#1d2943" d="M571.7 327.9c-3.5 2.9-18.7.9-18.7.9-.4 0 0-5.9.4-5.9l11.8-1.6c.4 0 .8-.4.8-.8.3-2.5 1.1-10.6 1.5-15.5.4-5.8 5-4.4 5-4.4 6.7 1 2.6 24.4-.8 27.3z"/><path fill="#ffb961" d="m615.1 261.4-.1 26c0 .6-.2 1-.5 1.2l-.9.5c-.4.3-.9.3-1.5-.1l-29.9-17.2-6.8 3.9v-7.8l-2.6-1.5c-1-.6-1.9-2-1.9-3.2l.1-26c0-.6.2-1.1.6-1.2h-.1l1-.6c.3-.2.8-.2 1.3.1l39.2 22.6c1.2.7 2.1 2.1 2.1 3.3z"/><path fill="#ffb961" d="m615.1 261.4-.1 26c0 .6-.2 1-.5 1.2l-1 .6c.3-.2.5-.6.5-1.2l.1-26c0-1.2-.8-2.6-1.9-3.2L573 236.1c-.5-.3-1-.3-1.3-.1l1-.6c.3-.2.8-.2 1.3.1l39.2 22.7c1 .6 1.9 2 1.9 3.2z"/><path fill="#ffd06c" d="M612.2 258.8c1 .6 1.9 2.1 1.9 3.2l-.1 26c0 1.2-.8 1.7-1.9 1.1l-29.9-17.2-6.8 3.9V268l-2.6-1.5c-1-.6-1.9-2.1-1.9-3.2l.1-26c0-1.2.8-1.7 1.9-1.1l39.3 22.6z"/><g opacity=".5"><ellipse cx="586.6" cy="249.8" fill="#fff" rx=".9" ry="1.5" transform="rotate(-30.273 586.611 249.79)"/><path fill="#fff" d="M610.1 281.4v1.3l-34.5-19.9v-1.3z"/><ellipse cx="592.9" cy="253.4" fill="#fff" rx=".9" ry="1.5" transform="rotate(-30.273 592.912 253.428)"/><path fill="#fff" d="M610.1 276.9v1.3l-34.5-20v-1.3z"/><ellipse cx="599.2" cy="257.1" fill="#fff" rx=".9" ry="1.5" transform="rotate(-30.273 599.212 257.066)"/><path fill="#fff" d="M610.1 272.3v1.3l-34.5-19.9v-1.3zM610.2 267.8l-.1 1.3-34.5-19.9v-1.3z"/></g><linearGradient id="l" x1="353.642" x2="373.174" y1="608.241" y2="579.734" gradientUnits="userSpaceOnUse"><stop offset="0" stop-color="#f1eff6"/><stop offset="1" stop-color="#b6bce1" stop-opacity="0"/></linearGradient><path fill="url(#l)" d="M385.8 607c1.3.8 1.3 2 0 2.8L356 627.1c-1.3.8-3.4.8-4.8 0l-30-17.3c-1.3-.8-1.3-2 0-2.8l29.8-17.3c1.3-.8 3.4-.8 4.8 0l30 17.3z"/><path fill="#74ca73" d="M382.2 603s0 .1 0 0c0 .1 0 0 0 0zM381.9 603.5c.1-.1.2-.3.3-.4-.1.1-.2.3-.3.4zM382.3 602.8c0 .1-.1.2-.1.2.1-.1.1-.3.1-.4v.2zM382.3 602.6v.2-.2z"/><path fill="#74ca73" d="M382.3 602.6c0-.5-.3-1-1-1.4l-29.2-16.8c-1.3-.7-3.4-.7-4.6 0l-29 16.9c-.6.4-1 .8-1 1.3v4.8c0 .5.3 1 1 1.3l29.2 16.9c1.3.7 3.4.7 4.6 0l29-16.9c.6-.4.9-.8.9-1.3v-4.6c0 .1-.1.2-.1.2.2-.1.2-.2.2-.4zm-.4.9c.1-.1.2-.3.3-.4-.1.1-.2.3-.3.4zM382.2 603s0 .1 0 0c0 .1 0 0 0 0z"/><path fill="#74ca73" d="M381.9 603.5c.1-.1.2-.3.3-.4-.1.1-.2.3-.3.4zM382.3 602.8c0 .1-.1.2-.1.2.1-.1.1-.3.1-.4v.2z"/><path fill="#74ca73" d="M382.3 602.6v4.8c0 .5-.3 1-1 1.3l-29 16.9c-1.3.7-3.4.7-4.6 0l-29.2-16.9c-.6-.4-1-.9-1-1.4v-4.8c0 .5.3 1 1 1.4l29.2 16.9c1.3.7 3.4.7 4.6 0l29-16.9c.7-.3 1-.8 1-1.3z"/><path fill="#95d895" d="M381.3 601.3c1.3.7 1.3 1.9 0 2.7l-29 16.9c-1.3.7-3.3.7-4.6 0L318.5 604c-1.3-.7-1.3-1.9 0-2.7l29-16.9c1.3-.7 3.4-.7 4.6 0l29.2 16.9z"/><path fill="#fff" d="M370.2 603.8c-11.6-.7-29.3 2.4-31.1 2.8-.9.2-2 0-2.7-.4-.7-.4-1-1-.5-1.8 1.5-2 1.2-8.2 1.1-8.5.2.1.4.2.5.3 3.1 1.8 2.8 7.2 2.8 7.5 20-3.5 29.4 0 29.9.1z"/><path fill="#fff" d="m457.8 298.6-48.5 77.6c-.4-.1-.7-.2-1.1-.3-5.3-1.3-10.2-3.2-14.5-5.7-4.9-2.8-8.5-6.2-10.8-9.7-.8-1.2-1.4-2.5-1.9-3.8l58-92.8c.7 1.1 1.4 2.2 2.1 3.4 5.1 8.4 10.9 18.8 16.1 30 .2.6.4 1 .6 1.3zM467.3 323.3 433.1 378c-1.6.1-3.2.2-4.8.2-3.4.1-6.9-.1-10.2-.4l43.7-69.9c1.4 3.4 2.7 7 3.9 10.5.6 1.6 1.1 3.2 1.6 4.9z" opacity=".3"/><path fill="#72d561" d="M671.1 531.4V532c-.5 3.8-1.7 11.1-3 14.2-1.3 3.2-2.9 6.1-4.4 9.1-1 1.9-3.3 2.6-5.1 1.6-1.9-1-2.6-3.3-1.6-5.1v-.1c3.4-6.6 5.9-13.2 7-19.9-.6-2.5-1.7-5.3-2.8-7.9-1.2-2.9-2.8-5.8-4.1-8.7-.6-1.4 0-3.1 1.4-3.7 1.3-.6 2.9 0 3.6 1.2 1.6 2.9 3.3 5.6 4.8 8.6s3 6 4.1 9.6c.1-.1.1.2.1.5z"/><path fill="#df3260" d="M667.6 630c-.9 1.2-3.9 1.2-5 .1-1-1-5.1.2-8.5-2.4-3.3-2.6-1.5-5-.1-4.4 1.4.6 4.3.3 4.3.3s5.6-.6 7.8.8 2.4 4.3 1.5 5.6z"/><path fill="#4c5c75" d="M667.4 625.7c-1.4-.1-2.8-.3-4-.7-1.2-.4-2.4-.9-3.4-1.6-1.8-11.3-4.5-23.1-7.7-31.9-.1-.2-.1-.4-.2-.6-.5-2.2-1-4.4-1.4-6.5-1.3-6.1-2.2-11.7-2.4-16.7l9.6-4.3 3.2-1.4 2.2 1.5v26.2c3.8 10.6 5.3 22.5 4.1 36z"/><path fill="#df3260" d="M650.4 640.1c-1.3.6-5.1-.3-5.1-.3-3 .3-11-.4-12.5-2.4-1.4-2.1.3-4.2 2.6-3.7 1.5.4 3.1-.1 4.1-.4.5-.2 1-.4 1.5-.7l.8-.6s6.1 1.8 9.5 2.3c1.1 0 .5 5.2-.9 5.8z"/><path fill="#1d2943" d="M653.5 569.7c-.4 5.4-.9 10.8-1.1 16.1-.1 1.7-.2 3.4-.2 5.1-.5-2.2-1-4.4-1.4-6.5.3-5 1.2-9.9 2.7-14.7z"/><path fill="#4c5c75" d="M653.4 570.6c-1.9 10.5-2.5 21-1.2 31.4 1.3 8.4 0 19.2-.8 32.2-1.1-.1-2.1-.2-3.1-.3-2.8-.4-4.7-1-6.5-1.9 0 0-.3-16.8-1-26.3s-6.1-34.8-6.1-34.8l17.5-9.7 1.4 8.6c-.1.2-.2.5-.2.8z"/><path fill="#44546b" d="M667.4 625.7c-1.4-.1-2.8-.3-4-.7.1-.1.1-.2.2-.2 1.2-1.3 1.5-3.3 1.5-5 0-2.2-.4-4.3-.7-6.4-2.7-16-5.8-32-6.5-48.2v-1.7l3.2-1.4 2.2 1.5v26.2c3.8 10.5 5.3 22.4 4.1 35.9zM652.1 602c1.3 8.4 0 19.2-.9 32.2-1.1-.1-2.1-.2-3.1-.3 1.4-1.8 1.6-4.2 1.6-6.4-.1-8.7-1.7-17.4-2.9-26-1.2-8.6-2-17.5-.3-26.1.3-1.2.6-2.5 1.2-3.6.7-1.1 1.8-1.9 3.1-2 .9 0 1.7.3 2.5.9-1.9 10.4-2.5 20.8-1.2 31.3z"/><path fill="#78e75a" d="M662.1 569.3c-2.3 3.3-10.8 5.2-17.6 6-.8.1-1.6.2-2.3.2-2.4.2-4.4.1-5.6 0-1.1-.2-1.7-1-2-2.3-.9-3.3.2-9.6.9-15.3.2-1.7.4-3.4.5-4.9v-.3c.1-1.2 0-2.7-.3-4.3-1-7.5-4-18.4-2.5-24.3.5-1.7 1.3-3.1 2.8-3.7l18.9-10s3-1.3 5.5.4c.3.2.5.4.7.6.8.8 1.6 2 2.1 3.8.7 2.5.6 6.1.3 10-.7 7.9-2.4 17.4-1.5 23.4 1.4 9.1 3.6 15.8.1 20.7z"/><path fill="#f4d6d4" d="m652.4 510.7.1 1.7c-1.4 2.2-4.7 3.5-8.4 4.6-.1-.3-.1-.5-.2-.7-.2-.7-.5-1.3-.9-1.7h-2.4c-1.6 0-4.8-5.1-4.3-8.2.4-3.1-1.6-8-1.6-8l6.4-3.3 11.8 6.1-.5 9.5z"/><path fill="#f5c9c6" d="M650.8 509.5c0 .1-.5 4.7-.5 4.7l-5.8 2.4-.9-1c-.2-.7-.3-.9-.8-1.2 0 0 3.9-1.2 5.5-3.2 1.5-1.9 2.4-1.8 2.5-1.7z"/><path fill="#fff" d="M654.2 510.7v.4c.1 1.1-.1 2.1-.6 3.1-2.8 5.4-12.2 3.2-12.2 3.2.8-.7 1.4-1.6 1.8-2.6 6.4 1.5 9.2-2.9 9.5-3.5l-.1-.3 1.6-.3z"/><path fill="#72d561" d="m636 552.6-1.6-12.1c2-2.7 3.4-6.3 4.6-10.5.1 0 2.5 12.1-3 22.6z"/><path fill="#72d561" d="m639.6 536.8-.8 28.6-3.5-6.6c.2-1.7.6-4.3.6-5.9v-.3c.1-1.2 0-2.7-.3-4.3l4-11.5z"/><path fill="#f4d6d4" d="M633.3 567.3s3.1-1 4.6-2.9c1.7-2 4.1-1.7 4.1-.7.1 1.5-2.2 2.9-3.5 3.6-2.4 1.4-4.8 2.4-5.2 0z"/><path fill="#78e75a" d="m640.9 526.2-7.8 22.6 5.2 15.4c.6 1-4.3 4.1-4.9 3.1l-8.4-17c-.3-.8-.4-1.5-.2-2.3l.1-.2 8.7-25.2c1-2 3.4-2.9 5.5-1.9 1.9 1 2.8 3.5 1.8 5.5z"/><path fill="#1d2943" d="M654.3 502.6c.3 7.7-3.7 11.2-6.6 11.4-2.9.2-3.3-1.8-4-5.1-.6-3-4.1-3.1-5.1-1-.1.4-.6.4-.9.1-.6-.6-1.2-1.8-.6-3.3 0-.1 0-.1.1-.2.5-1.3-.4-2.7-1.8-3-1.4-.3-3.6-1.2-2.8-4 .8-2.5 5-5.2 9.5-5.9 5.2-.9 10.2 2.1 11.6 7.2.3 1.1.5 2.4.6 3.8z"/><path fill="#5ec363" d="M662.1 569.3c-2.3 3.3-10.8 5.2-17.6 6-.8.1-1.6.2-2.3.2-2.4.2-4.4.1-5.6 0-1.1-.2-1.7-1-2-2.3h.1c.8-.4 1.7-.5 2.5-.5 5.7-.3 11.9 1.2 16.6-2 3-2 4.7-5.6 5.5-9.1 2.1-9.3-.9-19.1-.6-28.6.1-1.9.2-3.8.4-5.7.4-3.9.8-7.9 1.2-11.8.1-1.4.3-2.9 1-4.1.8.8 1.6 2 2.1 3.8.7 2.5.6 6.1.3 10-.7 7.9-2.4 17.4-1.5 23.4 1.2 9.1 3.4 15.8-.1 20.7z"/><linearGradient id="m" x1="247.669" x2="334.085" y1="438.181" y2="438.181" gradientUnits="userSpaceOnUse"><stop offset="0" stop-color="#f1eff6"/><stop offset="1" stop-color="#b6bce1" stop-opacity="0"/></linearGradient><path fill="url(#m)" d="M334.1 417.8c0 1-.3 1.7-.9 2l-3.3 1.9c-.2.3-.4.6-.7.7l-32.3 18.9c-.1 0-.1.1-.2.1l-2.6 1.5c-.4.2-.9.3-1.4.2l-24.3 14.1s-.1.1-.2.1l-2.8 1.7h-.1l-1.4.8-3.8 2.2-.1.1-2.6 1.6c-.1.1-.2.1-.2.1-.1.1-.3.1-.5.1l-5.7.1-3.2.1 1.7-2.7 2.9-4.6c.2-.4.5-.6.9-.7l6.4-3.8 1.4-.8c.1-.1.2-.1.3-.1l.7-.4 1.9-1.1c.1 0 .1-.1.2-.1l22-12.8.9-.5 1.3-.8c.2-.6.5-1 1-1.2 0 0-.1 0-.1.1l3.5-2c.1 0 .1-.1.2-.1l4.1-2.4-.8-.4v-.5l27.1-15.7 1.1.7c.3-.2.8-.3 1.3-.1l3-1.8c.5-.3 1.3-.3 2.2.2 1.7.9 3.1 3.3 3.1 5.3z"/><path fill="#4c5c75" d="M296.5 423.3c.5-.3 1.3-.3 2.2.2 1.7 1 3.1 3.4 3.1 5.3 0 1-.3 1.7-.9 2l30.6-17.9c.6-.3.9-1 .9-2 0-2-1.4-4.4-3.1-5.3-.9-.5-1.6-.5-2.2-.2l-30.6 17.9z"/><ellipse cx="296.5" cy="428.2" fill="#f1c40f" rx="2.5" ry="4.3" transform="rotate(-30.163 296.497 428.146)"/><path fill="#72d561" d="M290.3 426.3c.6-.4 1.5-.3 2.4.2 1.4.8 2.7 2.6 3.1 4.3.2.5.2 1 .2 1.6 0 1.1-.4 1.8-1 2.2l32.3-18.9c.6-.3 1-1.1 1-2.2 0-2.2-1.5-4.8-3.4-5.9-.9-.6-1.8-.6-2.4-.2l-2 1.2-30.2 17.7z"/><path fill="#78e75a" d="M290.3 426.3c.6-.4 1.5-.3 2.4.2 1.4.8 2.7 2.6 3.1 4.3l26-15.2c.6-.3 1-1.1 1-2.2 0-1.7-.9-3.6-2.2-4.9l-30.3 17.8z"/><ellipse cx="292.7" cy="430.4" fill="#d4d6d6" rx="2.8" ry="4.8" transform="rotate(-30.163 292.71 430.361)"/><path fill="#dedffb" d="M296.8 432c0 1.1-.4 1.8-1 2.2l-3.4 2c-.6.4-1.5.4-2.5-.2-1.9-1.1-3.4-3.7-3.4-5.8 0-1.2.4-1.9 1.1-2.3l3.4-2c.6-.4 1.4-.3 2.4.3 1.9 1 3.4 3.6 3.4 5.8z"/><path fill="#f3f1fc" d="M287.5 427.9c.6-.4 1.5-.3 2.4.2 1.9 1.1 3.4 3.7 3.4 5.8 0 1.1-.4 1.8-1 2.2l3.5-2c.6-.3 1-1.1 1-2.2 0-2.2-1.5-4.8-3.4-5.8-.9-.6-1.8-.6-2.4-.2l-3.5 2z"/><ellipse cx="289.9" cy="432" fill="#dedffb" rx="2.8" ry="4.8" transform="rotate(-30.163 289.873 431.998)"/><path fill="#72d561" d="M260.3 444.4c.6-.3 1.3-.3 2.1.2 1 .6 1.8 1.6 2.4 2.7.1.2.2.5.3.7.2.6.3 1.2.3 1.7 0 .9-.3 1.6-.9 1.9l27.2-15.8c.6-.3.9-1 .9-1.9 0-1.9-1.3-4.2-3-5.2-.8-.5-1.6-.5-2.1-.2l-2.2 1.3-.9.5-24.1 14.1z"/><path fill="#78e75a" d="M260.3 444.4c.6-.3 1.3-.3 2.1.2 1 .6 1.8 1.6 2.4 2.7l20.9-12.1c.6-.3.9-1 .9-1.9 0-1.1-.5-2.4-1.2-3.4l-.9.5-24.2 14z"/><path fill="#f3f1fc" d="M254.2 448c.5-.3 1.3-.3 2.1.2 1.7 1 3 3.3 3 5.2 0 .9-.3 1.6-.9 1.9l8-4.7c.5-.3.9-1 .9-1.9 0-1.9-1.3-4.2-3-5.2-.8-.5-1.6-.5-2.1-.2l-8 4.7z"/><ellipse cx="256.3" cy="451.7" fill="#f1c40f" rx="2.5" ry="4.2" transform="rotate(-30.163 256.276 451.633)"/><path fill="#72d561" d="M251.2 449.7c.5-.3 1.3-.3 2.1.2 1.2.7 2.2 2 2.7 3.4.2.6.3 1.2.3 1.8 0 .9-.3 1.6-.9 1.9l8.1-4.8c.6-.3.9-1 .9-1.9 0-1.9-1.3-4.3-3-5.2-.9-.5-1.6-.5-2.1-.2l-1.4.8-6.7 4z"/><path fill="#78e75a" d="M251.2 449.7c.5-.3 1.3-.3 2.1.2 1.2.7 2.2 2 2.7 3.4l2.7-1.6c.6-.3.9-1 .9-1.9 0-1.4-.7-2.9-1.7-4.1l-6.7 4z"/><ellipse cx="253.3" cy="453.4" fill="#d4d6d6" rx="2.5" ry="4.3" transform="rotate(-30.163 253.319 453.36)"/><path fill="#1d2943" d="m245.9 457.5 3.2-.1c-.1-1-.7-2-1.4-2.6l-1.8 2.7z"/><path fill="#1d2943" d="M324 408.1v1.7l-.5.3-1-.6-25.6 14.8-2.4-1.4v-.5l27.1-15.7z"/><path fill="#111d33" d="m323.5 408.9-2.3-1.4v1.2l2.3 1.4zM296.9 423.8l-2.4-1.4v.5l2.4 1.4z"/><path fill="#4c5c75" d="m324 408.1-2.4-1.4-27.1 15.7 2.4 1.4z"/><path fill="#1d2943" d="M296.9 423.8v.5l26.6-15.4v1.2l.5-.3v-1.7z"/><path fill="none" d="M248.7 456.1s0 .1.1.1h-.2l.1-.1z"/><path fill="#ffde9b" d="m254.8 457.3-5.7.1c0-.4-.2-.8-.3-1.2l7.5-.5c-.2 1-.7 1.5-1.5 1.6z"/><path fill="#ffd06c" d="M254.2 450.6c1.2 1.2 2.1 3 2.1 4.5 0 .2 0 .4-.1.6l-7.5.5s0-.1-.1-.1l5.6-5.5z"/><path fill="#febc1f" d="m247.7 454.8 2.9-4.6c.5-.8 1.5-1 2.7-.4.3.2.6.4.9.7l-5.5 5.5c-.2-.4-.6-.9-1-1.2z"/><path fill="#7e5af2" d="M611.5 591.9v1.4c0 1.7-1.2 3.4-3.3 4.6-1.5.9-3.6 1.5-5.9 1.8l-37 4c-2.8.3-5.5-.2-7.3-1.3-1.1-.7-2-1.5-2.3-2.5-.1-.3-.1-.6-.1-.9v-1.4.2c-.1-1.3.8-2.6 2.4-3.5 1.1-.6 2.6-1.1 4.3-1.3l39.1-4.2c.3 0 .6 0 .8.2l.3.3v.2-.1 1.4c0 .3-.3.5-.7.5l-39.1 4.2c-1.3.1-2.5.5-3.3 1-.9.5-1.5 1.2-1.8 1.9.3.8.9 1.4 1.8 1.9 1.5.8 3.5 1.3 5.7 1l37-4c1.9-.2 3.6-.8 4.9-1.5 1.5-.8 2.4-1.9 2.7-3.1 0-.1 0-.2-.1-.3-.4-1.1-1.3-2.1-2.6-2.8-2.1-1.2-5.2-1.8-8.4-1.5l-38.5 4.2c-2.7.3-5 1-6.8 2.1-2.1 1.2-3.4 2.8-3.7 4.6 0 .3.1.5.2.8.5 1.6 1.8 2.9 3.6 4 3 1.7 7.3 2.6 11.7 2.1l18.4-2c.3 0 .6 0 .8.2l.3.3v.2-.1 1.4c0 .2-.3.5-.7.5l-18.4 2c-5 .5-9.9-.4-13.3-2.4-2.1-1.2-3.5-2.7-4.1-4.5-.2-.5-.3-1.1-.3-1.6V598c0-2.3 1.6-4.5 4.3-6.1 2-1.2 4.7-2 7.8-2.4l38.5-4.2c3.8-.4 7.5.3 10 1.8 1.5.9 2.7 2.1 3.1 3.4.2.5.2 1 .2 1.5-.2 0-.2 0-.2-.1z"/><path fill="#7e5af2" d="M602.4 589.2v1.4c0 .2-.3.5-.7.5v-1.4c.4 0 .7-.2.7-.5zM598.5 586.5v1.4l-38.4 4.1v-1.4z"/><path fill="#7e5af2" d="M609.7 591.9v1.4c0-.3-.1-.7-.2-1-.4-1.1-1.3-2.1-2.6-2.9-2.1-1.2-5.2-1.8-8.4-1.5v-1.4c3.2-.3 6.3.3 8.4 1.5 1.3.7 2.2 1.7 2.6 2.9.1.3.2.6.2 1zM601.7 589.7v1.4l-39.1 4.2v-1.4zM557.4 598.9v-1.4c0-1 .7-1.9 1.9-2.6.9-.5 2-.9 3.3-1v1.4c-1.3.1-2.4.5-3.3 1-1.2.7-1.9 1.7-1.9 2.6zM549.4 599.4V598c0-2 1.4-3.9 3.8-5.3 1.8-1 4.1-1.8 6.8-2.1v1.4c-2.7.3-5 1-6.8 2.1-2.3 1.4-3.8 3.3-3.8 5.3z"/><path fill="#7e5af2" d="M611.5 591.9v1.4c0 1.7-1.2 3.4-3.3 4.6-1.5.9-3.6 1.5-5.9 1.8v-1.4c2.3-.2 4.3-.9 5.9-1.8 2.1-1.2 3.3-2.9 3.3-4.6z"/><path fill="#7e5af2" d="M602.4 598.2v1.4l-37.1 4v-1.4zM555.6 598.9v-1.4c0 .3 0 .6.1.9.3 1 1.1 1.8 2.3 2.5 1.9 1.1 4.6 1.6 7.3 1.3v1.4c-2.7.3-5.5-.2-7.3-1.3-1.1-.7-1.9-1.5-2.3-2.5-.1-.3-.1-.6-.1-.9zM584.4 604v1.4c0 .2-.3.5-.7.5v-1.4c.4 0 .7-.2.7-.5zM583.6 604.6v1.3l-18.3 2v-1.4z"/><path fill="#b28afd" d="M608.2 587.2c1.6.9 2.7 2.1 3.1 3.4.7 2.2-.6 4.3-3.1 5.8-1.5.9-3.6 1.5-5.9 1.8l-37 4c-2.7.3-5.5-.2-7.3-1.3-1.1-.7-1.9-1.5-2.3-2.5-.5-1.6.4-3.2 2.2-4.2 1.1-.7 2.6-1.1 4.3-1.3l39.1-4.2c.3 0 .6 0 .8.1l.3.3c.1.3-.2.6-.7.6l-39.1 4.2c-1.3.1-2.4.5-3.3 1-1.4.8-2.2 2-1.8 3.3.3.8.9 1.4 1.8 1.9 1.4.8 3.5 1.3 5.7 1l37-4c1.9-.2 3.6-.7 4.9-1.5 2.1-1.2 3.2-3 2.6-4.9-.4-1.1-1.3-2.1-2.6-2.9-2.1-1.2-5.2-1.8-8.4-1.5l-38.4 4.2c-2.7.3-5 1-6.8 2.1-2.9 1.7-4.4 4.2-3.6 6.7.5 1.6 1.8 2.9 3.6 4 3 1.7 7.3 2.6 11.7 2.1l18.4-2c.3 0 .6 0 .8.2l.3.3c.1.3-.2.6-.7.6l-18.4 2c-5 .5-9.9-.4-13.3-2.4-2.1-1.2-3.5-2.7-4.1-4.5-.9-2.9.7-5.7 4.1-7.7 2-1.2 4.7-2 7.8-2.4l38.5-4.2c3.6-.3 7.3.5 9.8 1.9z"/><path fill="#7e5af2" d="M547.6 599.4V598c0 .5.1 1.1.3 1.6.6 1.8 2.1 3.3 4.1 4.5 3.4 1.9 8.3 2.9 13.3 2.4v1.4c-5 .5-9.9-.4-13.3-2.4-2.1-1.2-3.5-2.7-4.1-4.5-.2-.5-.3-1.1-.3-1.6z"/><path fill="#8fabfe" d="M156.9 449 112 474.9c-1.3.7-2.3.3-2.5-1l-.4-152.9 47.4-27.3.4 155.3z" opacity=".6"/><path fill="#e3e7f0" d="M90.8 233.9H365v1H90.8z" transform="rotate(-29.991 227.89 234.405)"/><path fill="#e3e7f0" d="M90.8 252.2H365v1H90.8z" transform="rotate(-29.991 227.89 252.67)"/><path fill="#8fabfe" d="M110.9 475.7c-.3 0-.6-.1-.8-.2-.6-.3-1-.9-1.1-1.6v-.5l-.4-152.4-.1-37.8c0-1.8 1.2-3.9 2.8-4.8l232.4-134.2c.8-.5 1.7-.6 2.3-.2.6.4 1 1.1 1 2.1l.5 190.2c0 1.8-1.2 3.9-2.8 4.8L112.3 475.3c-.5.3-.9.4-1.4.4zm234.2-330.9c-.3 0-.6.1-.9.3L111.8 279.2c-1.2.7-2.3 2.5-2.3 4l.1 37.8.4 152.4v.3c0 .3.2.7.5.9.3.2.8.1 1.3-.2l232.4-134.2c1.2-.7 2.3-2.5 2.3-4l-.5-190.1c0-.6-.2-1-.5-1.2-.1-.1-.2-.1-.4-.1z"/><path fill="#e3e7f0" d="M310.2 200.1c-.4 0-.8-.1-1.2-.3-.8-.5-1.3-1.4-1.3-2.7 0-1.2.4-2.5 1.1-3.7.7-1.2 1.6-2.2 2.7-2.8l22.3-12.9.3.4-.3-.4c1.1-.6 2.2-.7 3-.2.8.5 1.3 1.4 1.3 2.7 0 1.2-.4 2.5-1.1 3.7-.7 1.2-1.6 2.2-2.7 2.8L312 199.5c-.6.4-1.3.6-1.8.6zm25.4-21.9c-.4 0-.8.1-1.3.4L312 191.5c-.9.5-1.7 1.4-2.3 2.4-.6 1.1-.9 2.2-.9 3.2 0 .9.3 1.5.8 1.8.5.3 1.2.2 2-.2l22.3-12.9c.9-.5 1.7-1.4 2.3-2.4.6-1.1.9-2.2.9-3.2 0-.9-.3-1.5-.8-1.8-.3-.1-.5-.2-.7-.2z"/><path fill="#8fabfe" d="M118.1 280.6c.2-.1.5-.1.6 0 .1.1.2.2.2.5s-.1.5-.2.8c-.1.2-.3.4-.5.6-2.1 1.2-3.7 4.1-3.7 6.4 0 2.4 1.7 3.3 3.7 2.1 2.1-1.2 3.7-4.1 3.7-6.4 0-.5.3-1.1.8-1.3.4-.2.8 0 .8.4 0 3.3-2.4 7.4-5.3 9.1-2.9 1.7-5.3.3-5.3-3-.1-3.4 2.3-7.5 5.2-9.2z"/><path fill="#566df9" d="M118.7 280.6c2.3-1 4.1 0 4.4 2.5-.1 0-.3 0-.5.1s-.4.3-.6.6c-.2-1.9-1.6-2.7-3.4-1.9.1-.2.2-.5.2-.8.1-.2 0-.4-.1-.5z"/><path fill="#f9a83d" d="M129.1 281c.2 1.9 1.6 2.7 3.4 1.9-.1.2-.2.5-.2.7v.1c0 .2.1.3.2.3-2.3 1-4.1 0-4.4-2.5h.4c.2 0 .4-.2.6-.5z"/><path fill="#ffd06c" d="M133 272c2.9-1.7 5.3-.3 5.3 3s-2.3 7.4-5.3 9.1c-.2.1-.5.1-.6 0-.1-.1-.1-.2-.2-.3v-.1c0-.2.1-.5.2-.7.1-.2.3-.4.5-.6 2.1-1.2 3.7-4.1 3.7-6.4 0-2.4-1.7-3.3-3.7-2.1-2.1 1.2-3.7 4.1-3.7 6.4 0 .2-.1.5-.2.8-.1.2-.3.5-.6.6-.2.1-.3.1-.4.1-.2-.1-.3-.2-.3-.5 0-3.5 2.4-7.6 5.3-9.3z"/><path fill="#df3260" d="M151.8 267.9c.1 0 .1 0 0 0 .2.1.3.1.4 0h.1c.1-.1.3-.2.3-.4-.3 2.8-2.1 5.9-4.4 7.5.1-.2.1-.4.1-.6 0-.3-.1-.4-.2-.5 2.1-1.5 3.5-3.9 3.7-6z"/><path fill="#f45170" d="M147.9 263.5c2.9-1.7 5.3-.3 5.3 3 0 .3-.1.6-.3.9-.1.1-.2.3-.3.4l-.1.1c-.1 0-.1 0-.1.1h-.3c-.2-.1-.3-.3-.3-.5 0-2.4-1.7-3.3-3.7-2.1-2.1 1.2-3.7 4.1-3.7 6.4 0 2.4 1.7 3.3 3.7 2.1.2-.1.4-.1.5-.1.1.1.2.3.2.5s0 .4-.1.6c-.2.4-.4.6-.6.8-2.9 1.7-5.3.3-5.3-3-.2-3.5 2.1-7.6 5.1-9.2z"/><path fill="#e3e7f0" d="M274.4 341.8c0 2.1-1.4 4.6-3.2 5.6l-88.8 51.2c-1.8 1-3.3.2-3.3-1.9l-.3-102c0-2.1 1.5-4.6 3.2-5.6l88.8-51.3c1.8-1 3.3-.2 3.3 1.9l.3 102.1zM332.9 251.2c0 1-.7 2.1-1.5 2.6L290 277.7c-.8.5-1.5.1-1.5-.9l-.1-47.6c0-1 .7-2.1 1.5-2.6l41.4-23.9c.8-.5 1.5-.1 1.5.9l.1 47.6zM332.9 310.2c0 1-.7 2.1-1.5 2.6L290 336.7c-.8.5-1.5.1-1.5-.9l-.1-47.6c0-1 .7-2.1 1.5-2.6l41.4-23.9c.8-.5 1.5-.1 1.5.9l.1 47.6z"/><path fill="#b28afd" d="m250.7 304.4 9.7-5.6c.1 21.4-15 47.5-33.7 58.3V346c13.3-7.6 24.1-26.3 24-41.6z"/><path fill="#fff" d="M226.5 293.9c11.7-6.8 21.3-1.3 21.3 12.1s-9.5 29.9-21.2 36.6c-11.7 6.8-21.3 1.3-21.3-12.1s9.5-29.8 21.2-36.6zm.2 48.1c11.4-6.6 20.6-22.5 20.5-35.5 0-13-9.3-18.3-20.7-11.8-11.4 6.6-20.6 22.5-20.5 35.5 0 13.1 9.3 18.4 20.7 11.8z"/><path fill="#dba660" d="M202.5 332.3c0 15.3 10.9 21.5 24.2 13.8v11.1c-18.7 10.8-33.8 2.1-33.9-19.3l9.7-5.6z"/><path fill="#78e75a" d="M226.5 279.5v11.1c-13.3 7.7-24.1 26.3-24 41.7l-9.6 5.6c-.1-21.5 14.9-47.6 33.6-58.4z"/><path fill="#fff" d="M226.5 275.7c20.5-11.8 37.2-2.3 37.2 21.2.1 23.5-16.5 52.2-37 64.1s-37.2 2.3-37.2-21.2c-.1-23.5 16.5-52.3 37-64.1zm.2 84.5c20.1-11.6 36.4-39.8 36.3-63-.1-23.1-16.5-32.5-36.6-20.9s-36.4 39.8-36.3 63c.1 23.2 16.5 32.5 36.6 20.9z"/><path fill="#f45170" d="M226.5 279.5c18.7-10.8 33.8-2.1 33.9 19.3l-9.7 5.6c0-15.3-10.9-21.5-24.2-13.8v-11.1z"/><path fill="#fff" d="M317.4 299.3c-.6-.5-1.4-.8-2.4-.7-.9.1-2.1.3-3.5.8v-8c1.5-.8 3-1.3 4.3-1.6.2 0 .4-.1.5-.1.4-.2.7-.5.9-1 .2-.4.3-.8.3-1.2 0-.7-.3-1-.9-.9-1.5.2-3.2.8-5.1 1.8v-2.3c0-.3-.1-.5-.3-.6-.2-.1-.4-.1-.7.1-.3.2-.5.4-.7.7-.2.3-.3.6-.3.9v2.3c-1.4.9-2.6 2-3.6 3.3-1 1.2-1.8 2.5-2.3 3.8-.5 1.3-.7 2.5-.7 3.7 0 1.3.3 2.3.9 2.8.6.5 1.4.8 2.3.7.9-.1 2.1-.3 3.4-.6v7.8c-1.7.9-3.4 1.4-5 1.5-.2 0-.4.1-.6.2-.4.2-.7.5-.9.9-.2.4-.3.8-.3 1.2 0 .3.1.5.2.7.2.2.4.2.6.2 1.8-.2 3.9-.8 6-1.8v2.4c0 .3.1.5.3.6.2.1.4.1.7-.1.3-.2.5-.4.7-.7.2-.3.3-.6.3-.9v-2.4c1.3-.9 2.6-1.9 3.6-3.1 1-1.2 1.8-2.4 2.4-3.7.6-1.3.8-2.6.8-3.8.1-1.3-.3-2.3-.9-2.9zm-10.6 1c-.7-.2-1-.7-1-1.7s.3-2.1 1-3.1 1.6-2 2.8-2.8v7.4c-1.2.2-2.2.3-2.8.2zm4.7 9.6v-7.2c1.4-.4 2.4-.5 3.1-.4.7.1 1 .6 1 1.4 0 2.3-1.3 4.4-4.1 6.2z"/><path fill="#8fabfe" d="M296.1 244.4v23l-2.8 1.7-.1-23.1zM302.4 234.7l.1 29.1-2.8 1.6-.1-29.1zM308.8 244.9l.1 15.2-2.9 1.6v-15.2zM315.2 231.1v25.3l-2.8 1.6v-25.3zM321.6 229.7v23l-2.8 1.7-.1-23.1zM327.9 220l.1 29-2.8 1.7-.1-29.1zM168.8 299.1l-42.9 24.8.1 16.6 42.8-24.7z"/><path fill="#fff" d="M136.7 326c0 2-1.4 4.5-3.2 5.6-1.8 1-3.2.2-3.2-1.8s1.4-4.5 3.2-5.6c1.7-1.1 3.2-.3 3.2 1.8zM150.6 318c0 2-1.4 4.5-3.2 5.6-1.8 1-3.2.2-3.2-1.8 0-2.1 1.4-4.5 3.2-5.6 1.7-1.1 3.2-.3 3.2 1.8zM161.3 308.1c1.8-1 3.2-.2 3.2 1.8s-1.4 4.5-3.2 5.6-3.2.2-3.2-1.8 1.4-4.6 3.2-5.6zM121.7 360.2c.8-.4 1.4-.1 1.4.8v8.2c0 .9-.6 1.9-1.4 2.4l-7.1 4.1c-.8.4-1.4.1-1.4-.8v-8.2c0-.9.6-2 1.4-2.4l7.1-4.1z"/><path fill="#f45170" d="M117.8 369.6c3.5-9.2 6.4-11.5 6.6-11.7-2.6 4.1-5.7 12.4-5.8 12.9-.1.2-.3.6-.6.8-.3.2-.7.2-1-.4-.6-1.1-2.8-2.1-2.9-2.1 1.7-1 3.6.4 3.7.5z"/><path fill="#fff" d="m152.8 343.8-3.6 2.1v1.2l3.6-2.1z"/><path fill="#fff" d="m143 353.4.1 1.3-6.2 3.5V357z"/><path fill="#f45170" d="M152.8 351.8v1.2l-3.6 2.1v-1.2z"/><path fill="#fff" d="m152.8 347.8-8.6 5v1.2l8.6-5zM147.8 354.7v1.2l-13.7 7.9v-1.2zM147.8 346.7v1.2l-13.7 7.9v-1.2zM126.6 368.1l6.2-3.6v-1.2l-6.2 3.6z"/><path fill="#dba660" d="m126.6 364.1 9-5.2v-1.2l-9 5.2z"/><path fill="#fff" d="m126.6 360.2 6.2-3.6v-1.2l-6.2 3.5zM121.7 384.3c.8-.4 1.4-.1 1.4.8v8.2c0 .9-.6 1.9-1.4 2.4l-7.1 4.1c-.8.4-1.4.1-1.4-.8v-8.2c0-.9.6-2 1.4-2.4l7.1-4.1z"/><path fill="#fff" d="m152.8 367.8-3.6 2.1v1.3l3.6-2.1z"/><path fill="#fff" d="m143 377.5.1 1.2-6.2 3.5V381zM152.8 375.8v1.2l-3.6 2.1v-1.2zM152.8 371.8l-8.6 5v1.2l8.6-5z"/><path fill="#f45170" d="M147.8 378.7v1.2l-13.7 7.9v-1.2z"/><path fill="#fff" d="M147.8 370.7v1.3l-13.7 7.9v-1.3zM126.6 392.1l6.2-3.5v-1.3l-6.2 3.6zM126.6 388.2l9-5.2v-1.3l-9 5.2z"/><path fill="#72d561" d="m126.6 384.2 6.2-3.6v-1.2l-6.2 3.6z"/><path fill="#fff" d="M121.7 408.3c.8-.4 1.4-.1 1.4.8v8.2c0 .9-.6 1.9-1.4 2.4l-7.1 4.1c-.8.4-1.4.1-1.4-.8v-8.2c0-.9.6-2 1.4-2.4l7.1-4.1z"/><path fill="#f45170" d="M117.8 417.6c3.5-9.2 6.4-11.5 6.6-11.7-2.6 4.1-5.7 12.4-5.8 12.9-.1.2-.3.6-.6.8-.3.2-.7.2-1-.4-.6-1.1-2.8-2.1-2.9-2.1 1.7-1 3.6.5 3.7.5z"/><path fill="#fff" d="m152.8 391.8-3.6 2.2v1.2l3.6-2.1z"/><path fill="#fff" d="m143 401.5.1 1.2-6.2 3.6V405zM152.8 399.8v1.2l-3.6 2.1v-1.2zM152.8 395.8l-8.6 5v1.2l8.6-4.9z"/><path fill="#9ea9c9" d="M147.8 402.7v1.2l-13.7 7.9v-1.2z"/><path fill="#fff" d="M147.8 394.8v1.2l-13.7 7.9v-1.2zM126.6 416.2l6.2-3.6v-1.2l-6.2 3.5zM126.6 412.2l9-5.2v-1.2l-9 5.2z"/><path fill="#bf7d5a" d="m126.6 408.2 6.2-3.6v-1.2l-6.2 3.6z"/><path fill="#fff" d="M121.7 432.3c.8-.4 1.4-.1 1.4.8v8.2c0 .9-.6 1.9-1.4 2.4l-7.1 4.1c-.8.4-1.4.1-1.4-.8v-8.2c0-.9.6-2 1.4-2.4l7.1-4.1z"/><path fill="#fff" d="m152.8 415.9-3.6 2.1v1.2l3.6-2.1z"/><path fill="#fff" d="m143 425.5.1 1.2-6.2 3.6v-1.2zM152.8 423.8v1.3l-3.6 2.1v-1.3zM152.8 419.8l-8.6 5v1.3l8.6-5zM147.8 426.7v1.3l-13.7 7.9v-1.3z"/><path fill="#ffd06c" d="M147.8 418.8v1.2l-13.7 7.9v-1.2z"/><path fill="#fa5f7f" d="m126.6 440.2 6.2-3.6v-1.2l-6.2 3.6z"/><path fill="#fff" d="m126.6 436.2 9-5.2v-1.2l-9 5.2zM126.6 432.2l6.2-3.5v-1.3l-6.2 3.6z"/><path fill="#4c5c75" d="M116.9 444.4c-.2 0-.2-.1-.3-.3 0-.4 1.4-3.2 1.6-3.7-.3-.3-1-1.9-1.2-2.5-.2-.6.4-1.3.6-1.5l.2-.2h.1s.1 0 .1.1c.1.2 1 2.5 1 2.7l.1.1s1.8-3.2 1.8-3.3c.3-.6.6-.8.7-.9.1 0 .2-.1.2-.1h.2c.4.3-.8 2.8-2.2 5.1 1.1 1.7 2.8 2 3.4 2.1 0 0-.1 0-.1.1-.5.3-1.1.5-1.6.5-1.3 0-2.3-.9-2.4-1.1l-.1-.1v.1c-.1.2-1.7 2.7-1.7 2.8 0 .1-.1.1-.1.2-.2-.1-.2-.1-.3-.1zM116.9 396.7c-.2 0-.2-.1-.3-.3 0-.4 1.4-3.2 1.6-3.7-.3-.3-1-1.9-1.2-2.5-.2-.6.4-1.3.6-1.5l.2-.2h.1s.1 0 .1.1c.1.2 1 2.5 1 2.7l.1.1s1.8-3.2 1.8-3.3c.3-.6.6-.8.7-.9.1 0 .2-.1.2-.1h.2c.4.3-.8 2.8-2.2 5.1 1.1 1.7 2.8 2 3.4 2.1 0 0-.1 0-.1.1-.5.3-1.1.5-1.6.5-1.3 0-2.3-.9-2.4-1.1l-.1-.1v.1c-.1.2-1.7 2.7-1.7 2.8 0 .1-.1.1-.1.2-.2-.1-.2-.1-.3-.1z"/><path fill="#e3e7f0" d="M332.9 337.9c0 .6-.4 1.3-.9 1.6l-152 87.7c-.5.3-.9.1-.9-.5v-15.2c0-.6.4-1.3.9-1.6l152-87.7c.5-.3.9-.1.9.5v15.2z"/><path fill="#7e5af2" d="M224.9 388.6c1.3-.8 2.4-.6 3 .3.3.4.4 1 .4 1.7s-.2 1.5-.4 2.2c-.6 1.6-1.7 3-3 3.8-1.3.8-2.4.6-3-.3-.3-.4-.4-1-.4-1.7s.2-1.5.4-2.2c.6-1.6 1.7-3.1 3-3.8z"/><path fill="#b28afd" d="M319.7 335.9c.9-.5 1.7-.1 1.7 1 0 .5-.2 1.1-.5 1.7-.3.5-.7 1-1.2 1.3L228 392.8c.3-.7.4-1.5.4-2.2 0-.7-.2-1.3-.4-1.7l91.7-53z"/><path fill="#7e5af2" d="m187.5 412.2 34.4-19.9c-.3.7-.4 1.5-.4 2.2 0 .7.2 1.3.4 1.7l-34.4 19.9c-.9.5-1.7.1-1.7-1 0-.5.2-1.1.5-1.7.3-.4.7-.9 1.2-1.2z"/><path fill="#4c5c75" d="M247.8 281.5h-.2c-.3-.1-.4-.4-.3-.6l5.7-15.6c0-.1.1-.2.2-.3l16.3-9.4c.2-.1.5-.1.7.2.1.2.1.5-.2.7l-16.2 9.3-5.7 15.4c.1.2-.1.3-.3.3zM183.8 306.2c-.2 0-.3-.1-.4-.3-.1-.2-.1-.5.2-.7l12.6-7.3c.1-.1.3-.1.4 0l12.6 3.6c.3.1.4.4.3.6-.1.3-.4.4-.6.3l-12.4-3.6L184 306c-.1.2-.1.2-.2.2zM183.8 382.5c-.2 0-.3-.1-.4-.3-.1-.2-.1-.5.2-.7l16.2-9.3 5.7-15.4c.1-.3.4-.4.6-.3.3.1.4.4.3.6l-5.7 15.6c0 .1-.1.2-.2.3l-16.3 9.4c-.3.1-.3.1-.4.1zM257.2 340.1h-.1l-12.6-3.6c-.3-.1-.4-.4-.3-.6.1-.3.4-.4.6-.3l12.4 3.6 12.5-7.2c.2-.1.5-.1.7.2.1.2.1.5-.2.7l-12.6 7.3c-.2-.1-.3-.1-.4-.1z"/><path fill="#edeef2" d="M269.1 225c0 .2-.1.5-.3.6l-8.9 5.1c-.2.1-.3 0-.3-.2v-10.2c0-.2.1-.5.3-.6l8.9-5.1c.2-.1.3 0 .3.2V225z"/><path fill="#edeef2" d="M269.1 225c0 .2-.1.5-.3.6l-8.9 5.1c-.2.1-.3 0-.3-.2v-10.2c0-.2.1-.5.3-.6l8.9-5.1c.2-.1.3 0 .3.2V225z"/><path fill="#fa5f7f" d="M264.3 222.4c1.8-1 3.2-.3 3.4 1.6 0 .2-.1.4-.3.6l-6.2 3.6c-.2.1-.3 0-.3-.2.2-2.2 1.6-4.6 3.4-5.6zM264.4 218.5c.8-.5 1.5-.1 1.5.8s-.7 2.1-1.5 2.5-1.5.1-1.5-.8.7-2.1 1.5-2.5z"/><path fill="#edeef2" d="M285.1 215.8c0 .2-.1.5-.3.6l-8.9 5.1c-.2.1-.3 0-.3-.2v-10.2c0-.2.1-.5.3-.6l8.9-5.1c.2-.1.3 0 .3.2v10.2z"/><path fill="#edeef2" d="M285.1 215.8c0 .2-.1.5-.3.6l-8.9 5.1c-.2.1-.3 0-.3-.2v-10.2c0-.2.1-.5.3-.6l8.9-5.1c.2-.1.3 0 .3.2v10.2z"/><path fill="#72d561" d="M280.3 213.2c1.8-1 3.2-.3 3.4 1.6 0 .2-.1.4-.3.6l-6.2 3.6c-.2.1-.3 0-.3-.2.2-2.2 1.6-4.6 3.4-5.6zM280.3 209.2c.8-.5 1.5-.1 1.5.8s-.7 2.1-1.5 2.5c-.8.5-1.5.1-1.5-.8.1-.9.7-2 1.5-2.5z"/><path fill="#edeef2" d="M301 206.6c0 .2-.1.5-.3.6l-8.9 5.1c-.2.1-.3 0-.3-.2v-10.2c0-.2.1-.5.3-.6l8.9-5.1c.2-.1.3 0 .3.2v10.2z"/><path fill="#edeef2" d="M301 206.6c0 .2-.1.5-.3.6l-8.9 5.1c-.2.1-.3 0-.3-.2v-10.2c0-.2.1-.5.3-.6l8.9-5.1c.2-.1.3 0 .3.2v10.2z"/><path fill="#f3a250" d="M296.3 204c1.8-1 3.2-.3 3.4 1.6 0 .2-.1.4-.3.6l-6.2 3.6c-.2.1-.3 0-.3-.2.1-2.2 1.6-4.6 3.4-5.6zM296.3 200c.8-.5 1.5-.1 1.5.8s-.7 2.1-1.5 2.5c-.8.5-1.5.1-1.5-.8.1-.9.7-2 1.5-2.5z"/><path fill="#f5c9c6" d="m215 473.2 3.3 4.2 2-4-3.8-3.5z"/><path fill="#986ff9" d="M220.6 437s5.6 12.3 5.6 23.5c0 1.7-.5 3.4-1.4 4.8l-4.7 8.8c-.5.8-4.1-2.8-3.8-4.6l1.9-9.7c.1-.8.1-1.5-.1-2.3l-3.3-12.3 5.8-8.2z"/><path fill="#1d2943" d="M210 558c1.8.2 3.5-.4 3.1-2.7s-.8-4.5-.8-4.5l-6-2.4s-5.9-3.1-7.4 1.1c-.8 2.2 9.4 8.4 11.1 8.5z"/><path fill="#b0b8cf" d="M205.7 529.3c1.8 5.2-.2 21.3-.2 21.3-.2.3.9 1.2 2.3 2.3.5.4 1 .7 1.5 1.1 1.8 1.2 3.7 2.2 3.9 1.9 0 0 3.7-15.3 4.2-20 .2-2 0-4.4-.4-6.9-1.2-8-1.3-16.2-.3-24.3.1-1.1.3-2.2.3-3.2.3-3.7 1.1-7.2 2.2-10.7.9-2.9.4-6.4.4-6.4l-8.3-.6-10.4-.7s1.6 30.5 1.8 32.4c.2 2 1.2 8.7 3 13.8z"/><path fill="none" d="M209.1 557.1c.1-1.4.1-2.7.2-4.1 0-.9.1-1.8.3-2.6.2-1 .7-2 1.1-3 2.3-6.2.9-13.1 1.3-19.8"/><path fill="#c9cee2" d="M207.8 552.9c.5.4 1 .7 1.5 1.1 1.8 1.2 3.7 2.2 3.9 1.9 0 0 3.7-15.3 4.2-20 .2-2 0-4.4-.4-6.9-1.2-8-1.3-16.2-.3-24.3.1-1.1.3-2.2.3-3.2.3-3.7 1.1-7.2 2.2-10.7.9-2.9.4-6.4.4-6.4l-8.3-.6c-.9 1.8-1.3 3.9-1.6 5.9-1.9 12.3 1.2 24.6 2.4 37 .1 1.2 0 3.3-.2 5.4-.3 3.6-.9 7.5-.9 7.5-.7 4.6-2 8.9-3.2 13.3z"/><path fill="#4c5c75" d="M197.8 559.2c.1 1.6 1.6 2.7 3.1 2.6 2.1-.2 4.7-1.5 5.4-2.2 1-1 6-2.5 7.4-5 1.4-2.6 0-4.4-1.3-5.9s-1.8-.9-1.8-.9l-5.6 4.8s-.4 2.1-4.7 3.6c-2.1.7-2.6 2-2.5 3z"/><path fill="#f5c9c6" d="m209.8 546.2 1 2.1c.5.5-5.1 4.9-5.6 4.4l-1.8-3.9 6.4-2.6z"/><path fill="#d4daea" d="M183.9 515.2c1.6 9.8 19 34.6 19 34.6.2.4 2.6-.8 4.6-2 1.6-1 3-2.1 2.8-2.4-4.7-12.4-9.3-24.3-14.3-30.5l6.4-13.4c.8-1.6 2-3 3.5-4 3.7-2.4 5.4-7.4 6.7-12.9l-12.8.5-10.7.4c.1 0-6.4 22.3-5.2 29.7z"/><path fill="#e8b0af" d="M162 445.2c1.3 3 6.2 6.3 6.2 6.3l3.8-2.1s-1-1.9-1.4-3.9c-.4-2-.2-7.1-1.5-7.5s-1.4 2.3-1.4 2.3-5.1-6.9-6.6-6.1c-1.5.8 2.9 5.7 2.9 5.7s-3.3 2.2-2 5.3z"/><path fill="#9ea9c9" d="M202.6 501.5c1-1.4 2.1-2.6 3.5-3.4 1.5-.8 2.8-2.2 3.7-3.7 1.8-3 2.6-6.4 2.9-9.8l-1.8 4.7c-.6 1.5-1.3 3.1-2.2 4.4-.8 1.4-1.9 2.6-3.2 3.6-1.4 1.1-2.4 2.6-2.9 4.2z"/><path fill="#c9cee2" d="M191.3 515.1c.4 6.7 2.9 13.2 6.4 19 1.6 2.7 3.4 5.3 5.3 7.8 1.5 2 3 4 4.7 5.9 1.6-1 3-2.1 2.8-2.4-4.7-12.4-9.3-24.3-14.3-30.5l6.4-13.4c.8-1.6 2-3 3.5-4 3.7-2.4 5.4-7.4 6.7-12.9l-12.8.5c-.3.2-.6.5-.9.8-.9 1-1.4 2.3-1.9 3.6-3.3 8.2-6.5 16.8-5.9 25.6z"/><path fill="#b28afd" d="M188.8 485.8c-.1 1.6 2.6 2.8 6.5 3.5 9.3 1.7 25.3.5 24.7-3.6-.4-3.3-1.7-12-4-15.2-2.4-3.2 1.5-15.5 2.2-17.7.7-2 5.6-8.8 2.5-15.8-.6-1.3-1.9-2-3.3-2-6.1.4-23.8 3.7-26 13.8-1.2 5.4-.9 9.2-.3 12.1.8 3.6 2.1 5.6 2 7.3-.4 3-4.2 14.5-4.3 17.6z"/><path fill="#986ff9" d="M188.8 485.8c-.1 1.6 2.6 2.8 6.5 3.5.2-1.5.4-3.5 0-5.8-.8-4.5.3-10.3 1.2-12.6.9-2.3-.8-13.9-.8-13.9l-4.8 4c.8 3.6 2.1 5.6 2 7.3-.2 2.9-4 14.4-4.1 17.5z"/><path fill="#b28afd" d="M193.5 444.5c-4.5 5.5-8.9 10.1-10.9 13.9l-11.3-12.9c-.8-1.5-6.9 2.1-6.4 3.7 0 0 10.2 20.7 17.7 21.4 4.4.4 13.7-11.6 13.7-11.6l-2.8-14.5z"/><path fill="#f5c9c6" d="M199.2 421.5s-.1 3.5.4 4.9c.5 1.3-.4 2.1-.7 3s.3 6.8 2.7 6.8c2.4-.1 2.9-13.5 2.7-13.7-.1-.4-5.1-1-5.1-1z"/><path fill="#f1f6fa" d="M212.5 438.8c-5.5 3.6-8.1 3.8-12 1.2 3.2-2.1 8.3-4.2 12.8-4.7 0 0 1 2.4-.8 3.5z"/><path fill="#8a4852" d="M213.3 435.4s-8.5 7.8-16.1 8.3c0 0 7.5-9.2 4.6-16-2.7-6.5-2.8-6.7-2.8-6.7s-.9-1.7.9-3 13.2-6.8 16.3 2.5c3.1 9.4-2.9 14.9-2.9 14.9z"/><path fill="#b0b8cf" d="M602.3 459.6v1.1c0 .4-.1.9-.2 1.3-.5 1.4-1.7 2.7-3.4 3.6-2.7 1.6-6.7 2.4-10.8 1.9l-14.9-1.7c-.4 0-.6-.2-.6-.4V464.2c0-.1.1-.2.2-.2.2-.1.4-.2.7-.1l14.9 1.7c3.6.4 7.1-.3 9.5-1.7 1.5-.8 2.5-1.9 2.9-3.2.1-.2.1-.4.1-.6-.2-1.4-1.3-2.7-3-3.7-1.5-.9-3.4-1.5-5.6-1.7l-31.3-3.5c-2.6-.3-5.1.2-6.8 1.2-1.1.6-1.8 1.4-2.1 2.3 0 .1-.1.2-.1.3.2 1 1 1.9 2.1 2.6 1.1.6 2.4 1.1 4 1.2l30.1 3.4c1.7.2 3.4-.2 4.6-.8.7-.4 1.2-.9 1.4-1.6-.2-.6-.7-1.1-1.4-1.6-.7-.4-1.6-.7-2.7-.8l-31.8-3.5c-.3 0-.6-.2-.6-.4V452.3c0-.1.1-.2.2-.2.2-.1.4-.1.6-.1l31.8 3.5c1.4.2 2.6.5 3.5 1.1 1.3.7 2 1.8 1.9 2.9v-.2 1.1c0 .2 0 .5-.1.7-.3.8-.9 1.5-1.8 2-1.5.9-3.7 1.3-6 1.1l-30.1-3.4c-1.9-.2-3.5-.7-4.8-1.5-1.7-1-2.6-2.3-2.6-3.7v-1.1.2c0-.4 0-.8.1-1.2.4-1.1 1.3-2 2.5-2.8 2.1-1.2 5.1-1.8 8.2-1.4l31.3 3.5c2.5.3 4.6 1 6.3 2 2.3 1.3 3.5 3.2 3.5 5.1.3-.2.3-.3.3-.3z"/><g><path fill="#b0b8cf" d="M557.7 452.3v1.1c0 .2.2.4.6.4v-1.1c-.3-.1-.6-.2-.6-.4zM560.9 450.1v1.1l31.3 3.5v-1.2z"/><path fill="#b0b8cf" d="M551.8 454.4v1.1c0-.3 0-.6.1-.8.3-.9 1.1-1.7 2.1-2.3 1.7-1 4.3-1.5 6.8-1.2v-1.1c-2.6-.3-5.1.2-6.8 1.2-1.1.6-1.8 1.4-2.1 2.3 0 .3-.1.5-.1.8zM558.3 452.7v1.1l31.8 3.5v-1.1zM594.3 460.3v-1.1c0-.8-.6-1.6-1.5-2.1-.7-.4-1.6-.7-2.7-.8v1.1c1.1.1 2 .4 2.7.8.9.5 1.5 1.3 1.5 2.1zM600.8 460.7v-1.1c0-1.6-1.1-3.2-3.1-4.3-1.5-.9-3.4-1.5-5.5-1.7v1.1c2.2.2 4.1.9 5.5 1.7 1.9 1.1 3.1 2.7 3.1 4.3z"/><path fill="#b0b8cf" d="M550.3 454.4v1.1c0 1.4 1 2.8 2.6 3.7 1.3.7 2.9 1.3 4.8 1.5v-1.1c-1.9-.2-3.5-.7-4.8-1.5-1.6-.9-2.6-2.3-2.6-3.7zM557.7 459.6v1.1l30.2 3.4V463zM595.8 460.3v-1.1c0 .2 0 .5-.1.7-.3.8-.9 1.5-1.8 2-1.5.9-3.7 1.3-5.9 1v1.1c2.2.3 4.4-.2 5.9-1 .9-.5 1.6-1.2 1.8-2 0-.2.1-.5.1-.7zM572.4 464.4v1.1c0 .2.3.4.6.4v-1.1c-.4 0-.6-.2-.6-.4zM573 464.8v1.1l14.9 1.7v-1.1z"/><path fill="#e3e7f0" d="M553 450.7c-1.3.7-2.2 1.7-2.5 2.8-.6 1.8.4 3.5 2.5 4.7 1.3.7 2.9 1.3 4.8 1.5l30.1 3.4c2.2.3 4.4-.2 5.9-1 .9-.5 1.6-1.2 1.8-2 .4-1.3-.3-2.6-1.8-3.4-.9-.5-2.1-.9-3.5-1.1l-31.8-3.5c-.2 0-.5 0-.7.1-.1.1-.2.1-.2.2-.1.2.2.5.6.5l31.8 3.5c1.1.1 2 .4 2.7.8 1.2.7 1.7 1.7 1.4 2.7-.2.6-.7 1.2-1.4 1.6-1.2.7-2.9 1-4.6.8l-30.1-3.4c-1.6-.2-2.9-.6-4-1.2-1.7-1-2.6-2.5-2.1-4 .3-.9 1.1-1.7 2.1-2.3 1.7-1 4.3-1.5 6.8-1.2l31.3 3.5c2.2.2 4.1.9 5.5 1.7 2.4 1.4 3.6 3.4 2.9 5.5-.4 1.3-1.5 2.4-2.9 3.2-2.4 1.4-5.9 2.1-9.5 1.7l-14.9-1.7c-.2 0-.5 0-.7.1-.1.1-.2.1-.2.2-.1.2.2.5.6.5l14.9 1.7c4.1.5 8.1-.3 10.8-1.9 1.7-1 2.9-2.2 3.4-3.7.8-2.4-.6-4.7-3.3-6.3-1.7-1-3.8-1.7-6.3-2l-31.3-3.5c-3-.3-6 .3-8.1 1.5z"/><path fill="#b0b8cf" d="M602.3 460.7v-1.1c0 .4-.1.9-.2 1.3-.5 1.4-1.7 2.7-3.4 3.7-2.7 1.6-6.7 2.4-10.8 1.9v1.1c4.1.5 8.1-.3 10.8-1.9 1.7-1 2.9-2.2 3.4-3.7.1-.4.2-.9.2-1.3z"/></g><linearGradient id="n" x1="626.571" x2="636.749" y1="559.085" y2="559.085" gradientTransform="matrix(1 0 -.00002 1 -42.153 8.77)" gradientUnits="userSpaceOnUse"><stop offset="0" stop-color="#f1eff6"/><stop offset="1" stop-color="#b6bce1" stop-opacity="0"/></linearGradient><path fill="url(#n)" d="M595.6 563.6v6.2h-10.2v-6.2z"/><linearGradient id="o" x1="201.412" x2="211.59" y1="505.602" y2="505.602" gradientTransform="matrix(1 0 -.00002 1 -42.153 8.77)" gradientUnits="userSpaceOnUse"><stop offset="0" stop-color="#f1eff6"/><stop offset="1" stop-color="#b6bce1" stop-opacity="0"/></linearGradient><path fill="url(#o)" d="M170.3 510.9v6.1l-10.1.1v-6.2z"/><linearGradient id="p" x1="663.685" x2="673.863" y1="472.579" y2="472.579" gradientTransform="matrix(1 0 -.00002 1 -42.153 8.77)" gradientUnits="userSpaceOnUse"><stop offset="0" stop-color="#f1eff6"/><stop offset="1" stop-color="#b6bce1" stop-opacity="0"/></linearGradient><path fill="url(#p)" d="m632.5 477.1.1 6.1h-10.2v-6.1z"/><linearGradient id="q" x1="394.624" x2="404.802" y1="366.461" y2="366.461" gradientTransform="matrix(1 0 -.00002 1 -42.153 8.77)" gradientUnits="userSpaceOnUse"><stop offset="0" stop-color="#f1eff6"/><stop offset="1" stop-color="#b6bce1" stop-opacity="0"/></linearGradient><path fill="url(#q)" d="M363.3 371.4v6.2h-10.2v-6.2z"/><linearGradient id="r" x1="282.257" x2="292.435" y1="607.303" y2="607.303" gradientTransform="matrix(1 0 -.00002 1 -42.153 8.77)" gradientUnits="userSpaceOnUse"><stop offset="0" stop-color="#f1eff6"/><stop offset="1" stop-color="#b6bce1" stop-opacity="0"/></linearGradient><path fill="url(#r)" d="M251.4 612.5v6.1h-10.2v-6.1z"/><linearGradient id="s" x1="450.696" x2="460.874" y1="624.914" y2="624.914" gradientTransform="matrix(1 0 -.00002 1 -42.153 8.77)" gradientUnits="userSpaceOnUse"><stop offset="0" stop-color="#f1eff6"/><stop offset="1" stop-color="#b6bce1" stop-opacity="0"/></linearGradient><path fill="url(#s)" d="M419.8 629.8v6.1h-10.1v-6.1z"/><g><path fill="#ef7b56" d="M246.6 610.2v5.4c0 .3-.2.5-.5.7l-3.6 2.1c-.7.4-1.8.4-2.4 0l-3.6-2.1c-.3-.2-.5-.4-.5-.7v-5.4c0-.3.2-.5.5-.7l3.6-2.1c.7-.4 1.8-.4 2.4 0l3.6 2.1c.3.1.5.4.5.7zM415.1 627.5v5.4c0 .3-.2.5-.5.7l-3.6 2.1c-.7.4-1.8.4-2.4 0l-3.6-2.1c-.3-.2-.5-.5-.5-.7v-5.4c0-.3.2-.5.5-.7l3.6-2.1c.7-.4 1.8-.4 2.4 0l3.6 2.1c.3.1.5.4.5.7zM627.8 474.7v5.4c0 .3-.2.5-.5.7l-3.6 2.1c-.7.4-1.8.4-2.4 0l-3.6-2.1c-.3-.2-.5-.5-.5-.7V474.7c0-.3.2-.5.5-.7l3.6-2.1c.7-.4 1.8-.4 2.4 0l3.6 2.1c.3.2.5.5.5.7zM358.5 369.1v5.4c0 .3-.2.5-.5.7l-3.6 2.1c-.7.4-1.8.4-2.4 0l-3.6-2.1c-.3-.2-.5-.5-.5-.7v-5.4c0-.3.2-.5.5-.7l3.6-2.1c.7-.4 1.8-.4 2.4 0l3.6 2.1c.4.2.5.5.5.7zM165.6 508.6v5.4c0 .3-.2.5-.5.7l-3.6 2.1c-.7.4-1.8.4-2.4 0l-3.6-2.1c-.3-.2-.5-.5-.5-.7v-5.4c0-.3.2-.5.5-.7l3.6-2.1c.7-.4 1.8-.4 2.4 0l3.6 2.1c.3.2.5.4.5.7zM590.8 561.3v5.4c0 .3-.2.5-.5.7l-3.6 2.1c-.7.4-1.8.4-2.4 0l-3.6-2.1c-.3-.2-.5-.5-.5-.7V561.3c0-.3.2-.5.5-.7l3.6-2.1c.7-.4 1.8-.4 2.4 0l3.6 2.1c.4.2.5.5.5.7z"/></g><g><path fill="#ef7b56" d="M590.8 561.3v5.4c0 .3-.2.5-.5.7l-3.6 2.1c-.7.4-1.8.4-2.4 0l-3.6-2.1c-.3-.2-.5-.5-.5-.7v-5.4c0 .3.2.5.5.7l3.6 2.1c.7.4 1.8.4 2.4 0l3.6-2.1c.4-.2.5-.4.5-.7z"/><path fill="#ffd475" d="M590.3 560.6c.7.4.7 1 0 1.4l-3.6 2.1c-.7.4-1.8.4-2.4 0l-3.6-2.1c-.7-.4-.7-1 0-1.4l3.6-2.1c.7-.4 1.8-.4 2.4 0l3.6 2.1z"/></g><g><path fill="#ef7b56" d="M165.6 508.6v5.4c0 .3-.2.5-.5.7l-3.6 2.1c-.7.4-1.8.4-2.4 0l-3.6-2.1c-.3-.2-.5-.5-.5-.7v-5.4c0 .3.2.5.5.7l3.6 2.1c.7.4 1.8.4 2.4 0l3.6-2.1c.3-.2.5-.4.5-.7z"/><path fill="#ffd475" d="M165.1 507.9c.7.4.7 1 0 1.4l-3.6 2.1c-.7.4-1.8.4-2.4 0l-3.6-2.1c-.7-.4-.7-1 0-1.4l3.6-2.1c.7-.4 1.8-.4 2.4 0l3.6 2.1z"/></g><g><path fill="#ef7b56" d="M627.8 474.8v5.4c0 .3-.2.5-.5.7l-3.6 2.1c-.7.4-1.8.4-2.4 0l-3.6-2.1c-.3-.2-.5-.5-.5-.7v-5.4c0 .3.2.5.5.7l3.6 2.1c.7.4 1.8.4 2.4 0l3.6-2.1c.3-.2.5-.5.5-.7z"/><path fill="#ffd475" d="M627.3 474c.7.4.7 1 0 1.4l-3.6 2.1c-.7.4-1.8.4-2.4 0l-3.6-2.1c-.7-.4-.7-1 0-1.4l3.6-2.1c.7-.4 1.8-.4 2.4 0l3.6 2.1z"/></g><g><path fill="#ef7b56" d="M358.5 369.1v5.4c0 .3-.2.5-.5.7l-3.6 2.1c-.7.4-1.8.4-2.4 0l-3.6-2.1c-.3-.2-.5-.5-.5-.7v-5.4c0 .3.2.5.5.7l3.6 2.1c.7.4 1.8.4 2.4 0l3.6-2.1c.4-.2.5-.4.5-.7z"/><path fill="#ffd475" d="M358 368.4c.7.4.7 1 0 1.4l-3.6 2.1c-.7.4-1.8.4-2.4 0l-3.6-2.1c-.7-.4-.7-1 0-1.4l3.6-2.1c.7-.4 1.8-.4 2.4 0l3.6 2.1z"/></g><g><path fill="#ef7b56" d="M246.6 610.2v5.4c0 .3-.2.5-.5.7l-3.6 2.1c-.7.4-1.8.4-2.4 0l-3.6-2.1c-.3-.2-.5-.5-.5-.7v-5.4c0 .3.2.5.5.7l3.6 2.1c.7.4 1.8.4 2.4 0l3.6-2.1c.3-.2.5-.5.5-.7z"/><path fill="#ffd475" d="M246.1 609.5c.7.4.7 1 0 1.4l-3.6 2.1c-.7.4-1.8.4-2.4 0l-3.6-2.1c-.7-.4-.7-1 0-1.4l3.6-2.1c.7-.4 1.8-.4 2.4 0l3.6 2.1z"/></g><g><path fill="#ef7b56" d="M415.1 627.5v5.4c0 .3-.2.5-.5.7l-3.6 2.1c-.7.4-1.8.4-2.4 0l-3.6-2.1c-.3-.2-.5-.5-.5-.7v-5.4c0 .3.2.5.5.7l3.6 2.1c.7.4 1.8.4 2.4 0l3.6-2.1c.3-.2.5-.5.5-.7z"/><path fill="#ffd475" d="M414.6 626.8c.7.4.7 1 0 1.4l-3.6 2.1c-.7.4-1.8.4-2.4 0l-3.6-2.1c-.7-.4-.7-1 0-1.4l3.6-2.1c.7-.4 1.8-.4 2.4 0l3.6 2.1z"/></g></svg>