<svg xmlns="http://www.w3.org/2000/svg" enable-background="new 0 0 1364 960" viewBox="0 0 1364 960"><path fill="#eae6ff" d="M1231.81,431.25l-4.34-0.89c-0.09-5.87-1.06-11.61-2.83-17.03l4.34-2.86c6.48-4.27,8.26-12.98,3.98-19.44
			c-4.28-6.47-13-8.24-19.48-3.97l-3.7,2.44c-4.11-4-8.83-7.39-14.06-10.04c0,0,0,0-0.01,0l1.04-5.08c1.55-7.59-3.35-15-10.96-16.56
			c-7.61-1.55-15.03,3.35-16.59,10.94l-0.89,4.33c-5.88,0.09-11.63,1.06-17.06,2.83l-2.86-4.33c-4.28-6.47-13-8.24-19.48-3.97
			c-6.48,4.27-8.26,12.98-3.98,19.44l2.45,3.69c-4.01,4.11-7.41,8.82-10.07,14.03c0,0,0,0,0,0l-5.09-1.04
			c-7.61-1.55-15.03,3.35-16.59,10.94c-1.55,7.59,3.35,15,10.96,16.56l4.34,0.88c0.09,5.87,1.06,11.61,2.83,17.03l-4.33,2.86
			c-6.48,4.27-8.26,12.98-3.98,19.44c4.28,6.47,13,8.24,19.48,3.97l3.69-2.43c0,0,0,0,0,0c4.12,3.98,8.85,7.38,14.07,10.05
			l-1.04,5.07c-1.55,7.59,3.35,15,10.96,16.56c7.61,1.55,15.03-3.35,16.59-10.94l0.89-4.33c5.88-0.09,11.63-1.06,17.07-2.83
			l2.86,4.32c4.28,6.47,13,8.24,19.48,3.97c6.48-4.27,8.26-12.98,3.98-19.44l-2.44-3.68c0,0,0,0,0,0c3.99-4.11,7.4-8.83,10.07-14.04
			l5.08,1.04c7.61,1.55,15.03-3.35,16.59-10.94C1244.33,440.21,1239.42,432.8,1231.81,431.25z M1210.21,439.62
			c-4.62,22.6-26.75,37.19-49.39,32.57s-37.26-26.69-32.64-49.29c4.63-22.61,26.75-37.19,49.39-32.57
			C1200.22,394.94,1214.84,417,1210.21,439.62z"/><path fill="#eae6ff" d="M1174.49,405.37c-14.32-2.92-28.29,6.31-31.22,20.6c-2.92,14.29,6.31,28.24,20.63,31.16
			c14.32,2.92,28.31-6.3,31.23-20.58C1198.06,422.25,1188.81,408.29,1174.49,405.37z"/><path fill="#eae6ff" d="M443.97,152.13l-4.34-0.89c-0.09-5.87-1.06-11.61-2.83-17.03l4.34-2.86c6.48-4.27,8.26-12.98,3.98-19.44
			c-4.28-6.47-13-8.24-19.48-3.97l-3.7,2.44c-4.11-4-8.83-7.39-14.06-10.04c0,0,0,0-0.01,0l1.04-5.08c1.55-7.59-3.35-15-10.96-16.56
			c-7.61-1.55-15.03,3.35-16.59,10.94l-0.89,4.33c-5.88,0.09-11.63,1.06-17.06,2.83l-2.86-4.33c-4.28-6.47-13-8.24-19.48-3.97
			c-6.48,4.27-8.26,12.98-3.98,19.44l2.45,3.69c-4.01,4.11-7.41,8.82-10.07,14.03c0,0,0,0,0,0l-5.09-1.04
			c-7.61-1.55-15.03,3.35-16.59,10.94c-1.55,7.59,3.35,15,10.96,16.56l4.34,0.88c0.09,5.87,1.06,11.61,2.83,17.03l-4.33,2.86
			c-6.48,4.27-8.26,12.98-3.98,19.44c4.28,6.47,13,8.24,19.48,3.97l3.69-2.43c0,0,0,0,0,0c4.12,3.98,8.85,7.38,14.07,10.05
			l-1.04,5.07c-1.55,7.59,3.35,15,10.96,16.56c7.61,1.55,15.03-3.35,16.59-10.94l0.89-4.33c5.88-0.09,11.63-1.06,17.07-2.83
			l2.86,4.32c4.28,6.47,13,8.24,19.48,3.97c6.48-4.27,8.26-12.98,3.98-19.44l-2.44-3.68c0,0,0,0,0,0c3.99-4.11,7.4-8.83,10.07-14.04
			l5.08,1.04c7.61,1.55,15.03-3.35,16.59-10.94C456.49,161.09,451.58,153.68,443.97,152.13z M422.37,160.49
			c-4.62,22.6-26.75,37.19-49.39,32.57s-37.26-26.69-32.64-49.29c4.63-22.61,26.75-37.19,49.39-32.57
			C412.38,115.82,427,137.88,422.37,160.49z"/><path fill="#eae6ff" d="M386.65,126.25c-14.32-2.92-28.29,6.31-31.22,20.6c-2.92,14.29,6.31,28.24,20.63,31.16
			c14.32,2.92,28.31-6.3,31.23-20.58C410.22,143.13,400.97,129.17,386.65,126.25z"/><path fill="#6542bd" d="M218.43,826.45c-0.03,0-0.07,0-0.1,0c-2.19-0.15-4.4-0.36-6.56-0.63c-0.82-0.1-1.4-0.85-1.3-1.68
				c0.1-0.82,0.85-1.4,1.68-1.3c2.11,0.26,4.26,0.47,6.39,0.62c0.83,0.06,1.45,0.77,1.4,1.6
				C219.87,825.84,219.21,826.45,218.43,826.45z"/><path fill="#6542bd" d="M199.21,823.47c-0.12,0-0.24-0.01-0.36-0.04c-4.24-1.05-8.46-2.36-12.54-3.89
				c-0.78-0.29-1.17-1.16-0.88-1.93c0.29-0.77,1.15-1.17,1.93-0.88c3.97,1.5,8.08,2.77,12.21,3.79c0.8,0.2,1.3,1.01,1.1,1.82
				C200.49,823.01,199.88,823.47,199.21,823.47z M174.99,814.34c-0.23,0-0.47-0.05-0.69-0.17c-3.86-2.01-7.66-4.27-11.29-6.73
				c-0.69-0.46-0.86-1.4-0.4-2.08c0.47-0.69,1.4-0.86,2.08-0.4c3.53,2.39,7.23,4.6,10.99,6.55c0.74,0.38,1.02,1.29,0.64,2.02
				C176.05,814.05,175.53,814.34,174.99,814.34z M153.56,799.81c-0.35,0-0.7-0.12-0.98-0.36c-3.29-2.84-6.47-5.91-9.44-9.13
				c-0.56-0.61-0.52-1.56,0.08-2.12s1.56-0.53,2.12,0.08c2.9,3.13,5.99,6.12,9.2,8.89c0.63,0.54,0.7,1.49,0.16,2.12
				C154.4,799.63,153.98,799.81,153.56,799.81z M135.98,780.81c-0.46,0-0.91-0.21-1.21-0.61c-2.59-3.51-5.01-7.2-7.19-10.98
				c-0.42-0.72-0.17-1.63,0.55-2.05c0.72-0.42,1.63-0.17,2.05,0.55c2.13,3.68,4.49,7.29,7.01,10.71c0.49,0.67,0.35,1.61-0.32,2.1
				C136.6,780.71,136.29,780.81,135.98,780.81z M123.01,758.4c-0.58,0-1.13-0.33-1.37-0.9c-1.76-4-3.32-8.14-4.62-12.29
				c-0.25-0.79,0.19-1.63,0.98-1.88c0.79-0.25,1.63,0.19,1.88,0.98c1.27,4.05,2.78,8.08,4.5,11.98c0.33,0.76-0.01,1.64-0.77,1.98
				C123.42,758.36,123.21,758.4,123.01,758.4z M115.27,733.7c-0.7,0-1.33-0.5-1.47-1.22c-0.83-4.3-1.42-8.68-1.74-13.02
				c-0.06-0.83,0.56-1.55,1.38-1.61c0.82-0.06,1.55,0.56,1.61,1.38c0.32,4.22,0.89,8.48,1.7,12.67c0.16,0.81-0.38,1.6-1.19,1.76
				C115.46,733.69,115.36,733.7,115.27,733.7z M113.35,707.9c-0.02,0-0.04,0-0.07,0c-0.83-0.04-1.47-0.74-1.43-1.56
				c0.19-4.38,0.65-8.78,1.37-13.07c0.14-0.82,0.91-1.37,1.73-1.23c0.82,0.14,1.37,0.91,1.23,1.73c-0.7,4.18-1.15,8.45-1.33,12.71
				C114.81,707.27,114.15,707.9,113.35,707.9z M117.62,682.39c-0.14,0-0.29-0.02-0.43-0.06c-0.79-0.24-1.25-1.07-1.01-1.87
				c1.25-4.18,2.77-8.33,4.53-12.34c0.33-0.76,1.21-1.1,1.98-0.77c0.76,0.33,1.1,1.22,0.77,1.98c-1.71,3.9-3.19,7.93-4.4,11.99
				C118.87,681.96,118.27,682.39,117.62,682.39z M158.14,680.82c-0.09,0-0.18-0.01-0.28-0.03c-4.4-0.82-8.58-2.59-12.42-5.25
				c-0.68-0.47-0.85-1.41-0.38-2.09c0.47-0.68,1.41-0.85,2.09-0.38c3.49,2.42,7.28,4.02,11.27,4.76c0.81,0.15,1.35,0.94,1.2,1.75
				C159.48,680.32,158.85,680.82,158.14,680.82z M170.85,679.6c-0.58,0-1.14-0.34-1.38-0.91c-0.33-0.76,0.03-1.64,0.79-1.97
				c3.77-1.61,6.93-4.37,8.88-7.76c0.41-0.72,1.33-0.96,2.05-0.55c0.72,0.41,0.96,1.33,0.55,2.05c-2.28,3.96-5.94,7.16-10.3,9.02
				C171.24,679.56,171.04,679.6,170.85,679.6z M137.11,666.75c-0.46,0-0.91-0.21-1.21-0.61c-2.01-2.73-3.78-5.74-5.29-8.98
				c-0.38,0.4-0.74,0.81-1.08,1.23c-0.53,0.64-1.48,0.72-2.11,0.19c-0.64-0.53-0.72-1.48-0.19-2.11c0.66-0.79,1.37-1.56,2.14-2.32
				c-0.1-0.67,0.27-1.35,0.92-1.61c0.3-0.12,0.61-0.14,0.9-0.07c1.9-1.65,4.05-3.19,6.37-4.57c0.71-0.42,1.63-0.19,2.06,0.52
				c0.42,0.71,0.19,1.63-0.52,2.06c-2.27,1.35-4.35,2.86-6.18,4.47c1.51,3.42,3.33,6.58,5.42,9.42c0.49,0.67,0.35,1.61-0.32,2.1
				C137.73,666.65,137.42,666.75,137.11,666.75z M182.25,658.69c-0.67,0-1.28-0.45-1.45-1.13c-0.1-0.41-0.23-0.82-0.37-1.23
				c-1.23-3.59-3.29-6.44-6.11-8.49c-0.67-0.49-0.82-1.42-0.33-2.1c0.49-0.67,1.42-0.82,2.09-0.33c3.33,2.42,5.75,5.76,7.19,9.94
				c0.17,0.49,0.32,0.98,0.44,1.47c0.2,0.8-0.28,1.62-1.08,1.82C182.5,658.68,182.37,658.69,182.25,658.69z M150.22,645.61
				c-0.66,0-1.26-0.44-1.44-1.1c-0.22-0.8,0.25-1.62,1.05-1.85c4.61-1.27,9.1-1.8,13.32-1.54c0.83,0.05,1.46,0.76,1.41,1.59
				c-0.05,0.83-0.77,1.47-1.59,1.41c-3.89-0.24-8.05,0.26-12.34,1.44C150.48,645.6,150.35,645.61,150.22,645.61z M127.38,642.95
				c-0.73,0-1.36-0.53-1.48-1.27c-0.43-2.74-0.65-5.46-0.65-8.09c0-1.25,0.05-2.48,0.15-3.67c0.04-0.52,0.09-1.03,0.14-1.54
				c0.08-0.82,0.8-1.43,1.63-1.35c0.82,0.08,1.43,0.81,1.35,1.63c-0.05,0.5-0.09,1-0.13,1.51c-0.09,1.11-0.14,2.26-0.14,3.43
				c0,2.47,0.21,5.04,0.61,7.62c0.13,0.82-0.43,1.59-1.25,1.71C127.54,642.95,127.46,642.95,127.38,642.95z M128.88,617.21
				c-0.1,0-0.2-0.01-0.29-0.03c-0.81-0.16-1.34-0.95-1.18-1.76c0.87-4.38,1.99-8.65,3.31-12.7c0.26-0.79,1.11-1.22,1.89-0.96
				c0.79,0.26,1.22,1.11,0.96,1.89c-1.29,3.93-2.38,8.09-3.22,12.35C130.21,616.71,129.58,617.21,128.88,617.21z M137,592.68
				c-0.22,0-0.45-0.05-0.66-0.15c-0.74-0.36-1.05-1.26-0.69-2.01c1.94-3.97,4.17-7.79,6.64-11.37c0.47-0.68,1.41-0.85,2.09-0.38
				c0.68,0.47,0.85,1.4,0.38,2.09c-2.38,3.45-4.54,7.15-6.41,10.98C138.09,592.37,137.56,592.68,137,592.68z M788.22,584.87
				c-0.83,0-1.5-0.67-1.5-1.5c0-0.83,0.67-1.5,1.5-1.5c4.33-0.01,8.65-0.04,12.96-0.08c0.01,0,0.01,0,0.02,0
				c0.82,0,1.49,0.66,1.5,1.48c0.01,0.83-0.65,1.51-1.48,1.52C796.89,584.83,792.56,584.86,788.22,584.87
				C788.22,584.87,788.22,584.87,788.22,584.87z M775.25,584.84c0,0-0.01,0-0.01,0c-4.33-0.03-8.66-0.08-13-0.14
				c-0.83-0.01-1.49-0.69-1.48-1.52c0.01-0.83,0.73-1.46,1.52-1.48c4.33,0.07,8.66,0.11,12.97,0.14c0.83,0.01,1.5,0.68,1.49,1.51
				C776.74,584.17,776.07,584.84,775.25,584.84z M814.16,584.58c-0.81,0-1.48-0.65-1.5-1.47c-0.02-0.83,0.64-1.51,1.47-1.53
				c4.33-0.09,8.65-0.2,12.95-0.33c0.86-0.03,1.52,0.63,1.55,1.45c0.03,0.83-0.62,1.52-1.45,1.55c-4.32,0.13-8.64,0.24-12.98,0.33
				C814.18,584.58,814.17,584.58,814.16,584.58z M749.27,584.44c-0.01,0-0.02,0-0.04,0c-4.33-0.1-8.66-0.22-13-0.35
				c-0.83-0.03-1.48-0.72-1.45-1.55c0.03-0.83,0.7-1.48,1.55-1.45c4.33,0.13,8.66,0.25,12.98,0.35c0.83,0.02,1.48,0.71,1.46,1.53
				C750.75,583.8,750.08,584.44,749.27,584.44z M840.1,583.78c-0.8,0-1.46-0.63-1.5-1.44c-0.03-0.83,0.61-1.53,1.44-1.56
				c4.31-0.18,8.66-0.38,12.94-0.61c0.82-0.05,1.53,0.59,1.58,1.42c0.04,0.83-0.59,1.53-1.42,1.58c-4.29,0.23-8.65,0.43-12.98,0.61
				C840.14,583.78,840.12,583.78,840.1,583.78z M723.3,583.64c-0.02,0-0.04,0-0.06,0c-4.33-0.17-8.65-0.35-12.98-0.54
				c-0.83-0.04-1.47-0.74-1.43-1.57s0.72-1.47,1.57-1.43c4.32,0.2,8.64,0.38,12.96,0.54c0.83,0.03,1.47,0.73,1.44,1.56
				C724.77,583.01,724.1,583.64,723.3,583.64z M697.36,582.47c-0.03,0-0.05,0-0.08,0c-4.32-0.22-8.64-0.46-12.97-0.72
				c-0.83-0.05-1.46-0.76-1.41-1.58c0.05-0.83,0.76-1.45,1.58-1.41c4.31,0.25,8.63,0.49,12.95,0.72c0.83,0.04,1.46,0.75,1.42,1.58
				C698.82,581.85,698.15,582.47,697.36,582.47z M866,582.41c-0.78,0-1.44-0.61-1.5-1.4c-0.05-0.83,0.57-1.54,1.4-1.59
				c4.33-0.28,8.68-0.59,12.92-0.91c0.82-0.07,1.55,0.55,1.61,1.38c0.06,0.83-0.55,1.55-1.38,1.61c-4.25,0.33-8.61,0.64-12.96,0.92
				C866.07,582.41,866.04,582.41,866,582.41z M671.46,580.96c-0.03,0-0.07,0-0.1,0c-4.32-0.28-8.63-0.57-12.95-0.88
				c-0.83-0.06-1.45-0.78-1.39-1.6c0.06-0.83,0.78-1.46,1.6-1.39c4.31,0.3,8.62,0.6,12.93,0.87c0.83,0.05,1.45,0.77,1.4,1.59
				C672.9,580.35,672.24,580.96,671.46,580.96z M891.87,580.41c-0.77,0-1.42-0.59-1.49-1.37c-0.07-0.83,0.53-1.55,1.36-1.63
				c4.33-0.39,8.67-0.81,12.89-1.25c0.83-0.09,1.56,0.51,1.65,1.34c0.09,0.82-0.51,1.56-1.34,1.65c-4.23,0.44-8.58,0.86-12.93,1.26
				C891.96,580.41,891.92,580.41,891.87,580.41z M645.59,579.13c-0.04,0-0.08,0-0.12,0c-4.31-0.33-8.62-0.67-12.93-1.02
				c-0.83-0.07-1.44-0.79-1.37-1.62c0.07-0.83,0.79-1.44,1.62-1.37c4.3,0.35,8.6,0.69,12.91,1.02c0.83,0.06,1.44,0.78,1.38,1.61
				C647.03,578.53,646.37,579.13,645.59,579.13z M917.68,577.72c-0.75,0-1.4-0.56-1.49-1.32c-0.1-0.82,0.49-1.57,1.31-1.67
				c4.31-0.51,8.63-1.06,12.85-1.63c0.82-0.11,1.58,0.46,1.69,1.29c0.11,0.82-0.46,1.58-1.29,1.69c-4.23,0.57-8.57,1.12-12.89,1.63
				C917.79,577.72,917.73,577.72,917.68,577.72z M619.77,577.02c-0.04,0-0.09,0-0.13-0.01c-4.31-0.38-8.61-0.76-12.9-1.16
				c-0.82-0.08-1.43-0.81-1.36-1.63c0.08-0.82,0.81-1.43,1.63-1.36c4.29,0.39,8.59,0.78,12.89,1.16c0.83,0.07,1.44,0.8,1.36,1.62
				C621.19,576.43,620.54,577.02,619.77,577.02z M593.99,574.65c-0.05,0-0.1,0-0.15-0.01c-4.3-0.42-8.6-0.84-12.88-1.28
				c-0.82-0.08-1.42-0.82-1.34-1.64c0.08-0.82,0.82-1.43,1.64-1.34c4.28,0.43,8.57,0.86,12.87,1.28c0.82,0.08,1.43,0.81,1.35,1.64
				C595.4,574.07,594.75,574.65,593.99,574.65z M943.39,574.25c-0.73,0-1.37-0.53-1.48-1.28c-0.12-0.82,0.44-1.58,1.26-1.71
				c4.28-0.65,8.58-1.34,12.78-2.05c0.82-0.14,1.59,0.41,1.73,1.23c0.14,0.82-0.41,1.59-1.23,1.73c-4.21,0.71-8.53,1.41-12.83,2.06
				C943.54,574.25,943.46,574.25,943.39,574.25z M568.21,572.03c-0.05,0-0.11,0-0.16-0.01c-4.31-0.46-8.62-0.92-12.9-1.4
				c-0.82-0.09-1.42-0.83-1.33-1.66c0.09-0.82,0.83-1.42,1.66-1.33c4.28,0.47,8.58,0.94,12.89,1.39c0.82,0.09,1.42,0.83,1.33,1.65
				C569.62,571.46,568.96,572.03,568.21,572.03z M151.67,571.44c-0.37,0-0.74-0.14-1.03-0.41c-0.6-0.57-0.63-1.52-0.06-2.12
				c2.97-3.15,6.24-6.14,9.71-8.89c0.65-0.51,1.59-0.4,2.11,0.25c0.51,0.65,0.4,1.59-0.25,2.11c-3.36,2.66-6.52,5.55-9.39,8.59
				C152.47,571.29,152.07,571.44,151.67,571.44z M968.96,569.92c-0.71,0-1.34-0.5-1.47-1.22c-0.15-0.81,0.38-1.6,1.2-1.75
				c4.27-0.81,8.54-1.65,12.69-2.52c0.81-0.17,1.61,0.35,1.78,1.16c0.17,0.81-0.35,1.61-1.16,1.78c-4.18,0.87-8.47,1.73-12.75,2.54
				C969.15,569.91,969.05,569.92,968.96,569.92z M542.42,569.19c-0.06,0-0.11,0-0.17-0.01c-4.31-0.49-8.61-0.99-12.89-1.5
				c-0.82-0.1-1.41-0.84-1.31-1.67c0.1-0.82,0.84-1.41,1.67-1.31c4.28,0.51,8.57,1,12.88,1.5c0.82,0.09,1.41,0.84,1.32,1.66
				C543.82,568.62,543.17,569.19,542.42,569.19z M516.65,566.14c-0.06,0-0.12,0-0.18-0.01c-4.31-0.53-8.61-1.06-12.88-1.59
				c-0.82-0.1-1.4-0.85-1.3-1.67c0.1-0.82,0.86-1.41,1.67-1.3c4.27,0.54,8.56,1.07,12.87,1.59c0.82,0.1,1.41,0.85,1.31,1.67
				C518.05,565.59,517.4,566.14,516.65,566.14z M994.35,564.59c-0.68,0-1.3-0.47-1.46-1.16c-0.19-0.81,0.32-1.61,1.12-1.8
				c4.22-0.98,8.45-2.01,12.57-3.06c0.81-0.21,1.62,0.28,1.82,1.08c0.21,0.8-0.28,1.62-1.08,1.82c-4.14,1.06-8.39,2.09-12.63,3.08
				C994.58,564.58,994.46,564.59,994.35,564.59z M490.91,562.91c-0.06,0-0.13,0-0.19-0.01c-4.31-0.55-8.6-1.11-12.87-1.68
				c-0.82-0.11-1.4-0.86-1.29-1.68c0.11-0.82,0.86-1.4,1.68-1.29c4.26,0.56,8.55,1.12,12.86,1.68c0.82,0.11,1.4,0.86,1.3,1.68
				C492.3,562.36,491.65,562.91,490.91,562.91z M465.19,559.52c-0.07,0-0.13,0-0.2-0.01c-4.31-0.58-8.6-1.17-12.86-1.75
				c-0.82-0.11-1.4-0.87-1.28-1.69c0.11-0.82,0.87-1.4,1.69-1.28c4.26,0.58,8.54,1.17,12.85,1.75c0.82,0.11,1.4,0.87,1.29,1.69
				C466.57,558.98,465.92,559.52,465.19,559.52z M1019.48,558.16c-0.65,0-1.26-0.43-1.44-1.09c-0.22-0.8,0.24-1.63,1.04-1.85
				c4.18-1.18,8.35-2.41,12.4-3.67c0.79-0.25,1.63,0.2,1.88,0.99c0.25,0.79-0.2,1.63-0.99,1.88c-4.07,1.26-8.27,2.5-12.47,3.69
				C1019.75,558.14,1019.61,558.16,1019.48,558.16z M439.48,555.99c-0.07,0-0.14,0-0.21-0.01c-4.31-0.6-8.6-1.21-12.85-1.81
				c-0.82-0.12-1.39-0.88-1.27-1.7c0.12-0.82,0.87-1.39,1.7-1.27c4.25,0.6,8.53,1.21,12.84,1.81c0.82,0.11,1.39,0.87,1.28,1.69
				C440.86,555.45,440.22,555.99,439.48,555.99z M171.9,555.38c-0.51,0-1.01-0.26-1.29-0.73c-0.42-0.71-0.19-1.63,0.52-2.06
				c3.65-2.18,7.57-4.21,11.65-6.05c0.76-0.34,1.64,0,1.98,0.75c0.34,0.76,0,1.64-0.75,1.98c-3.97,1.79-7.79,3.77-11.35,5.89
				C172.42,555.31,172.16,555.38,171.9,555.38z M413.79,552.33c-0.07,0-0.14,0-0.22-0.02c-4.32-0.62-8.6-1.25-12.84-1.87
				c-0.82-0.12-1.39-0.88-1.27-1.7c0.12-0.82,0.88-1.38,1.7-1.27c4.24,0.62,8.52,1.24,12.84,1.87c0.82,0.12,1.39,0.88,1.27,1.7
				C415.17,551.79,414.53,552.33,413.79,552.33z M1044.25,550.48c-0.62,0-1.21-0.39-1.42-1.02c-0.27-0.78,0.15-1.64,0.94-1.9
				c4.11-1.4,8.2-2.86,12.17-4.35c0.78-0.29,1.64,0.1,1.93,0.88c0.29,0.78-0.1,1.64-0.88,1.93c-4,1.5-8.12,2.97-12.25,4.38
				C1044.57,550.45,1044.41,550.48,1044.25,550.48z M388.12,548.58c-0.07,0-0.15-0.01-0.22-0.02c-4.32-0.64-8.6-1.27-12.83-1.91
				c-0.82-0.12-1.38-0.89-1.26-1.71c0.12-0.82,0.88-1.38,1.71-1.26c4.23,0.63,8.51,1.27,12.83,1.9c0.82,0.12,1.39,0.88,1.26,1.7
				C389.49,548.04,388.85,548.58,388.12,548.58z M362.46,544.75c-0.07,0-0.15-0.01-0.22-0.02l-12.83-1.93
				c-0.82-0.12-1.38-0.89-1.26-1.71c0.12-0.82,0.89-1.38,1.71-1.26l12.83,1.93c0.82,0.12,1.38,0.89,1.26,1.71
				C363.83,544.22,363.19,544.75,362.46,544.75z M195.47,544.69c-0.63,0-1.21-0.4-1.42-1.02c-0.26-0.79,0.16-1.64,0.94-1.9
				c4-1.35,8.23-2.58,12.57-3.66c0.8-0.2,1.62,0.29,1.82,1.09s-0.29,1.62-1.09,1.82c-4.26,1.06-8.41,2.27-12.33,3.59
				C195.79,544.66,195.63,544.69,195.47,544.69z M1068.53,541.37c-0.59,0-1.15-0.35-1.39-0.93c-0.32-0.77,0.05-1.64,0.82-1.96
				c4.01-1.65,8-3.38,11.85-5.12c0.75-0.34,1.64-0.01,1.99,0.75c0.34,0.75,0.01,1.64-0.75,1.99c-3.88,1.76-7.9,3.5-11.95,5.16
				C1068.91,541.33,1068.72,541.37,1068.53,541.37z M336.8,540.9c-0.07,0-0.15-0.01-0.23-0.02l-5-0.75
				c-2.6-0.39-5.21-0.77-7.81-1.12c-0.82-0.11-1.4-0.87-1.28-1.69s0.87-1.4,1.69-1.28c2.62,0.36,5.24,0.73,7.86,1.13l5,0.75
				c0.82,0.12,1.38,0.89,1.26,1.71C338.17,540.36,337.53,540.9,336.8,540.9z M220.6,538.39c-0.71,0-1.35-0.51-1.48-1.24
				c-0.14-0.82,0.4-1.59,1.22-1.74c4.15-0.73,8.5-1.36,12.92-1.87c0.82-0.09,1.57,0.5,1.66,1.32c0.09,0.82-0.5,1.57-1.32,1.66
				c-4.36,0.5-8.65,1.12-12.75,1.84C220.77,538.38,220.69,538.39,220.6,538.39z M311.09,537.43c-0.06,0-0.11,0-0.17-0.01
				c-4.33-0.48-8.66-0.9-12.87-1.25c-0.83-0.07-1.44-0.79-1.37-1.62c0.07-0.83,0.8-1.44,1.62-1.37c4.23,0.35,8.59,0.77,12.95,1.26
				c0.82,0.09,1.42,0.83,1.33,1.66C312.49,536.86,311.84,537.43,311.09,537.43z M246.35,535.38c-0.78,0-1.44-0.61-1.5-1.4
				c-0.05-0.83,0.57-1.54,1.4-1.59c4.22-0.27,8.6-0.45,13.03-0.54c0.84,0.02,1.51,0.64,1.53,1.47s-0.64,1.51-1.47,1.53
				c-4.38,0.09-8.72,0.27-12.89,0.54C246.42,535.38,246.39,535.38,246.35,535.38z M285.24,535.3c-0.03,0-0.05,0-0.08,0
				c-4.36-0.23-8.71-0.38-12.91-0.46c-0.83-0.02-1.49-0.7-1.47-1.53s0.72-1.47,1.53-1.47c4.23,0.08,8.61,0.23,13.01,0.47
				c0.83,0.04,1.46,0.75,1.42,1.58C286.7,534.68,286.04,535.3,285.24,535.3z M1092.14,530.66c-0.55,0-1.08-0.3-1.34-0.83
				c-0.37-0.74-0.07-1.64,0.67-2.01c3.88-1.94,7.72-3.95,11.43-5.99c0.73-0.4,1.64-0.14,2.04,0.59c0.4,0.73,0.13,1.64-0.59,2.04
				c-3.74,2.06-7.62,4.09-11.54,6.04C1092.59,530.61,1092.36,530.66,1092.14,530.66z M1114.84,518.15c-0.51,0-1-0.26-1.28-0.72
				c-0.43-0.71-0.2-1.63,0.5-2.06c3.7-2.25,7.35-4.58,10.86-6.94c0.69-0.46,1.62-0.28,2.08,0.41c0.46,0.69,0.28,1.62-0.41,2.08
				c-3.55,2.39-7.24,4.75-10.98,7.02C1115.38,518.08,1115.11,518.15,1114.84,518.15z M1136.34,503.68c-0.46,0-0.91-0.21-1.2-0.6
				c-0.5-0.66-0.36-1.6,0.31-2.1c3.46-2.58,6.86-5.26,10.12-7.97c0.64-0.53,1.58-0.44,2.11,0.19c0.53,0.64,0.44,1.58-0.2,2.11
				c-3.29,2.74-6.74,5.45-10.24,8.06C1136.96,503.59,1136.65,503.68,1136.34,503.68z M1156.25,487.12c-0.4,0-0.8-0.16-1.1-0.48
				c-0.56-0.61-0.53-1.56,0.08-2.12c3.16-2.93,6.25-5.97,9.19-9.04c0.57-0.6,1.52-0.62,2.12-0.04c0.6,0.57,0.62,1.52,0.04,2.12
				c-2.98,3.11-6.11,6.19-9.31,9.16C1156.98,486.99,1156.61,487.12,1156.25,487.12z M1174.18,468.41c-0.34,0-0.69-0.12-0.97-0.36
				c-0.63-0.54-0.71-1.48-0.17-2.11c2.77-3.26,5.46-6.63,8-10.02c0.5-0.66,1.44-0.8,2.1-0.3c0.66,0.5,0.8,1.44,0.3,2.1
				c-2.58,3.44-5.31,6.86-8.12,10.17C1175.03,468.23,1174.6,468.41,1174.18,468.41z M1189.68,447.72c-0.28,0-0.57-0.08-0.82-0.25
				c-0.69-0.45-0.89-1.38-0.43-2.08c2.34-3.57,4.6-7.26,6.71-10.96c0.41-0.72,1.33-0.97,2.05-0.56c0.72,0.41,0.97,1.33,0.56,2.05
				c-2.14,3.76-4.43,7.5-6.81,11.12C1190.64,447.48,1190.17,447.72,1189.68,447.72z M1202.48,425.23c-0.22,0-0.45-0.05-0.66-0.15
				c-0.74-0.36-1.05-1.26-0.69-2.01c1.87-3.82,3.65-7.76,5.29-11.71c0.32-0.77,1.2-1.13,1.96-0.81c0.77,0.32,1.13,1.19,0.81,1.96
				c-1.67,4.01-3.47,8.01-5.36,11.88C1203.57,424.92,1203.04,425.23,1202.48,425.23z M1212.41,401.33c-0.16,0-0.33-0.03-0.49-0.08
				c-0.78-0.27-1.2-1.13-0.93-1.91c1.39-4,2.69-8.13,3.86-12.27c0.23-0.8,1.06-1.26,1.85-1.03c0.8,0.23,1.26,1.05,1.03,1.85
				c-1.19,4.19-2.5,8.38-3.91,12.43C1213.61,400.94,1213.03,401.33,1212.41,401.33z M1219.48,376.43c-0.11,0-0.22-0.01-0.33-0.04
				c-0.81-0.18-1.32-0.98-1.13-1.79c0.93-4.13,1.77-8.38,2.5-12.64c0.14-0.82,0.92-1.36,1.73-1.23c0.82,0.14,1.37,0.92,1.23,1.73
				c-0.74,4.3-1.59,8.61-2.53,12.79C1220.79,375.96,1220.17,376.43,1219.48,376.43z M1223.86,350.89c-0.06,0-0.12,0-0.17-0.01
				c-0.82-0.09-1.41-0.84-1.32-1.66c0.48-4.22,0.82-8.53,0.98-12.82c0.03-0.83,0.73-1.46,1.56-1.44c0.83,0.03,1.47,0.73,1.44,1.56
				c-0.17,4.36-0.51,8.75-1,13.04C1225.26,350.32,1224.61,350.89,1223.86,350.89z M1224.86,324.99c-0.8,0-1.47-0.64-1.5-1.45
				c-0.16-4.32-0.49-8.64-0.98-12.82c-0.1-0.82,0.49-1.57,1.32-1.66c0.82-0.09,1.57,0.49,1.66,1.32c0.5,4.26,0.83,8.66,0.99,13.06
				c0.03,0.83-0.62,1.52-1.44,1.55C1224.9,324.99,1224.88,324.99,1224.86,324.99z M1221.81,299.25c-0.7,0-1.32-0.49-1.47-1.19
				c-0.9-4.29-1.99-8.46-3.25-12.39c-0.25-0.79,0.18-1.63,0.97-1.89c0.79-0.25,1.63,0.18,1.89,0.97c1.29,4.03,2.41,8.3,3.33,12.69
				c0.17,0.81-0.35,1.61-1.16,1.78C1222.01,299.23,1221.91,299.25,1221.81,299.25z M1153.44,279.55c-0.06,0-0.12,0-0.18-0.01
				c-4.71-0.57-8.98-2.16-12.71-4.71c-0.68-0.47-0.86-1.4-0.39-2.09c0.47-0.68,1.4-0.86,2.09-0.39c3.32,2.28,7.15,3.69,11.37,4.21
				c0.82,0.1,1.41,0.85,1.31,1.67C1154.83,278.99,1154.19,279.55,1153.44,279.55z M1166.29,278.56c-0.67,0-1.27-0.45-1.45-1.12
				c-0.21-0.8,0.27-1.62,1.07-1.83c2.5-0.65,5.08-1.58,7.64-2.77c1.32-0.61,2.63-1.3,3.89-2.06c0.71-0.42,1.63-0.19,2.06,0.52
				c0.42,0.71,0.19,1.63-0.52,2.06c-1.35,0.81-2.75,1.55-4.17,2.2c-2.73,1.26-5.47,2.26-8.15,2.96
				C1166.54,278.54,1166.41,278.56,1166.29,278.56z M1213.81,274.63c-0.56,0-1.1-0.32-1.36-0.86c-1.86-3.98-3.97-7.71-6.25-11.07
				c-0.47-0.69-0.29-1.62,0.4-2.08c0.69-0.47,1.62-0.29,2.08,0.4c2.38,3.5,4.56,7.36,6.49,11.48c0.35,0.75,0.03,1.64-0.72,1.99
				C1214.23,274.58,1214.02,274.63,1213.81,274.63z M1188.27,265.46c-0.37,0-0.74-0.14-1.03-0.41c-0.6-0.57-0.62-1.52-0.05-2.12
				c2.78-2.92,5.34-6.31,7.6-10.07c0.43-0.71,1.35-0.94,2.06-0.51c0.71,0.43,0.94,1.35,0.51,2.06c-2.37,3.94-5.06,7.51-8,10.59
				C1189.07,265.3,1188.67,265.46,1188.27,265.46z M1133.11,265.33c-0.57,0-1.12-0.33-1.37-0.88c-1.3-2.88-1.96-5.84-1.96-8.82
				c0-1.65,0.21-3.28,0.63-4.84c0.21-0.8,1.04-1.28,1.84-1.06c0.8,0.21,1.28,1.04,1.06,1.84c-0.35,1.31-0.52,2.67-0.52,4.06
				c0,2.51,0.59,5.13,1.7,7.58c0.34,0.75,0.01,1.64-0.75,1.98C1133.52,265.28,1133.31,265.33,1133.11,265.33z M1199.17,253.39
				c-0.38,0-0.76-0.14-1.05-0.43c-3.06-3-6.4-5.6-9.92-7.72c-0.71-0.43-0.94-1.35-0.51-2.06c0.43-0.71,1.35-0.94,2.06-0.51
				c3.73,2.24,7.25,4.99,10.47,8.15c0.59,0.58,0.6,1.53,0.02,2.12C1199.95,253.24,1199.56,253.39,1199.17,253.39z M1201.73,243.48
				c-0.18,0-0.36-0.03-0.54-0.1c-0.77-0.3-1.16-1.17-0.86-1.94c1.48-3.83,2.74-7.93,3.74-12.19c0.19-0.81,1-1.3,1.8-1.12
				c0.81,0.19,1.31,1,1.12,1.8c-1.03,4.4-2.33,8.63-3.86,12.59C1202.9,243.11,1202.33,243.48,1201.73,243.48z M1139.43,242.52
				c-0.49,0-0.97-0.24-1.25-0.67c-0.46-0.69-0.27-1.62,0.43-2.08c3.42-2.26,7.7-3.79,12.71-4.56c0.82-0.13,1.58,0.44,1.71,1.25
				c0.13,0.82-0.44,1.58-1.25,1.71c-4.58,0.71-8.46,2.08-11.51,4.1C1140,242.44,1139.71,242.52,1139.43,242.52z M1177.18,240.19
				c-0.15,0-0.29-0.02-0.44-0.07c-3.91-1.2-8.07-1.98-12.38-2.31c-0.83-0.06-1.44-0.79-1.38-1.61c0.06-0.83,0.78-1.44,1.61-1.38
				c4.53,0.35,8.91,1.17,13.03,2.43c0.79,0.24,1.24,1.08,0.99,1.88C1178.41,239.78,1177.82,240.19,1177.18,240.19z M1207.73,218.31
				c-0.06,0-0.11,0-0.17-0.01c-0.82-0.09-1.42-0.84-1.32-1.66c0.47-4.16,0.72-8.46,0.75-12.78c0.01-0.82,0.68-1.49,1.5-1.49
				c0,0,0.01,0,0.01,0c0.83,0.01,1.5,0.68,1.49,1.51c-0.03,4.42-0.29,8.83-0.77,13.1C1209.13,217.75,1208.48,218.31,1207.73,218.31z
				 M1207.94,192.42c-0.77,0-1.42-0.58-1.49-1.36c-0.39-4.23-0.99-8.5-1.78-12.69c-0.15-0.81,0.38-1.6,1.19-1.75
				c0.82-0.15,1.6,0.38,1.75,1.19c0.81,4.28,1.42,8.65,1.82,12.97c0.08,0.83-0.53,1.56-1.36,1.63
				C1208.03,192.41,1207.98,192.42,1207.94,192.42z M1203.12,166.98c-0.65,0-1.25-0.43-1.44-1.08c-1.2-4.12-2.61-8.19-4.18-12.11
				c-0.31-0.77,0.06-1.64,0.83-1.95c0.77-0.31,1.64,0.06,1.95,0.83c1.61,4.01,3.05,8.18,4.28,12.39c0.23,0.8-0.23,1.63-1.02,1.86
				C1203.4,166.96,1203.26,166.98,1203.12,166.98z M1193.44,142.97c-0.54,0-1.06-0.29-1.33-0.8c-2.01-3.8-4.24-7.48-6.61-10.95
				c-0.47-0.68-0.29-1.62,0.39-2.08c0.68-0.47,1.62-0.29,2.08,0.39c2.43,3.56,4.71,7.34,6.78,11.24c0.39,0.73,0.11,1.64-0.62,2.03
				C1193.91,142.91,1193.67,142.97,1193.44,142.97z M1178.82,121.63c-0.42,0-0.83-0.17-1.13-0.51c-2.82-3.22-5.85-6.27-9-9.06
				c-0.62-0.55-0.68-1.5-0.13-2.12c0.55-0.62,1.5-0.68,2.12-0.13c3.24,2.87,6.36,6.01,9.26,9.33c0.55,0.62,0.48,1.57-0.14,2.12
				C1179.52,121.5,1179.17,121.63,1178.82,121.63z M893.02,108.91c-0.82,0-1.49-0.67-1.5-1.49c-0.01-0.83,0.66-1.5,1.49-1.51
				c4.27-0.03,8.6-0.14,12.9-0.34c0.82-0.03,1.53,0.6,1.57,1.43c0.04,0.83-0.6,1.53-1.43,1.57
				C901.71,108.77,897.33,108.88,893.02,108.91C893.03,108.91,893.02,108.91,893.02,108.91z M880.06,108.73c-0.02,0-0.03,0-0.05,0
				c-4.31-0.15-8.68-0.38-13.01-0.7c-0.83-0.06-1.45-0.78-1.38-1.61c0.06-0.83,0.78-1.44,1.61-1.39c4.29,0.32,8.62,0.55,12.89,0.7
				c0.83,0.03,1.48,0.72,1.45,1.55C881.53,108.09,880.86,108.73,880.06,108.73z M918.91,107.72c-0.77,0-1.43-0.59-1.49-1.37
				c-0.07-0.83,0.54-1.55,1.37-1.62c4.21-0.36,8.53-0.8,12.84-1.32c0.82-0.1,1.57,0.49,1.67,1.31c0.1,0.82-0.49,1.57-1.31,1.67
				c-4.35,0.53-8.71,0.97-12.95,1.33C919,107.71,918.96,107.72,918.91,107.72z M854.2,106.82c-0.06,0-0.11,0-0.17-0.01
				c-4.25-0.48-8.6-1.06-12.91-1.72c-0.82-0.12-1.38-0.89-1.26-1.71c0.12-0.82,0.89-1.38,1.71-1.26c4.28,0.65,8.58,1.22,12.8,1.7
				c0.82,0.09,1.41,0.84,1.32,1.66C855.6,106.25,854.95,106.82,854.2,106.82z M944.65,104.62c-0.73,0-1.37-0.53-1.48-1.27
				c-0.12-0.82,0.44-1.58,1.26-1.71c4.13-0.63,8.3-1.33,12.75-2.13c0.82-0.15,1.6,0.4,1.74,1.21c0.15,0.82-0.4,1.6-1.21,1.74
				c-4.47,0.8-8.67,1.5-12.83,2.14C944.81,104.62,944.73,104.62,944.65,104.62z M1159.44,104.5c-0.29,0-0.58-0.08-0.84-0.26
				c-3.51-2.37-7.22-4.52-11.03-6.4c-0.74-0.37-1.05-1.27-0.68-2.01c0.37-0.74,1.27-1.05,2.01-0.68c3.92,1.94,7.75,4.16,11.38,6.6
				c0.69,0.46,0.87,1.4,0.41,2.08C1160.4,104.27,1159.93,104.5,1159.44,104.5z M828.56,102.92c-0.09,0-0.19-0.01-0.28-0.03
				c-4.2-0.8-8.49-1.68-12.75-2.64c-0.81-0.18-1.32-0.98-1.13-1.79c0.18-0.81,0.98-1.32,1.79-1.13c4.23,0.95,8.48,1.83,12.65,2.62
				c0.81,0.15,1.35,0.94,1.19,1.75C829.89,102.42,829.27,102.92,828.56,102.92z M970.18,100.06c-0.7,0-1.33-0.49-1.47-1.21
				c-0.16-0.81,0.36-1.6,1.18-1.77c3.82-0.77,7.85-1.6,12.68-2.63c0.81-0.17,1.61,0.35,1.78,1.16c0.17,0.81-0.35,1.61-1.16,1.78
				c-4.84,1.03-8.88,1.87-12.71,2.63C970.38,100.05,970.28,100.06,970.18,100.06z M995.55,94.71c-0.69,0-1.31-0.48-1.46-1.18
				c-0.17-0.81,0.34-1.61,1.15-1.78c4.26-0.92,8.48-1.82,12.69-2.7c0.81-0.17,1.6,0.35,1.77,1.16c0.17,0.81-0.35,1.61-1.16,1.77
				c-4.2,0.87-8.42,1.78-12.67,2.69C995.77,94.7,995.66,94.71,995.55,94.71z M1136.28,93.03c-0.16,0-0.32-0.03-0.48-0.08
				c-1.58-0.54-3.2-1.05-4.81-1.51c-2.5-0.72-5.04-1.39-7.53-2.01c-0.8-0.2-1.29-1.01-1.1-1.82c0.2-0.8,1.01-1.29,1.82-1.1
				c2.53,0.62,5.09,1.31,7.63,2.04c1.66,0.48,3.33,1,4.96,1.55c0.78,0.27,1.2,1.12,0.94,1.9
				C1137.49,92.64,1136.9,93.03,1136.28,93.03z M1020.95,89.47c-0.71,0-1.34-0.5-1.47-1.22c-0.15-0.81,0.38-1.6,1.19-1.75
				c4.57-0.87,8.76-1.6,12.81-2.25c0.81-0.13,1.59,0.43,1.72,1.24c0.13,0.82-0.43,1.59-1.24,1.72c-4.02,0.65-8.18,1.38-12.72,2.24
				C1021.14,89.46,1021.05,89.47,1020.95,89.47z M1111.14,86.76c-0.09,0-0.18-0.01-0.27-0.02c-4.21-0.76-8.5-1.39-12.73-1.88
				c-0.82-0.09-1.41-0.84-1.32-1.66c0.09-0.82,0.85-1.41,1.66-1.32c4.3,0.49,8.65,1.13,12.93,1.91c0.81,0.15,1.36,0.93,1.21,1.74
				C1112.48,86.25,1111.85,86.76,1111.14,86.76z M1046.55,85.42c-0.75,0-1.4-0.56-1.49-1.32c-0.1-0.82,0.49-1.57,1.31-1.67
				c4.42-0.53,8.79-0.95,12.98-1.25c0.82-0.07,1.54,0.56,1.6,1.39c0.06,0.83-0.56,1.54-1.39,1.6c-4.14,0.29-8.46,0.71-12.83,1.24
				C1046.67,85.41,1046.61,85.42,1046.55,85.42z M1085.38,83.82c-0.02,0-0.05,0-0.07,0c-4.23-0.2-8.59-0.27-12.87-0.21
				c-0.01,0-0.01,0-0.02,0c-0.82,0-1.49-0.66-1.5-1.48c-0.01-0.83,0.65-1.51,1.48-1.52c4.34-0.06,8.76,0.01,13.06,0.22
				c0.83,0.04,1.47,0.74,1.43,1.57C1086.84,83.2,1086.17,83.82,1085.38,83.82z"/><path fill="#6542bd" d="M802.48,97.04c-0.13,0-0.25-0.02-0.38-0.05c-2.08-0.54-4.18-1.11-6.3-1.7c-0.8-0.22-1.27-1.05-1.04-1.85
				c0.22-0.8,1.05-1.27,1.85-1.04c2.1,0.58,4.19,1.14,6.25,1.68c0.8,0.21,1.28,1.03,1.07,1.83
				C803.75,96.59,803.15,97.04,802.48,97.04z"/><path fill="#b3c74e" d="M338.35,510.55l-6.21,51.33c-4.22-4.24-8.9-8.09-13.39-11.97c-4.42-3.82-8.79-7.77-12.5-12.32
					c-3.77-4.63-6.4-9.77-8.51-15.32c-2.04-5.37-3.83-10.9-6.96-15.79c-2.45-3.84-5.73-7.07-9.33-9.85
					c-7.45-5.78-16.11-9.7-23.71-15.25c-3.83-2.79-7.34-6-10.06-9.9c-3.28-4.7-5.34-10.11-7.22-15.49
					c-1.87-5.37-3.57-10.82-6.13-15.92c-2.18-4.34-5-8.34-8.31-11.89c-6.64-7.12-15.08-12.4-24.08-15.98
					c-22.05-8.77-46.32-6.57-69.26-3.21c-1.35,0.2-2.71,0.4-4.07,0.61c0.37-13.54,21.26-20.89,33.72-21.22
					c8.52-0.22,16.53,3.97,24.98,5.05c42.8,5.51,72.85-4.58,85,47.57c1.35,5.84,2.34,12,5.81,16.88
					C294.24,477.4,343.37,473.68,338.35,510.55z"/><path fill="#9aad36" d="M288.72,609.23c-36.56,7.03-66.85-28.58-38.26-63.71c18.77-17.46,0.64-33.11-16.64-40.51
					c-8.58-3.68-19.43-5.89-22.9-14.55c-5.37-19.3,21.81-38.61-15.32-53.99c-20.95-8.69-64.55,3.99-66.95-25.4
					c-0.01-0.14-0.02-0.28-0.02-0.42c21.8-3.33,44.54-6.23,66.01,0.12c9.42,2.79,18.46,7.27,25.97,13.66
					c3.67,3.12,6.95,6.71,9.65,10.71c3,4.45,5.08,9.37,6.89,14.42c1.9,5.34,3.54,10.8,5.95,15.95c2.12,4.53,4.9,8.65,8.52,12.13
					c6.53,6.28,14.75,10.36,22.38,15.12c3.87,2.43,7.68,5.06,10.97,8.27c3.75,3.68,6.43,8.06,8.47,12.89
					c2.22,5.28,3.82,10.82,6.45,15.93c2.53,4.94,6.04,9.29,9.93,13.23c7,7.12,15.21,12.97,22.17,20.12
					C331.97,563.2,329.84,601.32,288.72,609.23z"/><path fill="#fff" d="M332.14,561.87l-0.17,1.32c-6.96-7.16-15.18-13-22.17-20.12c-3.89-3.94-7.39-8.29-9.93-13.23
					c-2.63-5.11-4.23-10.64-6.45-15.93c-2.04-4.83-4.72-9.21-8.47-12.89c-3.29-3.21-7.1-5.84-10.97-8.27
					c-7.63-4.76-15.85-8.84-22.38-15.12c-3.61-3.48-6.4-7.59-8.52-12.13c-2.41-5.15-4.05-10.6-5.95-15.95
					c-1.8-5.05-3.88-9.97-6.89-14.42c-2.7-4-5.98-7.59-9.65-10.71c-7.51-6.4-16.54-10.87-25.97-13.66
					c-21.46-6.35-44.21-3.45-66.01-0.12c-0.02-0.36-0.03-0.71-0.02-1.06c1.36-0.21,2.72-0.41,4.07-0.61
					c22.93-3.36,47.21-5.56,69.26,3.21c9.01,3.58,17.45,8.85,24.08,15.98c3.32,3.55,6.13,7.55,8.31,11.89
					c2.56,5.1,4.26,10.55,6.13,15.92c1.87,5.38,3.93,10.79,7.22,15.49c2.72,3.9,6.23,7.12,10.06,9.9
					c7.6,5.55,16.26,9.48,23.71,15.25c3.6,2.78,6.88,6.01,9.33,9.85c3.13,4.88,4.92,10.41,6.96,15.79
					c2.11,5.56,4.74,10.69,8.51,15.32c3.71,4.55,8.08,8.51,12.5,12.32C323.24,553.79,327.92,557.63,332.14,561.87z"/><path fill="#b3c74e" d="M1048.03,664.14l6.21,51.33c4.22-4.24,8.9-8.09,13.39-11.97c4.42-3.82,8.79-7.77,12.5-12.32
					c3.77-4.63,6.4-9.77,8.51-15.32c2.04-5.37,3.83-10.9,6.96-15.79c2.45-3.84,5.73-7.07,9.33-9.85c7.45-5.78,16.11-9.7,23.71-15.25
					c3.83-2.79,7.34-6,10.06-9.9c3.28-4.7,5.34-10.11,7.22-15.49c1.87-5.37,3.57-10.82,6.13-15.92c2.18-4.34,5-8.34,8.31-11.89
					c6.64-7.12,15.08-12.4,24.08-15.98c22.05-8.77,46.32-6.57,69.26-3.21c1.35,0.2,2.71,0.4,4.07,0.61
					c-0.37-13.54-21.26-20.89-33.72-21.22c-8.52-0.22-16.53,3.97-24.98,5.05c-42.8,5.51-72.85-4.58-85,47.57
					c-1.35,5.84-2.34,12-5.81,16.88C1092.13,630.99,1043.01,627.27,1048.03,664.14z"/><path fill="#9aad36" d="M1097.66,762.82c36.56,7.03,66.85-28.58,38.26-63.71c-18.77-17.46-0.64-33.11,16.64-40.51
					c8.58-3.68,19.43-5.89,22.9-14.55c5.37-19.3-21.81-38.61,15.32-53.99c20.95-8.69,64.55,3.99,66.95-25.4
					c0.01-0.14,0.02-0.28,0.02-0.42c-21.8-3.33-44.54-6.23-66.01,0.12c-9.42,2.79-18.46,7.27-25.97,13.66
					c-3.67,3.12-6.95,6.71-9.65,10.71c-3,4.45-5.08,9.37-6.89,14.42c-1.9,5.34-3.54,10.8-5.95,15.95c-2.12,4.53-4.9,8.65-8.52,12.13
					c-6.53,6.28-14.75,10.36-22.38,15.12c-3.87,2.43-7.68,5.06-10.97,8.27c-3.75,3.68-6.43,8.06-8.47,12.89
					c-2.22,5.28-3.82,10.82-6.45,15.93c-2.53,4.94-6.04,9.29-9.93,13.23c-7,7.12-15.21,12.97-22.17,20.12
					C1054.4,716.79,1056.53,754.91,1097.66,762.82z"/><path fill="#fff" d="M1054.23,715.47l0.17,1.32c6.96-7.16,15.18-13,22.17-20.12c3.89-3.94,7.39-8.29,9.93-13.23
					c2.63-5.11,4.23-10.64,6.45-15.93c2.04-4.83,4.72-9.21,8.47-12.89c3.29-3.21,7.1-5.84,10.97-8.27
					c7.63-4.76,15.85-8.84,22.38-15.12c3.61-3.48,6.4-7.59,8.52-12.13c2.41-5.15,4.05-10.6,5.95-15.95
					c1.8-5.05,3.88-9.97,6.89-14.42c2.7-4,5.98-7.59,9.65-10.71c7.51-6.4,16.54-10.87,25.97-13.66c21.46-6.35,44.21-3.45,66.01-0.12
					c0.02-0.36,0.03-0.71,0.02-1.06c-1.36-0.21-2.72-0.41-4.07-0.61c-22.93-3.36-47.21-5.56-69.26,3.21
					c-9.01,3.58-17.45,8.85-24.08,15.98c-3.32,3.54-6.14,7.55-8.31,11.89c-2.56,5.1-4.26,10.55-6.13,15.92
					c-1.87,5.38-3.93,10.79-7.22,15.49c-2.72,3.9-6.23,7.12-10.06,9.9c-7.6,5.55-16.26,9.48-23.71,15.25
					c-3.6,2.78-6.88,6.01-9.33,9.85c-3.13,4.88-4.92,10.41-6.96,15.79c-2.11,5.56-4.74,10.69-8.51,15.32
					c-3.71,4.55-8.08,8.51-12.5,12.32C1063.13,707.38,1058.45,711.22,1054.23,715.47z"/><path fill="#fff" d="M1011.9,238.23H317.01c-8.32,0-15.06,6.74-15.06,15.06v424.67c0,8.32,6.74,15.06,15.06,15.06h694.89
			c8.32,0,15.06-6.74,15.06-15.06V253.3C1026.96,244.98,1020.22,238.23,1011.9,238.23z"/><rect width="125.17" height="110.12" x="601.87" y="719.77" fill="#bbabeb"/><path fill="#dad3e5" d="M727.05,719.77v110.12h-16.9c1.2-11.01,1.98-39.17-17.05-60.74c-20.94-23.73-70.02-24.62-91.22-24.42
							v-24.96H727.05z"/><path fill="#bbabeb" d="M790.1,829.89H538.82c-20.73,0-37.53,16.8-37.53,37.53l0,0h326.34l0,0
							C827.63,846.69,810.83,829.89,790.1,829.89z"/><path fill="#d0c7ff" d="M1027.04,228H301.88c-5.96,0-10.8,4.84-10.8,10.8v476.25c0,5.96,4.84,10.8,10.8,10.8h725.16
								c5.97,0,10.8-4.84,10.8-10.8V238.8C1037.84,232.84,1033.01,228,1027.04,228z M1021.17,673.64c0,6.36-5.14,11.52-11.48,11.52
								H318.87c-6.34,0-11.49-5.16-11.49-11.52V254.5c0-6.36,5.15-11.52,11.49-11.52h690.82c6.34,0,11.48,5.16,11.48,11.52V673.64z"/><path fill="#fff" d="M1012.38,706h-29.26c-2.34,0-4.23-1.9-4.23-4.23l0,0c0-2.34,1.9-4.23,4.23-4.23h29.26
								c2.34,0,4.23,1.9,4.23,4.23l0,0C1016.61,704.1,1014.71,706,1012.38,706z"/><path fill="#dfe2ed" d="M1014.38,698.1c0.33,0.6,0.57,1.26,0.57,2c0,2.34-1.89,4.23-4.23,4.23h-29.26
								c-0.74,0-1.4-0.24-2.01-0.58c0.72,1.31,2.06,2.23,3.66,2.23h29.26c2.34,0,4.23-1.9,4.23-4.23
								C1016.61,700.17,1015.69,698.82,1014.38,698.1z"/><path fill="#fff" d="M970.67,706h-16.83c-2.34,0-4.23-1.9-4.23-4.23l0,0c0-2.34,1.9-4.23,4.23-4.23h16.83
								c2.34,0,4.23,1.9,4.23,4.23l0,0C974.9,704.1,973,706,970.67,706z"/><path fill="#dfe2ed" d="M971.84,697.77c0.59,0.73,0.99,1.61,0.99,2.62c0,2.34-1.9,4.23-4.23,4.23h-16.83
								c-0.42,0-0.8-0.12-1.18-0.24c0.78,0.96,1.92,1.62,3.25,1.62h16.83c2.34,0,4.23-1.9,4.23-4.23
								C974.9,699.84,973.6,698.29,971.84,697.77z"/><path fill="#fff" d="M940.22,706.22h-16.83c-2.34,0-4.23-1.89-4.23-4.23l0,0c0-2.34,1.89-4.23,4.23-4.23h16.83
								c2.34,0,4.23,1.9,4.23,4.23l0,0C944.45,704.32,942.56,706.22,940.22,706.22z"/><path fill="#dfe2ed" d="M940.22,697.75h-0.63c0.51,0.7,0.87,1.51,0.87,2.44c0,2.34-1.89,4.23-4.23,4.23h-16.2
								c0.77,1.06,1.96,1.79,3.37,1.79h16.83c2.34,0,4.23-1.89,4.23-4.23C944.45,699.65,942.56,697.75,940.22,697.75z"/><path fill="#fff" d="M900.98,701.76c0-3.59,2.91-6.51,6.51-6.51c3.59,0,6.51,2.91,6.51,6.51c0,3.59-2.91,6.51-6.51,6.51
								C903.89,708.27,900.98,705.36,900.98,701.76z"/><path fill="#dfe2ed" d="M911,696.3c0.65,1.01,1.04,2.21,1.04,3.51c0,3.59-2.91,6.51-6.51,6.51c-1.29,0-2.49-0.39-3.51-1.04
								c1.16,1.8,3.17,3,5.47,3c3.59,0,6.51-2.91,6.51-6.51C913.99,699.46,912.8,697.45,911,696.3z"/><path fill="#dad3e5" d="M790.1,829.89H538.82c-11.66,0-22.08,5.32-28.97,13.67c4.54-1.95,9.54-3.04,14.8-3.04h251.28
							c17.03,0,31.39,11.36,35.98,26.9h15.72l0,0C827.63,846.69,810.83,829.89,790.1,829.89z"/><path fill="#eae6ff" d="M898.79,654.88c-17.49,0-34.17-6.06-47.44-17.16L899.57,587l60.2,35.85c-6.23,9.05-14.46,16.66-24.01,22.17
					C924.57,651.47,911.79,654.88,898.79,654.88z"/><path fill="#eae6ff" d="M903.25,576.9v-68.93c37.18,2.21,67.04,31.93,69.27,68.93H903.25z"/><path fill="#ffb300" d="M928.78,588.3h57.53c-0.62,10.29-3.4,20.31-8.15,29.41L928.78,588.3z"/><path fill="#ff5e8b" d="M844.85,631.6c-12.89-13.66-19.94-31.34-19.94-50.25c0-39.05,30.75-71.09,69.41-73.39v71.61L844.85,631.6z
					"/><path fill="#eae6ff" d="M977.24,295.25H351.68c-5,0-9.05-4.05-9.05-9.05l0,0c0-5,4.05-9.05,9.05-9.05h625.56c5,0,9.05,4.05,9.05,9.05
			l0,0C986.29,291.2,982.24,295.25,977.24,295.25z"/><path fill="#eae6ff" d="M581.36,323.62H351.81c-5.07,0-9.18,4.11-9.18,9.18v139.91c0,5.07,4.11,9.18,9.18,9.18h229.55
			c5.07,0,9.18-4.11,9.18-9.18V332.81C590.54,327.74,586.43,323.62,581.36,323.62z"/><path fill="#ff5e8b" d="M658.7,323.62h-26.24c-3.95,0-7.16,3.21-7.16,7.16v26.24c0,3.95,3.21,7.16,7.16,7.16h26.24
				c3.95,0,7.16-3.21,7.16-7.16v-26.24C665.86,326.83,662.65,323.62,658.7,323.62z"/><path fill="#ffb300" d="M658.7,382.48h-26.24c-3.95,0-7.16,3.21-7.16,7.16v26.24c0,3.95,3.21,7.16,7.16,7.16h26.24
				c3.95,0,7.16-3.21,7.16-7.16v-26.24C665.86,385.69,662.65,382.48,658.7,382.48z"/><path fill="#7a35c4" d="M658.7,441.34h-26.24c-3.95,0-7.16,3.21-7.16,7.16v26.24c0,3.95,3.21,7.16,7.16,7.16h26.24
				c3.95,0,7.16-3.21,7.16-7.16V448.5C665.86,444.55,662.65,441.34,658.7,441.34z"/><path fill="#eae6ff" d="M847.71,336.21H691.79c-1.24,0-2.24-1-2.24-2.24l0,0c0-1.24,1-2.24,2.24-2.24h155.92c1.24,0,2.24,1,2.24,2.24
			l0,0C849.95,335.21,848.95,336.21,847.71,336.21z"/><path fill="#eae6ff" d="M944.96,354.87H691.79c-1.24,0-2.24-1-2.24-2.24l0,0c0-1.24,1-2.24,2.24-2.24h253.17c1.24,0,2.24,1,2.24,2.24
			l0,0C947.2,353.87,946.2,354.87,944.96,354.87z"/><path fill="#eae6ff" d="M788.07,515.77H393.7c-2.15,0-3.9-1.75-3.9-3.9l0,0c0-2.15,1.75-3.9,3.9-3.9h394.37c2.16,0,3.9,1.75,3.9,3.9
			l0,0C791.97,514.02,790.22,515.77,788.07,515.77z"/><path fill="#eae6ff" d="M732.99,538.95H393.7c-2.15,0-3.9-1.75-3.9-3.9l0,0c0-2.15,1.75-3.9,3.9-3.9h339.28c2.15,0,3.9,1.75,3.9,3.9
			l0,0C736.89,537.2,735.14,538.95,732.99,538.95z"/><path fill="#eae6ff" d="M566.46,562.14H393.7c-2.15,0-3.9-1.75-3.9-3.9l0,0c0-2.15,1.75-3.9,3.9-3.9h172.76c2.15,0,3.9,1.75,3.9,3.9
			l0,0C570.36,560.39,568.62,562.14,566.46,562.14z"/><path fill="#eae6ff" d="M702.36,585.32H393.7c-2.15,0-3.9-1.75-3.9-3.9l0,0c0-2.16,1.75-3.9,3.9-3.9h308.66c2.15,0,3.9,1.75,3.9,3.9
			l0,0C706.26,583.57,704.52,585.32,702.36,585.32z"/><path fill="#eae6ff" d="M788.07,608.51H393.7c-2.15,0-3.9-1.75-3.9-3.9l0,0c0-2.16,1.75-3.9,3.9-3.9h394.37c2.16,0,3.9,1.75,3.9,3.9
			l0,0C791.97,606.76,790.22,608.51,788.07,608.51z"/><path fill="#eae6ff" d="M761.06,631.69H393.7c-2.15,0-3.9-1.75-3.9-3.9l0,0c0-2.15,1.75-3.9,3.9-3.9h367.36c2.16,0,3.9,1.75,3.9,3.9
			l0,0C764.96,629.94,763.21,631.69,761.06,631.69z"/><path fill="#eae6ff" d="M658.76,654.88H393.7c-2.15,0-3.9-1.75-3.9-3.9l0,0c0-2.15,1.75-3.9,3.9-3.9h265.06c2.16,0,3.9,1.75,3.9,3.9
			l0,0C662.66,653.13,660.92,654.88,658.76,654.88z"/><path fill="#eae6ff" d="M984.05,395.67H691.79c-1.24,0-2.24-1-2.24-2.24l0,0c0-1.24,1-2.24,2.24-2.24h292.26c1.24,0,2.24,1,2.24,2.24
			l0,0C986.29,394.67,985.29,395.67,984.05,395.67z"/><path fill="#eae6ff" d="M885.14,414.33H691.79c-1.24,0-2.24-1-2.24-2.24l0,0c0-1.24,1-2.24,2.24-2.24h193.35c1.24,0,2.24,1,2.24,2.24
			l0,0C887.38,413.33,886.37,414.33,885.14,414.33z"/><path fill="#eae6ff" d="M953.93,455.13H691.79c-1.24,0-2.24-1-2.24-2.24l0,0c0-1.24,1-2.24,2.24-2.24h262.14c1.24,0,2.24,1,2.24,2.24
			l0,0C956.17,454.13,955.17,455.13,953.93,455.13z"/><path fill="#eae6ff" d="M803.65,473.79H691.79c-1.24,0-2.24-1-2.24-2.24v0c0-1.24,1-2.24,2.24-2.24h111.86c1.24,0,2.24,1,2.24,2.24v0
			C805.88,472.79,804.88,473.79,803.65,473.79z"/><path fill="#eae6ff" d="M370.43,507.96h-22.76c-2.79,0-5.05,2.26-5.05,5.05v136.82c0,2.79,2.26,5.05,5.05,5.05h22.76
			c2.79,0,5.05-2.26,5.05-5.05V513.01C375.48,510.22,373.22,507.96,370.43,507.96z"/><path fill="#6542bd" d="M1277.44,870.42H86.56c-1.66,0-3-1.34-3-3s1.34-3,3-3h1190.87c1.66,0,3,1.34,3,3
				S1279.09,870.42,1277.44,870.42z"/><path fill="#6542bd" d="M1070.01,905.47H656.89c-1.66,0-3-1.34-3-3s1.34-3,3-3h413.12c1.66,0,3,1.34,3,3
				S1071.67,905.47,1070.01,905.47z"/><path fill="#6542bd" d="M381.73,905.47h-90.66c-1.66,0-3-1.34-3-3s1.34-3,3-3h90.66c1.66,0,3,1.34,3,3S383.39,905.47,381.73,905.47z
				"/><path fill="#ffd8b5" d="M524.08,548.21l-4.23,22.2c14.78,4.33,38.33-24.82,52.92-40.4l-6.36-6.14L524.08,548.21z"/><polygon fill="#fff" points="533.05 543.06 538.64 539.84 541.2 543.01 539.65 546.62 544.19 546.96 548.96 555.28 544.04 559.76"/><path fill="#ff7da1" d="M453.62,551.35c17.88,11.18,53.36,32.33,62.73,30.19c13.41-3.06,5.92-22.45,5.92-22.45
				c-11.36-8.68-30.52-25.02-45.98-38.24C466.06,512.09,444.58,545.7,453.62,551.35z"/><path fill="#ff7da1" d="M517.89,580.88l-5.64-29.04l21.53-9.51l10.86,17.3C537.42,565.8,526.17,578.14,517.89,580.88z"/><path fill="#6b2e00" d="M424.65,449.8l45.34,1.45c3.46,25.15,10.32,37.29,7.97,55.52c-0.27-1.01-0.77-3.88-1.88-4.77
				c0.79,6.25-1.45,10.69-2,11.02c-5.34,3.27-33.53,3.93-49.23,0.77c-3.19-0.64-4.26-7.09-4.26-7.09c-0.35,1.79-0.43,4.17,0.3,6.41
				c-0.92,0.08-5.03-0.83-5.99-2.9C411.05,501.91,416.27,457.13,424.65,449.8z"/><path fill="#6b2e00" d="M419.74,459.41c-1.51,4.25-2.83,8.57-3.95,12.94c-1.15,4.36-2.11,8.78-2.94,13.21
				c-0.8,4.43-1.6,8.94-1.42,13.52c0.08,2.28,0.43,4.57,1.15,6.75c0.75,2.14,1.83,4.28,3.64,5.68c-1.6-1.6-2.5-3.72-3.03-5.86
				c-0.56-2.15-0.76-4.37-0.75-6.58c0.03-4.44,0.86-8.85,1.68-13.27C415.74,476.96,417.7,468.2,419.74,459.41z"/><path fill="#ffc896" d="M583.62,617.61c0.46-0.87-3.94-5.74-6.32-7.56c-2.38-1.82-9.86-5.57-9.86-5.57l-5.05,6.26
				c4.35-1.14,11.82,1.26,12.32,2.04C574.86,612.99,582.48,619.76,583.62,617.61z"/><path fill="#ffc896" d="M573.41,618.92c1.12-0.81-1.2-2.73-3.06-4.39c-1.86-1.66-6.27-1.51-6.35-2.43
				c-0.16-2.12,5.36-2.98,9.21-3.51c7.18,0.35,10.32,4.64,14.03,3.46c2.64-0.84-5.99-5.81-10.23-7.88
				c-4.68-2.29-7.36-2.13-10.37-2.95c-4.11-1.12-9.65,1.62-16.36,4.95l0.72,9.38c5.76,3.37,12.75,0.47,18.38,3.13
				C570.84,619.35,572.29,619.72,573.41,618.92z"/><path fill="#ffc896" d="M542.07,817.73l-14.29-7.62c3.9-27.03-8.68-107.04,17.68-142.3c0.29-0.39-2.62-25.77,23.39-9.57
			C588.59,693.12,546.45,776.28,542.07,817.73z"/><path fill="#ffc896" d="M567.48,657.14c-0.69,6.28,9.98,26.57,2.71,26.55c-36.73-0.11-94.86,35.08-141.67,12.17
			c-20.34-9.96-25.15-27.52-10.77-41.45C452.21,639.6,553.11,637.73,567.48,657.14z"/><path fill="#ffd8b5" d="M611.36,809.17l-16.87,3.58c-9.97-38.03-65.8-82.24-62.88-136.91c0.03-0.49,19.7-18.66,34.18-1.66
				C587.56,699.76,593.76,771.41,611.36,809.17z"/><path fill="#ffd8b5" d="M566.96,676.03c-2.07,5.97,2.87,26.93-4.2,25.27c-35.75-8.4-139.86,25.56-146.85-35.1
				c-0.75-6.48-0.15-16.34,1.5-17.78c4.93-4.34,20.26,11.71,33.08,3.95C451.78,651.63,551.32,650.72,566.96,676.03z"/><path fill="#869917" d="M535.14,643.84c1.53,10.52,1.89,20.27-5.17,22.01c-3.22,0.79-5.92,0.72-6.87-0.16
				c0.19,1.13,0.33,2.2,0.39,3.22c0.66,10.58-5.43,15.51-10.42,16.99c-2.02,0.6-3.85,0.65-5,0.27c0.12,1.17,0.18,2.29,0.19,3.36
				c0.08,6.97-1.97,11.86-4.28,15.14c-2.9,4.12-6.23,5.7-6.23,5.7c0.08,0.46,0.14,0.92,0.2,1.36c1.32,11.72-7.19,18.8-13.21,21.59
				c-0.6-6.06-12.71-11.72-26.74-18.2c-0.48-0.22-0.97-0.45-1.45-0.67c-0.01,0-0.03-0.01-0.05-0.02c-0.86-0.4-1.73-0.8-2.6-1.21
				c-14.07-6.53-29.11-13.97-36-23.5c-17.19-23.74-6.83-40.91-6.83-40.91l54.11-17.53l10.25-3.32
				C485.78,638.47,506.88,640.16,535.14,643.84z"/><path fill="#d4e0ab" d="M481.29,641.38c0,0-4.89,19.77-35.35,22.48c-28.92,2.58-8.82,40.15,7.96,49.37
				c-14.07-6.53-29.11-13.97-36-23.5c-17.19-23.74-6.83-40.91-6.83-40.91l54.11-17.53L481.29,641.38z"/><path fill="#d4e0ab" d="M503.98,704.67c-2.9,4.12-6.23,5.7-6.23,5.7c0.08,0.46,0.14,0.92,0.2,1.36
				c-6.19-8.26-26.08-20.83-34.8-23.35C468.84,689.79,490.82,695.62,503.98,704.67z"/><path fill="#d4e0ab" d="M529.97,665.85c-3.22,0.79-5.92,0.72-6.87-0.16c0.19,1.13,0.33,2.2,0.39,3.22
				c-8.28-6.19-18.67-12.07-24.33-13.7C503.56,656.29,517.7,660.03,529.97,665.85z"/><path fill="#d4e0ab" d="M513.06,685.9c-2.02,0.6-3.85,0.65-5,0.27c0.12,1.17,0.18,2.29,0.19,3.36
				c-9.22-5.67-22.92-12.05-30.69-12.97C486.03,677.12,500.71,680.25,513.06,685.9z"/><path fill="#d4e0ab" d="M456.55,714.45c0.59,0.22,1.06,0.44,1.45,0.67C457.53,714.91,457.03,714.68,456.55,714.45z"/><path fill="#ffd8b5" d="M487.02,570.13c-8.89,21.93-12.86,35.65-9.91,51.2c2.09,11.19,10.24,21.29,10.24,21.29
			c-8.85,13.65-21.05,3.03-36.39,5.1c-15.42-1.29-25.85-5.58-38.49-3.68c0,0,8.06-10.02,9.58-21.3
			c2.15-15.68-10.85-29.73-16.71-52.66c-6.75-26.44-1.97-34.92,6.5-41.1c6.19-4.51,14.08-8.65,18.34-10.12
			c1.16-0.41,1.96-0.71,2.26-0.93l4.57-0.09l9.9-0.18l14.47-0.47c8.64,3.05,9.88,5.23,9.88,5.23S491.64,558.7,487.02,570.13z"/><path fill="#ffd8b5" d="M462.44,519.82c-8.24,1.99-16.58,1.75-25.04-0.97c-1.27-0.4-2.54-0.87-3.81-1.39
			c3.77-1.8,7.48-8.76,7.43-18.21l7.55,2.58l8.96,0.74c-0.69,1.91-0.81,3.93-0.57,5.91c0.09,0.75,0.24,1.5,0.43,2.22
			c0.42,1.62,1.04,3.16,1.75,4.53c0.62,1.19,1.31,2.25,1.99,3.12C461.57,518.93,462.02,519.42,462.44,519.82z"/><path fill="#f0d0b2" d="M452.86,516.45c-6.16,0.32-9.71-8.19-9.49-13.27l14.15,4.73c0.48,1.57-0.17,3.47,0.52,4.76
			C458.64,513.8,455.59,516.31,452.86,516.45z"/><path fill="#ff5e8b" d="M489.89,637.4c1.32,1.16-2.43,13.45-30.16,18.42c-0.28,0.05-0.56-0.02-0.83-0.04l-0.02,0
			c-0.3-0.02-0.6-0.03-0.9-0.05c-24.86-1.34-47.7-8.19-47.7-8.19c13.97-15.97,0.18-62.41,0.18-62.41
			c-18.61-33.32-8.27-55.96,6.74-61.3c5.48-1.95,15.23-5.91,15.23-5.91s12.75,18.63,21.28,17.47c8.52-1.16,7.66-18.21,7.66-18.21
			c5.36,0.09,9.88,0.98,13.31,2.42c0,0,12.47,16.17,15.95,30.87c4.85,20.47-7.48,47.25-10.39,63.94
			C477.33,631.12,489.89,637.4,489.89,637.4z"/><path fill="#db9a9a" d="M458.01,653.7c0.32-0.04,0.6-0.05,0.83-0.05C458.56,653.67,458.28,653.69,458.01,653.7z"/><path fill="#2e1a6b" d="M545.02,863.21c-3.95-1.1-9.27-5.4-8.73-12.54c0.97-12.95-8.44-21.04-11.53-20.42
									c-3.9,2.43-5.32,17.02-5.41,25.98l-7.03-1.76c0.58-1.49,4.7-12.79,5.56-21.35c0.12-1.23,0.23-2.39,0.31-3.43l0.01-0.04
									c0.13-1.84,0.25-3.32,0.28-4.33c0.19-5.54,3.04-11.66,3.04-11.66c0.02,0.05,7.8,1.39,7.82,1.44
									c4.95,4.27,12.5,9.41,17.27,19.39c0.9,1.89,1.57,4.18,2.8,6.4c5.19,9.22,15,17.76,14.54,22.41
									C563.38,869.08,552.71,865.36,545.02,863.21z"/><path fill="#ffc896" d="M553.6,847.53c-16.61,11.28-12.25-8.05-23.69-17.65c-5.41-4.54-9.83-10.11-9.54-13.32
				c2.38-8.63,7.11-10.51,7.68-33.39c0,0,20.07,12.92,15.73,25.78C538.85,823.54,548.91,835.42,553.6,847.53z"/><path fill="#2e1a6b" d="M549.28,837.82c0,0-7.62,4.64-12.24,4.21l1.09,3.37c0,0,10.67-1.44,12.16-4.97L549.28,837.82z"/><path fill="#2e1a6b" d="M628.79,861.75c-4.1-0.07-10.33-2.89-11.61-9.94c-2.32-12.78-13.46-18.24-16.29-16.86
									c-3.17,3.34-0.9,18.27,1.27,26.96l-7.25,0.07c0.18-1.59,1.37-14.02,0.04-22.52c-0.19-1.23-0.38-2.37-0.57-3.4l0-0.04
									c-0.34-1.82-0.6-3.28-0.82-4.26c-1.21-5.41,0.01-12.05,0.01-12.05c0.04,0.04,7.9-0.62,7.93-0.58
									c5.87,2.89,14.47,5.96,21.59,14.42c1.35,1.6,2.57,3.65,4.32,5.49c7.35,7.62,18.99,13.41,19.71,18.03
									C648.04,862.8,636.77,861.89,628.79,861.75z"/><path fill="#ffd8b5" d="M633.15,844.41c-13.23,15.09-13.88-4.7-27.37-11.12c-6.38-3.04-12.06-7.31-12.58-10.49
				c0.13-8.95,4.24-11.96-0.96-34.25l19.12,20.62C611.36,809.17,624.39,834.74,633.15,844.41z"/><path fill="#2e1a6b" d="M626.53,836.11c0,0-6.21,6.41-10.79,7.16l1.91,2.99c0,0,9.97-4.08,10.52-7.87L626.53,836.11z"/><path fill="#d4e0ab" d="M461.9,688.08c0.38,0.07,0.78,0.17,1.22,0.3C462.5,688.22,462.08,688.13,461.9,688.08z"/><path fill="#d4e0ab" d="M497.9,654.9c0.38,0.07,0.78,0.17,1.22,0.3C498.51,655.04,498.09,654.94,497.9,654.9z"/><path fill="#d4e0ab" d="M475.05,676.47c0.74-0.06,1.59-0.02,2.52,0.09C476.65,676.5,475.81,676.47,475.05,676.47z"/><path fill="#ff7da1" d="M400.2,555.81c1.41,28.56,32.19,85.38,40.28,86.52c8.89,1.25,16.95-17.94,16.95-17.94
					c-11.12-38.29-24.3-72.85-30.93-84.14C414.01,519,395.54,536.68,400.2,555.81z"/><path fill="#ffd8b5" d="M542.22,643.26c0.55,0.91-3.9,6.37-6.35,8.46c-2.45,2.09-10.25,6.52-10.25,6.52l-5.76-6.42
					c4.72,0.98,12.59-2.01,13.08-2.87C533.09,648.7,540.88,641.02,542.22,643.26z"/><path fill="#ffd8b5" d="M531.2,642.44c1.24,0.8-1.13,3-3.03,4.88c-1.9,1.88-6.64,1.97-6.66,2.96c-0.06,2.28,5.91,2.9,10.07,3.24
					c7.68-0.77,10.8-5.55,14.84-4.49c2.87,0.75-6.1,6.56-10.53,9.02c-4.88,2.71-7.77,2.7-10.95,3.74
					c-4.34,1.43-10.44-1.2-17.81-4.39l0.24-10.09c5.98-3.93,13.64-1.22,19.52-4.38C528.43,642.12,529.96,641.63,531.2,642.44z"/><path fill="#ffd8b5" d="M456.38,621.8l-24.79,10.98c5.81,17.54,50.64,20.87,75.98,24.64l1.72-10.46L456.38,621.8z"/><polygon fill="#2e1a6b" points="461.67 663.03 496.06 662.97 578.47 662.57 598.28 599.53 515.88 599.93 497.48 658.14 461.65 658.2"/><path fill="#ccc" d="M497.51,662.97l80.96-0.4l19.82-63.04l-9.61,0.05C573.28,659.93,520.45,651.26,497.51,662.97z"/><path fill="#6b2e00" d="M476.94,465.98c0.59-18.88-18.74-33.66-32.91-25.86c-18.69-3.32-27.33,16.9-22.14,34
			c4.85,15.99,16.43,28.22,31.14,26.01C467.74,497.94,476.41,482.66,476.94,465.98z"/><path fill="#ffd8b5" d="M431.37,487.48c-0.69-2.17-1.66-7.74-4.25-8.35c-2.59-0.61-4.84,1.59-5.15,5.45s2.49,8.21,8.04,10.13
				C435.56,496.64,431.83,488.94,431.37,487.48z"/><path fill="#e6c9b3" d="M430.17,489.73c0.04-0.79-1.01-1.78-1.24-2.52c-0.69-2.19-0.13-5-1.85-5.17c-1.03-0.1-2.27,0.88-2.33,2.35
				c0.23-0.55,2.13-2.08,2.73-0.69c0.7,1.61,0.84,3.25,0.78,4.49c-0.01,0.32-0.75,1.47-0.82,1.71
				C427.02,491.16,430.06,492.09,430.17,489.73z"/><path fill="#ffd8b5" d="M476.58,474.85c2.61,17.42-8.32,33.87-20.21,35.25c-11.01,1.28-25.08-10.64-27.69-28.07
			c-2.61-17.42,5.99-33.16,19.22-35.14C461.12,444.9,473.97,457.42,476.58,474.85z"/><path fill="#6b2e00" d="M449.44,472.35c0,0-3.18-1.16-7.77,0.14c-1.92,0.54-5.41,2.29-7.8,4.44c0,0,0.27-0.94,1.55-2.07
				c4.57-4.03,11.15-5.14,13.52-3.74C449.47,471.44,449.44,472.35,449.44,472.35z"/><path fill="#6b2e00" d="M459.79,472.67c0,0,2.83-1.87,7.59-1.66c1.99,0.08,5.79,0.97,8.61,2.51c0,0-0.48-0.85-1.98-1.65
				c-5.38-2.86-12.04-2.42-14.02-0.51C459.54,471.79,459.79,472.67,459.79,472.67z"/><path fill="#e6c9b3" d="M456.05,479.01c0.43,1.35,0.95,2.61,1.59,3.82c0.32,0.6,0.65,1.19,1.03,1.76c0.18,0.29,0.37,0.57,0.57,0.84
				c0.19,0.27,0.45,0.61,0.6,0.96c0.35,0.7,0.42,1.64,0.01,2.37c-0.39,0.73-1.05,1.2-1.73,1.49c-1.38,0.57-2.87,0.55-4.24,0.24
				c1.4,0.05,2.81-0.14,3.99-0.76c0.57-0.31,1.08-0.75,1.31-1.29c0.24-0.54,0.18-1.14-0.11-1.67c-0.14-0.28-0.32-0.5-0.55-0.78
				c-0.23-0.28-0.44-0.57-0.64-0.87c-0.39-0.6-0.75-1.24-1.02-1.9C456.31,481.88,455.96,480.44,456.05,479.01z"/><path fill="#ff7da1" d="M467.59,627.13l-8.98,22.24c-4.37-1.22-24.64-5.54-27.03-16.59l24.9-11.88L467.59,627.13z"/><path fill="#fff" d="M460.62,516.32l9.54,1.86l-5.66,23.08l-9.37-3.82l-6.24,5.55l-22.84-22.51l8.16-3.81c0,0,10.3,16,19.35,15.71
			C460.68,532.16,460.62,516.32,460.62,516.32z"/><circle cx="457.14" cy="547.51" r="2.98" fill="#fff"/><circle cx="459.47" cy="560.77" r="2.98" fill="#fff"/><polygon fill="#fff" points="467.59 627.13 474.58 630.45 473.19 635.13 468.58 636.07 471.34 640.78 466.39 651.16 458.61 649.37"/><path fill="#943f27" d="M461.18,479.23c1,3.21,10,2.44,11.27,1.3c0.07-0.06,0.14-0.13,0.2-0.19c0.01,0,0.01-0.01,0.01-0.01
				c0.55-1.09,0.94-2.93,0.94-2.93s-1.82-1.53-2.77-1.94c-0.01,0-0.02-0.01-0.04-0.01c-0.24-0.09-1.16-0.46-2.38-0.64
				c-1.67-0.25-3.89-0.18-5.6,1.36c-0.2,0.18-1.36,1.22-1.72,2.57C461.11,478.9,461.14,479.06,461.18,479.23z"/><path fill="#fff" d="M461.04,480.05c0.43,2.33,3.78,3.45,6.11,3.39c0.23,0,0.89-0.04,1.71-0.28c0.77-0.21,1.66-0.61,2.5-1.33
				c0.11-0.09,0.53-0.45,0.96-0.97c0.12-0.14,0.23-0.32,0.34-0.53c0.01,0,0.01-0.01,0.01-0.01c0.55-1.09,0.94-2.93,0.94-2.93
				s-1.82-1.53-2.77-1.94c-0.01,0-0.02-0.01-0.04-0.01c-0.24-0.09-1.16-0.46-2.38-0.64c-1.67-0.25-3.89-0.18-5.6,1.36
				c-0.2,0.18-1.36,1.22-1.72,2.57C460.99,479.15,460.95,479.6,461.04,480.05z"/><ellipse cx="468.37" cy="478.71" fill="#b56953" rx="4.51" ry="4.54" transform="matrix(.0096 -1 1 .0096 -14.819 942.465)"/><ellipse cx="468.45" cy="478.55" fill="#2e130c" rx="2.78" ry="2.8" transform="rotate(-89.45 468.43 478.527)"/><circle cx="468.92" cy="477" r=".7" fill="#fff" transform="matrix(.0096 -1 1 .0096 -12.557 941.317)"/><circle cx="471.17" cy="478.36" r=".39" fill="#fff" transform="matrix(.0096 -1 1 .0096 -11.683 944.923)"/><path fill="#70301e" d="M461.1,478.74c0.36-1.35,1.52-2.4,1.72-2.57c1.71-1.54,3.93-1.61,5.6-1.36c1.22,0.19,2.14,0.55,2.38,0.64
				c0.02,0,0.03,0.02,0.04,0.01c0.95,0.4,2.77,1.94,2.77,1.94s-0.39,1.84-0.94,2.93c0.43-0.44,0.65-0.82,0.65-0.82
				c0.09-0.18,0.27-0.54,0.43-1c0.2-0.58,0.22-0.84,0.4-0.9c0.15-0.05,0.84,1.24,2.51,0.81c0.14-0.04,0.29-0.22,0.29-0.22
				c-0.66,0.21-1.84-0.47-3.24-1.97c-3.78-4.06-10.45-3.38-12.24,0.96C461.3,477.57,461.06,478.14,461.1,478.74z"/><g><path fill="#943f27" d="M449.43,478.8c-0.31,3.34-9.29,4.41-10.77,3.56c-0.08-0.05-0.16-0.1-0.24-0.14c-0.01,0-0.01-0.01-0.01-0.01
				c-0.76-0.95-1.53-2.68-1.53-2.68s1.46-1.87,2.31-2.46c0.01,0,0.02-0.01,0.04-0.02c0.21-0.14,1.04-0.68,2.2-1.11
				c1.58-0.58,3.78-0.96,5.76,0.2c0.23,0.13,1.58,0.92,2.21,2.17C449.44,478.46,449.44,478.63,449.43,478.8z"/><path fill="#fff" d="M449.74,479.57c0.06,2.37-2.99,4.14-5.28,4.56c-0.23,0.04-0.88,0.15-1.73,0.08
				c-0.79-0.05-1.75-0.26-2.72-0.8c-0.13-0.06-0.61-0.33-1.14-0.75c-0.14-0.11-0.29-0.26-0.44-0.45c-0.01,0-0.01-0.01-0.01-0.01
				c-0.76-0.95-1.53-2.68-1.53-2.68s1.46-1.87,2.31-2.46c0.01,0,0.02-0.01,0.04-0.02c0.21-0.14,1.04-0.68,2.2-1.11
				c1.58-0.58,3.78-0.96,5.76,0.2c0.23,0.13,1.58,0.92,2.21,2.17C449.61,478.68,449.73,479.11,449.74,479.57z"/><ellipse cx="444.7" cy="479.62" fill="#b56953" rx="4.51" ry="4.54" transform="matrix(.0096 -1 1 .0096 -39.17 919.702)"/><ellipse cx="444.59" cy="479.48" fill="#2e130c" rx="2.78" ry="2.8" transform="matrix(.0096 -1 1 .0096 -39.138 919.445)"/><circle cx="446.36" cy="477.69" r=".7" fill="#fff" transform="matrix(.0096 -1 1 .0096 -35.586 919.444)"/><circle cx="447.38" cy="479.89" r=".39" fill="#fff" transform="rotate(-89.45 447.36 479.87)"/><path fill="#70301e" d="M449.41,478.3c-0.63-1.25-1.98-2.04-2.21-2.17c-1.99-1.16-4.18-0.78-5.76-0.2
				c-1.15,0.43-1.98,0.97-2.2,1.11c-0.02,0.01-0.02,0.02-0.04,0.02c-0.85,0.59-2.31,2.46-2.31,2.46s0.77,1.72,1.53,2.68
				c-0.51-0.34-0.8-0.68-0.8-0.68c-0.13-0.16-0.38-0.47-0.63-0.89c-0.31-0.52-0.38-0.77-0.57-0.8c-0.16-0.02-0.57,1.39-2.29,1.3
				c-0.15-0.01-0.32-0.15-0.32-0.15c0.69,0.07,1.7-0.84,2.76-2.59c2.87-4.74,9.53-5.43,12.18-1.54
				C448.98,477.2,449.32,477.71,449.41,478.3z"/></g><g><path fill="#6b2e00" d="M428.05,455.81c4.32-9.5,17.01-15.97,29.29-13.47c17.16,3.49,21.37,18.43,19.3,34.27
				c-3.89-12.18-8.63-24.31-20.7-27.52c-6.94,15.12-24.3,14.73-25.77,37.38C430.17,486.47,423.31,465.38,428.05,455.81z"/><path fill="#6b2e00" d="M455.52,448.42c2.87,1.41,5.35,3.31,7.47,5.48c2.11,2.18,3.88,4.63,5.36,7.21c1.5,2.58,2.71,5.3,3.77,8.07
				c1.04,2.78,1.93,5.62,2.7,8.5c-0.38-2.95-1.02-5.88-1.94-8.73c-0.91-2.86-2.11-5.64-3.62-8.28c-1.53-2.63-3.38-5.13-5.68-7.26
				C461.3,451.26,458.56,449.5,455.52,448.42z"/></g><g><path fill="#fff" d="M450.31,496.08c-0.03,1.44,0.55,2.77,1.54,3.76c1.06,1.07,2.59,1.76,4.3,1.8c1.84,0.04,3.49-0.68,4.61-1.84
					c0.89-0.93,1.45-2.13,1.48-3.46c0.07-3-3.81-0.82-6.04-0.87C454.34,495.42,450.38,493.08,450.31,496.08z"/><path fill="#fff" d="M451.85,499.84c1.06,1.07,2.59,1.76,4.3,1.8c1.84,0.04,3.49-0.68,4.61-1.84c-0.88-0.91-2.48-1.54-4.31-1.58
					C454.46,498.17,452.71,498.83,451.85,499.84z"/></g><path fill="#ffd8b5" d="M571.92,513.69c4.33-1.45-0.32,7.09,1.53,7.53c5.81,1.38,17.28-11.54,17.7-6.34
			c1.14,14.17-18.78,18.47-23.08,18.14l-3.63-6.55C564.43,526.47,568.53,514.83,571.92,513.69z"/><g><path fill="#ffb300" d="M1157.59,828.85v33.3c-0.53,0.43-1.07,0.86-1.64,1.27H941.39c-0.56-0.43-1.09-0.84-1.6-1.27v-33.3H1157.59z"/><path fill="#999" d="M957.84,828.85v34.56h-16.45c-0.56-0.43-1.09-0.84-1.6-1.27v-33.3H957.84z"/><path fill="#efe4d3" d="M1157.59,828.85v33.3c-0.53,0.43-1.07,0.86-1.64,1.27h-30.55v-34.56H1157.59z"/><ellipse cx="1048.68" cy="828.36" fill="#ffc943" rx="108.79" ry="34.75"/><path fill="#ffb300" d="M1116.16,807.41h-0.02c-10.9-3.66-24.65-6.43-40.09-7.93c-8.67-0.88-17.86-1.32-27.38-1.32
					c-9.93,0-19.49,0.49-28.47,1.42l-0.04,0.02c-25.22,2.57-45.8,8.51-56.72,16.18c-0.02,0.02-0.04,0.04-0.06,0.04
					c-5.41,3.82-8.43,8.06-8.43,12.54c0,0.16,0,0.33,0.02,0.49c0.08,1.66,0.56,3.27,1.44,4.83c0.39,0.74,0.88,1.44,1.44,2.14
					c3.41,4.32,9.7,8.28,18.19,11.63c17.19,6.78,43.35,11.12,72.63,11.12c6.74,0,13.3-0.23,19.63-0.68h0.02
					c23.5-1.6,43.74-6.06,57.09-12.19c5-2.3,9.04-4.83,11.92-7.54h0.02c3.12-2.92,4.87-6.06,5.02-9.31
					c0.02-0.16,0.02-0.33,0.02-0.49C1142.39,820.22,1132.4,812.84,1116.16,807.41z M1125.89,841.43c-0.16,0.08-0.33,0.19-0.49,0.29
					c-9.89,5.88-26.11,10.5-45.72,12.91c-9.64,1.19-20.1,1.83-31.02,1.83c-27.34,0-51.76-4.05-67.75-10.42
					c-9.91-3.93-16.57-8.76-18.69-14.02c-0.43-1.05-0.66-2.1-0.72-3.17c-0.02-0.16-0.02-0.33-0.02-0.49c0-6.5,6.87-12.5,18.42-17.27
					c6.56-2.71,14.64-5.02,23.82-6.8c13.12-2.57,28.51-4.03,44.94-4.03c7.46,0,14.7,0.29,21.61,0.86
					c15.85,1.32,29.95,4.01,40.97,7.69c15.25,5.04,24.61,11.96,24.61,19.55c0,0.16,0,0.33-0.02,0.49
					C1135.61,833.39,1132.05,837.65,1125.89,841.43z"/><path fill="#efe4d3" d="M1116.16,807.41h-0.02c-10.9-3.66-24.65-6.43-40.09-7.93c-8.67-0.88-17.86-1.32-27.38-1.32
				c-9.93,0-19.49,0.49-28.47,1.42l-0.04,0.02c-25.22,2.57-45.8,8.51-56.72,16.18c-0.02,0.02-0.04,0.04-0.06,0.04
				c-5.41,3.82-8.43,8.06-8.43,12.54c0,0.16,0,0.33,0.02,0.49c0.08,1.66,0.56,3.27,1.44,4.83c0.39,0.74,0.88,1.44,1.44,2.14
				c3.41,4.32,9.7,8.28,18.19,11.63c17.19,6.78,43.35,11.12,72.63,11.12c6.74,0,13.3-0.23,19.63-0.68h0.02
				c23.5-1.6,43.74-6.06,57.09-12.19c5-2.3,9.04-4.83,11.92-7.54h0.02c3.12-2.92,4.87-6.06,5.02-9.31c0.02-0.16,0.02-0.33,0.02-0.49
				C1142.39,820.22,1132.4,812.84,1116.16,807.41z M1125.89,841.43c-0.16,0.08-0.33,0.19-0.49,0.29
				c-9.89,5.88-26.11,10.5-45.72,12.91c-9.64,1.19-20.1,1.83-31.02,1.83c-27.34,0-51.76-4.05-67.75-10.42
				c-9.91-3.93-16.57-8.76-18.69-14.02c-0.43-1.05-0.66-2.1-0.72-3.17c-0.02-0.16-0.02-0.33-0.02-0.49c0-6.5,6.87-12.5,18.42-17.27
				c6.56-2.71,14.64-5.02,23.82-6.8c13.12-2.57,28.51-4.03,44.94-4.03c7.46,0,14.7,0.29,21.61,0.86
				c15.85,1.32,29.95,4.01,40.97,7.69c15.25,5.04,24.61,11.96,24.61,19.55c0,0.16,0,0.33-0.02,0.49
				C1135.61,833.39,1132.05,837.65,1125.89,841.43z"/><path fill="#efe4d3" d="M1082.02,835.53c-3.6-2.98-12.07-4.99-25.31-6.68c-0.16-0.02-0.31-0.04-0.47-0.06v-12.33
				c9.17,0.1,15.95,1.07,19.36,1.67l3.97-3.76c-1.03-0.18-2.18-0.37-3.49-0.53c-4.77-0.66-11.41-1.19-19.84-1.23v-5h-11.72v5.35
				c-15.64,1.11-25.47,4.75-25.47,9.37c0,0.37,0.06,0.74,0.19,1.09c0.74,2.18,3.78,3.93,8.68,5.41c2.08,0.62,4.48,1.19,7.21,1.71
				c2.34,0.43,4.89,0.84,7.67,1.23c0.56,0.08,1.13,0.16,1.71,0.23v13.69c-9.31-0.12-18.05-1.13-24.15-2.34l-2.1,2.24l-1.52,1.64
				c5.51,1.19,16.01,2.14,26.05,2.26c0.56,0.02,1.15,0.02,1.71,0.02v5h11.72v-5.32c18.67-1.17,27.77-5.32,27.77-9.99
				C1084.01,837.84,1083.34,836.62,1082.02,835.53z M1069.34,839.6c0,2.69-4.71,4.73-13.11,5.63V833.6
				c5.74,0.97,9.41,2.01,11.35,3.29C1068.8,837.69,1069.34,838.57,1069.34,839.6z M1044.52,827.08c-7.2-1.31-10.67-2.75-10.94-4.97
				c-0.02-0.1-0.02-0.19-0.02-0.29c0-1.67,2.71-3.56,9.25-4.58c0.54-0.1,1.11-0.17,1.71-0.25V827.08z"/><path fill="#fff19c" d="M1082.02,835.53c-1.13-2.88-5.67-4.99-13.55-6.68c-3.43-0.76-7.52-1.42-12.23-2.04
				c-0.55-0.08-1.11-0.14-1.69-0.21v-12.35c9.17,0.12,15.93,1.09,19.36,1.69l2.18-2.08l1.77-1.69c-4.52-0.82-11.76-1.6-21.61-1.73
				c-0.56,0-1.13-0.02-1.69-0.02v-4.99h-11.74v5.35c-4.15,0.29-7.91,0.78-11.16,1.4c-3.49,0.66-6.43,1.5-8.7,2.47
				c-3.6,1.52-5.59,3.39-5.59,5.47c0,1.23,0.64,2.32,1.89,3.31c2.8,2.28,8.7,4.01,16.96,5.41c1.03,0.16,2.08,0.33,3.19,0.49
				c1.09,0.16,2.24,0.31,3.41,0.47v13.69c-9.31-0.1-18.05-1.11-24.15-2.32l-3.62,3.88c0.93,0.19,2.02,0.39,3.23,0.56
				c6.25,0.97,15.68,1.67,24.54,1.71v5h11.74V847c18.67-1.15,27.77-5.3,27.77-9.97C1082.31,836.5,1082.21,836.01,1082.02,835.53z
				 M1031.86,819.6c0-1.81,3.17-3.87,10.94-4.83v10.11c-4.48-0.82-7.52-1.69-9.23-2.76C1032.4,821.39,1031.86,820.57,1031.86,819.6z
				 M1054.54,831.4c8.65,1.46,12.56,3.08,13.05,5.49c0.02,0.16,0.04,0.33,0.04,0.51c0,2.47-4.07,4.44-11.39,5.43
				c-0.55,0.06-1.11,0.14-1.69,0.19V831.4z"/><path fill="#232323" d="M1088.98,795.79l-12.88,3.68l-119.69,34.21l-12.88,3.68c-2.38-2.87-3.64-5.88-3.64-9
				c0-2.17,0.6-4.28,1.77-6.34l21.7-6.21l0.03-0.01l56.79-16.22l21.7-6.2c2.26-0.06,4.52-0.07,6.78-0.07
				C1062.93,793.31,1076.53,794.19,1088.98,795.79z"/><path fill="#232323" d="M1157.46,828.36c0,0.16,0,0.33-0.02,0.49c-0.04,0.92-0.19,1.83-0.45,2.75c-0.12,0.35-0.23,0.7-0.37,1.05
				l-19.28,5.51h-0.02l-11.43,3.27l-0.49,0.14l-45.72,13.07l-11.37,3.25h-0.02l-18.25,5.24l-1.05,0.29h-0.33
				c-33.77,0-63.97-4.97-83.89-12.75l0.27-0.08l10.96-3.13h0.02l4.89-1.4l54.21-15.48l4.26-1.23l1.71-0.49l13.44-3.84l1.69-0.49
				l55.01-15.72l4.89-1.4h0.02l10.92-3.14l0.35-0.1c13.24,4.48,22.84,10.09,27.26,16.34c0.19,0.29,0.39,0.56,0.56,0.86
				c0.17,0.27,0.35,0.54,0.51,0.82c0.08,0.12,0.14,0.23,0.19,0.37c0.12,0.21,0.21,0.43,0.31,0.64c0.27,0.54,0.49,1.11,0.66,1.69
				c0.08,0.29,0.16,0.56,0.23,0.86C1157.36,826.61,1157.46,827.49,1157.46,828.36z"/></g><g><path fill="#ffb300" d="M1157.59,801.76v33.3c-7.03,5.83-18.13,10.95-32.18,14.93c-20.44,5.81-47.14,9.28-76.72,9.28
				c-37,0-69.47-5.43-90.84-14.07c-7.48-3.02-13.59-6.43-18.06-10.14v-33.31H1157.59z"/><path fill="#999" d="M957.85,801.76v43.45c-7.48-3.02-13.59-6.43-18.06-10.14v-33.31H957.85z"/><path fill="#efe4d3" d="M1157.59,801.76v33.3c-7.03,5.83-18.13,10.95-32.18,14.93v-48.23H1157.59z"/><ellipse cx="1048.68" cy="801.27" fill="#ffc943" rx="108.79" ry="34.75"/><path fill="#ffb300" d="M1048.67,771.08c-51.76,0-93.72,13.52-93.72,30.2c0,16.68,41.97,30.2,93.72,30.2
					c51.76,0,93.72-13.52,93.72-30.2C1142.39,784.6,1100.43,771.08,1048.67,771.08z M1048.67,829.37c-48.15,0-87.2-12.58-87.2-28.09
					c0-15.51,39.05-28.09,87.2-28.09c48.15,0,87.2,12.58,87.2,28.09C1135.87,816.79,1096.82,829.37,1048.67,829.37z"/><path fill="#efe4d3" d="M1048.67,771.08c-51.76,0-93.72,13.52-93.72,30.2c0,16.68,41.97,30.2,93.72,30.2
				c51.76,0,93.72-13.52,93.72-30.2C1142.39,784.6,1100.43,771.08,1048.67,771.08z M1048.67,829.37c-48.15,0-87.2-12.58-87.2-28.09
				c0-15.51,39.05-28.09,87.2-28.09c48.15,0,87.2,12.58,87.2,28.09C1135.87,816.79,1096.82,829.37,1048.67,829.37z"/><path fill="#efe4d3" d="M1084.01,812.15c0-5.2-9.37-8.12-27.77-10.44v-12.33c9.17,0.11,15.95,1.09,19.36,1.69l3.96-3.77
				c-4.76-0.87-12.59-1.69-23.32-1.75v-5h-11.73v5.35c-15.63,1.12-25.46,4.75-25.46,9.37c0,4.68,9.62,7.62,25.46,9.67v13.69
				c-9.31-0.11-18.06-1.12-24.15-2.33l-3.62,3.88c5.83,1.25,17.22,2.24,27.77,2.28v5h11.73v-5.32
				C1074.92,820.96,1084.01,816.82,1084.01,812.15z M1033.56,794.72c0-1.81,3.17-3.87,10.96-4.83v10.1
				C1037.01,798.63,1033.56,797.11,1033.56,794.72z M1056.24,818.14v-11.62c9.26,1.55,13.1,3.31,13.1,6
				C1069.34,815.19,1064.63,817.25,1056.24,818.14z"/><path fill="#fff19c" d="M1082.3,809.94c0-5.2-9.37-8.12-27.77-10.44v-12.34c9.17,0.11,15.95,1.09,19.36,1.69l3.96-3.77
				c-4.76-0.87-12.59-1.69-23.32-1.75v-5h-11.73v5.35c-15.63,1.12-25.46,4.75-25.46,9.37c0,4.68,9.62,7.62,25.46,9.67v13.69
				c-9.31-0.1-18.06-1.12-24.15-2.33l-3.62,3.88c5.83,1.25,17.22,2.24,27.77,2.28v5h11.73v-5.32
				C1073.21,818.76,1082.3,814.62,1082.3,809.94z M1031.85,792.52c0-1.81,3.17-3.87,10.96-4.83v10.1
				C1035.3,796.42,1031.85,794.9,1031.85,792.52z M1054.53,815.94v-11.62c9.26,1.55,13.1,3.31,13.1,6
				C1067.63,812.98,1062.92,815.04,1054.53,815.94z"/><path fill="#232323" d="M1088.98,768.71l-12.88,3.68L956.41,806.6l-12.88,3.68c-2.38-2.87-3.64-5.88-3.64-9
				c0-2.17,0.6-4.28,1.77-6.34l21.7-6.21l0.03-0.01l56.79-16.22l21.7-6.2c2.26-0.06,4.52-0.07,6.78-0.07
				C1062.93,766.23,1076.53,767.1,1088.98,768.71z"/><path fill="#232323" d="M1157.45,801.27c0,1.45-0.29,2.89-0.83,4.29l-19.29,5.52l-69.02,19.72l-19.32,5.52h-0.31
				c-33.78,0-63.98-4.96-83.9-12.75l11.25-3.22l140.13-40.04l11.28-3.23C1146.03,783.38,1157.45,791.9,1157.45,801.27z"/></g><g><path fill="#ffb300" d="M1146.23,776.7V810c-7.03,5.83-18.13,10.95-32.18,14.93c-20.44,5.81-47.14,9.28-76.72,9.28
				c-37,0-69.47-5.43-90.84-14.07c-7.48-3.02-13.59-6.43-18.06-10.14V776.7H1146.23z"/><path fill="#999" d="M946.49,776.7v43.45c-7.48-3.02-13.59-6.43-18.06-10.14V776.7H946.49z"/><path fill="#efe4d3" d="M1146.23,776.7V810c-7.03,5.83-18.13,10.95-32.18,14.93V776.7H1146.23z"/><ellipse cx="1037.33" cy="776.21" fill="#ffc943" rx="108.79" ry="34.75"/><path fill="#efe4ce" d="M1037.32,746.02c-51.76,0-93.72,13.52-93.72,30.2c0,16.68,41.97,30.2,93.72,30.2
				c51.76,0,93.72-13.52,93.72-30.2C1131.04,759.54,1089.07,746.02,1037.32,746.02z M1037.32,804.31c-48.15,0-87.2-12.58-87.2-28.09
				c0-15.51,39.05-28.09,87.2-28.09c48.15,0,87.2,12.58,87.2,28.09C1124.51,791.73,1085.47,804.31,1037.32,804.31z"/><path fill="#efe4d3" d="M1072.65,787.09c0-5.2-9.37-8.12-27.77-10.44v-12.33c9.17,0.11,15.95,1.09,19.36,1.69l3.96-3.77
				c-4.76-0.87-12.59-1.69-23.32-1.75v-5h-11.73v5.35c-15.63,1.12-25.46,4.75-25.46,9.37c0,4.68,9.62,7.62,25.46,9.67v13.69
				c-9.31-0.11-18.06-1.12-24.15-2.33l-3.62,3.88c5.83,1.25,17.22,2.24,27.77,2.28v5h11.73v-5.32
				C1063.56,795.9,1072.65,791.76,1072.65,787.09z M1022.2,769.66c0-1.81,3.17-3.87,10.96-4.83v10.1
				C1025.65,773.57,1022.2,772.05,1022.2,769.66z M1044.88,793.08v-11.62c9.26,1.55,13.1,3.31,13.1,6
				C1057.98,790.13,1053.27,792.19,1044.88,793.08z"/><path fill="#fff19c" d="M1070.95,784.88c0-5.2-9.37-8.12-27.77-10.44V762.1c9.17,0.11,15.95,1.09,19.36,1.69l3.96-3.77
				c-4.76-0.87-12.59-1.69-23.32-1.75v-5h-11.73v5.35c-15.63,1.12-25.46,4.75-25.46,9.37c0,4.68,9.62,7.62,25.46,9.67v13.69
				c-9.31-0.1-18.06-1.12-24.14-2.33l-3.62,3.88c5.83,1.25,17.22,2.24,27.77,2.28v5h11.73v-5.32
				C1061.86,793.7,1070.95,789.56,1070.95,784.88z M1020.5,767.46c0-1.81,3.17-3.87,10.96-4.83v10.1
				C1023.95,771.36,1020.5,769.84,1020.5,767.46z M1043.18,790.88v-11.62c9.26,1.55,13.1,3.31,13.1,6
				C1056.28,787.92,1051.57,789.99,1043.18,790.88z"/><path fill="#232323" d="M1077.62,743.65l-12.88,3.68l-119.69,34.21l-12.88,3.68c-2.38-2.87-3.64-5.88-3.64-9
				c0-2.17,0.6-4.28,1.77-6.34l21.7-6.21l0.03-0.01l56.79-16.22l21.7-6.2c2.26-0.06,4.52-0.07,6.78-0.07
				C1051.57,741.17,1065.17,742.04,1077.62,743.65z"/><path fill="#232323" d="M1146.1,776.21c0,1.45-0.29,2.89-0.83,4.29l-19.29,5.52l-69.02,19.72l-19.32,5.52h-0.31
				c-33.78,0-63.98-4.96-83.9-12.75l11.25-3.22l140.13-40.04l11.28-3.23C1134.68,758.32,1146.1,766.84,1146.1,776.21z"/></g><g><path fill="#2e1a6b" d="M958.03,775.05c-0.01-0.11,0.03-0.21,0.08-0.3c0.4-7.82,20.57-6.14,24.21-20.94
				c6.06-12.69,15.82,15.73,21.92-1.41c4.51-0.63,3.78,8.46,4.12,8.81c1.24,1.35,2.23,7.08,1.16,8.12
				c2.4,18.28-10.52,6.45-34.26,11.07C954.34,783.45,958.2,777.78,958.03,775.05z"/><path fill="#2e1a6b" d="M1059.18,753.51l22.53,1.43c0,0,11.35,20.78,4.79,26.43c-6.55,5.65-28.47,2.93-30.93-0.59
				C1051.37,774.75,1059.18,753.51,1059.18,753.51z"/><path fill="#7a35c4" d="M977.72,758.57c10.6,2.02,21.26,1.87,31.98,0l17.2-136.44L984,606.27
				C980.58,659.28,977.72,758.57,977.72,758.57z"/><path fill="#7a35c4" d="M982.81,635.41l41.59,4.83l22.79-147.27c0,0-56.81-11.61-59.31,11.38L982.81,635.41z"/><path fill="#d3cadb" d="M1026.9,527.62c-2.25,28.43-1.62,59.18,0.8,91.35l10.89-70.38C1032.42,538.84,1026.9,527.62,1026.9,527.62z
				"/><path fill="#7a35c4" d="M1051.52,759.78c11.11,1.74,25.88,1.24,37.71-0.92l-4.27-144.21l-46.87-9.39
				C1042.45,660.83,1051.52,759.78,1051.52,759.78z"/><path fill="#d3cadb" d="M1051.43,758.83c0.06,0.61,0.09,0.95,0.09,0.95c11.11,1.74,25.88,1.24,37.71-0.92l-1.7-57.29
				C1084.75,727.55,1076.22,758.41,1051.43,758.83z"/><path fill="#d3cadb" d="M1009.69,758.57l5.92-46.94c0,0-7.42,32.86-37.85,45.21c-0.03,1.13-0.05,1.73-0.05,1.73
				C988.31,760.58,998.98,760.44,1009.69,758.57z"/><path fill="#7a35c4" d="M1024.24,504.81l17.21,132.64l43.86-2.21l-0.91-46.55l0-0.09l-2.58-61.54l-1.42-13.24
				c0,0-11.49-36.11-26.01-41.06C1041.05,468.21,1023.84,493.19,1024.24,504.81z"/><path fill="#d3cadb" d="M1080.41,513.82c0,0-11.49-36.11-26.01-41.06c-8.95-3.05-19.62,7.16-25.57,17.73
				c-16.84-1.35-39.4-0.44-40.96,13.86l-0.6,15.64c9.87,2.72,30.55,7.74,40.37,5.23c0,0-0.29-11.22,2.19-15.19
				c0,0,1.22,16.95,7.12,17.39c4.68,0.35,33.27,0.14,44.89,0.04l-0.02-0.4L1080.41,513.82z"/><path fill="#ffd8b5" d="M995.13,404.88c-6.57,10.53-31.62,43.81-45.29,47.48c-6.94,1.87-25.79-15.47-40.17-30.1
			c-7.75-7.88-14.2-14.97-16.78-17.86c-0.81-0.9,7.06-10.46,7.06-10.46l20.08,14.03l25.27,17.66c0,0,22.99-31.32,33.29-40.79
			C994.15,370.53,1007.46,385.01,995.13,404.88z"/><polygon fill="#fff" points="908.73 423.01 902.82 418.27 910.18 408.81 915.5 409.98 913.31 405.09 914.84 403.51 921.11 408.54"/><path fill="#ffb300" d="M984.12,377.84c-7.13,5.24-18.62,19.9-26.09,29.98c-0.69,0.93-1.35,1.82-1.97,2.67
			c-3.26,4.45-10.43,12.8-10.43,12.8l2.29,32.19c11.46-2.71,37.14-20.71,50.36-31.76c3.53-2.96,6.33-5.61,7.95-7.67
			C1020.7,397.66,1001.18,365.35,984.12,377.84z"/><path fill="#ffb300" d="M945.64,423.28l-14.56-9.76l-10.28-6.61c-4.63,5.85-9.48,12.15-13.36,18.03
			c8.42,8.57,18.49,18.22,26.79,24.37c5.86,4.34,10.83,6.94,13.71,6.16L945.64,423.28z"/><path fill="#efe5cb" d="M994.2,425.25c-2.52,2.63-5.46,5.48-8.66,8.37c-13.17,9.66-29.22,19.86-37.62,21.86
			c-1.79,0.48-4.4-0.36-7.54-2.11c13.81,1.67,35.14-16.76,35.26-25.9c0.14-12.63,6.19-27.16,6.19-27.16l5.14-1.45
			C988.15,400.38,992.01,413.32,994.2,425.25z"/><path fill="#fff" d="M1085.21,412.42c-1.87,6.68-4.03,14.19-5.26,24.05c-0.35,2.8-0.67,5.61-0.96,8.43h-92.73
			c-2.51-32.49-6.4-62.19,2.17-69.24c2.69-2.21,7.28-3.3,14.58-5.19c7.31-1.89,16.47-2.89,22.88-3.32
			c6.77-0.47,13.59,1.24,20.37,0.89c2.07-0.1,11.2,0.94,20.38,3.24c9.94,2.49,19.94,6.46,21.09,12.03
			C1090.03,394.55,1087.93,402.61,1085.21,412.42z"/><path fill="#2e1a6b" d="M1036.74,386.66l-3.32,0.38l-3.32,0.38c-4.45,17.04-5.8,58.23-3.48,77.13l11.81,14.35l9.97-17.04
			C1040.34,432.04,1036.37,402.52,1036.74,386.66z"/><path fill="#ffb300" d="M1080.56,437.57c-3.39,27.02-4.76,53.84,2.17,80.39c-13.35,2.45-25.95,3.96-38.11,4.53
			c-3.26,0.15-6.48,0.23-9.68,0.26c-2.72-5.6-4.11-16.21-4.51-23.95c-3.91,6.07-5.33,17.4-5.34,23.79
			c-6.92-0.27-13.75-0.87-20.53-1.79c-6.93-0.94-13.82-2.21-20.73-3.83c4.31-15.23,4.48-37.58,3.44-57.13
			c-0.01-0.19-0.02-0.36-0.03-0.52c-0.02-0.34-0.04-0.68-0.06-1.02c-0.01-0.23-0.02-0.36-0.02-0.36
			c-2.16-37.24-11.61-72.27,1.28-82.26c1.82-1.42,7.05-3.8,12.51-5.26c2.81-0.76,5.67-1.26,8.18-1.26
			c9.34,18.57,21.72,54.24,21.72,54.24l29.59-53.62c2.26,0.19,4.74,0.66,7.27,1.35c9.29,2.5,18.35,6.66,20.22,11.54
			c4.12,10.71,0.5,20.8-2.22,30.6C1083.84,419.95,1081.8,427.7,1080.56,437.57z"/><path fill="#999" d="M1067.7,371.12l-36.92,67.12l-29.83-67.83c2.81-0.76,5.67-1.26,8.18-1.26
			c9.34,18.57,21.72,54.24,21.72,54.24l29.59-53.62C1062.69,369.96,1065.17,370.43,1067.7,371.12z"/><path fill="#ffb300" d="M1025.69,367.16c-3.32-0.32-7.45,0.08-11.41,1.2l10.08,14.07l9.14-3l9.03,3.89l15.01-13.88
			c-3.32-1.09-7.88-1.53-11.16-1.37c0,0-4.48,9.83-12.4,9.83S1025.69,367.16,1025.69,367.16z"/><polygon fill="#2e1a6b" points="1027.54 381.39 1030.13 387.84 1036.75 387.84 1039.41 381.97 1033.88 378.78"/><path fill="#efe5cb" d="M951.74,415.99c-0.97,3.75-5,7.4-5.34,13.72c0,0-4.96-5.35-12.42-14.26l11.66,7.82
			C945.64,423.28,948.71,419.71,951.74,415.99z"/><path fill="#ffd8b5" d="M1129.57,462.31c-0.22,7.18-20.38,22.52-38.54,32.04c-9.79,5.14-23.54,12.08-27.05,13.72
			c-1.1,0.51-2.88-12.62-2.88-12.62l19.24-15.15l24.22-19.07C1104.56,461.22,1130.01,448.16,1129.57,462.31z"/><polygon fill="#fff" points="1091.47 495.46 1085.23 499.74 1078.3 489.96 1080.97 485.2 1075.65 485.88 1074.58 483.97 1081.21 479.42"/><path fill="#ffb300" d="M1070.08,410.22c2.95,8.35,13.65,23.58,21.13,33.65c0.69,0.93,1.35,1.82,1.98,2.66
			c3.31,4.41,9.23,13.69,9.23,13.69l28.95,4.75c0.72-11.75-16.64-59.05-28.81-74.03c-3.59-4.42-11.76-12.15-24.7-16.27
			C1066.8,371.15,1070.08,410.22,1070.08,410.22z"/><path fill="#ffb300" d="M1102.42,460.21l-13.56,11.11l-9.31,7.92c4.26,6.13,8.88,12.59,13.39,18.02
			c10.64-5.57,20.27-14.8,28.56-20.96c5.86-4.35,9.78-8.35,9.87-11.33L1102.42,460.21z"/><path fill="#efe5cb" d="M1097.22,452.27c3.31,2.02,5.63,6.93,11.59,9.08c0,0-6.55,3.2-17.25,7.76l10.86-8.9
			C1102.42,460.21,1099.9,456.24,1097.22,452.27z"/><path fill="#efe5cb" d="M983.84,516.96c4.31-15.23,4.48-37.58,3.44-57.13c0.59,8.55,3.79,46.46,17.29,60.96
			C997.64,519.86,990.75,518.58,983.84,516.96z"/><path fill="#ffc896" d="M1046.26,368.04c-0.66,3.67-7.1,8.37-7.1,8.37c-6.87,4.65-14.03-0.6-13.42-8.74l1.98-12.67l0.52-3.25
				l13.34-2.55L1046.26,368.04z"/><path fill="#ffd8b5" d="M1064.37,331.18c-1.27-2.08-3.86-1.81-6.06-1.07c-2.04,0.68-3.3,2.21-3.14,3.88
						c0.4,4.04-2.96,7.92-4.16,11.95C1065.47,346.88,1066.81,335.18,1064.37,331.18z"/><path fill="#edcdb9" d="M1061.79,334.08c-0.99-0.48-2.52-0.49-3.17,0.26c-0.29,0.33,0.33,0.72,0.68,0.41
						c0.27-0.24,0.73-0.32,1.14-0.17c0.36,0.13,0.64,0.47,0.78,0.74c0.42,0.81-0.21,1.68-0.71,2.35c-0.5,0.67-1.13,1.3-1.84,1.85
						c-0.76,0.59-1.74,0.98-2.5,1.56c-0.72,0.55,0.33,1.57,1.28,1.26c0.73-0.24,1.31-0.68,1.86-1.08c0.51-0.38,0.98-0.79,1.41-1.22
						c0.88-0.88,1.66-1.88,2.06-2.95C1063.16,336.14,1063.12,334.73,1061.79,334.08z"/><path fill="#ffd8b5" d="M1059.69,327.19c-2.27,19.28-14.8,38.06-31.99,36.04c-16.29-1.92-25.26-23.24-22.99-42.52
						c2.27-19.28,16.43-33.46,31.61-31.67C1051.5,290.83,1061.96,307.91,1059.69,327.19z"/><path fill="#6b2e00" d="M1005.04,331.29c0,0,0.04-6.92,2.72-12.5c1.3-2.71,1.83-6.81,1.83-6.81c0.41,1.36-0.01,5.05-0.01,5.05
						c2.99-2.36,2.16-9.74,9.89-13.06c5.23-2.25,23,4.41,28.41,4.84s9.22-6.67,7.41-15.04c-1-4.61-14.15-13.98-30.2-11.75
						c0,0,2.8,0.8,3.62,1.72c-1.87-1.38-20.52-1.92-27.29,15.61l2.81-0.95c-0.76,0.86-4.13,6.88-3.79,11.5l2.55-2.74
						C1002.98,307.16,998.88,320.57,1005.04,331.29z"/><path fill="#6b2e00" d="M1054.54,295.25l-3.88,13.08c0,0-1.12,9.18,2.85,17.89l1.19-3.23c1.08-0.47,2.02,11.43,0.7,15.28
						c3.2-1.28,9.09-9.68,7.78-19.14c0.49,1.54,1.29,2.6,1.17,4.41C1066.25,321.07,1072.85,299.37,1054.54,295.25z"/><path fill="#33160e" d="M1022.17,331.62c0,0-2.45,2.92-7.41,3.18c-3.47,0.18-6.53-2.64-6.51-4.19c0.04-2.26,2-6.36,7.28-5.4
								C1020.03,326.04,1022.17,331.62,1022.17,331.62z"/><path fill="#f7f7f7" d="M1022.17,331.62c0,0-2.47,3.27-7.43,3.53c-3.47,0.18-6.53-2.64-6.51-4.19
								c0.04-2.26,2.05-5.75,7.32-4.77C1019.65,326.96,1022.17,331.62,1022.17,331.62z"/><circle cx="1013.24" cy="330.85" r="4.09" fill="#a65b00"/><circle cx="1013.24" cy="330.85" r="3.2" fill="#33160e"/><circle cx="1012.32" cy="329.24" r=".67" fill="#f7f7f7"/><circle cx="1011.31" cy="330.31" r=".34" fill="#f7f7f7"/><path fill="#6b2e00" d="M1019.94,323.72c-0.67-0.64-1.52-1.22-2.37-1.63c-0.86-0.42-1.77-0.7-2.69-0.78
							c-0.92-0.1-1.87,0.02-2.76,0.35c-0.92,0.29-1.74,0.88-2.55,1.51l-0.03,0.02c-0.16,0.13-0.37,0.07-0.48-0.12
							c-0.1-0.18-0.06-0.43,0.09-0.56c0.82-0.74,1.7-1.46,2.7-1.86c0.98-0.45,2.05-0.67,3.1-0.64c1.05,0.02,2.1,0.25,3.09,0.64
							c1,0.41,1.91,0.92,2.83,1.68c0.33,0.27,0.41,0.82,0.17,1.22c-0.23,0.4-0.69,0.5-1.02,0.23c-0.01-0.01-0.03-0.02-0.04-0.03
							L1019.94,323.72z"/><path fill="#33160e" d="M1033.93,332.14c0,0,2.24,3.08,7.18,3.68c3.45,0.42,6.7-2.19,6.78-3.73c0.12-2.25-1.56-6.48-6.89-5.88
								C1036.45,326.71,1033.93,332.14,1033.93,332.14z"/><path fill="#f7f7f7" d="M1033.93,332.14c0,0,2.24,3.43,7.17,4.03c3.45,0.42,6.7-2.19,6.78-3.73c0.12-2.25-1.65-5.88-6.98-5.26
								C1036.76,327.66,1033.93,332.14,1033.93,332.14z"/><circle cx="1039.98" cy="331.74" r="4.09" fill="#a65b00"/><circle cx="1039.98" cy="331.74" r="3.2" fill="#33160e"/><circle cx="1041.01" cy="330.19" r=".67" fill="#f7f7f7"/><circle cx="1041.94" cy="331.32" r=".34" fill="#f7f7f7"/><path fill="#6b2e00" d="M1036.7,324.41c0.71-0.59,1.6-1.11,2.47-1.47c0.89-0.36,1.81-0.57,2.74-0.6
							c0.93-0.04,1.86,0.14,2.73,0.54c0.89,0.35,1.68,1,2.44,1.68l0.03,0.02c0.15,0.14,0.37,0.1,0.48-0.09
							c0.11-0.18,0.09-0.42-0.05-0.56c-0.77-0.79-1.59-1.57-2.57-2.04c-0.95-0.52-1.99-0.81-3.05-0.85
							c-1.05-0.06-2.11,0.1-3.12,0.43c-1.02,0.34-1.97,0.79-2.94,1.48c-0.35,0.25-0.46,0.79-0.26,1.21c0.21,0.42,0.66,0.55,1.01,0.3
							c0.01-0.01,0.03-0.02,0.04-0.03L1036.7,324.41z"/><path fill="#edcdb9" d="M1027,338.26c0.65-2.04,2.36-6.88,1.53-10.76c-0.48,6.43-2.27,7.29-3,9.69c-1.45,4.75,2.36,5.6,4.65,5.14
					C1032.07,341.94,1025.68,342.39,1027,338.26z"/><g><path fill="#942525" d="M1022.29,347.97c-0.04,1.56,0.6,2.99,1.67,4.06c1.15,1.16,2.8,1.9,4.64,1.94
							c1.98,0.04,3.77-0.74,4.98-1.99c0.97-1,1.56-2.3,1.6-3.74c0.07-3.24-4.12-0.89-6.52-0.94
							C1026.64,347.26,1022.36,344.73,1022.29,347.97z"/><path fill="#ff7878" d="M1023.95,352.03c1.15,1.16,2.8,1.9,4.64,1.94c1.98,0.04,3.77-0.74,4.98-1.99
							c-0.95-0.99-2.67-1.66-4.66-1.71C1026.77,350.23,1024.88,350.95,1023.95,352.03z"/></g><path fill="#ffd8b5" d="M906.13,398.25c-0.73-1.67-0.79-6.25-2.17-7.51s-4.26-3.7-4.54-3.17c-0.28,0.54-0.89,3.24,1.12,4.69
			c1.93,1.39,1.99,5.87,2.44,6.57C904.19,400.72,906.13,398.25,906.13,398.25z"/><g><circle cx="839.88" cy="324.69" r="86.01" fill="#d0cee0"/><path fill="#2e1a6b" d="M774.76,394.77c38.89,36.14,100.06,33.76,136.36-5.3c36.3-39.06,34.19-100.24-4.7-136.38
				c-38.89-36.14-100.06-33.76-136.36,5.3C733.76,297.45,735.87,358.63,774.76,394.77z M784.88,383.87
				c-32.96-30.63-34.74-82.29-3.98-115.4c30.76-33.11,82.42-35.11,115.38-4.49c32.96,30.63,34.74,82.29,3.98,115.4
				C869.5,412.49,817.84,414.49,784.88,383.87z"/><rect width="23.13" height="35.27" x="904.34" y="376.28" fill="#2e1a6b" transform="rotate(132.901 915.943 393.924)"/><path fill="#2e1a6b" d="M916.26,419.23c0.15,0.14,0.3,0.28,0.46,0.41l12.18,10.6l100.24,87.31l16.41,14.29
				c5.32,4.64,13.38,4.2,18.2-0.99c4.83-5.19,4.67-13.26-0.33-18.24l-15.45-15.32l-94.43-93.57l-11.46-11.37
				c-7.44-7.38-19.53-7.11-26.7,0.61C908.35,400.53,908.79,412.29,916.26,419.23z"/><polygon fill="#bbabeb" points="928.9 430.24 1029.14 517.55 1047.97 497.29 953.54 403.73"/><ellipse cx="827.87" cy="281.03" fill="gray" rx="23.8" ry="23.7" transform="rotate(-47.078 827.876 281.02)"/><path fill="gray" d="M868.92,298.87c3.3,3.06,8.46,2.86,11.54-0.45c3.08-3.31,2.9-8.48-0.4-11.54
				c-3.3-3.06-8.46-2.86-11.54,0.45C865.45,290.64,865.62,295.81,868.92,298.87z"/></g><path fill="#ffd8b5" d="M1061.25,495.33c-2.57,0.99-13.28,1.97-13.28,1.97l4.62,4.76c-0.18,0.4-1.55,3.89-7.18,5.6
			c-4.59,1.4-6.99-2.61-7.9,0.76c-0.62,2.29,0.02,7.06,7.29,9.14c7.27,2.08,12.55-4.06,14.15-5.82c2.44-2.69,5.78-4.11,5.78-4.11
			L1061.25,495.33z"/></g><g><path fill="#ffb300" d="M377.25,598.03H230.37c-10.14,0-18.36,8.22-18.36,18.36v68.2h183.6v-68.2
			C395.62,606.25,387.39,598.03,377.25,598.03z"/><path fill="#d34640" d="M395.62,684.59v159.99c0,10.14-8.22,18.37-18.36,18.37H230.37c-10.14,0-18.36-8.22-18.36-18.37V684.59
			H395.62z"/><path fill="#7a35c4" d="M367.42,613.77H240.21c-3.62,0-6.56,2.94-6.56,6.56v38.03c0,3.62,2.94,6.56,6.56,6.56h127.21
			c3.62,0,6.56-2.94,6.56-6.56v-38.03C373.98,616.7,371.04,613.77,367.42,613.77z"/><path fill="#ff5e8b" d="M212.02,684.59v159.99c0,10.14,8.22,18.37,18.36,18.37h146.88c10.14,0,18.36-8.22,18.36-18.37V684.59H212.02
			z"/><path fill="#ffb300" d="M371.99,697.53c-6.02,0-10.91,4.88-10.91,10.91v36.63c0,6.02,4.88,10.91,10.91,10.91s10.91-4.88,10.91-10.91
			v-36.63C382.9,702.41,378.01,697.53,371.99,697.53z"/><path fill="#fff" d="M255.13,697.53h-18.79c-4.96,0-8.99,4.02-8.99,8.99c0,4.96,4.02,8.99,8.99,8.99h18.79
				c4.96,0,8.99-4.02,8.99-8.99C264.12,701.55,260.09,697.53,255.13,697.53z"/><path fill="#fff" d="M299.35,697.53h-18.79c-4.96,0-8.99,4.02-8.99,8.99c0,4.96,4.02,8.99,8.99,8.99h18.79
				c4.96,0,8.99-4.02,8.99-8.99C308.34,701.55,304.32,697.53,299.35,697.53z"/><path fill="#fff" d="M343.58,697.53h-18.79c-4.96,0-8.99,4.02-8.99,8.99c0,4.96,4.02,8.99,8.99,8.99h18.79
				c4.96,0,8.99-4.02,8.99-8.99C352.57,701.55,348.54,697.53,343.58,697.53z"/><path fill="#fff" d="M252.42,727.44h-16.36c-4.17,0-7.55,3.38-7.55,7.55v16.36c0,4.17,3.38,7.55,7.55,7.55h16.36
				c4.17,0,7.55-3.38,7.55-7.55v-16.36C259.97,730.82,256.59,727.44,252.42,727.44z"/><path fill="#fff" d="M298.14,727.44h-16.36c-4.17,0-7.55,3.38-7.55,7.55v16.36c0,4.17,3.38,7.55,7.55,7.55h16.36
				c4.17,0,7.55-3.38,7.55-7.55v-16.36C305.69,730.82,302.31,727.44,298.14,727.44z"/><path fill="#fff" d="M343.85,727.44H327.5c-4.17,0-7.55,3.38-7.55,7.55v16.36c0,4.17,3.38,7.55,7.55,7.55h16.36
				c4.17,0,7.55-3.38,7.55-7.55v-16.36C351.4,730.82,348.02,727.44,343.85,727.44z"/><path fill="#fff" d="M252.42,771.77h-16.36c-4.17,0-7.55,3.38-7.55,7.55v16.36c0,4.17,3.38,7.55,7.55,7.55h16.36
				c4.17,0,7.55-3.38,7.55-7.55v-16.36C259.97,775.15,256.59,771.77,252.42,771.77z"/><path fill="#fff" d="M298.14,771.77h-16.36c-4.17,0-7.55,3.38-7.55,7.55v16.36c0,4.17,3.38,7.55,7.55,7.55h16.36
				c4.17,0,7.55-3.38,7.55-7.55v-16.36C305.69,775.15,302.31,771.77,298.14,771.77z"/><path fill="#fff" d="M343.85,771.77H327.5c-4.17,0-7.55,3.38-7.55,7.55v16.36c0,4.17,3.38,7.55,7.55,7.55h16.36
				c4.17,0,7.55-3.38,7.55-7.55v-16.36C351.4,775.15,348.02,771.77,343.85,771.77z"/><path fill="#fff" d="M252.42,816.09h-16.36c-4.17,0-7.55,3.38-7.55,7.55V840c0,4.17,3.38,7.55,7.55,7.55h16.36
				c4.17,0,7.55-3.38,7.55-7.55v-16.36C259.97,819.47,256.59,816.09,252.42,816.09z"/><path fill="#fff" d="M298.14,816.09h-16.36c-4.17,0-7.55,3.38-7.55,7.55V840c0,4.17,3.38,7.55,7.55,7.55h16.36
				c4.17,0,7.55-3.38,7.55-7.55v-16.36C305.69,819.47,302.31,816.09,298.14,816.09z"/><path fill="#fff" d="M343.85,816.09H327.5c-4.17,0-7.55,3.38-7.55,7.55V840c0,4.17,3.38,7.55,7.55,7.55h16.36
				c4.17,0,7.55-3.38,7.55-7.55v-16.36C351.4,819.47,348.02,816.09,343.85,816.09z"/><path fill="#fff" d="M373.06,776.39c-5.65,0-10.22,4.58-10.22,10.22v4.26c0,5.65,4.58,10.22,10.22,10.22
				c5.65,0,10.22-4.58,10.22-10.22v-4.26C383.28,780.96,378.71,776.39,373.06,776.39z"/><path fill="#fff" d="M372.87,819.47c-5.65,0-10.22,4.58-10.22,10.22v4.26c0,5.65,4.58,10.22,10.22,10.22
				c5.65,0,10.22-4.58,10.22-10.22v-4.26C383.09,824.05,378.51,819.47,372.87,819.47z"/></g><g><path fill="#ff5e8b" d="M779.89,159.67H525.17c-2.47,0-4.47-2-4.47-4.47V59c0-2.47,2-4.47,4.47-4.47h254.71
				c2.47,0,4.47,2,4.47,4.47v96.2C784.36,157.66,782.36,159.67,779.89,159.67z"/><path fill="#fff" d="M563.83,73.77H547.1c-2.18,0-3.95,1.77-3.95,3.95v16.72c0,2.18,1.77,3.95,3.95,3.95h16.73
				c2.18,0,3.95-1.77,3.95-3.95V77.72C567.78,75.54,566.01,73.77,563.83,73.77z"/><path fill="#fff" d="M563.83,115.8H547.1c-2.18,0-3.95,1.77-3.95,3.95v16.73c0,2.18,1.77,3.95,3.95,3.95h16.73
				c2.18,0,3.95-1.77,3.95-3.95v-16.73C567.78,117.57,566.01,115.8,563.83,115.8z"/><path fill="#fff" d="M590.04,82.35h170.3c0.86,0,1.56-0.7,1.56-1.56s-0.7-1.56-1.56-1.56h-170.3c-0.86,0-1.56,0.7-1.56,1.56
					S589.18,82.35,590.04,82.35z"/><path fill="#fff" d="M590.04,93.12h117.38c0.86,0,1.56-0.7,1.56-1.56c0-0.86-0.7-1.56-1.56-1.56H590.04
					c-0.86,0-1.56,0.7-1.56,1.56C588.48,92.42,589.18,93.12,590.04,93.12z"/><path fill="#fff" d="M760.34,121.26h-170.3c-0.86,0-1.56,0.7-1.56,1.56c0,0.86,0.7,1.56,1.56,1.56h170.3
					c0.86,0,1.56-0.7,1.56-1.56C761.9,121.96,761.2,121.26,760.34,121.26z"/><path fill="#fff" d="M707.43,132.03H590.04c-0.86,0-1.56,0.7-1.56,1.56c0,0.86,0.7,1.56,1.56,1.56h117.38
					c0.86,0,1.56-0.7,1.56-1.56C708.99,132.73,708.29,132.03,707.43,132.03z"/></g><g><path fill="#723dbd" d="M484.59,382.49H234.21c-5.48,0-9.91-4.44-9.91-9.91V185.8c0-5.48,4.44-9.91,9.91-9.91h250.38
			c5.48,0,9.91,4.44,9.91,9.91v186.78C494.51,378.06,490.07,382.49,484.59,382.49z"/><rect width="16.89" height="35.27" x="260.84" y="317.36" fill="#fff"/><rect width="16.89" height="58.01" x="290.97" y="294.62" fill="#fff"/><rect width="16.89" height="27.36" x="321.1" y="325.27" fill="#fff"/><rect width="16.89" height="75.48" x="351.23" y="277.15" fill="#fff"/><rect width="16.89" height="54.72" x="381.36" y="297.91" fill="#fff"/><rect width="16.89" height="72.85" x="411.49" y="279.78" fill="#fff"/><rect width="16.89" height="99.88" x="441.62" y="252.75" fill="#fff"/><rect width="211.9" height="3.92" x="253.45" y="358.17" fill="#fff"/><path fill="#fff" d="M454.24,217.45c-1.75,0-3.23,1.09-3.77,2.6h-14.78c-0.54-1.51-2.02-2.6-3.77-2.6
				c-0.67,0-1.31,0.16-1.86,0.45l-16.76-16.24c0.2-0.46,0.31-0.96,0.31-1.48c0-2.14-1.79-3.87-3.99-3.87s-3.99,1.73-3.99,3.87
				c0,0.54,0.12,1.06,0.33,1.53l-23.74,23c-0.41-0.14-0.86-0.22-1.32-0.22c-1.7,0-3.15,1.03-3.72,2.48h-12.67
				c-0.58-1.45-2.02-2.48-3.72-2.48c-2.21,0-3.99,1.73-3.99,3.87c0,0.59,0.14,1.15,0.39,1.65l-20.31,19.67
				c-0.45-0.17-0.94-0.27-1.45-0.27c-1.72,0-3.18,1.06-3.75,2.54h-19.26c-0.56-1.48-2.02-2.54-3.75-2.54
				c-0.75,0-1.45,0.21-2.06,0.56l-7.38-7.15c-0.18-1.98-1.89-3.54-3.98-3.54c-1.86,0-3.42,1.24-3.86,2.91l-24.22,5.75
				c-0.7-0.57-1.6-0.92-2.59-0.92c-2.21,0-3.99,1.73-3.99,3.87c0,2.14,1.79,3.87,3.99,3.87c2.21,0,3.99-1.73,3.99-3.87
				c0-0.13-0.01-0.26-0.02-0.39l23.18-5.51c0.68,1.21,2,2.03,3.51,2.03c1.16,0,2.2-0.48,2.93-1.25l6.65,6.44
				c-0.1,0.34-0.16,0.7-0.16,1.07c0,2.14,1.79,3.87,3.99,3.87c1.67,0,3.09-0.99,3.69-2.39h19.37c0.6,1.41,2.02,2.39,3.69,2.39
				c2.21,0,3.99-1.73,3.99-3.87c0-0.61-0.15-1.19-0.41-1.7l20.28-19.65c0.46,0.18,0.97,0.29,1.5,0.29c1.69,0,3.13-1.02,3.71-2.45
				h12.69c0.58,1.44,2.02,2.45,3.71,2.45c2.21,0,3.99-1.73,3.99-3.87c0-0.66-0.17-1.28-0.47-1.82l23.57-22.83
				c0.5,0.22,1.05,0.34,1.64,0.34c0.6,0,1.17-0.13,1.68-0.36l16.87,16.35c-0.15,0.4-0.23,0.84-0.23,1.29c0,2.14,1.79,3.87,3.99,3.87
				c1.64,0,3.05-0.96,3.66-2.33h14.99c0.61,1.37,2.02,2.33,3.66,2.33c2.21,0,3.99-1.73,3.99-3.87
				C458.23,219.18,456.44,217.45,454.24,217.45z"/></g><g><path fill="#fff4e3" d="M885.99,814.82c-1.2-0.43-200.65,0.82-201.51-0.42c-4.85-2.26-8.95-6.07-11.58-10.73h-0.03v-25.49h0.02
							c2.79-4.95,7.24-8.94,12.48-11.14h200.26C880.9,782.52,882.74,799.22,885.99,814.82z"/><path fill="#7a35c4" d="M889.05,809.56c0.7,0.7,1.13,1.66,1.13,2.73c0,2.13-1.72,3.87-3.86,3.87H691.83c-1.01,0-2-0.06-2.98-0.17
						c-2.48-0.28-4.85-0.91-7.06-1.84c-0.32-0.14-0.64-0.28-0.95-0.43c-0.32-0.15-0.64-0.31-0.95-0.47
						c-0.26-0.14-0.52-0.27-0.77-0.42c-0.27-0.15-0.54-0.31-0.81-0.48c-0.23-0.14-0.45-0.28-0.67-0.42
						c-0.23-0.15-0.46-0.31-0.69-0.47c-0.2-0.14-0.4-0.28-0.59-0.43c-0.21-0.15-0.41-0.31-0.6-0.47c-0.18-0.14-0.36-0.28-0.52-0.43
						c-0.19-0.15-0.37-0.31-0.54-0.47c-0.16-0.14-0.31-0.28-0.46-0.42c-0.17-0.15-0.34-0.31-0.51-0.48
						c-0.07-0.07-0.14-0.14-0.21-0.21c-0.07-0.07-0.14-0.14-0.2-0.21c-0.15-0.15-0.31-0.31-0.44-0.47
						c-0.14-0.14-0.27-0.27-0.39-0.43c-0.14-0.15-0.28-0.31-0.41-0.47c-0.12-0.14-0.24-0.28-0.35-0.42
						c-0.13-0.15-0.26-0.32-0.38-0.48c-0.11-0.14-0.21-0.28-0.32-0.42c-0.12-0.15-0.23-0.31-0.34-0.47
						c-0.1-0.14-0.21-0.28-0.29-0.43c-0.11-0.15-0.21-0.31-0.32-0.47c-0.09-0.14-0.18-0.28-0.26-0.42c-0.1-0.15-0.19-0.31-0.29-0.48
						c-0.08-0.14-0.17-0.28-0.25-0.43c-0.01-0.02-0.02-0.04-0.03-0.06c-2.11-3.75-3.32-8.09-3.32-12.7c0-4.61,1.2-8.94,3.32-12.69
						c0.01-0.01,0.01-0.02,0.02-0.04c0.08-0.14,0.16-0.28,0.25-0.42c0.09-0.16,0.19-0.32,0.29-0.48c0.08-0.14,0.17-0.28,0.26-0.42
						c0.1-0.15,0.2-0.32,0.31-0.47c0.1-0.14,0.19-0.28,0.29-0.43c0.11-0.16,0.23-0.31,0.34-0.47c0.1-0.14,0.21-0.28,0.32-0.42
						c0.12-0.16,0.25-0.32,0.37-0.48c0.12-0.14,0.23-0.29,0.35-0.42c0.14-0.16,0.27-0.31,0.41-0.47c0.12-0.15,0.25-0.29,0.39-0.43
						c0.14-0.16,0.29-0.32,0.44-0.47c0.14-0.14,0.28-0.29,0.42-0.43c0.15-0.15,0.31-0.3,0.46-0.45c0.01-0.01,0.02-0.02,0.03-0.03
						c0.15-0.14,0.31-0.28,0.46-0.42c0.18-0.16,0.37-0.32,0.56-0.48c0.17-0.14,0.33-0.28,0.51-0.42c0.18-0.15,0.36-0.29,0.54-0.43
						c0.02-0.01,0.04-0.03,0.06-0.04c0.19-0.14,0.39-0.28,0.59-0.43c0.22-0.16,0.46-0.31,0.69-0.47c0.22-0.14,0.44-0.28,0.66-0.42
						c0.26-0.17,0.53-0.32,0.81-0.48c0.25-0.15,0.51-0.29,0.78-0.43c0.31-0.16,0.62-0.31,0.93-0.46c0.14-0.07,0.28-0.13,0.43-0.2
						c0.17-0.08,0.35-0.15,0.52-0.23c3.11-1.32,6.52-2.04,10.1-2.04h194.49c1.07,0,2.03,0.43,2.73,1.13c0.7,0.7,1.13,1.66,1.13,2.73
						c0,2.14-1.72,3.87-3.86,3.87H692.5c-0.65,0-1.29,0.03-1.92,0.1c-0.94,0.09-1.86,0.25-2.75,0.47c-0.49,0.12-0.98,0.26-1.45,0.43
						c-0.43,0.14-0.86,0.29-1.28,0.47c-0.31,0.13-0.62,0.27-0.93,0.42c-0.32,0.15-0.63,0.3-0.94,0.48
						c-0.24,0.13-0.48,0.26-0.72,0.42c-0.25,0.15-0.5,0.3-0.75,0.47c-0.19,0.12-0.38,0.25-0.56,0.39c-0.02,0.01-0.03,0.02-0.05,0.04
						c-0.21,0.15-0.41,0.31-0.62,0.47c-0.17,0.14-0.34,0.27-0.51,0.42c-0.18,0.15-0.36,0.31-0.53,0.48
						c-0.15,0.14-0.3,0.28-0.44,0.42c-0.16,0.15-0.32,0.31-0.47,0.47c-0.14,0.14-0.26,0.28-0.39,0.43c-0.14,0.15-0.28,0.31-0.4,0.47
						c-0.12,0.14-0.24,0.28-0.34,0.42c-0.13,0.15-0.24,0.32-0.36,0.48c-0.11,0.14-0.21,0.29-0.31,0.43c-0.1,0.15-0.21,0.31-0.3,0.46
						c-0.1,0.14-0.19,0.28-0.27,0.43c-0.1,0.15-0.19,0.32-0.28,0.48c-0.08,0.14-0.16,0.28-0.23,0.42c-0.09,0.15-0.17,0.31-0.25,0.47
						c-0.07,0.14-0.14,0.28-0.2,0.43c-0.08,0.15-0.15,0.31-0.21,0.47c-0.07,0.14-0.12,0.28-0.17,0.42
						c-0.07,0.16-0.13,0.31-0.18,0.48c-0.06,0.14-0.1,0.27-0.15,0.42c-0.06,0.15-0.11,0.31-0.15,0.47
						c-0.05,0.14-0.09,0.29-0.13,0.43c-0.04,0.15-0.08,0.32-0.12,0.47c-0.04,0.14-0.07,0.27-0.1,0.42c-0.04,0.15-0.07,0.31-0.1,0.48
						c-0.03,0.14-0.06,0.28-0.08,0.42c-0.03,0.15-0.05,0.31-0.07,0.47c-0.02,0.14-0.04,0.28-0.06,0.43
						c-0.02,0.15-0.03,0.31-0.05,0.47c-0.02,0.14-0.02,0.28-0.03,0.43c-0.01,0.15-0.02,0.31-0.02,0.47
						c-0.01,0.14-0.02,0.28-0.01,0.42c0,0.08,0,0.15,0,0.22c0,0.09,0,0.17,0,0.25c0,0.14,0,0.28,0.01,0.42
						c0,0.16,0.01,0.31,0.02,0.47c0.01,0.14,0.02,0.29,0.04,0.43c0.01,0.16,0.02,0.32,0.04,0.47c0.02,0.14,0.04,0.28,0.06,0.42
						c0.01,0.16,0.04,0.32,0.07,0.48c0.02,0.14,0.04,0.28,0.08,0.43c0.03,0.15,0.06,0.31,0.1,0.46c0.02,0.14,0.06,0.28,0.1,0.43
						c0.04,0.16,0.08,0.31,0.12,0.48c0.04,0.14,0.08,0.28,0.13,0.42c0.04,0.16,0.09,0.32,0.16,0.47c0.04,0.14,0.08,0.29,0.14,0.42
						c0.05,0.16,0.12,0.31,0.18,0.48c0.05,0.14,0.11,0.28,0.17,0.42c0.06,0.16,0.14,0.32,0.21,0.47c0.06,0.14,0.13,0.28,0.2,0.43
						c0.08,0.16,0.15,0.31,0.24,0.47c0.07,0.14,0.15,0.28,0.23,0.42c0.09,0.16,0.18,0.32,0.28,0.48c0.08,0.14,0.17,0.29,0.27,0.42
						c0.1,0.16,0.2,0.31,0.31,0.47c0.1,0.14,0.2,0.28,0.31,0.43c0.11,0.16,0.23,0.31,0.36,0.47c0.11,0.14,0.22,0.29,0.34,0.42
						c0.13,0.16,0.26,0.32,0.41,0.48c0.12,0.15,0.25,0.28,0.39,0.43c0.15,0.15,0.3,0.31,0.46,0.46c0.15,0.15,0.3,0.29,0.45,0.43
						c0.17,0.17,0.35,0.32,0.54,0.48c0.17,0.14,0.34,0.29,0.51,0.42c0.21,0.16,0.41,0.32,0.63,0.47c0.2,0.15,0.41,0.29,0.61,0.43
						c0.24,0.17,0.49,0.32,0.75,0.47c0.24,0.15,0.48,0.29,0.73,0.42c0.31,0.17,0.62,0.33,0.94,0.48c0.3,0.15,0.62,0.29,0.93,0.42
						c0.43,0.17,0.85,0.33,1.29,0.47c0.49,0.17,0.99,0.31,1.5,0.43c0.97,0.24,1.96,0.39,2.98,0.47c0.52,0.05,1.05,0.07,1.58,0.07
						h193.82C887.39,808.43,888.35,808.86,889.05,809.56z"/><path fill="#f5dac2" d="M789.91,781.85h-99.85c-0.58,0-1.04-0.47-1.04-1.04l0,0c0-0.58,0.47-1.04,1.04-1.04h99.85
					c0.58,0,1.04,0.47,1.04,1.04l0,0C790.96,781.38,790.49,781.85,789.91,781.85z"/><path fill="#f5dac2" d="M859.74,801.67H746.79c-0.58,0-1.04-0.47-1.04-1.04l0,0c0-0.58,0.47-1.04,1.04-1.04h112.94
					c0.58,0,1.04,0.47,1.04,1.04l0,0C860.78,801.2,860.31,801.67,859.74,801.67z"/><path fill="#f5dac2" d="M789.91,791.97h-63.19c-0.58,0-1.04-0.47-1.04-1.04l0,0c0-0.58,0.47-1.04,1.04-1.04h63.19
					c0.58,0,1.04,0.47,1.04,1.04l0,0C790.96,791.51,790.49,791.97,789.91,791.97z"/><path fill="#f5dac2" d="M717.52,791.97h-28.55c-0.58,0-1.04-0.47-1.04-1.04l0,0c0-0.58,0.47-1.04,1.04-1.04h28.55
					c0.58,0,1.04,0.47,1.04,1.04l0,0C718.56,791.5,718.1,791.97,717.52,791.97z"/><path fill="#f5dac2" d="M849.25,791.97h-28.55c-0.58,0-1.04-0.47-1.04-1.04l0,0c0-0.58,0.47-1.04,1.04-1.04h28.55
					c0.58,0,1.04,0.47,1.04,1.04l0,0C850.29,791.5,849.82,791.97,849.25,791.97z"/><path fill="#f5dac2" d="M831.58,782.89h-10.88c-0.58,0-1.04-0.47-1.04-1.04l0,0c0-0.58,0.47-1.04,1.04-1.04h10.88
					c0.58,0,1.04,0.47,1.04,1.04l0,0C832.62,782.42,832.15,782.89,831.58,782.89z"/><path fill="#f5dac2" d="M736.88,801.67h-10.88c-0.58,0-1.04-0.47-1.04-1.04l0,0c0-0.58,0.47-1.04,1.04-1.04h10.88
					c0.58,0,1.04,0.47,1.04,1.04l0,0C737.92,801.2,737.45,801.67,736.88,801.67z"/><path fill="#f5dac2" d="M872.71,791.97h-10.88c-0.58,0-1.04-0.47-1.04-1.04l0,0c0-0.58,0.47-1.04,1.04-1.04h10.88
					c0.58,0,1.04,0.47,1.04,1.04l0,0C873.75,791.5,873.28,791.97,872.71,791.97z"/><polygon fill="#ff5e8b" points="809.75 795.56 803.23 791.85 796.72 795.56 796.72 779.76 809.75 779.76"/><path fill="#fff4e3" d="M896.65,823v34.61h-79.52c-7.54,0-13.68-7.75-13.68-17.3c0-9.54,6.14-17.31,13.68-17.31H896.65z"/><path fill="#ff5e8b" d="M805.43,831.35c-1.26,2.62-1.99,5.69-1.99,8.97c0,0.17,0,0.35,0.01,0.52c0,0.12,0,0.24,0.01,0.37
						c0,0.12,0.01,0.25,0.02,0.37c0.01,0.17,0.02,0.34,0.04,0.5c0.01,0.14,0.02,0.29,0.04,0.44c0.02,0.15,0.03,0.3,0.05,0.45
						c0.04,0.31,0.08,0.63,0.13,0.94c0.72,4.54,2.87,9.31,6.89,13.71h86.03v6.84H671.73c-3.21,0-5.82-3.3-5.82-7.37v-33.55
						c0-4.07,2.6-7.36,5.82-7.36h224.92V823h-79.52c-2.59,0-5.02,0.92-7.09,2.51c-0.19,0.14-0.37,0.29-0.56,0.45
						c-1.45,1.25-2.71,2.84-3.7,4.68C805.66,830.88,805.54,831.11,805.43,831.35z"/><rect width="5.12" height="48.29" x="781.28" y="816.16" fill="#ff7da1"/><rect width="5.12" height="48.29" x="765.13" y="816.16" fill="#ff7da1"/><path fill="#ff7da1" d="M805.43,831.35c-1.26,2.62-1.99,5.69-1.99,8.97c0,0.18,0,0.35,0.01,0.52c0,0.12,0,0.24,0.01,0.37
							c0,0.12,0.01,0.25,0.02,0.37c0.01,0.17,0.02,0.34,0.04,0.5c0.01,0.15,0.02,0.29,0.04,0.44c0.02,0.15,0.03,0.3,0.05,0.45
							c0.04,0.32,0.09,0.63,0.14,0.94c1.31,7.82,6.82,13.71,13.39,13.71h79.53v6.84h-79.53c-10.53,0-19.09-10.84-19.09-24.14v-0.04
							c0.02-13.19,8.44-23.95,18.84-24.11c0.08,0,0.16,0,0.25,0h79.53V823h-79.53c-2.59,0-5.02,0.92-7.09,2.51
							c-0.19,0.14-0.37,0.29-0.56,0.45c-1.45,1.25-2.71,2.84-3.7,4.68C805.66,830.88,805.54,831.11,805.43,831.35z"/><path fill="#f5dac2" d="M858.39,829.99h-41.83c-0.57,0-1.03-0.58-1.03-1.3l0,0c0-0.72,0.46-1.3,1.03-1.3h41.83
						c0.57,0,1.03,0.58,1.03,1.3l0,0C859.42,829.4,858.96,829.99,858.39,829.99z"/><path fill="#f5dac2" d="M888.45,854.66h-47.46c-0.57,0-1.03-0.58-1.03-1.3l0,0c0-0.72,0.46-1.3,1.03-1.3h47.46
						c0.57,0,1.03,0.58,1.03,1.3l0,0C889.48,854.08,889.02,854.66,888.45,854.66z"/><path fill="#f5dac2" d="M858.39,842.59h-26.04c-0.57,0-1.03-0.58-1.03-1.3l0,0c0-0.72,0.46-1.3,1.03-1.3h26.04
						c0.57,0,1.03,0.58,1.03,1.3l0,0C859.42,842.01,858.96,842.59,858.39,842.59z"/><path fill="#f5dac2" d="M827.23,842.59h-11.13c-0.57,0-1.03-0.58-1.03-1.3l0,0c0-0.72,0.46-1.3,1.03-1.3h11.13
						c0.57,0,1.03,0.58,1.03,1.3l0,0C828.26,842.01,827.8,842.59,827.23,842.59z"/><path fill="#f5dac2" d="M883.93,842.59H872.8c-0.57,0-1.03-0.58-1.03-1.3l0,0c0-0.72,0.46-1.3,1.03-1.3h11.14
						c0.57,0,1.03,0.58,1.03,1.3l0,0C884.96,842.01,884.5,842.59,883.93,842.59z"/><path fill="#f5dac2" d="M876.33,831.29h-3.53c-0.57,0-1.03-0.58-1.03-1.3l0,0c0-0.72,0.46-1.3,1.03-1.3h3.53
						c0.57,0,1.03,0.58,1.03,1.3l0,0C877.36,830.7,876.9,831.29,876.33,831.29z"/><path fill="#f5dac2" d="M835.56,854.66h-3.53c-0.57,0-1.03-0.58-1.03-1.3l0,0c0-0.72,0.46-1.3,1.03-1.3h3.53
						c0.57,0,1.03,0.58,1.03,1.3l0,0C836.59,854.08,836.13,854.66,835.56,854.66z"/><path fill="#f5dac2" d="M894.03,842.59h-3.53c-0.57,0-1.03-0.58-1.03-1.3l0,0c0-0.72,0.46-1.3,1.03-1.3h3.53
						c0.57,0,1.03,0.58,1.03,1.3l0,0C895.06,842.01,894.6,842.59,894.03,842.59z"/><polygon fill="#ff5e8b" points="861.43 835.39 861.43 850.42 867.47 845.1 873.52 850.42 873.52 835.39"/></g><path fill="#eae6ff" d="M1083.64,218.1l-6.06-30.97c-0.1-0.51-0.49-0.91-1-1.02l-30.84-6.7c-1.38-0.3-1.36-2.27,0.03-2.54l30.97-6.06
		c0.51-0.1,0.91-0.49,1.02-1l6.7-30.84c0.3-1.38,2.27-1.36,2.54,0.03l6.06,30.97c0.1,0.51,0.49,0.91,1,1.02l30.84,6.7
		c1.38,0.3,1.36,2.27-0.03,2.54l-30.97,6.06c-0.51,0.1-0.91,0.49-1.02,1l-6.7,30.84C1085.89,219.5,1083.91,219.48,1083.64,218.1z"/><path fill="#eae6ff" d="M135.97,292.31l-6.06-30.97c-0.1-0.51-0.49-0.91-1-1.02l-30.84-6.7c-1.38-0.3-1.36-2.27,0.03-2.54l30.97-6.06
		c0.51-0.1,0.91-0.49,1.02-1l6.7-30.84c0.3-1.38,2.27-1.36,2.54,0.03l6.06,30.97c0.1,0.51,0.49,0.91,1,1.02l30.84,6.7
		c1.38,0.3,1.36,2.27-0.03,2.54l-30.97,6.06c-0.51,0.1-0.91,0.49-1.02,1l-6.7,30.84C138.21,293.71,136.24,293.69,135.97,292.31z"/><path fill="#eae6ff" d="M947.05,172.82l-3.17-16.2c-0.05-0.27-0.26-0.48-0.52-0.53l-16.13-3.5c-0.72-0.16-0.71-1.19,0.01-1.33
		l16.2-3.17c0.27-0.05,0.48-0.26,0.53-0.52l3.5-16.13c0.16-0.72,1.19-0.71,1.33,0.01l3.17,16.2c0.05,0.27,0.26,0.48,0.52,0.53
		l16.13,3.5c0.72,0.16,0.71,1.19-0.01,1.33l-16.2,3.17c-0.27,0.05-0.47,0.26-0.53,0.52l-3.5,16.13
		C948.23,173.55,947.2,173.54,947.05,172.82z"/><path fill="#eae6ff" d="M1203.26,783.61l-5.36-27.37c-0.09-0.45-0.43-0.8-0.88-0.9l-27.25-5.92c-1.22-0.26-1.2-2.01,0.02-2.24
		l27.37-5.36c0.45-0.09,0.8-0.43,0.9-0.88l5.92-27.25c0.26-1.22,2.01-1.2,2.24,0.02l5.36,27.37c0.09,0.45,0.43,0.8,0.88,0.9
		l27.25,5.92c1.22,0.26,1.2,2.01-0.02,2.24l-27.37,5.36c-0.45,0.09-0.8,0.43-0.9,0.88l-5.92,27.25
		C1205.24,784.85,1203.5,784.83,1203.26,783.61z"/></svg>