<svg xmlns="http://www.w3.org/2000/svg" width="1rem" height="1rem" viewBox="0 0 512 512">
  
  <g>
    <g>
      <polygon points="192 392 184 432 296 432 287 392 192 392" fill="#57a4ff" id="id_109"></polygon>
      <path d="M476,248H464l-16,24H408l-8-24h64V100a19.994,19.994,0,0,0-20-20H36a19.994,19.994,0,0,0-20,20V352H368v84a19.994,19.994,0,0,0,20,20h88a19.994,19.994,0,0,0,20-20V268A19.994,19.994,0,0,0,476,248ZM320,268a19.994,19.994,0,0,1-20,20H180a19.994,19.994,0,0,1-20-20V180a19.994,19.994,0,0,1,20-20H300a19.994,19.994,0,0,1,20,20Zm96,108V328l40,24Z" fill="#57a4ff" id="id_110"></path>
      <polygon points="200 264 280 224 200 184 200 264" fill="#57a4ff" id="id_111"></polygon>
    </g>
    <g>
      <path d="M476,240h-4V100a28.031,28.031,0,0,0-28-28H36A28.031,28.031,0,0,0,8,100V372a28.031,28.031,0,0,0,28,28H182.24l-4.8,24H136a8,8,0,0,0-8,8v24a8,8,0,0,0,8,8H344a8,8,0,0,0,8-8V432a8,8,0,0,0-8-8H302.4L297,400h63v36a28.031,28.031,0,0,0,28,28h88a28.031,28.031,0,0,0,28-28V268A28.031,28.031,0,0,0,476,240ZM336,440v8H144v-8ZM193.76,424l4.8-24H280.6l5.4,24ZM360,384H36a12.01,12.01,0,0,1-12-12V360H360Zm0-116v76H24V100A12.01,12.01,0,0,1,36,88H444a12.01,12.01,0,0,1,12,12V240H388A28.031,28.031,0,0,0,360,268Zm92.9-12-2.67,8H413.77l-2.67-8ZM488,436a12.01,12.01,0,0,1-12,12H388a12.01,12.01,0,0,1-12-12V268a12.01,12.01,0,0,1,12-12h6.23l6.18,18.53A8,8,0,0,0,408,280h48a8,8,0,0,0,7.59-5.47L469.77,256H476a12.01,12.01,0,0,1,12,12Z" fill="#004fac" id="id_112"></path>
      <path d="M440,424H424a8,8,0,0,0,0,16h16a8,8,0,0,0,0-16Z" fill="#004fac" id="id_113"></path>
      <path d="M300,152H180a28.031,28.031,0,0,0-28,28v88a28.031,28.031,0,0,0,28,28H300a28.031,28.031,0,0,0,28-28V180A28.031,28.031,0,0,0,300,152Zm12,116a12.01,12.01,0,0,1-12,12H180a12.01,12.01,0,0,1-12-12V180a12.01,12.01,0,0,1,12-12H300a12.01,12.01,0,0,1,12,12Z" fill="#004fac" id="id_114"></path>
      <path d="M195.794,270.805a8,8,0,0,0,7.784.35l80-40a8,8,0,0,0,0-14.31l-80-40A8,8,0,0,0,192,184v80A8,8,0,0,0,195.794,270.805ZM208,196.944,262.111,224,208,251.056Z" fill="#004fac" id="id_115"></path>
      <path d="M460.116,345.14l-40-24A8,8,0,0,0,408,328v48a8,8,0,0,0,12.116,6.86l40-24a8,8,0,0,0,0-13.72ZM424,361.871V342.129L440.451,352Z" fill="#004fac" id="id_116"></path>
    </g>
  </g>
</svg>