<svg xmlns="http://www.w3.org/2000/svg" enable-background="new 0 0 1364 960" viewBox="0 0 1364 960"><path fill="#3a67b3" d="M844.27,778.26c-0.54,0-1.01-0.38-1.12-0.93c-0.11-0.62,0.29-1.21,0.91-1.32c0.02,0,2.46-0.46,6.62-1.39
					c0.61-0.14,1.22,0.25,1.36,0.86c0.14,0.61-0.25,1.22-0.86,1.36c-4.21,0.94-6.68,1.4-6.7,1.4
					C844.41,778.26,844.34,778.26,844.27,778.26z"/><path fill="#2678aa" d="M864.21,773.62c-0.5,0-0.96-0.34-1.1-0.85c-0.16-0.61,0.2-1.23,0.81-1.39c4.38-1.16,8.8-2.4,13.14-3.71
					c0.6-0.18,1.23,0.16,1.41,0.76c0.18,0.6-0.16,1.23-0.76,1.41c-4.37,1.31-8.81,2.57-13.22,3.73
					C864.4,773.61,864.3,773.62,864.21,773.62z M890.42,765.73c-0.47,0-0.91-0.3-1.08-0.77c-0.2-0.59,0.12-1.24,0.71-1.44
					c4.35-1.48,8.67-3.04,12.83-4.63c0.59-0.23,1.24,0.07,1.47,0.65c0.22,0.59-0.07,1.24-0.65,1.47c-4.19,1.6-8.53,3.17-12.91,4.66
					C890.67,765.71,890.54,765.73,890.42,765.73z M915.97,755.92c-0.44,0-0.86-0.26-1.04-0.68c-0.25-0.58,0.01-1.24,0.59-1.49
					c4.25-1.84,8.41-3.77,12.36-5.72c0.56-0.28,1.24-0.05,1.52,0.52c0.28,0.56,0.05,1.24-0.52,1.52c-3.98,1.97-8.18,3.91-12.46,5.77
					C916.27,755.89,916.12,755.92,915.97,755.92z M940.47,743.77c-0.4,0-0.78-0.21-0.99-0.57c-0.31-0.55-0.12-1.24,0.43-1.55
					c4.05-2.31,7.95-4.7,11.58-7.12c0.52-0.35,1.23-0.21,1.57,0.31c0.35,0.52,0.21,1.23-0.31,1.57c-3.68,2.45-7.62,4.88-11.72,7.21
					C940.85,743.72,940.66,743.77,940.47,743.77z M963.16,728.55c-0.33,0-0.66-0.15-0.89-0.43c-0.39-0.49-0.31-1.2,0.18-1.6
					c3.65-2.92,7.05-5.95,10.11-9.01c0.44-0.44,1.16-0.44,1.61,0c0.44,0.44,0.44,1.16,0,1.61c-3.12,3.11-6.58,6.2-10.3,9.17
					C963.66,728.47,963.41,728.55,963.16,728.55z M982.37,709.19c-0.24,0-0.48-0.07-0.68-0.23c-0.5-0.38-0.6-1.09-0.22-1.59
					c2.79-3.69,5.22-7.51,7.2-11.36c0.29-0.56,0.97-0.77,1.53-0.49c0.56,0.29,0.78,0.97,0.49,1.53c-2.04,3.96-4.54,7.89-7.41,11.69
					C983.05,709.03,982.71,709.19,982.37,709.19z M994.7,685.01c-0.1,0-0.21-0.01-0.31-0.04c-0.6-0.17-0.95-0.8-0.78-1.4
					c1.21-4.29,1.97-8.72,2.26-13.18c0.04-0.63,0.57-1.1,1.21-1.06c0.63,0.04,1.1,0.58,1.06,1.21c-0.29,4.62-1.08,9.21-2.34,13.66
					C995.65,684.68,995.2,685.01,994.7,685.01z M975.86,669.68c-1.99,0-3.98-0.14-5.94-0.41c-0.62-0.09-1.05-0.66-0.97-1.28
					c0.09-0.62,0.66-1.05,1.28-0.97c4.32,0.6,8.81,0.5,13.24-0.3c0.62-0.11,1.21,0.3,1.32,0.91c0.11,0.62-0.3,1.21-0.91,1.32
					C981.21,669.43,978.51,669.68,975.86,669.68z M957.06,665.28c-0.16,0-0.33-0.04-0.49-0.11c-4.74-2.26-8.54-5.06-11.3-8.34
					c-0.4-0.48-0.34-1.2,0.14-1.6c0.48-0.4,1.2-0.34,1.6,0.14c2.55,3.02,6.09,5.63,10.54,7.75c0.57,0.27,0.81,0.95,0.54,1.51
					C957.89,665.05,957.49,665.28,957.06,665.28z M996.6,664.66c-0.42,0-0.82-0.23-1.02-0.64c-0.28-0.56-0.04-1.24,0.52-1.52
					c3.89-1.91,7.67-4.35,11.23-7.27c0.49-0.4,1.2-0.33,1.6,0.16c0.4,0.48,0.33,1.2-0.16,1.6c-3.69,3.02-7.62,5.56-11.67,7.55
					C996.94,664.63,996.77,664.66,996.6,664.66z M996.49,657.95c-0.56,0-1.05-0.41-1.12-0.98c-0.58-4.29-1.58-8.71-2.96-13.13
					c-0.19-0.6,0.15-1.24,0.75-1.42c0.6-0.19,1.24,0.15,1.42,0.75c1.42,4.55,2.44,9.09,3.04,13.5c0.08,0.62-0.35,1.19-0.97,1.28
					C996.59,657.95,996.54,657.95,996.49,657.95z M1017.67,647.58c-0.25,0-0.51-0.08-0.72-0.26c-0.49-0.4-0.56-1.11-0.16-1.6
					c2.79-3.41,5.33-7.15,7.56-11.13c0.31-0.55,1-0.74,1.55-0.44c0.55,0.31,0.74,1,0.44,1.55c-2.29,4.09-4.91,7.95-7.78,11.46
					C1018.33,647.44,1018,647.58,1017.67,647.58z M941.17,644.78c-0.6,0-1.11-0.48-1.13-1.09c-0.01-0.31-0.02-0.63-0.02-0.94
					c0-4.25,1.24-8.65,3.58-12.72c0.31-0.54,1.01-0.73,1.55-0.42c0.54,0.31,0.73,1.01,0.42,1.55c-2.15,3.72-3.28,7.73-3.28,11.59
					c0,0.28,0.01,0.56,0.02,0.85c0.03,0.63-0.46,1.16-1.09,1.18C941.21,644.78,941.19,644.78,941.17,644.78z M988.24,632.04
					c-0.39,0-0.78-0.21-0.99-0.57c-2.43-4.28-5.28-7.63-8.48-9.96c-0.51-0.37-0.62-1.08-0.25-1.59c0.37-0.51,1.08-0.62,1.59-0.25
					c3.46,2.52,6.53,6.11,9.12,10.67c0.31,0.55,0.12,1.24-0.43,1.55C988.62,632,988.43,632.04,988.24,632.04z M1031,623.87
					c-0.13,0-0.26-0.02-0.39-0.07c-0.59-0.21-0.89-0.86-0.68-1.45c1.51-4.18,2.72-8.55,3.6-12.99c0.12-0.62,0.72-1.02,1.33-0.89
					c0.62,0.12,1.02,0.72,0.89,1.33c-0.9,4.56-2.14,9.04-3.69,13.33C1031.9,623.58,1031.47,623.87,1031,623.87z M953.87,621.86
					c-0.37,0-0.73-0.18-0.95-0.51c-0.35-0.52-0.2-1.23,0.32-1.57c4.21-2.79,8.84-4.32,13.4-4.43c0.62,0.01,1.15,0.48,1.16,1.11
					c0.01,0.63-0.48,1.15-1.11,1.16c-4.13,0.09-8.35,1.49-12.2,4.05C954.3,621.8,954.08,621.86,953.87,621.86z M1036.3,597.16
					c-0.02,0-0.04,0-0.06,0c-0.63-0.03-1.11-0.56-1.08-1.19c0.08-1.61,0.12-3.25,0.12-4.88c0-2.84-0.12-5.74-0.37-8.62
					c-0.05-0.63,0.41-1.18,1.03-1.23c0.61-0.06,1.17,0.41,1.23,1.03c0.25,2.94,0.38,5.9,0.38,8.81c0,1.67-0.04,3.35-0.13,5
					C1037.41,596.69,1036.9,597.16,1036.3,597.16z M1034.01,570c-0.52,0-0.99-0.36-1.11-0.9c-0.93-4.33-2.15-8.71-3.62-13.03
					c-0.2-0.59,0.12-1.24,0.71-1.44c0.59-0.2,1.24,0.12,1.44,0.71c1.5,4.41,2.74,8.88,3.69,13.29c0.13,0.61-0.26,1.22-0.87,1.35
					C1034.17,569.99,1034.09,570,1034.01,570z M1025.26,544.16c-0.43,0-0.84-0.24-1.03-0.66c-1.86-4.01-3.98-8.05-6.29-12
					c-0.32-0.54-0.13-1.24,0.41-1.55c0.54-0.32,1.24-0.13,1.55,0.41c2.35,4.02,4.5,8.12,6.39,12.2c0.26,0.57,0.02,1.24-0.55,1.51
					C1025.58,544.13,1025.42,544.16,1025.26,544.16z M1011.51,520.58c-0.36,0-0.71-0.17-0.93-0.48c-2.55-3.61-5.33-7.24-8.26-10.78
					c-0.4-0.48-0.33-1.2,0.15-1.6c0.48-0.4,1.2-0.33,1.6,0.15c2.96,3.58,5.78,7.26,8.36,10.92c0.36,0.51,0.24,1.22-0.27,1.58
					C1011.97,520.51,1011.74,520.58,1011.51,520.58z M994.05,499.62c-0.28,0-0.57-0.11-0.79-0.32c-3.07-2.97-6.54-5.86-10.31-8.61
					c-0.51-0.37-0.62-1.08-0.25-1.59c0.37-0.51,1.08-0.62,1.59-0.25c3.85,2.81,7.4,5.77,10.55,8.81c0.45,0.44,0.46,1.15,0.03,1.61
					C994.65,499.5,994.35,499.62,994.05,499.62z M972.18,483.51c-0.19,0-0.39-0.05-0.57-0.15c-3.74-2.16-7.78-4.27-12.02-6.27
					c-0.57-0.27-0.81-0.94-0.54-1.51c0.27-0.57,0.95-0.81,1.51-0.54c4.3,2.03,8.4,4.16,12.19,6.35c0.54,0.31,0.73,1.01,0.42,1.55
					C972.95,483.3,972.57,483.51,972.18,483.51z M947.53,471.78c-0.14,0-0.28-0.03-0.42-0.08c-4.06-1.6-8.36-3.17-12.79-4.66
					c-0.6-0.2-0.91-0.84-0.71-1.44c0.2-0.59,0.85-0.91,1.44-0.71c4.47,1.5,8.81,3.08,12.91,4.7c0.58,0.23,0.87,0.89,0.64,1.47
					C948.41,471.51,947.98,471.78,947.53,471.78z M921.62,463.03c-0.1,0-0.21-0.01-0.32-0.04c-4.22-1.22-8.65-2.42-13.17-3.56
					c-0.61-0.15-0.98-0.77-0.82-1.38c0.15-0.61,0.77-0.98,1.38-0.82c4.54,1.15,9,2.35,13.25,3.58c0.6,0.17,0.95,0.8,0.77,1.41
					C922.57,462.71,922.11,463.03,921.62,463.03z M895.1,456.3c-0.08,0-0.17-0.01-0.25-0.03c-4.32-0.96-8.81-1.9-13.37-2.79
					c-0.61-0.12-1.02-0.72-0.9-1.33c0.12-0.62,0.72-1.02,1.33-0.9c4.57,0.9,9.09,1.84,13.42,2.8c0.61,0.14,1,0.74,0.86,1.36
					C896.09,455.94,895.62,456.3,895.1,456.3z M868.25,451.02c-0.07,0-0.13,0-0.2-0.02c-4.36-0.76-8.89-1.51-13.48-2.23
					c-0.62-0.1-1.04-0.68-0.95-1.3c0.1-0.62,0.68-1.04,1.3-0.95c4.6,0.72,9.15,1.47,13.52,2.23c0.62,0.11,1.03,0.7,0.92,1.31
					C869.27,450.63,868.79,451.02,868.25,451.02z M841.21,446.78c-0.05,0-0.11,0-0.16-0.01c-4.46-0.63-8.98-1.23-13.55-1.81
					c-0.62-0.08-1.06-0.65-0.98-1.27c0.08-0.62,0.64-1.07,1.27-0.98c4.58,0.58,9.11,1.18,13.58,1.81c0.62,0.09,1.05,0.66,0.97,1.28
					C842.25,446.37,841.76,446.78,841.21,446.78z M814.05,443.33c-0.04,0-0.09,0-0.13-0.01c-4.49-0.51-9.02-1.01-13.59-1.49
					c-0.62-0.07-1.08-0.62-1.01-1.25c0.07-0.62,0.62-1.07,1.25-1.01c4.58,0.48,9.12,0.97,13.62,1.49c0.62,0.07,1.07,0.63,1,1.26
					C815.11,442.9,814.62,443.33,814.05,443.33z M786.83,440.48c-0.04,0-0.07,0-0.11,0c-4.51-0.43-9.05-0.84-13.62-1.24
					c-0.62-0.05-1.09-0.61-1.03-1.23c0.06-0.62,0.61-1.08,1.23-1.03c4.58,0.4,9.12,0.81,13.64,1.24c0.62,0.06,1.08,0.61,1.02,1.24
					C787.91,440.04,787.41,440.48,786.83,440.48z M759.57,438.1c-0.03,0-0.06,0-0.09,0c-4.52-0.37-9.07-0.72-13.64-1.06
					c-0.63-0.05-1.09-0.59-1.05-1.22c0.05-0.63,0.6-1.1,1.22-1.05c4.57,0.34,9.13,0.7,13.65,1.06c0.62,0.05,1.09,0.6,1.04,1.22
					C760.65,437.64,760.15,438.1,759.57,438.1z M732.28,436.05c-0.03,0-0.05,0-0.08,0c-4.53-0.32-9.08-0.62-13.65-0.92
					c-0.63-0.04-1.1-0.58-1.06-1.21c0.04-0.63,0.58-1.1,1.21-1.06c4.57,0.3,9.12,0.61,13.66,0.92c0.63,0.04,1.1,0.59,1.05,1.21
					C733.37,435.59,732.87,436.05,732.28,436.05z M704.97,434.25c-0.02,0-0.05,0-0.07,0c-4.54-0.28-9.09-0.56-13.66-0.83
					c-0.63-0.04-1.1-0.57-1.07-1.2c0.04-0.63,0.58-1.11,1.2-1.07c4.57,0.27,9.12,0.55,13.66,0.83c0.63,0.04,1.1,0.58,1.06,1.2
					C706.06,433.79,705.56,434.25,704.97,434.25z M677.65,432.63c-0.02,0-0.04,0-0.07,0c-4.53-0.26-9.07-0.51-13.62-0.77
					c-0.63-0.03-1.11-0.57-1.07-1.2c0.04-0.63,0.54-1.1,1.2-1.07c4.55,0.25,9.09,0.51,13.63,0.77c0.63,0.04,1.1,0.57,1.07,1.2
					C678.75,432.17,678.25,432.63,677.65,432.63z M650.37,431.12c-0.02,0-0.04,0-0.06,0l-13.68-0.74c-0.63-0.03-1.11-0.57-1.07-1.2
					c0.03-0.63,0.59-1.1,1.2-1.07l13.68,0.74c0.63,0.03,1.11,0.57,1.07,1.2C651.47,430.65,650.97,431.12,650.37,431.12z
					 M622.98,429.63c-0.02,0-0.04,0-0.06,0l-13.66-0.75c-0.63-0.03-1.11-0.57-1.07-1.2c0.03-0.63,0.57-1.09,1.2-1.07l13.66,0.75
					c0.63,0.03,1.11,0.57,1.07,1.2C624.08,429.16,623.58,429.63,622.98,429.63z M595.66,428.13c-0.02,0-0.04,0-0.06,0
					c-4.56-0.26-9.12-0.52-13.66-0.78c-0.63-0.04-1.1-0.57-1.07-1.2c0.04-0.63,0.54-1.11,1.2-1.07c4.55,0.27,9.1,0.53,13.66,0.78
					c0.63,0.04,1.1,0.57,1.07,1.2C596.76,427.66,596.26,428.13,595.66,428.13z M568.34,426.53c-0.02,0-0.05,0-0.07,0
					c-4.57-0.28-9.12-0.56-13.66-0.85c-0.63-0.04-1.1-0.58-1.06-1.21c0.04-0.63,0.58-1.1,1.21-1.06c4.54,0.29,9.09,0.57,13.65,0.85
					c0.63,0.04,1.1,0.58,1.06,1.2C569.43,426.07,568.93,426.53,568.34,426.53z M541.03,424.78c-0.03,0-0.05,0-0.08,0
					c-4.57-0.31-9.12-0.63-13.65-0.96c-0.63-0.04-1.1-0.59-1.05-1.21c0.05-0.63,0.59-1.09,1.22-1.05c4.53,0.33,9.08,0.65,13.64,0.96
					c0.63,0.04,1.1,0.58,1.06,1.21C542.12,424.32,541.62,424.78,541.03,424.78z M513.73,422.8c-0.03,0-0.06,0-0.09,0
					c-4.57-0.36-9.12-0.72-13.65-1.1c-0.62-0.05-1.09-0.6-1.04-1.23c0.05-0.62,0.62-1.07,1.23-1.04c4.52,0.38,9.06,0.75,13.63,1.1
					c0.63,0.05,1.09,0.6,1.04,1.22C514.82,422.35,514.32,422.8,513.73,422.8z M486.46,420.5c-0.03,0-0.07,0-0.1,0
					c-4.57-0.42-9.12-0.85-13.63-1.3c-0.62-0.06-1.08-0.62-1.02-1.24c0.06-0.62,0.62-1.07,1.24-1.02c4.5,0.45,9.04,0.88,13.61,1.3
					c0.62,0.06,1.08,0.61,1.03,1.23C487.54,420.06,487.04,420.5,486.46,420.5z M459.23,417.78c-0.04,0-0.08,0-0.12-0.01
					c-4.58-0.5-9.11-1.01-13.61-1.55c-0.62-0.07-1.07-0.64-0.99-1.26c0.07-0.62,0.63-1.07,1.26-0.99c4.49,0.54,9.01,1.05,13.58,1.55
					c0.62,0.07,1.07,0.63,1.01,1.25C460.29,417.35,459.8,417.78,459.23,417.78z M432.06,414.53c-0.05,0-0.1,0-0.15-0.01
					c-4.57-0.6-9.1-1.23-13.57-1.88c-0.62-0.09-1.05-0.67-0.96-1.29c0.09-0.62,0.67-1.05,1.29-0.96c4.46,0.65,8.97,1.28,13.54,1.88
					c0.62,0.08,1.06,0.65,0.98,1.27C433.11,414.11,432.62,414.53,432.06,414.53z M404.98,410.57c-0.06,0-0.12,0-0.18-0.01
					c-4.61-0.75-9.15-1.53-13.51-2.31c-0.62-0.11-1.03-0.7-0.92-1.32c0.11-0.62,0.71-1.03,1.32-0.92c4.34,0.78,8.87,1.56,13.47,2.31
					c0.62,0.1,1.04,0.68,0.94,1.3C406.01,410.17,405.53,410.57,404.98,410.57z M378.06,405.68c-0.07,0-0.15-0.01-0.23-0.02
					c-4.56-0.92-9.07-1.89-13.4-2.88c-0.61-0.14-0.99-0.75-0.85-1.36c0.14-0.61,0.75-0.99,1.36-0.85c4.31,0.98,8.81,1.95,13.35,2.87
					c0.61,0.12,1.01,0.72,0.89,1.34C379.06,405.31,378.58,405.68,378.06,405.68z M351.39,399.58c-0.09,0-0.19-0.01-0.29-0.04
					c-4.53-1.17-8.98-2.4-13.22-3.65c-0.6-0.18-0.94-0.81-0.77-1.41c0.18-0.6,0.81-0.95,1.41-0.77c4.22,1.24,8.64,2.47,13.14,3.63
					c0.61,0.16,0.97,0.78,0.81,1.38C352.35,399.24,351.89,399.58,351.39,399.58z M325.17,391.8c-0.12,0-0.24-0.02-0.37-0.06
					c-4.45-1.51-8.78-3.11-12.88-4.73c-0.58-0.23-0.87-0.89-0.64-1.48c0.23-0.58,0.89-0.87,1.48-0.64
					c4.06,1.61,8.36,3.19,12.77,4.69c0.59,0.2,0.91,0.85,0.71,1.44C326.09,391.5,325.65,391.8,325.17,391.8z M299.81,381.67
					c-0.16,0-0.33-0.03-0.48-0.11c-4.28-2.01-8.38-4.13-12.2-6.29c-0.55-0.31-0.74-1-0.43-1.55c0.31-0.54,1-0.74,1.55-0.43
					c3.76,2.14,7.82,4.23,12.04,6.21c0.57,0.27,0.81,0.94,0.54,1.51C300.65,381.43,300.24,381.67,299.81,381.67z M276.19,368.16
					c-0.23,0-0.45-0.07-0.65-0.21c-3.87-2.73-7.48-5.6-10.72-8.54c-0.47-0.42-0.5-1.14-0.08-1.6c0.42-0.47,1.14-0.5,1.6-0.08
					c3.17,2.88,6.71,5.7,10.5,8.37c0.51,0.36,0.64,1.07,0.27,1.58C276.89,367.99,276.54,368.16,276.19,368.16z M256.27,349.9
					c-0.33,0-0.66-0.14-0.88-0.42c-2.95-3.65-5.53-7.5-7.66-11.44c-0.3-0.55-0.09-1.24,0.46-1.54c0.55-0.3,1.24-0.09,1.54,0.46
					c2.07,3.82,4.57,7.55,7.43,11.09c0.39,0.49,0.32,1.2-0.17,1.6C256.77,349.82,256.52,349.9,256.27,349.9z M243.27,326.12
					c-0.46,0-0.9-0.29-1.07-0.75c-1.6-4.4-2.95-8.84-4.01-13.19c-0.15-0.61,0.23-1.22,0.84-1.37c0.62-0.14,1.22,0.23,1.37,0.84
					c1.04,4.27,2.36,8.63,3.93,12.95c0.22,0.59-0.09,1.24-0.68,1.46C243.53,326.09,243.4,326.12,243.27,326.12z M236.91,299.6
					c-0.57,0-1.06-0.43-1.13-1.01c-0.43-3.8-0.65-7.63-0.65-11.4c0-0.8,0.01-1.6,0.03-2.39c0.02-0.62,0.52-1.11,1.13-1.11
					c0.01,0,0.02,0,0.03,0c0.63,0.01,1.12,0.54,1.11,1.16c-0.02,0.78-0.03,1.56-0.03,2.34c0,3.68,0.21,7.43,0.63,11.15
					c0.07,0.62-0.38,1.19-1,1.26C236.99,299.59,236.95,299.6,236.91,299.6z M237.58,272.42c-0.06,0-0.12,0-0.19-0.02
					c-0.62-0.1-1.04-0.69-0.93-1.31c0.74-4.48,1.81-8.98,3.18-13.39c0.19-0.6,0.82-0.94,1.42-0.75c0.6,0.19,0.93,0.82,0.75,1.42
					c-1.34,4.31-2.38,8.71-3.11,13.09C238.61,272.02,238.12,272.42,237.58,272.42z M245.59,246.46c-0.16,0-0.32-0.03-0.47-0.1
					c-0.57-0.26-0.82-0.93-0.56-1.5c1.86-4.08,4.03-8.17,6.43-12.16c0.32-0.54,1.02-0.71,1.56-0.39c0.54,0.32,0.71,1.02,0.39,1.56
					c-2.36,3.92-4.49,7.93-6.31,11.93C246.43,246.21,246.02,246.46,245.59,246.46z M259.59,223.11c-0.24,0-0.48-0.07-0.68-0.23
					c-0.5-0.38-0.6-1.09-0.23-1.59c2.67-3.57,5.6-7.14,8.72-10.63c0.42-0.47,1.13-0.51,1.6-0.09c0.47,0.42,0.51,1.14,0.09,1.6
					c-3.07,3.44-5.96,6.96-8.59,10.48C260.28,222.95,259.94,223.11,259.59,223.11z M277.73,202.72c-0.3,0-0.59-0.12-0.82-0.35
					c-0.44-0.45-0.42-1.17,0.03-1.61c3.2-3.09,6.64-6.18,10.2-9.2c0.48-0.41,1.2-0.34,1.6,0.13c0.41,0.48,0.35,1.2-0.13,1.6
					c-3.53,2.99-6.92,6.05-10.09,9.1C278.3,202.62,278.02,202.72,277.73,202.72z M298.55,185.04c-0.34,0-0.68-0.16-0.91-0.45
					c-0.38-0.5-0.28-1.21,0.22-1.59c3.56-2.69,7.31-5.37,11.16-7.99c0.52-0.35,1.22-0.22,1.58,0.3c0.35,0.52,0.22,1.22-0.3,1.58
					c-3.82,2.6-7.54,5.27-11.06,7.93C299.03,184.97,298.79,185.04,298.55,185.04z M321.13,169.64c-0.38,0-0.75-0.19-0.97-0.54
					c-0.33-0.53-0.17-1.23,0.37-1.56c3.8-2.35,7.77-4.71,11.8-6.99c0.54-0.31,1.24-0.12,1.55,0.43c0.31,0.55,0.12,1.24-0.43,1.55
					c-4,2.27-7.95,4.61-11.72,6.95C321.54,169.58,321.34,169.64,321.13,169.64z M344.9,156.13c-0.41,0-0.8-0.22-1.01-0.61
					c-0.29-0.56-0.08-1.24,0.48-1.53c3.96-2.07,8.08-4.14,12.25-6.15c0.56-0.27,1.24-0.04,1.52,0.53c0.27,0.56,0.04,1.24-0.53,1.52
					c-4.15,2-8.25,4.06-12.19,6.12C345.26,156.09,345.08,156.13,344.9,156.13z M369.52,144.22c-0.43,0-0.85-0.25-1.04-0.67
					c-0.26-0.57,0-1.24,0.57-1.5c4.1-1.84,8.33-3.67,12.58-5.44c0.58-0.24,1.24,0.03,1.49,0.61c0.24,0.58-0.03,1.24-0.61,1.49
					c-4.23,1.76-8.44,3.59-12.52,5.42C369.83,144.19,369.68,144.22,369.52,144.22z M394.76,133.68c-0.45,0-0.88-0.27-1.06-0.72
					c-0.23-0.58,0.06-1.24,0.65-1.47c4.18-1.63,8.49-3.25,12.83-4.82c0.59-0.21,1.24,0.09,1.45,0.68c0.21,0.59-0.09,1.24-0.68,1.45
					c-4.32,1.57-8.61,3.18-12.78,4.8C395.03,133.66,394.89,133.68,394.76,133.68z M420.46,124.34c-0.47,0-0.91-0.3-1.08-0.77
					c-0.2-0.59,0.12-1.24,0.71-1.44c4.25-1.44,8.63-2.88,13.02-4.27c0.6-0.19,1.24,0.14,1.43,0.74c0.19,0.6-0.14,1.24-0.74,1.43
					c-4.37,1.39-8.74,2.82-12.97,4.26C420.71,124.32,420.58,124.34,420.46,124.34z M446.53,116.07c-0.49,0-0.94-0.32-1.09-0.81
					c-0.18-0.6,0.16-1.23,0.77-1.41c4.33-1.28,8.76-2.55,13.17-3.77c0.6-0.17,1.23,0.19,1.4,0.79c0.17,0.6-0.19,1.23-0.79,1.4
					c-4.4,1.22-8.81,2.48-13.13,3.76C446.75,116.06,446.64,116.07,446.53,116.07z M472.89,108.77c-0.51,0-0.97-0.34-1.1-0.85
					c-0.16-0.61,0.21-1.23,0.82-1.38c4.37-1.13,8.84-2.24,13.29-3.32c0.61-0.14,1.22,0.23,1.37,0.84c0.15,0.61-0.23,1.22-0.84,1.37
					c-4.44,1.07-8.9,2.18-13.25,3.31C473.08,108.75,472.98,108.77,472.89,108.77z M499.48,102.36c-0.52,0-0.99-0.36-1.11-0.89
					c-0.14-0.61,0.25-1.22,0.86-1.36c4.41-0.99,8.91-1.96,13.39-2.89c0.62-0.13,1.21,0.27,1.34,0.88c0.13,0.61-0.27,1.21-0.88,1.34
					c-4.47,0.93-8.96,1.9-13.35,2.88C499.64,102.35,499.56,102.36,499.48,102.36z M526.26,96.8c-0.53,0-1.01-0.38-1.11-0.92
					c-0.12-0.62,0.29-1.21,0.9-1.33c4.46-0.86,8.98-1.69,13.43-2.47c0.62-0.11,1.21,0.3,1.32,0.92c0.11,0.62-0.3,1.21-0.92,1.32
					c-4.44,0.78-8.95,1.61-13.4,2.47C526.4,96.79,526.33,96.8,526.26,96.8z M553.14,92.06c-0.55,0-1.03-0.4-1.12-0.95
					c-0.1-0.62,0.32-1.2,0.94-1.3c4.5-0.73,9.01-1.42,13.52-2.08c0.63-0.09,1.2,0.34,1.29,0.96c0.09,0.62-0.34,1.2-0.96,1.29
					c-4.5,0.66-9,1.35-13.49,2.08C553.26,92.05,553.2,92.06,553.14,92.06z M580.19,88.09c-0.56,0-1.05-0.42-1.12-0.99
					c-0.08-0.62,0.36-1.19,0.98-1.27c4.53-0.6,9.06-1.16,13.6-1.7c0.62-0.09,1.19,0.37,1.26,1c0.07,0.62-0.37,1.19-1,1.26
					c-4.53,0.53-9.05,1.1-13.57,1.69C580.29,88.09,580.24,88.09,580.19,88.09z M607.4,84.9c-0.58,0-1.07-0.43-1.13-1.02
					c-0.06-0.62,0.39-1.18,1.01-1.25c4.56-0.47,9.11-0.9,13.67-1.31c0.62-0.05,1.17,0.41,1.23,1.03c0.06,0.62-0.41,1.18-1.03,1.23
					c-4.54,0.4-9.09,0.84-13.64,1.31C607.47,84.89,607.44,84.9,607.4,84.9z M634.68,82.48c-0.59,0-1.09-0.45-1.13-1.05
					c-0.05-0.63,0.42-1.17,1.05-1.22c4.57-0.34,9.12-0.64,13.67-0.91c0.65-0.05,1.16,0.44,1.2,1.07c0.04,0.63-0.44,1.16-1.07,1.2
					c-4.54,0.27-9.09,0.57-13.64,0.91C634.73,82.48,634.71,82.48,634.68,82.48z"/><path fill="#3a67b3" d="M662.24,80.86c-0.6,0-1.11-0.48-1.13-1.09c-0.03-0.63,0.46-1.16,1.09-1.18c2.27-0.1,4.55-0.19,6.81-0.27
					c0.6-0.02,1.15,0.47,1.18,1.09c0.02,0.63-0.47,1.15-1.09,1.18c-2.26,0.08-4.53,0.17-6.8,0.27
					C662.27,80.86,662.25,80.86,662.24,80.86z"/><polygon fill="#156889" points="628.92 82.55 664.98 84.74 654.14 66.46"/><polygon fill="#2678aa" points="662.16 90.52 709.14 76.7 650.91 74.05"/><polygon fill="#2678aa" points="709.18 76.64 636.84 43.05 647.15 59.8"/><polygon fill="#1c709b" points="709.14 76.7 650.79 74.2 628.92 82.55 647.15 59.53"/><path fill="#a7cbe6" d="M405.86,696.81c4.48-1.09,11.2-3.38,20.66-10.69c5.79-4.5,13.85-10.7,20.54-21.72
				c0.29-0.48,0.8-1.31,1.41-2.44c0.03-0.05,0.07-0.11,0.1-0.17c0.06-0.09,0.12-0.2,0.19-0.31c0.21-0.38,0.43-0.78,0.69-1.2
				c4.48-8.49,12.54-27.06,5.2-42.53c-0.41-0.9-5.83-12.11-12.39-11.53c-8.19,0.8-12.38,19.34-16.02,18.56
				c-1.85-0.4-1.29-5.09-2.57-10.64c-2.76-12.49-13.82-26.29-25.1-25.39c-5.34,0.37-10.93,4.11-13.45,9.49
				c-4.19,8.7,4.71,19.65,3.73,20.29c-1.47,0.86-11.94-24.49-27.56-25.08c-5.48-0.18-12.05,2.68-13.78,7.15
				c-2.52,6.56,6.6,13.86,4.51,16.48c-2.22,2.79-11.93-5.75-26.2-4.41c-3.62,0.36-12.13,1.18-16.15,7.53
				c-3.53,5.47-2.85,13.31,1.03,18.25c3.6,4.54,9,5.44,10.49,5.64c9.64,1.48,13.75-5.6,29.48-8.39c5.49-0.99,11.67-1.33,12.31,0.45
				c0.38,1.34-2.75,2.65-5.26,7c-0.06,0.09-0.15,0.21-0.24,0.41c-0.75,1.34-3.39,6.11-2.01,11c0.03,0.21,1.64,5.49,5.68,6.42
				c2.08,0.52,3.95-0.38,4.78-0.73c8.22-3.72,19.54-5.83,20.18-4.5c0.78,1.5-12.54,7.36-11.81,12.96
				c0.61,4.65,10.55,6.48,11.84,6.71c10.71,1.89,20.27-2.85,20.52-2.08c0.19,0.66-8.24,2.47-13.48,9.53
				c-2.46,3.27-5.54,9.4-3.29,12.79C392.61,699.9,401.94,697.73,405.86,696.81z"/><path fill="#fff" d="M395.26,666.91c-0.23-1.98,1.49-3.42,3.11-4.2c2.04-0.99,4.3-1.43,6.54-1.62c4.72-0.41,9.62,0.31,14.2-1.14
				c2.32-0.74,4.46-2.02,5.91-3.99c-6.78-3.1-13.19-7.01-19.5-10.96c-2.36-1.48-4.72-2.97-7.1-4.44c-7.5,0.04-12.96,6.53-20.18,7.75
				c-1.92,0.32-3.87,0.22-5.71-0.46c-0.31-0.11-0.1-0.58,0.21-0.47c3.51,1.3,7.28,0.25,10.55-1.27c3.23-1.5,6.17-3.58,9.49-4.89
				c1.56-0.62,3.2-1.03,4.87-1.13c-6.44-3.95-13.03-7.66-20.12-10.29c-8.59-3.18-18.01-4.83-27.1-3.09
				c-1.14,0.22-2.27,0.49-3.37,0.82c-0.32,0.08-0.5-0.39-0.19-0.49c8.61-2.49,17.76-1.74,26.28,0.76c1.45,0.42,2.88,0.91,4.29,1.43
				c-0.03-0.05-0.06-0.1-0.05-0.17c0.54-4.51-3.25-7.74-6.58-10.04c-1.82-1.26-3.71-2.45-5.3-3.99c-1.32-1.28-2.57-2.85-2.68-4.77
				c-0.02-0.33,0.49-0.39,0.51-0.06c0.13,2.24,1.91,4.01,3.53,5.36c1.77,1.47,3.75,2.64,5.59,4.01c3.03,2.25,5.92,5.51,5.43,9.56
				c-0.02,0.13-0.11,0.18-0.21,0.19c7.95,2.95,15.34,7.26,22.52,11.73c3.99,2.48,7.95,5.02,11.98,7.44
				c2.39-5.05,2.66-11.14,0.88-16.42c-0.97-2.88-2.62-5.29-4.66-7.52c-2.22-2.42-4.7-4.68-6.31-7.58c-1.59-2.86-2.21-6.47-0.52-9.44
				c0.16-0.28,0.63-0.08,0.47,0.21c-1.71,2.99-0.95,6.59,0.74,9.41c1.74,2.89,4.29,5.13,6.5,7.63c1.92,2.16,3.42,4.54,4.32,7.3
				c0.84,2.56,1.19,5.27,1.1,7.96c-0.1,3.01-0.77,6.01-2.07,8.73c4.91,2.93,9.93,5.68,15.22,7.89c3.67,1.53,7.49,2.79,11.39,3.65
				c-3.65-7.42,0.38-15.76-0.18-23.53c-0.16-2.27-0.73-4.5-1.93-6.46c-0.17-0.28,0.24-0.58,0.41-0.3
				c4.41,7.18,0.51,15.78,0.68,23.51c0.05,2.33,0.48,4.64,1.54,6.73c0.03,0.06,0.02,0.12,0.01,0.16c2.96,0.62,5.95,1.01,8.96,1.07
				c-0.07,0.1-0.13,0.21-0.19,0.31c-0.03,0.06-0.06,0.12-0.1,0.17c-5.14-0.13-10.28-1.16-15.22-2.76c-2.64-0.86-5.22-1.89-7.74-3.03
				c-2.41,3.37-6.58,4.71-10.54,5.08c-4.6,0.43-9.32-0.23-13.83,0.98c-2.08,0.56-5.68,1.89-5.37,4.62
				C395.81,667.18,395.3,667.24,395.26,666.91z"/><path fill="#c2dcf0" d="M409.69,596.82c-2.13-2.86-0.75-7.24,2.12-9.34c2.87-2.1,6.69-2.39,10.24-2.1
			c5.75,0.48,10.88,2.14,16.16,4.11c-3.8-3.77-7.45-7.68-10.98-11.69c-2.33-2.65-4.6-5.36-6.82-8.12
			c-6.46,4.75-14.35,7.51-22.36,7.82c-3.04,0.11-6.49-0.33-8.3-2.76c-2.11-2.85-0.73-7.23,2.12-9.34c2.86-2.1,6.66-2.4,10.2-2.11
			c5.94,0.49,11.21,2.25,16.67,4.31c-6.73-8.57-12.86-17.62-18.15-27.13c-7.05,3.54-15.16,4.97-23,4.02
			c-3.01-0.37-6.35-1.35-7.75-4.04c-1.63-3.15,0.42-7.26,3.58-8.88c3.15-1.62,6.96-1.32,10.4-0.47c5.58,1.37,10.36,3.82,15.25,6.6
			c-5.43-10.11-10.13-21.1-11.46-32.53c-0.03-0.24-0.04-0.48-0.07-0.72c-7.55,2.58-15.88,2.86-23.59,0.77
			c-2.93-0.8-6.1-2.24-7.1-5.11c-1.17-3.35,1.45-7.12,4.81-8.28c3.35-1.16,7.07-0.31,10.36,1.02c5.8,2.34,10.47,5.81,15.32,9.61
			c-1.18-13.25,0.08-26.77-1.55-39.96c-7.66,2.7-16.14,3.04-23.97,0.91c-2.93-0.8-6.1-2.24-7.1-5.11c-1.17-3.35,1.45-7.12,4.81-8.28
			s7.07-0.31,10.36,1.02c5.95,2.41,10.72,6,15.71,9.92c-0.47-3.29-1.12-6.55-2.07-9.79c-1.9-6.55-5.19-12.62-9.42-18.04
			c-6.79,4.79-15.08,7.42-23.39,7.38c-3.04-0.01-6.47-0.6-8.17-3.11c-1.99-2.94-0.43-7.26,2.51-9.24c2.94-1.98,6.76-2.12,10.28-1.68
			c6.46,0.8,12.05,3.09,17.97,5.64c-7-8.61-16.39-15.47-26.33-19.78c-6.64,3.56-14.29,5.23-21.82,4.72
			c-3.03-0.21-6.42-1.01-7.96-3.62c-1.8-3.06,0.03-7.27,3.1-9.06c3.06-1.79,6.88-1.69,10.36-1.03c5.56,1.06,10.4,3.19,15.35,5.65
			c0.2-0.02,0.42,0.01,0.66,0.11c8.55,3.48,16.34,8.72,22.99,15.1c1.47,1.41,2.89,2.87,4.26,4.39c-2.48-6.9-3.07-14.48-1.61-21.67
			c0.6-2.98,1.84-6.23,4.64-7.42c3.27-1.39,7.2,0.98,8.58,4.26c1.37,3.27,0.77,7.04-0.34,10.41c-2.08,6.28-5.48,11.4-9.21,16.81
			c2.73,3.31,5.14,6.88,7.02,10.73c2.84,5.84,4.43,11.98,5.34,18.26c0.84-7.52,3.82-14.79,8.54-20.7c1.89-2.37,4.48-4.7,7.51-4.48
			c3.54,0.26,5.96,4.16,5.69,7.7c-0.27,3.54-2.52,6.61-5.05,9.11c-4.84,4.77-10.38,7.8-16.34,11.01c1.2,10.4,0.74,21.13,1.06,31.48
			c0.1,3.26,0.29,6.49,0.66,9.7c0.5-8.2,3.56-16.23,8.67-22.65c1.89-2.38,4.47-4.71,7.5-4.49c3.54,0.25,5.96,4.16,5.7,7.69
			c-0.27,3.54-2.52,6.62-5.04,9.11c-4.95,4.89-10.62,7.95-16.73,11.25c0.43,3.41,1.07,6.79,2.05,10.14
			c1.79,6.12,4.28,12.03,7.1,17.74c0.75,1.52,1.53,3.02,2.33,4.52c-0.26-7.44,1.57-14.96,5.26-21.43c1.51-2.64,3.7-5.34,6.73-5.59
			c3.54-0.29,6.53,3.2,6.81,6.73c0.28,3.54-1.48,6.93-3.59,9.78c-3.91,5.27-8.69,9.03-13.87,12.96
			c5.18,9.29,11.24,18.11,17.82,26.47c-2.17-7.46-2.15-15.56,0.12-23c0.88-2.91,2.43-6.03,5.32-6.94c3.38-1.07,7.08,1.67,8.13,5.06
			c1.06,3.39,0.1,7.08-1.33,10.33c-2.71,6.16-6.69,10.99-10.99,16.11c0.88,1.1,1.77,2.2,2.67,3.28c4.93,5.95,10.14,11.7,15.66,17.14
			c-2-7.3-1.92-15.17,0.28-22.42c0.88-2.91,2.43-6.03,5.32-6.94c3.38-1.07,7.08,1.67,8.13,5.06c1.06,3.39,0.1,7.08-1.33,10.33
			c-2.64,5.99-6.47,10.72-10.64,15.69c6.36,6.13,13.12,11.84,20.31,16.96c1.5,1.07-0.26,3.31-1.75,2.25
			c-7.25-5.17-14.07-10.95-20.49-17.14c-6.49,4.76-14.44,7.53-22.51,7.82C414.98,599.7,411.51,599.26,409.69,596.82z"/><path fill="#a7cbe6" d="M854.94,774.22c-4.48-1.09-11.2-3.38-20.66-10.69c-5.79-4.5-13.85-10.7-20.54-21.72
				c-0.29-0.48-0.8-1.31-1.41-2.44c-0.03-0.05-0.07-0.11-0.1-0.17c-0.06-0.09-0.12-0.2-0.19-0.31c-0.21-0.38-0.43-0.78-0.69-1.2
				c-4.48-8.49-12.54-27.06-5.2-42.53c0.41-0.9,5.83-12.11,12.39-11.53c8.19,0.8,12.38,19.34,16.02,18.56
				c1.85-0.4,1.29-5.09,2.57-10.64c2.76-12.49,13.82-26.29,25.1-25.39c5.34,0.37,10.93,4.11,13.45,9.49
				c4.19,8.7-4.71,19.65-3.73,20.29c1.47,0.86,11.94-24.49,27.56-25.08c5.48-0.18,12.05,2.68,13.78,7.15
				c2.52,6.56-6.6,13.86-4.51,16.48c2.22,2.79,11.93-5.75,26.2-4.41c3.62,0.36,12.13,1.18,16.15,7.53
				c3.53,5.47,2.85,13.31-1.03,18.25c-3.6,4.54-9,5.44-10.49,5.64c-9.64,1.48-13.75-5.6-29.48-8.39
				c-5.49-0.99-11.67-1.33-12.31,0.45c-0.38,1.34,2.75,2.65,5.26,7c0.06,0.09,0.15,0.21,0.24,0.41c0.75,1.34,3.39,6.11,2.01,11
				c-0.03,0.21-1.64,5.49-5.68,6.42c-2.08,0.52-3.95-0.38-4.78-0.73c-8.22-3.72-19.54-5.83-20.18-4.5
				c-0.78,1.5,12.54,7.36,11.81,12.96c-0.61,4.65-10.55,6.48-11.84,6.71c-10.71,1.89-20.27-2.85-20.52-2.08
				c-0.19,0.66,8.24,2.47,13.48,9.53c2.46,3.27,5.54,9.4,3.29,12.79C868.19,777.31,858.86,775.14,854.94,774.22z"/><path fill="#fff" d="M865.54,744.32c0.23-1.98-1.49-3.42-3.11-4.2c-2.04-0.99-4.3-1.43-6.54-1.62c-4.72-0.41-9.62,0.31-14.2-1.14
				c-2.32-0.74-4.46-2.02-5.91-3.99c6.78-3.1,13.19-7.01,19.5-10.96c2.36-1.48,4.72-2.97,7.1-4.44c7.5,0.04,12.96,6.53,20.18,7.75
				c1.92,0.32,3.87,0.22,5.71-0.46c0.31-0.11,0.1-0.58-0.21-0.47c-3.51,1.3-7.28,0.25-10.55-1.27c-3.23-1.5-6.17-3.58-9.49-4.89
				c-1.56-0.62-3.2-1.03-4.87-1.13c6.44-3.95,13.03-7.66,20.12-10.29c8.59-3.18,18.01-4.83,27.1-3.09c1.14,0.22,2.27,0.49,3.37,0.82
				c0.32,0.08,0.5-0.39,0.19-0.49c-8.61-2.49-17.76-1.74-26.28,0.76c-1.45,0.42-2.88,0.91-4.29,1.43c0.03-0.05,0.06-0.1,0.05-0.17
				c-0.54-4.51,3.25-7.74,6.58-10.04c1.82-1.26,3.71-2.45,5.3-3.99c1.32-1.28,2.57-2.85,2.68-4.77c0.02-0.33-0.49-0.39-0.51-0.06
				c-0.13,2.24-1.91,4.01-3.53,5.36c-1.77,1.47-3.75,2.64-5.59,4.01c-3.03,2.25-5.92,5.51-5.43,9.56c0.02,0.13,0.11,0.18,0.21,0.19
				c-7.95,2.95-15.34,7.26-22.52,11.73c-3.99,2.48-7.95,5.02-11.98,7.44c-2.39-5.05-2.66-11.14-0.88-16.42
				c0.97-2.88,2.62-5.29,4.66-7.52c2.22-2.42,4.7-4.68,6.31-7.58c1.59-2.86,2.21-6.47,0.52-9.44c-0.16-0.28-0.63-0.08-0.47,0.21
				c1.71,2.99,0.95,6.59-0.74,9.41c-1.74,2.89-4.29,5.13-6.5,7.63c-1.92,2.16-3.42,4.54-4.32,7.3c-0.84,2.56-1.19,5.27-1.1,7.96
				c0.1,3.01,0.77,6.01,2.07,8.73c-4.91,2.93-9.93,5.68-15.22,7.89c-3.67,1.53-7.49,2.79-11.39,3.65
				c3.65-7.42-0.38-15.76,0.18-23.53c0.16-2.27,0.73-4.5,1.93-6.46c0.17-0.28-0.24-0.58-0.41-0.3c-4.41,7.18-0.51,15.78-0.68,23.51
				c-0.05,2.33-0.48,4.64-1.54,6.73c-0.03,0.06-0.02,0.12-0.01,0.16c-2.96,0.62-5.95,1.01-8.96,1.07c0.07,0.1,0.13,0.21,0.19,0.31
				c0.03,0.06,0.06,0.12,0.1,0.17c5.14-0.13,10.28-1.16,15.22-2.76c2.64-0.86,5.22-1.89,7.74-3.03c2.41,3.37,6.58,4.71,10.54,5.08
				c4.6,0.43,9.32-0.23,13.83,0.98c2.08,0.56,5.68,1.89,5.37,4.62C864.99,744.59,865.5,744.65,865.54,744.32z"/><path fill="#c2dcf0" d="M851.12,674.23c2.13-2.86,0.75-7.24-2.12-9.34c-2.87-2.1-6.69-2.39-10.24-2.1
			c-5.75,0.48-10.88,2.14-16.16,4.11c3.8-3.77,7.45-7.68,10.98-11.69c2.33-2.65,4.6-5.36,6.82-8.12c6.46,4.75,14.35,7.51,22.36,7.82
			c3.04,0.11,6.49-0.33,8.3-2.76c2.11-2.85,0.73-7.23-2.12-9.34c-2.86-2.1-6.66-2.4-10.2-2.11c-5.94,0.49-11.21,2.25-16.67,4.31
			c6.73-8.57,12.86-17.62,18.15-27.13c7.05,3.54,15.16,4.97,23,4.02c3.01-0.37,6.35-1.35,7.75-4.04c1.63-3.15-0.42-7.26-3.58-8.88
			c-3.15-1.62-6.96-1.32-10.4-0.47c-5.58,1.37-10.36,3.82-15.25,6.59c5.43-10.11,10.13-21.1,11.46-32.53
			c0.03-0.24,0.04-0.48,0.07-0.72c7.55,2.58,15.88,2.86,23.59,0.77c2.93-0.8,6.1-2.24,7.1-5.11c1.17-3.35-1.45-7.12-4.81-8.28
			c-3.35-1.16-7.07-0.31-10.36,1.02c-5.8,2.34-10.47,5.81-15.32,9.61c1.18-13.25-0.08-26.77,1.55-39.96
			c7.66,2.7,16.14,3.04,23.97,0.91c2.93-0.79,6.1-2.24,7.1-5.11c1.17-3.35-1.45-7.12-4.81-8.28c-3.35-1.16-7.07-0.31-10.36,1.02
			c-5.95,2.41-10.72,6-15.71,9.92c0.47-3.29,1.12-6.55,2.07-9.79c1.9-6.55,5.19-12.62,9.42-18.04c6.79,4.79,15.08,7.42,23.39,7.38
			c3.04-0.01,6.47-0.6,8.17-3.11c1.99-2.94,0.43-7.26-2.51-9.24c-2.94-1.98-6.76-2.12-10.28-1.68c-6.46,0.8-12.05,3.09-17.97,5.64
			c7-8.61,16.39-15.47,26.33-19.78c6.64,3.56,14.29,5.23,21.82,4.72c3.03-0.21,6.42-1.01,7.96-3.62c1.8-3.06-0.03-7.27-3.1-9.06
			c-3.06-1.79-6.88-1.69-10.36-1.03c-5.56,1.06-10.4,3.19-15.35,5.65c-0.2-0.02-0.42,0.01-0.66,0.11
			c-8.55,3.48-16.34,8.72-22.99,15.1c-1.47,1.41-2.89,2.87-4.26,4.39c2.48-6.9,3.07-14.48,1.61-21.67c-0.6-2.98-1.84-6.23-4.64-7.42
			c-3.27-1.39-7.2,0.98-8.58,4.26c-1.37,3.27-0.77,7.04,0.34,10.41c2.08,6.28,5.48,11.4,9.21,16.81c-2.73,3.31-5.14,6.88-7.02,10.73
			c-2.84,5.84-4.43,11.98-5.34,18.26c-0.84-7.52-3.82-14.79-8.54-20.7c-1.89-2.37-4.48-4.7-7.51-4.48c-3.54,0.26-5.96,4.16-5.69,7.7
			c0.27,3.54,2.52,6.61,5.05,9.11c4.84,4.77,10.38,7.8,16.34,11.01c-1.2,10.4-0.74,21.13-1.06,31.48c-0.1,3.26-0.29,6.49-0.66,9.7
			c-0.5-8.2-3.56-16.23-8.67-22.65c-1.89-2.38-4.47-4.71-7.5-4.49c-3.54,0.25-5.96,4.16-5.7,7.69c0.27,3.54,2.52,6.62,5.04,9.11
			c4.95,4.89,10.62,7.95,16.73,11.25c-0.43,3.41-1.07,6.79-2.05,10.14c-1.79,6.12-4.28,12.03-7.1,17.74
			c-0.75,1.52-1.53,3.02-2.33,4.52c0.26-7.44-1.57-14.96-5.26-21.43c-1.51-2.64-3.7-5.34-6.73-5.59c-3.54-0.29-6.53,3.2-6.81,6.73
			c-0.28,3.54,1.48,6.93,3.59,9.78c3.91,5.27,8.69,9.03,13.87,12.96c-5.18,9.29-11.24,18.11-17.82,26.47
			c2.17-7.46,2.15-15.56-0.12-23c-0.88-2.91-2.43-6.03-5.32-6.94c-3.38-1.07-7.08,1.67-8.13,5.06c-1.06,3.39-0.1,7.08,1.33,10.33
			c2.71,6.16,6.69,10.99,10.99,16.11c-0.88,1.1-1.77,2.2-2.67,3.28c-4.93,5.95-10.14,11.7-15.66,17.14c2-7.3,1.92-15.17-0.28-22.42
			c-0.88-2.91-2.43-6.03-5.32-6.94c-3.38-1.07-7.08,1.67-8.13,5.06c-1.06,3.39-0.1,7.08,1.33,10.33
			c2.64,5.99,6.47,10.72,10.64,15.69c-6.36,6.13-13.12,11.84-20.31,16.96c-1.5,1.07,0.26,3.31,1.75,2.25
			c7.25-5.17,14.07-10.95,20.49-17.14c6.49,4.76,14.44,7.53,22.51,7.82C845.82,677.12,849.29,676.67,851.12,674.23z"/><path fill="#c2dcf0" d="M727.86,133.52c0,1.46-0.16,9.06-0.13,10.66c-5.05,2.15-9.69,5.23-13.64,9.04
				c-13.59-5.62-10.25-6.11-18.32,5.77c-0.5,0.73-0.41,1.78,0.22,2.41c0.28,0.24,7.13,7.4,7.45,7.63
				c-2.02,5.03-3.16,10.45-3.26,16.04c-1.06,0.34-8.62,3.74-9.84,4.2c-0.83,0.36-1.3,1.25-1.12,2.13
				c2.83,14.08-0.06,12.35,14.61,12.38c2.19,5.15,5.29,9.74,9.05,13.64c-0.19,1.87-5.89,10.77-3.28,12.23
				c11.97,7.96,8.69,8.77,19.09-1.58c5.03,2.02,10.45,3.16,16.04,3.26c5.74,13.68,2.76,11.53,17.03,8.87
				c2.89-0.27,1.2-10.34,1.68-12.52c5.15-2.2,9.74-5.29,13.64-9.05c11.5,3.76,9.62,8.12,16.75-3.44c0.71-1.23,2.91-3.32,1.35-4.74
				c-0.3-0.23-7.12-7.41-7.45-7.63c0.06-0.16,0.13-0.31,0.19-0.47c1.93-4.96,2.98-10.25,3.07-15.57c1.68-1.19,11.84-3.6,10.97-6.33
				c-2.83-14.08,0.06-12.35-14.61-12.38c-2.19-5.15-5.28-9.74-9.04-13.64c0.19-1.88,5.89-10.77,3.28-12.23
				c-11.96-7.96-8.69-8.77-19.09,1.58c-5.03-2.02-10.45-3.16-16.04-3.26c-1.18-1.47-3.46-11.78-6.34-10.96
				C738.64,130.43,727.44,130.57,727.86,133.52z M781.58,186.73c-0.11,5.84-1.69,11.64-4.54,16.74c0,0,0,0,0,0
				c-22.52,38.7-80.89,10.56-64.65-31.17c0,0,0,0,0,0C727.29,135.93,782.43,147.37,781.58,186.73z"/><circle cx="745.58" cy="185.92" r="18.72" fill="#c2dcf0"/><path fill="#c2dcf0" d="M874.84,109.2c0,1.04-0.11,6.48-0.09,7.63c-3.61,1.54-6.93,3.74-9.76,6.47c-9.72-4.02-7.33-4.37-13.1,4.13
				c-0.36,0.52-0.29,1.27,0.16,1.72c0.2,0.17,5.1,5.3,5.33,5.46c-1.45,3.59-2.26,7.47-2.33,11.47c-0.76,0.24-6.17,2.67-7.04,3.01
				c-0.59,0.26-0.93,0.89-0.8,1.53c2.03,10.07-0.04,8.83,10.45,8.85c1.57,3.68,3.78,6.97,6.47,9.76c-0.14,1.34-4.21,7.71-2.34,8.75
				c8.56,5.69,6.22,6.28,13.65-1.13c3.59,1.45,7.47,2.26,11.47,2.33c4.11,9.79,1.98,8.25,12.18,6.34c2.07-0.19,0.86-7.4,1.2-8.95
				c3.68-1.57,6.97-3.78,9.76-6.47c8.23,2.69,6.88,5.81,11.98-2.46c0.51-0.88,2.08-2.38,0.97-3.39c-0.21-0.16-5.09-5.3-5.33-5.46
				c0.05-0.11,0.09-0.22,0.13-0.34c1.38-3.54,2.13-7.33,2.2-11.14c1.2-0.85,8.47-2.57,7.84-4.53c-2.03-10.07,0.04-8.84-10.45-8.85
				c-1.57-3.68-3.78-6.97-6.47-9.76c0.13-1.34,4.21-7.71,2.34-8.75c-8.56-5.69-6.22-6.28-13.65,1.13
				c-3.59-1.45-7.47-2.26-11.47-2.33c-0.85-1.05-2.48-8.42-4.53-7.84C882.55,106.99,874.54,107.1,874.84,109.2z M913.26,147.26
				c-0.08,4.18-1.21,8.33-3.25,11.97c0,0,0,0,0,0c-16.11,27.68-57.86,7.55-46.25-22.29c0,0,0,0,0,0
				C874.43,110.93,913.87,119.11,913.26,147.26z"/><circle cx="887.51" cy="146.69" r="13.39" fill="#c2dcf0"/><path fill="#c2dcf0" d="M857.33,225.29c-0.35,1.76-2.36,10.93-2.7,12.87c-6.62,1.39-12.98,4.02-18.66,7.68
				c-15.09-10.04-10.94-9.84-23.54,2.61c-0.78,0.76-0.92,2.06-0.31,2.96c0.28,0.36,6.86,10.66,7.19,11.01
				c-3.64,5.6-6.31,11.89-7.77,18.63c-1.36,0.16-11.32,2.46-12.9,2.74c-1.09,0.23-1.87,1.2-1.87,2.31
				c0.07,17.71-3.02,14.93,14.72,18.46c1.43,6.75,4.07,13.05,7.69,18.66c-0.68,2.22-9.7,11.63-6.88,14.02
				c12.58,12.48,8.42,12.69,23.47,2.64c5.6,3.64,11.89,6.31,18.63,7.77c3.68,17.92,0.59,14.61,18.49,14.79
				c3.56,0.36,3.92-12.23,5.02-14.74c6.75-1.43,13.05-4.07,18.66-7.69c13.02,7.29,9.7,12.12,21.08-0.16
				c1.15-1.32,4.31-3.33,2.77-5.41c-0.31-0.35-6.84-10.66-7.19-11.01c0.12-0.17,0.23-0.35,0.34-0.52c3.52-5.53,6.05-11.69,7.43-18.1
				c2.32-1.04,15.18-1.53,14.78-5.05c-0.07-17.71,3.02-14.93-14.72-18.46c-1.42-6.75-4.07-13.05-7.68-18.66
				c0.67-2.22,9.7-11.63,6.88-14.02c-12.57-12.48-8.42-12.69-23.47-2.64c-5.6-3.64-11.89-6.31-18.63-7.77
				c-1.08-2.06-1.38-15.07-5.05-14.78C871.11,224.13,857.52,221.63,857.33,225.29z M909.61,302.48c-1.53,7.04-4.83,13.68-9.49,19.17
				c0,0,0,0,0,0c-36.47,41.44-100.38-6.53-70.77-53.13c0,0,0,0,0,0C856.06,228.07,920.03,255.07,909.61,302.48z"/><circle cx="866.26" cy="292.92" r="23.08" fill="#c2dcf0"/><ellipse cx="675.1" cy="891.66" fill="#e6edf5" rx="469.98" ry="25.29"/><path fill="#fff" d="M819.17,866.37H439.22c-0.87,0-1.57-0.7-1.57-1.57V240.04c0-0.87,0.7-1.57,1.57-1.57h379.95
					c0.87,0,1.57,0.7,1.57,1.57V864.8C820.74,865.67,820.04,866.37,819.17,866.37z"/><path fill="#2678aa" d="M789.63,199.03h-320.9c-21.79,0-39.45,17.66-39.45,39.44v601.85c0,11.89,5.27,22.56,13.61,29.8
					c0.28,0.23,0.56,0.47,0.84,0.71c6.8,5.6,15.52,8.93,25,8.93h320.9c9.47,0,18.2-3.34,25-8.93c8.83-7.24,14.47-18.22,14.47-30.51
					V238.47C829.1,216.68,811.42,199.03,789.63,199.03z M820.74,824.95c0,22.87-19.61,41.42-43.8,41.42H481.46
					c-24.19,0-43.8-18.54-43.8-41.42V277.51c0-14.23,12.2-25.76,27.24-25.76h328.6c15.04,0,27.24,11.53,27.24,25.76V824.95z"/><path fill="#fff" d="M492.9,226.66c0,7-5.69,12.69-12.69,12.69c-7.01,0-12.69-5.69-12.69-12.69c0-7.01,5.69-12.7,12.69-12.7
							C487.21,213.96,492.9,219.65,492.9,226.66z"/><path fill="#2678aa" d="M488.79,226.66c0,4.74-3.85,8.59-8.59,8.59c-4.74,0-8.59-3.85-8.59-8.59c0-4.74,3.85-8.59,8.59-8.59
							C484.94,218.07,488.79,221.92,488.79,226.66z"/><path fill="#fff" d="M518.88,226.66c0,4.74-3.85,8.59-8.59,8.59s-8.59-3.85-8.59-8.59c0-4.74,3.85-8.59,8.59-8.59
							S518.88,221.92,518.88,226.66z"/><path fill="#fff" d="M820.42,274.9v566.12c0,13.99-12.18,25.34-27.2,25.34H465.18c-15.02,0-27.2-11.35-27.2-25.34V274.9
						c0-13.99,12.18-25.34,27.2-25.34h328.04C808.23,249.56,820.42,260.91,820.42,274.9z"/><path fill="#c2dcf0" d="M751.21,279.69H461.25c-0.86,0-1.56,0.7-1.56,1.56v4.26c0,0.86,0.7,1.56,1.56,1.56h289.96
					c0.86,0,1.56-0.7,1.56-1.56v-4.26C752.77,280.39,752.08,279.69,751.21,279.69z"/><path fill="#c2dcf0" d="M797.11,291.55l-8.44-4.36l-2.13-1.49c-0.1-0.07-0.21-0.13-0.32-0.18c0.93-1.78,1.41-3.83,1.26-6
						c-0.39-5.61-4.95-10.12-10.56-10.44c-6.76-0.39-12.34,5.21-11.9,11.98c0.35,5.52,4.75,10.02,10.27,10.48
						c3.07,0.26,5.9-0.73,8.07-2.51l10.28,8.19c1.57,0.96,3.61,0.47,4.57-1.1l0,0C799.17,294.55,798.68,292.51,797.11,291.55z
						 M776.26,288.36c-4.43,0-8.04-3.61-8.04-8.04c0-4.43,3.61-8.04,8.04-8.04s8.04,3.61,8.04,8.04
						C784.3,284.75,780.69,288.36,776.26,288.36z"/><circle cx="629.2" cy="423.8" r="95.85" fill="#c2dcf0" transform="rotate(-66.046 629.165 423.784)"/><path fill="#fff" d="M627.77,433.9c20.55,0,37.21-16.66,37.21-37.21c0-20.55-16.66-37.21-37.21-37.21
							c-20.55,0-37.21,16.66-37.21,37.21C590.56,417.24,607.22,433.9,627.77,433.9z"/><path fill="#fff" d="M661.9,434.2c-2.99-2.34-7.18-2.26-10.12,0.14c-6.4,5.22-14.59,8.37-23.52,8.37
							c-8.64,0-16.59-2.94-22.89-7.89c-3-2.35-7.26-2.31-10.15,0.18c-7.51,6.44-12.08,15.72-12.08,27.78v1.09
							c0,6.24,5.06,11.3,11.3,11.3h69.53c6.24,0,11.3-5.06,11.3-11.3v-1.09C675.26,450.21,670.16,440.65,661.9,434.2z"/><g><path fill="#c2dcf0" d="M507.71,592h-26.06c-2.21,0-4,1.79-4,4v26.06c0,2.21,1.79,4,4,4h26.06c2.21,0,4-1.79,4-4V596
				C511.7,593.79,509.91,592,507.71,592z"/><path fill="#c2dcf0" d="M574.97,592H548.9c-2.21,0-4,1.79-4,4v26.06c0,2.21,1.79,4,4,4h26.06c2.21,0,4-1.79,4-4V596
				C578.96,593.79,577.18,592,574.97,592z"/><path fill="#c2dcf0" d="M642.23,592h-26.06c-2.21,0-4,1.79-4,4v26.06c0,2.21,1.79,4,4,4h26.06c2.21,0,4-1.79,4-4V596
				C646.23,593.79,644.44,592,642.23,592z"/><path fill="#c2dcf0" d="M709.49,592h-26.06c-2.21,0-4,1.79-4,4v26.06c0,2.21,1.79,4,4,4h26.06c2.21,0,4-1.79,4-4V596
				C713.49,593.79,711.7,592,709.49,592z"/><path fill="#c2dcf0" d="M776.75,592h-26.06c-2.21,0-4,1.79-4,4v26.06c0,2.21,1.79,4,4,4h26.06c2.21,0,4-1.79,4-4V596
				C780.75,593.79,778.96,592,776.75,592z"/></g><g><path fill="#c2dcf0" d="M739.89,670.61H575.77c-0.58,0-1.04-0.47-1.04-1.04v-0.43c0-0.58,0.47-1.04,1.04-1.04h164.12
					c0.58,0,1.04,0.47,1.04,1.04v0.43C740.93,670.14,740.46,670.61,739.89,670.61z"/><path fill="#c2dcf0" d="M790.94,670.61h-43.78c-0.58,0-1.04-0.47-1.04-1.04v-0.43c0-0.58,0.47-1.04,1.04-1.04h43.78
					c0.58,0,1.04,0.47,1.04,1.04v0.43C791.98,670.14,791.51,670.61,790.94,670.61z"/><path fill="#c2dcf0" d="M639.85,680.41h-64.08c-0.58,0-1.04-0.47-1.04-1.04v-0.43c0-0.58,0.47-1.04,1.04-1.04h64.08
					c0.58,0,1.04,0.47,1.04,1.04v0.43C640.89,679.94,640.43,680.41,639.85,680.41z"/><path fill="#c2dcf0" d="M790.94,680.41h-15.28c-0.58,0-1.04-0.47-1.04-1.04v-0.43c0-0.58,0.47-1.04,1.04-1.04h15.28
					c0.58,0,1.04,0.47,1.04,1.04v0.43C791.98,679.94,791.51,680.41,790.94,680.41z"/><path fill="#c2dcf0" d="M766.57,680.41H650.25c-0.58,0-1.04-0.47-1.04-1.04v-0.43c0-0.58,0.47-1.04,1.04-1.04h116.33
					c0.58,0,1.04,0.47,1.04,1.04v0.43C767.62,679.94,767.15,680.41,766.57,680.41z"/><path fill="#c2dcf0" d="M739.89,699.45H575.77c-0.58,0-1.04-0.47-1.04-1.04v-0.43c0-0.58,0.47-1.04,1.04-1.04h164.12
					c0.58,0,1.04,0.47,1.04,1.04v0.43C740.93,698.98,740.46,699.45,739.89,699.45z"/><path fill="#c2dcf0" d="M790.94,699.45h-43.78c-0.58,0-1.04-0.47-1.04-1.04v-0.43c0-0.58,0.47-1.04,1.04-1.04h43.78
					c0.58,0,1.04,0.47,1.04,1.04v0.43C791.98,698.98,791.51,699.45,790.94,699.45z"/><path fill="#c2dcf0" d="M639.85,709.25h-64.08c-0.58,0-1.04-0.47-1.04-1.04v-0.43c0-0.58,0.47-1.04,1.04-1.04h64.08
					c0.58,0,1.04,0.47,1.04,1.04v0.43C640.89,708.78,640.43,709.25,639.85,709.25z"/><path fill="#c2dcf0" d="M790.94,709.25h-15.28c-0.58,0-1.04-0.47-1.04-1.04v-0.43c0-0.58,0.47-1.04,1.04-1.04h15.28
					c0.58,0,1.04,0.47,1.04,1.04v0.43C791.98,708.78,791.51,709.25,790.94,709.25z"/><path fill="#c2dcf0" d="M766.57,709.25H650.25c-0.58,0-1.04-0.47-1.04-1.04v-0.43c0-0.58,0.47-1.04,1.04-1.04h116.33
					c0.58,0,1.04,0.47,1.04,1.04v0.43C767.62,708.78,767.15,709.25,766.57,709.25z"/><path fill="#c2dcf0" d="M739.89,760.08H575.77c-0.58,0-1.04-0.47-1.04-1.04v-0.43c0-0.58,0.47-1.04,1.04-1.04h164.12
					c0.58,0,1.04,0.47,1.04,1.04v0.43C740.93,759.61,740.46,760.08,739.89,760.08z"/><path fill="#c2dcf0" d="M790.94,760.08h-43.78c-0.58,0-1.04-0.47-1.04-1.04v-0.43c0-0.58,0.47-1.04,1.04-1.04h43.78
					c0.58,0,1.04,0.47,1.04,1.04v0.43C791.98,759.61,791.51,760.08,790.94,760.08z"/><path fill="#c2dcf0" d="M639.85,769.88h-64.08c-0.58,0-1.04-0.47-1.04-1.04v-0.43c0-0.58,0.47-1.04,1.04-1.04h64.08
					c0.58,0,1.04,0.47,1.04,1.04v0.43C640.89,769.41,640.43,769.88,639.85,769.88z"/><path fill="#c2dcf0" d="M790.94,769.88h-15.28c-0.58,0-1.04-0.47-1.04-1.04v-0.43c0-0.58,0.47-1.04,1.04-1.04h15.28
					c0.58,0,1.04,0.47,1.04,1.04v0.43C791.98,769.41,791.51,769.88,790.94,769.88z"/><path fill="#c2dcf0" d="M766.57,769.88H650.25c-0.58,0-1.04-0.47-1.04-1.04v-0.43c0-0.58,0.47-1.04,1.04-1.04h116.33
					c0.58,0,1.04,0.47,1.04,1.04v0.43C767.62,769.41,767.15,769.88,766.57,769.88z"/><g><path fill="#c2dcf0" d="M739.89,788.92H575.77c-0.58,0-1.04-0.47-1.04-1.04v-0.43c0-0.58,0.47-1.04,1.04-1.04h164.12
					c0.58,0,1.04,0.47,1.04,1.04v0.43C740.93,788.46,740.46,788.92,739.89,788.92z"/><path fill="#c2dcf0" d="M790.94,788.92h-43.78c-0.58,0-1.04-0.47-1.04-1.04v-0.43c0-0.58,0.47-1.04,1.04-1.04h43.78
					c0.58,0,1.04,0.47,1.04,1.04v0.43C791.98,788.46,791.51,788.92,790.94,788.92z"/><path fill="#c2dcf0" d="M639.85,798.72h-64.08c-0.58,0-1.04-0.47-1.04-1.04v-0.43c0-0.58,0.47-1.04,1.04-1.04h64.08
					c0.58,0,1.04,0.47,1.04,1.04v0.43C640.89,798.26,640.43,798.72,639.85,798.72z"/><path fill="#c2dcf0" d="M790.94,798.72h-15.28c-0.58,0-1.04-0.47-1.04-1.04v-0.43c0-0.58,0.47-1.04,1.04-1.04h15.28
					c0.58,0,1.04,0.47,1.04,1.04v0.43C791.98,798.26,791.51,798.72,790.94,798.72z"/><path fill="#c2dcf0" d="M766.57,798.72H650.25c-0.58,0-1.04-0.47-1.04-1.04v-0.43c0-0.58,0.47-1.04,1.04-1.04h116.33
					c0.58,0,1.04,0.47,1.04,1.04v0.43C767.62,798.26,767.15,798.72,766.57,798.72z"/></g><g><path fill="#c2dcf0" d="M551.62,658.61h-80.93c-2.36,0-4.28,1.91-4.28,4.28v53.2c0,2.36,1.91,4.28,4.28,4.28h80.93
						c2.36,0,4.28-1.91,4.28-4.28v-53.2C555.89,660.52,553.98,658.61,551.62,658.61z"/><path fill="#fff" d="M475.18,705.85l16.55-22.76c0.88-1.22,2.71-1.17,3.53,0.09l14.1,21.56c0.88,1.35,2.87,1.28,3.66-0.12
							l3.18-5.62c0.82-1.45,2.92-1.45,3.74,0l2.7,4.77c0.89,1.57,3.2,1.41,3.87-0.27l7.41-18.79c0.73-1.86,3.39-1.79,4.03,0.1
							l7.33,21.61c0.47,1.39-0.56,2.84-2.03,2.84h-66.33C475.16,709.26,474.15,707.27,475.18,705.85z"/><circle cx="513.74" cy="675.53" r="6.26" fill="#fff"/><path fill="#fff" d="M494.22,672.84c-0.12,0-0.23,0.01-0.34,0.03c0.01-0.08,0.01-0.17,0.01-0.26c0-1.38-1.12-2.49-2.49-2.49
							c-1.18,0-2.16,0.81-2.42,1.91c-0.26-0.24-0.62-0.39-1-0.39c-0.54,0-1.01,0.29-1.27,0.73c-0.25-0.11-0.52-0.17-0.81-0.17
							c-1.13,0-2.04,0.91-2.04,2.04c0,1.13,0.91,2.04,2.04,2.04c0.48,0,0.92-0.16,1.27-0.44c0.67,0.56,1.78,0.93,3.04,0.93
							c1.18,0,2.23-0.32,2.91-0.82c0.3,0.25,0.68,0.39,1.1,0.39c0.96,0,1.75-0.78,1.75-1.75
							C495.97,673.63,495.18,672.84,494.22,672.84z"/><path fill="#fff" d="M537.68,672.84c-0.12,0-0.23,0.01-0.34,0.03c0.01-0.08,0.01-0.17,0.01-0.26c0-1.38-1.12-2.49-2.49-2.49
							c-1.18,0-2.16,0.81-2.42,1.91c-0.26-0.24-0.62-0.39-1-0.39c-0.54,0-1.01,0.29-1.27,0.73c-0.25-0.11-0.52-0.17-0.81-0.17
							c-1.13,0-2.04,0.91-2.04,2.04c0,1.13,0.91,2.04,2.04,2.04c0.48,0,0.92-0.16,1.27-0.44c0.67,0.56,1.78,0.93,3.04,0.93
							c1.18,0,2.23-0.32,2.91-0.82c0.3,0.25,0.68,0.39,1.1,0.39c0.96,0,1.75-0.78,1.75-1.75
							C539.43,673.63,538.65,672.84,537.68,672.84z"/></g><g><path fill="#c2dcf0" d="M551.62,747.26h-80.93c-2.36,0-4.28,1.91-4.28,4.28v53.2c0,2.36,1.91,4.28,4.28,4.28h80.93
						c2.36,0,4.28-1.91,4.28-4.28v-53.2C555.89,749.18,553.98,747.26,551.62,747.26z"/><path fill="#fff" d="M475.18,794.51l16.55-22.76c0.88-1.22,2.71-1.17,3.53,0.09l14.1,21.56c0.88,1.35,2.87,1.28,3.66-0.12
							l3.18-5.62c0.82-1.45,2.92-1.45,3.74,0l2.7,4.77c0.89,1.57,3.2,1.41,3.87-0.27l7.41-18.79c0.73-1.86,3.39-1.79,4.03,0.1
							l7.33,21.61c0.47,1.39-0.56,2.84-2.03,2.84h-66.33C475.16,797.92,474.15,795.93,475.18,794.51z"/><circle cx="513.74" cy="764.19" r="6.26" fill="#fff"/><path fill="#fff" d="M494.22,761.5c-0.12,0-0.23,0.01-0.34,0.03c0.01-0.08,0.01-0.17,0.01-0.26c0-1.38-1.12-2.49-2.49-2.49
							c-1.18,0-2.16,0.81-2.42,1.91c-0.26-0.24-0.62-0.39-1-0.39c-0.54,0-1.01,0.29-1.27,0.73c-0.25-0.11-0.52-0.17-0.81-0.17
							c-1.13,0-2.04,0.91-2.04,2.04c0,1.13,0.91,2.04,2.04,2.04c0.48,0,0.92-0.16,1.27-0.44c0.67,0.56,1.78,0.93,3.04,0.93
							c1.18,0,2.23-0.32,2.91-0.82c0.3,0.25,0.68,0.39,1.1,0.39c0.96,0,1.75-0.78,1.75-1.75
							C495.97,762.28,495.18,761.5,494.22,761.5z"/><path fill="#fff" d="M537.68,761.5c-0.12,0-0.23,0.01-0.34,0.03c0.01-0.08,0.01-0.17,0.01-0.26c0-1.38-1.12-2.49-2.49-2.49
							c-1.18,0-2.16,0.81-2.42,1.91c-0.26-0.24-0.62-0.39-1-0.39c-0.54,0-1.01,0.29-1.27,0.73c-0.25-0.11-0.52-0.17-0.81-0.17
							c-1.13,0-2.04,0.91-2.04,2.04c0,1.13,0.91,2.04,2.04,2.04c0.48,0,0.92-0.16,1.27-0.44c0.67,0.56,1.78,0.93,3.04,0.93
							c1.18,0,2.23-0.32,2.91-0.82c0.3,0.25,0.68,0.39,1.1,0.39c0.96,0,1.75-0.78,1.75-1.75
							C539.43,762.28,538.65,761.5,537.68,761.5z"/></g></g><g><path fill="#cf493e" d="M340.68,705.7h44c4.67,0,8.46,3.79,8.46,8.46v6.93h-60.92v-6.93C332.22,709.49,336.01,705.7,340.68,705.7z"/><path fill="#cf493e" d="M504.28,722.39h31.72c0.99,0,1.79-0.8,1.79-1.79v-15.8c0-0.99-0.8-1.79-1.79-1.79h-31.72
			c-0.99,0-1.79,0.8-1.79,1.79v15.8C502.48,721.59,503.29,722.39,504.28,722.39z"/><path fill="#cf493e" d="M474.07,722.39h15.8c0.99,0,1.79-0.8,1.79-1.79v-15.8c0-0.99-0.8-1.79-1.79-1.79h-15.8
			c-0.99,0-1.79,0.8-1.79,1.79v15.8C472.28,721.59,473.08,722.39,474.07,722.39z"/><path fill="#ffa629" d="M330.32,716.66h212.83c13.97,0,25.29,11.32,25.29,25.29V869.7c0,13.97-11.32,25.29-25.29,25.29H330.32
			c-13.97,0-25.29-11.32-25.29-25.29V741.96C305.03,727.99,316.35,716.66,330.32,716.66z"/><rect width="263.42" height="23.08" x="305.03" y="757.27" fill="#ffb957"/><rect width="263.42" height="71.52" x="305.03" y="794.85" fill="#ffb957"/><circle cx="431.58" cy="812.88" r="58.53" fill="#fff"/><circle cx="431.58" cy="812.88" r="49.14" fill="#074877"/><path fill="#2678aa" d="M431.58,847.1c17.64,0,31.99-14.35,31.99-31.99c0-17.64-14.35-31.99-31.99-31.99
				c-17.64,0-31.99,14.35-31.99,31.99C399.59,832.75,413.94,847.1,431.58,847.1z"/><path fill="#074877" d="M431.58,834.21c10.53,0,19.1-8.57,19.1-19.1c0-10.53-8.57-19.1-19.1-19.1c-10.53,0-19.1,8.57-19.1,19.1
				C412.48,825.64,421.05,834.21,431.58,834.21z"/><circle cx="417.17" cy="792.62" r="9.5" fill="#fff"/><circle cx="445.02" cy="830.61" r="3.68" fill="#fff"/><path fill="#fff" d="M468.08,747.04c6.02,0,10.91-4.9,10.91-10.91s-4.9-10.91-10.91-10.91s-10.91,4.9-10.91,10.91
				S462.06,747.04,468.08,747.04z"/><path fill="#bc3535" d="M468.08,742.99c3.79,0,6.87-3.08,6.87-6.87c0-3.79-3.08-6.87-6.87-6.87c-3.79,0-6.87,3.08-6.87,6.87
				C461.21,739.91,464.29,742.99,468.08,742.99z"/><circle cx="349.82" cy="778.42" r="11.11" fill="#fff"/><path fill="#a0d5ef" d="M349.82,785.41c3.85,0,6.99-3.14,6.99-6.99c0-3.85-3.14-6.99-6.99-6.99c-3.85,0-6.99,3.14-6.99,6.99
				C342.83,782.27,345.96,785.41,349.82,785.41z"/><g><path fill="#fff" d="M492.3,747.94h48.76c1.21,0,2.19-0.98,2.19-2.19V726.5c0-1.21-0.98-2.19-2.19-2.19H492.3
					c-1.21,0-2.19,0.98-2.19,2.19v19.25C490.11,746.96,491.09,747.94,492.3,747.94z"/><path fill="#a0d5ef" d="M539.74,742.9v-13.54c0-0.85-0.69-1.54-1.54-1.54h-43.05c-0.85,0-1.54,0.69-1.54,1.54v13.54
					c0,0.85,0.69,1.54,1.54,1.54h43.05C539.05,744.43,539.74,743.75,539.74,742.9z"/><polygon fill="#4d4d4d" points="535.46 744.43 521.94 727.82 516.68 727.82 529.37 744.43"/><polygon fill="#4d4d4d" points="521.3 744.43 507.78 727.82 502.52 727.82 515.21 744.43"/></g></g><g><path fill="#824720" d="M772.26,800.54c-0.45-2.48-0.41-5.02,0.14-7.48c0.6-2.72,1.89-5.18,3-7.71c1.19-2.73,2.19-5.97,1.17-8.91
				c-0.06-0.18,0.19-0.31,0.27-0.13c2.22,4.95-0.93,9.72-2.56,14.3c-1.76,4.91-1.35,10.38,1.12,14.96c0.7,1.31,1.57,2.52,2.57,3.62
				c1.07,1.17,2.3,2.12,3.49,3.17c0.32,0.28,0.1,0.93-0.37,0.72c-2.41-1.06-4.41-3.22-5.87-5.36
				C773.74,805.55,772.73,803.11,772.26,800.54z"/><path fill="#824720" d="M778.54,811.12c3.35,3.72,8.88,5.52,13.64,3.97c4.62-1.51,7.83-5.68,12.05-8.1
				c5.22-3.01,11.57-3.12,17.6-2.97c6.03,0.15,12.28,0.46,17.84-1.86c5.56-2.32,10.19-8.18,8.91-14.07
				c-0.74-3.43-3.3-6.28-3.95-9.73c-0.09-0.47-0.13-0.93-0.15-1.4c0.71-3.29,2.27-6.44,2.99-9.73c0.49-2.26,0.58-4.5-0.21-6.7
				c-0.95-2.65-2.94-4.8-5.13-6.51c-4.45-3.47-10.29-5.04-14.12-9.31c-2.14-2.39-3.28-5.42-4.81-8.18c-1.27-2.28-2.91-4.3-4.89-6
				c-3.34-2.86-7.57-4.65-11.93-5.09c-3.7-1.04-7.71-0.84-11.01,1.06l-13.28,12.56c-8.07,6.35-11.96,17.58-9.54,27.57
				c1.51,6.24,5.26,12.09,4.92,18.5c-0.22,4.1-2.11,7.93-2.75,11.99C773.93,802.05,775.18,807.4,778.54,811.12z M810.98,727.46
				c-0.7-0.44-1.45-0.83-2.21-1.17c4.05,1.14,7.76,3.46,10.55,6.64c1.9,2.16,3.13,4.7,4.39,7.26c1.3,2.65,2.81,5.08,5.09,7
				c4.24,3.58,9.78,5.18,13.96,8.85c2.09,1.83,3.72,4.21,4.04,7.02c0.25,2.19-0.24,4.34-0.91,6.41c-0.26,0.82-0.56,1.65-0.87,2.48
				c0.52-2.57,1.15-5.15,0.73-7.71c-0.76-4.57-4.7-7.95-8.81-10.08c-4.12-2.15-8.84-3.61-11.85-7.15c-1.72-2.03-2.71-4.56-3.85-6.97
				C818.87,735.09,815.62,730.38,810.98,727.46z"/><path fill="#e56161" d="M811.85,815.42c0,0,13.16,63.81-2.83,76.35c-9.4,7.37-55.6,1.19-55.59,0.35
				c0.01-0.84-1.72-16.49-1.72-16.49c10.21-1.72,33.57-3.16,35.02-3.84c5.86-2.74-9.73-58.98,9.93-74.8
				C811.14,788.52,810.14,802.62,811.85,815.42z"/><path fill="#ffdbcc" d="M1155.31,858.94c-1.37,5.75-15.16-7.73-25.09-5.84c-5.44,1.05-16.2,7.69-22.87,10.24
					c-28.75,10.93-66.34,32.56-91.62,37.09c-34.01,6.07-138.18-2.91-138.18-2.91l-5.82-35.2c0,0,34.24-27.4,61.16-21.16
					c26.92,6.26,67.03,33.43,85.06,22.75c11.8-6.99,92.33-22.55,98.8-25.57c0,0,3.46-10.26,8.77-10.02
					c4.37,0.19,10.69,7.84,19.32,15.65C1154.83,852.99,1157.1,851.37,1155.31,858.94z"/><path fill="#1c709b" d="M1109.16,867.54c-28.75,10.93-68.15,28.36-93.43,32.89c-34.01,6.07-138.18-2.91-138.18-2.91l-5.82-35.2
					c0,0,34.24-27.4,61.16-21.16c26.92,6.26,67.03,33.43,85.06,22.75c11.8-6.99,54.9-20.5,83.85-23.93L1109.16,867.54z"/><path fill="#ffdbcc" d="M1012.82,896.3c-28.79,13.76-98.51-2.81-134.9,0.82c-1.25-12.77-1.22-20.26-1.65-32.67
					c15.54-8.97,29.46-22.77,49.63-21.08c20.16,1.66,64.49,28.05,64.64,7.02c0.23-36.52,19.77-101.9,21.21-107.31
					c1.15-4.34-4.73-6.97-3.68-11.67c0.67-3.03,8.97-5.53,15.52-6.74c9.46-1.75,24.05-8.04,29.15-4.72
					c4.89,3.18-19.26,12.23-24.41,22.86c-1.53,3.95-1.89,13.3-2.24,20.14C1023.96,803.3,1037.45,884.52,1012.82,896.3z"/><path fill="#2678aa" d="M1015.99,897.82c-28.79,13.76-115.24,1.51-138.87-0.21c-1.25-12.77-5.13-23.32-5.56-35.73
				c15.55-8.97,34.94-21.21,55.1-19.53c20.16,1.66,63.73,29.05,63.88,8.03c0.23-36.52-0.15-59.58,13.32-90.38l24.86,2.93
				C1026.59,803.31,1040.62,886.04,1015.99,897.82z"/><path fill="#dd4747" d="M838.35,796.31c-11.15-7.53-25.84-5.22-25.84-5.22L796.66,797c-9.5,21.22-4.72,33.28,4.87,50.59
				c9.54,17.21,50.84,51.93,74.88,50.01c14.47-3.33,20.85-31.35,10.74-44.95C887.15,852.65,854.25,807.05,838.35,796.31z"/><path fill="#ffdbcc" d="M812.52,791.09c-4.4,17.52-17.67,18.58-15.87,5.91l-1.79-6.54l-3.53-12.89l-0.48-1.77l11.05-4.47l2.84,5.25
				l3.45,6.47L812.52,791.09z"/><path fill="#edd0be" d="M810.52,787.37c-1.15,1.81-2.8,3.59-4.45,4.72c-3.97,2.7-9.86,3.28-9.86,3.28l-0.88-3.19l-1.38-9.73
				l4.86-2.02l8.56,1.03L810.52,787.37z"/><path fill="#ffdbcc" d="M795.18,903.51c0,0.05-15.48-4.06-18.81-1.93c-2.87,1.84-5.06,0-6.42-1.79
				c-1.35-1.78-22.59,5.94-23.61,1.76c-1.02-4.18,16.54-16.86,30.92-13.95c7.19,1.46,10.8,5.12,18.48,4.63L795.18,903.51z"/><path fill="#e56161" d="M853.35,817.33c0,0,13.65,70.92-2.34,83.47c-9.4,7.37-71.15,2.95-71.14,2.11
				c0.01-0.84,0.83-17.13,0.83-17.13c10.21-1.72,42.98-4.88,44.43-5.56c5.87-2.74-17.12-63.23-3.88-82.39
				C830.78,784.04,851.64,804.53,853.35,817.33z"/><path fill="#edd0be" d="M816.82,757.36c-0.69,0.06-1.4,0.64-1.34,1.38c0.03,0.33,0.5,0.35,0.52,0.01c0.01-0.26,0.19-0.49,0.45-0.55
			c0.23-0.05,0.53,0.07,0.72,0.19c0.59,0.38,0.71,1.19,0.81,1.83c0.09,0.63,0.1,1.29,0.04,1.92c-0.07,0.68-0.33,1.31-0.4,1.98
			c-0.07,0.64,0.91,0.91,1.2,0.35c0.22-0.44,0.28-0.95,0.34-1.42c0.06-0.44,0.08-0.89,0.07-1.34c-0.02-0.92-0.14-1.88-0.47-2.74
			C818.45,758.2,817.75,757.29,816.82,757.36z"/><path fill="#ffdbcc" d="M770.66,738.12c0,0-6.5,24.05,3.29,41.06c5,8.68,17.49,15.24,27.32,12.09
				c15.93-5.12,17.18-17.37,16.61-25.27c-0.9-12.57-5.42-25.12-9.53-31.72L770.66,738.12z"/><path fill="#ffdbcc" d="M821.95,752.12c-2.65-2.98-6.06,2.93-6.06,2.93l1.56,13.37C826.95,765.82,824.61,755.1,821.95,752.12z"/><path fill="#824720" d="M804.82,724.39c-9.74-5.33-22.88-2.8-31.22,4.54c-8.34,7.34-10.8,18.66-6.68,28.97
			c3.65-0.67,8.37-20.94,26.13-21.73c0.36-0.02,0.81,0.28,1.35,0.78c0.47,3.62,1.94,7.07,4.33,9.89c3,3.54,7.22,5.86,11.78,6.62
			c1.22,0.2,2.47,0.29,3.7,0.27c1.22-0.02,2.74,4.76,2.94,4.66C821,753.05,816.59,730.83,804.82,724.39z M802.42,748.76
			c-3.49-2.63-5.95-6.53-7.03-10.76c3.04,3.52,7.98,11.15,14.05,14.03C806.9,751.44,804.49,750.33,802.42,748.76z"/><ellipse cx="802.02" cy="761.38" fill="#222731" rx="2.56" ry="3.66" transform="rotate(-7.008 802.22 761.557)"/><ellipse cx="777.43" cy="764.09" fill="#222731" rx="2.28" ry="3.26" transform="rotate(-10.549 777.232 764.02)"/><path fill="#edd0be" d="M786.48,765.94c0.9-2.21,2.82-4.19,2.55-6.79c-0.02-0.42,0.61-0.56,0.74-0.14
				c1.88,3.03-1.87,5.55-1.66,8.01c0.27,3.06,4.36,3.3,2.86,3.61C789.16,771.01,785.53,769.81,786.48,765.94z"/><path fill="#824720" d="M797.6,755.85c0.12-0.17,0.25-0.33,0.39-0.48c0.3-0.34,0.65-0.61,1.03-0.85c0.72-0.45,1.55-0.68,2.39-0.7
				c1.64-0.04,3.03,0.92,3.9,2.26c0.31,0.47-0.49,1.01-0.83,0.55c-0.37-0.49-0.79-0.82-1.37-1.02c-0.52-0.18-1.1-0.3-1.61-0.23
				c-0.29,0.04-0.53,0.1-0.75,0.19c-0.15,0.06-0.3,0.14-0.45,0.22c-0.15,0.08-0.15,0.09-0.27,0.18c-0.25,0.19-0.44,0.37-0.58,0.55
				c-0.27,0.34-0.41,0.73-0.82,0.94c-0.49,0.24-1.22-0.05-1.28-0.64C797.31,756.44,797.39,756.16,797.6,755.85z"/><path fill="#824720" d="M779.16,757.55c-0.15-0.1-0.31-0.19-0.48-0.27c-0.36-0.18-0.74-0.29-1.14-0.36
				c-0.74-0.14-1.51-0.05-2.21,0.21c-1.37,0.51-2.19,1.77-2.47,3.16c-0.1,0.49,0.74,0.67,0.87,0.18c0.14-0.53,0.38-0.94,0.79-1.3
				c0.37-0.32,0.81-0.61,1.26-0.73c0.25-0.06,0.47-0.1,0.68-0.09c0.15,0,0.29,0.01,0.44,0.03c0.15,0.02,0.15,0.02,0.28,0.06
				c0.27,0.08,0.49,0.16,0.67,0.26c0.34,0.19,0.58,0.47,0.99,0.5c0.48,0.04,0.99-0.45,0.84-0.95
				C779.6,757.94,779.44,757.73,779.16,757.55z"/><path fill="#942525" d="M787.22,776.7c0.16,1.36,0.88,2.54,1.94,3.34c1.14,0.87,2.66,1.32,4.26,1.14
						c1.72-0.2,3.18-1.09,4.07-2.33c0.72-0.99,1.07-2.2,0.93-3.45c-0.33-2.84-3.68-0.28-5.77-0.04
						C790.9,775.57,786.89,773.87,787.22,776.7z"/><path fill="#ff7878" d="M789.16,780.05c1.14,0.87,2.66,1.32,4.26,1.14c1.72-0.2,3.18-1.09,4.07-2.33
						c-0.94-0.75-2.52-1.13-4.24-0.93C791.38,778.14,789.83,778.99,789.16,780.05z"/><ellipse cx="803.68" cy="768.41" fill="#ffb394" rx="6.23" ry="2.56" transform="rotate(-10.549 803.471 768.346)"/><ellipse cx="777.86" cy="771.5" fill="#ffb394" rx="4.94" ry="2.03" transform="rotate(-10.549 777.656 771.437)"/><circle cx="801.19" cy="760.46" r=".71" fill="#fff"/><circle cx="776.72" cy="763.03" r=".63" fill="#fff"/><path fill="#edd0be" d="M819.98,754.86c-0.79-0.06-1.69,0.47-1.75,1.31c-0.03,0.37,0.5,0.48,0.58,0.11c0.06-0.29,0.3-0.51,0.6-0.54
			c0.27-0.02,0.58,0.17,0.77,0.34c0.59,0.53,0.59,1.46,0.58,2.19c-0.01,1.29-0.13,1.54-0.3,2.17c-0.19,0.75-0.61,1.42-0.8,2.15
			c-0.19,0.7,0.86,1.19,1.29,0.6c0.33-0.45,0.48-1.01,0.63-1.54c0.14-0.49,0.25-0.99,0.32-1.49c0.14-1.03,0.17-2.13-0.04-3.16
			C821.66,756.09,821.04,754.94,819.98,754.86z"/><polygon fill="#05446b" points="814.92 904.77 762.45 904.77 673.42 904.77 651.67 836.76 740.7 836.76 760.89 899.55 814.92 899.55"/><path fill="#e6e6e6" d="M760.89,904.77h-87.47l-21.74-68h10.38C679,901.89,736.04,892.24,760.89,904.77z"/><path fill="#05446b" d="M1051.89,718.14c-4.05-1.87-21.06,4.23-27.12,5.55c-3.18,0.69-13.62,1.57-16.43,4.74
			c-3.26,3.67,1.45,7.39,3.37,12.29c0.01,0.03,0.02,0.05,0.04,0.08c-0.54-2.34,0.12-6.32,4.05-7.95c5.28-2.19,20.49-7.2,23.55-5.21
			c2.97,1.93-0.22,4.43-0.22,4.43s0.48-0.14,1.09-0.45c0.18-0.09,0.39-0.2,0.61-0.31c0.3-0.15,0.64-0.33,0.99-0.51
			c0.18-0.09,0.37-0.19,0.57-0.29c1.15-0.6,2.52-1.3,3.92-2.02c0.94-0.51,1.79-0.99,2.52-1.44
			C1055.49,722.92,1053.82,719.03,1051.89,718.14z"/><path fill="#05446b" d="M1158.84,857.04c-0.7-4.46-15.42-14.96-19.94-19.2c-2.37-2.23-8.99-10.36-13.24-10.82
			c-4.93-0.53-6,5.48-8.49,10.05c-0.02,0.03-0.03,0.05-0.05,0.08c1.67-1.84,5.4-3.63,8.99-1.34c4.82,3.08,17.61,12.73,17.65,16.45
			c0.03,3.6-3.87,2.43-3.87,2.43s0.39,0.32,1,0.64c0.18,0.1,0.39,0.21,0.61,0.32c0.3,0.16,0.64,0.33,0.99,0.52
			c0.18,0.1,0.37,0.19,0.56,0.3c1.15,0.6,2.52,1.32,3.91,2.05c0.96,0.48,1.84,0.9,2.63,1.24
			C1156.83,862.85,1159.18,859.17,1158.84,857.04z"/></g><g><rect width="118.59" height="139.77" x="948.16" y="518" fill="#a5542b"/><rect width="104.68" height="123.37" x="955.12" y="526.2" fill="#fff"/><rect width="95.44" height="112.48" x="959.74" y="531.64" fill="#c2dcf0"/><path fill="#2678aa" d="M1031,611.34c-3.06-4.2-9.33-4.2-12.39,0l-11.16,15.28l-11.16-15.28c-3.06-4.2-9.33-4.2-12.39,0
				l-23.94,32.79h34.7h25.57h34.7L1031,611.34z"/><path fill="#f5feff" d="M1004.64,565.59c0-0.02,0-0.05,0-0.07c0-2.29-1.78-4.14-3.97-4.14c-1.38,0-2.59,0.73-3.3,1.83
				c-0.56-2.26-2.52-3.93-4.86-3.93c-1.52,0-2.87,0.7-3.79,1.81c0.12-0.58,0.19-1.19,0.19-1.81c0-4.62-3.6-8.37-8.03-8.37
				c-4.44,0-8.03,3.75-8.03,8.37c0,0.35,0.03,0.7,0.07,1.04c-0.84-0.65-1.87-1.04-3-1.04c-2.77,0-5.02,2.34-5.02,5.23
				c0,0.36,0.04,0.72,0.1,1.06c-1.7,0.16-3.03,1.59-3.03,3.33l0,0c0,1.85,1.5,3.35,3.35,3.35h38.91c1.85,0,3.35-1.5,3.35-3.35l0,0
				C1007.57,567.2,1006.29,565.79,1004.64,565.59z"/><path fill="#ffa629" d="M1017.2,569.95c0,5.43-4.4,9.83-9.83,9.83c-5.43,0-9.83-4.4-9.83-9.83c0-5.43,4.4-9.83,9.83-9.83
				C1012.79,560.12,1017.2,564.52,1017.2,569.95z"/><path fill="#f5feff" d="M1046.06,578.56c0-0.02,0-0.05,0-0.07c0-2.29-1.78-4.14-3.97-4.14c-1.38,0-2.59,0.73-3.3,1.83
				c-0.56-2.26-2.52-3.93-4.86-3.93c-1.52,0-2.87,0.7-3.79,1.81c0.12-0.58,0.19-1.19,0.19-1.81c0-4.62-3.6-8.37-8.03-8.37
				c-4.44,0-8.03,3.75-8.03,8.37c0,0.35,0.03,0.7,0.07,1.04c-0.84-0.65-1.87-1.04-3-1.04c-2.77,0-5.02,2.34-5.02,5.23
				c0,0.36,0.04,0.72,0.1,1.06c-1.7,0.16-3.03,1.59-3.03,3.33l0,0c0,1.85,1.5,3.35,3.35,3.35h38.91c1.85,0,3.35-1.5,3.35-3.35l0,0
				C1048.99,580.17,1047.71,578.76,1046.06,578.56z"/></g><g><path fill="#58bfc4" d="M327.47,209.53v129.62c0,8.59,6.96,15.55,15.55,15.55h169.16c8.59,0,15.55-6.96,15.55-15.55V209.53H327.47z"/><path fill="#2678aa" d="M506.55,177.74H348.66c-11.7,0-21.19,9.49-21.19,21.19v11.66h200.27v-11.66
			C527.74,187.23,518.25,177.74,506.55,177.74z"/><path fill="#fff" d="M370.87,167.67c-5.56,0-10.07,4.51-10.07,10.07c0,5.56,4.51,10.07,10.07,10.07v-1.83
				c-4.54,0-8.24-3.69-8.24-8.24s3.69-8.24,8.24-8.24c4.54,0,8.24,3.69,8.24,8.24h1.83C380.93,172.18,376.42,167.67,370.87,167.67z"/><path fill="#fff" d="M393.74,167.67c-5.56,0-10.07,4.51-10.07,10.07c0,5.56,4.51,10.07,10.07,10.07v-1.83
				c-4.54,0-8.24-3.69-8.24-8.24s3.69-8.24,8.24-8.24c4.54,0,8.24,3.69,8.24,8.24h1.83C403.81,172.18,399.3,167.67,393.74,167.67z"/><path fill="#fff" d="M416.62,167.67c-5.56,0-10.07,4.51-10.07,10.07c0,5.56,4.51,10.07,10.07,10.07v-1.83
				c-4.54,0-8.24-3.69-8.24-8.24s3.69-8.24,8.24-8.24c4.54,0,8.24,3.69,8.24,8.24h1.83C426.69,172.18,422.18,167.67,416.62,167.67z"/><path fill="#fff" d="M438.59,167.67c-5.56,0-10.07,4.51-10.07,10.07c0,5.56,4.51,10.07,10.07,10.07v-1.83
				c-4.54,0-8.24-3.69-8.24-8.24s3.69-8.24,8.24-8.24c4.54,0,8.24,3.69,8.24,8.24h1.83C448.65,172.18,444.14,167.67,438.59,167.67z"/><path fill="#fff" d="M461.46,167.67c-5.56,0-10.07,4.51-10.07,10.07c0,5.56,4.51,10.07,10.07,10.07v-1.83
				c-4.54,0-8.24-3.69-8.24-8.24s3.69-8.24,8.24-8.24c4.54,0,8.24,3.69,8.24,8.24h1.83C471.53,172.18,467.02,167.67,461.46,167.67z"/><path fill="#fff" d="M484.34,167.67c-5.56,0-10.07,4.51-10.07,10.07c0,5.56,4.51,10.07,10.07,10.07v-1.83
				c-4.54,0-8.24-3.69-8.24-8.24s3.69-8.24,8.24-8.24c4.54,0,8.24,3.69,8.24,8.24h1.83C494.41,172.18,489.9,167.67,484.34,167.67z"/><rect width="20.08" height="20.08" x="353.16" y="240.26" fill="#cf493e"/><rect width="20.08" height="20.08" x="385.36" y="240.26" fill="#fff"/><rect width="20.08" height="20.08" x="417.56" y="240.26" fill="#fff"/><rect width="20.08" height="20.08" x="449.76" y="240.26" fill="#fff"/><rect width="20.08" height="20.08" x="481.97" y="240.26" fill="#fff"/><rect width="20.08" height="20.08" x="353.16" y="266.78" fill="#fff"/><rect width="20.08" height="20.08" x="385.36" y="266.78" fill="#fff"/><rect width="20.08" height="20.08" x="417.56" y="266.78" fill="#fff"/><rect width="20.08" height="20.08" x="449.76" y="266.78" fill="#fff"/><rect width="20.08" height="20.08" x="481.97" y="266.78" fill="#cf493e"/><rect width="20.08" height="20.08" x="353.16" y="293.29" fill="#fff"/><rect width="20.08" height="20.08" x="385.36" y="293.29" fill="#fff"/><rect width="20.08" height="20.08" x="417.56" y="293.29" fill="#fff"/><rect width="20.08" height="20.08" x="449.76" y="293.29" fill="#fff"/><rect width="20.08" height="20.08" x="481.97" y="293.29" fill="#cf493e"/><path fill="#fff" d="M368.07,186.69c0-1.55,1.25-2.8,2.8-2.8c1.55,0,2.8,1.25,2.8,2.8c0,1.55-1.25,2.8-2.8,2.8
			C369.32,189.49,368.07,188.24,368.07,186.69z"/><path fill="#fff" d="M390.94,186.69c0-1.55,1.25-2.8,2.8-2.8c1.55,0,2.8,1.25,2.8,2.8c0,1.55-1.25,2.8-2.8,2.8
			C392.2,189.49,390.94,188.24,390.94,186.69z"/><path fill="#fff" d="M413.82,186.69c0-1.55,1.25-2.8,2.8-2.8c1.55,0,2.8,1.25,2.8,2.8c0,1.55-1.25,2.8-2.8,2.8
			C415.08,189.49,413.82,188.24,413.82,186.69z"/><circle cx="439.5" cy="186.69" r="2.8" fill="#fff"/><path fill="#fff" d="M459.58,186.69c0-1.55,1.25-2.8,2.8-2.8c1.55,0,2.8,1.25,2.8,2.8c0,1.55-1.25,2.8-2.8,2.8
			C460.83,189.49,459.58,188.24,459.58,186.69z"/><path fill="#fff" d="M482.46,186.69c0-1.55,1.25-2.8,2.8-2.8c1.55,0,2.8,1.25,2.8,2.8c0,1.55-1.25,2.8-2.8,2.8
			C483.71,189.49,482.46,188.24,482.46,186.69z"/></g><g><path fill="#d15046" d="M581.45,148.24c0.37,0.6,0.49,1.31,0.31,2.02c-0.23,0.93-0.91,1.65-1.84,1.92l-8.9,2.6
								c-0.92,0.27-1.89,0.03-2.58-0.63c-0.69-0.66-0.97-1.62-0.74-2.55l2.2-9.01c0.23-0.93,0.92-1.65,1.84-1.92
								c0.92-0.27,1.89-0.03,2.58,0.63l6.7,6.41C581.19,147.87,581.33,148.05,581.45,148.24z M569.8,152.52
								c0.03,0.05,0.07,0.09,0.09,0.11c0.07,0.07,0.26,0.22,0.55,0.13l8.9-2.6c0.28-0.08,0.37-0.31,0.39-0.41
								c0.02-0.09,0.05-0.34-0.16-0.54l-6.7-6.41c-0.21-0.2-0.45-0.16-0.55-0.13c-0.09,0.03-0.32,0.12-0.39,0.41l-2.2,9.01
								C569.69,152.28,569.74,152.42,569.8,152.52z"/></g><g><path fill="#d15046" d="M1000.28,419.94c0.37,0.6,0.49,1.31,0.31,2.02c-0.23,0.93-0.91,1.65-1.84,1.92l-8.9,2.6
								c-0.92,0.27-1.89,0.03-2.58-0.63c-0.69-0.66-0.97-1.62-0.74-2.55l2.2-9.01c0.23-0.93,0.92-1.65,1.84-1.92
								c0.92-0.27,1.89-0.03,2.58,0.63l6.7,6.41C1000.02,419.57,1000.17,419.75,1000.28,419.94z M988.63,424.22
								c0.03,0.05,0.07,0.09,0.09,0.11c0.07,0.07,0.26,0.22,0.55,0.13l8.9-2.6c0.28-0.08,0.37-0.31,0.39-0.41
								c0.02-0.09,0.05-0.34-0.16-0.54l-6.7-6.41c-0.21-0.2-0.45-0.16-0.55-0.13c-0.09,0.03-0.32,0.12-0.39,0.41l-2.2,9.01
								C988.52,423.98,988.57,424.12,988.63,424.22z"/></g><g><path fill="#ffba30" d="M214.34,740.8l3.27-3.27c0.74-0.74,0.74-1.95,0-2.69c-0.74-0.74-1.95-0.74-2.69,0l-3.27,3.27l-3.27-3.27
			c-0.74-0.74-1.95-0.74-2.69,0c-0.74,0.74-0.74,1.95,0,2.69l3.27,3.27l-3.27,3.27c-0.74,0.74-0.74,1.95,0,2.69
			c0.37,0.37,0.86,0.56,1.35,0.56c0.49,0,0.97-0.19,1.35-0.56l3.27-3.27l3.27,3.27c0.37,0.37,0.86,0.56,1.35,0.56
			c0.49,0,0.97-0.19,1.35-0.56c0.74-0.74,0.74-1.95,0-2.69L214.34,740.8z"/></g><g><path fill="#ffba30" d="M1056.08,204.65l3.27-3.27c0.74-0.74,0.74-1.95,0-2.69c-0.74-0.74-1.95-0.74-2.69,0l-3.27,3.27l-3.27-3.27
			c-0.74-0.74-1.95-0.74-2.69,0c-0.74,0.74-0.74,1.95,0,2.69l3.27,3.27l-3.27,3.27c-0.74,0.74-0.74,1.95,0,2.69
			c0.37,0.37,0.86,0.56,1.35,0.56c0.49,0,0.97-0.19,1.35-0.56l3.27-3.27l3.27,3.27c0.37,0.37,0.86,0.56,1.35,0.56
			c0.49,0,0.97-0.19,1.35-0.56c0.74-0.74,0.74-1.95,0-2.69L1056.08,204.65z"/></g><g><path fill="#58bfc4" d="M320,525.48c-4.12,0-7.48-3.36-7.48-7.48c0-4.12,3.36-7.48,7.48-7.48c4.12,0,7.48,3.36,7.48,7.48
				C327.47,522.12,324.12,525.48,320,525.48z M320,512.86c-2.83,0-5.14,2.31-5.14,5.14c0,2.83,2.31,5.14,5.14,5.14
				c2.83,0,5.14-2.31,5.14-5.14C325.13,515.17,322.83,512.86,320,512.86z"/></g><g><path fill="#58bfc4" d="M1117.13,722.15c-4.12,0-7.48-3.36-7.48-7.48c0-4.12,3.36-7.48,7.48-7.48c4.12,0,7.48,3.36,7.48,7.48
				C1124.61,718.79,1121.25,722.15,1117.13,722.15z M1117.13,709.53c-2.83,0-5.14,2.31-5.14,5.14c0,2.83,2.31,5.14,5.14,5.14
				c2.83,0,5.14-2.31,5.14-5.14C1122.27,711.84,1119.96,709.53,1117.13,709.53z"/></g></svg>