<svg xmlns="http://www.w3.org/2000/svg" viewBox="0 0 1600 1200"><g data-name="5"><g data-name="Small Elements"><path fill="#fabb05" d="M904 241h109v24H904z"/><circle cx="1042" cy="253" r="12" fill="#df382b"/><path fill="#4285f4" d="M1240 622h67v26h-67z"/><path fill="#34a853" d="M174 801h67v26h-67z"/><path fill="#df382b" d="m261 353.96-27.1-20.01 27.1-20v40.01z"/></g><path fill="#e5e5e5" d="M630 329h561v394.47H630z"/><path fill="#fff" d="M696 404h89v125h-89z"/><circle cx="740.14" cy="448.9" r="24.91" fill="#fabb05"/><path fill="#fabb05" d="M709.83 487.75h60.62v7h-60.62zM709.83 505.19h60.62v7h-60.62z"/><rect width="122.91" height="143.67" x="832.46" y="403.64" fill="#fff" rx="6.66"/><path fill="#4285f4" d="M893.05 420.25h44.01v54.81h-44.01z"/><path fill="#fff" d="M913.06 412.51h4v70.29h-4z" transform="rotate(-38.77 914.922 447.637)"/><path fill="#fff" d="M879.91 445.65h70.29v4h-70.29z" transform="rotate(-51.23 915.114 447.658)"/><path fill="#df382b" d="M822.87 693c-19.76 0-77.55-5.41-95.14-23.14-3.46-3.49-5.17-7.31-5.09-11.35.28-13.63 9-21.82 28.29-26.55 18.88-4.64 49.16-6.26 98.17-5.25l-.08 4c-48.65-1-78.61.58-97.14 5.13-17.45 4.29-25 11.09-25.24 22.75-.06 3 1.23 5.72 3.93 8.45 16.1 16.23 72.6 22.2 93.39 22 97.45-1.15 113.11-23.69 113.77-37 .23-4.77-1.46-9-5.19-12.8-22.17-22.83-104.79-21.46-105.62-21.44l-.08-4c3.47-.06 85.19-1.42 108.57 22.66 4.48 4.61 6.6 9.92 6.31 15.78-.89 18-22 39.71-117.71 40.83Z"/><path fill="#ccc" d="M847 489.25h93.84v4H847zM847 505.86h93.84v4H847z"/><path fill="#4285f4" d="m745.06 461.62-2.64-3a204.17 204.17 0 0 1 43.46-27.82c32.79-15.15 60.87-14.45 81.2 2l-2.52 3.11c-46.32-37.52-118.77 25.09-119.5 25.71Z"/><path fill="#34a853" d="m819.17 679.58-18.24-21.35 5.32-4.55 13.67 16 39.09-33.81 4.58 5.29-44.42 38.42z"/><path fill="#fff" d="M1005.62 408h133.82v130h-133.82z"/><path fill="#df382b" d="m1124.15 473-29.95-45.22-29.96 45.22h59.91z"/><circle cx="1043.85" cy="450.06" r="22.94" fill="#fabb05"/><path fill="#34a853" d="M1047.68 480.65h45.88v42.06h-45.88z"/><circle cx="867" cy="435" r="7" fill="#4285f4"/><circle cx="946" cy="429" r="7" fill="#4285f4"/><circle cx="890" cy="653" r="7" fill="#4285f4"/><path fill="#4285f4" d="M888 654.21c-5-15.85-4-30.1 2.92-42.36 15.82-28 58.21-38.32 76.31-42.72l.31-.07c67.6-16.42 66.49-49.61 66.47-49.95l4-.22c.08 1.49 1.28 36.86-69.53 54.05l-.31.08c-17.59 4.27-58.8 14.28-73.77 40.8-6.35 11.25-7.22 24.44-2.58 39.19ZM1005.67 446.85a121.2 121.2 0 0 1-25.46-2.64c-22.31-4.79-34.9-14.22-35.42-14.62l2.42-3.18c.12.09 12.55 9.36 34 13.93 19.83 4.22 51.7 5.19 90.86-14.13l1.76 3.58c-26.32 13.02-49.53 17.06-68.16 17.06Z"/><path fill="#ccc" d="M630 329h561v38H630z"/><circle cx="701.84" cy="347.89" r="6.89" fill="#fff"/><circle cx="678.87" cy="347.89" r="6.89" fill="#fff"/><circle cx="655.89" cy="347.89" r="6.89" fill="#fff"/><circle cx="1073" cy="428" r="7" fill="#4285f4"/><circle cx="1036" cy="519" r="7" fill="#4285f4"/><g><path fill="#e3e3e3" d="M542 759.08h304.5v135.97H542z"/><path fill="#df382b" d="M566.42 780.38h36.39v33.51h-36.39z"/><path fill="#fff" d="M756.01 807.43h71.82v67.99h-71.82z"/><path fill="#ccc" d="M614.29 793.31h80.43v7.66h-80.43z"/><path fill="#fff" d="M566.42 837.12H700v7.66H566.42zM566.42 854.35h119.21v7.66H566.42z"/><path fill="#34a853" d="M787.9 862.07 768.61 847a4.72 4.72 0 0 1-.81-6.63 4.72 4.72 0 0 1 6.62-.82l12.32 9.62 22-24.61a4.72 4.72 0 0 1 6.67-.38 4.72 4.72 0 0 1 .38 6.67Z"/></g><g><circle cx="511.5" cy="289.5" r="42.5" fill="#34a853"/><path fill="#fff" d="m507.25 310.26-20.48-16a5 5 0 0 1-.87-7 5 5 0 0 1 7-.87l13.1 10.18 23.38-26.15a5 5 0 0 1 7.08-.4 5 5 0 0 1 .4 7.09Z"/></g><g><path fill="#290c0c" d="M1245 1045h28c6 0 14 0 22-7l63 44s-26 8-44-2c-11.15-6.19-70-2-70-2ZM974.56 1084.78H891s2.73-10.54 19.52-14.06c7-1.46 19.92-1.17 24.6-14.44 3.54-10-2.45-29.68-2.45-29.68h32Z"/><path fill="#001b69" d="M1131 847s20 43.92 0 118.18c0 0-1.58 19.61 1 59l141.72 17.21V1084h-184.6a23.09 23.09 0 0 1-22.76-19.19c-6.26-36.66-19.42-116.14-21.86-151.3l-12.27-74.27Z"/><path fill="#003180" d="M1122.64 854.06s17.59 95.29-96.22 72.55C1009.6 923.26 970 909 970 909l2.82 141h-48.44l-25.12-184.47s-3.23-20.66 12.27-26.47 140.72 7.94 140.72 7.94Z"/><path fill="#efc4b0" d="m1076 696.06-35.83 9.23-2.05-15.09-1.11-8.11v-.16c-31 .14-13.59-55.62-13.59-55.62l40.39-1.67Z"/><path fill="#290c0c" d="M1085.81 619.12s-25.55-38.28-37.77-28.74a4.69 4.69 0 0 0-1.18 5.06c-26.9-23.32-25.81 3.91-25.81 3.91-10.46-1.22-9.29 29 19 37.33a21.41 21.41 0 0 0 1.31 12.39l2.85.94a22.72 22.72 0 0 1 4.47-8.17 5.56 5.56 0 0 1 6.9-1.09c1.85 1.15 3.1 3.54 1.9 8.32 0 0-2.54 9-8.53 7.58 0 0 4 20 22.45 12.76.03 0 30.3-32.19 14.41-50.29Z"/><path fill="#efc4b0" d="m894.94 691.92-3.55-11.74-9.33-8.08a1.11 1.11 0 0 0-1.84.82c-.07 2.51.22 6.63 2.51 9.87Z"/><path fill="#290c0c" d="m900 691.52-31.61-22.91-9-2.94a.88.88 0 0 0-1 1.3l5.34 8.43 31.28 23a4.24 4.24 0 0 0 6-1 4.25 4.25 0 0 0-1.01-5.88Z"/><path fill="#efc4b0" d="m1107.87 821.76-14.72-54.64L1088 748l43.12-9.54 4 13.57 9.72 32.92s12.16 34.05-36.97 36.81ZM998 774.3 984.42 786l-17.17 14.82a12.71 12.71 0 0 1-18.13-1.55l-76-92.64-7.89-16.19a4.79 4.79 0 0 1 0-4.1L872.6 670a.91.91 0 0 1 1.58-.12c2.6 3.88 1.13 15.19 1.13 15.19l2.55 4 5.69 1 10.4 7.69 3.06 7.8 58 49 7-6.1 10.07-8.74Z"/><path fill="#ef9992" d="M1037.88 688.62c14-6.09 17.12-14.62 17.12-14.62-6.85 5.24-13 7.39-18 8.09ZM997.97 774.3 984.42 786l-22.41-37.59 10.07-8.74 25.89 34.63zM1135.13 752.03l-41.98 15.09L1088 748l43.12-9.54 4.01 13.57z"/><path fill="#df382b" d="M1141.7 872.46 1114.57 753l20-5.08s-5.4-19.64-15.58-34.91c-8-12-15-17.82-25.35-22.8-5.59-2.69-15.71-6.07-22.65-5.2-16 2-17 2-33 4-13.57 1.7-33 17-49 32s-25 24-25 24l30.39 37.69 14.62-11.8 10.27 74S1054 866 1081 873c40.63 10.53 60.7-.54 60.7-.54Z"/></g><g><path fill="#290c0c" d="m425 432.78-.51-12.64a62.44 62.44 0 0 0 6.18-8.59c5.88-9.71 12.34-25.92 1.41-39.46-7.15-8.85-29.43-20.63-47.91-10-3.3 1.89-12.74 6.85-20.37 29.76-2.42 7.25-7.46 13.46-23.77 19.22-11.55 4.09-28.83 12.65-33.89 35.41-2.23 10 .47 19.6 4.17 27.14a36.7 36.7 0 0 0 24.88 19.52c22 4.94 65.24 11.07 94.36-8.23 0 0 20.11-23.06-3.43-50.81Z"/><path fill="#efc4b0" d="M430.67 411.55c-.31 10.78-2.1 17.89-4.55 22.51-6.79 12.78-18.69 6.63-18.69 6.63v.34l-.79 8.53-2.3 24.44-44.08-.26 15.09-55.92a14.26 14.26 0 0 1-4.47-15.16c5.56-8.6 12.64 2 12.64 2 23.78-3.54 35.92-24 35.92-24 8.59 4 10.87 16.43 10.87 16.43a144.23 144.23 0 0 1 .36 14.46Z"/><path fill="#290c0c" d="M275 1085h84.28s-2.76-10.63-19.7-14.18c-7-1.47-15.08-1.18-19.81-14.57-3.56-10.1-1.53-29.93-1.53-29.93H286ZM443.64 1085H528s-2.76-10.64-19.71-14.19c-7.05-1.48-16.5-1.47-26.58-12.56-10.29-11.31-11.39-30.89-11.39-30.89H438Z"/><path fill="#ef9992" d="m407.4 441-.79 8.53c-3.95-3.46-8.1-9.5-8.61-19.7 0 .03 1.22 6.17 9.4 11.17Z"/><path fill="#fd9124" d="m436 618 32.53 166.66a52.56 52.56 0 0 1 .89 7L485 1046h-60l-30-235-43-193Z"/><path fill="#efc4b0" d="m530 454-8-6s-3 6-16-5a55.27 55.27 0 0 1-9 1l-.56 23.32L496 486l-39-6 3.54-9.49 14-37.55a11 11 0 0 1 5.23-5.9l21.58-11.16a6.48 6.48 0 0 1 6.94.62l16.88 13.05a5.67 5.67 0 0 1 2.15 3.75Z"/><path fill="#fabb05" d="m413.5 625.5-24.6 173.21c-.27 1.86-.62 3.7-1.07 5.53L328.5 1046.5h-52l36-251s-16-120-6-178Z"/><path fill="#4285f4" d="m467 532-6.4 12.07-7.23 13.66-1.49 2.8-8.78 16.57 1.44 25L448 662s-39.95 9-78 9c-25 0-71-9-71-9l4.81-28.8 1.88-11.2.07-.45c-45.76 5.45-30.35-42.28-20.57-78.83 5.87-22 13.21-43.74 18.37-58.26a38.34 38.34 0 0 1 23.61-23.38L367 447s36 30 40 1l31.12 18.3a20.54 20.54 0 0 1 8.3 10.21Z"/><path fill="#2967b2" d="m460.6 544.07-7.23 13.66-1.49 2.8-8.78 16.57 1.44 24.97L417 600l-113.19 33.2 1.88-11.22L410 581l-4.88-19.72L437 545l23.6-.93z"/><path fill="#ef9992" d="M496.44 467.32 496 486l-39-6 3.54-9.49 35.9-3.19z"/><path fill="#290c0c" d="M444.23 479 413.7 587.65a6.19 6.19 0 0 0 5.95 7.85h91.17a6.18 6.18 0 0 0 5.95-4.5l30.53-108.65a6.19 6.19 0 0 0-5.95-7.85h-91.17a6.18 6.18 0 0 0-5.95 4.5Z"/><path fill="#cecece" d="M452.23 479 421.7 587.65a6.19 6.19 0 0 0 5.95 7.85h91.17a6.18 6.18 0 0 0 5.95-4.5l30.53-108.65a6.19 6.19 0 0 0-5.95-7.85h-91.17a6.18 6.18 0 0 0-5.95 4.5Z"/><path fill="#efc4b0" d="m471.62 540.44-.12.06s1 7-11 7c0 0 1 4-7 6s-29-1-29-1l-12.08 7-6.92 4-7-26 2.66-2 14.34-11s15-16 21-18l-5 17 19-2 13.47-4a3.25 3.25 0 0 1 4.13 2.59 3.41 3.41 0 0 1 0 .55 3.26 3.26 0 0 1-1.8 2.9l-13.8 6.96-8 2 12 1h13.29c3.81 0 5.21 5.15 1.83 6.94Z"/><path fill="#290c0c" d="m536.9 469.7-45-60 3.2-2.4 45 60 1.9 5.7-5.1-3.3z"/><ellipse cx="496.22" cy="529.16" fill="#fff" rx="9.5" ry="6.82" transform="rotate(-65.97 496.273 529.176)"/><path fill="#2967b2" d="m363 550-38 15 16-49-8 41 30-7z"/><path fill="#ef9992" d="m412.42 559.49-6.92 4.01-7-26 2.66-2.03 11.26 24.02z"/></g><path fill="#290c0c" d="M176 1083h1256v6H176z"/></g></svg>