<svg xmlns="http://www.w3.org/2000/svg" xmlns:xlink="http://www.w3.org/1999/xlink" enable-background="new 0 0 2000 2000" viewBox="0 0 2000 2000"><path fill="#f9a823" d="M1254.8,418.3c-72.5-57.2-164.3-91.2-264-90.5c-211.6,1.5-387.6,161.1-414.7,366
					c5.2-17.6,20.8-31.1,39.5-33.1c15.7-1.7,29.9,4.5,39.5,15h3.1c0.4,0,0.7,0,1.1,0c9.7-0.6,17.3-8.5,17.3-18.3V549.4h127.6
					c7.3,0,13.2-5.9,13.2-13.2v-6.3c-14.5-7.3-23.7-23.3-21-41.2c2.6-17.2,17-30.8,34.2-32.8c23.7-2.6,43.8,15.8,43.8,39
					c0,13.5-6.9,25.5-17.3,32.5v8.7c0,7.3,5.9,13.2,13.2,13.2h123.4v91c-37.3,0-67.5,30.2-67.5,67.5c0,17.1,6.4,32.9,17,44.8
					c5.6,6.4,12.5,11.7,20.2,15.6c9.1,4.6,19.4,7.2,30.3,7.2v91H676.6V752.7c0-5.1-2.1-9.7-5.4-13c-3.3-3.3-7.9-5.4-13-5.4
					c-8.4,11.6-22,19.1-37.5,19.1c-24.8,0-45-19.5-46.4-43.8c-1.1,11.7-1.7,23.5-1.8,35.5c-1,93,28.3,179.2,78.5,249.3
					c15,20.9,28.5,42.8,40.4,65.4c2.6,5,5.2,10,7.6,15c1,2,2,4.1,3,6.1c1.2,2.5,2.4,5,3.5,7.5c1.4,3.1,2.8,6.2,4.2,9.3
					c1.1,2.5,2.2,5.1,3.3,7.7c1.1,2.6,2.2,5.2,3.2,7.8c6.3,15.6,11.8,31.5,16.6,47.5c0.8,2.7,1.6,5.4,2.4,8.1
					c1.6,5.4,3,10.8,4.3,16.2c3.5,14,6.5,28.2,8.9,42.6c0.8,4.5,1.5,9,2.1,13.4c2.1,14.5,3.6,29.1,4.5,43.8c0.2,2.8,0.3,5.5,0.5,8.3
					c0,1.3,0.1,2.6,0.1,3.9c0.1,2.8,0.2,5.6,0.3,8.4c0.1,2.8,0.1,5.5,0.1,8.3c0,1.7,0,3.4,0,5v2.1h476v-2.1c0-1.7,0-3.4,0-5
					c0-3.4,0.1-6.7,0.2-10.1c0-0.5,0-0.9,0-1.4c0.1-2.2,0.2-4.4,0.2-6.6c0-1.6,0.1-3.2,0.2-4.8c0.1-2.8,0.3-5.5,0.5-8.3
					c0-0.7,0-1.4,0.1-2.1c0.1-2,0.3-3.9,0.4-5.9c0.1-1.9,0.3-3.9,0.5-5.8c0.2-2.7,0.5-5.5,0.8-8.2c0.3-3.2,0.7-6.5,1.1-9.7
					c0.1-1,0.2-2.1,0.4-3.1c0.3-2.3,0.6-4.5,0.9-6.8c1.8-12.8,4.1-25.6,6.8-38.2c0.3-1.7,0.7-3.3,1.1-5c0.6-2.8,1.2-5.5,1.9-8.2
					c0.1-0.4,0.2-0.8,0.3-1.2c0.4-1.8,0.9-3.7,1.4-5.5c0.1-0.5,0.2-1,0.4-1.5c0.3-1.4,0.7-2.8,1.1-4.3c0.8-3.1,1.6-6.1,2.5-9.2
					c0.6-2.1,1.2-4.2,1.8-6.3c0.9-3.1,1.9-6.2,2.9-9.3c0.6-1.8,1.2-3.6,1.8-5.5c1.3-4.3,2.8-8.5,4.3-12.8c0.9-2.5,1.8-5,2.7-7.4
					c1-2.7,2-5.4,3-8c1.3-3.4,2.6-6.7,4-10c1-2.4,1.9-4.7,3-7c0.8-2,1.7-4,2.5-5.9c3.4-7.8,7-15.5,10.9-23.1c1.2-2.5,2.5-5,3.8-7.5
					c1.2-2.4,2.4-4.8,3.7-7.2c1.3-2.5,2.7-5,4.1-7.5c1.5-2.8,3.1-5.5,4.7-8.3c0.3-0.6,0.6-1.1,0.9-1.6c1.7-2.9,3.4-5.8,5.2-8.7
					c7.5-12.3,15.5-24.4,23.9-36.2c49.9-69.2,79.2-154.2,79.2-246C1415.4,615.1,1352.7,495.4,1254.8,418.3z M1204.2,1217v77H935.9
					v-96.2c0-4.3-1.8-8.2-4.6-11c-2.8-2.8-6.6-4.5-10.8-4.6h-0.2c-7.2,9.7-18.7,16.2-31.7,16.2c-23.1,0-41.6-20.1-39-43.8
					c2-18.1,16.7-32.7,34.7-34.7c13.3-1.4,25.3,3.8,33.4,12.7h2.6c0.8,0,1.6,0,2.3-0.2c7.5-1.1,13.3-7.6,13.3-15.4v-91.3h107.9
					c0.6,0,1.2,0,1.8-0.1c5.3-0.8,9.4-5.5,9.4-11v-5.3c-3-1.5-5.8-3.5-8.1-5.9c-7.3-7.1-11.4-17.6-9.7-29
					c2.3-14.6,14.4-26.1,29-27.7c14.8-1.7,28,6.5,33.8,18.8c2.1,4.3,3.2,9.1,3.2,14.2c0,11.5-5.8,21.6-14.7,27.5v7.4
					c0,6.2,5,11.2,11.2,11.2h104.5v77c-31.6,0-57.1,25.6-57.1,57.1C1147,1191.5,1172.6,1217,1204.2,1217z"/><path fill="#ed981d" d="M1254.8,418.3c0,0,12.6,160.6-65.8,321.9c-3.6,7.4-7.4,14.8-11.4,22.1
					c-28.5,52.8-67.2,104.8-119.9,150.4v0c-7.9,6.9-16.2,13.6-24.8,20.2c-0.7,0.6-1.5,1.2-2.3,1.8c-6.3,4.8-12.8,9.4-19.4,14
					c-21.5,14.8-44.8,28.7-70.2,41.3v0c-6.7,3.3-13.6,6.6-20.7,9.7v0c-63.6,28.6-139.2,49.7-229.1,59.8c2.6,5,5.2,10,7.6,15
					c1,2,2,4.1,3,6.1c1.2,2.5,2.4,5,3.5,7.5c1.4,3.1,2.8,6.1,4.2,9.3c1.1,2.5,2.2,5.1,3.3,7.7c1.1,2.6,2.2,5.2,3.2,7.8
					c6.3,15.6,11.8,31.5,16.6,47.5c0.8,2.7,1.6,5.4,2.4,8.1c1.6,5.4,3,10.8,4.3,16.2c3.5,14,6.5,28.2,8.9,42.6
					c0.8,4.5,1.5,9,2.1,13.4c2.1,14.5,3.6,29.1,4.5,43.8c0.2,2.8,0.3,5.5,0.5,8.3c0,1.3,0.1,2.6,0.1,3.9c0.1,2.8,0.2,5.6,0.3,8.4
					c0.1,2.8,0.1,5.5,0.1,8.3c0,1.7,0,3.4,0,5v2.1h476v-2.1c0-1.7,0-3.4,0-5c0-3.4,0-6.7,0.2-10.1c0-0.5,0-0.9,0-1.4
					c0-2.2,0.1-4.4,0.2-6.6c0-1.6,0.1-3.2,0.2-4.8c0.1-2.8,0.3-5.5,0.5-8.3c0-0.7,0-1.4,0.1-2.1c0.1-2,0.2-3.9,0.4-5.9
					c0.1-1.9,0.3-3.9,0.5-5.8c0.2-2.8,0.5-5.5,0.8-8.2c0.3-3.2,0.7-6.5,1.1-9.7c0.1-1,0.2-2.1,0.4-3.1c0.3-2.3,0.6-4.5,0.9-6.8
					c1.8-12.8,4.1-25.6,6.8-38.2c0.3-1.7,0.7-3.3,1.1-5c0.6-2.8,1.2-5.5,1.9-8.2c0.1-0.4,0.2-0.8,0.3-1.2c0.4-1.8,0.9-3.7,1.4-5.5
					c0.1-0.5,0.2-1,0.4-1.5c0.3-1.4,0.7-2.8,1.1-4.3c0.8-3.1,1.6-6.1,2.5-9.2c0.6-2.1,1.2-4.2,1.8-6.3c0.9-3.1,1.8-6.2,2.9-9.3
					c0.6-1.8,1.1-3.7,1.8-5.5c1.3-4.3,2.8-8.5,4.3-12.8c0.8-2.5,1.8-4.9,2.7-7.4c1-2.7,2-5.4,3-8c1.3-3.4,2.6-6.7,4-10
					c1-2.4,1.9-4.7,3-7c0.8-2,1.7-4,2.5-5.9c3.4-7.8,7-15.5,10.9-23.1c1.2-2.5,2.5-5,3.8-7.5c1.2-2.4,2.4-4.8,3.7-7.2
					c1.3-2.5,2.7-5,4.1-7.5c1.5-2.8,3.1-5.5,4.7-8.3c0.3-0.6,0.6-1.1,0.9-1.6c1.7-2.9,3.4-5.8,5.2-8.7c7.5-12.3,15.5-24.4,23.9-36.2
					c49.9-69.2,79.2-154.2,79.2-246C1415.4,615.1,1352.7,495.4,1254.8,418.3z M849.5,1154.7c2-18.1,16.7-32.7,34.7-34.7
					c13.3-1.4,25.3,3.8,33.4,12.7h2.6c0.8,0,1.6,0,2.3-0.2c7.5-1.1,13.3-7.6,13.3-15.4v-91.3h107.9c0.6,0,1.2,0,1.8-0.1
					c5.3-0.8,9.4-5.5,9.4-11v-5.3c-3-1.5-5.8-3.5-8.1-5.9c-7.3-7.1-11.4-17.6-9.7-29c2.3-14.6,14.4-26.1,29-27.7
					c14.8-1.7,28,6.5,33.8,18.8c2.1,4.3,3.2,9.1,3.2,14.2c0,11.5-5.8,21.6-14.7,27.5v7.4c0,6.2,5,11.2,11.2,11.2h104.5v77
					c-31.6,0-57.1,25.6-57.1,57.1c0,31.6,25.6,57.1,57.1,57.1v77H935.9v-96.2c0-4.3-1.8-8.2-4.6-11c-2.8-2.8-6.6-4.5-10.8-4.6h-0.2
					c-7.2,9.7-18.7,16.2-31.7,16.2C865.4,1198.4,846.9,1178.4,849.5,1154.7z"/><path fill="#f4d1a6" d="M676.6,580.3v77.1c0,9.8-7.7,17.8-17.3,18.3C651.5,650,658.1,615.6,676.6,580.3z"/><path fill="#f4d1a6" d="M923,549.4h-52.8c-7.3,0-13.2-5.9-13.2-13.2v-8.7c10.4-7,17.3-19,17.3-32.5
					c0-23.1-20.1-41.6-43.8-39c-17.2,1.9-31.6,15.6-34.2,32.8c-2.8,17.8,6.5,33.8,21,41.2v6.3c0,7.3-5.9,13.2-13.2,13.2H695.8
					c9-12.4,19.4-24.7,31-36.4c66.3-66.3,149.9-90.2,186.7-53.5C933.3,479.4,935.5,512.6,923,549.4z"/><path fill="#f7c98d" d="M984.7,930.1l-0.9-1.2l-1.8-2.4l-10-13.3c-12.7,9.5-25,17-36.9,22.5
					c-3.6-24.2-8.2-47.5-14.2-69.2H899c6.8,23.6,11.9,49.4,15.7,76.6c-34.7,9.4-65.1-0.3-89.8-28.9c-12-14-21.2-30.5-27.8-47.7H775
					c7.8,22.9,19.2,44.6,33.7,61.5c19.1,22.2,54.9,49.9,108.6,36.5c1.2,11.6,2.3,23.3,3.1,35.3v0c3.1,43.6,3.5,88.9,2.2,132.7
					c7.5-1.1,13.3-7.6,13.3-15.4v-91.3h7.5c-0.6-12-1.3-23.9-2.3-35.8v0c-0.9-10.9-2-21.7-3.2-32.3c14.2-5.9,29.5-14.6,45.9-26.9
					C984.1,930.5,984.4,930.3,984.7,930.1z M931.3,1186.8c-2.8-2.8-6.6-4.5-10.8-4.6c-2.6,49.4-6.9,95-11,131.3
					c-0.2,2.4-0.5,4.8-0.8,7.1c-1,8.3-1.9,16.1-2.8,23.3c-2.5,20.1-4.7,35.4-6.1,44.5c-0.9,5.8-1.4,9.1-1.5,9.4l21,3.5
					c0.3-1.6,1-6.1,2-12.9c1.5-10,3.7-25.3,6.1-44.5c0.9-7.2,1.9-15,2.9-23.3c0.3-2.4,0.6-4.7,0.8-7.1c1.6-13.9,3.1-29,4.7-45.1
					v-70.6C935.9,1193.5,934.1,1189.6,931.3,1186.8z"/><path fill="#f7c98d" d="M1061.6,1344c-0.9-7.2-1.9-15-2.8-23.3c-0.3-2.3-0.6-4.7-0.8-7.1
					c-0.7-6.2-1.4-12.8-2.1-19.5h-21.6c0.7,6.7,1.4,13.3,2.1,19.5c0.3,2.4,0.6,4.8,0.8,7.1c1,8.3,1.9,16.1,2.9,23.3
					c1,8.2,2,15.7,3,22.3h21.5C1063.6,1359.7,1062.6,1352.2,1061.6,1344z M1189,740.1c-1-1.3-2.1-2.5-3.3-3.7
					c-10.8-10.6-35.1-22.8-76.5,14.1c-41.6,37.2-64.7,104.6-76.3,182.3c-0.1,0.9-0.3,1.8-0.4,2.6c-0.6-0.3-1.2-0.6-1.8-0.9
					c-9.7-4.6-19.6-10.5-29.8-17.7c-1.8-1.2-3.6-2.5-5.4-3.9l-11.8,15.7l-0.9,1.2c0.3,0.2,0.6,0.5,0.9,0.7
					c9.6,7.2,18.8,13.1,27.6,18c6.3,3.5,12.4,6.5,18.3,8.9c-2.6,22.2-4.4,45-5.5,68.2h19.7c0.6,0,1.2,0,1.8-0.1
					c0.3-7.4,0.8-14.9,1.3-22.2c-7.3-7.1-11.4-17.6-9.7-29c2.3-14.6,14.4-26.1,29-27.7c14.8-1.7,28,6.5,33.8,18.8
					c26.9-6.3,46.4-23.1,58.9-37.5C1203.8,875.7,1219,777,1189,740.1z M1142.7,914.1c-24.6,28.6-55.1,38.3-89.8,28.9
					c1.4-10.3,3-20.4,4.9-30.3v0c11.7-63.1,32.1-116.2,65.7-146.2c12.2-10.9,34.6-27.4,47.4-14.8c2.7,2.6,4.9,6.2,6.8,10.6
					C1191.2,794.3,1182.2,868.3,1142.7,914.1z"/><path fill="#f7c98d" d="M1026.7,671.1c-18.4-13.7-37.8-13.3-53.2,1.2c-16.1,15.2-26.6,45-30.4,80.4
					c5.6,6.4,12.5,11.7,20.2,15.6c1.9-36.8,11-67.6,24.7-80.5c3-2.8,6.7-5.4,11.7-5.4c3.9,0,8.5,1.5,14.2,5.8
					c61.8,46-9.8,181.1-26.1,209.9c-5-10-9.2-20.7-12.6-31.6h-22.2c4.7,16.4,10.9,32.2,18.7,46.7c2.5,4.9,5.4,9.7,8.4,14.3l1.6-1
					l1.8,2.4l0.9,1.2c5.4-4,10.8-8.4,16.2-13l0.1,0l1.2-1.1l0.9-1.4C1007.5,907.1,1111.2,733.8,1026.7,671.1z"/><path fill="#616161" d="M1186.6,1491.7h-6.1c-3.2,0-6.1,1.7-7.7,4.2h17.3
						C1188.8,1494.6,1187.7,1493.2,1186.6,1491.7z M720.5,1313.6v180.2c0,0.7,0,1.4,0,2.1c0.1,15.3,1.9,30.3,5.2,44.6
						c20.6,90.6,99.9,158.8,195.8,162.6c2.8,0.1,5.6,0.1,8.5,0.1h127.8c2.8,0,5.6,0,8.4-0.1c95.9-3.8,175.2-72.1,195.8-162.6
						c3.3-14.3,5.1-29.2,5.2-44.6c0-0.7,0-1.4,0-2.1v-180.2H720.5z M1171.4,1454.9c0,5.1,4.1,9.2,9.2,9.2h4.4
						c4.9-9.6,15.2-15.9,26.9-14.8c9.6,0.9,17.8,6.9,21.9,15.2c1.5,3.1,2.5,6.5,2.7,10.1c0.6,8.4-2.6,15.9-8,21.3
						c-4.9,4.9-11.6,7.9-19.1,7.9c-7.5,0-14.3-3-19.2-7.9c-1.3-1.2-2.4-2.7-3.5-4.2h-6.1c-3.2,0-6.1,1.7-7.7,4.2
						c-0.9,1.5-1.5,3.2-1.5,5v85.8h-63.3c0-23.3-17-42.6-39.3-46.3c-2.5-0.4-5-0.6-7.7-0.6c-2.6,0-5.2,0.2-7.7,0.6
						c-22.3,3.7-39.3,23-39.3,46.3h-63.3v-220.5h220.5V1454.9z M1186.6,1491.7h-6.1c-3.2,0-6.1,1.7-7.7,4.2h17.3
						C1188.8,1494.6,1187.7,1493.2,1186.6,1491.7z"/><polygon fill="#929497" points="1267.4 1344 1267.4 1388.5 1171.4 1388.5 1171.4 1366.2 950.9 1366.2 950.9 1388.5 720.5 1388.5 720.5 1344"/><rect width="230.4" height="44.5" x="720.5" y="1419.9" fill="#929497"/><path fill="#929497" d="M1267.4,1419.9v44.5h-33.6c-4.1-8.3-12.2-14.2-21.9-15.2c-11.7-1.1-22,5.2-26.9,14.8
						h-4.4c-5.1,0-9.2-4.1-9.2-9.2v-35H1267.4z"/><path fill="#929497" d="M950.9,1495.8v44.6H725.8c-3.3-14.3-5.1-29.2-5.2-44.6H950.9z"/><path fill="#929497" d="M1068.8,1540.4h-15.3c2.5-0.4,5-0.6,7.7-0.6C1063.7,1539.8,1066.3,1540,1068.8,1540.4z"/><path fill="#929497" d="M1267.3,1495.8l-5.2,44.6h-90.7v-39.6c0-1.8,0.6-3.6,1.5-5h17.3
						c4.9,4.9,11.6,7.9,19.2,7.9c7.5,0,14.2-3,19.1-7.9H1267.3z"/><g><path fill="#616161" d="M1022.7,1743h-57.6c-24.2,0-43.8-19.6-43.8-43.8v-38.3h145.1v38.3
						C1066.5,1723.4,1046.9,1743,1022.7,1743z"/></g><g><path fill="#f9a823" d="M992.2,228.6c-6.4,0-11.6-5.2-11.6-11.6V77.6c0-6.4,5.2-11.6,11.6-11.6
				c6.4,0,11.6,5.2,11.6,11.6V217C1003.8,223.4,998.6,228.6,992.2,228.6z"/></g><g><path fill="#f9a823" d="M743.1,348c-3.8,5.2-11.1,6.3-16.2,2.5l-112.4-82.3c-5.2-3.8-6.3-11.1-2.5-16.2
				c3.8-5.2,11.1-6.3,16.2-2.5l112.4,82.3C745.8,335.5,746.9,342.8,743.1,348z"/></g><g><path fill="#f9a823" d="M1244.7,348c3.8,5.2,11.1,6.3,16.2,2.5l112.4-82.3c5.2-3.8,6.3-11.1,2.5-16.2
				c-3.8-5.2-11.1-6.3-16.2-2.5l-112.4,82.3C1242.1,335.5,1240.9,342.8,1244.7,348z"/></g><g><path fill="#f9a823" d="M1134,265c-1.7,0-3.5-0.4-5.1-1.2c-5.7-2.8-8.1-9.8-5.3-15.6l61.8-124.9
				c2.8-5.7,9.8-8.1,15.6-5.3c5.7,2.8,8.1,9.8,5.3,15.6l-61.8,124.9C1142.4,262.7,1138.3,265,1134,265z"/></g><g><path fill="#f9a823" d="M850.3,265c-4.3,0-8.4-2.4-10.4-6.5l-61.8-124.9c-2.8-5.7-0.5-12.7,5.3-15.6
				c5.7-2.8,12.7-0.5,15.6,5.3l61.8,124.9c2.8,5.7,0.5,12.7-5.3,15.6C853.8,264.7,852.1,265,850.3,265z"/></g><g><polygon fill="#ee9d56" points="213.7 823.8 213.7 806.7 235.7 791.1 235.7 776 228.5 771.9 222 757.8 186.7 757.8 186.7 800.2 194.6 824.7"/><path fill="#e89354" d="M228.5,771.9l-11.6,5.7c-2.2,1.1-3.2,3.6-2.4,5.9l0,0c0.9,2.5,3.6,3.8,6.1,3l7.9-2.6
							l7.2,3.1V776L228.5,771.9z"/><path fill="#e89354" d="M222,757.8c0,0,3,10.9-2.3,14.1c-5.3,3.2-32.4,2-32.1-1.1c0.4-3,1.2-13,1.2-13H222z"/><polygon fill="#ee9d56" points="508.1 806.3 508.1 789.3 486.2 773.7 486.2 758.5 493.3 754.5 499.8 740.4 535.1 740.4 535.1 782.7 527.2 807.3"/><path fill="#e89354" d="M493.3,754.5l11.6,5.7c2.2,1.1,3.2,3.6,2.4,5.9l0,0c-0.9,2.5-3.6,3.8-6.1,3l-7.9-2.6
							l-7.2,3.1v-11.1L493.3,754.5z"/><path fill="#e89354" d="M499.8,740.4c0,0-3,10.9,2.3,14.1c5.3,3.2,32.4,2,32.1-1.1c-0.4-3-1.2-13-1.2-13H499.8z
							"/><path fill="#f05a28" d="M199.4,941.8L199.4,941.8c13.5-8.5,31.4-5,40.6,8.1l67,94.8
						c12.2,17.3,7.5,41.3-10.5,52.6l0,0c-17.9,11.3-41.7,5.3-52-13.2L189,981.5C181.5,967.6,186,950.2,199.4,941.8z"/><path fill="#f05a28" d="M189.5,813.4l27.9-1.4l21.4,140c2.5,16.5-9.9,31.5-26.6,32.1h0
						c-16.3,0.6-29.6-12.8-28.9-29.1L189.5,813.4z"/><path fill="#f05a28" d="M522.4,925.8L522.4,925.8c-13.5-8.5-31.4-5-40.6,8.1l-67,94.8
						c-12.2,17.3-7.5,41.3,10.5,52.6l0,0c17.9,11.3,41.7,5.3,52-13.2l55.5-102.6C540.4,951.7,535.8,934.3,522.4,925.8z"/><path fill="#f05a28" d="M532.3,797.4l-27.9-1.4l-21.4,140c-2.5,16.5,9.9,31.5,26.6,32.1l0,0
						c16.3,0.6,29.6-12.8,28.9-29.1L532.3,797.4z"/><rect width="51.3" height="54.2" x="223.3" y="1651.2" fill="#ee9d56" transform="rotate(50.649 248.95 1678.169)"/><path fill="#07547d" d="M455.6,1565.7L455.6,1565.7c-23.2,8.4-49.1-2-60.1-24.1l-111.3-223.5
						c-13-26-0.3-57.5,27-67.4l54-19.5c27.3-9.9,57.2,6.3,63.9,34.6l57.3,243C492.1,1532.8,478.9,1557.3,455.6,1565.7z"/><path fill="#07547d" d="M276,1691.4l-34.5-42.1l170.6-162.5c16.7-16,44.9-12.5,61.3,7.5l0,0
						c16.4,20,14.3,48.3-4.6,61.6L276,1691.4z"/><path fill="#00579b" d="M344.5,1604.2L344.5,1604.2c-24.7,0-45.5-18.5-48.3-43l-28.7-248.1
						c-3.3-28.9,19.2-54.2,48.3-54.2h57.4c29.1,0,51.7,25.3,48.3,54.2l-28.7,248.1C390,1585.6,369.2,1604.2,344.5,1604.2z"/><rect width="51.3" height="54.2" x="320.1" y="1788.1" fill="#ee9d56"/><path fill="#5f3a16" d="M463.1,1856.1l-73.5-10.6l-20.3-19.3l-49.2,5.4v57.8h36.4l6.4-15l9.6,15l90.4-11
							c3.7-0.5,7-2.8,8.7-6.1l0,0C474.9,1865.4,470.7,1857.2,463.1,1856.1z"/><path fill="#00579b" d="M373.1,1802.6h-54.4l-17.5-235c-1.7-23.1,18.8-42.6,44.7-42.6h0
						c25.9,0,46.4,19.6,44.7,42.6L373.1,1802.6z"/><path fill="#533014" d="M291.7,1795l-38.4-63.6l2-27.9l-35.4-34.7l-44.7,36.6l23.1,28.1l15.7-4.5l-5.5,17
							l65.8,62.9c2.7,2.6,6.6,3.7,10.2,2.8l0,0C292,1810.1,295.6,1801.6,291.7,1795z"/><g><path fill="#bdddf4" d="M257.6,1301c67.3,25.6,133.2,26.8,197.6,0v-221.9c0-24.8-20.1-45-45-45H302.6
						c-24.8,0-45,20.1-45,45V1301z"/></g><g><path fill="#e29354" d="M367.2,1027.2L367.2,1027.2c-27.4,3.2-52.2-16.3-55.5-43.7l-3.2-27.1
								c-3.2-27.4,16.3-52.2,43.7-55.5l0,0c27.4-3.2,52.2,16.3,55.5,43.7l3.2,27.1C414.1,999.1,394.6,1024,367.2,1027.2z"/><path fill="#ee9d56" d="M366.1,1017.8L366.1,1017.8c-27.4,3.2-51.2-7-54.4-34.3l-3.2-27.1
								c-3.2-27.4,16.3-52.2,43.7-55.5l0,0c27.4-3.2,52.2,16.3,55.5,43.7l3.2,27.1C414.1,999.1,393.5,1014.6,366.1,1017.8z"/><path fill="#ee9d56" d="M362.3,1064.9l-1.7-0.1c-12-0.6-21.3-10.9-20.7-22.9l1.9-37.9
								c0.6-12,10.9-21.3,22.9-20.7l1.7,0.1c12,0.6,21.3,10.9,20.7,22.9l-1.9,37.9C384.6,1056.2,374.4,1065.5,362.3,1064.9z"/><path fill="#221f1f" d="M340.1,1022.7c0,0-36.8-4-40.8-55.3c0,0-7.7-37.6,14.2-57.5c4.8-4.3,12.4-2.9,15.6,2.7
							c4.4,7.7,26,27.6,13.1,46.9C318.5,994.9,330.9,1019.4,340.1,1022.7z"/><ellipse cx="326" cy="977.1" fill="#ee9d56" rx="12.1" ry="19.7" transform="rotate(-6.759 325.849 976.724)"/><ellipse cx="326" cy="977.1" fill="#d58340" rx="7.4" ry="12.1" transform="rotate(-6.759 325.847 976.718)"/><g><path fill="#221f1f" d="M339.6,934.2c0,0,65.7,48,93.2-11c4.2-9-2.9-18.9-12.8-18.5
							c-7.1,0.3-15.5-1.4-24.9-7.1c0,0-22.5-23.2-72,0.4C323.2,898,301.8,923.9,339.6,934.2z"/></g></g><g><path fill="#f05a28" d="M340.4,1034.1c0,0-26.9,21.1-32.2,67.3c-5.3,46.2,18.3,48.2-4.3,88.5
						c-22.6,40.3-22.6,26.5-29.5,83.6c-6.9,57-3.9,63.9-3.9,63.9h-74.7c0,0,40.3-74.7,48.2-140.6
						C251.7,1130.9,225.1,1012,340.4,1034.1z"/></g><g><path fill="#f05a28" d="M396.2,1034.1c0,0,40.2,39.8,37.8,101.8c-2.4,61.9,0,172.5,0,172.5l67.4,29
						c0,0,2-27.5-24.1-83.6C458.3,1213,517.9,1020.6,396.2,1034.1z"/></g><g><path fill="#f57f20" d="M362.8,1046.8l-12.6,8.3c0,0,1.7,11.8,4.7,14c3.2,2.3,12.9,2.6,15.9,0
					c2.8-2.4,4.7-14,4.7-14L362.8,1046.8z"/><path fill="#f57f20" d="M369.9,1069.1h-14.2c0,0-11.7,112.7-7.6,146.1c1.4,11.7,10.6,43.1,14.7,43.1
						c4.4,0,13.3-31.4,14.7-43.1C381.6,1181.8,369.9,1069.1,369.9,1069.1z"/><polygon fill="#4db9f4" points="344.1 1034.1 360.5 1050.3 339.4 1090.1 325.5 1031.4"/><polygon fill="#4db9f4" points="384.5 1032.8 366.9 1050.7 384 1092.4 401.6 1033.5"/></g></g><path fill="#237d26" d="M574.6,701.7c0.3-2.6,0.8-5.1,1.5-7.6c-0.7,5.1-1.3,10.3-1.8,15.5
			C574.2,706.9,574.3,704.3,574.6,701.7z"/><g><defs><path id="a" d="M507.6,578v-91H384.2c-7.3,0-13.2-5.9-13.2-13.2V465c10.5-7,17.3-19,17.3-32.5c0-23.1-20-41.6-43.7-39
					c-17.3,1.9-31.6,15.5-34.2,32.7c-2.7,17.8,6.5,33.9,21,41.2v6.3c0,7.3-5.9,13.2-13.2,13.2H190.6v107.9
					c0,10.2-8.2,18.4-18.4,18.4h-3.1c-9.5-10.5-23.8-16.7-39.5-15c-21.4,2.3-38.7,19.6-41,40.9c-3.1,28,18.8,51.7,46.2,51.7
					c15.4,0,29-7.5,37.5-19.1l0,0c10.2,0,18.4,8.2,18.4,18.4V804h317v-91c-37.3,0-67.5-30.2-67.5-67.5
					C440.1,608.2,470.4,578,507.6,578z"/></defs><clipPath id="b"><use overflow="visible" xlink:href="#a"/></clipPath><g clip-path="url(#b)"><path fill="#f9a823" d="M929.4,686.8c0,91.8-29.3,176.8-79.2,246c-67.8,94.2-104.3,207.3-104.3,323.3v2h-476
						v-2.1c0-90.7-22.6-179.4-64.6-258.9c-11.9-22.6-25.4-44.4-40.4-65.4c-50.2-70.1-79.4-156.3-78.5-249.3
						c2.3-229,189.5-415.6,418.4-417.2c99.7-0.7,191.5,33.2,264,90.4v0C866.6,433,929.4,552.6,929.4,686.8z"/><path fill="#ed981d" d="M929.4,686.8c0,91.8-29.3,176.8-79.2,246c-67.8,94.2-104.3,207.3-104.3,323.3v2h-476
						v-2.1c0-90.7-22.6-179.4-64.6-258.9c608.5-68.4,563.5-641.3,563.5-641.3C866.6,433,929.4,552.6,929.4,686.8z"/><ellipse cx="307.4" cy="517.2" fill="#f4d1a6" rx="169.8" ry="94.2" transform="rotate(-45.001 307.397 517.189)"/><path fill="#f7c98d" d="M433.3,1338.9l-21-3.5c0.6-3.5,39.6-244.2,18.9-433.4c-53.6,13.4-89.5-14.3-108.6-36.5
						c-46.6-54.1-61.2-157.9-26.9-191.5c10.8-10.6,35.1-22.9,76.5,14.1c42.1,37.6,65.2,106.1,76.8,184.9c11.9-5.5,24.2-13,36.9-22.5
						l12.8,17c-16.7,12.6-32.3,21.5-46.8,27.6C474.3,1086,435.7,1324.4,433.3,1338.9z M322,684.7c-4.2,0-8.1,1.3-11.3,4.5
						C288.4,711,294,799.5,338.8,851.6c24.7,28.7,55.1,38.3,89.8,28.9C418.2,804.4,396.9,738.8,358,704
						C348.9,695.9,334.2,684.7,322,684.7z"/><path fill="#f7c98d" d="M562.2,1338.9c-2.4-14.5-41-253-18.5-443.7c-14.5-6-30.1-15-46.8-27.6l12.8-17
						c12.7,9.6,25,17.1,36.9,22.5c11.6-78.9,34.7-147.4,76.8-184.9c41.4-37,65.7-24.7,76.5-14.1c34.2,33.6,19.6,137.4-26.9,191.5
						c-19.1,22.2-55,49.9-108.6,36.5c-20.7,189.2,18.3,429.9,18.9,433.4L562.2,1338.9z M566.9,880.6c34.7,9.4,65.2-0.3,89.8-28.9
						c44.9-52.1,50.4-140.6,28.2-162.4c-12.8-12.6-35.2,3.9-47.4,14.8C598.6,738.8,577.3,804.4,566.9,880.6z"/><path fill="#f7c98d" d="M498.7,867.6l-2.8-3.7l-1.6,1c-52.5-80.3-48.2-216.1-6.8-255.1
						c15.4-14.5,34.8-14.9,53.2-1.2c84.5,62.8-19.3,236.1-23.7,243.4l-0.9,1.4l-1.3,1.1C509.5,859.2,504,863.6,498.7,867.6z
						 M513.8,619.9c-5,0-8.8,2.6-11.7,5.4c-29.2,27.5-37.4,135.4-0.1,210.3c16.3-28.8,87.9-163.9,26.1-209.9
						C522.4,621.4,517.7,619.9,513.8,619.9z"/><path fill="#616161" d="M781.4,1251.1v180.1c0,0.7,0,1.4,0,2.2c-0.1,15.3-1.9,30.2-5.2,44.6
							c-21.2,93.2-104.6,162.8-204.3,162.8H444c-99.7,0-183.1-69.6-204.3-162.8c-3.3-14.3-5.1-29.3-5.2-44.6c0-0.7,0-1.4,0-2.2
							v-180.1H781.4z"/><rect width="546.9" height="44.6" x="234.5" y="1281.5" fill="#929497"/><rect width="546.9" height="44.6" x="234.5" y="1357.4" fill="#929497"/><path fill="#929497" d="M781.3,1433.4l-5.2,44.6H239.7c-3.3-14.3-5.1-29.3-5.2-44.6H781.3z"/><path fill="#616161" d="M536.7,1680.5h-57.6c-24.2,0-43.8-19.6-43.8-43.8v-38.3h145.1v38.3
							C580.5,1660.9,560.9,1680.5,536.7,1680.5z"/></g></g><g><polygon fill="#ee9d56" points="1483.3 1344.9 1469.2 1351.8 1447.3 1340 1434.8 1346.2 1434.3 1353.8 1425.3 1364.9 1439.8 1394.2 1474.8 1376.8 1491.9 1360.2"/><path fill="#e89354" d="M1434.3,1353.8l9.4,7.2c1.8,1.4,4.3,1.2,5.9-0.4l0,0c1.7-1.7,1.7-4.5,0-6.3l-5.4-5.5
								l-0.3-7.2l-9.2,4.5L1434.3,1353.8z"/><path fill="#e89354" d="M1425.3,1364.9c0,0,7.8-6.9,12.6-3.9c4.8,3,14.9,26.1,12.2,27
								c-2.7,0.9-11.3,4.3-11.3,4.3L1425.3,1364.9z"/><path fill="#455a64" d="M1588.1,1307.8L1588.1,1307.8c-12.6-7.7-17-23.9-9.9-36.9l51.1-94.3
							c9.3-17.2,31.2-23.1,47.9-12.9v0c16.7,10.2,21.4,32.3,10.4,48.5l-62.2,87.9C1616.8,1312.1,1600.6,1315.4,1588.1,1307.8z"/><path fill="#455a64" d="M1485.8,1368.5l-12.5-22.5l107.2-75c12.6-8.8,30.1-4.7,37.5,8.9v0
							c7.2,13.2,1.5,29.8-12.3,35.9L1485.8,1368.5z"/><rect width="47.4" height="50" x="1786.7" y="1714" fill="#ee9d56" transform="scale(-1) rotate(-50.649 -3674.839 3825.611)"/><path fill="#bc2406" d="M1619.5,1635L1619.5,1635c21.5,7.8,45.3-1.8,55.5-22.2l102.8-206.4
							c12-24,0.3-53.1-24.9-62.3l-49.8-18c-25.3-9.1-52.8,5.8-59,31.9l-52.9,224.5C1585.8,1604.7,1598.1,1627.3,1619.5,1635z"/><path fill="#bc2406" d="M1785.4,1751.2l31.9-38.8l-157.6-150.1c-15.5-14.7-41.4-11.5-56.6,7l0,0
							c-15.2,18.5-13.2,44.6,4.3,56.9L1785.4,1751.2z"/><path fill="#dd2c00" d="M1722.2,1670.6L1722.2,1670.6c22.8,0,42-17.1,44.6-39.8l26.5-229.1
							c3.1-26.7-17.8-50.1-44.6-50.1h-53c-26.9,0-47.7,23.4-44.6,50.1l26.5,229.1C1680.2,1653.5,1699.3,1670.6,1722.2,1670.6z"/><rect width="47.4" height="50" x="1697.3" y="1840.4" fill="#ee9d56" transform="rotate(-180 1721.04 1865.44)"/><path fill="#5f3a16" d="M1612.6,1903.3l67.9-9.8l18.8-17.8l45.5,4.9v53.4h-33.6l-5.9-13.8l-8.9,13.8
								l-83.4-10.2c-3.4-0.4-6.4-2.5-8-5.6l0,0C1601.7,1911.8,1605.7,1904.3,1612.6,1903.3z"/><path fill="#dd2c00" d="M1695.8,1853.8h50.2l16.2-217c1.6-21.3-17.4-39.4-41.3-39.4h0
							c-23.9,0-42.9,18.1-41.3,39.4L1695.8,1853.8z"/><path fill="#533014" d="M1770.9,1846.8l35.4-58.7l-1.8-25.8l32.7-32l41.3,33.8l-21.3,26l-14.5-4.2l5.1,15.7
								l-60.8,58.1c-2.5,2.4-6.1,3.4-9.4,2.6l0,0C1770.6,1860.7,1767.3,1852.9,1770.9,1846.8z"/><path fill="#455a64" d="M1802,1452.2c-62.2,23.6-123,24.7-182.5,0l0.5-238c0-38.7,31.3-70,70-70h42.5
							c38.7,0,70,31.3,70,70L1802,1452.2z"/><path fill="#e29354" d="M1701.2,1137.7L1701.2,1137.7c25.3,3,48.2-15.1,51.2-40.4l3-25.1
								c3-25.3-15.1-48.2-40.4-51.2h0c-25.3-3-48.2,15.1-51.2,40.4l-3,25.1C1657.9,1111.8,1675.9,1134.7,1701.2,1137.7z"/><path fill="#ee9d56" d="M1702.2,1129.1L1702.2,1129.1c25.3,3,47.3-6.4,50.3-31.7l3-25.1
								c3-25.3-15.1-48.2-40.4-51.2h0c-25.3-3-48.2,15.1-51.2,40.4l-3,25.1C1657.9,1111.8,1676.9,1126.1,1702.2,1129.1z"/><path fill="#ee9d56" d="M1706.8,1178.4L1706.8,1178.4c11.5-0.6,20.4-10.4,19.8-22l-2-39.3
								c-0.6-11.5-10.4-20.4-22-19.8l0,0c-11.5,0.6-20.4,10.4-19.8,22l2,39.3C1685.4,1170.1,1695.2,1178.9,1706.8,1178.4z"/><path fill="#221f1f" d="M1726.3,1133.6c0,0,34-3.7,37.7-51.1c0,0,7.1-34.8-13.1-53.1c-4.4-4-11.5-2.7-14.4,2.5
							c-4,7.1-24,25.5-12.1,43.3C1746.2,1107.9,1734.8,1130.5,1726.3,1133.6z"/><ellipse cx="1739.3" cy="1091.5" fill="#ee9d56" rx="18.2" ry="11.2" transform="rotate(-83.247 1739.1 1091.451)"/><ellipse cx="1739.3" cy="1091.5" fill="#d58340" rx="11.2" ry="6.9" transform="rotate(-83.247 1739.105 1091.45)"/><g><path fill="#221f1f" d="M1726.7,1051.9c0,0-60.6,44.3-86.1-10.1c-3.9-8.3,2.7-17.4,11.8-17.1
							c6.5,0.2,14.4-1.3,23-6.6c0,0,20.8-21.4,66.5,0.3C1741.9,1018.4,1761.6,1042.3,1726.7,1051.9z"/></g><g><path fill="#221f1f" d="M1729.9,1083.2c0,0-11.4,9.4-10.8,26.4c0,0-17.7-19.1-56.9-7.1c0,0,1.3,6.1,4.1,11.7
							c0,0,4.4,17.2,20.8,20.5c16.4,3.3,26.2-3.1,33.5-5.7c7.4-2.7,11-10.4,13.6-17.7C1735,1108.8,1732.3,1104.9,1729.9,1083.2z"/></g><g><polygon fill="#ee9d56" points="1842 956 1842 940.3 1821.7 925.9 1821.7 911.9 1828.3 908.2 1834.3 895.2 1866.9 895.2 1866.9 934.3 1859.6 956.9"/><path fill="#e89354" d="M1828.3,908.2l10.7,5.2c2,1,3,3.3,2.2,5.5l0,0c-0.8,2.3-3.3,3.5-5.6,2.8l-7.3-2.4
									l-6.6,2.9v-10.3L1828.3,908.2z"/><path fill="#e89354" d="M1834.3,895.2c0,0-2.7,10,2.1,13c4.9,3,30,1.8,29.6-1c-0.3-2.8-1.1-12-1.1-12H1834.3z
									"/><g><path fill="#455a64" d="M1855.2,1065L1855.2,1065c-12.5-7.9-29-4.6-37.5,7.5l-61.9,87.6
								c-11.3,16-6.9,38.2,9.7,48.6h0c16.6,10.4,38.5,4.9,48-12.2l51.3-94.7C1871.8,1088.9,1867.6,1072.8,1855.2,1065z"/></g><g><path fill="#455a64" d="M1864.3,946.5l-25.7-1.3l-19.7,129.3c-2.3,15.2,9.1,29.1,24.5,29.7h0
								c15.1,0.6,27.4-11.9,26.7-26.9L1864.3,946.5z"/></g></g><g><path fill="#ef1914" d="M1703.5,1159.5l-12.6,8.3c0,0,1.7,11.8,4.7,14c3.2,2.3,12.9,2.6,15.9,0
						c2.8-2.4,4.7-14,4.7-14L1703.5,1159.5z"/><path fill="#ef1914" d="M1710.6,1181.8h-14.2c0,0-11.7,112.7-7.6,146.1c1.4,11.7,10.6,43.1,14.7,43.1
							c4.4,0,13.3-31.4,14.7-43.1C1722.3,1294.5,1710.6,1181.8,1710.6,1181.8z"/><polygon fill="#4db9f4" points="1684.1 1144.3 1701.2 1163 1680.1 1202.8 1666.8 1148"/><polygon fill="#4db9f4" points="1726 1144.1 1707.6 1163.4 1724.7 1205.1 1742.9 1144.9"/></g><g><defs><path id="c" d="M1500.9,1413.5c-11.7-1.1-22.1,5.2-26.9,14.8h-4.4c-5.1,0-9.2-4.1-9.2-9.2v-88.7h-220.5v220.5h63.3
						c0-25.9,21-46.9,46.9-46.9s46.9,21,46.9,46.9h63.3V1465c0-5.1,4.1-9.2,9.2-9.2h6.1c4.9,7.3,13.2,12.1,22.6,12.1
						c15.7,0,28.3-13.3,27.2-29.2C1524.6,1425.5,1514.1,1414.7,1500.9,1413.5z"/></defs><clipPath id="d"><use overflow="visible" xlink:href="#c"/></clipPath><g clip-path="url(#d)"><path fill="#f9a823" d="M1543.9,382.4c-72.5-57.2-164.3-91.2-264-90.5c-211.6,1.5-387.6,161.1-414.7,366
							c5.2-17.6,20.8-31.1,39.5-33.1c15.7-1.7,29.9,4.5,39.5,15h3.1c0.4,0,0.7,0,1.1,0c9.7-0.6,17.3-8.5,17.3-18.3V513.6h127.6
							c7.3,0,13.2-5.9,13.2-13.2V494c-14.5-7.3-23.7-23.3-21-41.2c2.6-17.2,17-30.8,34.2-32.8c23.7-2.6,43.8,15.8,43.8,39
							c0,13.5-6.9,25.5-17.3,32.5v8.7c0,7.3,5.9,13.2,13.2,13.2h123.4v91c-37.3,0-67.5,30.2-67.5,67.5c0,17.1,6.4,32.9,17,44.8
							c5.6,6.4,12.5,11.7,20.2,15.6c9.1,4.6,19.4,7.2,30.3,7.2v91H965.6V716.8c0-5.1-2.1-9.7-5.4-13c-3.3-3.3-7.9-5.4-13-5.4
							c-8.4,11.6-22,19.1-37.5,19.1c-24.8,0-45-19.5-46.4-43.8c-1.1,11.7-1.7,23.5-1.8,35.5c-1,93,28.3,179.2,78.5,249.3
							c15,20.9,28.5,42.8,40.4,65.4c2.6,5,5.2,10,7.6,15c1,2,2,4.1,3,6.1c1.2,2.5,2.4,5,3.5,7.5c1.4,3.1,2.8,6.2,4.2,9.3
							c1.1,2.5,2.2,5.1,3.3,7.7c1.1,2.6,2.2,5.2,3.2,7.8c6.3,15.6,11.8,31.5,16.6,47.5c0.8,2.7,1.6,5.4,2.4,8.1
							c1.6,5.4,3,10.8,4.3,16.2c3.5,14,6.5,28.2,8.9,42.6c0.8,4.5,1.5,9,2.1,13.4c2.1,14.5,3.6,29.1,4.5,43.8
							c0.2,2.8,0.3,5.5,0.5,8.3c0,1.3,0.1,2.6,0.1,3.9c0.1,2.8,0.2,5.6,0.3,8.4c0.1,2.8,0.1,5.5,0.1,8.3c0,1.7,0,3.4,0,5v2.1h476
							v-2.1c0-1.7,0-3.4,0-5c0-3.4,0.1-6.7,0.2-10.1c0-0.5,0-0.9,0-1.4c0.1-2.2,0.2-4.4,0.2-6.6c0-1.6,0.1-3.2,0.2-4.8
							c0.1-2.8,0.3-5.5,0.5-8.3c0-0.7,0-1.4,0.1-2.1c0.1-2,0.3-3.9,0.4-5.9c0.1-1.9,0.3-3.9,0.5-5.8c0.2-2.7,0.5-5.5,0.8-8.2
							c0.3-3.2,0.7-6.5,1.1-9.7c0.1-1,0.2-2.1,0.4-3.1c0.3-2.3,0.6-4.5,0.9-6.8c1.8-12.8,4.1-25.6,6.8-38.2c0.3-1.7,0.7-3.3,1.1-5
							c0.6-2.8,1.2-5.5,1.9-8.2c0.1-0.4,0.2-0.8,0.3-1.2c0.4-1.8,0.9-3.7,1.4-5.5c0.1-0.5,0.2-1,0.4-1.5c0.3-1.4,0.7-2.8,1.1-4.3
							c0.8-3.1,1.6-6.1,2.5-9.2c0.6-2.1,1.2-4.2,1.8-6.3c0.9-3.1,1.9-6.2,2.9-9.3c0.6-1.8,1.2-3.6,1.8-5.5c1.3-4.3,2.8-8.5,4.3-12.8
							c0.9-2.5,1.8-5,2.7-7.4c1-2.7,2-5.4,3-8c1.3-3.4,2.6-6.7,4-10c1-2.4,1.9-4.7,3-7c0.8-2,1.7-4,2.5-5.9
							c3.4-7.8,7-15.5,10.9-23.1c1.2-2.5,2.5-5,3.8-7.5c1.2-2.4,2.4-4.8,3.7-7.2c1.3-2.5,2.7-5,4.1-7.5c1.5-2.8,3.1-5.5,4.7-8.3
							c0.3-0.6,0.6-1.1,0.9-1.6c1.7-2.9,3.4-5.8,5.2-8.7c7.5-12.3,15.5-24.4,23.9-36.2c49.9-69.2,79.2-154.2,79.2-246
							C1704.5,579.2,1641.7,459.6,1543.9,382.4z M1493.2,1181.2v77h-268.3v-96.2c0-4.3-1.8-8.2-4.6-11c-2.8-2.8-6.6-4.5-10.8-4.6
							h-0.2c-7.2,9.7-18.7,16.2-31.7,16.2c-23.1,0-41.6-20.1-39-43.8c2-18.1,16.7-32.7,34.7-34.7c13.3-1.4,25.3,3.8,33.4,12.7h2.6
							c0.8,0,1.6,0,2.3-0.2c7.5-1.1,13.3-7.6,13.3-15.4v-91.3h107.9c0.6,0,1.2,0,1.8-0.1c5.3-0.8,9.4-5.5,9.4-11v-5.3
							c-3-1.5-5.8-3.5-8.1-5.9c-7.3-7.1-11.4-17.6-9.7-29c2.3-14.6,14.4-26.1,29-27.7c14.8-1.7,28,6.5,33.8,18.8
							c2.1,4.3,3.2,9.1,3.2,14.2c0,11.5-5.8,21.6-14.7,27.5v7.4c0,6.2,5,11.2,11.2,11.2h104.5v77c-31.6,0-57.1,25.6-57.1,57.1
							C1436.1,1155.6,1461.6,1181.2,1493.2,1181.2z"/><path fill="#ed981d" d="M1543.9,382.4c0,0,12.6,160.6-65.8,321.9c-3.6,7.4-7.4,14.8-11.4,22.1
							c-28.5,52.8-67.2,104.8-119.9,150.4v0c-7.9,6.9-16.2,13.6-24.8,20.2c-0.7,0.6-1.5,1.2-2.3,1.8c-6.3,4.8-12.8,9.4-19.4,14
							c-21.5,14.8-44.8,28.7-70.2,41.3v0c-6.7,3.3-13.6,6.6-20.7,9.7v0c-63.6,28.6-139.2,49.7-229.1,59.8c2.6,5,5.2,10,7.6,15
							c1,2,2,4.1,3,6.1c1.2,2.5,2.4,5,3.5,7.5c1.4,3.1,2.8,6.1,4.2,9.3c1.1,2.5,2.2,5.1,3.3,7.7c1.1,2.6,2.2,5.2,3.2,7.8
							c6.3,15.6,11.8,31.5,16.6,47.5c0.8,2.7,1.6,5.4,2.4,8.1c1.6,5.4,3,10.8,4.3,16.2c3.5,14,6.5,28.2,8.9,42.6
							c0.8,4.5,1.5,9,2.1,13.4c2.1,14.5,3.6,29.1,4.5,43.8c0.2,2.8,0.3,5.5,0.5,8.3c0,1.3,0.1,2.6,0.1,3.9c0.1,2.8,0.2,5.6,0.3,8.4
							c0.1,2.8,0.1,5.5,0.1,8.3c0,1.7,0,3.4,0,5v2.1h476v-2.1c0-1.7,0-3.4,0-5c0-3.4,0-6.7,0.2-10.1c0-0.5,0-0.9,0-1.4
							c0-2.2,0.1-4.4,0.2-6.6c0-1.6,0.1-3.2,0.2-4.8c0.1-2.8,0.3-5.5,0.5-8.3c0-0.7,0-1.4,0.1-2.1c0.1-2,0.2-3.9,0.4-5.9
							c0.1-1.9,0.3-3.9,0.5-5.8c0.2-2.8,0.5-5.5,0.8-8.2c0.3-3.2,0.7-6.5,1.1-9.7c0.1-1,0.2-2.1,0.4-3.1c0.3-2.3,0.6-4.5,0.9-6.8
							c1.8-12.8,4.1-25.6,6.8-38.2c0.3-1.7,0.7-3.3,1.1-5c0.6-2.8,1.2-5.5,1.9-8.2c0.1-0.4,0.2-0.8,0.3-1.2c0.4-1.8,0.9-3.7,1.4-5.5
							c0.1-0.5,0.2-1,0.4-1.5c0.3-1.4,0.7-2.8,1.1-4.3c0.8-3.1,1.6-6.1,2.5-9.2c0.6-2.1,1.2-4.2,1.8-6.3c0.9-3.1,1.8-6.2,2.9-9.3
							c0.6-1.8,1.1-3.7,1.8-5.5c1.3-4.3,2.8-8.5,4.3-12.8c0.8-2.5,1.8-4.9,2.7-7.4c1-2.7,2-5.4,3-8c1.3-3.4,2.6-6.7,4-10
							c1-2.4,1.9-4.7,3-7c0.8-2,1.7-4,2.5-5.9c3.4-7.8,7-15.5,10.9-23.1c1.2-2.5,2.5-5,3.8-7.5c1.2-2.4,2.4-4.8,3.7-7.2
							c1.3-2.5,2.7-5,4.1-7.5c1.5-2.8,3.1-5.5,4.7-8.3c0.3-0.6,0.6-1.1,0.9-1.6c1.7-2.9,3.4-5.8,5.2-8.7
							c7.5-12.3,15.5-24.4,23.9-36.2c49.9-69.2,79.2-154.2,79.2-246C1704.5,579.2,1641.7,459.6,1543.9,382.4z M1138.6,1118.8
							c2-18.1,16.7-32.7,34.7-34.7c13.3-1.4,25.3,3.8,33.4,12.7h2.6c0.8,0,1.6,0,2.3-0.2c7.5-1.1,13.3-7.6,13.3-15.4v-91.3h107.9
							c0.6,0,1.2,0,1.8-0.1c5.3-0.8,9.4-5.5,9.4-11v-5.3c-3-1.5-5.8-3.5-8.1-5.9c-7.3-7.1-11.4-17.6-9.7-29
							c2.3-14.6,14.4-26.1,29-27.7c14.8-1.7,28,6.5,33.8,18.8c2.1,4.3,3.2,9.1,3.2,14.2c0,11.5-5.8,21.6-14.7,27.5v7.4
							c0,6.2,5,11.2,11.2,11.2h104.5v77c-31.6,0-57.1,25.6-57.1,57.1c0,31.6,25.6,57.1,57.1,57.1v77h-268.3v-96.2
							c0-4.3-1.8-8.2-4.6-11c-2.8-2.8-6.6-4.5-10.8-4.6h-0.2c-7.2,9.7-18.7,16.2-31.7,16.2C1154.5,1162.5,1136,1142.5,1138.6,1118.8
							z"/><path fill="#f4d1a6" d="M965.6,544.4v77.1c0,9.8-7.7,17.8-17.3,18.3C940.6,614.1,947.1,579.7,965.6,544.4z"/><path fill="#f4d1a6" d="M1212.1,513.6h-52.8c-7.3,0-13.2-5.9-13.2-13.2v-8.7c10.4-7,17.3-19,17.3-32.5
							c0-23.1-20.1-41.6-43.8-39c-17.2,1.9-31.6,15.6-34.2,32.8c-2.8,17.8,6.5,33.8,21,41.2v6.3c0,7.3-5.9,13.2-13.2,13.2H984.8
							c9-12.4,19.4-24.7,31-36.4c66.3-66.3,149.9-90.2,186.7-53.5C1222.3,443.5,1224.5,476.7,1212.1,513.6z"/><path fill="#f7c98d" d="M1220.4,1150.9c-2.8-2.8-6.6-4.5-10.8-4.6c-2.6,49.4-6.9,95-11,131.3
							c-0.2,2.4-0.5,4.8-0.8,7.1c-1,8.3-1.9,16.1-2.8,23.3c-2.5,20.1-4.7,35.4-6.1,44.5c-0.9,5.8-1.4,9.1-1.5,9.4l21,3.5
							c0.3-1.6,1-6.1,2-12.9c1.5-10,3.7-25.3,6.1-44.5c0.9-7.2,1.9-15,2.9-23.3c0.3-2.4,0.6-4.7,0.8-7.1c1.6-13.9,3.1-29,4.7-45.1
							v-70.6C1224.9,1157.6,1223.2,1153.8,1220.4,1150.9z M1273.7,894.2l-0.9-1.2l-1.8-2.4l-10-13.3c-12.7,9.5-25,17-36.9,22.5
							c-3.6-24.2-8.2-47.5-14.2-69.2H1188c6.8,23.6,11.9,49.4,15.7,76.6c-34.7,9.4-65.1-0.3-89.8-28.9c-12-14-21.2-30.5-27.8-47.7
							H1064c7.8,22.9,19.2,44.6,33.7,61.5c19.1,22.2,54.9,49.9,108.6,36.5c1.2,11.6,2.3,23.3,3.1,35.3v0
							c3.1,43.6,3.5,88.9,2.2,132.7c7.5-1.1,13.3-7.6,13.3-15.4v-91.3h7.5c-0.6-12-1.3-23.9-2.3-35.8v0c-0.9-10.9-2-21.7-3.2-32.3
							c14.2-5.9,29.5-14.6,45.9-26.9C1273.1,894.7,1273.4,894.4,1273.7,894.2z"/><path fill="#f7c98d" d="M1478.1,704.3c-1-1.3-2.1-2.5-3.3-3.7c-10.8-10.6-35.1-22.8-76.5,14.1
							c-41.6,37.2-64.7,104.6-76.3,182.3c-0.1,0.9-0.3,1.8-0.4,2.6c-0.6-0.3-1.2-0.6-1.8-0.9c-9.7-4.6-19.6-10.5-29.8-17.7
							c-1.8-1.2-3.6-2.5-5.4-3.9l-11.8,15.7l-0.9,1.2c0.3,0.2,0.6,0.5,0.9,0.7c9.6,7.2,18.8,13.1,27.6,18c6.3,3.5,12.4,6.5,18.3,8.9
							c-2.6,22.2-4.4,45-5.5,68.2h19.7c0.6,0,1.2,0,1.8-0.1c0.3-7.4,0.8-14.9,1.3-22.2c-7.3-7.1-11.4-17.6-9.7-29
							c2.3-14.6,14.4-26.1,29-27.7c14.8-1.7,28,6.5,33.8,18.8c26.9-6.3,46.4-23.1,58.9-37.5C1492.9,839.9,1508,741.2,1478.1,704.3z
							 M1431.7,878.2c-24.6,28.6-55.1,38.3-89.8,28.9c1.4-10.3,3-20.4,4.9-30.3v0c11.7-63.1,32.1-116.2,65.7-146.2
							c12.2-10.9,34.6-27.4,47.4-14.8c2.7,2.6,4.9,6.2,6.8,10.6C1480.3,758.4,1471.2,832.4,1431.7,878.2z M1356.7,1352.6
							c-1.3-9.1-3.6-24.4-6.1-44.5c-0.9-7.2-1.9-15-2.8-23.3c-0.3-2.3-0.6-4.7-0.8-7.1c-0.7-6.2-1.4-12.8-2.1-19.5h-21.6
							c0.7,6.7,1.4,13.3,2.1,19.5c0.3,2.4,0.6,4.8,0.8,7.1c1,8.3,1.9,16.1,2.9,23.3c2.4,19.3,4.6,34.5,6.1,44.5
							c1.1,6.8,1.8,11.3,2,12.9l21-3.5C1358.1,1361.7,1357.6,1358.4,1356.7,1352.6z"/><path fill="#f7c98d" d="M1315.8,635.2c-18.4-13.7-37.8-13.3-53.2,1.2c-16.1,15.2-26.6,45-30.4,80.4
							c5.6,6.4,12.5,11.7,20.2,15.6c1.9-36.8,11-67.6,24.7-80.5c3-2.8,6.7-5.4,11.7-5.4c3.9,0,8.5,1.5,14.2,5.8
							c61.8,46-9.8,181.1-26.1,209.9c-5-10-9.2-20.7-12.6-31.6h-22.2c4.7,16.4,10.9,32.2,18.7,46.7c2.5,4.9,5.4,9.7,8.4,14.3l1.6-1
							l1.8,2.4l0.9,1.2c5.4-4,10.8-8.4,16.2-13l0.1,0l1.2-1.1l0.9-1.4C1296.5,871.3,1400.3,698,1315.8,635.2z"/><g><path fill="#616161" d="M1556.4,1277.7v180.1c0,0.7,0,1.4,0,2.2c-0.1,15.3-1.9,30.2-5.2,44.6
								c-21.2,93.2-104.6,162.8-204.3,162.8h-127.8c-99.7,0-183.1-69.6-204.3-162.8c-3.3-14.3-5.1-29.3-5.2-44.6c0-0.7,0-1.4,0-2.2
								v-180.1H1556.4z"/><rect width="546.9" height="44.6" x="1009.5" y="1308.1" fill="#929497"/><rect width="546.9" height="44.6" x="1009.5" y="1384" fill="#929497"/><path fill="#929497" d="M1556.4,1460l-5.2,44.6h-536.4c-3.3-14.3-5.1-29.3-5.2-44.6H1556.4z"/><path fill="#616161" d="M1311.8,1707.1h-57.6c-24.2,0-43.8-19.6-43.8-43.8v-38.3h145.1v38.3
								C1355.5,1687.5,1335.9,1707.1,1311.8,1707.1z"/></g></g></g><g><defs><path id="e" d="M1911.7,723v-77h-104.4c-6.2,0-11.2-5-11.2-11.2v-7.4c8.8-6,14.7-16.1,14.7-27.5
						c0-19.6-17-35.2-37-33c-14.6,1.6-26.7,13.2-29,27.7c-2.3,15.1,5.5,28.6,17.8,34.9v5.3c0,6.2-5,11.2-11.2,11.2h-107.9v91.3
						c0,8.6-7,15.6-15.6,15.6h-2.7c-8.1-8.9-20.1-14.1-33.4-12.7c-18.1,1.9-32.7,16.6-34.7,34.6c-2.6,23.7,15.9,43.7,39.1,43.7
						c13,0,24.6-6.4,31.7-16.2h0c8.6,0,15.6,7,15.6,15.6v96.3h268.3v-77c-31.5,0-57.1-25.6-57.1-57.1
						C1854.6,748.6,1880.2,723,1911.7,723z"/></defs><clipPath id="f"><use overflow="visible" xlink:href="#e"/></clipPath><g clip-path="url(#f)"><path fill="#f9a823" d="M2123,369.5c0,91.8-29.3,176.8-79.2,246c-67.8,94.2-104.3,207.3-104.3,323.3v2h-476
							v-2.1c0-90.7-22.6-179.4-64.6-258.9c-11.9-22.6-25.4-44.4-40.4-65.4c-50.2-70.1-79.4-156.3-78.5-249.3
							c2.3-229,189.5-415.6,418.4-417.2c99.7-0.7,191.5,33.2,264,90.4v0C2060.2,115.7,2123,235.2,2123,369.5z"/><path fill="#ed981d" d="M2123,369.5c0,91.8-29.3,176.8-79.2,246c-67.8,94.2-104.3,207.3-104.3,323.3v2h-476
							v-2.1c0-90.7-22.6-179.4-64.6-258.9c608.5-68.4,563.5-641.3,563.5-641.3C2060.2,115.7,2123,235.2,2123,369.5z"/><ellipse cx="1501" cy="199.8" fill="#f4d1a6" rx="169.8" ry="94.2" transform="rotate(-45.001 1500.98 199.854)"/><path fill="#f7c98d" d="M1626.9,1021.6l-21-3.5c0.6-3.5,39.6-244.2,18.9-433.4c-53.6,13.4-89.5-14.3-108.6-36.5
							c-46.6-54.1-61.2-157.9-26.9-191.5c10.8-10.6,35.1-22.9,76.5,14.1c42.1,37.6,65.2,106.1,76.8,184.9
							c11.9-5.5,24.2-13,36.9-22.5l12.8,17c-16.7,12.6-32.3,21.5-46.8,27.6C1667.9,768.6,1629.3,1007.1,1626.9,1021.6z
							 M1515.6,367.4c-4.2,0-8.1,1.3-11.3,4.5c-22.2,21.8-16.7,110.3,28.2,162.4c24.7,28.7,55.1,38.3,89.8,28.9
							c-10.5-76.2-31.7-141.8-70.6-176.5C1542.5,378.6,1527.8,367.4,1515.6,367.4z"/><path fill="#f7c98d" d="M1755.7,1021.6c-2.4-14.5-41-253-18.5-443.7c-14.5-6-30.1-15-46.8-27.6l12.8-17
							c12.7,9.6,25,17.1,36.9,22.5c11.6-78.9,34.7-147.4,76.8-184.9c41.4-37,65.7-24.7,76.5-14.1c34.2,33.6,19.6,137.4-26.9,191.5
							c-19.1,22.2-55,49.9-108.6,36.5c-20.7,189.2,18.3,429.9,18.9,433.4L1755.7,1021.6z M1760.4,563.2c34.7,9.4,65.2-0.3,89.8-28.9
							c44.9-52.1,50.4-140.6,28.2-162.4c-12.8-12.6-35.2,3.9-47.4,14.8C1792.2,421.4,1770.9,487,1760.4,563.2z"/><path fill="#f7c98d" d="M1692.3,550.3l-2.8-3.7l-1.6,1c-52.5-80.3-48.2-216.1-6.8-255.1
							c15.4-14.5,34.8-14.9,53.2-1.2c84.5,62.8-19.3,236.1-23.7,243.4l-0.9,1.4l-1.3,1.1C1703,541.9,1697.6,546.2,1692.3,550.3z
							 M1707.4,302.5c-5,0-8.8,2.6-11.7,5.4c-29.2,27.5-37.4,135.4-0.1,210.3c16.3-28.8,87.9-163.9,26.1-209.9
							C1715.9,304.1,1711.3,302.5,1707.4,302.5z"/><path fill="#616161" d="M1974.9,933.7v180.1c0,0.7,0,1.4,0,2.2c-0.1,15.3-1.9,30.2-5.2,44.6
								c-21.2,93.2-104.6,162.8-204.3,162.8h-127.8c-99.7,0-183.1-69.6-204.3-162.8c-3.3-14.3-5.1-29.3-5.2-44.6c0-0.7,0-1.4,0-2.2
								V933.7H1974.9z"/><rect width="546.9" height="44.6" x="1428.1" y="964.1" fill="#929497"/><rect width="546.9" height="44.6" x="1428.1" y="1040.1" fill="#929497"/><path fill="#929497" d="M1974.9,1116l-5.2,44.6h-536.4c-3.3-14.3-5.1-29.3-5.2-44.6H1974.9z"/><path fill="#616161" d="M1730.3,1363.1h-57.6c-24.2,0-43.8-19.6-43.8-43.8v-38.3H1774v38.3
								C1774,1343.5,1754.4,1363.1,1730.3,1363.1z"/></g></g></g></svg>