<svg xmlns="http://www.w3.org/2000/svg" id="Layer_1" x="0" y="0" enable-background="new 0 0 550 550" version="1.1" viewBox="0 0 550 550" xml:space="preserve"><path fill="#4a5b6b" d="M531,467c0,0.9-0.4,1.6-0.9,2.2c-0.6,0.6-1.3,0.9-2.2,0.9H22.1c-1.7,0-3.1-1.4-3.1-3.1
						c0-0.9,0.4-1.6,0.9-2.2c0.6-0.6,1.3-0.9,2.2-0.9h505.8C529.6,463.9,531,465.3,531,467z"/><path fill="#f0f4f9" d="M158.8,269.4V287c0,1.1-0.8,2-1.8,2.3l-9.6,2c-0.8,0.2-1.5,0.8-1.7,1.6c-0.8,2.4-1.7,4.7-2.8,6.9
									c-0.4,0.7-0.3,1.6,0.1,2.3l5.4,8.2c0.6,0.9,0.5,2.1-0.3,2.9l-12.5,12.5c-0.8,0.8-2,0.9-2.9,0.3l-8.2-5.4
									c-0.7-0.5-1.6-0.5-2.3-0.1c-2.2,1.1-4.5,2.1-6.9,2.8c-0.8,0.3-1.4,0.9-1.6,1.7l-2,9.6c-0.2,1.1-1.2,1.8-2.3,1.8H91.7
									c-1.1,0-2-0.8-2.3-1.8l-2-9.6c-0.2-0.8-0.8-1.5-1.6-1.7c-2.4-0.8-4.7-1.7-6.9-2.8c-0.7-0.4-1.6-0.3-2.3,0.1l-8.2,5.4
									c-0.9,0.6-2.1,0.5-2.9-0.3L53,313.1c-0.8-0.8-0.9-2-0.3-2.9l5.4-8.2c0.5-0.7,0.5-1.6,0.1-2.3c-1.1-2.2-2.1-4.5-2.8-6.9
									c-0.3-0.8-0.9-1.4-1.7-1.6l-9.6-2c-1.1-0.2-1.8-1.2-1.8-2.3v-17.6c0-1.1,0.8-2,1.8-2.3l9.6-2c0.8-0.2,1.5-0.8,1.7-1.6
									c0.8-2.4,1.7-4.7,2.8-6.9c0.4-0.7,0.3-1.6-0.1-2.3l-5.4-8.2c-0.6-0.9-0.5-2.1,0.3-2.9l12.5-12.5c0.8-0.8,2-0.9,2.9-0.3
									l8.2,5.4c0.7,0.5,1.6,0.5,2.3,0.1c2.2-1.1,4.5-2.1,6.9-2.8c0.8-0.3,1.4-0.9,1.6-1.7l2-9.6c0.2-1.1,1.2-1.8,2.3-1.8h17.6
									c1.1,0,2,0.8,2.3,1.8l2,9.6c0.2,0.8,0.8,1.5,1.6,1.7c2.4,0.8,4.7,1.7,6.9,2.8c0.7,0.4,1.6,0.4,2.3-0.1l8.2-5.4
									c0.9-0.6,2.1-0.5,2.9,0.3l12.5,12.5c0.8,0.8,0.9,2,0.3,2.9l-5.4,8.2c-0.5,0.7-0.5,1.6-0.1,2.3c1.1,2.2,2.1,4.5,2.8,6.9
									c0.3,0.8,0.9,1.4,1.7,1.6l9.6,2C158,267.3,158.8,268.3,158.8,269.4z"/><circle cx="100.5" cy="278.2" r="33.8" fill="#fff"/><path fill="#f0f4f9" d="M92.6,368.6v10.4c0,0.6-0.5,1.2-1.1,1.3l-5.7,1.2c-0.5,0.1-0.9,0.5-1,0.9c-0.5,1.4-1,2.8-1.7,4.1
									c-0.2,0.4-0.2,1,0.1,1.4l3.2,4.9c0.4,0.5,0.3,1.3-0.2,1.7l-7.4,7.4c-0.5,0.5-1.2,0.5-1.7,0.2l-4.9-3.2
									c-0.4-0.3-0.9-0.3-1.4-0.1c-1.3,0.7-2.7,1.2-4.1,1.7c-0.5,0.1-0.8,0.5-0.9,1l-1.2,5.7c-0.1,0.6-0.7,1.1-1.3,1.1H52.9
									c-0.6,0-1.2-0.5-1.3-1.1l-1.2-5.7c-0.1-0.5-0.5-0.9-0.9-1c-1.4-0.5-2.8-1-4.1-1.7c-0.4-0.2-1-0.2-1.4,0.1l-4.9,3.2
									c-0.5,0.4-1.3,0.3-1.7-0.2l-7.4-7.4c-0.5-0.5-0.5-1.2-0.2-1.7l3.2-4.9c0.3-0.4,0.3-0.9,0.1-1.4c-0.7-1.3-1.2-2.7-1.7-4.1
									c-0.1-0.5-0.5-0.8-1-0.9l-5.7-1.2c-0.6-0.1-1.1-0.7-1.1-1.3v-10.4c0-0.6,0.5-1.2,1.1-1.3l5.7-1.2c0.5-0.1,0.9-0.5,1-0.9
									c0.5-1.4,1-2.8,1.7-4.1c0.2-0.4,0.2-1-0.1-1.4l-3.2-4.9c-0.4-0.5-0.3-1.3,0.2-1.7l7.4-7.4c0.5-0.5,1.2-0.5,1.7-0.2l4.9,3.2
									c0.4,0.3,0.9,0.3,1.4,0.1c1.3-0.7,2.6-1.2,4.1-1.7c0.5-0.1,0.8-0.5,0.9-1l1.2-5.7c0.1-0.6,0.7-1.1,1.3-1.1h10.4
									c0.6,0,1.2,0.5,1.3,1.1l1.2,5.7c0.1,0.5,0.5,0.9,0.9,1c1.4,0.5,2.8,1,4.1,1.7c0.4,0.2,1,0.2,1.4-0.1l4.9-3.2
									c0.5-0.4,1.3-0.3,1.7,0.2l7.4,7.4c0.5,0.5,0.5,1.2,0.2,1.7l-3.2,4.9c-0.3,0.4-0.3,0.9-0.1,1.4c0.7,1.3,1.2,2.6,1.7,4.1
									c0.1,0.5,0.5,0.8,1,0.9l5.7,1.2C92.1,367.4,92.6,368,92.6,368.6z"/><circle cx="58.1" cy="373.8" r="20" fill="#fff"/><g><path fill="#191937" d="M425.9,461.4c0,0.6,0.1,1.2,0.2,1.6c0.1,0.5,0.5,0.8,1,0.8H461c0.5,0,0.8-0.4,0.7-0.9l-1.3-5.5
										l-4-16.8c-0.1-0.5-0.6-0.9-1.1-0.8l-11.6,1.2c-0.5,0.1-0.9,0.5-1,1c-0.1,2.2-1.2,7.7-9.6,10.1
										C426.6,454.1,425.8,458.6,425.9,461.4z"/><path fill="#292561" d="M437.5,450.3c4.4-2.7,5.1-6.5,5.2-8.2c0-0.5,0.4-1,1-1l11.6-1.2c0.5-0.1,1,0.3,1.1,0.8l2.3,9.6H437.5z
										"/><path fill="#191937" d="M494.7,461.2c0.4,0.5,0.7,1,1,1.3c0.3,0.4,0.9,0.4,1.3,0.2l29-17.3c0.4-0.2,0.5-0.8,0.2-1.1l-3.9-4.1
										l-12-12.4c-0.4-0.4-1-0.4-1.4-0.1l-9.3,7c-0.4,0.3-0.5,0.9-0.3,1.4c1,1.9,2.9,7.2-3.1,13.6
										C491.4,454.5,493,458.8,494.7,461.2z"/><path fill="#292561" d="M498.9,445.7c2.4-4.6,1.1-8.2,0.3-9.7c-0.3-0.5-0.1-1,0.3-1.4l9.3-7c0.4-0.3,1-0.3,1.4,0.1l6.9,7.1
										L498.9,445.7z"/><polygon fill="#48dbc5" points="404.4 206.3 422.4 220.8 434.9 230.8 437.4 232.7 449.4 223.9 438.4 207.7 406.4 193.8"/><g><path fill="#e44000" d="M441.7,381.9l44,63.7l35.8-25.4c-12.2-43.5-28.1-31.8-42-52.4c-5.6-8.2,2.3-26.1,8.7-46.5
										c3.8-12,6.8-24.8,5.8-36.5c-0.6-6.8-2.9-12.9-5.4-17.7c-3.5-6.7-7.3-10.8-7.3-10.8l-18.6-11.9l-1.2-0.8l-3.3-2.1
										c0,0-0.2,0.9-0.4,2.4c-0.1,0.6-0.2,1.3-0.4,2c-0.4,2.1-0.8,4.8-1.4,7.8c-2,11.5-4.6,26.9-4.6,27.5c0,0.5-3,31.7-5.7,59.2
										c-0.2,2.1-0.4,4.2-0.6,6.3C443.2,365.9,441.7,381.9,441.7,381.9z"/><path fill="#fa5814" d="M417.7,356.1c0.1,13.6,3.1,43.6,5.5,65.2c0.1,0.6,0.1,1.2,0.2,1.8c1.5,13.4,2.7,23.2,2.7,23.2h40.5
										c2.5-3,4.3-11.1,3-23.2c-0.1-0.6-0.1-1.2-0.2-1.8c-0.9-6.9-2.7-15-5.8-24.1c-10.8-31.4,13.6-80.7,18.7-105.8
										c5.1-25.1-11.6-37.8-11.6-37.8h-36.5C434.1,253.7,417.5,330.4,417.7,356.1z"/><path fill="#e44000" d="M423.2,421.4c0.1,0.6,0.1,1.2,0.2,1.8h46.2c-0.1-0.6-0.1-1.2-0.2-1.8h-20.9l-0.4-1.2
											c-3.8-10.4-7.8-21.2-8.4-32.2c-1.4-25,1.7-49.8,9.4-73.7c1.5-4.7,3.4-10.6,1-15.6c-0.7-1.6-1.9-2.9-2.9-4.2
											c-1.3-1.6-2.6-3.2-3.1-5c-1.1-4.2,2.4-8.4,5.7-10.7c1.2-0.9,2.6-1.6,3.9-2.4c2.8-1.6,5.6-3.3,7.8-5.8l-1.4-1.2
											c-2,2.3-4.6,3.8-7.3,5.4c-1.3,0.8-2.7,1.6-4,2.5c-4,2.8-7.8,7.6-6.5,12.7c0.6,2.3,2.1,4,3.5,5.7c1,1.2,2,2.4,2.7,3.8
											c2.1,4.3,0.4,9.6-1.1,14.2c-7.8,24.1-11,49.1-9.5,74.3c0.6,11.2,4.7,22.1,8.6,32.7l0.2,0.5H423.2z"/><path fill="#48dbc5" d="M429.6,258.3c0.4,7.6,0.9,12.9,0.9,12.9c0.2,4.4,59,1.8,58.8-2.6c0,0-0.5-4.7-1.4-11.7
										c-2.6-20.4-9-60.8-18.3-67.3c-8.4-5.9-29.2-3.4-38.1,20.6c-0.2,0.4-0.3,0.9-0.4,1.3c-1.1,3.6-1.7,8.8-2,14.6
										C428.6,236.6,429,249.1,429.6,258.3z"/><path fill="#2ab19f" d="M429.6,258.3c0.4,7.6,0.9,12.9,0.9,12.9c0.2,4.4,59,1.8,58.8-2.6c0,0-0.5-4.7-1.4-11.7
										c-2.6,0.2-5.1,0.6-7.7,0.7c-3.7,0.2-7.8-0.2-10.7-2.6c-3.6-2.8-4.8-7.7-5.2-12.2c-0.5-5.5-0.2-11,0.8-16.4
										c0.6-3,1.2-6.7-1.1-8.8c-5.3-4.6-9.3,4.2-10.6,7.9c-2.1,6.1-3.3,12.5-4.9,18.7c-0.7,2.8-1.4,5.6-2.9,8.1
										c-1.4,2.5-3.7,4.7-6.5,5.3C436,258.4,432.6,257.3,429.6,258.3z"/><path fill="#292561" d="M424.3,215.2l-27.1,4.7c-0.4,0.1-0.7-0.1-0.9-0.4l-23.3-31.4c-0.6-0.8,0.1-2.2,1.1-2.3l27.1-4.7
										c0.4-0.1,0.7,0.1,0.9,0.4l23.3,31.4C425.9,213.6,425.3,215,424.3,215.2z"/><path fill="#48dbc5" d="M443.9,262.7c-15.8,0-41.9-24.5-45.1-28.4c-0.3-0.3-0.3-0.7-0.2-1.1l7-16.7c0.3-0.7,1.3-0.9,1.8-0.3
										c4.5,5,26.7,22.3,28.3,21.7c2.3-0.8,2.5-17.2,4.9-34.1c0.7-4.9,2.7-7.9,5.3-9.6c6.7-4.4,17,0.4,17.8,8.3
										C465.6,221.7,455,262.8,443.9,262.7z"/><path fill="#ffd1c4" d="M429.9,179.7c1.1,3.6,11.6,0.7,12.1,0.6c0,0,0,0,0,0l0.5,5.3l0.7,7.6c0.5,3.1,14.7-3,14.2-6.1
										c0,0-2.8-8.7,0-13.7c2.8-5.1,8-29.4-13.8-31.9C422.4,139.1,428.7,176,429.9,179.7z"/><path fill="#f1c0ba" d="M441.9,180.3l0.5,5.3c2.2-1.9,6.1-10.8,6.1-10.8C444.9,179.2,441.9,180.3,441.9,180.3z"/><path fill="#7c3a3a" d="M499.8,227.4c-3,3.5-7.5,6-12,6.3c-3.7,0.2-9.7-1.5-14.3-4c-5.1-2.7-9.4-6.7-13.5-10.7
										c-4.8-4.7-9.4-9.6-12.6-15.5c-3.2-5.8-5-12.7-3.6-19.3c1.3-6.3,5.4-12.5,3.6-18.7c-0.5-1.8-1.8-3.6-3.6-3.9
										c-1.9-0.3-1.6,2.2-3.1,3.4c-2.7,2.1-5.1-4.4-7.6-6.7c-3-2.6-6.2-5.6-6.8-9.5c-0.8-5,2.9-9.6,7.3-12.1
										c6.6-3.8,15.2-3.9,21.9-0.2c6.7,3.6,11.3,10.9,11.8,18.5c0.3,4.5-0.8,9.1-0.3,13.6c0.7,6.5,4.6,12.2,9.3,16.7
										c4.7,4.5,10.1,8.1,15,12.4c4.9,4.3,9.3,9.4,11.1,15.7C503.5,218.2,503,223.6,499.8,227.4z"/><path fill="#ffd1c4" d="M404.4,219.3c0,0-8.9-22.3-15.2-12.9c-7.7,11.7,11.5,21.6,11.5,21.6L404.4,219.3z"/></g><g><path fill="#2ab19f" d="M422.4,220.8l6.7,5.3c0.3-5.8,0.9-11,2-14.6c-1.8,0.9-3.4,2.1-4.6,3.2
									C424.6,216.3,423.1,218.4,422.4,220.8z"/></g><g><path fill="#5b6f8b" fill-rule="evenodd" d="M319.8,105.3v335.8c0,12.5-10.2,22.7-22.7,22.7H126.2c-12.5,0-22.8-10.2-22.8-22.7V105.3
												c0-12.5,10.2-22.7,22.8-22.7H297C309.5,82.6,319.8,92.8,319.8,105.3z" clip-rule="evenodd"/><path fill="#fff" fill-rule="evenodd" d="M313.8,105.3v335.8c0,9.2-7.5,16.7-16.7,16.7H126.2c-9.2,0-16.8-7.5-16.8-16.7V105.3
												c0-9.2,7.5-16.7,16.8-16.7H297C306.2,88.6,313.8,96.1,313.8,105.3z" clip-rule="evenodd"/><path fill="#5b6f8b" fill-rule="evenodd" d="M228.7,105.6c1.3,0,2.4-1.1,2.4-2.4c0-1.3-1.1-2.4-2.4-2.4h-44.3c-1.3,0-2.4,1.1-2.4,2.4
												c0,1.3,1.1,2.4,2.4,2.4H228.7L228.7,105.6z M236.7,100.8c-1.3,0-2.4,1.1-2.4,2.4c0,1.3,1.1,2.4,2.4,2.4h2
												c1.3,0,2.4-1.1,2.4-2.4c0-1.3-1.1-2.4-2.4-2.4H236.7z" clip-rule="evenodd"/><path fill="#ffd1c4" d="M313.8,213.6c0,0,17.1-30.1,24.4-13c7.3,17.1-16.9,24.7-16.9,24.7l-7.5-12.2"/><path fill="#464ae4" d="M323.8,226c0,0-18.9,25.9-36.4,39.4c-6.6,5.1-13.1,8.5-18.1,8c-20.3-2-31.5-14.1-37.6-25.4
											c-5.7-10.5-6.9-20.3-6.9-20.3l11.3-19c0,0,27.8,13.1,40,30.6l37.5-28.7L323.8,226z"/><path fill="#2624bd" d="M287.4,265.5c-6.6,5.1-13.1,8.5-18.1,8c-20.3-2-31.5-14.1-37.6-25.4c0.1-6.4,1.1-12.9,3-19
											c0.8-2.5,1.7-5,3.1-7.2c1.2-1.7,2.7-3.2,4.6-4.2c2-1,3.2,0.2,4.8,1.6c3.1,2.8,5.3,6.5,6.9,10.4c2.1,5.3,3,11,4.4,16.5
											c1.4,5.5,3.4,11.1,7.2,15.4c1.8,2.1,4.3,3.9,7.1,3.9c2.4,0,4.6-1.3,6.9-2.2c0,0,0.1,0,0.1,0
											C282.7,262,285.7,263.2,287.4,265.5z"/><polygon fill="#292561" points="252.8 321.7 257.3 364.1 155.6 364.1 166.1 321.2"/><path fill="#464ae4" d="M252,321.7c0,5.8-41.7,7.4-67.2,5c-11.3-1.1-19.5-2.9-19.5-5.4l1.9-25.4c0,0-10.1-37.3-4.8-64.6
											c0.8-4.1,1.9-8,3.5-11.5c7.9-17.5,65.3-22,79.8-4.1c12.7,15.8-0.2,55.9-0.2,55.9L252,321.7z"/><path fill="#2624bd" d="M240.6,265.6c-5.1,5.3-11.8,8.8-18.8,11.3s-14.1,4.2-21.2,6.4c-3.6,1.2-7.3,2.6-10,5.2
											c-2.9,2.8-4.6,6.7-5.3,10.7c-0.7,3.9-0.1,7.9-0.5,11.8c-0.4,4.1,0,7.9,0.2,12c0,1.2,0,2.4-0.2,3.6
											c-11.3-1.1-19.5-2.9-19.5-5.4l1.9-25.4c0,0-10.1-37.3-4.8-64.6c2.8-3.2,5.8-6.1,9.1-8.8c3.2-2.7,7.2-5.5,10.6-7.9
											c4.8,0.4,8.5,4.6,10.1,9.2c1.6,4.5,1.6,9.4,2.1,14.2c0.5,4.8,1.7,9.8,5.1,13.2c4.4,4.4,11.4,4.9,17.5,3.9
											c6.1-0.9,12.2-3,18.4-2.8c3.4,0.1,7.2,1.3,8.4,4.4C245,259.7,242.9,263.1,240.6,265.6z"/><path fill="#5b6f8b" d="M240.6,182.6c0,0-0.1,0-0.1,0c-0.4-0.1-0.6-0.4-0.5-0.8c1.6-7.3-7.6-13.8-7.7-13.9
													c-0.3-0.2-0.4-0.6-0.2-0.9c0.2-0.3,0.6-0.4,0.9-0.2c0.4,0.3,10,7.1,8.2,15.3C241.1,182.4,240.9,182.6,240.6,182.6z"/><path fill="#ffd1c4" d="M232.8,194.1c-0.9,2-16,2.1-16,2.1v8.4c0,2.7-20.2,3.2-20.2,0.5l-0.2-18.2c0,0-5.4-10.1-6.6-18.6
													c-1.2-8.5,7.9-23.5,29.1-23.8S236.1,186.6,232.8,194.1z"/><path fill="#292561" d="M232.9,156.1c-11.8-6.2-32.3,1.8-31.9,5.4c0.3,3.6,0.9,10-1.6,9.8c-1.6-0.1-1.3-7.4-5-3.8
													c-3.8,3.6,2.8,9.1,4.3,14c1.5,4.9-2.1,15.7-2.1,15.7c-0.3-1.7-15.7-25-15.7-38.9c-0.1-7.5,4.9-12,10.5-15.4
													c2-1.2,4-2.3,6-3.3c2.8-1.4,5.4-2.7,7.2-4.1c5.3-4.2,9.6-14.2,25.4-9.9S232.9,156.1,232.9,156.1z"/><path fill="#e44000" d="M206,170.3c0,5.5-4.4,9.9-9.9,9.9c-0.4,0-0.8,0-1.2-0.1c4.9-0.6,8.7-4.8,8.7-9.8s-3.8-9.2-8.7-9.8
													c0.4-0.1,0.8-0.1,1.2-0.1C201.5,160.3,206,164.8,206,170.3z"/><path fill="#fa5814" d="M203.5,170.3c0,5.1-3.8,9.2-8.7,9.8c-0.4,0.1-0.8,0.1-1.2,0.1c-5.5,0-9.9-4.4-9.9-9.9
													c0-4.6,3.1-8.4,7.3-9.6c0.8-0.2,1.7-0.3,2.6-0.3c0.4,0,0.8,0,1.2,0.1c0.6,0.1,1.1,0.2,1.7,0.4
													C200.5,162,203.5,165.8,203.5,170.3z"/><path fill="#fdd333" d="M196.5,160.8c-0.5-0.2-1.1-0.3-1.7-0.4c-0.4-0.1-0.8-0.1-1.2-0.1c-0.9,0-1.8,0.1-2.6,0.3
														c-0.4-4.8,0-12.7,0.4-17.7c2-1.2,4-2.3,6-3.3C195.9,146.7,196.3,158,196.5,160.8z"/><path fill="#5b6f8b" d="M232.8,186.6c-2,0-3.6-0.3-3.8-0.3c-0.4-0.1-0.6-0.4-0.5-0.8c0.1-0.4,0.4-0.6,0.8-0.5
														c0.1,0,9.6,1.6,10.6-3.1c0.1-0.4,0.4-0.6,0.8-0.5c0.4,0.1,0.6,0.4,0.5,0.8C240.4,185.8,236.1,186.6,232.8,186.6z"/><ellipse cx="228.6" cy="185.9" fill="#5b6f8b" rx="3.9" ry="2.5"/><g><path fill="#f0f4f9" d="M281.9,220.4l-8.8,64.3c-0.1,1-1,1.7-1.9,1.7H232c-1.2,0-2.1-1-1.9-2.2l7.6-64.3
											c0.1-1,1-1.7,1.9-1.7H280C281.2,218.2,282.1,219.3,281.9,220.4z"/></g><g><path fill="#ffd1c4" d="M239.2,256.2c0,0,22-13.7,22.5,1.2c0.5,14.9-22.5,11.6-22.5,11.6V256.2z"/></g><g><path fill="#464ae4" d="M174.8,211.4c-6.9,1.4-13.9,10-13.9,28.8c0,21.7,0.8,40.7,11.5,45.6c16.3,7.5,69.9-16,69.9-16
											l-1.7-15.4l-52.3,8.3C188.3,262.7,196.4,207,174.8,211.4z"/></g><g><path fill="#f0f4f9" fill-rule="evenodd" d="M313.8,364v77.1c0,9.2-7.5,16.7-16.7,16.7H126.2c-9.2,0-16.8-7.5-16.8-16.7V364H313.8z" clip-rule="evenodd"/></g><g><path fill="#fff" d="M171.3,411c0,12.3-10,22.3-22.3,22.3c-12.3,0-22.3-10-22.3-22.3c0-12.3,10-22.3,22.3-22.3
										C161.4,388.7,171.3,398.6,171.3,411z"/><path fill="#fff" d="M233.9,411c0,12.3-10,22.3-22.3,22.3s-22.3-10-22.3-22.3c0-12.3,10-22.3,22.3-22.3
										S233.9,398.6,233.9,411z"/><path fill="#fff" d="M296.4,411c0,12.3-10,22.3-22.3,22.3c-12.3,0-22.3-10-22.3-22.3c0-12.3,10-22.3,22.3-22.3
										C286.5,388.7,296.4,398.6,296.4,411z"/></g><g><path fill="#48dbc5" d="M161.6,421.4c-0.3,0.8-0.6,1.7-1,2.5c-0.3,0.7-0.5,1.3-0.8,2c0,0,0,0,0,0c-0.2,0.4-0.6,0.6-1,0.5
										c-12.4-5-21.1-16.5-22.5-29.8c0-0.4,0.3-0.8,0.7-0.9c0.7-0.1,1.4-0.1,2.2-0.2c0,0,0,0,0,0c0.9-0.1,1.8-0.1,2.7-0.2
										c0.4,0,0.8,0.3,0.8,0.7c0.3,2.4,0.8,4.7,1.6,6.8c0.1,0.4-0.1,0.9-0.5,1c-0.6,0.2-1.2,0.5-1.8,0.7c-0.4,0.2-0.6,0.6-0.4,1
										c2.1,5.1,5.6,9.7,9.9,13.2c0.3,0.3,0.8,0.2,1.1-0.1c0.4-0.5,0.8-1,1.2-1.5c0.3-0.3,0.7-0.4,1.1-0.2
										c1.9,1.4,3.9,2.5,6.2,3.4C161.6,420.6,161.8,421,161.6,421.4z"/></g><g><path fill="#fa5814" d="M292.2,411.7c-0.4,0.6-0.8,1.3-1.2,1.9c0,0,0,0,0,0c-0.5,0.8-1,1.5-1.5,2.3c-0.2,0.3-0.5,0.3-0.8,0.2
										c-2-1.2-4.2-2.2-6.4-2.8c-0.3-0.1-0.5-0.4-0.4-0.7c0.2-0.7,0.4-1.4,0.6-2c0.1-0.3-0.1-0.6-0.4-0.7c-5.2-1.4-10.7-1.4-16,0
										c-0.3,0.1-0.5,0.4-0.4,0.7c0.2,0.7,0.4,1.4,0.6,2c0.1,0.3-0.1,0.6-0.4,0.7c-2.2,0.7-4.4,1.6-6.4,2.9
										c-0.3,0.2-0.6,0.1-0.8-0.2c-0.5-0.8-1-1.5-1.5-2.3c-0.4-0.6-0.8-1.3-1.2-1.9c0.1-0.3,0.1-0.5,0.2-0.8
										c11-6.7,24.8-6.7,35.8,0C292.3,411,292.3,411.4,292.2,411.7z"/></g><g><path fill="#fdd333" d="M222.8,416.5l0.6,4.5l-5.1-0.7c-2,1-4.3,1.6-6.8,1.6c-7.2,0-13-4.9-13-11c0-6.1,5.8-11,13-11
										c7.2,0,13,4.9,13,11C224.6,413,224,414.9,222.8,416.5z"/><circle cx="205.4" cy="411" r="1.7" fill="#fff"/><circle cx="211.6" cy="411" r="1.7" fill="#fff"/><circle cx="217.8" cy="411" r="1.7" fill="#fff"/></g></g></g><g><path fill="#ba93df" d="M279.1,157.9c-0.1,1.1,0.8,2.1,2,2l16.5-2.1c0.3,0,0.7,0,1,0.2c7.4,3.7,16,5.9,25.2,5.9
					c27.3,0,49.4-18.8,49.4-41.9c0-23.1-22.1-41.9-49.4-41.9c-27.3,0-49.4,18.8-49.4,41.9c0,7.5,2.3,14.4,6.3,20.5
					c0.2,0.3,0.3,0.8,0.3,1.2L279.1,157.9z"/></g><g><path fill="#fff" d="M297.3,129.7c-0.1-0.1-0.2-0.2-0.2-0.4v-1.7c0-0.4,0.2-0.8,0.6-1.1l2.1-2c1.4-1.1,2.5-1.9,3.2-2.5
						c0.7-0.6,1.3-1.1,1.6-1.6c0.4-0.5,0.6-0.9,0.6-1.4c0-1.1-0.5-1.6-1.6-1.6c-0.6,0-1,0.2-1.3,0.5c-0.3,0.3-0.5,0.8-0.6,1.3
						c-0.1,0.3-0.3,0.5-0.8,0.5h-2.9c-0.1,0-0.2,0-0.3-0.1c-0.1-0.1-0.1-0.2-0.1-0.3c0-1,0.3-1.9,0.8-2.6c0.5-0.8,1.2-1.4,2.1-1.9
						c0.9-0.5,2-0.7,3.2-0.7c1.2,0,2.3,0.2,3.2,0.6c0.9,0.4,1.6,1,2,1.7c0.5,0.7,0.7,1.6,0.7,2.5c0,1.1-0.3,2-1,2.9
						c-0.7,0.9-1.7,1.8-3,2.8l-1.8,1.8h5.6c0.2,0,0.3,0.1,0.4,0.2c0.1,0.1,0.2,0.2,0.2,0.4v2.4c0,0.1-0.1,0.3-0.2,0.4
						c-0.1,0.1-0.2,0.2-0.4,0.2h-11.5C297.5,129.8,297.4,129.8,297.3,129.7z"/><path fill="#fff" d="M318.8,129.7c-0.1-0.1-0.2-0.2-0.2-0.4v-2.4h-6.9c-0.1,0-0.3-0.1-0.4-0.2c-0.1-0.1-0.2-0.2-0.2-0.4V124
						c0-0.2,0.1-0.4,0.2-0.7l6.4-8.7c0.2-0.3,0.5-0.4,0.8-0.4h3.4c0.2,0,0.3,0.1,0.4,0.2c0.1,0.1,0.2,0.2,0.2,0.4v8.5h1.9
						c0.2,0,0.3,0.1,0.4,0.2c0.1,0.1,0.2,0.2,0.2,0.4v2.3c0,0.1-0.1,0.3-0.2,0.4c-0.1,0.1-0.2,0.2-0.4,0.2h-2v2.4
						c0,0.2-0.1,0.3-0.2,0.4c-0.1,0.1-0.2,0.2-0.4,0.2h-2.9C319.1,129.8,318.9,129.8,318.8,129.7z M315.2,123.6h3.6v-5L315.2,123.6z
						"/><path fill="#fff" d="M326.3,131.5c-0.1-0.1-0.1-0.2-0.1-0.3c0-0.1,0-0.1,0-0.2l7.5-18c0.2-0.4,0.4-0.6,0.8-0.6h2.1
						c0.1,0,0.2,0,0.3,0.1c0.1,0.1,0.1,0.2,0.1,0.3c0,0.1,0,0.1,0,0.2l-7.5,18c-0.1,0.4-0.4,0.6-0.8,0.6h-2.1
						C326.5,131.7,326.4,131.6,326.3,131.5z"/><path fill="#fff" d="M340.4,129.7c-0.1-0.1-0.1-0.2-0.1-0.3c0-0.1,0-0.1,0-0.2l5.1-11.3h-6.6c-0.2,0-0.3-0.1-0.4-0.2
						c-0.1-0.1-0.2-0.2-0.2-0.4v-2.3c0-0.2,0.1-0.3,0.2-0.4c0.1-0.1,0.2-0.2,0.4-0.2h10.5c0.2,0,0.3,0.1,0.4,0.2
						c0.1,0.1,0.2,0.2,0.2,0.4v2.1c0,0.3,0,0.5-0.1,0.7c-0.1,0.2-0.1,0.3-0.1,0.3l-5.1,11.3c-0.2,0.4-0.4,0.5-0.8,0.5h-3
						C340.5,129.8,340.4,129.8,340.4,129.7z"/></g></svg>