<svg xmlns="http://www.w3.org/2000/svg" enable-background="new 0 0 450 450" viewBox="0 0 450 450"><path fill="#1a3a49" d="M9.389 399.248h429.508v4H9.389z"/><path fill="#eae8fe" d="M179.701 348.569h73.203v42.391h-73.203zM365.926 126.988v198.597H66.679V126.988c0-9.147 7.415-16.562 16.562-16.562h266.133c9.136 0 16.552 7.415 16.552 16.562z"/><path fill="#fff" d="M79.576 318.085V126.988a3.67 3.67 0 0 1 3.665-3.665h266.133a3.664 3.664 0 0 1 3.654 3.665v191.097H79.576z"/><path fill="#d2d4e9" d="M66.679 318.085v20.653c0 9.146 7.415 16.562 16.562 16.562h266.133c9.136 0 16.552-7.416 16.552-16.562v-20.653H66.679zM274.574 399.42H156.277c0-4.681 1.422-8.912 3.707-11.973 2.285-3.06 5.444-4.95 8.93-4.95h93.024c6.97 0 12.636 7.574 12.636 16.924z"/><circle cx="216.139" cy="336.693" r="6.012" fill="#fff"/><path fill="#37c092" d="M405.612 344.695c-2.444 2.85-1.652 7.589-.191 11.044.864 2.052 2.214 4.128 1.188 6.381-.434.955-1.24 1.7-2.2 2.129a5.312 5.312 0 0 1-2.501.453 6.037 6.037 0 0 1-.654-.067c-1.365-.224-2.668-.902-3.727-1.813-1.327-1.136-2.554-2.907-3.341-4.802-1.327-3.207-3.943-5.713-7.26-6.739-.129-.043-.262-.081-.391-.124a26.397 26.397 0 0 1-10.724-6.677c-1.962-2.024-3.685-4.615-3.088-7.522.32-1.55 1.422-2.858 2.954-3.255 1.885-.486 3.222.664 4.424 1.771 1.036.955 2.148 1.962 3.651 1.952.726 0 1.437-.339 1.814-.96.62-1.03.024-2.104-.649-2.93a12.059 12.059 0 0 0-6.176-3.97c-2.534-.674-5.317-.526-7.436-2.377-.96-.84-1.489-2.105-1.226-3.35.591-2.812 4.581-2.502 5.12-5.385.192-1.016-.138-2.047-.772-2.868-1.146-1.48-2.95-2.11-4.702-2.62-1.279-.377-2.615-.735-3.589-1.704a3.113 3.113 0 0 1-.778-1.236c-.658-2.053 1.265-3.38 3.002-3.355 1.356.019 2.616.649 3.819 1.27-2.315-3.208-4.63-6.41-6.945-9.613-.768-1.065-1.556-2.172-1.823-3.46-.267-1.284.129-2.807 1.274-3.451.898-.51 2.053-.363 2.974.11.916.477 1.646 1.24 2.362 1.99l9.956 10.443c-.415-1.614-.33-3.155-.11-4.807.22-1.65 1.241-3.307 2.84-3.765 1.437-.415 3.012.229 4.067 1.284 1.054 1.055 1.67 2.458 2.18 3.86 1.824 5.003 1.805 10.205 1.385 15.512 1.608-2.897 2.386-6.338 5.379-7.755 1.57-.745 3.011 1.79 3.603 3.422.597 1.627.606 3.402.611 5.135l.029 12.29c1.489-1.8 3.045-3.656 5.36-4.382 1.05-.329 2.19-.348 3.207.072 2.443 1.007 2.816 3.713 2.672 6.061a23.586 23.586 0 0 1-5.588 13.808z"/><path fill="#238a6f" d="M401.908 364.702a6.037 6.037 0 0 1-.654-.067c1.074-17.391-7.97-35.103-15.783-46.935-8.534-12.929-17.478-21.816-17.564-21.902a.331.331 0 0 1-.005-.467.327.327 0 0 1 .468 0c.09.085 9.078 9.02 17.654 22.007 7.87 11.922 16.986 29.777 15.884 47.364z"/><path fill="#238a6f" d="M385.353 316.838a.33.33 0 0 1-.546-.305c.016-.083 1.568-8.264.38-11.815a.33.33 0 1 1 .625-.21c1.243 3.715-.291 11.807-.357 12.15a.328.328 0 0 1-.102.18z"/><path fill="#238a6f" d="M385.353 316.839a.33.33 0 0 1-.422.018c-.065-.05-6.488-4.92-10.3-4.428a.33.33 0 1 1-.084-.654c4.08-.527 10.512 4.35 10.785 4.558a.33.33 0 0 1 .021.506zM393.565 330.862a.33.33 0 0 1-.524-.376c.04-.094 4.103-9.462 2.583-14.319a.33.33 0 1 1 .629-.197c1.594 5.093-2.436 14.387-2.608 14.78a.327.327 0 0 1-.08.112zM392.796 329.345a.33.33 0 0 1-.39.04c-.091-.053-9.196-5.374-14.253-4.425a.33.33 0 0 1-.121-.648c5.3-.994 14.327 4.28 14.71 4.505a.33.33 0 0 1 .054.528zM398.267 341.993a.33.33 0 0 1-.452-.48l.064-.063c2.53-2.444 6.977-7.361 8.357-12.831a.33.33 0 0 1 .64.161c-1.42 5.629-5.96 10.651-8.538 13.144l-.064.062a.346.346 0 0 1-.007.007zM400.647 350.525a.33.33 0 0 1-.415.024c-.134-.096-13.47-9.62-20.312-8.466a.33.33 0 1 1-.11-.65c7.112-1.2 20.251 8.18 20.807 8.58a.33.33 0 0 1 .03.512z"/><path fill="#27aa7b" d="M412.038 343.417c-.55-3.832.53-7.722 3.13-10.592a29.398 29.398 0 0 0 6.79-12.841c.733-3.054.912-6.521-1.313-8.969-1.186-1.305-2.99-1.932-4.684-1.441-2.086.605-2.708 2.469-3.234 4.212-.453 1.506-.946 3.103-2.39 3.95-.7.41-1.571.492-2.286.11-1.182-.636-1.22-2.007-1.04-3.178.419-2.741 1.72-5.34 3.661-7.32 2.047-2.085 4.8-3.525 5.78-6.508.442-1.348.231-2.863-.729-3.908-2.167-2.359-5.814.204-7.973-2.252-.76-.866-1.03-2.044-.89-3.187.257-2.072 1.632-3.702 3.018-5.189 1.016-1.09 2.09-2.19 2.477-3.672a3.44 3.44 0 0 0 .04-1.627c-.533-2.344-3.133-2.523-4.786-1.513-1.288.786-2.137 2.11-2.94 3.387l1.194-13.166c.133-1.457.26-2.966-.215-4.351s-1.722-2.618-3.185-2.588c-1.153.023-2.178.82-2.788 1.798-.61.978-.878 2.125-1.136 3.249l-3.609 15.674c-.518-1.782-1.477-3.212-2.628-4.669-1.15-1.456-3.07-2.465-4.867-1.997-1.607.42-2.754 1.933-3.165 3.543-.412 1.61-.206 3.31.1 4.943 1.095 5.832 4.072 10.81 7.494 15.658-3.192-1.86-5.892-4.721-9.57-4.376-1.925.18-1.868 3.43-1.511 5.33.357 1.9 1.356 3.608 2.338 5.274l6.96 11.8c-2.452-.88-5-1.776-7.631-1.156-1.194.282-2.3.912-3.037 1.892-1.772 2.355-.588 5.164.884 7.333a26.32 26.32 0 0 0 13.212 10.063c3.959 1.344 5.893 6.34 6.461 10.482.337 2.457.221 5.218 2.485 6.793.96.669 2.156.926 3.32.792 2.894-.334 4.907-2.68 5.79-5.28.626-1.842.798-4.24.473-6.503z"/><path fill="#238a6f" d="M408.884 354.699a.366.366 0 0 0 .377-.57c-11.14-16.094-12.56-38.428-11.789-54.33.836-17.253 4.358-30.856 4.394-30.992a.368.368 0 0 0-.712-.186c-.035.136-3.577 13.813-4.416 31.142-.776 16.016.662 38.52 11.919 54.785.056.08.138.132.227.15z"/><path fill="#238a6f" d="M397.095 298.903a.367.367 0 0 0 .35-.603c-.061-.07-6.2-7.034-7.08-11.114a.368.368 0 1 0-.719.155c.92 4.268 6.991 11.155 7.25 11.446.054.062.125.1.2.116z"/><path fill="#238a6f" d="M397.096 298.903a.368.368 0 0 0 .415-.222c.034-.084 3.425-8.407 7.359-10.102a.367.367 0 1 0-.29-.675c-4.212 1.815-7.608 10.148-7.75 10.502a.368.368 0 0 0 .266.497zM397.194 317.02a.367.367 0 0 0 .289-.66c-.093-.066-9.314-6.74-10.618-12.262a.367.367 0 1 0-.715.17c1.367 5.789 10.515 12.41 10.904 12.69.043.03.09.051.14.061zM397.07 315.128a.368.368 0 0 0 .396-.183c.057-.104 5.763-10.382 11.15-12.347a.368.368 0 0 0-.25-.691c-5.648 2.06-11.306 12.25-11.545 12.683a.368.368 0 0 0 .248.538zM399.013 330.366a.368.368 0 0 0 .16-.717l-.097-.023c-3.814-.907-10.875-3.093-15.309-7.554a.368.368 0 0 0-.521.518c4.562 4.59 11.77 6.827 15.66 7.75l.096.024a.3.3 0 0 0 .011.002zM401.582 339.901c.167.035.34-.05.41-.213.074-.168 7.45-16.882 14.665-19.666a.368.368 0 1 0-.264-.686c-7.501 2.894-14.768 19.358-15.074 20.058a.368.368 0 0 0 .263.507z"/><path fill="#37c092" d="M439.75 320.64c-.658 1.604-1.846 2.921-3.01 4.205-2.75 3.036-5.504 6.07-8.257 9.107 2.314-.33 4.715-.654 6.915.367.998.468 1.852 1.222 2.325 2.215 1.126 2.39-.42 4.643-2.11 6.28a23.637 23.637 0 0 1-13.435 6.444c-3.718.458-6.329 4.495-7.58 8.032-.74 2.095-1.14 4.544-3.412 5.517-.969.41-2.066.42-3.064.091a5.248 5.248 0 0 1-2.152-1.346 4.75 4.75 0 0 1-.44-.496c-.859-1.083-1.365-2.463-1.536-3.847-.215-1.732.071-3.87.768-5.799 1.179-3.264.935-6.877-.826-9.87a26.353 26.353 0 0 1-3.632-12.514c-.09-2.816.382-5.894 2.783-7.641 1.274-.93 2.978-1.155 4.376-.415 1.723.907 1.929 2.658 2.072 4.286.129 1.403.272 2.897 1.384 3.904.54.487 1.293.716 1.99.51 1.15-.343 1.437-1.541 1.49-2.6a12.057 12.057 0 0 0-1.886-7.098c-1.422-2.2-3.58-3.966-3.895-6.768-.148-1.26.315-2.553 1.346-3.297 2.334-1.68 5.074 1.236 7.417-.53.821-.625 1.274-1.609 1.356-2.64.152-1.866-.76-3.546-1.704-5.107-.697-1.14-1.442-2.3-1.513-3.674a3.093 3.093 0 0 1 .262-1.437c.893-1.962 3.212-1.647 4.477-.458.993.926 1.494 2.238 1.971 3.508.444-3.928.893-7.856 1.341-11.784.148-1.303.31-2.654.979-3.78.668-1.131 1.985-1.99 3.27-1.7 1.006.235 1.76 1.118 2.118 2.091.358.97.387 2.024.41 3.06.11 4.806.215 9.617.325 14.423.778-1.47 1.88-2.554 3.155-3.623 1.274-1.074 3.145-1.608 4.639-.873 1.336.663 2.067 2.2 2.138 3.69.067 1.488-.42 2.944-.988 4.323-2.019 4.926-5.54 8.753-9.426 12.395 3.14-1.055 6.033-3.078 9.202-2.11 1.656.511 1.017 3.356.358 4.96z"/><path fill="#238a6f" d="M426.13 315.839c-2.215 14.118-7.508 33.457-20.16 45.713a4.75 4.75 0 0 1-.44-.496c12.51-12.128 17.75-31.314 19.946-45.317 2.4-15.306 1.775-27.897 1.77-28.021a.33.33 0 0 1 .659-.038c.005.129.635 12.786-1.775 28.159z"/><path fill="#238a6f" d="M425.971 315.02a.33.33 0 0 1-.197-.593c.067-.05 6.725-5.052 8.238-8.477a.33.33 0 1 1 .603.266c-1.583 3.583-8.167 8.53-8.446 8.74a.328.328 0 0 1-.198.065z"/><path fill="#238a6f" d="M425.97 315.02a.33.33 0 0 1-.323-.27c-.015-.08-1.482-8.007-4.63-10.21a.33.33 0 1 1 .378-.54c3.37 2.358 4.84 10.296 4.9 10.632a.33.33 0 0 1-.324.389zM422.595 330.917a.33.33 0 0 1-.134-.631c.094-.042 9.406-4.23 11.554-8.844a.33.33 0 1 1 .597.279c-2.252 4.837-11.49 8.993-11.883 9.167a.327.327 0 0 1-.134.029zM423.048 329.278a.33.33 0 0 1-.315-.233c-.031-.101-3.177-10.166-7.553-12.871a.33.33 0 0 1 .346-.561c4.587 2.835 7.707 12.815 7.837 13.238a.33.33 0 0 1-.315.427zM418.573 342.311a.33.33 0 0 1-.01-.66l.09-.002c3.515-.103 10.114-.742 14.819-3.855a.33.33 0 0 1 .364.55c-4.841 3.204-11.579 3.859-15.164 3.964l-.088.003h-.011zM414.585 350.22a.33.33 0 0 1-.322-.26c-.034-.162-3.478-16.184-9.31-19.94a.33.33 0 1 1 .356-.554c6.064 3.904 9.457 19.687 9.6 20.357a.33.33 0 0 1-.324.398z"/><path fill="#fcc283" d="M425.995 355.438v35.62c0 4.16-3.37 7.53-7.53 7.53h-27.38c-4.16 0-7.53-3.37-7.53-7.53v-35.62c0-2.22 1.81-4.03 4.03-4.03h34.38a4.03 4.03 0 0 1 4.03 4.03z"/><path fill="#fe8b70" d="M425.998 357.936v-3.033a3.492 3.492 0 0 0-3.493-3.493H387.05a3.492 3.492 0 0 0-3.493 3.493v3.033h42.44z"/><path fill="#b94768" d="M240.41 102.421c-.984-.513-1.014-1.172-1.207-5.46-.55-12.225-2.012-44.697-24.108-47.135l.33-2.982c24.648 2.72 26.249 38.292 26.775 49.982.073 1.62.148 3.295.245 3.667-.04-.15-.257-.586-.785-.795l-.526 1.334.837 1.32-1.56.07z"/><path fill="#06112d" d="M247.784 159.646c-6.53 3.46-14.17 7.07-16.16 14.18-1.06 3.81-.21 7.86-.16 11.81.12 9.6-4.9 19.12-12.89 24.44-7.98 5.32-18.69 6.29-27.51 2.49-.94-.41-1.95-.97-2.25-1.96-.18-.61.17-1.34.67-1.66l.99-.06c-.33-.2-.69-.14-.99.06-12.62.79-25.36-.46-37.59-3.68-5.77-1.52-12.16-4.16-14.08-9.82-2.08-6.12 2.1-12.42 5.93-17.63 3.82-5.21 7.67-11.89 4.97-17.76-2.78-6.03-11.22-7.93-13.72-14.07-2.11-5.18 1.03-11.12 5.2-14.85 4.17-3.72 9.38-6.19 13.32-10.17 6.31-6.35 8.51-15.63 9.98-24.46 1.47-8.83 2.59-18.07 7.42-25.61 5.17-8.05 13.61-14.47 22.49-16.02 11.27-1.97 15.2-.594 26.79.876 23.07 4.313 34.294 33.145 23.607 61.47-.16 9.53 14.973 16.394 16.393 25.814 1.1 7.3-5.88 13.15-12.41 16.61z"/><path fill="#06112d" d="m190.475 208.885-.99.06c.3-.2.66-.26.99-.06z"/><path fill="#11153a" d="M255.574 318.085h-45.73l-2.03-14.88-.12-.87-.04-.25 13.03-.69 16.14-.85 16.88-.89 1.63 16.05z"/><path fill="#11153a" d="m215.794 304.876-.49 13.21h-54.86l.01-.48.24-11.08.29-13.14 29.46 6.18 17.37 3.64z"/><path fill="#fe6081" d="M257.574 313.005c0 1.07-.73 1.95-2.24 2.7-1.87.93-4.94 1.67-9.33 2.38h-84.31c-.45-.16-.86-.32-1.24-.48-1.66-.74-2.58-1.58-2.58-2.55l.41-7.96.89-17.05v-.01l2.27-43.96.01-.22.03-.5v-.03c0-.01 0-.03-.01-.05 0-.02 0-.05-.01-.09s-.02-.08-.02-.13c-.25-2.01-1.71-13.95-2.61-28.25v-.01c-.2-3.25-.38-6.62-.51-10.03-.6-16.53-.03-33.82 4.09-41.7.33-.63.69-1.23 1.09-1.81 4.31-6.36 12.4-10.15 20.82-11.55l.09-.01c.31-.06.61-.11.92-.15 1.82-.25 3.51-.45 5.01-.58 1.45-.13 3.07-.26 4.82-.37 7.66-.48 17.62-.71 24.82-.28l.73.05c.69.04 1.35.09 1.97.15l.09.01c1.64.16 3.05.24 4.3.32h.01l2.64 3.79c4.1.27 6.56 1.42 11.61 4.77.78.52 1.47 1.2 2.06 2.03.09.13.18.26.27.4 6.28 9.64 1.84 35.81 1.84 35.81.61.64 1.18 1.29 1.71 1.94 11.98 14.64 6.22 32.15 2.32 39.79-.27.54-.12 3.74.29 8.53v.01c.24 2.81.58 6.16.97 9.85.8 7.48 1.85 16.32 2.88 24.7 1.99 16.11 3.9 30.54 3.9 30.54z"/><path fill="#fec3bd" d="m217.016 185.981-26.673-35.016 1.746-27.797 10.566-2.003 9.119 6.274 8.42 5.792-1.078 11.172.87 5.911z"/><path fill="#f18b89" d="m220.194 133.23-1.078 11.173s-20.117-7.568-23.064-16.204c-1.982-5.833 8.626-3.132 15.722-.76l8.42 5.792z"/><path fill="#fec3bd" d="M227.785 139.752c-21.3 6.058-35.693-16.59-35.693-16.59s-12.24-1.882-12.711-11.138c-.47-9.255 6.901-10.356 9.415-7.692 0 0 3.296-39.544 28.397-38.914 9.867.245 16.524 10.988 19.697 24.216 4.896 20.423 3.398 46.562-9.105 50.118z"/><path fill="#06112d" d="M243.968 79.908c-10.243 19.877-45.379.605-41.449 7.724 3.93 7.107-2.256 6.306-6.714 15.09-3.32 6.544-2.97 9.772-3.812 10.123-1.044.435-1.84-1.668-2.376-3.893-1.309-5.432-9.357-5.164-10.136.37-.114.809-.154 1.707-.103 2.698.471 9.263 12.71 11.138 12.71 11.138l-.471 7.512c-36.207-20.313-34.198-77.101 20.907-79.35 21.245-.868 39.858 12.259 31.444 28.588z"/><ellipse cx="215.433" cy="102.721" fill="#06112d" rx="1.915" ry="2.873" transform="rotate(-2.623 215.433 102.72)"/><path fill="#06112d" d="M212.523 98.429a.5.5 0 0 1-.312-.891c3.7-2.95 6.023-.928 6.121-.84a.5.5 0 0 1-.667.745c-.072-.063-1.82-1.521-4.83.877a.497.497 0 0 1-.312.109z"/><ellipse cx="231.621" cy="102.721" fill="#06112d" rx="1.915" ry="2.873" transform="rotate(-2.623 231.621 102.72)"/><path fill="#06112d" d="M228.71 98.429a.5.5 0 0 1-.311-.891c3.701-2.95 6.024-.928 6.12-.84a.5.5 0 0 1-.666.745c-.08-.069-1.828-1.516-4.831.877a.497.497 0 0 1-.311.109z"/><path fill="#f18b89" d="M226.82 117.723a.499.499 0 0 1-.333-.874c.551-.49.866-1.14.886-1.832a2.464 2.464 0 0 0-.742-1.821c-.219-.22-.48-.42-.757-.632-.183-.14-.366-.28-.54-.428-1.22-1.037-2.042-2.493-2.375-4.21-.291-1.5-.2-3.007-.11-4.465a.5.5 0 1 1 .998.06c-.085 1.396-.173 2.84.093 4.214.29 1.492.996 2.75 2.042 3.64.16.136.33.266.5.395.29.223.591.453.857.72.695.697 1.062 1.605 1.034 2.557-.029.97-.462 1.874-1.22 2.55a.498.498 0 0 1-.333.126zM222.043 125.676c-2.461 0-4.898-1.29-6.267-3.337a.5.5 0 1 1 .831-.556c1.23 1.837 3.45 2.976 5.659 2.889a.5.5 0 0 1 .037 1 7.118 7.118 0 0 1-.26.004z"/><path fill="#0c8ff9" d="m221.514 240.405-.15 11.56-.04 2.65-.36 26.34-.13 9.69-.03 1.81-.12 8.94-.22 16.69h-64.2l.77-10.7 1.27-17.73 3.14-43.58.01-.22.04-.5s0-.01-.01-.03c0-.01 0-.03-.01-.05 0-.02 0-.05-.01-.09s-.02-.08-.02-.13c-.05-.27-.13-.73-.24-1.35-.03-.2-.07-.41-.11-.64-.18-1.05-.41-2.43-.68-4.09-.09-.59-.19-1.23-.3-1.9-.2-1.27-.41-2.66-.63-4.15-.08-.51-.15-1.03-.23-1.57-.47-3.27-.97-6.97-1.45-10.91-.42-3.41-.81-7-1.17-10.67-.11-1.15-.23-2.3-.37-3.45-1.92-16.75-6.11-33.75-1.98-41.66.09-.17.2-.33.29-.5.01-.01.02-.01.02-.02 2.51-3.69 10.59-6.94 15.12-8.77 4.63-1.88 9.89-3 14.61-3.67l.09-.01 5.93-.73 22.12 62.16 8.28 23.25.77 4.03z"/><path fill="#fec3bd" d="M357.519 193.565c3.968 6.197-27.874 22.432-27.874 22.432l-12.126-17.742s7.932-20.535 11.694-21.133c3.722-.582 1.329 9.987 1.329 9.987 1.52-1.69 11.832-16.681 16.325-14.442 2.516 1.255-4.078 8.329-4.3 10.246 1.3-2.471 6.95-8.354 10.443-6.801 3.69 1.642-2.852 8.695-4.432 9.837 1.654-1.107 5.83-4.52 7.412-2.01 1.699 2.692-2.627 8.022-4.117 8.577 1.506-.65 4.876-.153 5.646 1.049z"/><path fill="#0c8ff9" d="M333.823 214.334s-34.072 51.167-57.524 54.94c-1.258.209-2.463.26-3.607.146-9.366-.914-21.352-18.202-29.627-32.288-5.79-9.855-9.761-18.13-9.761-18.13l11.144-63.588c11.539 10.219 23.629 41.052 35.594 67.206l39.602-32.134 14.179 23.848z"/><path d="M276.3 269.275c-1.259.208-2.464.26-3.608.145-9.366-.914-21.352-18.202-29.627-32.288l6.726-60.875 6.144 18.712s8.254 9.355 9.262 22.08c.852 10.925-1.03 40.884 11.102 52.226z" opacity=".1"/><path fill="#0c8ff9" d="M263.774 318.085h-25.62l-1.33-17.54-.89-11.63-.05-.65-2.48-32.7-.12-1.49-2-26.32-3.94-27.01v-.01l-5.43-37.16-1.93-13.26.73.05 1.97.15.09.01 4.3.32h.01s11.88 1.98 17.36 4.57h.01c.31.15.61.43.89.84.01 0 .01 0 .01.01 0 0 0 .01.01.01 0 0 0 .01.01.01v.01c.56.82 1.11 2.14 1.61 3.77 1.29 4.25 2.33 10.76 3.1 17.07v.01c1.19 9.54 1.78 18.61 1.78 18.61 14.2 15 8.09 33.75 4.03 41.74-.37.74.13 7.81 1.07 17.74.08.87.17 1.75.25 2.66v.01c.75 7.71 1.71 16.83 2.7 25.94 1.38 12.68 2.83 25.35 3.86 34.24z"/><path d="m249.791 285.679-28.982 6.777-63.776 14.928 4.46-62.029s-1.986-10.894-3.69-24.907l12.796-45.334 19.741 71.343 31.02 5.51 26.903 4.771 1.528 28.94z" opacity=".1"/><path fill="#fec3bd" d="M278.753 282.627c-1.358 7.233-33.218-2.335-33.218-2.335l-.096-20.1s19.85-9.516 23-7.372c3.109 2.127-5.878 8.182-5.878 8.182 2.265-.188 18.334-5.333 20.07-.623.973 2.638-6.963 4.567-8.438 5.81 2.64-.908 9.073-2.616 10.55.91 1.563 3.724-6.321 5.673-8.254 5.422 1.963.327 7.343.703 6.775 3.616-.608 3.124-7.412 4.04-8.877 3.424 1.542.559 4.63 1.664 4.366 3.066z"/><path fill="#0c8ff9" d="m248.263 256.741-64.451-5.1s-6.003-49.484-9.703-65.66c-1.602-7.005-8.125-25.996-15.246-24.368-10.012 2.288-16.881 29.153-16.98 37.119-.327 26.792.746 83.71 16.561 90.992 19.167 8.826 67.064.768 91.352-4.047l-1.533-28.936z"/><path fill="#82cafa" d="m86.482 326.133-.457 5.256-1.663 18.976-2.466 28.173-1.829 20.883H31.351l-1.829-20.883-2.474-28.173-1.663-18.976-.457-5.256z"/><path fill="#47adf7" d="m86.482 326.133-.457 5.256h-60.64l-.457-5.256z"/><path fill="#0e1738" d="M20.115 317.99h71.186v10.507H20.115z"/><path fill="#0e1738" d="M89.711 328.497H21.705a1.59 1.59 0 0 1-1.59-1.59v-7.327c0-.878.712-1.59 1.59-1.59H89.71c.878 0 1.59.712 1.59 1.59v7.327a1.59 1.59 0 0 1-1.59 1.59zM84.953 317.99h-58.49v-.72c0-5.405 4.382-9.788 9.787-9.788h38.916c5.405 0 9.787 4.383 9.787 9.788v.72z"/><path fill="#fe6081" d="m84.362 350.365-2.466 28.173H29.522l-2.474-28.173z"/><circle cx="55.708" cy="364.451" r="8.57" fill="#fff"/><path fill="#b94768" d="M199.331 132.163a6.052 6.052 0 0 1-3.549-1.152 6.058 6.058 0 0 1-2.491-4.142l-1.082-7.955a1 1 0 1 1 1.982-.27l1.081 7.955a4.078 4.078 0 0 0 1.677 2.788 4.075 4.075 0 0 0 3.176.7l13.383-2.567a1 1 0 1 1 .377 1.964l-13.383 2.567a6.218 6.218 0 0 1-1.171.112z"/><circle cx="185.985" cy="111.564" r="12.848" fill="#fe6081"/><path fill="#b94768" d="M188.068 124.412c7.096 0 12.849-5.752 12.849-12.848s-5.753-12.849-12.849-12.849h-2.083c7.096 0 12.848 5.753 12.848 12.849s-5.752 12.848-12.848 12.848"/><circle cx="185.985" cy="111.564" r="7.215" fill="#b94768"/><path fill="#b94768" d="M184.485 111.566c-.003-1.827.12-44.904 16.433-59.784 4.155-3.789 9.035-5.45 14.481-4.94l-.279 2.987c-4.643-.433-8.626.929-12.179 4.168-15.336 13.987-15.457 57.13-15.456 57.564l-3 .005z"/><circle cx="213.384" cy="128.21" r="3" fill="#b94768"/><path fill="#fcc283" d="M311.17 95.86s-3.23 4.973-12.774 5.102c0 0 .433-.626.906-1.756 2.038-4.874.954-10.46-2.45-14.5-3.668-4.353-8.995-13.511-.474-23.565 11.836-14 45.747-10.69 56.243-4.408s9.156 47.733-41.452 39.126z"/><path fill="#fe8b70" d="M307.52 80.543v-.921l1.178-1.144c2.832-2.695 4.111-4.128 4.129-5.8 0-1.126-.546-2.166-2.201-2.166-1.006 0-1.842.512-2.355.938l-.477-1.058a4.866 4.866 0 0 1 3.139-1.125c2.388 0 3.395 1.637 3.395 3.224 0 2.047-1.484 3.702-3.822 5.953l-.886.82v.033h4.98v1.246h-7.08zM320.915 80.543v-3.02h-5.152v-.99l4.947-7.079h1.621v6.892h1.552v1.177h-1.552v3.02h-1.416zm0-4.197v-3.702c0-.58.017-1.16.051-1.74h-.051a32.104 32.104 0 0 1-.921 1.638l-2.712 3.77v.034h3.633zM324.244 81.225l4.76-12.368h1.159l-4.776 12.368h-1.143zM338.08 69.454v.99l-4.828 10.099H331.7l4.811-9.81V70.7h-5.425v-1.245h6.994z"/><path fill="#82cafa" d="M109.424 77.358v16.74h-66.75c-9.24 0-16.74-7.49-16.74-16.74 0-4.632 1.872-8.808 4.907-11.844a16.688 16.688 0 0 1 11.833-4.897h50.01c9.24 0 16.74 7.49 16.74 16.74z"/><path fill="#fff" d="M48.98 71.617v4.634h5.357v-4.634h1.446v11.076h-1.446V77.5h-5.358v5.193h-1.43V71.617h1.43zM64.004 77.5H59.7v3.993h4.798v1.2H58.27V71.617h5.982v1.2h-4.552v3.5h4.305V77.5zM66.357 71.617h1.43v9.876h4.733v1.2h-6.163V71.617zM74.117 71.748c.69-.115 1.594-.213 2.744-.213 1.414 0 2.449.328 3.106.92.609.526.97 1.331.97 2.317 0 1.002-.296 1.791-.855 2.366-.755.806-1.988 1.217-3.385 1.217-.427 0-.822-.017-1.15-.099v4.437h-1.43V71.748zm1.43 5.341c.312.082.706.115 1.183.115 1.725 0 2.777-.838 2.777-2.366 0-1.463-1.035-2.17-2.613-2.17-.624 0-1.1.05-1.347.116v4.305z"/></svg>