<svg version="1.1" id="Calque_1" xmlns="http://www.w3.org/2000/svg" xmlns:xlink="http://www.w3.org/1999/xlink" x="0px" y="0px" width="1rem" height="1rem" viewBox="0 0 512 512" enable-background="new 0 0 512 512" xml:space="preserve">
<g>
	<g>
		<path fill="#ef4444" d="M404.71,422.63c20.33-47.92,18.34-137.649,18.21-142.45c-0.03-12.05-9.84-21.83-21.9-21.83
			c-4.38,0-8.46,1.301-11.89,3.53v-0.54c0-10.27-7.11-18.91-16.67-21.26V80.18c0-18.63-15.16-33.79-33.79-33.79h-215.9
			c-18.63,0-33.79,15.16-33.79,33.79v308.04c0,18.63,15.16,33.78,33.79,33.78h157.2c0.05,0.14,0.09,0.28,0.13,0.42
			c-11.319,0.66-20.34,10.09-20.34,21.58c0,11.92,9.7,21.61,21.62,21.61h120.021c11.92,0,21.619-9.69,21.619-21.61
			C423.02,433.2,415.06,424.23,404.71,422.63z M98.98,80.18c0-13.11,10.67-23.79,23.79-23.79h215.9c13.12,0,23.79,10.67,23.79,23.79
			v13.13H98.98V80.18z M98.98,103.31h263.48v136.66c-2.66,0.6-5.14,1.67-7.34,3.14c-1.46-10.67-10.63-18.91-21.69-18.91
			c-4.41,0-8.52,1.31-11.96,3.56v-36.74c0.03-0.21,0.061-0.41,0.061-0.62c0-12.07-9.82-21.9-21.9-21.9
			c-10.66,0-19.56,7.67-21.5,17.78c-0.25,0.6-0.39,1.25-0.39,1.95v99.79c-3.13-5.71-7.13-11.029-12.19-14.64
			c-5.77-4.11-12.21-5.6-19.12-4.42c-8.94,1.521-15.31,6.36-18.45,13.99c-8.72,21.25,9.83,60.39,24.7,82.14H98.98V103.31z
			 M122.77,412c-13.12,0-23.79-10.67-23.79-23.78v-13.13h160.42c7.699,12.53,13.449,26.42,17.22,36.91H122.77z M266.31,367.309
			c0-0.01,0-0.01-0.01-0.02c-1.16-1.8-2.35-3.57-3.59-5.3c-15.04-20.94-32.25-58.73-25.48-75.24c1.84-4.46,5.29-6.98,10.88-7.93
			c4.25-0.73,8.05,0.16,11.621,2.699c13.319,9.48,18.029,37.08,18.069,37.351c0.431,2.57,2.73,4.399,5.351,4.17
			c2.59-0.21,4.59-2.38,4.59-4.98V190.38c0.01-6.55,5.34-11.88,11.89-11.88c6.41,0,11.63,5.09,11.88,11.43
			c-0.01,0.13-0.04,0.26-0.04,0.39v94.65c0,2.771,2.24,5,5,5c2.761,0,5-2.229,5-5v-38.24c0.03-0.21,0.061-0.42,0.061-0.63
			c0-6.57,5.34-11.9,11.899-11.9c6.561,0,11.9,5.33,11.9,11.9v55.23c0,2.76,2.24,5,5,5s5-2.24,5-5v-39.99
			c0-6.56,5.34-11.9,11.9-11.9c6.56,0,11.899,5.34,11.899,11.9v54.71c0,2.76,2.24,5,5,5s5-2.24,5-5v-35.79c0-0.01,0-0.01,0-0.01
			c0-6.56,5.33-11.9,11.89-11.9c6.57,0,11.9,5.341,11.9,11.9c0,0.04,0.01,0.08,0.01,0.13c0.021,0.98,2.28,97.28-19.06,142H290.55
			C287.83,413.05,279.83,388.269,266.31,367.309z M401.401,455.61H281.38c-6.41,0-11.62-5.21-11.62-11.61
			c0-6.41,5.21-11.62,11.62-11.62h120.021c6.409,0,11.619,5.21,11.619,11.62C413.02,450.4,407.81,455.61,401.401,455.61z" id="id_109"></path>
		<path fill="#FFFFFF" d="M413.02,444c0,6.4-5.21,11.61-11.619,11.61H281.38c-6.41,0-11.62-5.21-11.62-11.61
			c0-6.41,5.21-11.62,11.62-11.62h120.021C407.81,432.38,413.02,437.59,413.02,444z" id="id_110"></path>
		<g>
			<g>
				<path fill="#f87171" d="M338.67,56.39h-215.9c-13.12,0-23.79,10.68-23.79,23.79v13.13h263.48V80.18
					C362.46,67.06,351.79,56.39,338.67,56.39z M259.13,81.43h-56.82c-2.76,0-5-2.23-5-5c0-2.76,2.24-5,5-5h56.82c2.76,0,5,2.24,5,5
					C264.13,79.2,261.89,81.43,259.13,81.43z" id="id_111"></path>
			</g>
		</g>
		<g>
			<path fill="#f87171" d="M393.87,422.38H290.55c-2.72-9.33-10.72-34.11-24.24-55.07c0-0.01,0-0.01-0.01-0.02
				c-1.16-1.8-2.35-3.57-3.59-5.3c-15.04-20.94-32.25-58.73-25.48-75.24c1.84-4.46,5.29-6.98,10.88-7.93
				c4.25-0.73,8.05,0.16,11.621,2.699c13.319,9.48,18.029,37.08,18.069,37.351c0.431,2.57,2.73,4.399,5.351,4.17
				c2.59-0.21,4.59-2.38,4.59-4.98V190.38c0.01-6.55,5.34-11.88,11.89-11.88c6.41,0,11.63,5.09,11.88,11.43
				c-0.01,0.13-0.04,0.26-0.04,0.39v94.65c0,2.771,2.24,5,5,5c2.761,0,5-2.229,5-5v-38.24c0.03-0.21,0.061-0.42,0.061-0.63
				c0-6.57,5.34-11.9,11.899-11.9c6.561,0,11.9,5.33,11.9,11.9v55.23c0,2.76,2.24,5,5,5s5-2.24,5-5v-39.99
				c0-6.56,5.34-11.9,11.9-11.9c6.56,0,11.899,5.34,11.899,11.9v54.71c0,2.76,2.24,5,5,5s5-2.24,5-5v-35.79c0-0.01,0-0.01,0-0.01
				c0-6.56,5.33-11.9,11.89-11.9c6.57,0,11.9,5.341,11.9,11.9c0,0.04,0.01,0.08,0.01,0.13
				C412.95,281.36,415.21,377.66,393.87,422.38z" id="id_112"></path>
		</g>
		<g>
			<g>
				<path fill="#f87171" d="M259.401,375.09H98.98v13.13c0,13.11,10.67,23.78,23.79,23.78h153.85
					C272.85,401.51,267.1,387.62,259.401,375.09z M259.13,399.269h-56.82c-2.76,0-5-2.229-5-5c0-2.76,2.24-5,5-5h56.82
					c2.76,0,5,2.24,5,5C264.13,397.04,261.89,399.269,259.13,399.269z" id="id_113"></path>
			</g>
		</g>
		<path fill="#FFFFFF" d="M362.46,103.31v136.66c-2.66,0.6-5.14,1.67-7.34,3.14c-1.46-10.67-10.63-18.91-21.69-18.91
			c-4.41,0-8.52,1.31-11.96,3.56v-36.74c0.03-0.21,0.061-0.41,0.061-0.62c0-12.07-9.82-21.9-21.9-21.9
			c-10.66,0-19.56,7.67-21.5,17.78c-0.25,0.6-0.39,1.25-0.39,1.95v99.79c-3.13-5.71-7.13-11.029-12.19-14.64
			c-5.77-4.11-12.21-5.6-19.12-4.42c-8.94,1.521-15.31,6.36-18.45,13.99c-8.72,21.25,9.83,60.39,24.7,82.14H98.98V103.31H362.46z" id="id_114"></path>
		<path fill="#C16957" d="M264.13,76.43c0,2.77-2.24,5-5,5h-56.82c-2.76,0-5-2.23-5-5c0-2.76,2.24-5,5-5h56.82
			C261.89,71.43,264.13,73.67,264.13,76.43z" id="id_115"></path>
		<path fill="#C16957" d="M264.13,394.269c0,2.771-2.24,5-5,5h-56.82c-2.76,0-5-2.229-5-5c0-2.76,2.24-5,5-5h56.82
			C261.89,389.269,264.13,391.51,264.13,394.269z" id="id_116"></path>
	</g>
</g>
</svg>