<svg xmlns="http://www.w3.org/2000/svg" xml:space="preserve" version="1.1" style="shape-rendering:geometricPrecision; text-rendering:geometricPrecision; image-rendering:optimizeQuality; fill-rule:evenodd; clip-rule:evenodd" viewBox="0 0 1706.66 1706.66" xmlns:xlink="http://www.w3.org/1999/xlink" xmlns:xodm="http://www.corel.com/coreldraw/odm/2003">
 <defs>
  <style type="text/css">
   
    .fil3 {fill:url(#id0)}
    .fil1 {fill:url(#id1)}
    .fil2 {fill:url(#id2)}
    .fil0 {fill:url(#id3)}
    .fil4 {fill:url(#id4)}
   
  </style>
  <linearGradient id="id0" gradientUnits="userSpaceOnUse" x1="0.02" y1="1016.35" x2="874.9" y2="1016.35">
   <stop offset="0" style="stop-opacity: 1; stop-color: rgb(247, 99, 19);" id="id_106"></stop>
   <stop offset="1" style="stop-opacity: 1; stop-color: rgb(245, 100, 22);" id="id_107"></stop>
  </linearGradient>
  <linearGradient id="id1" gradientUnits="userSpaceOnUse" x1="650.6" y1="623.45" x2="1650" y2="623.45">
   <stop offset="0" style="stop-opacity: 1; stop-color: rgb(22, 148, 245);" id="id_108"></stop>
   <stop offset="1" style="stop-opacity: 1; stop-color: rgb(8, 143, 247);" id="id_109"></stop>
  </linearGradient>
  <linearGradient id="id2" gradientUnits="userSpaceOnUse" xlink:href="#id0" x1="593.93" y1="309.11" x2="1706.67" y2="309.11">
  </linearGradient>
  <linearGradient id="id3" gradientUnits="userSpaceOnUse" xlink:href="#id0" x1="817.16" y1="997.27" x2="1483.51" y2="997.27">
  </linearGradient>
  <linearGradient id="id4" gradientUnits="userSpaceOnUse" xlink:href="#id1" x1="141.15" y1="301.3" x2="476.96" y2="301.3">
  </linearGradient>
 </defs>
 <g id="Layer_x0020_1">
  <metadata id="CorelCorpID_0Corel-Layer"></metadata>
  <path class="fil0" d="M1113.95 1203.54l0 -265.73c0,-47.83 72.64,-47.82 72.64,0l0 265.7 286.64 308.51c32.97,35.48 -21.14,83.99 -53.22,49.45l-269.72 -290.32 -269.72 290.32c-32.42,34.91 -85.9,-14.26 -53.21,-49.45l286.6 -308.48zm332.94 -709.81l-406.65 0c-47.83,0 -47.82,-72.64 0,-72.64l406.65 0c47.83,0 47.83,72.64 0,72.64zm0 161.14l-406.65 0c-47.83,0 -47.82,-72.64 0,-72.64l406.65 0c47.83,0 47.83,72.64 0,72.64zm0 161.11l-406.65 0c-47.83,0 -47.82,-72.64 0,-72.64l406.65 0c47.83,0 47.83,72.64 0,72.64z" id="id_101"></path>
  <path class="fil1" d="M697.02 274.79l905.09 0c23.1,-7.41 47.88,8.28 47.88,34.31l0 628.71c0,20.05 -16.27,36.32 -36.32,36.32l-926.75 0c-20.04,0 -36.32,-16.28 -36.32,-36.32l0 -228.19 72.64 0 0 191.87 854.11 -0 0 -554.06 -854.12 0 0 120.16 -72.64 0 0 -145.13c0,-29.64 18.7,-57.51 46.43,-47.67z" id="id_102"></path>
  <path class="fil2" d="M1670.79 345.43l-1041.01 0c-47.83,0 -47.83,-72.64 0,-72.64l1041.01 0c47.83,0 47.83,72.64 0,72.64z" id="id_103"></path>
  <path class="fil3" d="M114.13 1165.73l-94.31 0c-10.93,0 -19.81,-8.89 -19.81,-19.81l0 -458.23c0,-103.15 83.93,-187.08 187.07,-187.08l600.95 0c115.83,0 115.82,175.99 0,175.99l-284.06 -0 0 768.74c0,47.81 -38.9,86.73 -86.72,86.73l-88.38 0 0 -386.15c0,-26.07 -39.63,-26.08 -39.63,0l0 386.15 -88.39 0c-47.83,0 -86.72,-38.91 -86.72,-86.73l0 -279.61z" id="id_104"></path>
  <path class="fil4" d="M309.05 469.21c-92.58,0 -167.91,-75.32 -167.91,-167.91 0,-92.58 75.32,-167.91 167.91,-167.91 92.57,0 167.91,75.32 167.91,167.91 0,92.59 -75.33,167.91 -167.91,167.91z" id="id_105"></path>
 </g>
</svg>