<svg xmlns="http://www.w3.org/2000/svg" fill-rule="evenodd" stroke-linejoin="round" stroke-miterlimit="2" clip-rule="evenodd" viewBox="0 0 32 32"><path fill="url(#a)" d="M23.75 18.25a5.502 5.502 0 0 0-5.5 5.5c0 3.036 2.464 5.5 5.5 5.5h.005a.75.75 0 0 1-.005 1.5H4.5c-.729 0-1.429-.29-1.945-.805A2.755 2.755 0 0 1 1.75 28V4c0-.729.29-1.429.805-1.945A2.755 2.755 0 0 1 4.5 1.25h17.25c.729 0 1.429.29 1.945.805.515.516.805 1.216.805 1.945v13.5a.75.75 0 0 1-.711.749l-.039.001Z"/><circle cx="23.75" cy="23.75" r="7" fill="url(#b)"/><circle cx="23.75" cy="23.75" r="5.5" fill="url(#c)"/><path fill="url(#d)" fill-rule="nonzero" d="M21.679 26.027c-.149-.184-.223-.349-.223-.495 0-.146.123-.34.37-.581.143-.138.295-.207.456-.207.161 0 .385.144.672.431.08.097.195.191.344.28a.817.817 0 0 0 .413.133c.534 0 .801-.218.801-.654 0-.132-.073-.243-.22-.332a1.599 1.599 0 0 0-.546-.193 4.79 4.79 0 0 1-.706-.194 4.684 4.684 0 0 1-.706-.314 1.43 1.43 0 0 1-.547-.573c-.146-.261-.219-.575-.219-.943 0-.505.188-.945.563-1.321.376-.376.889-.564 1.537-.564.345 0 .659.044.943.133.284.089.481.18.59.272l.215.163c.178.167.267.307.267.422 0 .115-.069.273-.207.474-.195.287-.396.43-.602.43-.121 0-.27-.057-.448-.172a1.139 1.139 0 0 1-.099-.086 1.28 1.28 0 0 0-.134-.112.857.857 0 0 0-.46-.112.773.773 0 0 0-.465.133.43.43 0 0 0-.185.371c0 .157.073.285.219.383.147.097.329.163.547.198.218.034.456.087.715.159.258.072.496.159.714.263.218.103.4.282.547.538.146.255.219.569.219.942s-.074.702-.223.986c-.15.284-.345.504-.586.659a2.672 2.672 0 0 1-1.489.456 2.9 2.9 0 0 1-.767-.099 2.087 2.087 0 0 1-.585-.245c-.304-.184-.517-.362-.637-.534l-.078-.095Z"/><circle cx="5.5" cy="6.973" r=".955" fill="#fb5059"/><circle cx="5.5" cy="11.487" r=".955" fill="#fb5059"/><circle cx="5.5" cy="16" r=".955" fill="#fb5059"/><circle cx="5.5" cy="20.513" r=".955" fill="#fb5059"/><circle cx="5.5" cy="25.027" r=".955" fill="#fb5059"/><path fill="#1d90eb" d="M8.338 7.723H19a.75.75 0 0 0 0-1.5H8.338a.75.75 0 0 0 0 1.5zm0 4.514h8.89a.75.75 0 0 0 0-1.5h-8.89a.75.75 0 0 0 0 1.5zm0 4.513h7.052a.75.75 0 0 0 0-1.5H8.338a.75.75 0 0 0 0 1.5zm0 4.513h5.469a.75.75 0 0 0 0-1.5H8.338a.75.75 0 0 0 0 1.5zm0 4.514h5.469a.75.75 0 0 0 0-1.5H8.338a.75.75 0 0 0 0 1.5z"/><defs><linearGradient id="a" x2="1" gradientTransform="rotate(45 -13.68 29.59) scale(60.2649)" gradientUnits="userSpaceOnUse"><stop offset="0" stop-color="#d9defb"/><stop offset="1" stop-color="#4460ff"/></linearGradient><linearGradient id="b" x2="1" gradientTransform="rotate(-135 19.072 8.213) scale(32.1831)" gradientUnits="userSpaceOnUse"><stop offset="0" stop-color="#ffd54f"/><stop offset="1" stop-color="#d8a500"/></linearGradient><linearGradient id="c" x2="1" gradientTransform="rotate(-135 17.554 8.255) scale(20.0091)" gradientUnits="userSpaceOnUse"><stop offset="0" stop-color="#fb9f4e"/><stop offset="1" stop-color="#d46300"/></linearGradient><linearGradient id="d" x2="1" gradientTransform="rotate(90 .156 24.433) scale(12.9364)" gradientUnits="userSpaceOnUse"><stop offset="0" stop-color="#daeeff"/><stop offset="1" stop-color="#48abff"/></linearGradient></defs></svg>