<svg xmlns="http://www.w3.org/2000/svg" fill="none" viewBox="0 0 128 128"><path fill="#8D399A" d="M48 98L48 106C48 108.209 49.7909 110 52 110L58 110C60.2091 110 62 108.209 62 106L62 98L48 98Z"/><path fill="#8D399A" d="M45.1802 23.1727C45.604 19.0967 49.0393 16 53.1373 16H106.863C110.961 16 114.396 19.0967 114.82 23.1728L120 73V94C120 98.4183 116.418 102 112 102H48C43.5817 102 40 98.4183 40 94V73L45.1802 23.1727Z"/><path fill="#8D399A" d="M112 98L112 106C112 108.209 110.209 110 108 110L102 110C99.7909 110 98 108.209 98 106L98 98L112 98Z"/><path fill="#fff" d="M47 72L48.7346 47.715C48.8842 45.6218 50.6259 44 52.7245 44L106.276 44C108.374 44 110.116 45.6218 110.265 47.715L112 72 47 72zM47 85C47 87.7614 49.2386 90 52 90 54.7614 90 57 87.7614 57 85 57 82.2386 54.7614 80 52 80 49.2386 80 47 82.2386 47 85zM102 85C102 87.7614 104.239 90 107 90 109.761 90 112 87.7614 112 85 112 82.2386 109.761 80 107 80 104.239 80 102 82.2386 102 85z"/><path fill="#FFC75B" d="M45 94L45 58L31.4174 58C27.6678 58 24.4213 60.6043 23.6079 64.2646L17 94L45 94Z"/><path fill="#FFC75B" d="M43 94L43 58L64.5826 58C68.3322 58 71.5787 60.6043 72.3921 64.2646L79 94L43 94Z"/><path fill="#FD5883" d="M65 86H13.7041C11.614 86 9.87621 87.6092 9.71591 89.6932L8.33129 107.693C8.15258 110.016 9.98947 112 12.3195 112H65V86Z"/><path fill="#FD5883" d="M16 108L16 116C16 118.209 17.7909 120 20 120L26 120C28.2091 120 30 118.209 30 116L30 108L16 108Z"/><path fill="#fff" d="M61 86L61 62 31.2526 62C29.3578 62 27.7231 63.3293 27.3366 65.1842L23 86 61 86zM26 98C26 100.761 23.7614 103 21 103 18.2386 103 16 100.761 16 98 16 95.2386 18.2386 93 21 93 23.7614 93 26 95.2386 26 98z"/><path fill="#FD5883" d="M39 86H82.2959C84.386 86 86.1238 87.6092 86.2841 89.6932L87.6687 107.693C87.8474 110.016 86.0105 112 83.6805 112H39V86Z"/><path fill="#FD5883" d="M80 108L80 116C80 118.209 78.2091 120 76 120L70 120C67.7909 120 66 118.209 66 116L66 108L80 108Z"/><path fill="#fff" d="M43 86L43 62 64.7474 62C66.6422 62 68.2769 63.3293 68.6634 65.1842L73 86 43 86zM70 98C70 100.761 72.2386 103 75 103 77.7614 103 80 100.761 80 98 80 95.2386 77.7614 93 75 93 72.2386 93 70 95.2386 70 98z"/></svg>