<svg xmlns="http://www.w3.org/2000/svg" viewBox="0 0 52 52"><path fill="#0695fe" d="M40.718 9.056v29.06A1.886 1.886 0 0 1 38.831 40H3.886A1.886 1.886 0 0 1 2 38.116V9.056c0-1.042.844-1.886 1.886-1.886h34.946c1.041 0 1.886.844 1.886 1.886z"/><path fill="#e0e8f5" d="m25.665 18.206-3.943-2.967a.403.403 0 0 0-.477-.006l-4.2 3.003a.403.403 0 0 1-.639-.328V7.17h9.905v10.714c0 .333-.38.522-.646.322zM50 22.353v20.872c0 .89-.723 1.605-1.606 1.605H31.856a1.6 1.6 0 0 1-1.606-1.605V22.353c0-.883.715-1.606 1.606-1.606h16.538A1.61 1.61 0 0 1 50 22.353z"/><path fill="#cdd7e3" d="M35.65 28.569h-3.097a.837.837 0 0 1-.837-.837v-3.097c0-.462.375-.837.837-.837h3.097c.462 0 .837.375.837.837v3.097a.837.837 0 0 1-.837.837zM47.8 26.917h-9.393a.733.733 0 1 1 0-1.467h9.393a.733.733 0 0 1 0 1.467z"/><path fill="#0695fe" d="m36.798 24.56-1.966 2.57a.538.538 0 0 1-.387.205h-.036a.553.553 0 0 1-.375-.157l-1.088-1.088a.533.533 0 0 1 0-.75.533.533 0 0 1 .75 0l.665.665 1.602-2.092a.528.528 0 1 1 .835.647z"/><path fill="#cdd7e3" d="M35.65 35.22h-3.097a.837.837 0 0 1-.837-.838v-3.097c0-.462.375-.837.837-.837h3.097c.462 0 .837.375.837.837v3.097a.837.837 0 0 1-.837.837zM47.8 33.566h-9.393a.733.733 0 1 1 0-1.467h9.393a.733.733 0 0 1 0 1.467z"/><path fill="#0695fe" d="m36.798 31.21-1.966 2.57a.538.538 0 0 1-.387.205h-.036a.553.553 0 0 1-.375-.157l-1.088-1.088a.533.533 0 0 1 0-.75.533.533 0 0 1 .75 0l.665.665 1.602-2.092a.528.528 0 1 1 .835.647z"/><path fill="#cdd7e3" d="M35.65 41.87h-3.097a.837.837 0 0 1-.837-.838v-3.096c0-.463.375-.837.837-.837h3.097c.462 0 .837.374.837.837v3.096a.837.837 0 0 1-.837.837zM47.8 40.216h-9.393a.733.733 0 1 1 0-1.467h9.393a.733.733 0 0 1 0 1.467z"/><path fill="#0695fe" d="m36.798 37.86-1.966 2.57a.538.538 0 0 1-.387.206h-.036a.553.553 0 0 1-.375-.157l-1.088-1.089a.533.533 0 0 1 0-.75.533.533 0 0 1 .75 0l.665.666 1.602-2.093a.528.528 0 1 1 .835.647z"/><path fill="#fff" d="M12.492 35.441v.736a.346.346 0 0 1-.346.346H5.824a.35.35 0 0 1-.346-.346v-.736c0-.194.158-.346.346-.346h.754V32.34h-.322a.315.315 0 0 1-.28-.176.317.317 0 0 1 .03-.334l1.04-1.344c.116-.158.377-.158.499 0l1.033 1.344a.332.332 0 0 1 .036.334.317.317 0 0 1-.285.176h-.323v2.754h1.958V32.34h-.322a.302.302 0 0 1-.28-.176.317.317 0 0 1 .03-.334l1.034-1.344a.314.314 0 0 1 .255-.121.31.31 0 0 1 .25.121l1.033 1.344a.317.317 0 0 1 .03.334.302.302 0 0 1-.28.176h-.322v2.754h.754c.194 0 .346.152.346.346z"/></svg>