<svg xmlns="http://www.w3.org/2000/svg" viewBox="0 0 128 128">
<path fill="#3b82f6" d="M113 87.4s-28.6-9.7-29.4-9.8c-.1.4-.2.7-.3 1.1-1.4 5.2-2.7 10.4-4.3 15.5-1.9 6.1-4 12-6.1 18 0 .1 0 .1-.1.2-.2.7-.6 1.3-.9 2-.4-2.8-.8-6.4-1.3-9.9-.5-3.9-1-7.7-1.3-10.3 0-.3-.3-.5-.6-.5h-9.4c-.3 0-.5.2-.6.5-.3 2.5-.8 6.4-1.3 10.3-.5 3.5-.9 7.2-1.3 9.9-.3-.7-.7-1.3-.9-2 0-.1-.1-.1-.1-.2-2.1-6-4.2-12-6.1-18-1.6-5.1-2.9-10.3-4.3-15.5-.1-.4-.2-.7-.3-1.1-.8.1-29.4 9.8-29.4 9.8C2.5 91.6 3.3 99.9 3.3 99.9v16.5c1.1 10 8.9 9.9 8.9 9.9h103.6s7.8.2 8.9-9.9V99.9s.8-8.3-11.7-12.5z"/>
<path fill="#3b82f6" d="m72 84.3-1.2-2.4c-.3-.5-.8-.8-1.4-.8H58.7c-.6 0-1.1.3-1.4.8L56 84.3c-.2.4-.2.9 0 1.4l2.4 5.1c0 .1.1.2.3.2h10.6c.1 0 .2-.1.3-.2l2.4-5.1c.2-.5.2-1 0-1.4z"/>
<path fill="#1d75b9" d="M122.9 63.5c1.7-4.3-.5-9.1-4.8-10.8L98 45.6l.2-.9c1.6-6.7 1.1-13.8-1.3-20.3C90.1 6.3 69.8-2.8 51.8 4S24.6 31.1 31.5 49.2c6.8 18 27.1 27.1 45.1 20.3C82.7 67.2 88 63.2 92 58l.5-.7 18.8 10.6.6.3.2.1c4.3 1.6 9.2-.6 10.8-4.8zM91.4 41.6c-.9 4.9-3.1 9.5-6.3 13.2-3 3.4-6.8 6.1-11.1 7.8-14.3 5.4-30.3-1.8-35.7-16-5.4-14.3 1.8-30.3 16.1-35.7C68.7 5.5 84.7 12.7 90.1 27c1.8 4.6 2.2 9.7 1.3 14.6z"/>
</svg>