<svg xmlns="http://www.w3.org/2000/svg" enable-background="new 0 0 512 512" viewBox="0 0 512 512"><path fill="#fd4755" fill-rule="evenodd" d="M256.074,456.612c-42.282,0-84.094-13.351-118.977-39.01l1.304,16.149c0.217,2.748-1.835,5.158-4.582,5.379
		c-2.748,0.248-5.156-1.83-5.382-4.581l-2.217-27.48c-0.104-1.209,0.235-2.459,1.026-3.487c0.113-0.133,0.226-0.262,0.348-0.391l0,0
		l0,0c0.6-0.622,1.322-1.059,2.095-1.301l25.753-8.67c2.617-0.88,5.452,0.53,6.33,3.152c0.878,2.618-0.522,5.447-3.147,6.331
		l-17.076,5.75c52.498,39.408,122.003,49.158,183.578,25.198c20.067-7.798,38.474-18.799,54.724-32.7
		c2.095-1.789,5.26-1.538,7.051,0.561c1.8,2.102,1.548,5.251-0.556,7.05c-17.102,14.622-36.483,26.199-57.584,34.412
		C305.207,452.131,280.558,456.612,256.074,456.612z" clip-rule="evenodd"/><path fill="#4c69b1" fill-rule="evenodd" d="M354.975,119.04c-2.095,0-4.034-1.322-4.747-3.408c-0.878-2.608,0.53-5.452,3.147-6.33l17.076-5.739
		c-52.498-39.421-122.003-49.177-183.569-25.214c-20.059,7.799-38.474,18.798-54.733,32.701c-2.104,1.8-5.26,1.548-7.051-0.548
		c-1.791-2.104-1.548-5.26,0.556-7.051c17.111-14.633,36.5-26.205,57.593-34.422c64.201-24.98,136.584-15.146,191.656,25.371
		l-1.304-16.146c-0.217-2.756,1.835-5.165,4.582-5.382c2.756-0.243,5.173,1.826,5.391,4.582l2.208,27.501c0,0,0,0,0.009,0.009l0,0
		v0.008c0,0,0,0,0,0.009l0,0c0,0.009,0,0.009,0,0.009l0,0c0,0.008,0,0.017,0,0.017v0.009c0,0,0,0,0,0.017l0,0v0.009c0,0,0,0,0,0.008
		l0,0c0,0.009,0,0.009,0,0.009v0.009l0,0c0,0.017,0,0.017,0,0.017v0.009c0,0,0,0,0,0.008l0,0c0,0.009,0.009,0.009,0.009,0.009v0.009
		l0,0c0,0.008,0,0.008,0,0.017l0,0v0.009c0,0,0,0,0,0.008c0,0,0,0,0,0.018l0,0v0.008c0,0,0,0,0,0.009c0,0,0,0,0,0.009l0,0v0.008l0,0
		c0,0.035,0,0.061,0,0.096l0,0c0,0.026,0,0.061,0,0.087c0,0,0,0,0,0.009c0,0,0,0,0,0.009l0,0v0.017c0,0,0,0,0,0.009l0,0
		c0,0.009,0,0.009,0,0.009s0,0,0,0.008c0,0,0,0,0,0.009l0,0c-0.018,1.035-0.357,2.069-1.035,2.947
		c-0.113,0.139-0.235,0.287-0.365,0.417c-0.591,0.617-1.313,1.043-2.078,1.287l-25.754,8.668
		C356.045,118.962,355.497,119.04,354.975,119.04z" clip-rule="evenodd"/><path fill="#e6bd5c" fill-rule="evenodd" d="M322.881,282.662c-2.604,6.522-6.032,12.434-10.374,17.929c-3.936,4.981-10.81,6.288-16.29,3.117
			c-8.461-4.896-19.034,1.217-19.021,10.989c0.009,6.34-4.602,11.659-10.869,12.562c-6.879,0.991-13.78,0.99-20.659,0
			c-6.267-0.902-10.878-6.221-10.869-12.562c0.014-9.761-10.545-15.895-19.021-10.99c-5.479,3.171-12.354,1.864-16.29-3.117
			c-4.342-5.495-7.77-11.406-10.374-17.928c-2.349-5.883-0.039-12.512,5.456-15.671c8.447-4.857,8.446-17.122,0-21.978
			c-5.495-3.16-7.804-9.788-5.456-15.671c2.604-6.523,6.032-12.434,10.374-17.928c3.936-4.981,10.811-6.288,16.29-3.117
			c8.461,4.897,19.034-1.215,19.021-10.989c-0.008-6.341,4.602-11.66,10.869-12.562c6.881-0.991,13.777-0.991,20.658,0
			c6.266,0.902,10.878,6.221,10.869,12.562c-0.014,9.76,10.545,15.895,19.021,10.99c5.48-3.171,12.354-1.865,16.29,3.117
			c4.342,5.494,7.771,11.406,10.375,17.929c2.346,5.879,0.044,12.508-5.456,15.67c-8.447,4.856-8.446,17.122,0,21.978
			C322.92,270.151,325.229,276.779,322.881,282.662L322.881,282.662z M269.278,269.283c3.408-3.409,5.517-8.105,5.517-13.28h-0.017
			c0-16.681-20.26-25.08-32.06-13.28c-11.799,11.799-3.401,32.06,13.28,32.06C261.184,274.783,265.88,272.681,269.278,269.283z" clip-rule="evenodd"/><path fill="#ffd266" fill-rule="evenodd" d="M307.378,304.479c-3.528,1.456-7.633,1.271-11.161-0.771c-4.919-2.846-10.551-1.971-14.402,1.18
			c-4.459,1.861-7.831,6.212-7.823,11.732c0.005,3.929-1.763,7.465-4.601,9.802c-0.962,0.398-1.989,0.683-3.064,0.837
			c-6.879,0.991-13.78,0.99-20.659,0c-6.267-0.902-10.878-6.221-10.869-12.562c0.014-9.761-10.545-15.895-19.021-10.99
			c-5.479,3.171-12.354,1.864-16.29-3.117c-4.342-5.495-7.77-11.406-10.374-17.928c-2.349-5.883-0.039-12.512,5.456-15.671
			c8.447-4.857,8.446-17.122,0-21.978c-5.495-3.16-7.804-9.788-5.456-15.671c2.604-6.523,6.032-12.434,10.374-17.928
			c0.582-0.736,1.228-1.392,1.924-1.965c3.528-1.456,7.634-1.271,11.161,0.771c4.919,2.847,10.551,1.973,14.403-1.179
			c4.459-1.859,7.83-6.212,7.822-11.733c-0.005-3.929,1.764-7.466,4.601-9.802c0.962-0.397,1.989-0.682,3.064-0.837
			c6.881-0.991,13.777-0.991,20.658,0c6.267,0.902,10.878,6.222,10.869,12.562c-0.014,9.76,10.545,15.895,19.02,10.99
			c5.48-3.171,12.354-1.865,16.29,3.117c4.341,5.494,7.771,11.407,10.375,17.929c2.346,5.879,0.044,12.508-5.456,15.67
			c-8.447,4.856-8.446,17.122,0,21.979c5.495,3.16,7.804,9.787,5.456,15.67c-2.604,6.522-6.032,12.435-10.374,17.929
			C308.721,303.25,308.074,303.905,307.378,304.479L307.378,304.479z M244.893,240.843c-1.907,0.893-3.726,2.149-5.38,3.803
			c-11.799,11.799-3.401,32.06,13.28,32.06c4.2,0,8.078-1.379,11.207-3.708c1.971-0.93,3.755-2.192,5.278-3.715
			c3.408-3.409,5.517-8.105,5.517-13.28h-0.017C274.778,240.307,256.842,231.947,244.893,240.843z" clip-rule="evenodd"/><path fill="#445f9f" fill-rule="evenodd" d="M93.519,383.493c-0.607,0.85-1.301,1.657-2.081,2.411C87.014,390.284,81.029,393,74.35,393
			s-12.664-2.715-17.088-7.095c-4.337-4.38-7.112-10.426-7.112-17.079v-75.636c-6.159-1.422-11.623-4.684-15.787-9.168
			c-5.118-5.543-8.24-12.95-8.24-21.052v-57.603c0-8.535,3.47-16.29,9.108-21.91c5.551-5.621,13.358-9.107,21.858-9.107h72.861
			c8.587,0,16.307,3.487,21.945,9.107c5.638,5.621,9.108,13.375,9.108,21.91v57.603c0,8.101-3.209,15.509-8.327,21.052
			c-4.163,4.484-9.628,7.746-15.787,9.168v75.636c0,6.653-2.689,12.699-7.026,17.079c-4.424,4.38-10.496,7.095-17.088,7.095
			c-6.679,0-12.75-2.715-17.088-7.095C94.907,385.15,94.214,384.343,93.519,383.493z" clip-rule="evenodd"/><path fill="#4c69b1" fill-rule="evenodd" d="M88.575,388.368C84.585,391.282,79.641,393,74.35,393c-6.679,0-12.664-2.715-17.088-7.095
			c-4.337-4.302-7.026-10.227-7.112-16.749v-0.026v-0.26V218.35c0-2.758-2.169-4.987-4.944-4.987c-2.776,0-5.031,2.229-5.031,4.987
			v70.571l-0.087-0.069l-0.086-0.061l-0.087-0.069l-0.087-0.043v-0.026l-0.087-0.061l-0.174-0.069v-0.008l-0.087-0.061l-0.087-0.069
			l-0.087-0.07l-0.087-0.069l-0.087-0.061l0,0l-0.087-0.078l-0.087-0.069l-0.174-0.069l-0.087-0.069v-0.052l-0.087-0.017
			l-0.087-0.07v-0.017l-0.174-0.113v-0.017l-0.087-0.07l-0.087-0.043v-0.026l-0.086-0.078l-0.087-0.069v-0.009l-0.087-0.069
			l-0.087-0.07l-0.086-0.026L37.66,287.1l-0.087-0.078v-0.061l-0.087-0.008l-0.087-0.078l-0.087-0.078l-0.087-0.061v-0.017
			l-0.086-0.069l-0.087-0.078l-0.087-0.078l-0.087-0.078l0,0v-0.017l-0.173-0.139l-0.087-0.035l-0.087-0.121l-0.087-0.069v-0.017
			l-0.087-0.078l-0.087-0.078v-0.017l-0.087-0.061l-0.174-0.122v-0.017v-0.026l-0.173-0.156l0,0v-0.009l-0.087-0.078l-0.087-0.078
			l-0.087-0.043v-0.043l-0.086-0.078l-0.087-0.078v-0.008l0,0l-0.173-0.165v-0.026l-0.261-0.208v-0.018l-0.174-0.173v-0.017l0,0
			l-0.174-0.156v-0.044l-0.086-0.043l-0.174-0.173c-5.118-5.543-8.24-12.95-8.24-21.052v-57.603c0-8.535,3.47-16.29,9.108-21.91
			v-0.008v-0.009v-0.008v-0.026v-0.009l0.173-0.139v-0.009v-0.009v-0.008v-0.009v-0.009l0.087-0.008v-0.008l0,0v-0.009v-0.009
			v-0.009v-0.017v-0.009v-0.009l0.086-0.008v-0.009v-0.009V183.1v-0.009v-0.026v-0.009l0.087-0.008v-0.009v-0.009v-0.017v-0.009
			v-0.008v-0.009v-0.009v-0.008v-0.009l0.087-0.008v-0.008v-0.009l0,0v-0.009v-0.009v-0.008V182.9v-0.009v-0.017h0.087v-0.017l0,0
			c4.337-2.307,9.281-3.617,14.485-3.617h72.861c8.501,0,16.307,3.487,21.945,9.108c5.551,5.621,9.108,13.366,9.108,21.902v57.603
			c0,8.102-3.209,15.518-8.327,21.061c-0.434,0.494-0.954,0.971-1.388,1.44l-0.173,0.061v0.009l-0.087,0.043l-0.087,0.061
			c-0.173,0.078-0.347,0.156-0.52,0.225l-0.087,0.052l-0.173,0.113l-0.173,0.052v0.009l-0.087,0.052l-0.087,0.052l-0.174,0.052
			l-0.087,0.052l-0.087,0.052l-0.087,0.052l-0.174,0.043v0.009l-0.087,0.052l-0.173,0.043l-0.087,0.052l0,0l-0.087,0.052
			l-0.173,0.052l-0.087,0.043l-0.087,0.035v0.017l-0.173,0.043l-0.087,0.044v0.008l-0.087,0.044l-0.174,0.043l-0.087,0.052l0,0
			l-0.087,0.044l-0.087,0.026l-0.087,0.017l-0.087,0.043l-0.087,0.044l0,0l-0.173,0.043l-0.087,0.043l-0.087,0.018l-0.087,0.026
			l-0.087,0.043l-0.087,0.017v0.018l-0.174,0.043l-0.087,0.035v0.009v0.009l-0.26,0.061v0.009v0.009l-0.086,0.026l-0.174,0.044
			v0.026l-0.087,0.009l-0.173,0.069h-0.087v0.009l-0.26,0.069l0,0v0.009l-0.087,0.026l-0.087,0.035l-0.087,0.017v0.009l-0.26,0.069
			l-0.087,0.009l-0.174,0.061l-0.087,0.008l0,0v0.009c-0.173,0.044-0.347,0.087-0.52,0.13l0,0l-0.087,0.018l-0.26,0.061V218.35
			c0-2.758-2.169-4.987-4.944-4.987c-2.775,0-5.031,2.229-5.031,4.987v167.337c-1.041,1.787-2.255,3.444-3.643,4.91
			c-3.209,1.544-6.765,2.403-10.495,2.403c-5.291,0-10.235-1.718-14.225-4.632v-86.297c0-2.75-2.255-4.987-5.031-4.987
			c-2.689,0-4.944,2.238-4.944,4.987V388.368z" clip-rule="evenodd"/><path fill="#ddc6b9" fill-rule="evenodd" d="M93.519,118.999c9.021,0,17.175,3.652,23.159,9.567c5.898,5.907,9.541,14.078,9.541,23.099
			c0,9.012-3.643,17.183-9.541,23.09c-5.985,5.916-14.138,9.567-23.159,9.567s-17.174-3.652-23.072-9.567
			c-5.898-5.907-9.541-14.078-9.541-23.09c0-9.021,3.643-17.192,9.541-23.099C76.345,122.651,84.498,118.999,93.519,118.999z" clip-rule="evenodd"/><path fill="#f6dccd" fill-rule="evenodd" d="M86.927,123.189c9.021,0,17.261,3.652,23.159,9.567c5.898,5.907,9.541,14.078,9.541,23.09
			c0,9.021-3.643,17.192-9.541,23.098c-0.781,0.772-1.561,1.501-2.429,2.186c-4.25,2.047-9.021,3.192-14.139,3.192
			c-9.021,0-17.174-3.652-23.072-9.567c-5.898-5.907-9.541-14.078-9.541-23.09c0-9.021,3.643-17.192,9.541-23.099
			c0.78-0.772,1.561-1.5,2.428-2.186C77.126,124.334,81.896,123.189,86.927,123.189z" clip-rule="evenodd"/><path fill="#e4404d" fill-rule="evenodd" d="M418.481,383.493c-0.694,0.85-1.388,1.657-2.169,2.411c-4.337,4.38-10.408,7.095-17.087,7.095
			c-6.592,0-12.664-2.715-17.001-7.095c-4.423-4.38-7.112-10.426-7.112-17.079v-75.636c-6.159-1.422-11.623-4.684-15.787-9.168
			c-5.117-5.543-8.327-12.95-8.327-21.052v-57.603c0-8.535,3.47-16.29,9.108-21.91c5.638-5.621,13.358-9.107,21.945-9.107h72.861
			c8.501,0,16.307,3.487,21.858,9.107c5.638,5.621,9.108,13.375,9.108,21.91v57.603c0,8.101-3.123,15.509-8.24,21.052
			c-4.163,4.484-9.628,7.746-15.786,9.168v75.636c0,6.653-2.776,12.699-7.113,17.079c-4.424,4.38-10.409,7.095-17.088,7.095
			c-6.679,0-12.664-2.715-17.087-7.095C419.782,385.15,419.088,384.343,418.481,383.493z" clip-rule="evenodd"/><path fill="#fd4755" fill-rule="evenodd" d="M413.45,388.368c-3.99,2.914-8.847,4.632-14.225,4.632c-6.592,0-12.664-2.715-17.001-7.095
			c-4.337-4.302-7.026-10.227-7.112-16.749V218.35c0-2.758-2.255-4.987-5.031-4.987c-2.776,0-4.944,2.229-4.944,4.987v70.571
			l-0.087-0.069l-0.173-0.061l-0.087-0.069v-0.043l-0.087-0.026l-0.087-0.061l-0.087-0.069v-0.008l-0.087-0.061l-0.086-0.069
			l-0.174-0.07l-0.087-0.069l-0.086-0.061l0,0l-0.087-0.078l-0.087-0.069l-0.086-0.069l-0.087-0.069l-0.087-0.052v-0.017
			l-0.087-0.07l-0.086-0.017l-0.087-0.113l-0.087-0.017l-0.087-0.07v-0.043l-0.087-0.026l-0.087-0.078l-0.087-0.069v-0.009
			l-0.086-0.069l-0.087-0.07l-0.087-0.026V287.1l-0.087-0.078l-0.086-0.061v-0.008l-0.087-0.078l-0.087-0.078l-0.087-0.061v-0.017
			l-0.087-0.069l-0.087-0.078l-0.173-0.078l-0.087-0.078l0,0v-0.017l-0.174-0.139v-0.035l-0.173-0.121l-0.087-0.069v-0.017
			l-0.087-0.078l-0.086-0.078v-0.017l-0.087-0.061l-0.087-0.122v-0.017l-0.086-0.026l-0.173-0.156l0,0v-0.009l-0.087-0.078
			l-0.086-0.078v-0.043l-0.087-0.043l-0.087-0.078l-0.087-0.078v-0.008l0,0l-0.173-0.165v-0.026l-0.173-0.208v-0.018l-0.173-0.173
			l-0.087-0.017l0,0l-0.087-0.156l-0.087-0.044v-0.043l-0.174-0.173c-5.117-5.543-8.327-12.95-8.327-21.052v-57.603
			c0-8.535,3.47-16.29,9.108-21.91v-0.008v-0.009l0.087-0.008v-0.026v-0.009l0.087-0.139l0.087-0.009v-0.009v-0.008v-0.009v-0.009
			v-0.008v-0.008l0,0v-0.009v-0.009l0.087-0.009v-0.017v-0.009v-0.009v-0.008v-0.009v-0.009V183.1v-0.009l0.087-0.026v-0.009v-0.008
			v-0.009v-0.009v-0.017v-0.009v-0.008l0.086-0.009v-0.009v-0.008v-0.009v-0.008v-0.008v-0.009l0,0v-0.009v-0.009l0.087-0.008V182.9
			v-0.009v-0.017l0,0v-0.017l0,0c4.337-2.307,9.281-3.617,14.485-3.617h72.948c8.5,0,16.22,3.487,21.858,9.108
			c5.638,5.621,9.108,13.366,9.108,21.902v57.603c0,8.102-3.123,15.518-8.327,21.061c-0.434,0.494-0.868,0.971-1.388,1.44
			l-0.087,0.061v0.009l-0.173,0.043l-0.087,0.061c-0.173,0.078-0.26,0.156-0.434,0.225l-0.086,0.052l-0.26,0.113l-0.086,0.052v0.009
			l-0.174,0.052l-0.086,0.052l-0.087,0.052l-0.174,0.052l-0.086,0.052l-0.087,0.052l-0.087,0.043v0.009l-0.173,0.052l-0.087,0.043
			l-0.087,0.052l0,0l-0.173,0.052l-0.087,0.052l-0.087,0.043l-0.173,0.035v0.017l-0.087,0.043l-0.173,0.044v0.008l-0.087,0.044
			l-0.087,0.043l-0.173,0.052l0,0l-0.087,0.044l-0.087,0.026v0.017l-0.173,0.043l-0.087,0.044l0,0l-0.087,0.043l-0.173,0.043v0.018
			l-0.087,0.026l-0.086,0.043l-0.087,0.017l-0.087,0.018l-0.087,0.043l-0.173,0.035v0.009v0.009l-0.174,0.061v0.009l-0.087,0.009
			l-0.087,0.026l-0.087,0.044l-0.087,0.026l-0.087,0.009l-0.174,0.069l0,0v0.009l-0.26,0.069l0,0v0.009l-0.173,0.026l-0.087,0.035
			l-0.087,0.017v0.009l-0.26,0.069v0.009l-0.26,0.061v0.008l0,0l-0.087,0.009c-0.173,0.044-0.347,0.087-0.52,0.13l0,0v0.018
			l-0.26,0.061V218.35c0-2.758-2.255-4.987-5.031-4.987c-2.775,0-4.944,2.229-4.944,4.987v167.337
			c-1.041,1.787-2.255,3.444-3.729,4.91c-3.209,1.544-6.766,2.403-10.496,2.403c-5.291,0-10.235-1.718-14.225-4.632v-86.297
			c0-2.75-2.169-4.987-4.944-4.987c-2.776,0-5.031,2.238-5.031,4.987V388.368z" clip-rule="evenodd"/><path fill="#ddc6b9" fill-rule="evenodd" d="M418.481,118.999c9.021,0,17.174,3.652,23.073,9.567c5.898,5.907,9.541,14.078,9.541,23.099
			c0,9.012-3.643,17.183-9.541,23.09c-5.898,5.916-14.052,9.567-23.073,9.567c-9.021,0-17.175-3.652-23.073-9.567
			c-5.985-5.907-9.628-14.078-9.628-23.09c0-9.021,3.643-17.192,9.628-23.099C401.306,122.651,409.46,118.999,418.481,118.999z" clip-rule="evenodd"/><path fill="#f6dccd" fill-rule="evenodd" d="M411.888,123.189c9.021,0,17.174,3.652,23.073,9.567c5.898,5.907,9.541,14.078,9.541,23.09
			c0,9.021-3.643,17.192-9.541,23.098c-0.781,0.772-1.561,1.501-2.429,2.186c-4.25,2.047-9.021,3.192-14.052,3.192
			c-9.021,0-17.175-3.652-23.073-9.567c-5.985-5.907-9.628-14.078-9.628-23.09c0-9.021,3.643-17.192,9.628-23.099
			c0.694-0.772,1.561-1.5,2.342-2.186C402.087,124.334,406.858,123.189,411.888,123.189z" clip-rule="evenodd"/></svg>